<svg width="3097" height="2175" xmlns="http://www.w3.org/2000/svg" xmlns:xlink="http://www.w3.org/1999/xlink" xml:space="preserve" overflow="hidden"><defs><clipPath id="clip0"><rect x="274" y="150" width="3097" height="2175"/></clipPath><linearGradient x1="1822.5" y1="150" x2="1822.5" y2="2325" gradientUnits="userSpaceOnUse" spreadMethod="reflect" id="fill1"><stop offset="0" stop-color="#F0F9FD"/><stop offset="0.49" stop-color="#FFFFFF"/><stop offset="1" stop-color="#C1E5F5"/></linearGradient></defs><g clip-path="url(#clip0)" transform="translate(-274 -150)"><path d="M274.001 150 3371 150 3371 2158.81 3371 2159.39 3369.69 2159.39 3179.61 2243.09 3091.32 2204.21 2854.83 2325 2618.35 2204.21 2530.05 2243.09 2339.98 2159.39 2331.67 2159.39 2147.28 2240.58 2058.99 2201.7 1822.5 2322.49 1586.01 2201.7 1497.72 2240.58 1313.33 2159.39 1302.35 2159.39 1114.95 2241.91 1026.65 2203.03 790.167 2323.82 553.68 2203.03 465.386 2241.91 277.987 2159.39 274.001 2159.39 274.001 2157.63 274 2157.63 274.001 2157.63 274.001 150Z" fill="url(#fill1)" fill-rule="evenodd"/></g></svg>