<svg width="2475" height="1650" xmlns="http://www.w3.org/2000/svg" xmlns:xlink="http://www.w3.org/1999/xlink" xml:space="preserve" overflow="hidden"><defs><clipPath id="clip0"><rect x="705" y="254" width="2475" height="1650"/></clipPath><linearGradient x1="929.5" y1="737" x2="929.5" y2="254" gradientUnits="userSpaceOnUse" spreadMethod="reflect" id="fill1"><stop offset="0" stop-color="#4BF6FA"/><stop offset="0.5" stop-color="#3EA1FB"/><stop offset="1" stop-color="#324CFC"/></linearGradient><linearGradient x1="1153.5" y1="436" x2="1153.5" y2="330" gradientUnits="userSpaceOnUse" spreadMethod="reflect" id="fill2"><stop offset="0" stop-color="#4BF6FA"/><stop offset="0.5" stop-color="#3EA1FB"/><stop offset="1" stop-color="#324CFC"/></linearGradient><linearGradient x1="3120.5" y1="597" x2="3120.5" y2="404" gradientUnits="userSpaceOnUse" spreadMethod="reflect" id="fill3"><stop offset="0" stop-color="#4BF6FA"/><stop offset="0.5" stop-color="#3EA1FB"/><stop offset="1" stop-color="#324CFC"/></linearGradient><linearGradient x1="2976" y1="1046" x2="2976" y2="413" gradientUnits="userSpaceOnUse" spreadMethod="reflect" id="fill4"><stop offset="0" stop-color="#4BF6FA"/><stop offset="0.5" stop-color="#3EA1FB"/><stop offset="1" stop-color="#324CFC"/></linearGradient><linearGradient x1="965" y1="846" x2="965" y2="593" gradientUnits="userSpaceOnUse" spreadMethod="reflect" id="fill5"><stop offset="0" stop-color="#4BF6FA"/><stop offset="0.5" stop-color="#3EA1FB"/><stop offset="1" stop-color="#324CFC"/></linearGradient><linearGradient x1="725.5" y1="766" x2="725.5" y2="701" gradientUnits="userSpaceOnUse" spreadMethod="reflect" id="fill6"><stop offset="0" stop-color="#4BF6FA"/><stop offset="0.5" stop-color="#3EA1FB"/><stop offset="1" stop-color="#324CFC"/></linearGradient><linearGradient x1="2978.5" y1="844" x2="2978.5" y2="738" gradientUnits="userSpaceOnUse" spreadMethod="reflect" id="fill7"><stop offset="0" stop-color="#4BF6FA"/><stop offset="0.5" stop-color="#3EA1FB"/><stop offset="1" stop-color="#324CFC"/></linearGradient><linearGradient x1="801.5" y1="817" x2="801.5" y2="739" gradientUnits="userSpaceOnUse" spreadMethod="reflect" id="fill8"><stop offset="0" stop-color="#4BF6FA"/><stop offset="0.5" stop-color="#3EA1FB"/><stop offset="1" stop-color="#324CFC"/></linearGradient><linearGradient x1="1000.5" y1="1026" x2="1000.5" y2="787" gradientUnits="userSpaceOnUse" spreadMethod="reflect" id="fill9"><stop offset="0" stop-color="#4BF6FA"/><stop offset="0.5" stop-color="#3EA1FB"/><stop offset="1" stop-color="#324CFC"/></linearGradient><linearGradient x1="749" y1="1154" x2="749" y2="993" gradientUnits="userSpaceOnUse" spreadMethod="reflect" id="fill10"><stop offset="0" stop-color="#4BF6FA"/><stop offset="0.5" stop-color="#3EA1FB"/><stop offset="1" stop-color="#324CFC"/></linearGradient><linearGradient x1="2991" y1="1674" x2="2991" y2="1035" gradientUnits="userSpaceOnUse" spreadMethod="reflect" id="fill11"><stop offset="0" stop-color="#4BF6FA"/><stop offset="0.5" stop-color="#3EA1FB"/><stop offset="1" stop-color="#324CFC"/></linearGradient><linearGradient x1="843" y1="1239" x2="843" y2="1134" gradientUnits="userSpaceOnUse" spreadMethod="reflect" id="fill12"><stop offset="0" stop-color="#4BF6FA"/><stop offset="0.5" stop-color="#3EA1FB"/><stop offset="1" stop-color="#324CFC"/></linearGradient><linearGradient x1="2709.5" y1="1683" x2="2709.5" y2="1577" gradientUnits="userSpaceOnUse" spreadMethod="reflect" id="fill13"><stop offset="0" stop-color="#4BF6FA"/><stop offset="0.5" stop-color="#3EA1FB"/><stop offset="1" stop-color="#324CFC"/></linearGradient><linearGradient x1="2331" y1="1904" x2="2331" y2="1637" gradientUnits="userSpaceOnUse" spreadMethod="reflect" id="fill14"><stop offset="0" stop-color="#4BF6FA"/><stop offset="0.5" stop-color="#3EA1FB"/><stop offset="1" stop-color="#324CFC"/></linearGradient><linearGradient x1="2591.5" y1="1904" x2="2591.5" y2="1640" gradientUnits="userSpaceOnUse" spreadMethod="reflect" id="fill15"><stop offset="0" stop-color="#4BF6FA"/><stop offset="0.5" stop-color="#3EA1FB"/><stop offset="1" stop-color="#324CFC"/></linearGradient><linearGradient x1="2962.5" y1="1904" x2="2962.5" y2="1664" gradientUnits="userSpaceOnUse" spreadMethod="reflect" id="fill16"><stop offset="0" stop-color="#4BF6FA"/><stop offset="0.5" stop-color="#3EA1FB"/><stop offset="1" stop-color="#324CFC"/></linearGradient><linearGradient x1="2074.5" y1="1888" x2="2074.5" y2="1782" gradientUnits="userSpaceOnUse" spreadMethod="reflect" id="fill17"><stop offset="0" stop-color="#4BF6FA"/><stop offset="0.5" stop-color="#3EA1FB"/><stop offset="1" stop-color="#324CFC"/></linearGradient><linearGradient x1="1532.59" y1="2205.22" x2="2352.41" y2="-47.2181" gradientUnits="userSpaceOnUse" spreadMethod="reflect" id="fill18"><stop offset="0" stop-color="#CDEAF7"/><stop offset="0.71" stop-color="#FFFFFF"/><stop offset="1" stop-color="#FFFFFF"/></linearGradient><linearGradient x1="872" y1="849" x2="872" y2="408" gradientUnits="userSpaceOnUse" spreadMethod="reflect" id="fill19"><stop offset="0" stop-color="#4BF6FA"/><stop offset="0.5" stop-color="#3EA1FB"/><stop offset="1" stop-color="#324CFC"/></linearGradient><linearGradient x1="3065.5" y1="1826" x2="3065.5" y2="1420" gradientUnits="userSpaceOnUse" spreadMethod="reflect" id="fill20"><stop offset="0" stop-color="#4BF6FA"/><stop offset="0.5" stop-color="#3EA1FB"/><stop offset="1" stop-color="#324CFC"/></linearGradient><linearGradient x1="2614" y1="1904" x2="2614" y2="1823" gradientUnits="userSpaceOnUse" spreadMethod="reflect" id="fill21"><stop offset="0" stop-color="#4BF6FA"/><stop offset="0.5" stop-color="#3EA1FB"/><stop offset="1" stop-color="#324CFC"/></linearGradient></defs><g clip-path="url(#clip0)" transform="translate(-705 -254)"><path d="M705 254 1045.09 254 1051.91 260.819C1072.57 281.479 1072.57 314.977 1051.91 335.638 1031.25 356.299 1031.25 389.797 1051.91 410.458L1059.8 418.346C1080.46 439.006 1080.46 472.505 1059.8 493.165 1039.13 513.826 1039.13 547.324 1059.8 567.985L1138.5 646.685C1159.17 667.345 1159.17 700.843 1138.5 721.504 1117.84 742.165 1084.34 742.165 1063.68 721.504L947.151 604.987C936.82 594.657 923.279 589.491 909.738 589.491L889.838 593.364 705 408.54 705 254Z" fill="url(#fill1)" fill-rule="evenodd"/><path d="M1153.5 330C1182.5 330 1206 353.729 1206 383 1206 412.271 1182.5 436 1153.5 436 1124.51 436 1101 412.271 1101 383 1101 353.729 1124.51 330 1153.5 330Z" fill="url(#fill2)" fill-rule="evenodd"/><path d="M3113.98 404C3127.54 404 3141.1 409.148 3151.45 419.444L3180 447.86 3180 597 3076.52 494.014C3055.83 473.422 3055.83 440.036 3076.52 419.444 3086.86 409.148 3100.42 404 3113.98 404Z" fill="url(#fill3)" fill-rule="evenodd"/><path d="M2824.79 413C2838.3 413 2851.81 418.162 2862.11 428.486L3118.5 685.296C3133.97 700.783 3156.63 704.655 3175.7 696.911L3180 694.048 3180 1046 3043.85 909.625C3023.23 888.976 3023.23 855.498 3043.85 834.849 3064.46 814.2 3064.46 780.722 3043.85 760.073L2787.46 503.262C2766.85 482.614 2766.85 449.135 2787.46 428.486 2797.77 418.162 2811.28 413 2824.79 413Z" fill="url(#fill4)" fill-rule="evenodd"/><path d="M889.973 593 1057.86 761.086C1078.05 781.291 1078.05 814.052 1057.86 834.257 1052.82 839.308 1046.99 843.097 1040.77 845.623L1038.83 846 872.479 679.454C851.84 658.791 851.84 625.288 872.479 604.625 877.639 599.459 883.601 595.585 889.963 593.002L889.973 593Z" fill="url(#fill5)" fill-rule="evenodd"/><path d="M705 701 746 741.677 740.402 742.758C733.992 745.337 727.986 749.205 722.788 754.362 717.589 759.52 711.583 763.388 705.174 765.966L705 766 705 701Z" fill="url(#fill6)" fill-rule="evenodd"/><path d="M2978.5 738C3007.5 738 3031 761.728 3031 791 3031 820.271 3007.5 844 2978.5 844 2949.51 844 2926 820.271 2926 791 2926 761.728 2949.51 738 2978.5 738Z" fill="url(#fill7)" fill-rule="evenodd"/><path d="M760.263 739C773.724 739 787.185 744.148 797.455 754.444L857 814.139 842.333 817C829.17 817 816.007 811.966 805.965 801.898L746 741.782 760.263 739Z" fill="url(#fill8)" fill-rule="evenodd"/><path d="M915.33 787C928.552 787 941.774 792.029 951.861 802.089L984.17 834.306C994.258 844.365 1007.48 849.395 1020.7 849.395L1038.21 845.999 1128.52 936.061C1149.16 956.635 1149.16 989.994 1128.52 1010.57 1107.89 1031.14 1074.44 1031.14 1053.81 1010.57L857 814.319 861.708 813.405C867.927 810.89 873.755 807.118 878.799 802.089 888.887 792.029 902.109 787 915.33 787Z" fill="url(#fill9)" fill-rule="evenodd"/><path d="M705 993 777.882 1065.89C798.039 1086.04 798.039 1118.72 777.882 1138.88 762.763 1154 740.601 1157.78 721.961 1150.22L705 1138.96 705 993Z" fill="url(#fill10)" fill-rule="evenodd"/><path d="M3114.71 1035C3128.09 1035 3141.47 1040.1 3151.67 1050.29L3180 1078.59 3180 1429.86 3171.73 1424.37C3153.09 1416.82 3130.92 1420.59 3115.8 1435.7L3113.99 1437.5C3093.83 1457.64 3061.15 1457.64 3040.99 1437.5 3020.83 1417.37 2988.15 1417.37 2967.99 1437.5L2966.18 1439.31C2946.03 1459.45 2946.03 1492.09 2966.18 1512.23L3039.18 1585.15C3059.34 1605.28 3059.34 1637.93 3039.18 1658.07L3037.37 1659.87 3027.98 1674 2875.44 1521.63C2855.03 1501.24 2855.03 1468.19 2875.44 1447.8L2876.34 1446.91C2896.75 1426.52 2896.75 1393.46 2876.34 1373.07L2817.31 1314.11C2796.9 1293.72 2796.9 1260.67 2817.31 1240.28L2818.2 1239.38C2838.61 1219 2871.71 1219 2892.12 1239.38 2912.53 1259.77 2945.62 1259.77 2966.03 1239.38L2966.93 1238.49C2987.34 1218.1 3020.43 1218.1 3040.84 1238.49L3056.48 1254.11C3077.14 1274.75 3110.63 1274.75 3131.29 1254.11 3151.95 1233.48 3151.95 1200.02 3131.29 1179.39L3076.86 1125.02C3056.45 1104.63 3056.45 1071.57 3076.86 1051.19L3077.76 1050.29C3087.96 1040.1 3101.34 1035 3114.71 1035Z" fill="url(#fill11)" fill-rule="evenodd"/><path d="M843 1134C872.271 1134 896 1157.5 896 1186.5 896 1215.49 872.271 1239 843 1239 813.729 1239 790 1215.49 790 1186.5 790 1157.5 813.729 1134 843 1134Z" fill="url(#fill12)" fill-rule="evenodd"/><path d="M2709.5 1577C2738.5 1577 2762 1600.73 2762 1630 2762 1659.27 2738.5 1683 2709.5 1683 2680.5 1683 2657 1659.27 2657 1630 2657 1600.73 2680.5 1577 2709.5 1577Z" fill="url(#fill13)" fill-rule="evenodd"/><path d="M2102.65 1637C2115.86 1637 2129.08 1642.05 2139.17 1652.14L2293.12 1806.19C2313.29 1826.38 2345.99 1826.38 2366.16 1806.19 2386.33 1786.01 2419.03 1786.01 2439.2 1806.19L2471.5 1838.51C2491.67 1858.69 2524.37 1858.69 2544.54 1838.51L2545.15 1838.11 2611 1904 2140.76 1904 2141.18 1901.86C2143.7 1895.64 2147.48 1889.81 2152.52 1884.76 2172.69 1864.58 2172.69 1831.86 2152.52 1811.67L2066.13 1725.22C2045.96 1705.04 2045.96 1672.32 2066.13 1652.14 2076.21 1642.05 2089.43 1637 2102.65 1637Z" fill="url(#fill14)" fill-rule="evenodd"/><path d="M2475.41 1640C2488.62 1640 2501.82 1645.03 2511.9 1655.1L2761 1904 2683.54 1904 2618.02 1838.53C2602.87 1823.39 2580.67 1819.61 2561.99 1827.18L2545.5 1838.12 2437.11 1729.83C2416.96 1709.69 2416.96 1677.05 2437.11 1656.91L2438.92 1655.1C2449 1645.03 2462.21 1640 2475.41 1640Z" fill="url(#fill15)" fill-rule="evenodd"/><path d="M2798.35 1664C2811.54 1664 2824.73 1669.03 2834.79 1679.1L2997.23 1841.61C3017.86 1862.25 3051.3 1862.25 3071.93 1841.61 3092.56 1820.98 3092.56 1787.52 3071.93 1766.88L3037.59 1732.52C3022.49 1717.42 3018.72 1695.28 3026.26 1676.66L3028.21 1673.73 3180 1825.59 3180 1904 2890.73 1904 2887.44 1887.11C2884.87 1880.75 2881 1874.79 2875.84 1869.63L2760.1 1753.83C2739.97 1733.7 2739.97 1701.05 2760.1 1680.91L2761.9 1679.1C2771.97 1669.03 2785.16 1664 2798.35 1664Z" fill="url(#fill16)" fill-rule="evenodd"/><path d="M2074.5 1782C2103.49 1782 2127 1805.73 2127 1835 2127 1864.27 2103.49 1888 2074.5 1888 2045.51 1888 2022 1864.27 2022 1835 2022 1805.73 2045.51 1782 2074.5 1782Z" fill="url(#fill17)" fill-rule="evenodd"/><path d="M1044.68 254 3180 254 3180 447.866 3151.52 419.388C3130.88 398.75 3097.42 398.75 3076.79 419.388 3056.15 440.025 3056.15 473.485 3076.79 494.122L3180 597.335 3180 693.988 3175.69 696.85C3156.61 704.589 3133.91 700.72 3118.44 685.242L2861.77 428.574C2841.13 407.937 2807.67 407.937 2787.03 428.574 2766.4 449.211 2766.4 482.672 2787.03 503.309L3043.7 759.977C3064.34 780.614 3064.34 814.074 3043.7 834.712 3023.06 855.349 3023.06 888.809 3043.7 909.446L3180 1045.75 3180 1078.24 3151.7 1049.94C3131.31 1029.55 3098.25 1029.55 3077.86 1049.94L3076.97 1050.83C3056.58 1071.22 3056.58 1104.28 3076.97 1124.67L3131.34 1179.05C3151.98 1199.68 3151.98 1233.14 3131.34 1253.78 3110.7 1274.42 3077.24 1274.42 3056.61 1253.78L3040.98 1238.16C3020.59 1217.77 2987.53 1217.77 2967.14 1238.16L2966.25 1239.05C2945.86 1259.44 2912.8 1259.44 2892.41 1239.05 2872.02 1218.66 2838.96 1218.66 2818.57 1239.05L2817.67 1239.95C2797.28 1260.34 2797.28 1293.4 2817.67 1313.79L2876.64 1372.76C2897.03 1393.15 2897.03 1426.21 2876.64 1446.6L2875.75 1447.49C2855.36 1467.88 2855.36 1500.94 2875.75 1521.33L3028.13 1673.72 3026.19 1676.65C3018.64 1695.27 3022.41 1717.41 3037.52 1732.51L3071.87 1766.87C3092.51 1787.51 3092.51 1820.97 3071.87 1841.61 3051.24 1862.25 3017.78 1862.25 2997.14 1841.61L2834.62 1679.09C2814.48 1658.95 2781.83 1658.95 2761.7 1679.09L2759.89 1680.9C2739.75 1701.04 2739.75 1733.69 2759.89 1753.82L2875.69 1869.63C2880.85 1874.79 2884.72 1880.75 2887.3 1887.11L2890.58 1904 2760.59 1904 2511.67 1655.08C2491.53 1634.94 2458.88 1634.94 2438.74 1655.08L2436.93 1656.88C2416.8 1677.02 2416.8 1709.67 2436.93 1729.81L2545.24 1838.12 2544.63 1838.52C2524.45 1858.7 2491.73 1858.7 2471.55 1838.52L2439.24 1806.21C2419.06 1786.03 2386.34 1786.03 2366.16 1806.21 2345.98 1826.39 2313.26 1826.39 2293.08 1806.21L2139.05 1652.17C2118.87 1631.99 2086.15 1631.99 2065.97 1652.17 2045.79 1672.35 2045.79 1705.07 2065.97 1725.25L2152.41 1811.69C2172.59 1831.87 2172.59 1864.58 2152.41 1884.76 2147.37 1889.81 2143.58 1895.64 2141.06 1901.86L2140.64 1904 705 1904 705 1139.11 721.98 1150.38C740.641 1157.95 762.828 1154.16 777.965 1139.03 798.144 1118.85 798.144 1086.13 777.965 1065.95L705 992.989 705 765.7 705.173 765.666C711.534 763.087 717.495 759.217 722.654 754.058 727.814 748.899 733.774 745.029 740.136 742.449L745.692 741.368 805.938 801.615C816.028 811.705 829.252 816.75 842.477 816.75L857.213 813.882 1054.06 1010.73C1074.69 1031.37 1108.15 1031.37 1128.79 1010.73 1149.43 990.091 1149.43 956.631 1128.79 935.994L1038.46 845.658 1040.39 845.281C1046.61 842.759 1052.44 838.975 1057.49 833.93 1077.67 813.751 1077.67 781.031 1057.49 760.852L889.613 592.978 909.489 589.111C923.013 589.111 936.538 594.27 946.856 604.589L1063.24 720.974C1083.88 741.611 1117.34 741.611 1137.98 720.974 1158.61 700.336 1158.61 666.876 1137.98 646.239L1059.37 567.629C1038.73 546.991 1038.73 513.531 1059.37 492.894 1080 472.257 1080 438.796 1059.37 418.159L1051.49 410.28C1030.85 389.643 1030.85 356.183 1051.49 335.546 1072.12 314.908 1072.12 281.448 1051.49 260.811L1044.68 254ZM1153.45 329.867C1124.27 329.867 1100.61 353.526 1100.61 382.712 1100.61 411.898 1124.27 435.557 1153.45 435.557 1182.64 435.557 1206.3 411.898 1206.3 382.712 1206.3 353.526 1182.64 329.867 1153.45 329.867ZM2978.3 738.13C2949.12 738.13 2925.46 761.789 2925.46 790.975 2925.46 820.161 2949.12 843.821 2978.3 843.821 3007.49 843.821 3031.15 820.161 3031.15 790.975 3031.15 761.789 3007.49 738.13 2978.3 738.13ZM843.124 1133.46C813.938 1133.46 790.278 1157.12 790.278 1186.3 790.278 1215.49 813.938 1239.15 843.124 1239.15 872.309 1239.15 895.969 1215.49 895.969 1186.3 895.969 1157.12 872.309 1133.46 843.124 1133.46ZM2709.27 1577.3C2680.08 1577.3 2656.42 1600.96 2656.42 1630.15 2656.42 1659.34 2680.08 1682.99 2709.27 1682.99 2738.46 1682.99 2762.11 1659.34 2762.11 1630.15 2762.11 1600.96 2738.46 1577.3 2709.27 1577.3ZM2074.55 1782.34C2045.36 1782.34 2021.7 1806 2021.7 1835.19 2021.7 1864.37 2045.36 1888.03 2074.55 1888.03 2103.73 1888.03 2127.39 1864.37 2127.39 1835.19 2127.39 1806 2103.73 1782.34 2074.55 1782.34Z" fill="url(#fill18)" fill-rule="evenodd"/><path d="M705 408 889.914 592.739 889.905 592.741C883.533 595.322 877.562 599.194 872.394 604.357 851.723 625.008 851.723 658.491 872.394 679.143L1039 845.591 1021.46 849C1008.22 849 994.97 843.952 984.864 833.855L952.496 801.517C932.284 781.324 899.513 781.324 879.301 801.517 874.247 806.566 868.408 810.352 862.178 812.876L857.461 813.793 797.54 753.928C787.204 743.602 773.658 738.44 760.112 738.44L745.759 741.23 705 700.509 705 408Z" fill="url(#fill19)" fill-rule="evenodd"/><path d="M3152.29 1420C3158.9 1420 3165.51 1421.26 3171.72 1423.78L3180 1429.28 3180 1826 3027.94 1673.87 3037.33 1659.72 3039.14 1657.91C3059.31 1637.74 3059.31 1605.03 3039.14 1584.86L2966.12 1511.81C2945.96 1491.63 2945.96 1458.93 2966.12 1438.75L2967.93 1436.94C2988.1 1416.77 3020.79 1416.77 3040.95 1436.94 3061.12 1457.11 3093.81 1457.11 3113.97 1436.94L3115.79 1435.13C3125.87 1425.04 3139.08 1420 3152.29 1420Z" fill="url(#fill20)" fill-rule="evenodd"/><path d="M2580.95 1823C2594.17 1823 2607.4 1828.07 2617.5 1838.21L2683 1904 2610.91 1904 2545 1837.8 2561.49 1826.8C2567.72 1824.27 2574.33 1823 2580.95 1823Z" fill="url(#fill21)" fill-rule="evenodd"/></g></svg>