<svg width="52" height="52" xmlns="http://www.w3.org/2000/svg" xmlns:xlink="http://www.w3.org/1999/xlink" xml:space="preserve" overflow="hidden"><defs><clipPath id="clip0"><rect x="1770" y="468" width="52" height="52"/></clipPath></defs><g clip-path="url(#clip0)" transform="translate(-1770 -468)"><path d="M1770 476.667C1770 471.88 1773.88 468 1778.67 468L1813.33 468C1818.12 468 1822 471.88 1822 476.667L1822 511.333C1822 516.12 1818.12 520 1813.33 520L1778.67 520C1773.88 520 1770 516.12 1770 511.333Z" fill="#FF552D" fill-rule="evenodd"/><path d="M1813 481.203 1808.8 477 1795.5 490.299 1782.2 477 1778 481.203 1791.3 494.5 1778 507.799 1782.2 512 1795.5 498.703 1808.8 512 1813 507.799 1799.7 494.5Z" stroke="#FFFFFF" stroke-width="2.29167" stroke-miterlimit="8" fill="#FFFFFF" fill-rule="evenodd"/></g></svg>