<svg width="3868" height="848" xmlns="http://www.w3.org/2000/svg" xmlns:xlink="http://www.w3.org/1999/xlink" xml:space="preserve" overflow="hidden"><g transform="translate(-353 -786)"><path d="M588.706 1412.37C556.114 1412.37 525.517 1406.18 496.878 1393.84 468.206 1381.46 443.28 1364.68 422.103 1343.47 400.891 1322.29 384.113 1297.37 371.736 1268.73 359.394 1240.06 353.206 1209.46 353.206 1176.87 353.206 1144.28 359.394 1113.68 371.736 1085.04 384.113 1056.37 400.891 1031.44 422.103 1010.26 443.28 989.053 468.206 972.276 496.878 959.899 525.517 947.557 556.114 941.368 588.706 941.368 614.215 941.368 638.35 945.081 661.11 952.542 683.903 960.002 704.875 970.419 724.127 983.758L689.988 1018.48C675.068 1009.06 659.15 1001.7 642.27 996.41 625.389 991.115 607.546 988.468 588.706 988.468 536.518 988.468 492.065 1006.83 455.347 1043.51 418.665 1080.23 400.306 1124.68 400.306 1176.87 400.306 1229.06 418.665 1273.51 455.347 1310.23 492.065 1346.91 536.518 1365.27 588.706 1365.27 640.894 1365.27 685.347 1346.91 722.065 1310.23 758.747 1273.51 777.106 1229.06 777.106 1176.87 777.106 1169.82 776.727 1162.74 775.937 1155.69 775.146 1148.61 773.977 1141.73 772.396 1135.06L810.661 1096.8C814.993 1109.35 818.327 1122.31 820.665 1135.65 823.037 1148.99 824.206 1162.74 824.206 1176.87 824.206 1209.46 818.018 1240.06 805.676 1268.73 793.299 1297.37 776.521 1322.29 755.309 1343.47 734.132 1364.68 709.206 1381.46 680.568 1393.84 651.895 1406.18 621.298 1412.37 588.706 1412.37ZM555.736 1285.2 455.657 1185.12 488.627 1152.15 555.736 1219.26 791.235 983.174 824.206 1016.14 555.736 1285.2Z" fill="#F47B12" fill-rule="evenodd"/><text fill="#2E2E2E" font-family="Avenir Next LT Pro,Avenir Next LT Pro_MSFontService,sans-serif" font-weight="700" font-size="403" transform="matrix(1 0 0 1 857.759 1291)">Sympto</text><text fill="#F47B12" font-family="Avenir Next LT Pro,Avenir Next LT Pro_MSFontService,sans-serif" font-weight="700" font-size="403" transform="matrix(1 0 0 1 2371.63 1291)">Checker</text></g></svg>