<svg width="1718" height="1429" xmlns="http://www.w3.org/2000/svg" xmlns:xlink="http://www.w3.org/1999/xlink" xml:space="preserve" overflow="hidden"><defs><clipPath id="clip0"><rect x="1336" y="492" width="1718" height="1429"/></clipPath><linearGradient x1="2788" y1="1234.5" x2="2829" y2="1234.5" gradientUnits="userSpaceOnUse" spreadMethod="reflect" id="fill1"><stop offset="0" stop-color="#1C4A0B"/><stop offset="0.5" stop-color="#2D6E15"/><stop offset="1" stop-color="#37841C"/></linearGradient><linearGradient x1="2820" y1="1285.5" x2="2886" y2="1285.5" gradientUnits="userSpaceOnUse" spreadMethod="reflect" id="fill2"><stop offset="0" stop-color="#1C4A0B"/><stop offset="0.5" stop-color="#2D6E15"/><stop offset="1" stop-color="#37841C"/></linearGradient><linearGradient x1="2848" y1="1178.5" x2="2899" y2="1178.5" gradientUnits="userSpaceOnUse" spreadMethod="reflect" id="fill3"><stop offset="0" stop-color="#1C4A0B"/><stop offset="0.5" stop-color="#2D6E15"/><stop offset="1" stop-color="#37841C"/></linearGradient><linearGradient x1="2755" y1="1347.5" x2="2812" y2="1347.5" gradientUnits="userSpaceOnUse" spreadMethod="reflect" id="fill4"><stop offset="0" stop-color="#1C4A0B"/><stop offset="0.5" stop-color="#2D6E15"/><stop offset="1" stop-color="#37841C"/></linearGradient><linearGradient x1="2813" y1="1384" x2="2871" y2="1384" gradientUnits="userSpaceOnUse" spreadMethod="reflect" id="fill5"><stop offset="0" stop-color="#1C4A0B"/><stop offset="0.5" stop-color="#2D6E15"/><stop offset="1" stop-color="#37841C"/></linearGradient><linearGradient x1="2754" y1="1433" x2="2812" y2="1433" gradientUnits="userSpaceOnUse" spreadMethod="reflect" id="fill6"><stop offset="0" stop-color="#1C4A0B"/><stop offset="0.5" stop-color="#2D6E15"/><stop offset="1" stop-color="#37841C"/></linearGradient><linearGradient x1="1640" y1="1731" x2="1640" y2="1393" gradientUnits="userSpaceOnUse" spreadMethod="reflect" id="fill7"><stop offset="0" stop-color="#387D1F"/><stop offset="0.5" stop-color="#54B432"/><stop offset="1" stop-color="#65D73D"/></linearGradient><linearGradient x1="2817.5" y1="1794" x2="2817.5" y2="1411" gradientUnits="userSpaceOnUse" spreadMethod="reflect" id="fill8"><stop offset="0" stop-color="#387D1F"/><stop offset="0.5" stop-color="#54B432"/><stop offset="1" stop-color="#65D73D"/></linearGradient></defs><g clip-path="url(#clip0)" transform="translate(-1336 -492)"><path d="M1336 492 3054 492 3054 1921 1336 1921Z" fill="#FFFFFF" fill-rule="evenodd"/><path d="M2091.66 946.746C2038.84 755.128 1800.82 693.402 1664.42 836.608 1662.46 838.663 1660.51 840.756 1658.55 842.88 1462.99 1055.47 1555.37 1579.37 1963.5 1712.15 2371.62 1844.93 2796.12 1602.46 2819.97 1385.7 2843.82 1168.94 2655.53 1100.84 2363.33 1161.44 2198.24 1195.69 2124.54 1066.03 2091.66 946.746Z" fill="#DCEAF7" fill-rule="evenodd"/><path d="M2430.83 979.976C2376.22 988.878 2361.08 1037.32 2403.25 1071.68 2417.18 1083.04 2437.09 1092.48 2465.44 1097.19 2573.46 1115.13 2630.78 1067.28 2587.48 1005.25 2560.76 966.959 2484.95 971.154 2430.83 979.976Z" fill="#DCEAF7" fill-rule="evenodd"/><path d="M1585.24 1371.85C1558.46 1323.57 1507.89 1325.66 1489.86 1376.82 1483.9 1393.73 1481.76 1415.59 1486.9 1443.8 1506.49 1551.26 1570.73 1588.97 1614.35 1527.44 1641.28 1489.46 1611.77 1419.7 1585.24 1371.85Z" fill="#D9F2D0" fill-rule="evenodd"/><path d="M2858.73 1411.32C2853.72 1437.67 2875.38 1456.34 2899.92 1446.19 2908.03 1442.83 2916.21 1436.36 2923.49 1424.98 2951.22 1381.63 2937.18 1344.45 2898.57 1348.27 2874.74 1350.63 2863.69 1385.2 2858.73 1411.32Z" fill="#D9F2D0" fill-rule="evenodd"/><path d="M2720.11 1133.14C2746.19 1138.62 2765.1 1117.18 2755.43 1092.35 2752.23 1084.15 2745.95 1075.82 2734.78 1068.31 2692.21 1039.71 2655.05 1053.19 2658.18 1092.04 2660.12 1116.02 2694.26 1127.71 2720.11 1133.14Z" fill="#DCEAF7" fill-rule="evenodd"/><path d="M2082.43 851.724C2103.23 868.661 2129.99 858.396 2132.77 831.9 2133.7 823.143 2131.91 812.843 2125.37 801.014 2100.48 755.949 2061.07 750.703 2045.99 786.608 2036.69 808.775 2061.83 834.941 2082.43 851.724Z" fill="#DCEAF7" fill-rule="evenodd"/><path d="M2913.54 1797.33C2922.56 1798.83 2931.97 1796.31 2938.26 1789.68 2942.36 1785.35 2945.14 1780.01 2945.14 1774.89 2945.14 1774.82 2945.14 1774.74 2945.14 1774.67 2945.01 1737.95 2990.19 1740.4 3004.69 1695.5 3019.2 1650.61 2961.88 1646.83 2929.15 1674.55 2905.61 1694.48 2877.36 1666.64 2843.15 1689.88 2813.45 1710.05 2829.99 1759.73 2781.27 1744.2 2765.71 1739.24 2751.78 1744.02 2740.02 1752.83 2726.48 1762.98 2717.67 1777.19 2714 1792.63L2717.88 1795.37C2813.98 1854.19 2857.29 1787.95 2913.54 1797.33Z" fill="#8ED973" fill-rule="evenodd"/><path d="M2818.52 1795 2945.32 1713.72C2947.02 1712.63 2947.51 1710.37 2946.42 1708.68 2945.33 1706.98 2943.07 1706.49 2941.37 1707.58L2805 1795 2818.52 1795Z" fill="#3B7D23" fill-rule="evenodd"/><path d="M2811.39 1552.34C2806.04 1472.31 2805.16 1388.39 2811.09 1332.75 2818.84 1260.06 2836.37 1209.46 2863.19 1182.35 2864.97 1180.56 2867.86 1180.55 2869.65 1182.33 2871.44 1184.12 2871.45 1187.02 2869.67 1188.82 2822.78 1236.2 2805.92 1363.43 2820.82 1557L2811.39 1552.34Z" fill="#13501B" fill-rule="evenodd"/><path d="M2823.64 1268C2823.64 1268 2785.41 1267.94 2788.14 1201 2788.14 1201 2846.64 1217.62 2823.64 1268Z" fill="url(#fill1)" fill-rule="evenodd"/><path d="M2820.01 1302.86C2820.01 1302.86 2817.91 1265 2886 1264 2886 1264 2872.43 1322.84 2820.01 1302.86Z" fill="url(#fill2)" fill-rule="evenodd"/><path d="M2849.5 1207.96C2849.5 1207.96 2834.59 1172.49 2898.69 1149 2898.7 1149 2905.96 1209.7 2849.5 1207.96Z" fill="url(#fill3)" fill-rule="evenodd"/><path d="M2811.76 1372.93C2811.76 1372.93 2775.38 1385.95 2755 1321.07 2755 1321.07 2816.33 1316.94 2811.76 1372.93Z" fill="url(#fill4)" fill-rule="evenodd"/><path d="M2813.37 1408.67C2813.37 1408.67 2804.71 1370.83 2871 1358 2871 1358 2868.04 1419.74 2813.37 1408.67Z" fill="url(#fill5)" fill-rule="evenodd"/><path d="M2811.85 1457.78C2811.85 1457.78 2775.65 1471.45 2754 1407.13 2754 1407.13 2815.38 1401.86 2811.85 1457.78Z" fill="url(#fill6)" fill-rule="evenodd"/><path d="M1698 1731 1687.53 1730.59 1681.99 1730.36 1666.26 1729.73C1666.26 1729.73 1520.95 1482.86 1611.98 1402.35 1640.01 1377.56 1689 1398.11 1678.17 1512.03 1668.13 1617.62 1698 1731 1698 1731Z" fill="url(#fill7)" fill-rule="evenodd"/><path d="M1688 1730 1682.45 1729.78C1657.07 1670.13 1644.26 1606.06 1637.9 1561.08 1630.35 1507.68 1630 1468.9 1630 1468.52 1629.99 1467.14 1631.1 1466 1632.49 1466 1633.88 1465.99 1635.01 1467.1 1635.02 1468.48 1635.02 1468.87 1635.37 1507.38 1642.89 1560.47 1649.29 1605.66 1662.23 1670.26 1688 1730Z" fill="#3B7D23" fill-rule="evenodd"/><path d="M1727 1780.02 1712.81 1785.29 1705.28 1788.09 1683.95 1796C1683.95 1796 1352.83 1547.57 1429.53 1389.5 1453.14 1340.83 1529.93 1340.97 1578.81 1498.96 1624.12 1645.41 1727 1780.02 1727 1780.02Z" fill="#8ED973" fill-rule="evenodd"/><path d="M1713 1785.21 1705.45 1788C1638.18 1722.41 1585.23 1643.9 1551.59 1587.34 1511.65 1520.18 1489.5 1468.56 1489.29 1468.04 1488.5 1466.2 1489.37 1464.07 1491.22 1463.29 1493.07 1462.5 1495.2 1463.37 1495.99 1465.2 1496.21 1465.72 1518.19 1516.98 1557.92 1583.74 1591.73 1640.58 1645.15 1719.7 1713 1785.21Z" fill="#3B7D23" fill-rule="evenodd"/><path d="M2859.3 1794C2859.14 1788.27 2858.47 1782.48 2857.22 1776.74 2845.33 1722.17 2877.66 1711.88 2920.29 1694.65 2962.91 1677.41 2967.98 1626.22 2937.8 1583.68 2907.61 1541.14 2961.85 1506.94 2941.88 1442.92 2921.91 1378.89 2852.55 1421.48 2837.37 1480.5 2826.47 1522.94 2771.02 1513.76 2750.48 1568.8 2732.64 1616.58 2792.43 1660.71 2723.38 1682.61 2701.33 1689.6 2689.14 1706.57 2682.75 1726.44 2675.4 1749.32 2676.85 1773.06 2685.24 1794L2859.3 1794Z" fill="url(#fill8)" fill-rule="evenodd"/><path d="M2775.18 1794 2888.62 1513.15C2889.69 1510.49 2888.41 1507.46 2885.76 1506.38 2883.11 1505.3 2880.08 1506.59 2879.01 1509.25L2764 1794 2775.18 1794Z" fill="#3B7D23" fill-rule="evenodd"/><path d="M1824.96 943.622C1824.96 943.622 1827.36 892.551 1796.48 882.743 1748.4 867.466 1735.02 892.551 1727.6 909.127 1718.09 930.369 1722.15 972.036 1750.83 976.059 1793.65 982.067 1822.31 957.893 1824.96 943.622Z" fill="#3A3A3A" fill-rule="evenodd"/><path d="M1855.84 1113C1880.75 1113 1902.27 1095.51 1907.37 1071.09 1911.04 1053.5 1914.63 1037.92 1914.63 1029.17L1914.63 1028.94C1914.85 1026.18 1914.98 1023.41 1915 1020.69 1915.32 980.687 1890.7 907.624 1804.1 919.235 1804.1 919.235 1732.25 927.448 1724.07 997.788 1724.07 997.788 1720.66 1030.24 1718.4 1053.74 1718.36 1054.15 1718.32 1054.57 1718.28 1054.97 1715.12 1086.03 1739.5 1112.99 1770.66 1112.99L1855.84 1112.99Z" fill="#3A3A3A" fill-rule="evenodd"/><path d="M1958.51 1196C1958.51 1196 1973.87 1317.81 1991.41 1380.35 1991.41 1380.35 2016.33 1368.73 2048.94 1352.95 2084.31 1335.84 2135.15 1304.62 2135.15 1304.62L2148 1335.62C2148 1335.62 2016.67 1459.74 1973.16 1466.77 1929.66 1473.8 1903 1317.81 1903 1317.81L1958.51 1196Z" fill="#61CBF4" fill-rule="evenodd"/><path d="M2132.84 1308.66C2132.84 1308.66 2129.24 1291.37 2136.95 1279.67 2144.65 1267.97 2156.39 1246.06 2170.16 1241.49 2181.69 1237.66 2164.68 1257.2 2164.17 1269.59 2164.17 1269.59 2181.32 1267.43 2193.68 1263.4 2204.55 1259.85 2226.07 1255.42 2236.05 1253.45 2238.79 1252.91 2240.54 1256.37 2238.44 1258.2 2235.04 1261.17 2227.92 1264.89 2213.22 1268.45 2213.22 1268.45 2249.06 1261.64 2252.78 1267.15 2256.5 1272.66 2211.53 1280.35 2211.53 1280.35 2211.53 1280.35 2246.42 1278.28 2247.33 1283.78 2247.88 1287.12 2211.73 1294.79 2211.73 1294.79 2211.73 1294.79 2244.72 1295.68 2236.74 1300.9 2234.42 1302.43 2170.56 1309.64 2148.32 1336 2148.32 1336 2133.37 1320.48 2132.84 1308.66Z" fill="#FFA681" fill-rule="evenodd"/><path d="M1738 1172.2C1738 1172.2 1664.45 1193.83 1601.11 1208.07 1601.11 1208.07 1599.47 1180.69 1597.81 1144.58 1596.01 1105.43 1599.25 1046 1599.25 1046L1565.88 1049.42C1565.88 1049.42 1519.28 1223.54 1533.81 1265.05 1548.35 1306.57 1732.93 1248.41 1732.93 1248.41L1738 1172.2Z" fill="#61CBF4" fill-rule="evenodd"/><path d="M1597.53 1049.89C1597.53 1049.89 1614.34 1044.87 1620.91 1032.57 1627.48 1020.28 1645.63 995.526 1634.43 986.36 1630.34 983.013 1627.39 997.613 1616.8 1003.92 1616.8 1003.92 1610.56 987.856 1608.21 975.096 1606.15 963.874 1599.81 942.901 1596.8 933.211 1595.97 930.559 1592.11 930.651 1591.51 933.365 1590.54 937.753 1590.66 945.755 1594.53 960.342 1594.53 960.342 1583.48 925.665 1576.89 925.008 1570.31 924.35 1584.93 967.451 1584.93 967.451 1584.93 967.451 1570.18 935.85 1564.95 937.654 1561.76 938.749 1572.22 974.094 1572.22 974.094 1572.22 974.094 1555.79 945.563 1555 955.037 1554.77 957.795 1578.77 1017.25 1566.29 1049.22 1566.29 1049.22 1586.95 1055.01 1597.53 1049.89Z" fill="#FACDA5" fill-rule="evenodd"/><path d="M1956.26 1667.3 1956.84 1669.9C1899.71 1708.64 1686 1682.19 1686 1682.19 1686.37 1677.7 1686.84 1673 1687.47 1668.15 1688.14 1662.73 1688.96 1657.12 1689.91 1651.33 1692.49 1635.75 1695.96 1618.91 1699.85 1601.57 1701.1 1596.11 1702.35 1590.58 1703.66 1585.01 1707.52 1568.47 1711.62 1551.69 1715.51 1535.35 1716.85 1529.73 1718.17 1524.19 1719.45 1518.68 1721.23 1511.04 1722.92 1503.51 1724.53 1496.22 1726.64 1486.52 1728.51 1477.2 1730.09 1468.42 1731.15 1462.52 1732.07 1456.86 1732.78 1451.48 1733.59 1445.8 1734.15 1440.42 1734.49 1435.44 1731.09 1422.87 1727.93 1410.56 1724.98 1398.61 1723.51 1392.53 1722.07 1386.59 1720.66 1380.71 1716.27 1361.89 1712.41 1343.98 1709.04 1327.21 1707.84 1321.11 1706.66 1315.18 1705.59 1309.4 1701.85 1289.61 1698.83 1271.71 1696.4 1256.09 1695.47 1249.86 1694.58 1244.05 1693.81 1238.56 1692.95 1232.56 1692.22 1227.01 1691.58 1221.98 1688.71 1199.83 1687.72 1187.27 1687.72 1187.27 1688.22 1186.86 1688.75 1186.49 1689.3 1186.1 1695.78 1181.49 1705.91 1177.15 1717.18 1173.29 1729.07 1169.21 1742.22 1165.66 1753.81 1162.86 1755.56 1162.44 1757.29 1162.03 1758.97 1161.63 1774.2 1158.07 1785.59 1156 1785.59 1156 1837.41 1166.87 1852.19 1159.88 1852.19 1159.88L1878.54 1167.66 1881.64 1168.75 1900.84 1175.49 1901.61 1175.78 1936.04 1187.92 1959 1195.98 1950.09 1237.14 1946.2 1255.11 1934.47 1309.29 1930.61 1327.2 1918.92 1381.19 1915.08 1398.92 1905.4 1443.65 1907.33 1452.2 1911.11 1468.78 1917.1 1495.15 1922.55 1519 1926.3 1535.53 1937.58 1585.27 1941.35 1601.7 1952.53 1650.86 1956.26 1667.3Z" fill="#83CBEB" fill-rule="evenodd"/><path d="M1881 1169.16C1875.52 1201.59 1859.89 1234.22 1827.42 1237.74 1788.19 1242.01 1767.85 1192.48 1759 1162.05 1774.15 1158.48 1789.85 1155 1789.85 1155 1841.39 1165.87 1851.33 1159.25 1851.33 1159.25L1877.92 1168.07 1881 1169.16Z" fill="#FACDA5" fill-rule="evenodd"/><path d="M1823.39 1210C1782.02 1210 1772.13 1158.93 1772.03 1158.41 1771.83 1157.3 1772.56 1156.24 1773.67 1156.03 1774.78 1155.83 1775.84 1156.56 1776.05 1157.67 1776.42 1159.72 1785.81 1207.91 1825.8 1205.86 1860.79 1204.1 1862.85 1165.27 1862.92 1163.62 1862.97 1162.5 1863.91 1161.61 1865.05 1161.67 1866.17 1161.72 1867.05 1162.67 1867 1163.79 1866.98 1164.23 1864.73 1207.97 1826 1209.93 1825.12 1209.98 1824.25 1210 1823.39 1210Z" fill="#FFFFFF" fill-rule="evenodd"/><path d="M1749 1196C1749 1201.52 1744.52 1206 1739 1206 1733.48 1206 1729 1201.52 1729 1196 1729 1190.48 1733.48 1186 1739 1186 1744.52 1186 1749 1190.48 1749 1196Z" fill="#4E95D9" fill-rule="evenodd"/><path d="M1729 1246C1729 1251.52 1724.52 1256 1719 1256 1713.48 1256 1709 1251.52 1709 1246 1709 1240.48 1713.48 1236 1719 1236 1724.52 1236 1729 1240.48 1729 1246Z" fill="#4E95D9" fill-rule="evenodd"/><path d="M1794 1269C1794 1274.52 1789.52 1279 1784 1279 1778.48 1279 1774 1274.52 1774 1269 1774 1263.48 1778.48 1259 1784 1259 1789.53 1259 1794 1263.48 1794 1269Z" fill="#4E95D9" fill-rule="evenodd"/><path d="M1748.28 1296.29C1750.33 1301.42 1747.84 1307.24 1742.71 1309.28 1737.58 1311.33 1731.76 1308.84 1729.72 1303.71 1727.67 1298.58 1730.17 1292.76 1735.29 1290.72 1740.42 1288.67 1746.24 1291.17 1748.28 1296.29Z" fill="#4E95D9" fill-rule="evenodd"/><path d="M1836 1315C1836 1320.52 1831.52 1325 1826 1325 1820.48 1325 1816 1320.52 1816 1315 1816 1309.48 1820.48 1305 1826 1305 1831.52 1305 1836 1309.48 1836 1315Z" fill="#4E95D9" fill-rule="evenodd"/><path d="M1901 1336C1901 1341.52 1896.3 1346 1890.5 1346 1884.7 1346 1880 1341.52 1880 1336 1880 1330.48 1884.7 1326 1890.5 1326 1896.3 1326 1901 1330.48 1901 1336Z" fill="#4E95D9" fill-rule="evenodd"/><path d="M1914 1206.5C1914 1212.3 1909.3 1217 1903.5 1217 1897.7 1217 1893 1212.3 1893 1206.5 1893 1200.7 1897.7 1196 1903.5 1196 1909.3 1196 1914 1200.7 1914 1206.5Z" fill="#4E95D9" fill-rule="evenodd"/><path d="M1840 1379.5C1840 1385.3 1835.52 1390 1830 1390 1824.48 1390 1820 1385.3 1820 1379.5 1820 1373.7 1824.48 1369 1830 1369 1835.52 1369 1840 1373.7 1840 1379.5Z" fill="#4E95D9" fill-rule="evenodd"/><path d="M1778 1411C1778 1416.52 1773.52 1421 1768 1421 1762.48 1421 1758 1416.52 1758 1411 1758 1405.48 1762.48 1401 1768 1401 1773.52 1401 1778 1405.48 1778 1411Z" fill="#4E95D9" fill-rule="evenodd"/><path d="M1771 1354C1771 1359.52 1766.52 1364 1761 1364 1755.48 1364 1751 1359.52 1751 1354 1751 1348.48 1755.48 1344 1761 1344 1766.52 1344 1771 1348.48 1771 1354Z" fill="#4E95D9" fill-rule="evenodd"/><path d="M1870 1271.5C1870 1277.3 1865.52 1282 1860 1282 1854.48 1282 1850 1277.3 1850 1271.5 1850 1265.7 1854.48 1261 1860 1261 1865.52 1261 1870 1265.7 1870 1271.5Z" fill="#4E95D9" fill-rule="evenodd"/><path d="M1926 1259C1926 1264.52 1921.52 1269 1916 1269 1910.48 1269 1906 1264.52 1906 1259 1906 1253.48 1910.48 1249 1916 1249 1921.52 1249 1926 1253.48 1926 1259Z" fill="#4E95D9" fill-rule="evenodd"/><path d="M1890 1396C1890 1401.52 1885.52 1406 1880 1406 1874.48 1406 1870 1401.52 1870 1396 1870 1390.48 1874.48 1386 1880 1386 1885.52 1386 1890 1390.48 1890 1396Z" fill="#4E95D9" fill-rule="evenodd"/><path d="M1893 1476C1893 1481.52 1888.52 1486 1883 1486 1877.48 1486 1873 1481.52 1873 1476 1873 1470.48 1877.48 1466 1883 1466 1888.53 1466 1893 1470.48 1893 1476Z" fill="#4E95D9" fill-rule="evenodd"/><path d="M1842.25 1442.61C1844.4 1447.99 1841.78 1454.1 1836.39 1456.25 1831.01 1458.4 1824.9 1455.78 1822.75 1450.39 1820.6 1445.01 1823.22 1438.9 1828.61 1436.75 1833.99 1434.6 1840.1 1437.22 1842.25 1442.61Z" fill="#4E95D9" fill-rule="evenodd"/><path d="M1773.28 1472.29C1775.33 1477.42 1772.84 1483.24 1767.71 1485.28 1762.58 1487.33 1756.76 1484.84 1754.72 1479.71 1752.67 1474.58 1755.17 1468.76 1760.29 1466.72 1765.42 1464.67 1771.24 1467.16 1773.28 1472.29Z" fill="#4E95D9" fill-rule="evenodd"/><path d="M1977 1794 1974.91 1781.49 1966.78 1732.98 1964 1716.37 1956.23 1670 1942.13 1670.63 1755.06 1679.08 1685.81 1682.2 1681.36 1718.26 1679.28 1735.06 1673.13 1784.88 1672 1794Z" fill="#9C78ED" fill-rule="evenodd"/><path d="M1977 1794 1975.09 1782.64 1974.93 1781.45 1973.58 1773.43 1972.24 1765.49 1966.76 1732.68 1965.17 1722.99 1963.98 1716 1963.82 1714.97 1956.76 1672.47 1956.28 1669.45 1955.65 1666.83 1955.09 1664.52 1951.92 1650.46 1945.65 1622.98 1943.82 1615.11 1940.72 1601.37 1936.99 1584.92 1934.45 1573.64 1932.63 1565.78 1925.72 1535.35 1923.18 1524.23 1921.99 1518.83 1921.44 1516.37 1916.6 1495C1840.56 1517.48 1760.01 1504.14 1724.29 1496.11 1722.71 1503.34 1720.96 1510.89 1719.21 1518.52 1718.81 1520.19 1718.42 1521.85 1718.02 1523.52 1717.39 1526.14 1716.75 1528.76 1716.12 1531.38 1715.88 1532.65 1715.56 1533.85 1715.24 1535.12 1712.31 1547.59 1709.21 1560.3 1706.19 1572.93 1705.56 1575.55 1705 1578.17 1704.37 1580.72 1704.05 1582.07 1703.73 1583.34 1703.42 1584.69 1702.15 1590.25 1700.88 1595.81 1699.61 1601.21 1698.02 1608.44 1696.51 1615.51 1695.08 1622.5 1694.53 1625.12 1693.97 1627.66 1693.5 1630.21 1692.07 1637.28 1690.8 1644.19 1689.69 1650.86 1688.73 1656.66 1687.94 1662.22 1687.3 1667.7 1687.07 1669.37 1686.91 1671.04 1686.67 1672.62 1686.43 1675.32 1686.11 1677.95 1685.88 1680.57 1685.88 1680.97 1685.8 1681.28 1685.8 1681.68L1681.35 1717.9 1680.64 1723.54 1679.69 1731.4 1679.29 1734.74 1674.37 1774.38 1673.41 1782.32 1673.1 1784.86 1672 1793.99 1977 1793.99Z" fill="#163E64" fill-rule="evenodd"/><path d="M1885.71 1033.77C1885.71 1033.77 1897.95 1018.25 1907.05 1031.08 1916.15 1043.91 1903.28 1081.81 1881 1072.56L1885.71 1033.77Z" fill="#FACDA5" fill-rule="evenodd"/><path d="M1885.86 1061C1886.68 1061 1887.43 1060.49 1887.65 1059.71 1891.07 1048.15 1903.67 1043.47 1903.8 1043.42 1904.76 1043.07 1905.24 1042.05 1904.88 1041.14 1904.52 1040.23 1903.44 1039.77 1902.48 1040.11 1901.89 1040.33 1888 1045.45 1884.07 1058.75 1883.79 1059.69 1884.37 1060.67 1885.36 1060.93 1885.53 1060.98 1885.7 1061 1885.86 1061Z" fill="#F09438" fill-rule="evenodd"/><path d="M1898.12 1055C1898.47 1055 1898.82 1054.91 1899.14 1054.73 1900.01 1054.21 1900.26 1053.15 1899.7 1052.35 1899.61 1052.22 1897.36 1049.08 1892.65 1047.15 1891.7 1046.76 1890.59 1047.15 1890.16 1048.02 1889.74 1048.88 1890.16 1049.9 1891.11 1050.29 1894.76 1051.78 1896.53 1054.19 1896.54 1054.21 1896.9 1054.72 1897.5 1055 1898.12 1055Z" fill="#F09438" fill-rule="evenodd"/><path d="M1880.02 1072.78C1877.89 1075.18 1876.58 1078.34 1876.58 1081.81 1876.58 1089.29 1882.6 1095.38 1890 1095.38 1897.4 1095.38 1903.42 1089.29 1903.42 1081.81 1903.42 1077.49 1901.42 1073.65 1898.31 1071.17 1896.75 1069.92 1894.92 1069.02 1892.91 1068.57 1892.57 1067.65 1892.74 1066.79 1893.39 1066 1895.96 1066.57 1898.29 1067.75 1900.24 1069.4 1903.76 1072.36 1906 1076.83 1906 1081.81 1906 1090.74 1898.83 1098 1890 1098 1881.18 1098 1874 1090.74 1874 1081.81 1874 1077.97 1875.35 1074.45 1877.58 1071.68 1878.39 1072.04 1879.21 1072.41 1880.02 1072.78Z" fill="#D9D9D9" fill-rule="evenodd"/><path d="M1790 1114 1790 1160.71C1790 1160.71 1811.92 1177.47 1829.02 1178.92 1846.1 1180.4 1852 1160.43 1852 1160.43L1852 1116.95 1790 1114Z" fill="#FACDA5" fill-rule="evenodd"/><path d="M1790 1118 1790 1137.22C1801.47 1150.23 1821.84 1154.84 1851.99 1150.29L1852 1121.04 1790 1118Z" fill="#F3A75B" fill-rule="evenodd"/><path d="M1893 1051.88C1892.46 1056.42 1891.81 1061.05 1891 1065.66 1885.6 1096.27 1866.26 1129.33 1841.84 1134.88 1789.1 1146.87 1767.21 1105.4 1758.78 1074.81 1757.84 1071.41 1759.59 1067.51 1758.86 1063.49 1757.11 1053.96 1753.26 1043.13 1752.39 1032.45 1751.79 1025.04 1751.36 1017.74 1751.05 1011.15 1750.19 992.544 1760.95 975.446 1777.78 968.771 1802.01 959.118 1838.82 951.472 1873.69 971.948 1886.57 979.511 1894.65 993.508 1894.94 1008.83 1895.15 1020.54 1894.86 1035.85 1893 1051.88Z" fill="#FACDA5" fill-rule="evenodd"/><path d="M1826.04 1075C1825.09 1075 1824.24 1074.29 1824.08 1073.28 1823.9 1072.16 1824.63 1071.1 1825.72 1070.91L1832.57 1069.72 1823.13 1043.78C1822.74 1042.72 1823.26 1041.53 1824.29 1041.13 1825.32 1040.74 1826.48 1041.27 1826.86 1042.33L1838 1072.95 1826.38 1074.97C1826.27 1074.99 1826.15 1075 1826.04 1075Z" fill="#F97853" fill-rule="evenodd"/><path d="M1851 1041C1851 1045.42 1853.46 1049 1856.5 1049 1859.54 1049 1862 1045.42 1862 1041 1862 1036.58 1859.54 1033 1856.5 1033 1853.46 1033 1851 1036.58 1851 1041Z" fill="#404040" fill-rule="evenodd"/><path d="M1794 1041C1794 1045.42 1796.24 1049 1799 1049 1801.76 1049 1804 1045.42 1804 1041 1804 1036.58 1801.76 1033 1799 1033 1796.24 1033 1794 1036.58 1794 1041Z" fill="#404040" fill-rule="evenodd"/><path d="M1871.23 1019.87C1867.11 1019.06 1858.78 1017.73 1849.92 1018.05 1847.59 1018.13 1845.71 1019.9 1846.04 1021.76L1846.04 1021.81C1846.3 1023.3 1847.89 1024.3 1849.75 1024.16 1855.8 1023.7 1871.61 1023.8 1878.97 1026 1879.17 1024.93 1878.46 1023.79 1877.42 1022.8 1875.84 1021.29 1873.63 1020.34 1871.23 1019.87Z" fill="#404040" fill-rule="evenodd"/><path d="M1787.94 1020.3C1792.18 1019.37 1800.75 1017.81 1809.91 1018.02 1812.32 1018.07 1814.27 1019.94 1813.97 1021.95L1813.96 1022.01C1813.72 1023.61 1812.09 1024.71 1810.17 1024.59 1803.92 1024.18 1787.61 1024.53 1780.04 1027 1779.81 1025.85 1780.54 1024.62 1781.6 1023.53 1783.19 1021.89 1785.46 1020.84 1787.94 1020.3Z" fill="#404040" fill-rule="evenodd"/><path d="M1851 1087C1849.48 1094.4 1844.44 1108 1827.45 1108 1810.42 1108 1805.64 1095.57 1804 1087L1851 1087Z" fill="#FFFFFF" fill-rule="evenodd"/><path d="M1894.88 1046.5C1894.39 1046.91 1893.91 1046.77 1893.47 1045.96 1886.5 1033.69 1893.05 1009.21 1872.41 999.82 1856.69 992.662 1851.05 977.979 1851.05 977.979 1847.46 984.12 1838.09 989.752 1838.09 989.752 1838.09 989.752 1814.35 1003.79 1789.68 1013.28 1782.35 1016.1 1777.13 1018.96 1773.47 1021.42 1773.75 1021.5 1773.91 1021.54 1773.91 1021.54 1773.91 1021.54 1767.08 1032.62 1772.07 1049.84 1777.07 1067.05 1770.64 1095.45 1759.54 1102 1759.74 1101.52 1768.06 1081.88 1763.36 1065.86 1760.65 1056.67 1760.68 1042.06 1758.11 1033.3 1755.26 1031.35 1748.69 1028.05 1746.46 1026.73 1745.83 1019.2 1745.37 1011.77 1745.05 1005.06 1744.15 986.13 1755.5 968.735 1773.26 961.934 1798.84 952.117 1837.7 944.344 1874.5 965.175 1888.09 972.869 1896.62 987.113 1896.94 1002.71 1897.16 1014.61 1896.85 1030.18 1894.88 1046.5Z" fill="#3A3A3A" fill-rule="evenodd"/><path d="M1758.08 1033.42C1758.08 1033.42 1743.97 1015.98 1735.64 1028.56 1727.31 1041.14 1739.61 1079.7 1760 1070.63L1758.08 1033.42Z" fill="#FACDA5" fill-rule="evenodd"/><path d="M1758.85 1071.76C1760.33 1074.58 1760.85 1077.93 1760.02 1081.25 1758.22 1088.43 1750.92 1092.81 1743.75 1091.01 1736.57 1089.21 1732.19 1081.92 1733.98 1074.74 1735.02 1070.6 1737.88 1067.4 1741.49 1065.78 1743.3 1064.96 1745.3 1064.54 1747.35 1064.59 1747.71 1063.82 1747.89 1062.99 1747.5 1062.01 1744.88 1061.93 1742.33 1062.5 1740.05 1063.6 1735.92 1065.59 1732.67 1069.33 1731.48 1074.11 1729.34 1082.68 1734.56 1091.38 1743.12 1093.52 1751.68 1095.66 1760.39 1090.44 1762.53 1081.88 1763.45 1078.19 1762.98 1074.49 1761.49 1071.28 1760.6 1071.45 1759.73 1071.61 1758.85 1071.76Z" fill="#D9D9D9" fill-rule="evenodd"/><path d="M1755.22 1058C1754.45 1058 1753.73 1057.49 1753.52 1056.71 1750.26 1045.15 1738.26 1040.47 1738.14 1040.42 1737.23 1040.07 1736.77 1039.05 1737.12 1038.14 1737.46 1037.23 1738.48 1036.77 1739.4 1037.12 1739.96 1037.33 1753.19 1042.45 1756.93 1055.75 1757.2 1056.69 1756.65 1057.67 1755.71 1057.93 1755.54 1057.98 1755.38 1058 1755.22 1058Z" fill="#F09438" fill-rule="evenodd"/><path d="M1742.88 1052C1742.53 1052 1742.17 1051.91 1741.86 1051.73 1740.99 1051.21 1740.74 1050.15 1741.3 1049.35 1741.4 1049.22 1743.64 1046.08 1748.35 1044.15 1749.29 1043.76 1750.41 1044.15 1750.84 1045.02 1751.26 1045.89 1750.84 1046.9 1749.89 1047.29 1746.25 1048.78 1744.48 1051.19 1744.46 1051.21 1744.1 1051.72 1743.49 1052 1742.88 1052Z" fill="#F09438" fill-rule="evenodd"/><path d="M2521 1412.54C2487.5 1436.64 2435.09 1453.17 2435.09 1453.17L2424.35 1414.49 2415.98 1384.31 2410.07 1363.04 2350 1363C2353.25 1374.28 2356.62 1385.81 2359.99 1397.16 2364.33 1411.8 2368.65 1426.13 2372.76 1439.35 2378.56 1457.95 2383.91 1474.31 2388.22 1486 2389.22 1488.73 2390.39 1491.69 2391.7 1494.86 2399.73 1516.6 2406.22 1540.17 2436.86 1525.38 2463.84 1512.36 2500.43 1494.31 2518.71 1482.33L2521 1412.54Z" fill="#FACDA5" fill-rule="evenodd"/><path d="M2360 1397.83C2364.31 1412.46 2368.6 1426.79 2372.69 1440 2397.08 1437.4 2413.96 1425.23 2424 1415.16L2415.68 1385 2360 1397.83Z" fill="#F3A75B" fill-rule="evenodd"/><path d="M2347.12 1187C2347.12 1187 2409.97 1336.54 2437 1384.99 2437 1384.99 2399.12 1417.12 2362.22 1418 2362.22 1418 2340.96 1253.82 2347.12 1187Z" fill="#4E95D9" fill-rule="evenodd"/><path d="M2200.58 1794C2201.21 1783.61 2201.81 1773.72 2202.35 1764.54 2204.57 1727.05 2206 1701.46 2206 1701.46L2191.21 1700.81 2182.88 1700.43 2082.34 1696C2082.34 1696 2080.51 1724.62 2078.36 1766.64 2077.92 1775.24 2077.46 1784.41 2077 1794L2200.58 1794Z" fill="#4E95D9" fill-rule="evenodd"/><path d="M2191.17 1700.81 2206 1701.47C2206 1701.47 2204.57 1727.11 2202.34 1764.66 2163.61 1767.86 2121.32 1769.16 2078 1766.76 2080.16 1724.67 2082 1696 2082 1696L2182.81 1700.44 2191.17 1700.81Z" fill="#215F9A" fill-rule="evenodd"/><path d="M2185.96 1794C2188.18 1753.76 2190.01 1719.3 2191 1700.37L2183.05 1700C2182.06 1719.01 2180.23 1753.63 2178 1794L2185.96 1794Z" fill="#7846D1" fill-rule="evenodd"/><path d="M2232.41 1794 2356 1794C2355.54 1784.41 2355.09 1775.24 2354.65 1766.65 2352.49 1724.62 2350.66 1696 2350.66 1696L2250.12 1700.43 2241.79 1700.81 2227 1701.46C2227 1701.46 2228.43 1727.05 2230.65 1764.54 2231.19 1773.71 2231.78 1783.61 2232.41 1794Z" fill="#9C78ED" fill-rule="evenodd"/><path d="M2241.83 1700.81 2227 1701.47C2227 1701.47 2228.43 1727.11 2230.66 1764.66 2269.39 1767.86 2311.68 1769.16 2355 1766.76 2352.84 1724.67 2351 1696 2351 1696L2250.19 1700.44 2241.83 1700.81Z" fill="#7846D1" fill-rule="evenodd"/><path d="M2256 1794C2253.6 1753.63 2251.63 1719.01 2250.56 1700L2242 1700.37C2243.07 1719.3 2245.03 1753.76 2247.43 1794L2256 1794Z" fill="#7846D1" fill-rule="evenodd"/><path d="M2061.01 1624.19C2060.99 1626.26 2061.01 1628.3 2061.01 1630.31 2061.05 1667.04 2061.23 1695.51 2061.42 1709.49 2096.81 1719.1 2132.21 1725.31 2167.62 1728.18 2169.23 1728.3 2170.81 1728.42 2172.43 1728.54 2173.29 1728.6 2174.15 1728.66 2175.01 1728.7 2176.91 1728.84 2178.82 1728.96 2180.7 1729.05 2182.82 1729.19 2184.91 1729.29 2187.04 1729.4 2211.13 1730.51 2235.21 1730.08 2259.32 1728.1 2264.19 1727.69 2269.03 1727.22 2273.9 1726.69 2274.22 1726.66 2274.52 1726.63 2274.84 1726.6 2276.07 1726.47 2277.31 1726.31 2278.56 1726.16 2279.31 1726.07 2280.07 1725.98 2280.8 1725.89 2308.83 1722.54 2336.85 1717.05 2364.89 1709.48 2364.97 1703.14 2365 1693.72 2365 1681.86 2365 1679.66 2365 1677.39 2364.99 1675.02L2364.99 1675C2364.97 1658.03 2364.87 1636.91 2364.69 1613.03 2364.67 1610.99 2364.65 1608.94 2364.64 1606.85 2364.5 1590.95 2364.34 1573.93 2364.13 1556.17 2364.1 1554.11 2364.08 1552.06 2364.05 1549.99 2363.82 1531.78 2363.55 1512.86 2363.24 1493.66 2363.04 1481.93 2362.83 1470.1 2362.59 1458.25 2362.35 1446.26 2362.09 1434.24 2361.81 1422.3 2361.74 1419.71 2361.69 1417.1 2361.61 1414.51 2358.87 1301.61 2354.12 1197.85 2346.26 1186.28 2340.82 1178.26 2328.35 1168.85 2313.67 1159.36 2311.88 1158.22 2310.05 1157.05 2308.2 1155.89 2301.94 1151.98 2250.92 1134.6 2244.43 1130.78L2190.5 1127C2190.16 1127.2 2138.59 1144.64 2138.26 1144.81 2136.05 1146.08 2133.8 1147.37 2131.58 1148.65 2112.48 1159.7 2093.64 1171.33 2082.78 1181.35 2081.2 1182.8 2079.78 1184.22 2078.58 1185.62 2077.61 1186.72 2076.75 1187.79 2076.06 1188.85 2075.41 1189.8 2074.78 1191.4 2074.18 1193.59 2067.65 1217.36 2064.23 1310.78 2062.52 1412.41 2062.4 1419.7 2062.3 1427.03 2062.19 1434.37 2062.15 1437.59 2062.1 1440.82 2062.05 1444.06 2062.01 1446.28 2061.98 1448.51 2061.96 1450.74 2061.95 1451.85 2061.93 1452.96 2061.92 1454.08 2061.84 1459.61 2061.78 1465.12 2061.74 1470.61 2061.69 1474.68 2061.65 1478.72 2061.6 1482.77 2061.11 1533.96 2060.96 1583.68 2061.01 1624.19Z" fill="#A6CAEC" fill-rule="evenodd"/><path d="M1963.72 1768.95C1962.39 1783.39 1979.96 1775.56 1974.99 1746.31 1970.03 1717.06 1984.12 1690.57 1990.19 1691.42 1996.28 1692.28 1985.16 1723.36 1990.57 1734.56 1995.97 1745.76 2002.95 1723.99 2009.9 1710.8 2017.11 1697.08 2016.68 1667.17 2013.4 1645.82 2010.13 1624.46 2048.81 1494.77 2049.01 1457.19L2053.72 1441.26 2070.98 1382.92 2098 1291.57C2098 1291.57 2081.81 1222.42 2054.52 1228.36 2054.52 1228.36 2040.08 1276.52 2024.64 1330.84 2022.02 1340.06 2019.38 1349.47 2016.76 1358.84 2005.76 1398.22 1995.42 1437.1 1990.62 1460.17 1977.92 1521.08 1976.95 1647.69 1976.95 1647.69 1976.95 1647.69 1954.55 1694.2 1954.02 1714.9 1953.46 1736.96 1965.03 1754.52 1963.72 1768.95Z" fill="#FACDA5" fill-rule="evenodd"/><path d="M2017 1359.14 2053.81 1442 2071 1383.35 2024.84 1331C2022.24 1340.27 2019.6 1349.72 2017 1359.14Z" fill="#FACDA5" fill-rule="evenodd"/><path d="M2015 1334.78C2031.16 1362.6 2047.58 1390.28 2063.95 1418 2069.34 1399.87 2074.93 1382.46 2080.17 1366.46 2080.18 1366.42 2080.2 1366.38 2080.21 1366.34 2082.3 1359.94 2084.35 1353.77 2086.31 1347.88 2086.34 1347.77 2086.37 1347.66 2086.42 1347.57 2087.09 1345.5 2087.75 1343.46 2088.43 1341.46L2088.43 1341.45C2096.25 1317.72 2102.3 1298.86 2104.03 1287.87 2108.7 1258.28 2095.98 1200.3 2078.06 1188.86L2078.06 1188.86C2077.59 1189.9 2076.18 1186.68 2075.33 1188.65 2072.19 1195.96 2058.21 1214 2051.3 1231.57 2050.41 1233.81 2049.51 1236.14 2048.57 1238.51 2038.56 1264.35 2026.32 1297.97 2015 1334.78Z" fill="#4E95D9" fill-rule="evenodd"/><path d="M2062 1434C2067.34 1411.97 2074.06 1387.48 2080.71 1366.39 2080.73 1366.34 2080.75 1366.31 2080.76 1366.27 2082.81 1359.75 2084.86 1353.56 2086.87 1347.88 2086.9 1347.78 2086.93 1347.67 2086.98 1347.58 2087.6 1345.79 2088.23 1344.06 2088.85 1342.37 2088.94 1342.07 2089 1341.78 2089 1341.5L2089 1341.48C2089 1340.47 2088.37 1339.53 2087.36 1339.15 2086.04 1338.68 2084.59 1339.34 2084.13 1340.66 2077.3 1359.21 2069.24 1385.92 2062.33 1412.12 2062.21 1419.38 2062.11 1426.68 2062 1434Z" fill="#4E95D9" fill-rule="evenodd"/><path d="M2145.91 1007C2145.91 1007 2126.26 985.189 2133.67 959.813 2141.09 934.44 2161.38 934.718 2161.38 934.718 2161.38 934.718 2173.22 907.731 2193.38 906.84 2213.54 905.948 2232.55 869.892 2250.89 879.685 2269.24 889.478 2248.9 910.847 2248.9 910.847 2248.9 910.847 2280.34 877.46 2290.7 887.253 2301.07 897.047 2276.31 923.31 2276.31 923.31 2276.31 923.31 2302.72 904.615 2311.4 911.735 2320.07 918.857 2290.7 949.574 2290.7 949.574 2290.7 949.574 2309.71 984.075 2290.58 999.544L2145.91 1007Z" fill="#404040" fill-rule="evenodd"/><path d="M2280.25 1014.42C2280.25 1014.42 2288.69 997.603 2294.97 1011.51 2301.24 1025.41 2292.37 1066.46 2277 1056.44L2280.25 1014.42Z" fill="#FACDA5" fill-rule="evenodd"/><path d="M2152.59 1014.42C2152.59 1014.42 2143.73 997.603 2137.14 1011.51 2130.55 1025.41 2139.86 1066.46 2156 1056.44L2152.59 1014.42Z" fill="#FACDA5" fill-rule="evenodd"/><path d="M2185 1092 2185 1132.76C2185 1132.76 2197.44 1153.51 2214.26 1154.92 2231.06 1156.36 2246 1137.05 2246 1137.05L2246 1094.86 2185 1092Z" fill="#FACDA5" fill-rule="evenodd"/><path d="M2185 1092 2185 1110.13C2196.29 1122.39 2216.34 1125.46 2246 1121.17L2246 1094.87 2185 1092Z" fill="#F3A75B" fill-rule="evenodd"/><path d="M2142.05 986.527C2142.81 1002.47 2144.33 1022.41 2147.39 1038.34L2147.39 1038.38C2147.39 1038.43 2147.4 1038.48 2147.42 1038.54 2147.42 1038.55 2147.44 1038.55 2147.44 1038.57 2148.19 1042.46 2149.04 1046.12 2149.96 1049.41 2150.51 1051.34 2151.11 1053.36 2151.79 1055.43 2161.56 1085.94 2184.2 1130.09 2241.08 1109.89 2265.04 1101.39 2277.52 1076.76 2283.88 1050.06 2284.25 1048.46 2284.6 1046.89 2284.91 1045.37 2285.12 1044.36 2285.32 1043.38 2285.51 1042.41L2285.78 1040.99C2285.83 1040.74 2285.86 1040.58 2285.88 1040.47 2285.89 1040.4 2285.89 1040.37 2285.89 1040.37 2289.65 1019.84 2290.22 999.068 2289.94 984.229 2289.65 969.097 2281.34 955.252 2268.11 947.796 2232.27 927.566 2194.43 935.114 2169.52 944.643 2152.22 951.244 2141.16 968.136 2142.05 986.527Z" fill="#FACDA5" fill-rule="evenodd"/><path d="M2147 1038.61C2147 1038.61 2147 1038.63 2147.01 1038.66 2147.01 1038.7 2147.03 1038.75 2147.04 1038.81 2147.04 1038.83 2147.06 1038.83 2147.06 1038.84 2147.43 1040.17 2149.44 1047.45 2151.43 1055.64 2161.23 1086.04 2183.95 1130.04 2241.03 1109.91 2265.07 1101.44 2277.6 1076.9 2283.98 1050.29 2284.35 1048.7 2284.7 1047.13 2285.01 1045.62 2285.23 1044.61 2285.43 1043.63 2285.61 1042.67L2285.89 1041.25C2285.93 1041.01 2285.97 1040.84 2285.98 1040.73 2286 1040.67 2286 1040.64 2286 1040.64L2277.6 1038.96C2276 1046.82 2272.44 1054.22 2268.09 1060.8 2260.98 1043.98 2224.94 1055.15 2224.94 1055.15L2224.77 1055.21C2222.58 1055.88 2220.33 1056.24 2218.06 1056.24 2215.72 1056.24 2213.41 1055.87 2211.15 1055.15 2211.15 1055.15 2175.54 1043.49 2168.17 1059.53 2160.79 1048.24 2155.78 1038 2155.78 1038L2147.01 1038.61 2147 1038.61ZM2217.97 1062.77C2258.72 1057.34 2252.31 1079.02 2252.31 1079.02 2247.79 1083.1 2243.65 1086.07 2240.87 1087.61 2231.98 1092.51 2223.22 1094.37 2216.88 1094.07 2210.62 1093.81 2208.91 1095.08 2193.09 1086.62 2190.3 1085.14 2187.47 1082.94 2184.71 1080.33 2184.71 1080.33 2184.71 1080.33 2184.69 1080.33L2184.69 1080.32C2184.01 1076.08 2177.11 1055.83 2217.97 1062.77Z" fill="#3A3A3A" fill-rule="evenodd"/><path d="M2181 1016C2181 1020.42 2183.24 1024 2186 1024 2188.76 1024 2191 1020.42 2191 1016 2191 1011.58 2188.76 1008 2186 1008 2183.24 1008 2181 1011.58 2181 1016Z" fill="#403657" fill-rule="evenodd"/><path d="M2244 1016C2244 1020.42 2246.24 1024 2249 1024 2251.76 1024 2254 1020.42 2254 1016 2254 1011.58 2251.76 1008 2249 1008 2246.24 1008 2244 1011.58 2244 1016Z" fill="#403657" fill-rule="evenodd"/><path d="M2167.98 989.216C2167.98 989.216 2188.9 980.705 2205 987.868L2203.39 997.091C2203.39 997.091 2179.75 995.034 2167.84 1000 2166.78 996.453 2166.62 992.862 2167.98 989.216Z" fill="#404040" fill-rule="evenodd"/><path d="M2268 989.216C2268 989.216 2246.53 980.706 2230 987.867L2231.65 997.088C2231.65 997.088 2255.91 995.029 2268.14 1000 2269.23 996.451 2269.39 992.863 2268 989.216Z" fill="#404040" fill-rule="evenodd"/><path d="M2215.99 1052C2212.81 1052 2209.66 1050.69 2209.17 1050.48 2208.21 1050.07 2207.75 1048.9 2208.14 1047.88 2208.53 1046.87 2209.63 1046.37 2210.59 1046.79 2212.3 1047.52 2216.38 1048.67 2218.15 1047.54 2218.49 1047.33 2218.96 1046.9 2219.08 1045.69 2219.76 1038.72 2217.96 1015.39 2217.94 1015.16 2217.85 1014.06 2218.63 1013.1 2219.67 1013.01 2220.71 1012.92 2221.61 1013.73 2221.7 1014.83 2221.78 1015.8 2223.55 1038.77 2222.83 1046.09 2222.56 1048.85 2221.19 1050.26 2220.09 1050.96 2218.89 1051.73 2217.44 1052 2215.99 1052Z" fill="#F97853" fill-rule="evenodd"/><path d="M2241 1066C2239.52 1073.75 2234.58 1088 2217.95 1088 2201.28 1088 2196.6 1074.98 2195 1066L2241 1066Z" fill="#FFFFFF" fill-rule="evenodd"/><path d="M2142.05 984.854C2142.81 1000.59 2144.34 1020.27 2147.4 1036L2156.15 1035.39C2156.15 1035.39 2154.03 1022.11 2153.05 1013.45 2152.07 1004.79 2150.41 988.613 2157.93 986.595 2165.42 984.596 2161.03 966.136 2171.46 958.133 2181.9 950.114 2205.24 947.912 2220.63 957.222 2236.02 966.512 2253.36 956.518 2260.45 958.133 2267.56 959.732 2277.19 969.346 2274.59 978.331 2271.97 987.295 2279.8 992.758 2281.7 1002.05 2283.6 1011.34 2277.53 1036.34 2277.53 1036.34L2285.89 1038C2289.65 1017.72 2290.21 997.239 2289.94 982.602 2289.65 967.657 2281.35 953.998 2268.11 946.632 2232.26 926.665 2194.43 934.108 2169.53 943.517 2152.23 950.039 2141.17 966.715 2142.05 984.854Z" fill="#404040" fill-rule="evenodd"/><path d="M2501.32 1426.16C2496.01 1474.5 2464.38 1582.51 2442.47 1603.66 2413.96 1631.2 2320.11 1689.19 2271.23 1718.92 2262.41 1724.28 2303.84 1760 2303.84 1760 2303.84 1760 2433.62 1704.62 2483.19 1660.96 2497.21 1648.61 2525.68 1609.65 2557.82 1535.45 2567.57 1512.95 2591.18 1467.58 2589.95 1437.99 2588.54 1403.94 2534.33 1409.54 2501.32 1426.16Z" fill="#0B76A0" fill-rule="evenodd"/><path d="M2400.35 1704C2400.35 1704 2365.1 1717.44 2352.6 1732.23 2340.11 1747.02 2323.6 1759.56 2327.61 1765.38 2331.63 1771.21 2349.92 1754.18 2349.92 1754.18 2349.92 1754.18 2354.94 1772.9 2372.68 1774.92 2390.43 1776.93 2424 1742.08 2424 1742.08L2400.35 1704Z" fill="#FACDA5" fill-rule="evenodd"/><path d="M2748.12 1561.11C2748.13 1564.17 2748.11 1567.79 2748.05 1571.9 2748 1575.99 2747.91 1580.55 2747.78 1585.55 2747.68 1588.97 2747.58 1592.58 2747.45 1596.38 2747.34 1599.57 2747.21 1602.89 2747.08 1606.32 2746.93 1609.83 2746.77 1613.45 2746.59 1617.18 2744.14 1667.88 2738.2 1737.88 2725.16 1794L2451 1794C2460.14 1753.21 2474.13 1688.88 2485.23 1605.41 2485.69 1601.9 2486.16 1598.36 2486.61 1594.78 2487.07 1591.19 2487.51 1587.58 2487.96 1583.94 2488.2 1582 2488.44 1580.04 2488.67 1578.09 2488.85 1576.47 2489.04 1574.86 2489.22 1573.28 2489.73 1568.78 2490.19 1564.35 2490.6 1560.01 2490.95 1556.38 2491.27 1552.82 2491.57 1549.3 2496.28 1493.19 2494.62 1451.13 2501.37 1425.94 2509.24 1396.62 2600.99 1363 2600.99 1363L2658.47 1366.01C2658.47 1366.01 2713.27 1383.92 2742.57 1409.66 2771.87 1435.41 2747.36 1512.24 2748.08 1555.87 2748.11 1557.37 2748.11 1559.12 2748.12 1561.11Z" fill="#83CBEB" fill-rule="evenodd"/><path d="M2747.93 1571.75C2723.05 1574.8 2697.1 1576 2671.64 1576 2588.24 1576 2509.96 1563.13 2491 1559.78 2491.35 1556.13 2491.67 1552.54 2491.97 1549 2514 1552.94 2641.46 1574.22 2748 1560.88 2748.01 1563.96 2747.98 1567.61 2747.93 1571.75Z" fill="#F2F2F2" fill-rule="evenodd"/><path d="M2748 1585.61C2747.9 1589.12 2747.79 1592.84 2747.67 1596.74 2722.91 1599.8 2697.1 1601 2671.77 1601 2583.43 1601 2500.8 1586.33 2488 1583.96 2488.24 1581.96 2488.47 1579.95 2488.7 1577.95 2488.89 1576.29 2489.08 1574.63 2489.26 1573 2501.97 1575.38 2636.36 1599.76 2748 1585.61Z" fill="#F2F2F2" fill-rule="evenodd"/><path d="M2747 1606.57C2746.85 1610.08 2746.69 1613.7 2746.51 1617.44 2720.75 1620.72 2693.77 1622 2667.32 1622 2581.8 1622 2501.65 1608.61 2485 1605.65 2485.46 1602.14 2485.93 1598.59 2486.38 1595 2506.18 1598.54 2638.2 1620.83 2747 1606.57Z" fill="#F2F2F2" fill-rule="evenodd"/><path d="M2617.6 1418C2646.09 1418 2672.38 1387.66 2673.52 1386.33 2674.24 1385.48 2674.14 1384.21 2673.3 1383.49 2672.46 1382.76 2671.19 1382.86 2670.46 1383.7 2670.19 1384.02 2642.66 1415.8 2615.15 1413.88 2614.05 1413.8 2613.08 1414.65 2613 1415.75 2612.93 1416.86 2613.76 1417.83 2614.87 1417.9 2615.78 1417.97 2616.7 1418 2617.6 1418Z" fill="#46B1E1" fill-rule="evenodd"/><path d="M2642.98 1760C2643.99 1760 2644.87 1759.24 2644.99 1758.22 2645.11 1757.11 2644.32 1756.11 2643.21 1755.98 2569.03 1747.49 2538.3 1619.85 2538 1618.56 2537.75 1617.47 2536.66 1616.8 2535.57 1617.05 2534.48 1617.31 2533.8 1618.39 2534.05 1619.47 2535.31 1624.84 2565.76 1751.18 2642.74 1759.99 2642.82 1760 2642.9 1760 2642.98 1760Z" fill="#46B1E1" fill-rule="evenodd"/><path d="M2612.99 1722C2613.66 1722 2614.32 1721.66 2614.7 1721.04 2615.28 1720.09 2614.99 1718.84 2614.05 1718.25 2574.88 1693.93 2569.05 1658.08 2569 1657.72 2568.83 1656.62 2567.82 1655.85 2566.71 1656.03 2565.61 1656.19 2564.86 1657.22 2565.02 1658.33 2565.25 1659.87 2571.1 1696.35 2611.94 1721.7 2612.26 1721.9 2612.63 1722 2612.99 1722Z" fill="#46B1E1" fill-rule="evenodd"/><path d="M2717 1230C2717 1274.73 2680.73 1311 2636 1311 2591.26 1311 2555 1274.73 2555 1230 2555 1185.27 2591.26 1149 2636 1149 2680.73 1149 2717 1185.27 2717 1230Z" fill="#3A3A3A" fill-rule="evenodd"/><path d="M2556.22 1216C2556.22 1216 2533.25 1209.63 2536.28 1187.22 2538.85 1168.15 2561.15 1180.51 2559.19 1165.61 2557.23 1150.7 2552.87 1137.15 2572.07 1133.42 2588.85 1130.17 2589.13 1141.72 2611.18 1124.96 2637.22 1105.15 2657.23 1151.02 2680.47 1152.39 2714.75 1154.43 2719.08 1173.91 2722.45 1189.49 2725.82 1205.07 2712.62 1216 2712.62 1216L2556.22 1216Z" fill="#3A3A3A" fill-rule="evenodd"/><path d="M2568.97 1252.58C2568.97 1252.58 2555.88 1235.44 2546.15 1249.61 2536.43 1263.78 2550.18 1305.63 2574 1295.41L2568.97 1252.58Z" fill="#FACDA5" fill-rule="evenodd"/><path d="M2568.04 1283C2567.19 1283 2566.41 1282.42 2566.17 1281.52 2562.59 1268.32 2549.39 1262.96 2549.26 1262.91 2548.25 1262.51 2547.74 1261.35 2548.13 1260.3 2548.51 1259.26 2549.63 1258.74 2550.64 1259.13 2551.26 1259.37 2565.81 1265.22 2569.93 1280.43 2570.22 1281.51 2569.61 1282.62 2568.57 1282.93 2568.39 1282.98 2568.22 1283 2568.04 1283Z" fill="#F3A75B" fill-rule="evenodd"/><path d="M2555.07 1276C2554.68 1276 2554.29 1275.9 2553.95 1275.69 2552.99 1275.11 2552.71 1273.92 2553.33 1273.02 2553.43 1272.87 2555.91 1269.34 2561.09 1267.17 2562.13 1266.73 2563.35 1267.17 2563.82 1268.14 2564.28 1269.12 2563.82 1270.26 2562.78 1270.7 2558.77 1272.38 2556.83 1275.09 2556.81 1275.11 2556.41 1275.69 2555.75 1276 2555.07 1276Z" fill="#F3A75B" fill-rule="evenodd"/><path d="M2662 1331 2662 1372.29C2662 1372.29 2644.85 1390.49 2628.03 1391.92 2611.23 1393.37 2601 1373.61 2601 1373.61L2601 1333.9 2662 1331Z" fill="#FACDA5" fill-rule="evenodd"/><path d="M2662 1331 2662 1349.71C2650.71 1362.37 2630.67 1365.54 2601 1361.11L2601 1333.96 2662 1331Z" fill="#F3A75B" fill-rule="evenodd"/><path d="M2704.95 1224.09C2704.18 1240.21 2702.64 1260.37 2699.57 1276.49 2698.8 1280.51 2697.93 1284.29 2696.96 1287.68 2688.23 1318.24 2666.39 1370.66 2605.24 1348.83 2578.24 1339.19 2565.72 1309.12 2560.14 1278.54 2556.36 1257.77 2555.78 1236.78 2556.06 1221.79 2556.36 1206.48 2564.71 1192.49 2578.04 1184.94 2614.13 1164.49 2652.22 1172.11 2677.29 1181.75 2694.7 1188.43 2705.84 1205.51 2704.95 1224.09Z" fill="#FACDA5" fill-rule="evenodd"/><path d="M2632 1253.74 2632 1257.07C2632 1263.77 2634.6 1270.06 2639.33 1274.79 2643.99 1279.45 2650.14 1282 2656.69 1282L2657.5 1282C2663.18 1281.88 2668.34 1279.58 2672.86 1275.16 2677.4 1270.71 2680 1264.35 2680 1257.68L2680 1253.75C2680 1252.66 2679.79 1251.62 2679.42 1250.65 2678.99 1249.47 2678.32 1248.43 2677.45 1247.56 2675.87 1245.98 2673.71 1245 2671.3 1245L2640.7 1245C2637.24 1245 2634.25 1247.03 2632.86 1249.98 2632.34 1251.06 2632.04 1252.26 2632.01 1253.52 2632 1253.59 2632 1253.67 2632 1253.74ZM2635.61 1253.74C2635.61 1250.91 2637.89 1248.63 2640.7 1248.63L2671.3 1248.63C2674.11 1248.63 2676.39 1250.91 2676.39 1253.74L2676.39 1257.68C2676.39 1263.36 2674.19 1268.8 2670.33 1272.56 2666.5 1276.31 2662.15 1278.26 2657.42 1278.37L2656.69 1278.37C2651.11 1278.37 2645.85 1276.19 2641.86 1272.21 2637.83 1268.18 2635.61 1262.81 2635.61 1257.07L2635.61 1253.74Z" fill="#747474" fill-rule="evenodd"/><path d="M2571 1253.74 2571 1257.07C2571 1263.77 2573.61 1270.06 2578.33 1274.79 2582.98 1279.45 2589.14 1282 2595.69 1282L2596.5 1282C2602.17 1281.88 2607.34 1279.58 2611.85 1275.16 2616.39 1270.71 2619 1264.35 2619 1257.68L2619 1253.75C2619 1253.69 2619 1253.64 2618.99 1253.58 2618.97 1252.39 2618.71 1251.26 2618.25 1250.23 2616.91 1247.14 2613.85 1245 2610.3 1245L2579.7 1245C2577.02 1245 2574.61 1246.23 2573.01 1248.16 2572.24 1249.1 2571.65 1250.2 2571.34 1251.4 2571.11 1252.15 2571 1252.93 2571 1253.74ZM2574.61 1253.74C2574.61 1250.91 2576.9 1248.63 2579.7 1248.63L2610.3 1248.63C2613.1 1248.63 2615.39 1250.91 2615.39 1253.74L2615.39 1257.68C2615.39 1263.36 2613.18 1268.8 2609.34 1272.56 2605.5 1276.31 2601.16 1278.26 2596.43 1278.37L2595.69 1278.37C2590.1 1278.37 2584.85 1276.19 2580.88 1272.21 2576.83 1268.18 2574.61 1262.81 2574.61 1257.07L2574.61 1253.74Z" fill="#747474" fill-rule="evenodd"/><path d="M2701 1244.05C2690.98 1243.6 2683.82 1246.59 2680.99 1248.06 2680.2 1248.45 2678.09 1249.88 2678 1249.94L2679.66 1253C2679.68 1252.99 2681.99 1251.56 2682.89 1251.12 2685.67 1249.78 2691.83 1247.08 2701 1247.64L2701 1244.05Z" fill="#747474" fill-rule="evenodd"/><path d="M2634.8 1254 2636 1250.74C2635.79 1250.67 2630.66 1249 2625.02 1249 2619.02 1249 2615.17 1250.74 2615 1250.81L2616.6 1253.92C2616.62 1253.91 2619.92 1252.45 2625.02 1252.45 2630.02 1252.46 2634.76 1253.99 2634.8 1254Z" fill="#747474" fill-rule="evenodd"/><path d="M2559 1245 2559 1248.33C2566.44 1248.89 2573.32 1251.96 2573.42 1252L2575 1249.03C2574.6 1248.84 2567.21 1245.55 2559 1245Z" fill="#747474" fill-rule="evenodd"/><path d="M2599 1258C2599 1262.42 2596.76 1266 2594 1266 2591.24 1266 2589 1262.42 2589 1258 2589 1253.58 2591.24 1250 2594 1250 2596.76 1250 2599 1253.58 2599 1258Z" fill="#404040" fill-rule="evenodd"/><path d="M2659 1258C2659 1262.42 2656.76 1266 2654 1266 2651.24 1266 2649 1262.42 2649 1258 2649 1253.58 2651.24 1250 2654 1250 2656.76 1250 2659 1253.58 2659 1258Z" fill="#404040" fill-rule="evenodd"/><path d="M2577.56 1233.18C2577.56 1233.18 2598.71 1224.74 2615 1231.84L2613.64 1239.47C2613.64 1239.47 2596 1235.5 2578.73 1242 2577.65 1238.48 2576.18 1236.8 2577.56 1233.18Z" fill="#404040" fill-rule="evenodd"/><path d="M2674.44 1233.18C2674.44 1233.18 2653.29 1224.74 2637 1231.84L2638.36 1239.47C2638.36 1239.47 2656 1235.5 2673.27 1242 2674.35 1238.48 2675.82 1236.8 2674.44 1233.18Z" fill="#404040" fill-rule="evenodd"/><path d="M2627.48 1292C2630.87 1292 2634.23 1290.69 2634.75 1290.48 2635.78 1290.07 2636.27 1288.91 2635.85 1287.88 2635.43 1286.87 2634.26 1286.38 2633.23 1286.79 2631.42 1287.52 2627.06 1288.67 2625.17 1287.54 2624.8 1287.32 2624.3 1286.9 2624.18 1285.69 2623.45 1278.73 2625.37 1255.39 2625.39 1255.16 2625.49 1254.06 2624.66 1253.1 2623.56 1253.01 2622.45 1252.91 2621.48 1253.73 2621.39 1254.83 2621.31 1255.81 2619.42 1278.77 2620.18 1286.1 2620.47 1288.86 2621.93 1290.27 2623.1 1290.97 2624.39 1291.73 2625.94 1292 2627.48 1292Z" fill="#F97853" fill-rule="evenodd"/><path d="M2603 1302C2604.61 1310.1 2609.98 1325 2628.05 1325 2646.17 1325 2651.25 1311.38 2653 1302L2603 1302Z" fill="#FFFFFF" fill-rule="evenodd"/><path d="M2627.31 1356C2632.47 1356 2636.85 1353.56 2637.04 1353.46 2637.98 1352.92 2638.28 1351.78 2637.71 1350.9 2637.14 1350.02 2635.91 1349.74 2634.97 1350.27 2634.94 1350.29 2631.33 1352.28 2627.31 1352.28 2623.61 1352.28 2620.08 1350.3 2620.04 1350.28 2619.11 1349.74 2617.88 1350.01 2617.3 1350.88 2616.72 1351.76 2617.01 1352.91 2617.95 1353.44 2618.13 1353.55 2622.43 1356 2627.31 1356Z" fill="#404040" fill-rule="evenodd"/><path d="M2563.51 1265C2561.98 1256.5 2560.47 1245.53 2561.57 1239.91 2563.54 1229.96 2571.64 1224.1 2568.94 1214.51 2566.24 1204.88 2576.2 1194.57 2583.54 1192.86 2590.87 1191.12 2608.01 1194.84 2624.88 1186.68 2640.98 1178.89 2668.97 1184.47 2673.54 1194.99 2679.06 1207.73 2671.55 1208.93 2686.61 1222.71 2692.61 1228.2 2685.49 1242.47 2684.47 1251.74 2684.02 1256.01 2683.95 1258.09 2684.12 1262.67L2684.18 1265 2702.21 1265C2704.19 1250.62 2705.33 1234.75 2705.95 1221.48 2706.86 1202.04 2695.41 1184.19 2677.54 1177.2 2651.79 1167.12 2612.7 1159.14 2575.62 1180.54 2561.95 1188.44 2553.35 1203.06 2553.06 1219.07 2552.83 1231.51 2553.16 1247.9 2555.25 1265L2563.51 1265Z" fill="#3A3A3A" fill-rule="evenodd"/><path d="M2694.01 1273.73C2693.95 1269.08 2694.28 1264.43 2695.07 1259.85 2696.16 1253.59 2697.94 1247.9 2704.23 1245.29 2709.29 1243.19 2714.69 1243.15 2718.54 1248.96 2728 1263.27 2717.46 1307.78 2694.28 1297.47L2694.01 1273.73Z" fill="#FACDA5" fill-rule="evenodd"/><path d="M2698.48 1283.96C2699.37 1283.8 2700.07 1283.1 2700.14 1282.22 2701.22 1269.19 2713.9 1261.64 2714.03 1261.56 2715 1260.99 2715.29 1259.8 2714.68 1258.9 2714.08 1258 2712.8 1257.73 2711.83 1258.29 2711.23 1258.64 2697.24 1266.92 2696.01 1281.93 2695.92 1282.99 2696.77 1283.91 2697.92 1283.99 2698.11 1284.01 2698.3 1283.99 2698.48 1283.96Z" fill="#F3A75B" fill-rule="evenodd"/><path d="M2710.47 1274.96C2710.82 1274.89 2711.15 1274.71 2711.42 1274.43 2712.18 1273.66 2712.19 1272.37 2711.46 1271.57 2711.34 1271.44 2708.42 1268.28 2703.32 1267.05 2702.31 1266.8 2701.28 1267.49 2701.05 1268.58 2700.81 1269.67 2701.46 1270.75 2702.48 1271 2706.43 1271.95 2708.71 1274.36 2708.73 1274.39 2709.2 1274.9 2709.86 1275.09 2710.47 1274.96Z" fill="#F3A75B" fill-rule="evenodd"/><path d="M2730.94 1401C2702.1 1444.62 2591.72 1595.43 2566.81 1612.95 2534.39 1635.76 2446 1668.19 2395.25 1702 2378.01 1713.49 2418.75 1746 2418.75 1746 2418.75 1746 2542.44 1711.3 2598.15 1675.82 2613.91 1665.78 2679.46 1600.26 2721.25 1542.15 2735.57 1522.24 2758.85 1494.59 2762.22 1465.19 2766.1 1431.34 2755.44 1413.23 2730.94 1401Z" fill="#0B76A0" fill-rule="evenodd"/><path d="M2512.06 1794 2168.94 1794C2164.56 1794 2161 1792.6 2161 1790.88L2161 1780.12C2161 1778.4 2164.56 1777 2168.94 1777L2512.06 1777C2516.44 1777 2520 1778.4 2520 1780.12L2520 1790.88C2520 1792.6 2516.44 1794 2512.06 1794Z" fill="#595959" fill-rule="evenodd"/><path d="M2161.33 1794 2093.77 1541.14C2089.98 1526.94 2100.69 1513 2115.39 1513L2264.06 1513C2274.09 1513 2282.89 1519.67 2285.61 1529.32L2360 1794 2161.33 1794Z" fill="#7F7F7F" fill-rule="evenodd"/><path d="M2284.5 1529.34 2358.06 1792 2375 1792 2301.43 1529.34C2298.71 1519.68 2289.94 1513 2279.94 1513L2263 1513C2273 1513 2281.77 1519.68 2284.5 1529.34Z" fill="#595959" fill-rule="evenodd"/><path d="M2247.2 1665C2251.05 1681.57 2240.67 1695 2223.99 1695 2207.31 1695 2190.66 1681.57 2186.8 1665 2182.95 1648.43 2193.34 1635 2210.01 1635 2226.69 1635 2243.34 1648.43 2247.2 1665Z" fill="#A6A6A6" fill-rule="evenodd"/><path d="M2708 862C2695.32 862 2685 851.683 2685 839 2685 826.318 2695.32 816 2708 816 2720.68 816 2731 826.318 2731 839 2731 851.683 2720.68 862 2708 862ZM2708 823.211C2699.3 823.211 2692.21 830.292 2692.21 838.997 2692.21 847.701 2699.3 854.783 2708 854.783 2716.7 854.783 2723.79 847.701 2723.79 838.997 2723.78 830.292 2716.7 823.211 2708 823.211Z" fill="#F47B12" fill-rule="evenodd"/><path d="M2789.5 941C2777.09 941 2767 930.907 2767 918.5 2767 906.093 2777.09 896 2789.5 896 2801.91 896 2812 906.093 2812 918.5 2812 930.907 2801.91 941 2789.5 941ZM2789.5 903.057C2780.98 903.057 2774.06 909.985 2774.06 918.5 2774.06 927.016 2780.98 933.943 2789.5 933.943 2798.02 933.943 2804.94 927.016 2804.94 918.5 2804.94 909.985 2798.02 903.057 2789.5 903.057Z" fill="#F47B12" fill-rule="evenodd"/><path d="M2817.5 1015C2815.57 1015 2814 1013.39 2814 1011.41L2814 995.589C2814 993.607 2815.57 992 2817.5 992 2819.43 992 2821 993.607 2821 995.589L2821 1011.41C2821 1013.39 2819.43 1015 2817.5 1015Z" fill="#F47B12" fill-rule="evenodd"/><path d="M2817.5 1043C2815.57 1043 2814 1041.39 2814 1039.41L2814 1023.59C2814 1021.61 2815.57 1020 2817.5 1020 2819.43 1020 2821 1021.61 2821 1023.59L2821 1039.41C2821 1041.4 2819.43 1043 2817.5 1043Z" fill="#F47B12" fill-rule="evenodd"/><path d="M2839.48 1021 2825.52 1021C2823.58 1021 2822 1019.43 2822 1017.5 2822 1015.57 2823.58 1014 2825.52 1014L2839.48 1014C2841.42 1014 2843 1015.57 2843 1017.5 2843 1019.43 2841.42 1021 2839.48 1021Z" fill="#F47B12" fill-rule="evenodd"/><path d="M2809.48 1021 2795.52 1021C2793.58 1021 2792 1019.43 2792 1017.5 2792 1015.57 2793.58 1014 2795.52 1014L2809.48 1014C2811.42 1014 2813 1015.57 2813 1017.5 2813 1019.43 2811.42 1021 2809.48 1021Z" fill="#F47B12" fill-rule="evenodd"/><path d="M2692.5 927C2690.57 927 2689 925.393 2689 923.412L2689 907.589C2689 905.607 2690.57 904 2692.5 904 2694.43 904 2696 905.607 2696 907.589L2696 923.412C2696 925.393 2694.43 927 2692.5 927Z" fill="#F47B12" fill-rule="evenodd"/><path d="M2692.5 955C2690.57 955 2689 953.393 2689 951.412L2689 935.589C2689 933.607 2690.57 932 2692.5 932 2694.43 932 2696 933.607 2696 935.589L2696 951.412C2696 953.393 2694.43 955 2692.5 955Z" fill="#F47B12" fill-rule="evenodd"/><path d="M2714.48 933 2700.52 933C2698.58 933 2697 931.433 2697 929.5 2697 927.568 2698.58 926 2700.52 926L2714.48 926C2716.42 926 2718 927.568 2718 929.5 2718 931.433 2716.42 933 2714.48 933Z" fill="#F47B12" fill-rule="evenodd"/><path d="M2684.48 933 2670.52 933C2668.58 933 2667 931.433 2667 929.5 2667 927.568 2668.58 926 2670.52 926L2684.48 926C2686.42 926 2688 927.568 2688 929.5 2688 931.433 2686.42 933 2684.48 933Z" fill="#F47B12" fill-rule="evenodd"/><path d="M1654 757.5C1654 745.093 1664.32 735 1677 735 1689.68 735 1700 745.093 1700 757.5 1700 769.907 1689.68 780 1677 780 1664.32 780.004 1654 769.907 1654 757.5ZM1661.22 757.5C1661.22 766.016 1668.3 772.943 1677 772.943 1685.71 772.943 1692.79 766.016 1692.79 757.5 1692.79 748.985 1685.71 742.057 1677 742.057 1668.3 742.057 1661.22 748.985 1661.22 757.5Z" fill="#F2AA84" fill-rule="evenodd"/><path d="M1563 844.002C1563 831.32 1573.32 821 1586 821 1598.68 821 1609 831.317 1609 844.002 1609 856.687 1598.68 867 1586 867 1573.32 867 1563 856.684 1563 844.002ZM1570.21 844.002C1570.21 852.706 1577.3 859.787 1586 859.787 1594.7 859.787 1601.79 852.706 1601.79 844.002 1601.79 835.298 1594.7 828.217 1586 828.217 1577.3 828.217 1570.21 835.298 1570.21 844.002Z" fill="#F2AA84" fill-rule="evenodd"/><path d="M1516.5 876C1518.43 876 1520 874.393 1520 872.412L1520 856.588C1520 854.607 1518.43 853 1516.5 853 1514.57 853 1513 854.607 1513 856.588L1513 872.412C1513 874.393 1514.57 876 1516.5 876Z" fill="#F2AA84" fill-rule="evenodd"/><path d="M1516.5 903C1518.43 903 1520 901.463 1520 899.568L1520 884.433C1520 882.538 1518.43 881 1516.5 881 1514.57 881 1513 882.538 1513 884.433L1513 899.568C1513 901.463 1514.57 903 1516.5 903Z" fill="#F2AA84" fill-rule="evenodd"/><path d="M1494.52 882 1508.48 882C1510.42 882 1512 880.433 1512 878.5 1512 876.568 1510.42 875 1508.48 875L1494.52 875C1492.58 875 1491 876.568 1491 878.5 1491 880.433 1492.58 882 1494.52 882Z" fill="#F2AA84" fill-rule="evenodd"/><path d="M1523.69 882 1538.31 882C1540.35 882 1542 880.433 1542 878.5 1542 876.568 1540.35 875 1538.31 875L1523.69 875C1521.65 875 1520 876.568 1520 878.5 1520 880.433 1521.65 882 1523.69 882Z" fill="#F2AA84" fill-rule="evenodd"/><path d="M1598.5 755C1600.43 755 1602 753.393 1602 751.412L1602 735.588C1602 733.607 1600.43 732 1598.5 732 1596.57 732 1595 733.607 1595 735.588L1595 751.412C1595 753.393 1596.57 755 1598.5 755Z" fill="#F2AA84" fill-rule="evenodd"/><path d="M1598.5 783C1600.43 783 1602 781.393 1602 779.412L1602 763.589C1602 761.607 1600.43 760 1598.5 760 1596.57 760 1595 761.607 1595 763.589L1595 779.412C1595 781.393 1596.57 783 1598.5 783Z" fill="#F2AA84" fill-rule="evenodd"/><path d="M1576.52 761 1590.48 761C1592.42 761 1594 759.433 1594 757.5 1594 755.568 1592.42 754 1590.48 754L1576.52 754C1574.58 754 1573 755.568 1573 757.5 1573 759.433 1574.58 761 1576.52 761Z" fill="#F2AA84" fill-rule="evenodd"/><path d="M1606.52 761 1620.48 761C1622.42 761 1624 759.433 1624 757.5 1624 755.568 1622.42 754 1620.48 754L1606.52 754C1604.58 754 1603 755.568 1603 757.5 1603 759.433 1604.58 761 1606.52 761Z" fill="#F2AA84" fill-rule="evenodd"/><path d="M2530 781.537 2530 850.592C2530 859.721 2522.6 867.126 2513.49 867.126L2388.25 867.126 2350.45 880.705C2346.56 882.103 2342.85 878.281 2344.34 874.434L2358.64 837.456 2358.64 781.533C2358.64 772.404 2366.03 765 2375.16 765L2513.48 765C2522.6 765 2530 772.408 2530 781.537Z" fill="#D9D9D9" fill-rule="evenodd"/><path d="M2503.44 801 2388.56 801C2386.04 801 2384 798.985 2384 796.498L2384 796.498C2384 794.012 2386.04 792 2388.56 792L2503.44 792C2505.96 792 2508 794.015 2508 796.498L2508 796.498C2508 798.988 2505.96 801 2503.44 801Z" fill="#FFFFFF" fill-rule="evenodd"/><path d="M2503.44 820 2388.56 820C2386.04 820 2384 817.761 2384 814.998L2384 814.998C2384 812.236 2386.04 810 2388.56 810L2503.44 810C2505.96 810 2508 812.239 2508 814.998L2508 814.998C2508 817.761 2505.96 820 2503.44 820Z" fill="#FFFFFF" fill-rule="evenodd"/><path d="M2503.44 838 2388.56 838C2386.04 838 2384 835.985 2384 833.502L2384 833.502C2384 831.016 2386.04 829 2388.56 829L2503.44 829C2505.96 829 2508 831.016 2508 833.502L2508 833.502C2508 835.985 2505.96 838 2503.44 838Z" fill="#FFFFFF" fill-rule="evenodd"/><path d="M2900 1808.31 2900 1809.69C2900 1817.59 2888.45 1824 2874.19 1824L1535.8 1824C1521.54 1824 1510 1817.59 1510 1809.69L1510 1808.31C1510 1800.41 1521.54 1794 1535.8 1794L2874.19 1794C2888.45 1794 2900 1800.41 2900 1808.31Z" fill="#404040" fill-rule="evenodd"/><path d="M2900 1810.22 2900 1811 1510 1811 1510 1810.22C1510 1801.26 1521.54 1794 1535.8 1794L2874.19 1794C2888.45 1794 2900 1801.26 2900 1810.22Z" fill="#BFBFBF" fill-rule="evenodd"/><path d="M2359.92 1374.75C2333.21 1377.8 2305.34 1379 2277.99 1379 2188.43 1379 2104.36 1366.13 2084 1362.78 2084.37 1359.13 2084.72 1355.54 2085.04 1352 2108.7 1355.94 2245.59 1377.22 2360 1363.88 2360.01 1366.96 2359.98 1370.61 2359.92 1374.75Z" fill="#F2F2F2" fill-rule="evenodd"/><path d="M2343.5 1324.5C2343.5 1336.65 2334.55 1346.5 2323.5 1346.5 2312.45 1346.5 2303.5 1336.65 2303.5 1324.5 2303.5 1312.35 2312.45 1302.5 2323.5 1302.5 2328 1302.5 2332.36 1304.17 2335.89 1307.23L2323.5 1324.5Z" stroke="#F2F2F2" stroke-width="6.875" stroke-miterlimit="8" fill="none" fill-rule="evenodd"/></g></svg>