<svg width="2290" height="1199" xmlns="http://www.w3.org/2000/svg" xmlns:xlink="http://www.w3.org/1999/xlink" xml:space="preserve" overflow="hidden"><defs><filter id="fx0" x="-10%" y="-10%" width="120%" height="120%" filterUnits="userSpaceOnUse" primitiveUnits="userSpaceOnUse"><feComponentTransfer color-interpolation-filters="sRGB"><feFuncR type="discrete" tableValues="0 0"/><feFuncG type="discrete" tableValues="0 0"/><feFuncB type="discrete" tableValues="0 0"/><feFuncA type="linear" slope="0.4" intercept="0"/></feComponentTransfer><feGaussianBlur stdDeviation="6.11111 6.11111"/></filter><clipPath id="clip1"><rect x="1161" y="868" width="2290" height="1199"/></clipPath><linearGradient x1="2363.5" y1="1941" x2="2363.5" y2="1635" gradientUnits="userSpaceOnUse" spreadMethod="reflect" id="fill2"><stop offset="0" stop-color="#607298"/><stop offset="0.5" stop-color="#8CA6DB"/><stop offset="1" stop-color="#A7C6FF"/></linearGradient><linearGradient x1="2406" y1="1720" x2="2406" y2="1628" gradientUnits="userSpaceOnUse" spreadMethod="reflect" id="fill3"><stop offset="0" stop-color="#607298"/><stop offset="0.5" stop-color="#8CA6DB"/><stop offset="1" stop-color="#A7C6FF"/></linearGradient><linearGradient x1="1962.5" y1="1943" x2="1962.5" y2="1692" gradientUnits="userSpaceOnUse" spreadMethod="reflect" id="fill4"><stop offset="0" stop-color="#607298"/><stop offset="0.5" stop-color="#8CA6DB"/><stop offset="1" stop-color="#A7C6FF"/></linearGradient><linearGradient x1="1998" y1="1685" x2="1998" y2="1615" gradientUnits="userSpaceOnUse" spreadMethod="reflect" id="fill5"><stop offset="0" stop-color="#607298"/><stop offset="0.5" stop-color="#8CA6DB"/><stop offset="1" stop-color="#A7C6FF"/></linearGradient><linearGradient x1="1997.5" y1="1762" x2="1997.5" y2="1687" gradientUnits="userSpaceOnUse" spreadMethod="reflect" id="fill6"><stop offset="0" stop-color="#607298"/><stop offset="0.5" stop-color="#8CA6DB"/><stop offset="1" stop-color="#A7C6FF"/></linearGradient><linearGradient x1="1919.5" y1="1700" x2="1919.5" y2="1687" gradientUnits="userSpaceOnUse" spreadMethod="reflect" id="fill7"><stop offset="0" stop-color="#607298"/><stop offset="0.5" stop-color="#8CA6DB"/><stop offset="1" stop-color="#A7C6FF"/></linearGradient><linearGradient x1="1968.5" y1="1694" x2="1968.5" y2="1680" gradientUnits="userSpaceOnUse" spreadMethod="reflect" id="fill8"><stop offset="0" stop-color="#607298"/><stop offset="0.5" stop-color="#8CA6DB"/><stop offset="1" stop-color="#A7C6FF"/></linearGradient><linearGradient x1="2566.07" y1="1537.08" x2="2577.93" y2="1550.92" gradientUnits="userSpaceOnUse" spreadMethod="reflect" id="fill9"><stop offset="0" stop-color="#212121"/><stop offset="0.5" stop-color="#343434"/><stop offset="1" stop-color="#404040"/></linearGradient><linearGradient x1="2587.53" y1="1540.54" x2="2594.47" y2="1548.46" gradientUnits="userSpaceOnUse" spreadMethod="reflect" id="fill10"><stop offset="0" stop-color="#212121"/><stop offset="0.5" stop-color="#343434"/><stop offset="1" stop-color="#404040"/></linearGradient></defs><g clip-path="url(#clip1)" transform="translate(-1161 -868)"><path d="M1729 1438.01C1729 1438.01 1741.9 1402.13 1772.75 1406.11 1772.75 1406.11 1817.53 1346.3 1865.29 1398.14 1865.29 1398.14 1916.06 1385.29 1953.65 1409.26 1978.72 1425.24 1987 1442 1987 1442L1729 1438.01Z" fill="#F8FCFF" fill-rule="evenodd" fill-opacity="0.501961"/><path d="M1543 1312.15C1543 1312.15 1558.6 1268.54 1595.9 1273.38 1595.9 1273.38 1650.06 1200.69 1707.82 1263.69 1707.82 1263.69 1769.21 1248.08 1814.67 1277.21 1844.99 1296.63 1855 1317 1855 1317L1543 1312.15Z" fill="#F8FCFF" fill-rule="evenodd" fill-opacity="0.501961"/><path d="M2066 1274.77C2066 1274.77 2086.7 1236.67 2136.2 1240.91 2136.2 1240.91 2208.06 1177.41 2284.7 1232.44 2284.7 1232.44 2366.16 1218.81 2426.49 1244.24 2466.72 1261.21 2480 1279 2480 1279L2066 1274.77Z" fill="#F8FCFF" fill-rule="evenodd" fill-opacity="0.501961"/><path d="M3316.73 1968.05C3315.25 1974.35 3313.59 1980.82 3311.74 1987.29 3310.07 1993.76 3307.85 2000.61 3305.46 2007.45 3304.34 2010.77 3303.05 2014.11 3301.94 2017.43 3298.06 2027.98 3293.62 2038.89 3288.26 2050.17 3286.59 2053.87 3284.93 2057.76 3283.08 2061.46 3282.61 2062.62 3282.07 2063.78 3281.52 2064.94 3281.18 2065.62 3280.83 2066.31 3280.49 2067L3060.62 2067 2996.27 2066.83 2420.09 2066.83 2338.67 2066.74 2338.42 2066.74 2252.64 2066.64 1808.19 2066.64 1622.91 2066.45 1287.85 2066.45C1287.85 2066.45 1287.74 2066.15 1287.5 2065.55 1287.44 2065.37 1287.37 2065.17 1287.28 2064.94 1287.01 2064.22 1286.64 2063.25 1286.18 2062.01L1286 2061.65C1286 2061.65 1286 2061.65 1286 2061.46 1286 2061.46 1285.81 2061.27 1285.81 2061.09 1285.08 2059.61 1284.52 2057.94 1283.78 2055.92 1283.41 2054.98 1283.04 2053.87 1282.48 2052.77 1282.48 2052.58 1282.48 2052.58 1282.48 2052.39 1282.3 2052.21 1282.3 2052.21 1282.3 2052.21 1279.76 2045.61 1276.61 2037.01 1272.98 2026.63 1272.66 2025.69 1272.32 2024.73 1271.98 2023.77 1269.26 2015.93 1266.26 2007.14 1263.07 1997.46 1255.49 1973.97 1246.8 1945.3 1238.3 1912.94 1234.97 1900.17 1231.64 1886.86 1228.49 1872.98 1226.64 1864.97 1224.77 1856.63 1222.99 1848.21 1222.48 1845.74 1221.97 1843.27 1221.46 1840.8 1218.19 1825.02 1215.12 1808.77 1212.34 1792.17 1208.69 1770.37 1205.55 1747.95 1203.16 1725.19 1201.98 1714.03 1200.98 1702.77 1200.18 1691.46 1200.16 1691.17 1200.13 1690.86 1200.12 1690.57 1200.09 1690.27 1200.07 1689.96 1200.05 1689.66 1198.95 1673.73 1198.27 1657.68 1198.06 1641.64 1197.9 1628.74 1198.04 1615.83 1198.54 1602.95 1198.9 1594.25 1199.46 1585.56 1200.02 1576.86 1201.5 1558.37 1203.71 1539.87 1206.86 1521.93 1208.89 1509.72 1211.48 1497.51 1214.44 1485.68 1221.65 1456.64 1231.45 1428.89 1244.39 1402.63 1249.02 1393.57 1253.82 1384.69 1259.19 1376 1271.2 1356.2 1283.41 1337.71 1295.81 1320.33L1295.99 1320.33C1302.46 1311.08 1308.93 1302.39 1315.4 1294.06 1339.62 1262.62 1364.22 1235.61 1389 1212.31 1693.18 927.658 2041.93 1202.32 2257.73 1011.26 2468.71 824.639 2863.51 821.866 3040.1 994.059 3043.43 997.391 3046.94 1000.72 3050.27 1004.42 3078.86 1034.77 3100.92 1070.21 3114.46 1110.69 3124.89 1141.87 3130.28 1176.02 3129.7 1213.14 3129.64 1217.03 3129.52 1220.97 3129.33 1224.94 3128.51 1241.87 3126.48 1259.38 3123.14 1277.48 3120.94 1289.47 3118.17 1301.71 3114.8 1314.22 3106.66 1344.19 3095.21 1375.45 3080.05 1408.55 3078.56 1411.69 3077.08 1414.84 3075.6 1417.99 3027.34 1518.97 3067.1 1579.45 3127.94 1634.76 3165.47 1668.98 3210.78 1701.16 3248.5 1739.63 3253.49 1744.8 3258.3 1749.99 3263.11 1755.35 3264.95 1757.49 3266.76 1759.62 3268.55 1761.79 3273.59 1767.88 3278.44 1774.09 3283.08 1780.5 3285.43 1783.82 3287.69 1787.19 3289.88 1790.62 3296.34 1800.74 3302.08 1811.35 3306.92 1822.54 3310.29 1830.35 3313.23 1838.45 3315.68 1846.85 3318.8 1857.55 3321.11 1868.77 3322.49 1880.56 3325.57 1906.65 3324.09 1935.57 3316.73 1968.05Z" fill="#C9FCE9" fill-rule="evenodd"/><path d="M2747.07 2067 2078.47 2067 1799.75 2066.82 1295.7 2066.82C1295.7 2066.82 1295.4 2066.31 1294.83 2065.3 1294.43 2064.58 1293.88 2063.61 1293.17 2062.38L1292.9 2062.01C1292.9 2062.01 1292.9 2062.01 1292.9 2061.83 1292.9 2061.83 1292.63 2061.64 1292.63 2061.45 1291.51 2059.98 1290.68 2058.31 1289.57 2056.28 1289 2055.35 1288.46 2054.24 1287.62 2053.14 1287.62 2052.95 1287.62 2052.95 1287.62 2052.76 1287.34 2052.58 1287.34 2052.58 1287.34 2052.58 1283.53 2045.98 1278.79 2037.39 1273.32 2027.01 1272.82 2026.07 1272.33 2025.12 1271.82 2024.16 1269.1 2016.31 1266.1 2007.53 1262.91 1997.86 1255.33 1974.38 1246.63 1945.72 1238.13 1913.37 1234.8 1900.61 1231.47 1887.31 1228.32 1873.43 1226.47 1865.43 1224.6 1857.09 1222.82 1848.67 1222.3 1846.2 1221.8 1843.73 1221.29 1841.27 1218.02 1825.5 1214.94 1809.26 1212.17 1792.66 1206.72 1760.17 1202.42 1726.31 1200 1692 1416.5 1703.15 1833.83 1732.51 2147.75 1802.58 2590.7 1901.45 2700.16 1917.42 2887.81 1935.16 2992.82 1945.09 2873 2010.93 2747.07 2067Z" fill="#FFCF83" fill-rule="evenodd"/><path d="M2367.86 1635 2352 1941 2367.86 1941 2375 1635Z" fill="url(#fill2)" fill-rule="evenodd"/><path d="M2369 1607.04 2372.97 1626 2444 1541Z" fill="#ADC8FE" fill-rule="evenodd"/><path d="M2394.42 1629.44 2375 1628 2437 1720Z" fill="url(#fill3)" fill-rule="evenodd"/><path d="M2354.89 1645 2366 1629 2256 1634.1Z" fill="#ADC8FE" fill-rule="evenodd"/><path d="M2378.81 1624.77C2380.64 1629.17 2378.55 1634.22 2374.14 1636.05 2369.74 1637.87 2364.69 1635.78 2362.87 1631.38 2361.04 1626.97 2363.14 1621.93 2367.54 1620.1 2371.94 1618.28 2376.99 1620.37 2378.81 1624.77Z" fill="#ADC8FE" fill-rule="evenodd"/><path d="M2321 1897.88C2321 1897.88 1747.96 1740.76 1567.31 1724.94 1386.65 1709.11 1559.71 1746.1 1559.71 1746.1 1559.71 1746.1 2050.12 1875.1 2164.85 1928.29 2279.58 1981.48 2321 1897.88 2321 1897.88Z" fill="#F7C274" fill-rule="evenodd"/><path d="M2146 2023.37C2146 2023.37 1651.2 1785.7 1489.62 1741.08 1328.04 1696.47 1479.2 1758.83 1479.2 1758.83 1479.2 1758.83 1903.56 1957.32 1999.01 2024.44 2094.47 2091.57 2146 2023.37 2146 2023.37Z" fill="#F7C274" fill-rule="evenodd"/><path d="M1966.1 1692 1953 1943 1966.1 1943 1972 1692Z" fill="url(#fill4)" fill-rule="evenodd"/><path d="M1967 1669.39 1970.28 1685 2029 1615Z" fill="url(#fill5)" fill-rule="evenodd"/><path d="M1987.98 1688.17 1972 1687 2023 1762Z" fill="url(#fill6)" fill-rule="evenodd"/><path d="M1955.81 1700 1965 1687 1874 1691.14Z" fill="url(#fill7)" fill-rule="evenodd"/><path d="M1961 1687C1961 1683.13 1964.36 1680 1968.5 1680 1972.64 1680 1976 1683.13 1976 1687 1976 1690.87 1972.64 1694 1968.5 1694 1964.36 1694 1961 1690.87 1961 1687Z" fill="url(#fill8)" fill-rule="evenodd"/><path d="M3322 1880.23C3320.83 1895.56 3318.92 1911.49 3316.24 1928.1 3316.18 1928.47 3316.12 1928.84 3316.05 1929.22 3314.62 1937.7 3313.02 1946.39 3311.25 1955.09 3309.58 1964.17 3307.37 1973.77 3304.97 1983.37 3303.86 1988.03 3302.56 1992.71 3301.46 1997.37 3297.57 2012.17 3293.14 2027.46 3287.78 2043.29 3286.11 2048.48 3284.45 2053.93 3282.6 2059.13 3282.13 2060.75 3281.6 2062.38 3281.04 2064L1287.27 2064C1287 2062.99 1286.64 2061.63 1286.17 2059.9L1285.99 2059.38C1285.99 2059.38 1285.99 2059.38 1285.99 2059.13 1285.99 2059.13 1285.81 2058.85 1285.81 2058.6 1285.07 2056.53 1284.51 2054.18 1283.77 2051.35 1283.4 2050.04 1283.03 2048.48 1282.48 2046.93 1282.48 2046.68 1282.48 2046.68 1282.48 2046.4 1282.3 2046.15 1282.3 2046.15 1282.3 2046.15 1279.76 2036.89 1276.61 2024.84 1272.98 2010.27 1269.98 1998.26 1266.65 1984.59 1263.07 1969.35 1255.49 1936.41 1246.8 1896.2 1238.3 1850.79 1234.97 1832.89 1231.64 1814.21 1228.49 1794.75 1226.64 1783.51 1224.78 1771.81 1223 1760 1405.76 1829.51 1875.76 1985.7 2211.41 1898.35 2271.73 1882.66 2338.28 1868.61 2408.11 1856.05 2423.72 1853.23 2439.49 1850.5 2455.39 1847.84 2636.45 1817.51 2834.39 1796.49 3000.27 1782L3000.31 1782C3002.22 1781.84 3004.13 1781.67 3006.04 1781.51 3007.91 1781.35 3009.77 1781.18 3011.65 1781.02 3013.91 1780.83 3016.18 1780.63 3018.43 1780.43 3023.13 1780.04 3027.79 1779.63 3032.44 1779.25 3033.05 1779.2 3033.64 1779.15 3034.25 1779.1 3037.81 1778.79 3041.35 1778.5 3044.89 1778.2 3057.92 1777.11 3070.71 1776.07 3083.23 1775.06 3086.04 1774.84 3088.85 1774.62 3091.63 1774.39 3094.73 1774.14 3097.81 1773.9 3100.85 1773.66 3104.97 1773.33 3109.06 1773.02 3113.12 1772.69 3115.63 1772.5 3118.12 1772.31 3120.59 1772.12 3125.03 1771.77 3129.43 1771.44 3133.78 1771.1 3135.92 1770.94 3138.05 1770.78 3140.17 1770.62 3143.1 1770.39 3146 1770.18 3148.89 1769.96 3149.12 1769.94 3149.35 1769.92 3149.6 1769.91 3154.32 1769.55 3159 1769.2 3163.62 1768.85 3165.09 1768.74 3166.56 1768.64 3168.02 1768.53 3168.1 1768.52 3168.16 1768.52 3168.21 1768.51 3168.28 1768.5 3168.32 1768.5 3168.32 1768.5 3205.73 1765.72 3239.33 1763.37 3268.08 1761.38 3273.12 1767.47 3277.96 1773.69 3282.6 1780.1 3284.94 1783.42 3287.21 1786.8 3289.4 1790.23 3295.85 1800.35 3301.59 1810.97 3306.44 1822.17 3309.81 1829.98 3312.74 1838.09 3315.19 1846.5 3318.31 1857.2 3320.62 1868.43 3322 1880.23Z" fill="#82B378" fill-rule="evenodd"/><path d="M2456 1848C2408.5 1874.71 2306.07 1943.06 2243.13 2064.46 2242.69 2065.29 2242.25 2066.15 2241.82 2067L2193.97 2064.46 2179 2063.66C2180.44 2059.61 2247.18 1958.45 2408.6 1856.22 2424.24 1853.4 2440.06 1850.66 2456 1848Z" fill="#6E9E63" fill-rule="evenodd"/><path d="M2280 2063.83C2281.52 2059.57 2358.86 1941.68 2549.96 1835L2565 1846.78C2565 1846.78 2418.01 1911.51 2339.15 2067L2280 2063.83Z" fill="#6E9E63" fill-rule="evenodd"/><path d="M2418 2063.83C2419.52 2059.57 2496.86 1941.68 2687.96 1835L2703 1846.78C2703 1846.78 2556.01 1911.51 2477.15 2067L2418 2063.83Z" fill="#6E9E63" fill-rule="evenodd"/><path d="M3169 1769C3169 1769 2900.98 1796.31 2733.6 1969L2628 1938.69C2630.92 1934.43 2745.57 1844.96 3000.9 1782.51L3000.94 1782.51C3062.14 1777.17 3118.98 1772.71 3169 1769L3169 1769Z" fill="#6E9E63" fill-rule="evenodd"/><path d="M3307 1822.85C3186.67 1851.86 2994.03 1918.35 2849.99 2064L2757.77 2064 2690 2044.41C2694.3 2037.78 2877.96 1884.32 3289.96 1791 3296.42 1801.09 3302.15 1811.68 3307 1822.85Z" fill="#6E9E63" fill-rule="evenodd"/><path d="M2345.31 2061 2346.75 2060.65C2346.17 2058.22 2344.73 2009.23 2361 1980.67L2359.69 1980C2343.2 2008.94 2344.75 2058.99 2345.31 2061Z" fill="#6E9E63" fill-rule="evenodd"/><path d="M2362.88 1954C2362.88 1954 2368.19 1964.38 2364.96 1969.03 2361.73 1973.68 2359.06 1960.41 2362.88 1954Z" fill="#FFCF83" fill-rule="evenodd"/><path d="M2366.12 1997C2366.12 1997 2360.81 1986.62 2364.04 1981.97 2367.27 1977.32 2369.94 1990.59 2366.12 1997Z" fill="#FFCF83" fill-rule="evenodd"/><path d="M2353 1957C2353 1957 2362.53 1963.95 2361.98 1969.47 2361.42 1974.99 2352.78 1964.34 2353 1957Z" fill="#FFCF83" fill-rule="evenodd"/><path d="M2376 1994C2376 1994 2366.47 1987.06 2367.02 1981.53 2367.58 1976.01 2376.22 1986.66 2376 1994Z" fill="#FFCF83" fill-rule="evenodd"/><path d="M2346 1964C2346 1964 2357.68 1965.98 2359.77 1971.04 2361.86 1976.1 2349.24 1970.5 2346 1964Z" fill="#FFCF83" fill-rule="evenodd"/><path d="M2383 1987C2383 1987 2372.16 1985.02 2370.22 1979.96 2368.27 1974.9 2380 1980.5 2383 1987Z" fill="#FFCF83" fill-rule="evenodd"/><path d="M2344 1982.51C2344 1982.51 2352.78 1975.38 2357.81 1977.34 2362.83 1979.3 2350.8 1984.63 2344 1982.51Z" fill="#FFCF83" fill-rule="evenodd"/><path d="M2386 1973.46C2386 1973.46 2376.46 1979.07 2371.96 1976.16 2367.47 1973.26 2379.83 1970.07 2386 1973.46Z" fill="#FFCF83" fill-rule="evenodd"/><path d="M2349 1990C2349 1990 2354.71 1980.21 2360.31 1980 2365.92 1979.79 2356.38 1989.24 2349 1990Z" fill="#FFCF83" fill-rule="evenodd"/><path d="M2382 1963C2382 1963 2376.73 1972.79 2371.56 1973 2366.39 1973.2 2375.19 1963.76 2382 1963Z" fill="#FFCF83" fill-rule="evenodd"/><path d="M2356 1996C2356 1996 2356.76 1984.85 2361.81 1982.33 2366.86 1979.82 2362.43 1992.25 2356 1996Z" fill="#FFCF83" fill-rule="evenodd"/><path d="M2375 1957C2375 1957 2374.24 1968.15 2369.19 1970.67 2364.14 1973.18 2368.57 1960.75 2375 1957Z" fill="#FFCF83" fill-rule="evenodd"/><path d="M2343 1975.27C2343 1975.27 2353.74 1970.75 2358.13 1974.47 2362.53 1978.18 2349.1 1979.74 2343 1975.27Z" fill="#FFCF83" fill-rule="evenodd"/><path d="M2373 1976C2373 1971.58 2369.42 1968 2365 1968 2360.58 1968 2357 1971.58 2357 1976 2357 1980.42 2360.58 1984 2365 1984 2369.42 1984 2373 1980.42 2373 1976Z" fill="#365DA4" fill-rule="evenodd"/><path d="M2348 2016.37C2348 2016.37 2354.93 2008.75 2364.5 2008.23 2374.06 2007.71 2377 2008.23 2377 2008.23 2377 2008.23 2371.12 2014.95 2364.1 2016.37 2357.08 2017.79 2348 2016.37 2348 2016.37Z" fill="#6E9E63" fill-rule="evenodd"/><path d="M2350 2009C2348.8 2007.97 2347.9 1999.59 2340.55 1997.5 2333.21 1995.4 2328 1995 2328 1995 2328 1995 2334.36 2005.88 2339 2007.51 2343.63 2009.14 2350 2009 2350 2009Z" fill="#6E9E63" fill-rule="evenodd"/><path d="M2308.35 2061 2309.97 2060.59C2309.32 2057.7 2307.7 1999.64 2326 1965.79L2324.52 1965C2305.98 1999.3 2307.72 2058.61 2308.35 2061Z" fill="#6E9E63" fill-rule="evenodd"/><path d="M2329.26 1935C2329.26 1935 2335.63 1946.68 2331.75 1951.91 2327.87 1957.14 2324.67 1942.21 2329.26 1935Z" fill="#FFCF83" fill-rule="evenodd"/><path d="M2332.74 1986C2332.74 1986 2326.37 1973.67 2330.25 1968.15 2334.13 1962.63 2337.33 1978.39 2332.74 1986Z" fill="#FFCF83" fill-rule="evenodd"/><path d="M2318 1939C2318 1939 2328.59 1946.94 2327.97 1953.25 2327.36 1959.56 2317.76 1947.39 2318 1939Z" fill="#FFCF83" fill-rule="evenodd"/><path d="M2344 1982C2344 1982 2333.41 1974.06 2334.03 1967.75 2334.64 1961.44 2344.24 1973.61 2344 1982Z" fill="#FFCF83" fill-rule="evenodd"/><path d="M2309 1947C2309 1947 2322.34 1949.42 2324.73 1955.61 2327.12 1961.79 2312.7 1954.95 2309 1947Z" fill="#FFCF83" fill-rule="evenodd"/><path d="M2353 1974C2353 1974 2339.66 1971.58 2337.27 1965.4 2334.88 1959.21 2349.3 1966.05 2353 1974Z" fill="#FFCF83" fill-rule="evenodd"/><path d="M2307 1968.43C2307 1968.43 2317.54 1960.11 2323.57 1962.4 2329.6 1964.68 2315.16 1970.9 2307 1968.43Z" fill="#FFCF83" fill-rule="evenodd"/><path d="M2356 1958.46C2356 1958.46 2344.55 1964.07 2339.16 1961.16 2333.76 1958.26 2348.6 1955.07 2356 1958.46Z" fill="#FFCF83" fill-rule="evenodd"/><path d="M2312 1978C2312 1978 2318.59 1966.25 2325.05 1966 2331.52 1965.75 2320.52 1977.09 2312 1978Z" fill="#FFCF83" fill-rule="evenodd"/><path d="M2352 1945C2352 1945 2345.42 1956.75 2338.95 1957 2332.48 1957.25 2343.48 1945.91 2352 1945Z" fill="#FFCF83" fill-rule="evenodd"/><path d="M2321 1984C2321 1984 2321.86 1971.26 2327.54 1968.38 2333.22 1965.5 2328.23 1979.72 2321 1984Z" fill="#FFCF83" fill-rule="evenodd"/><path d="M2343 1938C2343 1938 2342.14 1951.54 2336.46 1954.6 2330.78 1957.65 2335.77 1942.55 2343 1938Z" fill="#FFCF83" fill-rule="evenodd"/><path d="M2306 1959.72C2306 1959.72 2318.08 1954.3 2323.02 1958.76 2327.97 1963.22 2312.87 1965.09 2306 1959.72Z" fill="#FFCF83" fill-rule="evenodd"/><path d="M2340 1960.5C2340 1955.25 2335.97 1951 2331 1951 2326.03 1951 2322 1955.25 2322 1960.5 2322 1965.75 2326.03 1970 2331 1970 2335.97 1970 2340 1965.75 2340 1960.5Z" fill="#365DA4" fill-rule="evenodd"/><path d="M2309 2031.3C2309 2031.3 2317.13 2022.83 2328.34 2022.26 2339.55 2021.68 2343 2022.26 2343 2022.26 2343 2022.26 2336.1 2029.72 2327.88 2031.3 2319.65 2032.88 2309 2031.3 2309 2031.3Z" fill="#6E9E63" fill-rule="evenodd"/><path d="M2311 2023C2309.58 2021.82 2308.52 2012.25 2299.84 2009.86 2291.16 2007.46 2285 2007 2285 2007 2285 2007 2292.52 2019.44 2298 2021.3 2303.48 2023.16 2311 2023 2311 2023Z" fill="#6E9E63" fill-rule="evenodd"/><path d="M2353.21 2061 2354.21 2060.75C2353.81 2059.04 2352.82 2024.57 2364 2004.47L2363.1 2004C2351.76 2024.37 2352.83 2059.58 2353.21 2061Z" fill="#6E9E63" fill-rule="evenodd"/><path d="M2365.51 1986C2365.51 1986 2369.75 1993.14 2367.17 1996.33 2364.58 1999.53 2362.45 1990.41 2365.51 1986Z" fill="#FFCF83" fill-rule="evenodd"/><path d="M2367.87 2016C2367.87 2016 2364.69 2008.86 2366.63 2005.67 2368.56 2002.47 2370.16 2011.59 2367.87 2016Z" fill="#FFCF83" fill-rule="evenodd"/><path d="M2359 1988C2359 1988 2365.35 1992.46 2364.98 1996.02 2364.61 1999.57 2358.86 1992.72 2359 1988Z" fill="#FFCF83" fill-rule="evenodd"/><path d="M2375 2014C2375 2014 2368.65 2009.04 2369.02 2005.09 2369.39 2001.15 2375.15 2008.76 2375 2014Z" fill="#FFCF83" fill-rule="evenodd"/><path d="M2354 1993C2354 1993 2361.51 1994.32 2362.85 1997.69 2364.2 2001.07 2356.08 1997.34 2354 1993Z" fill="#FFCF83" fill-rule="evenodd"/><path d="M2380 2009C2380 2009 2371.66 2007.68 2370.17 2004.31 2368.67 2000.93 2377.69 2004.66 2380 2009Z" fill="#FFCF83" fill-rule="evenodd"/><path d="M2352 2005.68C2352 2005.68 2358.44 2000.92 2362.12 2002.23 2365.81 2003.53 2356.99 2007.09 2352 2005.68Z" fill="#FFCF83" fill-rule="evenodd"/><path d="M2382 1999.88C2382 1999.88 2375 2003.24 2371.71 2001.5 2368.41 1999.76 2377.47 1997.84 2382 1999.88Z" fill="#FFCF83" fill-rule="evenodd"/><path d="M2356 2011C2356 2011 2359.95 2004.15 2363.83 2004 2367.71 2003.86 2361.11 2010.47 2356 2011Z" fill="#FFCF83" fill-rule="evenodd"/><path d="M2379 1992C2379 1992 2375.05 1998.85 2371.17 1999 2367.29 1999.14 2373.89 1992.53 2379 1992Z" fill="#FFCF83" fill-rule="evenodd"/><path d="M2361 2015C2361 2015 2361.48 2007.04 2364.63 2005.24 2367.79 2003.44 2365.02 2012.32 2361 2015Z" fill="#FFCF83" fill-rule="evenodd"/><path d="M2374 1988C2374 1988 2373.43 1995.96 2369.64 1997.76 2365.85 1999.56 2369.18 1990.68 2374 1988Z" fill="#FFCF83" fill-rule="evenodd"/><path d="M2352 2000.36C2352 2000.36 2359.38 1997.65 2362.4 1999.88 2365.42 2002.11 2356.2 2003.04 2352 2000.36Z" fill="#FFCF83" fill-rule="evenodd"/><path d="M2372 2000.5C2372 1997.46 2369.54 1995 2366.5 1995 2363.46 1995 2361 1997.46 2361 2000.5 2361 2003.54 2363.46 2006 2366.5 2006 2369.54 2006 2372 2003.54 2372 2000.5Z" fill="#365DA4" fill-rule="evenodd"/><path d="M2354 2043.58C2354 2043.58 2358.78 2038.5 2365.38 2038.15 2371.97 2037.81 2374 2038.15 2374 2038.15 2374 2038.15 2369.94 2042.63 2365.1 2043.58 2360.27 2044.53 2354 2043.58 2354 2043.58Z" fill="#6E9E63" fill-rule="evenodd"/><path d="M2355 2039C2354.13 2038.26 2353.47 2032.28 2348.13 2030.79 2342.79 2029.29 2339 2029 2339 2029 2339 2029 2343.63 2036.77 2347 2037.94 2350.37 2039.1 2355 2039 2355 2039Z" fill="#6E9E63" fill-rule="evenodd"/><path d="M2407.35 2061 2408.97 2060.59C2408.32 2057.7 2406.7 1999.64 2425 1965.79L2423.52 1965C2404.98 1999.3 2406.72 2058.61 2407.35 2061Z" fill="#6E9E63" fill-rule="evenodd"/><path d="M2427.88 1935C2427.88 1935 2433.19 1946.68 2429.96 1951.91 2426.73 1957.14 2424.06 1942.21 2427.88 1935Z" fill="#FFCF83" fill-rule="evenodd"/><path d="M2431.74 1986C2431.74 1986 2425.37 1973.67 2429.25 1968.15 2433.13 1962.63 2436.33 1978.39 2431.74 1986Z" fill="#FFCF83" fill-rule="evenodd"/><path d="M2416 1939C2416 1939 2427.65 1946.94 2426.97 1953.25 2426.29 1959.56 2415.73 1947.39 2416 1939Z" fill="#FFCF83" fill-rule="evenodd"/><path d="M2443 1982C2443 1982 2432.41 1974.06 2433.03 1967.75 2433.64 1961.44 2443.24 1973.61 2443 1982Z" fill="#FFCF83" fill-rule="evenodd"/><path d="M2408 1947C2408 1947 2421.34 1949.42 2423.74 1955.61 2426.12 1961.79 2411.7 1954.95 2408 1947Z" fill="#FFCF83" fill-rule="evenodd"/><path d="M2451 1974C2451 1974 2438.49 1971.58 2436.25 1965.4 2434.01 1959.21 2447.53 1966.05 2451 1974Z" fill="#FFCF83" fill-rule="evenodd"/><path d="M2405 1968.43C2405 1968.43 2415.54 1960.11 2421.57 1962.4 2427.6 1964.68 2413.16 1970.9 2405 1968.43Z" fill="#FFCF83" fill-rule="evenodd"/><path d="M2455 1958.46C2455 1958.46 2443.55 1964.07 2438.16 1961.17 2432.76 1958.26 2447.6 1955.07 2455 1958.46Z" fill="#FFCF83" fill-rule="evenodd"/><path d="M2411 1978C2411 1978 2417.59 1966.25 2424.05 1966 2430.52 1965.75 2419.52 1977.09 2411 1978Z" fill="#FFCF83" fill-rule="evenodd"/><path d="M2451 1945C2451 1945 2444.42 1956.75 2437.95 1957 2431.48 1957.25 2442.48 1945.91 2451 1945Z" fill="#FFCF83" fill-rule="evenodd"/><path d="M2420 1984C2420 1984 2420.86 1971.26 2426.54 1968.38 2432.22 1965.5 2427.23 1979.72 2420 1984Z" fill="#FFCF83" fill-rule="evenodd"/><path d="M2441 1938C2441 1938 2440.14 1951.54 2434.46 1954.6 2428.78 1957.65 2433.77 1942.55 2441 1938Z" fill="#FFCF83" fill-rule="evenodd"/><path d="M2405 1959.72C2405 1959.72 2417.08 1954.3 2422.02 1958.76 2426.97 1963.22 2411.86 1965.09 2405 1959.72Z" fill="#FFCF83" fill-rule="evenodd"/><path d="M2439 1960.5C2439 1965.75 2434.75 1970 2429.5 1970 2424.25 1970 2420 1965.75 2420 1960.5 2420 1955.25 2424.25 1951 2429.5 1951 2434.75 1951 2439 1955.25 2439 1960.5Z" fill="#365DA4" fill-rule="evenodd"/><path d="M2410 2008.3C2410 2008.3 2418.13 1999.83 2429.34 1999.26 2440.55 1998.68 2444 1999.26 2444 1999.26 2444 1999.26 2437.1 2006.72 2428.88 2008.3 2420.65 2009.88 2410 2008.3 2410 2008.3Z" fill="#6E9E63" fill-rule="evenodd"/><path d="M2412 2000C2410.58 1998.75 2409.52 1988.58 2400.84 1986.03 2392.16 1983.49 2386 1983 2386 1983 2386 1983 2393.52 1996.21 2399 1998.19 2404.48 2000.17 2412 2000 2412 2000Z" fill="#6E9E63" fill-rule="evenodd"/><path d="M2377.35 2061 2378.97 2060.55C2378.32 2057.43 2376.7 1994.53 2395 1957.86L2393.52 1957C2374.98 1994.16 2376.72 2058.42 2377.35 2061Z" fill="#6E9E63" fill-rule="evenodd"/><path d="M2397.88 1925C2397.88 1925 2403.19 1937.98 2399.96 1943.79 2396.73 1949.6 2394.06 1933.01 2397.88 1925Z" fill="#FFCF83" fill-rule="evenodd"/><path d="M2401.74 1980C2401.74 1980 2395.38 1966.37 2399.25 1960.27 2403.13 1954.17 2406.33 1971.59 2401.74 1980Z" fill="#FFCF83" fill-rule="evenodd"/><path d="M2387 1929C2387 1929 2397.59 1937.43 2396.97 1944.14 2396.36 1950.85 2386.76 1937.91 2387 1929Z" fill="#FFCF83" fill-rule="evenodd"/><path d="M2413 1976C2413 1976 2402.41 1967.07 2403.03 1959.97 2403.64 1952.87 2413.24 1966.56 2413 1976Z" fill="#FFCF83" fill-rule="evenodd"/><path d="M2378 1938C2378 1938 2391.34 1940.42 2393.73 1946.6 2396.12 1952.79 2381.7 1945.95 2378 1938Z" fill="#FFCF83" fill-rule="evenodd"/><path d="M2422 1967C2422 1967 2408.66 1964.36 2406.27 1957.61 2403.88 1950.87 2418.3 1958.33 2422 1967Z" fill="#FFCF83" fill-rule="evenodd"/><path d="M2375 1960.43C2375 1960.43 2385.54 1952.11 2391.57 1954.4 2397.6 1956.68 2383.16 1962.9 2375 1960.43Z" fill="#FFCF83" fill-rule="evenodd"/><path d="M2425 1949.76C2425 1949.76 2413.55 1956.48 2408.16 1953 2402.76 1949.51 2417.6 1945.68 2425 1949.76Z" fill="#FFCF83" fill-rule="evenodd"/><path d="M2381 1971C2381 1971 2387.59 1958.27 2394.05 1958 2400.52 1957.73 2389.52 1970.02 2381 1971Z" fill="#FFCF83" fill-rule="evenodd"/><path d="M2421 1936C2421 1936 2414.41 1948.73 2407.95 1949 2401.48 1949.27 2412.48 1936.98 2421 1936Z" fill="#FFCF83" fill-rule="evenodd"/><path d="M2390 1978C2390 1978 2390.86 1963.66 2396.54 1960.43 2402.22 1957.19 2397.23 1973.18 2390 1978Z" fill="#FFCF83" fill-rule="evenodd"/><path d="M2411 1928C2411 1928 2410.14 1942.34 2404.46 1945.57 2398.78 1948.81 2403.77 1932.82 2411 1928Z" fill="#FFCF83" fill-rule="evenodd"/><path d="M2375 1951.72C2375 1951.72 2387.08 1946.3 2392.02 1950.76 2396.97 1955.22 2381.86 1957.09 2375 1951.72Z" fill="#FFCF83" fill-rule="evenodd"/><path d="M2409 1952C2409 1946.48 2404.97 1942 2400 1942 2395.03 1942 2391 1946.48 2391 1952 2391 1957.52 2395.03 1962 2400 1962 2404.97 1962 2409 1957.52 2409 1952Z" fill="#365DA4" fill-rule="evenodd"/><path d="M2378 2029.23C2378 2029.23 2386.13 2019.91 2397.34 2019.28 2408.55 2018.65 2412 2019.28 2412 2019.28 2412 2019.28 2405.1 2027.49 2396.88 2029.23 2388.65 2030.96 2378 2029.23 2378 2029.23Z" fill="#6E9E63" fill-rule="evenodd"/><path d="M2380 2020C2378.58 2018.68 2377.52 2007.91 2368.84 2005.21 2360.16 2002.52 2354 2002 2354 2002 2354 2002 2361.52 2015.99 2367 2018.09 2372.48 2020.18 2380 2020 2380 2020Z" fill="#6E9E63" fill-rule="evenodd"/><path d="M2416.25 2061 2417.42 2060.71C2416.95 2058.7 2415.78 2018.18 2429 1994.55L2427.93 1994C2414.54 2017.94 2415.8 2059.33 2416.25 2061Z" fill="#6E9E63" fill-rule="evenodd"/><path d="M2430.51 1972C2430.51 1972 2434.75 1980.44 2432.17 1984.21 2429.58 1987.99 2427.45 1977.21 2430.51 1972Z" fill="#FFCF83" fill-rule="evenodd"/><path d="M2433.49 2008C2433.49 2008 2429.25 1999.57 2431.83 1995.79 2434.42 1992.01 2436.55 2002.79 2433.49 2008Z" fill="#FFCF83" fill-rule="evenodd"/><path d="M2423 1975C2423 1975 2430.41 1980.46 2429.98 1984.8 2429.55 1989.14 2422.83 1980.77 2423 1975Z" fill="#FFCF83" fill-rule="evenodd"/><path d="M2442 2005C2442 2005 2433.53 1999.54 2434.02 1995.2 2434.51 1990.86 2442.19 1999.23 2442 2005Z" fill="#FFCF83" fill-rule="evenodd"/><path d="M2417 1981C2417 1981 2426.17 1982.54 2427.82 1986.48 2429.46 1990.41 2419.54 1986.06 2417 1981Z" fill="#FFCF83" fill-rule="evenodd"/><path d="M2447 2000C2447 2000 2437.83 1998.24 2436.18 1993.74 2434.54 1989.24 2444.46 1994.22 2447 2000Z" fill="#FFCF83" fill-rule="evenodd"/><path d="M2415 1995.59C2415 1995.59 2422.61 1989.65 2426.96 1991.28 2431.32 1992.91 2420.9 1997.36 2415 1995.59Z" fill="#FFCF83" fill-rule="evenodd"/><path d="M2450 1988.17C2450 1988.17 2441.73 1992.66 2437.83 1990.33 2433.94 1988.01 2444.65 1985.45 2450 1988.17Z" fill="#FFCF83" fill-rule="evenodd"/><path d="M2419 2002C2419 2002 2423.83 1994.17 2428.57 1994 2433.31 1993.84 2425.25 2001.39 2419 2002Z" fill="#FFCF83" fill-rule="evenodd"/><path d="M2447 1979C2447 1979 2442.17 1987.81 2437.43 1988 2432.69 1988.18 2440.75 1979.68 2447 1979Z" fill="#FFCF83" fill-rule="evenodd"/><path d="M2425 2007C2425 2007 2425.57 1997.44 2429.36 1995.29 2433.15 1993.13 2429.82 2003.79 2425 2007Z" fill="#FFCF83" fill-rule="evenodd"/><path d="M2440 1974C2440 1974 2439.43 1983.56 2435.64 1985.71 2431.85 1987.87 2435.18 1977.21 2440 1974Z" fill="#FFCF83" fill-rule="evenodd"/><path d="M2414 1989.81C2414 1989.81 2423.4 1986.2 2427.24 1989.17 2431.09 1992.15 2419.34 1993.39 2414 1989.81Z" fill="#FFCF83" fill-rule="evenodd"/><path d="M2439 1990.5C2439 1986.91 2436.09 1984 2432.5 1984 2428.91 1984 2426 1986.91 2426 1990.5 2426 1994.09 2428.91 1997 2432.5 1997 2436.09 1997 2439 1994.09 2439 1990.5Z" fill="#365DA4" fill-rule="evenodd"/><path d="M2417 2040.51C2417 2040.51 2422.74 2034.58 2430.65 2034.18 2438.57 2033.78 2441 2034.18 2441 2034.18 2441 2034.18 2436.13 2039.4 2430.32 2040.51 2424.52 2041.61 2417 2040.51 2417 2040.51Z" fill="#6E9E63" fill-rule="evenodd"/><path d="M2418 2035C2417.02 2034.12 2416.28 2026.94 2410.27 2025.14 2404.26 2023.34 2400 2023 2400 2023 2400 2023 2405.21 2032.33 2409 2033.73 2412.79 2035.12 2418 2035 2418 2035Z" fill="#6E9E63" fill-rule="evenodd"/><path d="M2458.17 2061 2458.99 2060.79C2458.66 2059.35 2457.85 2030.32 2467 2013.4L2466.26 2013C2456.99 2030.15 2457.86 2059.81 2458.17 2061Z" fill="#6E9E63" fill-rule="evenodd"/><path d="M2468.75 1997C2468.75 1997 2470.87 2003.49 2469.58 2006.4 2468.29 2009.3 2467.22 2001.01 2468.75 1997Z" fill="#FFCF83" fill-rule="evenodd"/><path d="M2470.25 2023C2470.25 2023 2468.13 2017.16 2469.42 2014.54 2470.71 2011.93 2471.78 2019.39 2470.25 2023Z" fill="#FFCF83" fill-rule="evenodd"/><path d="M2463 1999C2463 1999 2468.3 2002.97 2467.99 2006.13 2467.68 2009.28 2462.88 2003.2 2463 1999Z" fill="#FFCF83" fill-rule="evenodd"/><path d="M2476 2021C2476 2021 2470.7 2017.03 2471.01 2013.88 2471.32 2010.72 2476.12 2016.81 2476 2021Z" fill="#FFCF83" fill-rule="evenodd"/><path d="M2458 2003C2458 2003 2464.67 2004.32 2465.87 2007.69 2467.06 2011.07 2459.85 2007.34 2458 2003Z" fill="#FFCF83" fill-rule="evenodd"/><path d="M2481 2017C2481 2017 2474.33 2015.9 2473.13 2013.09 2471.94 2010.28 2479.15 2013.39 2481 2017Z" fill="#FFCF83" fill-rule="evenodd"/><path d="M2457 2013.76C2457 2013.76 2462.27 2010.19 2465.28 2011.17 2468.3 2012.15 2461.08 2014.81 2457 2013.76Z" fill="#FFCF83" fill-rule="evenodd"/><path d="M2482 2008.88C2482 2008.88 2476.28 2012.24 2473.58 2010.5 2470.88 2008.75 2478.3 2006.84 2482 2008.88Z" fill="#FFCF83" fill-rule="evenodd"/><path d="M2460 2019C2460 2019 2463.51 2013.13 2466.96 2013 2470.41 2012.88 2464.54 2018.55 2460 2019Z" fill="#FFCF83" fill-rule="evenodd"/><path d="M2480 2002C2480 2002 2476.93 2007.87 2473.91 2008 2470.89 2008.12 2476.02 2002.45 2480 2002Z" fill="#FFCF83" fill-rule="evenodd"/><path d="M2464 2022C2464 2022 2464.48 2015.63 2467.63 2014.19 2470.79 2012.75 2468.02 2019.86 2464 2022Z" fill="#FFCF83" fill-rule="evenodd"/><path d="M2475 1999C2475 1999 2474.62 2005.37 2472.09 2006.81 2469.57 2008.25 2471.78 2001.14 2475 1999Z" fill="#FFCF83" fill-rule="evenodd"/><path d="M2457 2009.91C2457 2009.91 2463.04 2008.1 2465.51 2009.59 2467.98 2011.07 2460.43 2011.7 2457 2009.91Z" fill="#FFCF83" fill-rule="evenodd"/><path d="M2474 2010C2474 2012.76 2471.99 2015 2469.5 2015 2467.01 2015 2465 2012.76 2465 2010 2465 2007.24 2467.01 2005 2469.5 2005 2471.99 2005 2474 2007.24 2474 2010Z" fill="#365DA4" fill-rule="evenodd"/><path d="M2460 2034.65C2460 2034.65 2464.06 2030.41 2469.67 2030.13 2475.28 2029.84 2477 2030.13 2477 2030.13 2477 2030.13 2473.55 2033.86 2469.44 2034.65 2465.33 2035.44 2460 2034.65 2460 2034.65Z" fill="#6E9E63" fill-rule="evenodd"/><path d="M2461 2030C2460.24 2029.41 2459.66 2024.63 2454.99 2023.43 2450.32 2022.23 2447 2022 2447 2022 2447 2022 2451.05 2028.22 2454 2029.15 2456.95 2030.08 2461 2030 2461 2030Z" fill="#6E9E63" fill-rule="evenodd"/><path d="M2436.19 2061 2437.1 2060.75C2436.73 2059.04 2435.83 2024.57 2446 2004.47L2445.18 2004C2434.88 2024.37 2435.85 2059.58 2436.19 2061Z" fill="#6E9E63" fill-rule="evenodd"/><path d="M2448.13 1986C2448.13 1986 2451.31 1993.14 2449.37 1996.33 2447.44 1999.53 2445.84 1990.41 2448.13 1986Z" fill="#FFCF83" fill-rule="evenodd"/><path d="M2450.49 2016C2450.49 2016 2446.25 2008.86 2448.83 2005.67 2451.42 2002.47 2453.55 2011.59 2450.49 2016Z" fill="#FFCF83" fill-rule="evenodd"/><path d="M2441 1988C2441 1988 2447.35 1992.96 2446.99 1996.91 2446.62 2000.85 2440.86 1993.24 2441 1988Z" fill="#FFCF83" fill-rule="evenodd"/><path d="M2457 2014C2457 2014 2450.65 2009.04 2451.02 2005.09 2451.39 2001.15 2457.15 2008.76 2457 2014Z" fill="#FFCF83" fill-rule="evenodd"/><path d="M2436 1993C2436 1993 2444.34 1994.32 2445.83 1997.69 2447.33 2001.07 2438.31 1997.34 2436 1993Z" fill="#FFCF83" fill-rule="evenodd"/><path d="M2462 2009C2462 2009 2454.49 2007.68 2453.15 2004.31 2451.81 2000.93 2459.92 2004.66 2462 2009Z" fill="#FFCF83" fill-rule="evenodd"/><path d="M2435 2005.67C2435 2005.67 2440.85 2000.92 2444.2 2002.23 2447.55 2003.53 2439.54 2007.09 2435 2005.67Z" fill="#FFCF83" fill-rule="evenodd"/><path d="M2465 1999.88C2465 1999.88 2457.37 2003.24 2453.77 2001.5 2450.17 1999.76 2460.06 1997.84 2465 1999.88Z" fill="#FFCF83" fill-rule="evenodd"/><path d="M2438 2011C2438 2011 2441.95 2004.15 2445.83 2004 2449.71 2003.86 2443.11 2010.47 2438 2011Z" fill="#FFCF83" fill-rule="evenodd"/><path d="M2462 1992C2462 1992 2458.05 1998.85 2454.17 1999 2450.29 1999.14 2456.89 1992.53 2462 1992Z" fill="#FFCF83" fill-rule="evenodd"/><path d="M2443 2015C2443 2015 2443.57 2007.04 2447.36 2005.24 2451.15 2003.44 2447.82 2012.32 2443 2015Z" fill="#FFCF83" fill-rule="evenodd"/><path d="M2456 1988C2456 1988 2455.52 1995.96 2452.37 1997.76 2449.21 1999.56 2451.98 1990.68 2456 1988Z" fill="#FFCF83" fill-rule="evenodd"/><path d="M2434 2000.36C2434 2000.36 2441.38 1997.65 2444.4 1999.88 2447.42 2002.11 2438.2 2003.05 2434 2000.36Z" fill="#FFCF83" fill-rule="evenodd"/><path d="M2455 2001.5C2455 1998.46 2452.54 1996 2449.5 1996 2446.46 1996 2444 1998.46 2444 2001.5 2444 2004.54 2446.46 2007 2449.5 2007 2452.54 2007 2455 2004.54 2455 2001.5Z" fill="#365DA4" fill-rule="evenodd"/><path d="M2436 2043.58C2436 2043.58 2440.78 2038.5 2447.38 2038.15 2453.97 2037.81 2456 2038.15 2456 2038.15 2456 2038.15 2451.94 2042.63 2447.1 2043.58 2442.27 2044.53 2436 2043.58 2436 2043.58Z" fill="#6E9E63" fill-rule="evenodd"/><path d="M2437 2039C2436.18 2038.26 2435.57 2032.28 2430.56 2030.79 2425.55 2029.29 2422 2029 2422 2029 2422 2029 2426.34 2036.77 2429.5 2037.94 2432.66 2039.1 2437 2039 2437 2039Z" fill="#6E9E63" fill-rule="evenodd"/><path d="M2463.12 2061 2463.66 2060.85C2463.44 2059.83 2462.9 2039.27 2469 2027.28L2468.51 2027C2462.33 2039.15 2462.91 2060.16 2463.12 2061Z" fill="#6E9E63" fill-rule="evenodd"/><path d="M2469.75 2016C2469.75 2016 2471.88 2020.54 2470.58 2022.58 2469.29 2024.61 2468.23 2018.8 2469.75 2016Z" fill="#FFCF83" fill-rule="evenodd"/><path d="M2471.25 2034C2471.25 2034 2469.12 2030.11 2470.42 2028.36 2471.71 2026.62 2472.78 2031.6 2471.25 2034Z" fill="#FFCF83" fill-rule="evenodd"/><path d="M2466 2017C2466 2017 2470.24 2019.98 2469.99 2022.34 2469.74 2024.71 2465.9 2020.15 2466 2017Z" fill="#FFCF83" fill-rule="evenodd"/><path d="M2475 2033C2475 2033 2471.82 2030.02 2472.01 2027.66 2472.19 2025.29 2475.07 2029.85 2475 2033Z" fill="#FFCF83" fill-rule="evenodd"/><path d="M2463 2020C2463 2020 2468.01 2020.88 2468.9 2023.13 2469.8 2025.38 2464.39 2022.89 2463 2020Z" fill="#FFCF83" fill-rule="evenodd"/><path d="M2479 2030C2479 2030 2474 2029.12 2473.1 2026.87 2472.2 2024.62 2477.61 2027.11 2479 2030Z" fill="#FFCF83" fill-rule="evenodd"/><path d="M2462 2027.84C2462 2027.84 2465.51 2025.46 2467.52 2026.11 2469.53 2026.77 2464.72 2028.54 2462 2027.84Z" fill="#FFCF83" fill-rule="evenodd"/><path d="M2480 2024.59C2480 2024.59 2475.55 2026.83 2473.45 2025.67 2471.35 2024.5 2477.12 2023.23 2480 2024.59Z" fill="#FFCF83" fill-rule="evenodd"/><path d="M2464 2031C2464 2031 2466.19 2027.09 2468.35 2027 2470.51 2026.92 2466.84 2030.7 2464 2031Z" fill="#FFCF83" fill-rule="evenodd"/><path d="M2478 2020C2478 2020 2475.81 2023.92 2473.65 2024 2471.49 2024.08 2475.16 2020.3 2478 2020Z" fill="#FFCF83" fill-rule="evenodd"/><path d="M2467 2034C2467 2034 2467.29 2029.22 2469.18 2028.14 2471.07 2027.06 2469.41 2032.39 2467 2034Z" fill="#FFCF83" fill-rule="evenodd"/><path d="M2475 2017C2475 2017 2474.71 2021.78 2472.82 2022.86 2470.93 2023.94 2472.59 2018.61 2475 2017Z" fill="#FFCF83" fill-rule="evenodd"/><path d="M2462 2024.91C2462 2024.91 2466.03 2023.1 2467.68 2024.59 2469.32 2026.07 2464.29 2026.7 2462 2024.91Z" fill="#FFCF83" fill-rule="evenodd"/><path d="M2474 2025.5C2474 2023.57 2472.43 2022 2470.5 2022 2468.57 2022 2467 2023.57 2467 2025.5 2467 2027.43 2468.57 2029 2470.5 2029 2472.43 2029 2474 2027.43 2474 2025.5Z" fill="#365DA4" fill-rule="evenodd"/><path d="M2463 2050.72C2463 2050.72 2465.87 2047.33 2469.83 2047.1 2473.78 2046.87 2475 2047.1 2475 2047.1 2475 2047.1 2472.56 2050.09 2469.66 2050.72 2466.76 2051.35 2463 2050.72 2463 2050.72Z" fill="#6E9E63" fill-rule="evenodd"/><path d="M2463 2048C2462.51 2047.56 2462.14 2043.97 2459.14 2043.07 2456.13 2042.17 2454 2042 2454 2042 2454 2042 2456.6 2046.66 2458.5 2047.36 2460.4 2048.06 2463 2048 2463 2048Z" fill="#6E9E63" fill-rule="evenodd"/><path d="M2495.19 2061 2496.1 2060.75C2495.73 2059.04 2494.83 2024.57 2505 2004.47L2504.18 2004C2493.88 2024.37 2494.85 2059.58 2495.19 2061Z" fill="#6E9E63" fill-rule="evenodd"/><path d="M2507.13 1986C2507.13 1986 2510.31 1993.14 2508.37 1996.33 2506.44 1999.53 2504.84 1990.41 2507.13 1986Z" fill="#FFCF83" fill-rule="evenodd"/><path d="M2509.49 2016C2509.49 2016 2505.25 2008.86 2507.83 2005.67 2510.42 2002.47 2512.55 2011.59 2509.49 2016Z" fill="#FFCF83" fill-rule="evenodd"/><path d="M2500 1988C2500 1988 2506.35 1992.96 2505.98 1996.91 2505.61 2000.85 2499.86 1993.24 2500 1988Z" fill="#FFCF83" fill-rule="evenodd"/><path d="M2516 2014C2516 2014 2509.65 2009.04 2510.02 2005.09 2510.39 2001.15 2516.14 2008.76 2516 2014Z" fill="#FFCF83" fill-rule="evenodd"/><path d="M2495 1993C2495 1993 2503.34 1994.32 2504.83 1997.69 2506.33 2001.07 2497.31 1997.34 2495 1993Z" fill="#FFCF83" fill-rule="evenodd"/><path d="M2521 2009C2521 2009 2513.49 2007.68 2512.15 2004.31 2510.81 2000.93 2518.92 2004.66 2521 2009Z" fill="#FFCF83" fill-rule="evenodd"/><path d="M2494 2005.67C2494 2005.67 2500.44 2000.92 2504.12 2002.23 2507.81 2003.53 2498.99 2007.09 2494 2005.67Z" fill="#FFCF83" fill-rule="evenodd"/><path d="M2524 1999.88C2524 1999.88 2517 2003.24 2513.71 2001.5 2510.41 1999.76 2519.48 1997.84 2524 1999.88Z" fill="#FFCF83" fill-rule="evenodd"/><path d="M2497 2011C2497 2011 2500.95 2004.15 2504.83 2004 2508.71 2003.86 2502.11 2010.47 2497 2011Z" fill="#FFCF83" fill-rule="evenodd"/><path d="M2521 1992C2521 1992 2517.05 1998.85 2513.17 1999 2509.29 1999.14 2515.89 1992.53 2521 1992Z" fill="#FFCF83" fill-rule="evenodd"/><path d="M2502 2015C2502 2015 2502.57 2007.04 2506.36 2005.24 2510.15 2003.44 2506.82 2012.32 2502 2015Z" fill="#FFCF83" fill-rule="evenodd"/><path d="M2515 1988C2515 1988 2514.52 1995.96 2511.37 1997.76 2508.21 1999.56 2510.98 1990.68 2515 1988Z" fill="#FFCF83" fill-rule="evenodd"/><path d="M2493 2000.36C2493 2000.36 2500.38 1997.65 2503.4 1999.88 2506.42 2002.11 2497.19 2003.05 2493 2000.36Z" fill="#FFCF83" fill-rule="evenodd"/><path d="M2514 2001.5C2514 1998.46 2511.54 1996 2508.5 1996 2505.46 1996 2503 1998.46 2503 2001.5 2503 2004.54 2505.46 2007 2508.5 2007 2511.54 2007 2514 2004.54 2514 2001.5Z" fill="#365DA4" fill-rule="evenodd"/><path d="M2497 2029.58C2497 2029.58 2501.78 2024.5 2508.38 2024.15 2514.97 2023.81 2517 2024.15 2517 2024.15 2517 2024.15 2512.94 2028.63 2508.1 2029.58 2503.27 2030.53 2497 2029.58 2497 2029.58Z" fill="#6E9E63" fill-rule="evenodd"/><path d="M2498 2025C2497.13 2024.26 2496.47 2018.28 2491.13 2016.78 2485.79 2015.29 2482 2015 2482 2015 2482 2015 2486.63 2022.77 2490 2023.94 2493.37 2025.1 2498 2025 2498 2025Z" fill="#6E9E63" fill-rule="evenodd"/><path d="M2477.21 2061 2478.21 2060.73C2477.81 2058.87 2476.82 2021.37 2488 1999.51L2487.1 1999C2475.77 2021.15 2476.83 2059.46 2477.21 2061Z" fill="#6E9E63" fill-rule="evenodd"/><path d="M2489.13 1980C2489.13 1980 2492.31 1987.79 2490.37 1991.27 2488.44 1994.76 2486.84 1984.81 2489.13 1980Z" fill="#FFCF83" fill-rule="evenodd"/><path d="M2491.87 2012C2491.87 2012 2488.69 2004.21 2490.63 2000.73 2492.57 1997.24 2494.16 2007.19 2491.87 2012Z" fill="#FFCF83" fill-rule="evenodd"/><path d="M2483 1982C2483 1982 2489.35 1986.96 2488.99 1990.91 2488.62 1994.85 2482.85 1987.24 2483 1982Z" fill="#FFCF83" fill-rule="evenodd"/><path d="M2498 2010C2498 2010 2491.65 2005.04 2492.02 2001.09 2492.38 1997.15 2498.14 2004.76 2498 2010Z" fill="#FFCF83" fill-rule="evenodd"/><path d="M2478 1988C2478 1988 2485.51 1989.32 2486.85 1992.69 2488.19 1996.07 2480.08 1992.34 2478 1988Z" fill="#FFCF83" fill-rule="evenodd"/><path d="M2503 2005C2503 2005 2495.49 2003.46 2494.15 1999.52 2492.8 1995.59 2500.92 1999.94 2503 2005Z" fill="#FFCF83" fill-rule="evenodd"/><path d="M2476 2001.59C2476 2001.59 2482.44 1995.65 2486.12 1997.28 2489.81 1998.91 2480.99 2003.36 2476 2001.59Z" fill="#FFCF83" fill-rule="evenodd"/><path d="M2506 1994.88C2506 1994.88 2499 1998.24 2495.71 1996.5 2492.41 1994.76 2501.48 1992.84 2506 1994.88Z" fill="#FFCF83" fill-rule="evenodd"/><path d="M2479 2007C2479 2007 2482.95 1999.17 2486.83 1999 2490.71 1998.84 2484.11 2006.4 2479 2007Z" fill="#FFCF83" fill-rule="evenodd"/><path d="M2503 1986C2503 1986 2499.05 1993.83 2495.17 1994 2491.29 1994.16 2497.89 1986.61 2503 1986Z" fill="#FFCF83" fill-rule="evenodd"/><path d="M2485 2012C2485 2012 2485.48 2003.24 2488.63 2001.26 2491.79 1999.28 2489.02 2009.06 2485 2012Z" fill="#FFCF83" fill-rule="evenodd"/><path d="M2497 1982C2497 1982 2496.52 1990.76 2493.37 1992.74 2490.21 1994.72 2492.98 1984.95 2497 1982Z" fill="#FFCF83" fill-rule="evenodd"/><path d="M2475 1995.81C2475 1995.81 2483.05 1992.2 2486.35 1995.17 2489.64 1998.15 2479.58 1999.39 2475 1995.81Z" fill="#FFCF83" fill-rule="evenodd"/><path d="M2496 1996C2496 1992.69 2493.54 1990 2490.5 1990 2487.46 1990 2485 1992.69 2485 1996 2485 1999.31 2487.46 2002 2490.5 2002 2493.54 2002 2496 1999.31 2496 1996Z" fill="#365DA4" fill-rule="evenodd"/><path d="M2477 2041.58C2477 2041.58 2482.02 2036.5 2488.95 2036.15 2495.87 2035.81 2498 2036.15 2498 2036.15 2498 2036.15 2493.74 2040.63 2488.66 2041.58 2483.58 2042.53 2477 2041.58 2477 2041.58Z" fill="#6E9E63" fill-rule="evenodd"/><path d="M2478 2037C2477.18 2036.19 2476.57 2029.61 2471.56 2027.96 2466.55 2026.32 2463 2026 2463 2026 2463 2026 2467.34 2034.55 2470.5 2035.83 2473.66 2037.11 2478 2037 2478 2037Z" fill="#6E9E63" fill-rule="evenodd"/><path d="M2500.16 2061 2500.88 2060.83C2500.59 2059.63 2499.87 2035.43 2508 2021.33L2507.34 2021C2499.1 2035.29 2499.88 2060.01 2500.16 2061Z" fill="#6E9E63" fill-rule="evenodd"/><path d="M2508.75 2008C2508.75 2008 2510.88 2013.19 2509.58 2015.52 2508.29 2017.84 2507.22 2011.2 2508.75 2008Z" fill="#FFCF83" fill-rule="evenodd"/><path d="M2510.25 2029C2510.25 2029 2508.13 2024.46 2509.42 2022.42 2510.71 2020.39 2511.78 2026.2 2510.25 2029Z" fill="#FFCF83" fill-rule="evenodd"/><path d="M2504 2010C2504 2010 2508.24 2012.98 2507.99 2015.34 2507.74 2017.71 2503.9 2013.15 2504 2010Z" fill="#FFCF83" fill-rule="evenodd"/><path d="M2515 2028C2515 2028 2510.76 2024.53 2511.01 2021.77 2511.26 2019 2515.1 2024.33 2515 2028Z" fill="#FFCF83" fill-rule="evenodd"/><path d="M2501 2013C2501 2013 2506 2014.1 2506.9 2016.91 2507.8 2019.72 2502.39 2016.61 2501 2013Z" fill="#FFCF83" fill-rule="evenodd"/><path d="M2519 2024C2519 2024 2513.16 2023.12 2512.12 2020.87 2511.07 2018.62 2517.38 2021.11 2519 2024Z" fill="#FFCF83" fill-rule="evenodd"/><path d="M2500 2021.76C2500 2021.76 2504.1 2018.19 2506.44 2019.17 2508.79 2020.15 2503.17 2022.81 2500 2021.76Z" fill="#FFCF83" fill-rule="evenodd"/><path d="M2521 2017.59C2521 2017.59 2515.91 2019.83 2513.51 2018.67 2511.12 2017.5 2517.71 2016.23 2521 2017.59Z" fill="#FFCF83" fill-rule="evenodd"/><path d="M2502 2026C2502 2026 2504.64 2021.11 2507.22 2021 2509.81 2020.9 2505.41 2025.62 2502 2026Z" fill="#FFCF83" fill-rule="evenodd"/><path d="M2519 2012C2519 2012 2515.93 2016.89 2512.91 2017 2509.89 2017.1 2515.03 2012.38 2519 2012Z" fill="#FFCF83" fill-rule="evenodd"/><path d="M2506 2029C2506 2029 2506.29 2023.43 2508.18 2022.17 2510.07 2020.91 2508.41 2027.13 2506 2029Z" fill="#FFCF83" fill-rule="evenodd"/><path d="M2515 2009C2515 2009 2514.62 2014.58 2512.09 2015.83 2509.57 2017.09 2511.78 2010.87 2515 2009Z" fill="#FFCF83" fill-rule="evenodd"/><path d="M2499 2018.36C2499 2018.36 2504.37 2015.65 2506.57 2017.88 2508.76 2020.11 2502.05 2021.04 2499 2018.36Z" fill="#FFCF83" fill-rule="evenodd"/><path d="M2514 2019C2514 2016.79 2512.21 2015 2510 2015 2507.79 2015 2506 2016.79 2506 2019 2506 2021.21 2507.79 2023 2510 2023 2512.21 2023 2514 2021.21 2514 2019Z" fill="#365DA4" fill-rule="evenodd"/><path d="M2501 2048.72C2501 2048.72 2504.35 2045.33 2508.96 2045.1 2513.58 2044.87 2515 2045.1 2515 2045.1 2515 2045.1 2512.16 2048.09 2508.77 2048.72 2505.39 2049.35 2501 2048.72 2501 2048.72Z" fill="#6E9E63" fill-rule="evenodd"/><path d="M2501 2045C2500.4 2044.49 2499.95 2040.3 2496.28 2039.25 2492.6 2038.2 2490 2038 2490 2038 2490 2038 2493.18 2043.44 2495.5 2044.26 2497.82 2045.07 2501 2045 2501 2045Z" fill="#6E9E63" fill-rule="evenodd"/><path d="M1370 1691 1370 2066 1287.35 2066C1287.31 2065.89 1287.27 2065.76 1287.22 2065.62 1287.18 2065.54 1287.15 2065.46 1287.12 2065.38 1286.85 2064.66 1286.49 2063.69 1286.02 2062.46L1285.84 2062.09C1285.84 2062.09 1285.84 2062.09 1285.84 2061.91 1285.84 2061.91 1285.66 2061.72 1285.66 2061.53 1284.92 2060.06 1284.36 2058.39 1283.62 2056.36 1283.25 2055.43 1282.89 2054.32 1282.33 2053.21 1282.33 2053.03 1282.33 2053.03 1282.33 2052.84 1282.15 2052.65 1282.15 2052.65 1282.15 2052.65 1279.61 2046.05 1276.46 2037.46 1272.83 2027.07 1272.51 2026.13 1272.17 2025.18 1271.83 2024.22 1269.11 2016.37 1266.11 2007.58 1262.93 1997.9 1261.46 1993.36 1259.95 1988.61 1258.4 1983.68 1251.99 1963.17 1245.01 1939.48 1238.16 1913.38 1234.83 1900.61 1231.5 1887.3 1228.36 1873.42 1226.51 1865.41 1224.64 1857.07 1222.86 1848.64 1222.35 1846.17 1221.84 1843.7 1221.34 1841.23 1218.07 1825.46 1214.99 1809.21 1212.22 1792.61 1208.57 1770.8 1205.43 1748.38 1203.05 1725.62 1201.86 1714.46 1200.86 1703.2 1200.06 1691.89 1200.04 1691.6 1200.01 1691.29 1200 1691L1370 1691Z" fill="#F7C6AB" fill-rule="evenodd"/><path d="M1302 1535 1389.67 1715 1656 1715 1517.15 1535.66Z" fill="#E38217" fill-rule="evenodd"/><path d="M1646 1715.14 1638.08 1704.91 1507.15 1535.66 1292 1535 1370.52 1696.35 1370.52 2065 1638.08 2065 1638.08 1715.14Z" fill="#F3AF8D" fill-rule="evenodd"/><path d="M1504.16 1625 1509.73 1625C1528.66 1625 1544 1640.43 1544 1659.45L1544 1747 1471 1747 1471 1658.33C1471 1639.92 1485.84 1625 1504.16 1625Z" fill="#EE9564" fill-rule="evenodd"/><path d="M1518 1535 1517.4 1535.8 1512.22 1542.69 1387.03 1709.21 1375.16 1725 1203.1 1725C1201.92 1713.86 1200.92 1702.62 1200.12 1691.34 1200.1 1691.05 1200.07 1690.74 1200.06 1690.45 1200.02 1690.15 1200 1689.85 1199.98 1689.54 1198.89 1673.64 1198.2 1657.63 1198 1641.63L1280.48 1535.04 1315.45 1535.04 1437.58 1535.02 1518 1535Z" fill="#E38217" fill-rule="evenodd"/><path d="M1536 1766 1598.41 1894 1788 1894 1689.15 1766.47Z" fill="#E38217" fill-rule="evenodd"/><path d="M1782 1894.44 1683.16 1766.47 1530 1766 1592.41 1894.44 1592.82 1894.44 1592.82 2065.63 1782 2066 1782 1894.44Z" fill="#F3AF8D" fill-rule="evenodd"/><path d="M1433 1894 1593 1894 1593 2065 1433 2065Z" fill="#F7C6AB" fill-rule="evenodd"/><path d="M1415 1902 1587.21 1902 1689 1766 1637.7 1766.01 1519.75 1766.03Z" fill="#E38217" fill-rule="evenodd"/><path d="M1649 1922.35 1649 2066 1729 2066 1729 1923.67C1729 1911.81 1723.93 1901.14 1715.83 1893.71 1708.6 1887.05 1698.95 1883 1688.34 1883 1677.9 1883 1668.4 1887.07 1661.37 1893.71 1653.75 1900.88 1649 1911.06 1649 1922.35Z" fill="#EE9564" fill-rule="evenodd"/><path d="M1698 1837C1698 1832.03 1693.97 1828 1689 1828 1684.03 1828 1680 1832.03 1680 1837 1680 1841.97 1684.03 1846 1689 1846 1693.97 1846 1698 1841.97 1698 1837Z" fill="#EE9564" fill-rule="evenodd"/><path d="M1415 1902 1447.73 1902 1638 1766 1519.89 1766.03Z" fill="#B86018" fill-rule="evenodd"/><path d="M1385.12 1661 1228 1661 1310.88 1560 1468 1560Z" fill="#2B478B" fill-rule="evenodd"/><path d="M1447.03 1586 1290 1586 1290.97 1585 1448 1585Z" fill="#AEC3FF" fill-rule="evenodd"/><path d="M1348 1560 1265.19 1661 1264 1661 1346.81 1560Z" fill="#AEC3FF" fill-rule="evenodd"/><path d="M1390 1560 1306.21 1661 1305 1661 1388.79 1560Z" fill="#AEC3FF" fill-rule="evenodd"/><path d="M1430 1560 1347.19 1661 1346 1661 1428.81 1560Z" fill="#AEC3FF" fill-rule="evenodd"/><path d="M1426.03 1611 1269 1611 1269.97 1610 1427 1610Z" fill="#AEC3FF" fill-rule="evenodd"/><path d="M1405.02 1638 1247 1638 1247.98 1637 1406 1637Z" fill="#AEC3FF" fill-rule="evenodd"/><path d="M1321.92 1591 1321 1586 1330.08 1581 1331 1586Z" fill="#AEC3FF" fill-rule="evenodd"/><path d="M1362.92 1591 1362 1586 1371.08 1581 1372 1586Z" fill="#AEC3FF" fill-rule="evenodd"/><path d="M1403.92 1591 1403 1586 1412.08 1581 1413 1586Z" fill="#AEC3FF" fill-rule="evenodd"/><path d="M1301.92 1615 1301 1610.5 1310.08 1606 1311 1610.5Z" fill="#AEC3FF" fill-rule="evenodd"/><path d="M1342.92 1615 1342 1610.5 1351.08 1606 1352 1610.5Z" fill="#AEC3FF" fill-rule="evenodd"/><path d="M1383.92 1615 1383 1610.5 1392.08 1606 1393 1610.5Z" fill="#AEC3FF" fill-rule="evenodd"/><path d="M1279.92 1642 1279 1637 1288.08 1632 1289 1637Z" fill="#AEC3FF" fill-rule="evenodd"/><path d="M1320.92 1642 1320 1637 1329.08 1632 1330 1637Z" fill="#AEC3FF" fill-rule="evenodd"/><path d="M1361.92 1642 1361 1637 1370.08 1632 1371 1637Z" fill="#AEC3FF" fill-rule="evenodd"/><path d="M3130 1213.36C3129.94 1217.28 3129.82 1221.23 3129.62 1225.22 3128.8 1242.22 3126.77 1259.82 3123.43 1278L2877 1274.76C2877 1274.76 2899.3 1221.97 2952.65 1227.83 2952.65 1227.83 3030.09 1139.84 3112.66 1216.1 3112.66 1216.1 3119.19 1214.69 3130 1213.36Z" fill="#FFFFFF" fill-rule="evenodd"/><path d="M2330 1046.93C2330 1046.93 2341.5 1019.33 2369 1022.4 2369 1022.4 2408.93 976.385 2451.5 1016.26 2451.5 1016.26 2496.76 1006.38 2530.27 1024.82 2552.62 1037.11 2560 1050 2560 1050L2330 1046.93Z" fill="#FFFFFF" fill-rule="evenodd"/><path d="M1403 1449.69C1403 1449.69 1415.3 1419.87 1444.71 1423.19 1444.71 1423.19 1487.41 1373.5 1532.95 1416.56 1532.95 1416.56 1581.36 1405.89 1617.2 1425.8 1641.11 1439.08 1649 1453 1649 1453L1403 1449.69Z" fill="#FFFFFF" fill-rule="evenodd"/><path d="M1339 1358.48C1339 1358.48 1348.4 1335.85 1370.88 1338.36 1370.88 1338.36 1403.51 1300.64 1438.31 1333.33 1438.31 1333.33 1475.31 1325.23 1502.7 1340.35 1520.97 1350.43 1527 1361 1527 1361L1339 1358.48Z" fill="#FFFFFF" fill-rule="evenodd"/><path d="M3323 1931C3321.86 1942.76 3319.88 1955.02 3316.98 1967.83 3316.92 1968.1 3316.86 1968.36 3316.79 1968.64 3251.82 1992.26 3184.85 2023.61 3125.22 2065L2964 2065C2987.37 2049.91 3101.25 1986.62 3323 1931Z" fill="#6E9E63" fill-rule="evenodd"/><path d="M2964.21 1896.81C2964.21 1896.81 3087.92 1885.98 3121.55 1896.81 3155.18 1907.65 3172 1958.03 3167.19 1994.81 3162.39 2031.6 3151.18 2062.78 3129.56 2061.99 3107.94 2061.19 2955 2061.99 2955 2061.99L2964.21 1896.81Z" fill="#EDBD77" fill-rule="evenodd"/><path d="M2990 1894.91C2990 1894.91 3016.19 1890.03 3034.01 1888.22 3034.01 1888.22 3019.99 1891.1 3018.26 1892.57 3018.26 1892.57 3056.3 1886.82 3070.18 1888.22 3084.06 1889.63 3103.08 1891.98 3103.08 1891.98L3124.24 1890.56C3124.24 1890.56 3106.62 1892.7 3107.56 1892.97 3108.49 1893.24 3124.77 1895.24 3129.98 1898.59 3129.98 1898.59 3146.13 1903.67 3149.6 1906.75 3149.6 1906.75 3136.65 1900.19 3131.58 1900.59 3131.58 1900.59 3160.92 1920.99 3161 1940.42 3161.08 1959.85 3034.81 1911.16 3034.81 1911.16L2990 1894.91Z" fill="#EDBD77" fill-rule="evenodd"/><path d="M2982.14 1896.09C2982.14 1896.09 2933.06 1892.35 2901.94 1932.04 2870.81 1971.73 2895.95 2063.64 2936.65 2063.99 2977.35 2064.34 3027.48 2058.05 3038.32 2004.67 3049.17 1951.28 3026.42 1897.44 2982.14 1896.09Z" fill="#FFCF83" fill-rule="evenodd"/><path d="M2881 1975C2881 1975 2898.49 1954.63 2900.35 1949L2903 1954.63 2881 1975Z" fill="#FFCF83" fill-rule="evenodd"/><path d="M2894 1944.79C2894 1944.79 2896.33 1930.31 2903 1925 2903 1925 2896.93 1934.71 2898.5 1942.8 2900.07 1950.9 2894 1944.79 2894 1944.79Z" fill="#FFCF83" fill-rule="evenodd"/><path d="M2902.99 2047.98C2903.32 2048.77 2893.41 2021.23 2896.65 2016L2898.54 2016.02C2898.54 2016.02 2899.82 2040.34 2902.99 2047.98Z" fill="#FFCF83" fill-rule="evenodd"/><path d="M2894.54 2012.17C2894.54 2012.17 2887.16 2009.54 2883 2012.17 2883 2012.17 2889.84 2010.09 2894 2014.5 2898.16 2018.92 2894.54 2012.17 2894.54 2012.17Z" fill="#FFCF83" fill-rule="evenodd"/><path d="M2962.49 2062C2951.1 2062 2937.39 2060.08 2925.69 2052.98 2913.04 2045.29 2904.77 2032.91 2901.13 2016.16 2894.92 1987.66 2897.97 1964.27 2910.19 1946.65 2921.62 1930.18 2940.91 1919.45 2965.99 1915.63 2982.91 1913.04 2997.57 1918.47 3008.37 1931.32 3023.97 1949.89 3028.45 1981.25 3019.27 2007.59 3012.78 2026.2 2995.45 2037.69 2972.91 2038.34 2972.27 2038.36 2971.63 2038.37 2970.99 2038.37 2948.28 2038.37 2927.81 2026.85 2920.79 2009.93 2913.62 1992.67 2913.99 1975.8 2921.83 1962.4 2929.79 1948.8 2944.82 1939.96 2964.16 1937.5 2981.66 1935.26 2991.1 1943.35 2995.94 1950.52 3005.27 1964.36 3005.24 1986.84 2998.99 1997.7 2992.96 2008.16 2976.29 2016.23 2961.8 2015.73 2951.35 2015.36 2943.37 2010.56 2939.34 2002.21 2934.15 1991.48 2934.49 1980.4 2940.27 1971.81 2944.93 1964.89 2952.45 1960.67 2959.43 1961.05 2967.45 1961.48 2970.86 1968.12 2971.35 1973.68 2971.79 1978.57 2970.1 1984.02 2966.05 1984.96 2958.52 1986.7 2955.84 1982.62 2955.73 1982.45 2955.73 1982.45 2951.66 1975.78 2956.73 1974.82 2962.53 1973.73 2961 1978.19 2961 1978.19 2961.08 1978.32 2959.57 1984.35 2965.58 1982.96 2968.06 1982.38 2969.69 1978.39 2969.29 1973.86 2968.85 1968.89 2966 1963.46 2959.32 1963.1 2953.04 1962.75 2946.25 1966.63 2941.99 1972.95 2936.63 1980.93 2936.34 1991.27 2941.2 2001.33 2945.93 2011.09 2955.05 2013.43 2961.88 2013.68 2975.66 2014.14 2991.51 2006.54 2997.19 1996.68 3002.46 1987.54 3003.87 1965.99 2994.21 1951.66 2987.75 1942.07 2977.44 1937.87 2964.42 1939.54 2945.74 1941.92 2931.25 1950.4 2923.62 1963.44 2916.11 1976.26 2915.79 1992.5 2922.7 2009.14 2929.6 2025.77 2950.24 2036.94 2972.85 2036.29 2994.5 2035.66 3011.12 2024.69 3017.31 2006.92 3026.27 1981.22 3021.94 1950.68 3006.78 1932.64 2999.59 1924.09 2986.74 1914.55 2966.3 1917.66 2941.8 1921.39 2922.99 1931.82 2911.9 1947.82 2900.01 1964.95 2897.07 1987.8 2903.15 2015.73 2906.67 2031.91 2914.62 2043.85 2926.77 2051.22 2951.31 2066.13 2990.03 2057.11 2990.37 2057.02L2985.99 2059.37C2985.8 2059.41 2975.71 2062 2962.49 2062Z" fill="#EDBD77" fill-rule="evenodd"/><path d="M3156.36 1839.48C3156.36 1839.48 3322.48 1824.89 3367.63 1839.48 3412.79 1854.08 3435.37 1921.94 3428.92 1971.49 3422.47 2021.05 3407.41 2063.06 3378.38 2061.98 3349.36 2060.9 3144 2061.98 3144 2061.98L3156.36 1839.48Z" fill="#EDBD77" fill-rule="evenodd"/><path d="M3190 1837.22C3190 1837.22 3225.22 1830.7 3249.19 1828.29 3249.19 1828.29 3230.34 1832.13 3228.01 1834.09 3228.01 1834.09 3279.17 1826.42 3297.84 1828.29 3316.52 1830.17 3342.1 1833.31 3342.1 1833.31L3370.56 1831.42C3370.56 1831.42 3346.86 1834.27 3348.11 1834.63 3349.37 1834.98 3371.27 1837.66 3378.28 1842.12 3378.28 1842.12 3400 1848.89 3404.67 1853 3404.67 1853 3387.25 1844.26 3380.43 1844.79 3380.43 1844.79 3419.89 1871.99 3420 1897.89 3420.11 1923.8 3250.27 1858.88 3250.27 1858.88L3190 1837.22Z" fill="#EDBD77" fill-rule="evenodd"/><path d="M3179.74 1838.13C3179.74 1838.13 3113.67 1833.08 3071.76 1886.48 3029.86 1939.87 3063.71 2063.51 3118.5 2063.98 3173.3 2064.45 3240.79 2056 3255.39 1984.18 3269.99 1912.36 3239.37 1839.93 3179.74 1838.13Z" fill="#FFCF83" fill-rule="evenodd"/><path d="M3044 1945C3044 1945 3067.86 1917.58 3070.39 1910L3074 1917.58 3044 1945Z" fill="#FFCF83" fill-rule="evenodd"/><path d="M3061 1903.99C3061 1903.99 3064.1 1884.25 3073 1877 3073 1877 3064.91 1890.24 3067 1901.28 3069.09 1912.32 3061 1903.99 3061 1903.99Z" fill="#FFCF83" fill-rule="evenodd"/><path d="M3072.99 2042.98C3073.45 2044.03 3059.31 2007.03 3063.93 2000L3066.62 2000.02C3066.62 2000.02 3068.46 2032.71 3072.99 2042.98Z" fill="#FFCF83" fill-rule="evenodd"/><path d="M3062.09 1994.4C3062.09 1994.4 3052.44 1991.25 3047 1994.4 3047 1994.4 3055.94 1991.9 3061.38 1997.2 3066.83 2002.5 3062.09 1994.4 3062.09 1994.4Z" fill="#FFCF83" fill-rule="evenodd"/><path d="M3153.49 2062C3138.22 2062 3119.83 2059.42 3104.14 2049.85 3087.17 2039.5 3076.08 2022.82 3071.19 2000.26 3062.87 1961.87 3066.96 1930.36 3083.35 1906.63 3098.68 1884.44 3124.56 1869.99 3158.19 1864.84 3180.89 1861.37 3200.55 1868.68 3215.03 1885.98 3235.96 1910.99 3241.97 1953.23 3229.66 1988.71 3220.95 2013.77 3197.71 2029.26 3167.47 2030.13 3166.61 2030.15 3165.75 2030.17 3164.89 2030.17 3134.44 2030.17 3106.99 2014.65 3097.56 1991.86 3087.95 1968.62 3088.45 1945.89 3098.96 1927.85 3109.64 1909.53 3129.8 1897.62 3155.73 1894.3 3179.21 1891.29 3191.87 1902.18 3198.36 1911.84 3210.87 1930.49 3210.84 1960.77 3202.45 1975.39 3194.37 1989.48 3172 2000.35 3152.57 1999.67 3138.56 1999.17 3127.85 1992.71 3122.44 1981.47 3115.48 1967.02 3115.94 1952.09 3123.69 1940.52 3129.94 1931.2 3140.03 1925.52 3149.39 1926.02 3160.14 1926.6 3164.73 1935.55 3165.39 1943.04 3165.97 1949.63 3163.71 1956.97 3158.28 1958.23 3148.17 1960.58 3144.58 1955.08 3144.43 1954.85 3144.43 1954.85 3138.98 1945.87 3145.77 1944.58 3153.55 1943.1 3151.5 1949.11 3151.5 1949.11 3151.61 1949.28 3149.58 1957.41 3157.65 1955.53 3160.97 1954.76 3163.16 1949.38 3162.62 1943.28 3162.03 1936.59 3158.21 1929.27 3149.24 1928.79 3140.83 1928.31 3131.72 1933.54 3126 1942.06 3118.81 1952.8 3118.42 1966.73 3124.95 1980.27 3131.28 1993.43 3143.52 1996.58 3152.67 1996.91 3171.17 1997.54 3192.42 1987.3 3200.04 1974.02 3207.11 1961.7 3209 1932.68 3196.05 1913.38 3187.37 1900.46 3173.55 1894.8 3156.09 1897.05 3131.03 1900.25 3111.6 1911.68 3101.37 1929.24 3091.3 1946.51 3090.86 1968.38 3100.13 1990.8 3109.39 2013.2 3137.07 2028.24 3167.39 2027.36 3196.43 2026.53 3218.72 2011.74 3227.03 1987.8 3239.05 1953.2 3233.24 1912.06 3212.9 1887.76 3203.26 1876.24 3186.02 1863.39 3158.61 1867.58 3125.75 1872.61 3100.52 1886.65 3085.64 1908.2 3069.7 1931.28 3065.75 1962.06 3073.91 1999.68 3078.63 2021.46 3089.29 2037.55 3105.58 2047.49 3138.51 2067.56 3190.44 2055.41 3190.89 2055.29L3185.02 2058.45C3184.77 2058.52 3171.23 2062 3153.49 2062Z" fill="#EDBD77" fill-rule="evenodd"/><g filter="url(#fx0)" transform="translate(1659 1110)"><g><path d="M797.185 567.75 66.8141 567.75C40.9592 567.75 19.9999 546.789 19.9999 520.931L19.9999 66.5686C19.9999 40.7117 40.9592 19.7501 66.8141 19.7501L797.186 19.7501C823.042 19.7501 844 40.7117 844 66.5686L844 520.932C843.999 546.789 823.041 567.75 797.185 567.75Z" fill="#104862" fill-rule="evenodd" fill-opacity="0.6"/></g></g><path d="M2456.19 1664 1725.81 1664C1699.96 1664 1679 1643.04 1679 1617.18L1679 1162.82C1679 1136.96 1699.96 1116 1725.81 1116L2456.19 1116C2482.04 1116 2503 1136.96 2503 1162.82L2503 1617.18C2503 1643.04 2482.04 1664 2456.19 1664Z" fill="#104862" fill-rule="evenodd" fill-opacity="0.6"/><path d="M1980 1294.5C1980 1359.96 1926.96 1413 1861.5 1413 1796.05 1413 1743 1359.96 1743 1294.5 1743 1229.04 1796.05 1176 1861.5 1176 1868.94 1176 1876.23 1176.68 1883.29 1178.01 1868.5 1231.91 1848.87 1303.3 1847.55 1307.75 1849.99 1303.91 1922.06 1271.6 1971.27 1249.83 1976.91 1263.61 1980 1278.7 1980 1294.5Z" fill="#FBE3D6" fill-rule="evenodd"/><path d="M1978 1237.19C1934.82 1256.32 1863.29 1288.37 1861 1292 1862.24 1287.77 1882.03 1215.46 1895.28 1167 1931.98 1177.12 1962.15 1203.12 1978 1237.19Z" fill="#F99746" fill-rule="evenodd"/><path d="M2266 1152C2266 1146.48 2270.48 1142 2276 1142 2281.52 1142 2286 1146.48 2286 1152 2286 1157.52 2281.52 1162 2276 1162 2270.48 1162 2266 1157.52 2266 1152Z" fill="#61CBF4" fill-rule="evenodd"/><path d="M2317 1152C2317 1146.48 2321.48 1142 2327 1142 2332.52 1142 2337 1146.48 2337 1152 2337 1157.52 2332.52 1162 2327 1162 2321.48 1162 2317 1157.52 2317 1152Z" fill="#61CBF4" fill-rule="evenodd"/><path d="M2386.97 1144.97C2390.82 1148.82 2390.82 1155.05 2386.97 1158.9 2383.12 1162.75 2376.88 1162.75 2373.04 1158.9 2369.19 1155.05 2369.19 1148.82 2373.04 1144.97 2376.88 1141.12 2383.12 1141.12 2386.97 1144.97Z" fill="#F99746" fill-rule="evenodd"/><path d="M1961 1623 1731 1623 1731 1550 1961 1550 1961 1623ZM1733.82 1620.18 1958.18 1620.18 1958.18 1552.81 1733.82 1552.81 1733.82 1620.18Z" fill="#83CBEB" fill-rule="evenodd"/><path d="M1748 1570 1837 1570 1837 1576 1748 1576Z" fill="#83CBEB" fill-rule="evenodd"/><path d="M1846 1570 1909 1570 1909 1576 1846 1576Z" fill="#83CBEB" fill-rule="evenodd"/><path d="M1748 1586 1797 1586 1797 1592 1748 1592Z" fill="#83CBEB" fill-rule="evenodd"/><path d="M1805 1586 1868 1586 1868 1592 1805 1592Z" fill="#83CBEB" fill-rule="evenodd"/><path d="M1875 1586 1938 1586 1938 1592 1875 1592Z" fill="#83CBEB" fill-rule="evenodd"/><path d="M2249 1586 2135 1586 2135 1550 2249 1550 2249 1586ZM2136.4 1584.61 2247.6 1584.61 2247.6 1551.39 2136.4 1551.39 2136.4 1584.61Z" fill="#83CBEB" fill-rule="evenodd"/><path d="M2143 1560 2187 1560 2187 1563 2143 1563Z" fill="#83CBEB" fill-rule="evenodd"/><path d="M2192 1560 2223 1560 2223 1563 2192 1563Z" fill="#83CBEB" fill-rule="evenodd"/><path d="M2143 1568 2167 1568 2167 1571 2143 1571Z" fill="#83CBEB" fill-rule="evenodd"/><path d="M2172 1568 2203 1568 2203 1571 2172 1571Z" fill="#83CBEB" fill-rule="evenodd"/><path d="M2206 1568 2237 1568 2237 1571 2206 1571Z" fill="#83CBEB" fill-rule="evenodd"/><path d="M2384 1586 2270 1586 2270 1550 2384 1550 2384 1586ZM2271.4 1584.61 2382.6 1584.61 2382.6 1551.39 2271.4 1551.39 2271.4 1584.61Z" fill="#83CBEB" fill-rule="evenodd"/><path d="M2279 1560 2323 1560 2323 1563 2279 1563Z" fill="#83CBEB" fill-rule="evenodd"/><path d="M2327 1560 2358 1560 2358 1563 2327 1563Z" fill="#83CBEB" fill-rule="evenodd"/><path d="M2279 1568 2303 1568 2303 1571 2279 1571Z" fill="#83CBEB" fill-rule="evenodd"/><path d="M2307 1568 2338 1568 2338 1571 2307 1571Z" fill="#83CBEB" fill-rule="evenodd"/><path d="M2341 1568 2373 1568 2373 1571 2341 1571Z" fill="#83CBEB" fill-rule="evenodd"/><path d="M2249 1426 2135 1426 2135 1389 2249 1389 2249 1426ZM2136.4 1424.57 2247.6 1424.57 2247.6 1390.43 2136.4 1390.43 2136.4 1424.57Z" fill="#83CBEB" fill-rule="evenodd"/><path d="M2143 1399 2187 1399 2187 1402 2143 1402Z" fill="#83CBEB" fill-rule="evenodd"/><path d="M2192 1399 2223 1399 2223 1402 2192 1402Z" fill="#83CBEB" fill-rule="evenodd"/><path d="M2143 1407 2167 1407 2167 1410 2143 1410Z" fill="#83CBEB" fill-rule="evenodd"/><path d="M2172 1407 2203 1407 2203 1410 2172 1410Z" fill="#83CBEB" fill-rule="evenodd"/><path d="M2206 1407 2237 1407 2237 1410 2206 1410Z" fill="#83CBEB" fill-rule="evenodd"/><path d="M2384 1426 2270 1426 2270 1389 2384 1389 2384 1426ZM2271.4 1424.57 2382.6 1424.57 2382.6 1390.43 2271.4 1390.43 2271.4 1424.57Z" fill="#83CBEB" fill-rule="evenodd"/><path d="M2279 1399 2323 1399 2323 1402 2279 1402Z" fill="#83CBEB" fill-rule="evenodd"/><path d="M2327 1399 2358 1399 2358 1402 2327 1402Z" fill="#AEC3FF" fill-rule="evenodd"/><path d="M2279 1407 2303 1407 2303 1410 2279 1410Z" fill="#83CBEB" fill-rule="evenodd"/><path d="M2307 1407 2338 1407 2338 1410 2307 1410Z" fill="#AEC3FF" fill-rule="evenodd"/><path d="M2341 1407 2373 1407 2373 1410 2341 1410Z" fill="#AEC3FF" fill-rule="evenodd"/><path d="M2249 1286 2135 1286 2135 1250 2249 1250 2249 1286ZM2136.4 1284.61 2247.6 1284.61 2247.6 1251.39 2136.4 1251.39 2136.4 1284.61Z" fill="#83CBEB" fill-rule="evenodd"/><path d="M2143 1259 2187 1259 2187 1262 2143 1262Z" fill="#83CBEB" fill-rule="evenodd"/><path d="M2192 1259 2223 1259 2223 1262 2192 1262Z" fill="#83CBEB" fill-rule="evenodd"/><path d="M2143 1267 2167 1267 2167 1270 2143 1270Z" fill="#83CBEB" fill-rule="evenodd"/><path d="M2172 1267 2203 1267 2203 1270 2172 1270Z" fill="#83CBEB" fill-rule="evenodd"/><path d="M2206 1267 2237 1267 2237 1270 2206 1270Z" fill="#83CBEB" fill-rule="evenodd"/><path d="M2384 1286 2270 1286 2270 1250 2384 1250 2384 1286ZM2271.4 1284.61 2382.6 1284.61 2382.6 1251.39 2271.4 1251.39 2271.4 1284.61Z" fill="#83CBEB" fill-rule="evenodd"/><path d="M2279 1259 2323 1259 2323 1262 2279 1262Z" fill="#83CBEB" fill-rule="evenodd"/><path d="M2327 1259 2358 1259 2358 1262 2327 1262Z" fill="#83CBEB" fill-rule="evenodd"/><path d="M2279 1267 2303 1267 2303 1270 2279 1270Z" fill="#83CBEB" fill-rule="evenodd"/><path d="M2307 1267 2338 1267 2338 1270 2307 1270Z" fill="#83CBEB" fill-rule="evenodd"/><path d="M2341 1267 2373 1267 2373 1270 2341 1270Z" fill="#83CBEB" fill-rule="evenodd"/><path d="M2055 1236C2055 1221.64 2066.64 1210 2081 1210 2095.36 1210 2107 1221.64 2107 1236 2107 1250.36 2095.36 1262 2081 1262 2066.64 1262 2055 1250.36 2055 1236Z" fill="#F99746" fill-rule="evenodd"/><path d="M2391 1235 2135 1235 2135 1214 2391 1214 2391 1235ZM2137.43 1232.54 2388.57 1232.54 2388.57 1216.46 2137.43 1216.46 2137.43 1232.54Z" fill="#61CBF4" fill-rule="evenodd"/><path d="M2136 1216 2335 1216 2335 1234 2136 1234Z" fill="#61CBF4" fill-rule="evenodd"/><path d="M2056 1370.54C2056 1353.72 2081.5 1322 2081.5 1322 2081.5 1322 2107 1353.72 2107 1370.54 2107 1387.36 2095.58 1401 2081.5 1401 2067.42 1401 2056 1387.36 2056 1370.54Z" fill="#61CBF4" fill-rule="evenodd"/><path d="M2391 1372 2135 1372 2135 1351 2391 1351 2391 1372ZM2137.43 1369.54 2388.57 1369.54 2388.57 1353.46 2137.43 1353.46 2137.43 1369.54Z" fill="#F99746" fill-rule="evenodd"/><path d="M2136 1353 2258 1353 2258 1371 2136 1371Z" fill="#F99746" fill-rule="evenodd"/><path d="M2092.11 1536.22 2092.11 1469 2077.89 1469 2077.89 1536.22C2073.19 1538.8 2070 1543.87 2070 1549.69 2070 1558.15 2076.72 1565 2085 1565 2093.28 1565 2100 1558.15 2100 1549.69 2100 1543.87 2096.81 1538.8 2092.11 1536.22Z" fill="#FBE3D6" fill-rule="evenodd"/><path d="M2391 1528 2135 1528 2135 1507 2391 1507 2391 1528ZM2137.43 1525.54 2388.57 1525.54 2388.57 1509.46 2137.43 1509.46 2137.43 1525.54Z" fill="#61CBF4" fill-rule="evenodd"/><path d="M2136 1508 2303 1508 2303 1526 2136 1526Z" fill="#61CBF4" fill-rule="evenodd"/><path d="M2075 1550C2075 1544.48 2079.48 1540 2085 1540 2090.52 1540 2095 1544.48 2095 1550 2095 1555.52 2090.52 1560 2085 1560 2079.48 1560 2075 1555.52 2075 1550Z" fill="#F99746" fill-rule="evenodd"/><path d="M2082 1514 2088 1514 2088 1545 2082 1545Z" fill="#F99746" fill-rule="evenodd"/><path d="M1733 1495 1757 1495 1757 1528 1733 1528Z" fill="#61CBF4" fill-rule="evenodd"/><path d="M1774 1473 1797 1473 1797 1528 1774 1528Z" fill="#61CBF4" fill-rule="evenodd"/><path d="M1815 1455 1838 1455 1838 1528 1815 1528Z" fill="#F99746" fill-rule="evenodd"/><path d="M1856 1469 1879 1469 1879 1528 1856 1528Z" fill="#61CBF4" fill-rule="evenodd"/><path d="M1897 1438 1920 1438 1920 1528 1897 1528Z" fill="#61CBF4" fill-rule="evenodd"/><path d="M1938 1422 1961 1422 1961 1528 1938 1528Z" fill="#F99746" fill-rule="evenodd"/><path d="M1805 1347 1856 1347 1856 1351 1805 1351Z" fill="#FFFFFF" fill-rule="evenodd"/><path d="M1805 1357 1882 1357 1882 1362 1805 1362Z" fill="#FFFFFF" fill-rule="evenodd"/><path d="M1895 1207 1945 1207 1945 1211 1895 1211Z" fill="#FFFFFF" fill-rule="evenodd"/><path d="M1895 1217 1926 1217 1926 1222 1895 1222Z" fill="#FFFFFF" fill-rule="evenodd"/><path d="M2882.62 1309.82C2882.62 1309.82 2978.53 1418.86 3012 1486.17 3012 1486.17 2971.76 1573.81 2841.33 1645 2841.33 1645 2835.54 1643.73 2826.68 1637.41 2812.88 1627.55 2828.17 1620.33 2831.2 1618.37 2864.29 1596.92 2922.11 1504.56 2923.78 1496.54 2925.46 1488.53 2851.31 1416.65 2828.78 1390.07 2806.25 1363.5 2847.59 1296.12 2882.62 1309.82Z" fill="#F6C6AD" fill-rule="evenodd"/><path d="M2632 1307C2632 1307 2506.71 1426.2 2477.74 1423.04 2448.77 1419.88 2335.45 1392.53 2335.45 1392.53L2326 1414.23C2326 1414.23 2439.71 1480.95 2494.32 1479.99 2548.93 1479.03 2620.41 1427.04 2620.41 1427.04L2632 1307Z" fill="#F6C6AD" fill-rule="evenodd"/><path d="M2722.99 1150C2722.99 1150 2723.61 1163.42 2715.57 1166.04 2707.52 1168.67 2723.86 1197.62 2722.57 1217.18 2721.29 1236.73 2712.64 1244.58 2712.64 1244.58 2712.64 1244.58 2716.8 1233.82 2714.47 1227.17 2714.47 1227.17 2714.84 1241.01 2704.74 1247.99 2694.64 1254.97 2697.36 1261 2697.36 1261 2697.36 1261 2674.52 1254.16 2673.88 1237.04 2673.88 1237.04 2672.9 1244.78 2673.69 1247.98 2673.69 1247.98 2653.98 1233.18 2653.04 1216.12 2652.1 1199.07 2668.56 1184.67 2676.05 1184.41 2683.55 1184.15 2700.28 1169.43 2699.83 1163.87 2699.38 1158.3 2722.99 1150 2722.99 1150Z" fill="#030303" fill-rule="evenodd"/><path d="M2660.07 1054.04C2673.38 1033.8 2726.22 1045.13 2778.1 1079.35 2829.98 1113.57 2861.24 1157.72 2847.93 1177.96 2834.62 1198.2 2781.78 1186.87 2729.9 1152.65 2678.02 1118.43 2646.76 1074.28 2660.07 1054.04Z" fill="#E2AF64" fill-rule="evenodd"/><path d="M2776 1773.38C2761.63 1849.3 2743.14 1952.57 2728.86 2033.36 2727.17 2042.9 2725.54 2052.12 2723.98 2060.94 2723.63 2062.98 2723.27 2065.01 2722.92 2067L2580.23 2067C2580.03 2064.97 2579.84 2062.95 2579.66 2060.94 2573.28 1992.14 2574.14 1931.32 2578.13 1880.8 2579.66 1861.21 2581.68 1843.16 2583.92 1826.79 2593.3 1730.09 2596.46 1689.11 2597.41 1675.56L2597.62 1672.58C2597.63 1672.39 2597.64 1672.22 2597.65 1672.07L2597.68 1671.62C2597.7 1671.34 2597.72 1671.1 2597.73 1670.89L2597.76 1670.29C2597.77 1670.09 2597.78 1670 2597.78 1670L2646.42 1684.43 2670.21 1691.48 2675.82 1709.25 2687.04 1744.77 2768.47 1770.97 2776 1773.38Z" fill="#2B4579" fill-rule="evenodd"/><path d="M2869.41 1792.37C2866.95 1831.83 2862.9 1970.98 2858.38 2060.94 2858.28 2062.99 2858.18 2065.01 2858.08 2067L2710.25 2067C2709.79 2064.99 2709.34 2062.97 2708.88 2060.94 2693.19 1990.49 2680.34 1911.39 2671.13 1847.18 2669.51 1847.25 2652.64 1732.52 2610.34 1681.94 2609.96 1681.48 2609.91 1681.12 2610.14 1680.84 2612.23 1678.16 2639.08 1682.8 2639.08 1682.8 2641.35 1683.41 2643.79 1683.88 2646.39 1684.24 2666.69 1687.02 2696.16 1682.54 2725.4 1675.73 2725.4 1675.73 2725.4 1675.73 2725.41 1675.73 2733.31 1673.89 2741.19 1671.89 2748.86 1669.8 2770.52 1663.94 2790.56 1657.49 2804.86 1652.65 2808.41 1651.44 2811.6 1650.33 2814.37 1649.36 2816.61 1648.57 2818.59 1647.87 2820.25 1647.27 2820.26 1647.27 2820.26 1647.27 2820.26 1647.27 2824.24 1645.84 2826.47 1645 2826.47 1645 2826.47 1645 2827.47 1645.88 2829.18 1647.7 2834.85 1653.74 2848.29 1670.12 2858.21 1698.69 2866.2 1721.69 2871.9 1752.6 2869.41 1792.37Z" fill="#2B478B" fill-rule="evenodd"/><path d="M2689 1056.47 2782.39 1198C2782.39 1198 2793.06 1177.11 2804.92 1184.6 2823.42 1196.28 2863.17 1156.31 2854.88 1099.88 2854.33 1096.19 2853.68 1092.69 2852.96 1089.36 2834.33 1062.54 2813.64 1032.69 2798.79 1011.7 2755.91 985.823 2689 1056.47 2689 1056.47Z" fill="#030303" fill-rule="evenodd"/><path d="M2649 1342.05C2662.01 1354.01 2678.9 1364.72 2700.8 1373.04 2782.89 1404.26 2825.11 1336.8 2844 1289.11 2833.34 1280.89 2822.66 1277.94 2816.49 1276.33 2811.66 1275.08 2806.61 1273.96 2802.07 1273.06 2799.68 1272.58 2797.55 1271.2 2796.2 1269.15 2788.37 1257.3 2780.45 1227.24 2783.3 1185L2779.16 1185.53 2709.88 1194.76C2709.88 1194.76 2710.05 1216.49 2708.82 1236.84 2708.29 1245.58 2707.49 1254.06 2706.3 1260.49 2705.16 1266.63 2700.11 1271.27 2693.92 1271.87L2693.92 1271.87C2693.92 1271.87 2693.91 1271.89 2693.88 1271.93 2692.78 1273.28 2669.07 1302.62 2649 1342.05Z" fill="#F6C6AD" fill-rule="evenodd"/><path d="M2709.07 1195.17C2709.07 1195.17 2709.26 1216.73 2708 1236.96 2746.72 1238.31 2769.39 1204.78 2779 1186L2709.07 1195.17Z" fill="#ED985F" fill-rule="evenodd"/><path d="M2695.2 1213.7C2695.2 1213.7 2786.11 1220.98 2789.78 1164.33 2793.45 1107.67 2807.66 1070.45 2749.77 1063.4 2691.88 1056.35 2679.19 1077.24 2673.36 1095.85 2667.54 1114.47 2671.65 1210.34 2695.2 1213.7Z" fill="#F6C6AD" fill-rule="evenodd"/><path d="M2678.18 1064.61C2693.26 1048.53 2703.61 1052.93 2709.21 1058.41 2760.46 1034.34 2789.8 1076.62 2789.8 1076.62 2793.28 1117.5 2821 1142.56 2821 1142.56 2821 1142.56 2803.84 1151.71 2766.4 1139.5 2754.96 1135.76 2745.11 1126.84 2736.92 1116.25 2750.68 1143.06 2770.47 1163 2770.47 1163 2726.34 1139.09 2712.1 1074.68 2710.71 1067.87 2704.87 1072.49 2693.28 1082.58 2689.28 1092.95 2683.85 1107.03 2679.94 1136.49 2671.38 1134.93 2671.38 1134.93 2655.56 1088.74 2678.18 1064.61Z" fill="#030303" fill-rule="evenodd"/><path d="M2856.46 1128C2856.46 1128 2898.41 1044.04 2839.79 1010.85 2781.16 977.658 2738.25 990.691 2706 1031.28L2856.46 1128Z" fill="#F57F15" fill-rule="evenodd"/><path d="M2858.86 1439.76C2862.09 1443.12 2864.1 1445.01 2864.1 1445.01 2932.78 1436.48 2936 1366.1 2936 1366.1 2936 1366.1 2882.25 1295.36 2832.06 1279.8 2819.85 1276.02 2801.53 1273.19 2801.53 1273.19 2785.83 1286.19 2767.74 1305.23 2750.73 1320.71 2731.11 1338.57 2697.36 1344.63 2684.87 1312.97 2679.87 1300.28 2691.9 1273.96 2693.13 1272.07 2693.17 1272.02 2693.17 1272 2693.17 1272 2691.88 1272.08 2690.63 1272.18 2689.4 1272.26 2683.25 1272.75 2677.71 1273.5 2672.67 1274.01 2648.18 1276.46 2614.35 1292.66 2546 1379 2546 1379 2582.94 1424.52 2620.46 1427.17 2618.95 1499.28 2626.71 1616.75 2626.71 1616.75 2610.32 1648.91 2853.82 1723.42 2864.33 1692.74 2880.09 1668.74 2864.36 1622.79 2850.74 1587.56 2847.4 1578.97 2846.66 1569.8 2843.69 1563.15 2841.79 1558.89 2840.27 1554.49 2839.16 1550 2836.33 1538.75 2836.02 1526.94 2838.37 1515.47 2844.1 1487.59 2851.92 1461.54 2858.86 1439.76Z" fill="#F99746" fill-rule="evenodd"/><path d="M2861.6 1117.07C2859.82 1115.25 2858 1113.42 2856.11 1111.58L2856.1 1111.57C2837.9 1093.8 2814.7 1075.65 2788.07 1059.06 2766.64 1045.72 2745.29 1034.8 2725.26 1026.62L2725.25 1026.62C2721.28 1024.99 2717.37 1023.49 2713.52 1022.08 2667.59 1005.31 2630.58 1004.03 2619.38 1021.96 2607.56 1040.87 2627.56 1076.09 2666.73 1111.81L2666.74 1111.82C2666.71 1111.51 2666.67 1111.2 2666.64 1110.9 2666.61 1110.6 2666.59 1110.28 2666.56 1109.97 2666.53 1109.61 2666.5 1109.25 2666.47 1108.88 2666.45 1108.62 2666.43 1108.36 2666.41 1108.09 2666.39 1107.64 2666.36 1107.19 2666.33 1106.74 2666.3 1106.17 2666.26 1105.6 2666.24 1105.03 2666.24 1104.97 2666.23 1104.9 2666.23 1104.83 2666.21 1104.41 2666.2 1103.99 2666.19 1103.56L2666.19 1103.17C2666.18 1102.89 2666.18 1102.62 2666.18 1102.34 2666.17 1101.34 2666.18 1100.33 2666.2 1099.33 2666.2 1098.98 2666.21 1098.61 2666.23 1098.26 2666.24 1098.05 2666.25 1097.85 2666.25 1097.65 2666.27 1097.32 2666.28 1096.98 2666.31 1096.66 2666.34 1096.04 2666.39 1095.43 2666.44 1094.83 2666.49 1094.22 2666.55 1093.61 2666.61 1092.99 2666.61 1092.96 2666.62 1092.92 2666.62 1092.89 2666.64 1092.67 2666.67 1092.45 2666.69 1092.23 2666.71 1092.09 2666.72 1091.95 2666.74 1091.82 2666.8 1091.39 2666.85 1090.97 2666.91 1090.54 2667 1089.84 2667.11 1089.16 2667.25 1088.47 2667.27 1088.36 2667.29 1088.24 2667.31 1088.12 2667.45 1087.3 2667.61 1086.49 2667.8 1085.68 2667.89 1085.28 2667.99 1084.87 2668.09 1084.48 2668.1 1084.43 2668.11 1084.38 2668.12 1084.33 2663.93 1075.52 2663.17 1067.91 2666.59 1062.44 2670.54 1056.1 2679.54 1053.54 2691.76 1054.34 2691.77 1054.34 2691.77 1054.34 2691.78 1054.34 2692.11 1054.36 2692.45 1054.39 2692.79 1054.42L2692.8 1054.42C2697.31 1054.77 2702.24 1055.56 2707.5 1056.78L2707.51 1056.78C2708.75 1057.07 2710 1057.37 2711.27 1057.7 2715.9 1058.92 2720.75 1060.43 2725.78 1062.24L2725.84 1062.24C2740.88 1067.65 2757.4 1075.7 2774.03 1086.06 2780.93 1090.36 2787.47 1094.84 2793.58 1099.38L2793.59 1099.38C2794.2 1099.84 2794.81 1100.29 2795.41 1100.75 2823.66 1122.15 2842.32 1145.14 2844.46 1161.02 2845.03 1165.24 2844.44 1168.97 2842.51 1172.03 2842.36 1172.27 2842.2 1172.5 2842.02 1172.73 2842 1172.78 2841.98 1172.8 2841.96 1172.84 2840.71 1174.55 2839.06 1175.94 2837.04 1177.06 2837.03 1177.07 2837.03 1177.07 2837.02 1177.07 2836.75 1177.23 2836.47 1177.37 2836.19 1177.5 2836.18 1177.49 2836.18 1177.5 2836.18 1177.5 2834.11 1178.51 2831.69 1179.24 2828.98 1179.69 2828.97 1179.69 2828.97 1179.69 2828.97 1179.69 2828.97 1179.69 2828.97 1179.69 2828.96 1179.69 2828.7 1179.9 2828.43 1180.1 2828.17 1180.31 2827.98 1180.46 2827.77 1180.61 2827.57 1180.75 2827.38 1180.89 2827.19 1181.03 2826.98 1181.18 2826.92 1181.22 2826.86 1181.26 2826.8 1181.31 2826.46 1181.53 2826.12 1181.76 2825.79 1181.99 2825.26 1182.33 2824.72 1182.66 2824.2 1182.97 2823.93 1183.12 2823.67 1183.27 2823.41 1183.41 2823.14 1183.56 2822.88 1183.7 2822.61 1183.83 2822.26 1184.01 2821.91 1184.18 2821.56 1184.34 2821.43 1184.42 2821.3 1184.48 2821.16 1184.53 2821.03 1184.59 2820.9 1184.64 2820.77 1184.7 2820.76 1184.7 2820.76 1184.71 2820.75 1184.71 2820.72 1184.72 2820.69 1184.74 2820.66 1184.75 2820.5 1184.82 2820.33 1184.88 2820.17 1184.95 2819.93 1185.04 2819.7 1185.15 2819.45 1185.23 2819.15 1185.34 2818.85 1185.45 2818.56 1185.54 2818.28 1185.63 2817.99 1185.72 2817.72 1185.79 2817.7 1185.8 2817.67 1185.81 2817.64 1185.82 2817.4 1185.88 2817.18 1185.94 2816.95 1186 2816.87 1186.03 2816.79 1186.05 2816.69 1186.07 2816.48 1186.12 2816.27 1186.17 2816.05 1186.21 2815.78 1186.26 2815.52 1186.31 2815.25 1186.35 2815.08 1186.38 2814.92 1186.4 2814.76 1186.42 2814.57 1186.45 2814.37 1186.47 2814.18 1186.49 2813.93 1186.52 2813.68 1186.54 2813.43 1186.55 2813.33 1186.56 2813.23 1186.56 2813.13 1186.56L2813 1186.56C2812.94 1186.57 2812.87 1186.57 2812.81 1186.57L2812.74 1186.57C2812.65 1186.58 2812.57 1186.58 2812.48 1186.58 2811.82 1186.58 2811.16 1186.54 2810.52 1186.46 2809.88 1186.38 2809.25 1186.25 2808.65 1186.09 2808.34 1186 2808.04 1185.9 2807.74 1185.8 2807.52 1185.72 2807.3 1185.63 2807.08 1185.54 2806.92 1185.48 2806.76 1185.41 2806.6 1185.33 2806.47 1185.27 2806.33 1185.21 2806.2 1185.13 2806.09 1185.08 2805.97 1185.02 2805.86 1184.95 2805.63 1184.83 2805.4 1184.7 2805.18 1184.56 2804.71 1184.26 2804.25 1184.01 2803.79 1183.81 2803.64 1183.74 2803.49 1183.68 2803.34 1183.62 2803.28 1183.59 2803.22 1183.56 2803.16 1183.54 2802.94 1183.45 2802.72 1183.38 2802.49 1183.32 2801.61 1183.06 2800.74 1182.94 2799.88 1182.94 2799.87 1182.94 2799.87 1182.94 2799.86 1182.94L2799.76 1182.94C2799.73 1182.94 2799.7 1182.94 2799.67 1182.95L2799.54 1182.95C2799.43 1182.95 2799.33 1182.96 2799.22 1182.97 2799.15 1182.97 2799.08 1182.97 2799.01 1182.98 2798.81 1183 2798.63 1183.02 2798.45 1183.05 2798.43 1183.05 2798.41 1183.06 2798.39 1183.06 2798.31 1183.07 2798.22 1183.09 2798.13 1183.11 2797.98 1183.13 2797.84 1183.16 2797.7 1183.2 2797.56 1183.23 2797.41 1183.27 2797.26 1183.31 2797.09 1183.35 2796.93 1183.4 2796.76 1183.46 2796.64 1183.5 2796.53 1183.54 2796.42 1183.58 2796.26 1183.63 2796.09 1183.71 2795.92 1183.78 2795.91 1183.78 2795.91 1183.78 2795.91 1183.78 2795.78 1183.83 2795.66 1183.88 2795.53 1183.94 2795.41 1184 2795.28 1184.05 2795.17 1184.11 2795.03 1184.17 2794.9 1184.25 2794.76 1184.32L2794.36 1184.54C2794.22 1184.62 2794.09 1184.7 2793.96 1184.78 2793.83 1184.86 2793.7 1184.94 2793.57 1185.02 2793.44 1185.1 2793.31 1185.18 2793.18 1185.27 2793.04 1185.36 2792.91 1185.45 2792.79 1185.55 2792.54 1185.72 2792.28 1185.91 2792.04 1186.12 2791.91 1186.21 2791.79 1186.31 2791.68 1186.41 2791.55 1186.51 2791.43 1186.61 2791.31 1186.72 2791.07 1186.93 2790.83 1187.14 2790.6 1187.35 2790.37 1187.55 2790.13 1187.78 2789.91 1188.01 2789.8 1188.12 2789.69 1188.23 2789.58 1188.35 2789.47 1188.46 2789.35 1188.58 2789.25 1188.69 2789.12 1188.81 2789.01 1188.93 2788.9 1189.05L2788.91 1189.05C2793.35 1190.88 2797.72 1192.57 2802.02 1194.13 2815.79 1199.12 2828.75 1202.72 2840.45 1204.82 2867.55 1209.69 2887.83 1206.52 2895.63 1194.05 2906.01 1177.42 2891.8 1148.19 2861.6 1117.07Z" fill="#FCAF39" fill-rule="evenodd"/><path d="M2806.88 1592.45C2841.92 1603.7 2825.56 1584.45 2852.62 1586.41 2849.28 1577.79 2846.82 1569.98 2843.85 1563.31 2841.95 1559.04 2840.43 1554.63 2839.32 1550.13 2836.49 1538.84 2836.19 1527 2838.53 1515.49 2844.79 1484.96 2851.64 1462.55 2859 1439.59 2851.26 1419.21 2818.22 1452.62 2818.22 1452.62 2818.22 1452.62 2787.62 1484.81 2795.63 1539.56 2803.1 1590.57 2776.65 1582.75 2806.88 1592.45Z" fill="#ED7D2B" fill-rule="evenodd"/><path d="M2832 1279.85C2832 1279.85 2775.52 1315.93 2761.08 1392L2744 1386.58C2744 1386.58 2751.2 1331.77 2816.53 1276 2816.53 1276 2821.45 1276.97 2823.1 1277.39 2825.32 1277.94 2832 1279.85 2832 1279.85Z" fill="#2B478B" fill-rule="evenodd"/><path d="M2632 1393.82 2650.13 1395C2646.5 1328.93 2680.08 1283.82 2690 1272 2683.78 1272.49 2678.14 1273.09 2673.08 1273.75 2636.28 1329.25 2632 1393.82 2632 1393.82Z" fill="#2B478B" fill-rule="evenodd"/><path d="M2759.22 1434.28C2760.33 1429.57 2771.3 1383.83 2771.3 1383.83 2771.3 1383.83 2773.83 1369.53 2748.66 1368.11 2723.49 1366.7 2634.18 1362 2634.18 1362 2634.18 1362 2622.02 1369.33 2621.83 1384.38 2621.65 1399.43 2609.5 1485.51 2609.5 1485.51L2597 1674.84 2869.33 1792C2869.33 1792 2888 1696.31 2867.09 1629.61 2854.9 1590.71 2839.18 1550.1 2839.18 1550.1 2839.18 1550.1 2742.27 1506.17 2759.22 1434.28Z" fill="#2B478B" fill-rule="evenodd"/><path d="M2761.65 1385.77C2762.9 1381.82 2760.72 1377.61 2756.77 1376.35 2752.82 1375.1 2748.61 1377.28 2747.35 1381.23 2746.1 1385.18 2748.28 1389.39 2752.23 1390.65 2756.18 1391.9 2760.39 1389.72 2761.65 1385.77Z" fill="#ED7D2B" fill-rule="evenodd"/><path d="M2760.65 1384.77C2761.9 1380.82 2759.72 1376.61 2755.77 1375.35 2751.82 1374.1 2747.61 1376.28 2746.35 1380.23 2745.1 1384.18 2747.28 1388.39 2751.23 1389.65 2755.18 1390.9 2759.39 1388.72 2760.65 1384.77Z" fill="#F99746" fill-rule="evenodd"/><path d="M2758 1383C2758 1382.45 2757.55 1382 2757 1382 2756.45 1382 2756 1382.45 2756 1383 2756 1383.55 2756.45 1384 2757 1384 2757.55 1384 2758 1383.55 2758 1383Z" fill="#2B478B" fill-rule="evenodd"/><path d="M2751 1383C2751 1382.45 2750.55 1382 2750 1382 2749.45 1382 2749 1382.45 2749 1383 2749 1383.55 2749.45 1384 2750 1384 2750.55 1384 2751 1383.55 2751 1383Z" fill="#2B478B" fill-rule="evenodd"/><path d="M2651.65 1375.77C2652.9 1371.82 2650.72 1367.61 2646.77 1366.35 2642.82 1365.1 2638.61 1367.28 2637.35 1371.23 2636.1 1375.18 2638.28 1379.39 2642.23 1380.65 2646.18 1381.9 2650.39 1379.72 2651.65 1375.77Z" fill="#ED7D2B" fill-rule="evenodd"/><path d="M2649.65 1375.77C2650.9 1371.82 2648.72 1367.61 2644.77 1366.35 2640.82 1365.1 2636.61 1367.28 2635.35 1371.23 2634.1 1375.18 2636.28 1379.39 2640.23 1380.65 2644.18 1381.9 2648.39 1379.72 2649.65 1375.77Z" fill="#F99746" fill-rule="evenodd"/><path d="M2648 1373C2648 1372.45 2647.33 1372 2646.5 1372 2645.67 1372 2645 1372.45 2645 1373 2645 1373.55 2645.67 1374 2646.5 1374 2647.33 1374 2648 1373.55 2648 1373Z" fill="#2B478B" fill-rule="evenodd"/><path d="M2640 1373C2640 1372.45 2639.55 1372 2639 1372 2638.45 1372 2638 1372.45 2638 1373 2638 1373.55 2638.45 1374 2639 1374 2639.55 1374 2640 1373.55 2640 1373Z" fill="#2B478B" fill-rule="evenodd"/><path d="M2843.99 1161C2843.99 1161 2844.61 1174.42 2836.57 1177.04 2828.52 1179.67 2844.86 1208.62 2843.57 1228.18 2842.29 1247.73 2833.64 1255.58 2833.64 1255.58 2833.64 1255.58 2837.8 1244.83 2835.47 1238.17 2835.47 1238.17 2835.84 1252.01 2825.74 1258.99 2815.64 1265.97 2818.36 1272 2818.36 1272 2818.36 1272 2795.52 1265.16 2794.88 1248.04 2794.88 1248.04 2793.9 1255.78 2794.69 1258.98 2794.69 1258.98 2774.98 1244.18 2774.04 1227.12 2773.1 1210.07 2789.56 1195.67 2797.05 1195.41 2804.55 1195.15 2821.28 1180.43 2820.83 1174.87 2820.38 1169.3 2843.99 1161 2843.99 1161Z" fill="#030303" fill-rule="evenodd"/><path d="M2723 1181.66C2723 1181.66 2709.79 1189.88 2700.39 1188.92 2691.07 1187.98 2686 1176.46 2686 1176.46 2686 1176.46 2704.07 1173.72 2723 1181.66Z" fill="#FFF2E9" fill-rule="evenodd"/><path d="M2808.73 1670 2627.16 1670C2619.56 1670 2610.89 1663.8 2607.8 1656.14L2562.1 1542.86C2559.01 1535.2 2562.67 1529 2570.27 1529L2751.84 1529C2759.44 1529 2768.11 1535.2 2771.2 1542.86L2816.9 1656.14C2819.99 1663.8 2816.33 1670 2808.73 1670Z" fill="#0B76A0" fill-rule="evenodd"/><path d="M2797.73 1670 2616.16 1670C2608.56 1670 2599.89 1663.8 2596.8 1656.14L2551.1 1542.86C2548.01 1535.2 2551.67 1529 2559.27 1529L2740.84 1529C2748.44 1529 2757.11 1535.2 2760.2 1542.86L2805.9 1656.14C2808.99 1663.8 2805.33 1670 2797.73 1670Z" fill="#61CBF4" fill-rule="evenodd"/><path d="M2569.36 1538 2569.36 1538C2572.93 1538 2577.04 1540.7 2578.49 1544L2578.49 1544C2579.94 1547.3 2578.2 1550 2574.64 1550L2574.64 1550C2571.07 1550 2566.96 1547.3 2565.51 1544L2565.51 1544C2564.06 1540.7 2565.8 1538 2569.36 1538Z" fill="url(#fill9)" fill-rule="evenodd"/><path d="M2589.49 1541 2589.49 1541C2591.53 1541 2593.88 1542.57 2594.71 1544.5L2594.71 1544.5C2595.54 1546.42 2594.54 1548 2592.51 1548L2592.51 1548C2590.47 1548 2588.12 1546.43 2587.29 1544.5L2587.29 1544.5C2586.46 1542.58 2587.46 1541 2589.49 1541Z" fill="url(#fill10)" fill-rule="evenodd"/><path d="M2660.11 1595.5C2656.99 1588.04 2660.68 1582 2668.36 1582 2676.03 1582 2684.78 1588.04 2687.89 1595.5 2691.01 1602.96 2687.32 1609 2679.64 1609 2671.97 1609 2663.22 1602.96 2660.11 1595.5Z" fill="#0B76A0" fill-rule="evenodd"/><path d="M2831 1619.36C2831 1619.36 2805.98 1605.15 2799.95 1598.58 2796.05 1594.34 2795.82 1599.8 2796.07 1601.33 2796.57 1604.39 2797.03 1610.49 2804.15 1616.28 2814.4 1624.63 2831 1619.36 2831 1619.36Z" fill="#F6C6AD" fill-rule="evenodd"/><path d="M2830.33 1619.59C2830.33 1619.59 2785.46 1605.88 2775.12 1607.07 2764.79 1608.26 2741.18 1615.74 2739.28 1617.69 2737.38 1619.64 2745.51 1621.7 2751.69 1619.86 2759.61 1617.51 2772.09 1620.15 2772.09 1620.15 2772.09 1620.15 2746.93 1625.7 2740.63 1628.52 2740 1628.8 2739.89 1629.67 2740.43 1630.11 2741.93 1631.32 2745.81 1632.08 2751.37 1631.29 2759.36 1630.16 2773.38 1630.37 2773.38 1630.37L2744.79 1636.68C2744.43 1636.76 2744.16 1637.09 2744.18 1637.46 2744.22 1638.84 2746.51 1640.32 2753.19 1640.62 2758.34 1640.86 2775.77 1638.24 2775.77 1638.24L2760.24 1646.58C2760.24 1646.58 2764 1649.32 2771.94 1646.65 2777.38 1644.83 2793.61 1640.7 2797.36 1641.5 2801.1 1642.3 2819.8 1649.02 2828.63 1647.87 2837.25 1646.75 2841 1645.09 2841 1645.09L2830.33 1619.59Z" fill="#F6C6AD" fill-rule="evenodd"/><path d="M2336 1392.58C2336 1392.58 2313.35 1368.66 2305.03 1365.81 2296.71 1362.95 2267 1358 2267 1358 2267 1358 2267.12 1365.03 2280.41 1369.88 2293.71 1374.73 2296.49 1397.52 2304.36 1403.97 2312.22 1410.42 2333.01 1416 2333.01 1416L2336 1392.58Z" fill="#F6C6AD" fill-rule="evenodd"/><path d="M2326 1414C2326 1414 2303.99 1413.05 2296.84 1408.61 2289.69 1404.17 2278.04 1398.37 2280.28 1394.83 2282.53 1391.3 2306.8 1393.96 2306.8 1393.96L2326 1414Z" fill="#F6C6AD" fill-rule="evenodd"/><path d="M2303 1370C2301.85 1369.49 2272.7 1350 2272.7 1350 2272.7 1350 2270.24 1359.24 2274.54 1360.99 2278.83 1362.74 2303 1370 2303 1370Z" fill="#F6C6AD" fill-rule="evenodd"/><path d="M2956 1560C2929.61 1586.68 2892.39 1617.1 2841.31 1645 2841.31 1645 2835.52 1643.73 2826.68 1637.41 2812.89 1627.55 2828.16 1620.34 2831.18 1618.38 2846.16 1608.67 2866.22 1584.39 2883.83 1560L2956 1560Z" fill="#F6C6AD" fill-rule="evenodd"/><path d="M1507.87 2065 1287.79 2065C1287.76 2064.92 1287.73 2064.84 1287.7 2064.76 1287.43 2064.04 1287.07 2063.08 1286.6 2061.85L1286.42 2061.49C1286.42 2061.49 1286.42 2061.49 1286.42 2061.31 1286.42 2061.31 1286.24 2061.12 1286.24 2060.93 1285.5 2059.47 1284.94 2057.81 1284.2 2055.79 1283.83 2054.87 1283.47 2053.76 1282.91 2052.66 1282.91 2052.48 1282.91 2052.48 1282.91 2052.29 1282.73 2052.11 1282.73 2052.11 1282.73 2052.11 1280.19 2045.55 1277.05 2037.01 1273.42 2026.69 1273.09 2025.75 1272.76 2024.81 1272.42 2023.85 1269.7 2016.05 1266.7 2007.32 1263.52 1997.7 1262.05 1993.18 1260.55 1988.47 1259 1983.57 1280.75 1977.54 1309.18 1973.39 1334.49 1981.56 1350.86 1986.86 1361.94 1994.68 1370.53 2002.46 1387.95 2018.24 1395.15 2033.83 1415.43 2027.76 1420.46 2026.26 1426.48 2025.36 1433 2025.08 1465.64 2023.62 1510.79 2037.33 1507.87 2065Z" fill="#82B378" fill-rule="evenodd"/><path d="M3451 2063.57 3451 2064.44C3451 2065.85 3449.84 2067 3448.41 2067L1163.59 2067C1162.16 2067 1161 2065.85 1161 2064.44L1161 2063.57C1161 2062.16 1162.16 2061 1163.59 2061L3448.41 2061C3449.84 2061 3451 2062.16 3451 2063.57Z" fill="#2E3552" fill-rule="evenodd"/></g></svg>