<svg width="2015" height="1560" xmlns="http://www.w3.org/2000/svg" xmlns:xlink="http://www.w3.org/1999/xlink" xml:space="preserve" overflow="hidden"><defs><linearGradient x1="3459.51" y1="1429.87" x2="3459.51" y2="414.871" gradientUnits="userSpaceOnUse" spreadMethod="reflect" id="fill0"><stop offset="0" stop-color="#313131"/><stop offset="0.5" stop-color="#4A4A4A"/><stop offset="1" stop-color="#595959"/></linearGradient><linearGradient x1="2748" y1="516.867" x2="2748" y2="539.867" gradientUnits="userSpaceOnUse" spreadMethod="reflect" id="fill1"><stop offset="0" stop-color="#1E1C1C"/><stop offset="0.5" stop-color="#302D2D"/><stop offset="1" stop-color="#3B3838"/></linearGradient><linearGradient x1="2819" y1="516.867" x2="2819" y2="539.867" gradientUnits="userSpaceOnUse" spreadMethod="reflect" id="fill2"><stop offset="0" stop-color="#1E1C1C"/><stop offset="0.5" stop-color="#302D2D"/><stop offset="1" stop-color="#3B3838"/></linearGradient></defs><g transform="translate(-2385 16)"><path d="M2600.33 811.871 2614.51 823.615 2493.69 946.872 2479.51 935.128Z" fill="#17BDB7" fill-rule="evenodd"/><path d="M3345.4 104.058 3344.77 104.058C3344.77 38.2311 3286.75-15.1291 3215.17-15.1291L3213.85-15.1291C3142.26-15.1291 3084.25 38.2349 3084.25 104.058L3083.62 104.058C3041.02 104.058 3006.51 135.803 3006.51 174.965 3006.51 214.127 3041.02 245.871 3083.62 245.871L3345.4 245.871C3387.99 245.871 3422.51 214.127 3422.51 174.965 3422.51 135.807 3387.98 104.058 3345.4 104.058Z" fill="#BFBFBF" fill-rule="evenodd"/><path d="M4322.41 599.514 4321.78 599.514C4321.78 533.437 4263.76 479.871 4192.18 479.871L4190.85 479.871C4119.27 479.871 4061.25 533.44 4061.25 599.514L4060.62 599.514C4018.02 599.514 3983.51 631.386 3983.51 670.699 3983.51 710.011 4018.02 741.872 4060.62 741.872L4322.4 741.872C4364.99 741.872 4399.51 710.011 4399.51 670.699 4399.51 631.386 4364.99 599.514 4322.41 599.514Z" fill="#BFBFBF" fill-rule="evenodd"/><path d="M2738.41 373.515 2737.78 373.515C2737.78 307.435 2679.76 253.871 2608.18 253.871L2606.85 253.871C2535.26 253.871 2477.25 307.44 2477.25 373.515L2476.62 373.515C2434.02 373.515 2399.51 405.381 2399.51 444.694 2399.51 484.001 2434.02 515.871 2476.62 515.871L2738.4 515.871C2780.99 515.871 2815.51 484.005 2815.51 444.694 2815.51 405.381 2780.99 373.515 2738.41 373.515Z" fill="#BFBFBF" fill-rule="evenodd"/><path d="M2417.51 1429.86C2455.45 1407.8 2478.76 1363.05 2489.47 1324.47 2500.18 1285.88 2501.56 1245.85 2508.43 1206.61 2519.73 1141.91 2549.79 1075.07 2612.48 1038.88 2684.42 997.353 2781.58 1005.5 2857.55 969.812 2943.3 929.532 2985.16 842.317 3061.54 789.667 3125.52 745.573 3211.25 728.846 3292.39 736.771 3373.53 744.684 3450.15 775.743 3515.77 818.011 3620.23 885.314 3708.79 984.922 3837.31 1001.9 3902.14 1010.46 3968.63 995.983 4033.65 1003.34 4110.39 1012.02 4183.65 1055.24 4210.62 1118.33 4221.38 1143.54 4224.7 1170.76 4235.07 1196.09 4251.34 1235.8 4283.87 1268.56 4309.68 1304.26 4335.48 1339.95 4354.53 1389.37 4341.06 1429.87L2417.51 1429.87Z" fill="#BFBFBF" fill-rule="evenodd"/><path d="M2503.01 625.871C2479.57 625.871 2460.51 608.377 2460.51 586.871 2460.51 565.367 2479.57 547.871 2503.01 547.871 2526.44 547.871 2545.51 565.367 2545.51 586.871 2545.51 608.377 2526.44 625.871 2503.01 625.871ZM2503.01 550.051C2480.88 550.051 2462.88 566.568 2462.88 586.871 2462.88 607.176 2480.88 623.692 2503.01 623.692 2525.13 623.692 2543.13 607.176 2543.13 586.871 2543.13 566.568 2525.13 550.051 2503.01 550.051Z" fill="#17BDB7" fill-rule="evenodd"/><path d="M2729.5 235.87C2729.5 241.391 2724.36 245.87 2718 245.87 2711.66 245.87 2706.5 241.395 2706.5 235.87 2706.5 230.348 2711.65 225.869 2718 225.869 2724.36 225.875 2729.5 230.348 2729.5 235.87Z" fill="#F5564E" fill-rule="evenodd"/><path d="M2569.52 656.87C2569.52 662.395 2564.82 666.87 2559.02 666.87 2553.22 666.87 2548.52 662.395 2548.52 656.87 2548.52 651.345 2553.22 646.87 2559.02 646.87 2564.82 646.87 2569.52 651.345 2569.52 656.87Z" fill="#F5564E" fill-rule="evenodd"/><path d="M3240.51 173.871 4191.51 173.871 4191.51 1429.87 3240.51 1429.87Z" fill="#F9A743" fill-rule="evenodd"/><path d="M3135.51 294.871 4085.51 294.871 4085.51 1429.87 3135.51 1429.87Z" fill="#F47B12" fill-rule="evenodd"/><path d="M3934.24 1429.87 2984.78 1429.87C2971.37 1429.87 2960.51 1419.87 2960.51 1407.55L2960.51 437.199C2960.51 424.868 2971.37 414.871 2984.78 414.871L3934.24 414.871C3947.64 414.871 3958.51 424.868 3958.51 437.199L3958.51 1407.55C3958.51 1419.87 3947.64 1429.87 3934.24 1429.87Z" fill="url(#fill0)" fill-rule="evenodd"/><path d="M3031.51 478.871 3887.51 478.871 3887.51 1365.87 3031.51 1365.87Z" fill="#FFFFFF" fill-rule="evenodd"/><path d="M3654.65 513.871 3266.38 513.871C3256.51 513.871 3248.51 506.496 3248.51 497.395L3248.51 407.345C3248.51 398.245 3256.51 390.87 3266.38 390.87L3654.65 390.87C3664.51 390.87 3672.51 398.245 3672.51 407.345L3672.51 497.395C3672.51 506.496 3664.51 513.871 3654.65 513.871Z" fill="#595959" fill-rule="evenodd"/><path d="M3654.29 390.871 3266.73 390.871C3256.67 390.871 3248.51 398.457 3248.51 407.812L3248.51 452.871 3672.51 452.871 3672.51 407.812C3672.51 398.457 3664.35 390.871 3654.29 390.871Z" fill="#7F7F7F" fill-rule="evenodd"/><path d="M3569.47 350.357C3567.3 335.765 3553.54 324.872 3537.28 324.872L3381.73 324.872C3365.46 324.872 3351.7 335.76 3349.53 350.357L3343.51 390.872 3575.51 390.872 3569.47 350.357ZM3459.5 374.426C3449.4 374.426 3441.2 367.012 3441.2 357.87 3441.2 348.728 3449.4 341.315 3459.5 341.315 3469.61 341.315 3477.8 348.728 3477.8 357.87 3477.8 367.012 3469.61 374.426 3459.5 374.426Z" fill="#595959" fill-rule="evenodd"/><path d="M3749.37 652.758C3789.7 658.769 3817.09 693.695 3810.54 730.757 3804 767.83 3765.99 792.995 3725.66 786.984 3685.33 780.962 3657.93 746.048 3664.47 708.974 3671.03 671.913 3709.03 646.748 3749.37 652.758Z" fill="#D9D9D9" fill-rule="evenodd"/><path d="M3736.89 747.872 3736.89 747.872C3734.91 747.872 3733 747.16 3731.61 745.908L3698.69 716.318C3695.77 713.691 3695.77 709.432 3698.69 706.818 3701.61 704.192 3706.34 704.192 3709.26 706.818L3736.88 731.647 3806.75 668.832C3809.67 666.218 3814.4 666.218 3817.32 668.832 3820.23 671.459 3820.23 675.718 3817.32 678.332L3742.16 745.908C3740.77 747.16 3738.87 747.872 3736.89 747.872Z" fill="#F5564E" fill-rule="evenodd"/><path d="M3789.83 993.953C3760.93 1020.51 3714.08 1020.51 3685.18 993.953 3656.28 967.396 3656.28 924.346 3685.18 897.789 3714.08 871.232 3760.93 871.232 3789.83 897.789 3818.73 924.346 3818.73 967.396 3789.83 993.953Z" fill="#D9D9D9" fill-rule="evenodd"/><path d="M3811.51 1171.87C3811.51 1209.43 3778.38 1239.87 3737.51 1239.87 3696.63 1239.87 3663.51 1209.43 3663.51 1171.87 3663.51 1134.31 3696.63 1103.87 3737.51 1103.87 3778.38 1103.87 3811.51 1134.31 3811.51 1171.87Z" fill="#D9D9D9" fill-rule="evenodd"/><path d="M3736.89 1200.87 3736.89 1200.87C3734.91 1200.87 3733 1200.16 3731.61 1198.91L3698.69 1169.32C3695.77 1166.69 3695.77 1162.44 3698.69 1159.82 3701.61 1157.19 3706.34 1157.19 3709.26 1159.82L3736.88 1184.66 3806.75 1121.83C3809.67 1119.22 3814.4 1119.22 3817.32 1121.83 3820.23 1124.46 3820.23 1128.72 3817.32 1131.33L3742.16 1198.91C3740.77 1200.16 3738.87 1200.87 3736.89 1200.87Z" fill="#F5564E" fill-rule="evenodd"/><path d="M3599.28 668.896 3488.73 668.896C3488.06 668.896 3487.51 668.446 3487.51 667.896 3487.51 667.346 3488.06 666.896 3488.73 666.896L3599.28 666.896C3599.96 666.896 3600.51 667.346 3600.51 667.896 3600.51 668.446 3599.96 668.896 3599.28 668.896Z" fill="#F5564E" fill-rule="evenodd"/><path d="M3452.27 668.896 3133.74 668.896C3133.06 668.896 3132.51 668.446 3132.51 667.896 3132.51 667.346 3133.06 666.896 3133.74 666.896L3452.27 666.896C3452.96 666.896 3453.51 667.346 3453.51 667.896 3453.51 668.446 3452.96 668.896 3452.27 668.896Z" fill="#F5564E" fill-rule="evenodd"/><path d="M3599.29 694.896 3417.73 694.896C3417.06 694.896 3416.51 694.446 3416.51 693.896 3416.51 693.346 3417.06 692.896 3417.73 692.896L3599.29 692.896C3599.96 692.896 3600.51 693.346 3600.51 693.896 3600.51 694.446 3599.96 694.896 3599.29 694.896Z" fill="#F5564E" fill-rule="evenodd"/><path d="M3386.28 694.896 3270.74 694.896C3270.06 694.896 3269.51 694.446 3269.51 693.896 3269.51 693.346 3270.06 692.896 3270.74 692.896L3386.28 692.896C3386.96 692.896 3387.51 693.346 3387.51 693.896 3387.51 694.446 3386.96 694.896 3386.28 694.896Z" fill="#F5564E" fill-rule="evenodd"/><path d="M3208.26 694.896 3133.75 694.896C3133.06 694.896 3132.51 694.446 3132.51 693.896 3132.51 693.346 3133.06 692.896 3133.75 692.896L3208.26 692.896C3208.95 692.896 3209.51 693.346 3209.51 693.896 3209.51 694.446 3208.95 694.896 3208.26 694.896Z" fill="#F5564E" fill-rule="evenodd"/><path d="M3599.28 720.896 3133.73 720.896C3133.06 720.896 3132.51 720.446 3132.51 719.896 3132.51 719.346 3133.06 718.896 3133.73 718.896L3599.28 718.896C3599.96 718.896 3600.51 719.346 3600.51 719.896 3600.51 720.446 3599.96 720.896 3599.28 720.896Z" fill="#F5564E" fill-rule="evenodd"/><path d="M3599.29 746.896 3413.73 746.896C3413.06 746.896 3412.51 746.446 3412.51 745.896 3412.51 745.346 3413.06 744.896 3413.73 744.896L3599.29 744.896C3599.96 744.896 3600.51 745.346 3600.51 745.896 3600.51 746.456 3599.96 746.896 3599.29 746.896Z" fill="#F5564E" fill-rule="evenodd"/><path d="M3347.27 746.896 3133.74 746.896C3133.06 746.896 3132.51 746.446 3132.51 745.896 3132.51 745.346 3133.06 744.896 3133.74 744.896L3347.27 744.896C3347.96 744.896 3348.51 745.346 3348.51 745.896 3348.51 746.456 3347.96 746.896 3347.27 746.896Z" fill="#F5564E" fill-rule="evenodd"/><path d="M3501.28 772.844 3133.73 772.844C3133.06 772.844 3132.51 772.169 3132.51 771.344 3132.51 770.519 3133.06 769.844 3133.73 769.844L3501.28 769.844C3501.96 769.844 3502.51 770.519 3502.51 771.344 3502.51 772.169 3501.96 772.844 3501.28 772.844Z" fill="#F5564E" fill-rule="evenodd"/><path d="M3245.28 894.896 3133.74 894.896C3133.06 894.896 3132.51 894.446 3132.51 893.896 3132.51 893.346 3133.06 892.896 3133.74 892.896L3245.28 892.896C3245.95 892.896 3246.51 893.346 3246.51 893.896 3246.51 894.446 3245.96 894.896 3245.28 894.896Z" fill="#F5564E" fill-rule="evenodd"/><path d="M3599.28 894.896 3281.73 894.896C3281.06 894.896 3280.51 894.446 3280.51 893.896 3280.51 893.346 3281.06 892.896 3281.73 892.896L3599.28 892.896C3599.96 892.896 3600.51 893.346 3600.51 893.896 3600.51 894.446 3599.96 894.896 3599.28 894.896Z" fill="#F5564E" fill-rule="evenodd"/><path d="M3317.27 920.896 3133.75 920.896C3133.06 920.896 3132.51 920.446 3132.51 919.896 3132.51 919.346 3133.06 918.896 3133.75 918.896L3317.27 918.896C3317.95 918.896 3318.51 919.346 3318.51 919.896 3318.51 920.446 3317.95 920.896 3317.27 920.896Z" fill="#F5564E" fill-rule="evenodd"/><path d="M3462.28 920.896 3347.73 920.896C3347.06 920.896 3346.51 920.446 3346.51 919.896 3346.51 919.346 3347.06 918.896 3347.73 918.896L3462.28 918.896C3462.96 918.896 3463.51 919.346 3463.51 919.896 3463.51 920.446 3462.96 920.896 3462.28 920.896Z" fill="#F5564E" fill-rule="evenodd"/><path d="M3599.28 920.896 3525.72 920.896C3525.06 920.896 3524.5 920.446 3524.5 919.896 3524.5 919.346 3525.05 918.896 3525.72 918.896L3599.28 918.896C3599.95 918.896 3600.5 919.346 3600.5 919.896 3600.5 920.446 3599.96 920.896 3599.28 920.896Z" fill="#F5564E" fill-rule="evenodd"/><path d="M3599.28 946.896 3133.73 946.896C3133.06 946.896 3132.51 946.446 3132.51 945.896 3132.51 945.346 3133.06 944.896 3133.73 944.896L3599.28 944.896C3599.96 944.896 3600.51 945.346 3600.51 945.896 3600.51 946.446 3599.96 946.896 3599.28 946.896Z" fill="#F5564E" fill-rule="evenodd"/><path d="M3319.29 972.844 3133.73 972.844C3133.06 972.844 3132.51 972.169 3132.51 971.344 3132.51 970.519 3133.06 969.844 3133.73 969.844L3319.29 969.844C3319.96 969.844 3320.51 970.519 3320.51 971.344 3320.51 972.169 3319.96 972.844 3319.29 972.844Z" fill="#F5564E" fill-rule="evenodd"/><path d="M3599.27 972.844 3384.75 972.844C3384.06 972.844 3383.51 972.169 3383.51 971.344 3383.51 970.519 3384.06 969.844 3384.75 969.844L3599.27 969.844C3599.95 969.844 3600.51 970.519 3600.51 971.344 3600.51 972.169 3599.95 972.844 3599.27 972.844Z" fill="#F5564E" fill-rule="evenodd"/><path d="M3362.27 998.843 3133.74 998.843C3133.06 998.843 3132.51 998.168 3132.51 997.344 3132.51 996.518 3133.06 995.843 3133.74 995.843L3362.27 995.843C3362.96 995.843 3363.51 996.518 3363.51 997.344 3363.51 998.168 3362.96 998.843 3362.27 998.843Z" fill="#F5564E" fill-rule="evenodd"/><path d="M3599.28 1120.9 3488.73 1120.9C3488.06 1120.9 3487.51 1120.45 3487.51 1119.9 3487.51 1119.35 3488.06 1118.9 3488.73 1118.9L3599.28 1118.9C3599.96 1118.9 3600.51 1119.35 3600.51 1119.9 3600.51 1120.45 3599.96 1120.9 3599.28 1120.9Z" fill="#F5564E" fill-rule="evenodd"/><path d="M3452.27 1120.9 3133.74 1120.9C3133.06 1120.9 3132.51 1120.45 3132.51 1119.9 3132.51 1119.35 3133.06 1118.9 3133.74 1118.9L3452.27 1118.9C3452.96 1118.9 3453.51 1119.35 3453.51 1119.9 3453.51 1120.45 3452.96 1120.9 3452.27 1120.9Z" fill="#F5564E" fill-rule="evenodd"/><path d="M3599.29 1146.9 3417.73 1146.9C3417.06 1146.9 3416.51 1146.45 3416.51 1145.9 3416.51 1145.35 3417.06 1144.9 3417.73 1144.9L3599.29 1144.9C3599.96 1144.9 3600.51 1145.35 3600.51 1145.9 3600.51 1146.45 3599.96 1146.9 3599.29 1146.9Z" fill="#F5564E" fill-rule="evenodd"/><path d="M3386.28 1146.9 3270.74 1146.9C3270.06 1146.9 3269.51 1146.45 3269.51 1145.9 3269.51 1145.35 3270.06 1144.9 3270.74 1144.9L3386.28 1144.9C3386.96 1144.9 3387.51 1145.35 3387.51 1145.9 3387.51 1146.45 3386.96 1146.9 3386.28 1146.9Z" fill="#F5564E" fill-rule="evenodd"/><path d="M3208.26 1146.9 3133.75 1146.9C3133.06 1146.9 3132.51 1146.45 3132.51 1145.9 3132.51 1145.35 3133.06 1144.9 3133.75 1144.9L3208.26 1144.9C3208.95 1144.9 3209.51 1145.35 3209.51 1145.9 3209.51 1146.45 3208.95 1146.9 3208.26 1146.9Z" fill="#F5564E" fill-rule="evenodd"/><path d="M3599.28 1172.9 3133.73 1172.9C3133.06 1172.9 3132.51 1172.45 3132.51 1171.9 3132.51 1171.35 3133.06 1170.9 3133.73 1170.9L3599.28 1170.9C3599.96 1170.9 3600.51 1171.35 3600.51 1171.9 3600.51 1172.45 3599.96 1172.9 3599.28 1172.9Z" fill="#F5564E" fill-rule="evenodd"/><path d="M3599.29 1198.9 3413.73 1198.9C3413.06 1198.9 3412.51 1198.68 3412.51 1198.4 3412.51 1198.13 3413.06 1197.9 3413.73 1197.9L3599.29 1197.9C3599.96 1197.9 3600.51 1198.13 3600.51 1198.4 3600.51 1198.67 3599.96 1198.9 3599.29 1198.9Z" fill="#F5564E" fill-rule="evenodd"/><path d="M3347.27 1198.9 3133.74 1198.9C3133.06 1198.9 3132.51 1198.68 3132.51 1198.4 3132.51 1198.13 3133.06 1197.9 3133.74 1197.9L3347.27 1197.9C3347.96 1197.9 3348.51 1198.13 3348.51 1198.4 3348.51 1198.67 3347.96 1198.9 3347.27 1198.9Z" fill="#F5564E" fill-rule="evenodd"/><path d="M3576.28 1224.9 3133.74 1224.9C3133.06 1224.9 3132.51 1224.68 3132.51 1224.4 3132.51 1224.13 3133.06 1223.9 3133.74 1223.9L3576.28 1223.9C3576.96 1223.9 3577.51 1224.12 3577.51 1224.4 3577.51 1224.68 3576.96 1224.9 3576.28 1224.9Z" fill="#F5564E" fill-rule="evenodd"/><path d="M3683.74 690.875C3683.53 690.875 3683.3 690.827 3683.1 690.719 3682.52 690.395 3682.34 689.699 3682.68 689.171 3694.37 671.459 3714.83 660.875 3737.41 660.875 3750.14 660.875 3762.44 664.295 3772.96 670.763 3773.53 671.111 3773.68 671.807 3773.3 672.323 3772.92 672.839 3772.15 672.983 3771.59 672.635 3761.47 666.419 3749.66 663.131 3737.41 663.131 3715.68 663.131 3696.03 673.295 3684.8 690.335 3684.56 690.683 3684.16 690.875 3683.74 690.875Z" fill="#F5564E" fill-rule="evenodd"/><path d="M3738.01 777.871C3702.99 777.871 3674.51 751.676 3674.51 719.486 3674.51 714.503 3675.19 709.521 3676.55 704.711 3676.73 704.118 3677.4 703.749 3678.04 703.909 3678.7 704.069 3679.09 704.686 3678.93 705.278 3677.61 709.903 3676.95 714.688 3676.95 719.486 3676.95 750.442 3704.34 775.627 3738 775.627 3743.77 775.627 3749.47 774.887 3754.95 773.431 3755.61 773.246 3756.28 773.604 3756.46 774.208 3756.65 774.8 3756.28 775.43 3755.62 775.59 3749.92 777.107 3744 777.871 3738.01 777.871Z" fill="#F5564E" fill-rule="evenodd"/><path d="M3771.74 767.872C3771.36 767.872 3770.96 767.7 3770.72 767.394 3770.33 766.879 3770.47 766.192 3771.04 765.836 3787.93 755.424 3798 738.242 3798 719.895 3798 714.585 3797.17 709.348 3795.54 704.308 3795.35 703.719 3795.73 703.093 3796.38 702.922 3797.05 702.738 3797.75 703.081 3797.94 703.682 3799.64 708.919 3800.5 714.376 3800.5 719.895 3800.5 738.978 3790.01 756.835 3772.46 767.676 3772.23 767.811 3771.98 767.872 3771.74 767.872Z" fill="#D9D9D9" fill-rule="evenodd"/><path d="M3799.28 935.872C3798.7 935.872 3798.2 935.503 3798.07 934.974 3795.73 924.144 3789.92 914.274 3781.26 906.435 3765.9 892.516 3744.12 887.039 3723.03 891.778 3722.35 891.925 3721.69 891.556 3721.55 890.965 3721.39 890.375 3721.77 889.759 3722.43 889.612 3744.39 884.677 3767.02 890.387 3783 904.859 3792 913.019 3798.05 923.282 3800.49 934.543 3800.62 935.146 3800.19 935.737 3799.52 935.847 3799.44 935.872 3799.36 935.872 3799.28 935.872Z" fill="#F5564E" fill-rule="evenodd"/><path d="M3706.36 997.871C3706.17 997.871 3705.98 997.833 3705.79 997.734 3700.84 995.066 3696.28 991.716 3692.23 987.769 3668.61 964.75 3668.61 927.273 3692.23 904.241 3695.91 900.655 3700.02 897.552 3704.47 895.021 3705.01 894.711 3705.74 894.897 3706.05 895.43 3706.38 895.977 3706.2 896.672 3705.65 896.994 3701.38 899.426 3697.42 902.405 3693.88 905.854 3671.17 927.993 3671.17 964.018 3693.88 986.169 3697.78 989.953 3702.16 993.18 3706.91 995.736 3707.48 996.047 3707.68 996.741 3707.37 997.287 3707.16 997.66 3706.78 997.871 3706.36 997.871Z" fill="#F5564E" fill-rule="evenodd"/><path d="M3737.99 1004.87C3734.17 1004.87 3730.33 1004.55 3726.51 1003.9 3725.85 1003.79 3725.42 1003.2 3725.53 1002.58 3725.66 1001.98 3726.3 1001.59 3726.95 1001.68 3746.59 1005.04 3766.81 999.235 3780.92 986.153 3785 982.375 3788.48 978.104 3791.23 973.452 3791.55 972.911 3792.31 972.714 3792.88 973.009 3793.47 973.317 3793.68 973.994 3793.36 974.535 3790.5 979.372 3786.9 983.815 3782.64 987.74 3770.7 998.805 3754.59 1004.87 3737.99 1004.87Z" fill="#F5564E" fill-rule="evenodd"/><path d="M3683.74 1142.87C3683.53 1142.87 3683.3 1142.83 3683.1 1142.72 3682.52 1142.4 3682.34 1141.74 3682.68 1141.23 3694.37 1124.1 3714.83 1113.87 3737.42 1113.87 3750.16 1113.87 3762.44 1117.18 3772.96 1123.43 3773.53 1123.76 3773.68 1124.44 3773.29 1124.94 3772.92 1125.44 3772.16 1125.57 3771.59 1125.23 3761.48 1119.23 3749.66 1116.06 3737.42 1116.06 3715.68 1116.06 3696.03 1125.88 3684.8 1142.35 3684.56 1142.69 3684.16 1142.87 3683.74 1142.87Z" fill="#F5564E" fill-rule="evenodd"/><path d="M3738.01 1230.87C3702.99 1230.87 3674.51 1204.68 3674.51 1172.49 3674.51 1167.49 3675.19 1162.52 3676.55 1157.71 3676.73 1157.11 3677.4 1156.77 3678.04 1156.9 3678.7 1157.07 3679.09 1157.68 3678.93 1158.28 3677.61 1162.91 3676.95 1167.69 3676.95 1172.49 3676.95 1203.44 3704.34 1228.63 3738 1228.63 3743.75 1228.63 3749.47 1227.89 3754.95 1226.43 3755.61 1226.25 3756.28 1226.6 3756.46 1227.21 3756.65 1227.8 3756.28 1228.43 3755.62 1228.59 3749.91 1230.11 3744 1230.87 3738.01 1230.87Z" fill="#F5564E" fill-rule="evenodd"/><path d="M3771.74 1220.87C3771.36 1220.87 3770.96 1220.7 3770.72 1220.37 3770.33 1219.85 3770.47 1219.13 3771.04 1218.77 3787.93 1208.03 3798 1190.32 3798 1171.41 3798 1165.94 3797.17 1160.55 3795.54 1155.35 3795.35 1154.74 3795.73 1154.09 3796.38 1153.92 3797.05 1153.73 3797.75 1154.09 3797.94 1154.7 3799.64 1160.1 3800.5 1165.73 3800.5 1171.41 3800.5 1191.08 3790.01 1209.49 3772.46 1220.67 3772.23 1220.8 3771.98 1220.87 3771.74 1220.87Z" fill="#F5564E" fill-rule="evenodd"/><path d="M3736.89 973.872 3736.89 973.872C3734.91 973.872 3733 973.16 3731.61 971.908L3698.69 942.318C3695.77 939.691 3695.77 935.432 3698.69 932.818 3701.61 930.192 3706.34 930.192 3709.26 932.818L3736.88 957.647 3806.75 894.833C3809.67 892.219 3814.4 892.219 3817.32 894.833 3820.23 897.459 3820.23 901.718 3817.32 904.332L3742.16 971.908C3740.77 973.16 3738.87 973.872 3736.89 973.872Z" fill="#F5564E" fill-rule="evenodd"/><path d="M4269.8 1099.28C4286.18 1084.07 4312.85 1084.07 4329.22 1099.28 4345.61 1114.49 4345.61 1139.25 4329.22 1154.46 4312.83 1169.68 4286.18 1169.68 4269.79 1154.46 4253.42 1139.25 4253.42 1114.49 4269.8 1099.28ZM4327.57 1152.92C4343.03 1138.56 4343.03 1115.18 4327.57 1100.82 4312.1 1086.47 4286.93 1086.46 4271.46 1100.82 4255.99 1115.18 4255.99 1138.56 4271.46 1152.92 4286.93 1167.29 4312.1 1167.29 4327.57 1152.92Z" fill="#17BDB7" fill-rule="evenodd"/><path d="M4249.59 1020.94C4245.5 1017.03 4245.5 1010.71 4249.59 1006.79 4253.7 1002.89 4260.34 1002.89 4264.45 1006.79 4268.54 1010.71 4268.54 1017.03 4264.45 1020.94 4260.34 1024.84 4253.7 1024.84 4249.59 1020.94Z" fill="#F5564E" fill-rule="evenodd"/><path d="M2910.18 1408.48 2910.18 1408.48 3069.51 1378.56C3069.51 1378.56 3056.29 1359.89 3013.16 1348.28 3003.97 1345.79 2993.49 1344.83 2982.71 1344.83L2863.87 872.871 2677.35 872.871 2664.45 1379.62C2653.43 1381.61 2642.92 1384.54 2634.11 1388.83 2594.38 1408.15 2585.51 1428.87 2585.51 1428.87L2748.13 1428.87 2748.13 1428.87 2759.87 955.036 2778.93 955.036 2898.96 1358.12 2910.18 1408.48Z" fill="#819AB7" fill-rule="evenodd"/><path d="M2678.36 872.871 2665.51 1378.77 2750.08 1378.87 2760.55 954.905 2779.55 954.905 2899.6 1359.54 2982.51 1344.04 2864.14 872.871Z" fill="#F5564E" fill-rule="evenodd"/><path d="M2633.84 1388.87C2594.36 1408.22 2585.5 1428.87 2585.5 1428.87L2661.5 1428.87C2659.45 1411.36 2648.76 1396.54 2633.84 1388.87Z" fill="#FFFFFF" fill-rule="evenodd"/><path d="M3015.77 1349.87C3004.34 1360.15 2998.09 1375.54 2999.78 1391.87L3068.5 1379.02C3068.5 1379.02 3055.96 1361.52 3015.77 1349.87Z" fill="#FFFFFF" fill-rule="evenodd"/><path d="M2723.69 1416.84C2723.03 1416.84 2722.5 1417.52 2722.5 1418.34 2722.5 1419.17 2723.03 1419.84 2723.69 1419.84L2748.44 1419.84 2748.5 1416.86C2748.48 1416.86 2748.48 1416.84 2748.47 1416.84L2723.69 1416.84Z" fill="#185F5F" fill-rule="evenodd"/><path d="M2707.34 1419.84C2707.98 1419.84 2708.51 1419.17 2708.51 1418.34 2708.51 1417.52 2707.98 1416.84 2707.34 1416.84L2593.12 1416.84C2592.54 1417.77 2592.02 1418.64 2591.51 1419.5 2591.7 1419.68 2591.91 1419.84 2592.18 1419.84L2707.34 1419.84Z" fill="#185F5F" fill-rule="evenodd"/><path d="M2988.53 1383.01C2988.67 1383.6 2989.3 1383.97 2989.95 1383.85L3060.88 1370.81C3061.15 1370.76 3061.34 1370.61 3061.5 1370.43 3060.87 1369.93 3060.19 1369.41 3059.46 1368.87L2989.46 1381.73C2988.81 1381.85 2988.4 1382.42 2988.53 1383.01Z" fill="#185F5F" fill-rule="evenodd"/><path d="M2959.48 1388.76C2959.34 1388.16 2958.72 1387.78 2958.06 1387.9L2906.5 1397.69 2906.98 1399.88 2958.54 1390.08C2959.19 1389.96 2959.61 1389.36 2959.48 1388.76Z" fill="#185F5F" fill-rule="evenodd"/><path d="M2658.34 1395.87C2658.74 1395.87 2659.14 1395.68 2659.35 1395.32 2659.68 1394.81 2659.48 1394.14 2658.92 1393.84L2642.23 1384.87C2641.31 1385.21 2640.42 1385.57 2639.51 1385.92L2657.75 1395.73C2657.94 1395.82 2658.14 1395.87 2658.34 1395.87Z" fill="#185F5F" fill-rule="evenodd"/><path d="M2669.32 1387.86C2669.73 1387.86 2670.12 1387.66 2670.34 1387.31 2670.67 1386.78 2670.48 1386.1 2669.9 1385.79L2658.91 1379.86C2657.76 1380.1 2656.62 1380.33 2655.5 1380.58L2668.72 1387.71C2668.91 1387.81 2669.11 1387.86 2669.32 1387.86Z" fill="#185F5F" fill-rule="evenodd"/><path d="M2992.8 1360.5C2993.1 1360.81 2993.53 1360.92 2993.95 1360.84 2994.14 1360.81 2994.34 1360.73 2994.5 1360.59L3010.49 1347.5C3009.55 1347.27 3008.6 1347.07 3007.64 1346.87L2992.9 1358.94C2992.4 1359.33 2992.36 1360.04 2992.8 1360.5Z" fill="#185F5F" fill-rule="evenodd"/><path d="M2979.83 1353.56C2980.14 1353.83 2980.62 1353.93 2981.04 1353.86 2981.26 1353.83 2981.46 1353.76 2981.64 1353.65L2994.5 1345.11C2993.31 1345.03 2992.16 1344.94 2990.95 1344.88L2979.94 1352.21C2979.4 1352.56 2979.35 1353.16 2979.83 1353.56Z" fill="#185F5F" fill-rule="evenodd"/><path d="M2827.78 876.872 2825.54 877.166C2825.54 877.227 2825.5 877.289 2825.51 877.35 2834.31 903.185 2853.72 921.78 2876.13 925.847 2876.25 925.872 2876.39 925.884 2876.51 925.859L2875.96 923.654C2854.58 919.587 2836.3 901.715 2827.78 876.872Z" fill="#D12824" fill-rule="evenodd"/><path d="M2679.5 928.727C2680.15 928.727 2680.7 929.211 2680.7 929.805 2680.7 930.388 2680.15 930.871 2679.5 930.871 2708.48 930.871 2733.14 907.513 2739.5 874.057 2739.51 873.982 2739.44 873.933 2739.44 873.871L2737.1 873.871C2730.99 905.667 2706.8 928.727 2679.5 928.727Z" fill="#D12824" fill-rule="evenodd"/><path d="M2779.78 955.855 2781.35 932.702 2798.83 932.702C2799.49 932.702 2800.01 932.219 2800.01 931.624 2800.01 931.029 2799.49 930.547 2798.83 930.547L2781.49 930.547 2781.96 923.559 2799.33 923.559C2799.99 923.559 2800.51 923.077 2800.51 922.482 2800.51 921.887 2799.99 921.392 2799.33 921.392L2782.11 921.392 2785.33 873.933C2785.33 873.908 2785.3 873.896 2785.3 873.871L2782.97 873.871 2779.75 921.392 2762.96 921.392 2766.02 873.933C2766.02 873.908 2765.99 873.896 2765.99 873.871L2763.66 873.871 2760.59 921.392 2757.88 921.392C2757.22 921.392 2756.7 921.887 2756.7 922.482 2756.7 923.077 2757.22 923.559 2757.88 923.559L2760.46 923.559 2760 930.547 2742.69 930.547C2742.03 930.547 2741.51 931.029 2741.51 931.624 2741.51 932.219 2742.03 932.702 2742.69 932.702L2759.87 932.702 2758.38 955.731C2758.34 956.326 2758.83 956.834 2759.49 956.871 2759.5 956.871 2759.52 956.871 2759.53 956.871L2759.56 955.793 2760.74 955.793 2762.23 932.702 2778.99 932.702 2777.42 955.719C2777.42 955.744 2777.45 955.769 2777.45 955.793L2778.6 955.793 2778.91 956.834C2779.39 956.71 2779.75 956.326 2779.78 955.855ZM2762.36 930.547 2762.82 923.559 2779.6 923.559 2779.13 930.547 2762.36 930.547Z" fill="#D12824" fill-rule="evenodd"/><path d="M2665.51 1357.9 2749.46 1357.9 2749.51 1355.9 2665.57 1355.9Z" fill="#D12824" fill-rule="evenodd"/><path d="M2975.99 1320.87 2892.51 1335.82 2893.12 1337.87 2976.51 1322.95Z" fill="#D12824" fill-rule="evenodd"/><path d="M2898.13 490.651C2900.13 484.693 2901.22 478.365 2901.22 471.804 2901.22 445.405 2883.74 422.772 2858.88 413.179 2858.14 397.944 2844.54 385.792 2827.83 385.792 2819.88 385.792 2812.65 388.558 2807.16 393.075 2794.72 381.827 2777.69 374.871 2758.9 374.871 2727.06 374.871 2700.32 394.804 2692.43 421.86 2691.61 421.825 2690.8 421.745 2689.98 421.745 2662.1 421.745 2639.51 442.574 2639.51 468.269 2639.51 480.379 2644.57 491.368 2652.78 499.645 2650.9 503.006 2649.83 506.814 2649.83 510.859 2649.83 524.381 2661.7 535.344 2676.39 535.344 2690.18 535.344 2701.52 525.634 2702.81 513.223 2713.95 510.523 2723.57 504.422 2730.3 496.169 2739.02 499.846 2748.69 501.953 2758.9 501.953 2763.05 501.953 2767.11 501.553 2771.06 500.904 2782.52 521.346 2805.61 535.344 2832.29 535.344 2840.31 535.344 2847.97 534.017 2855.13 531.697 2860.42 535.551 2867.1 537.871 2874.38 537.871 2891.58 537.871 2905.51 525.026 2905.51 509.177 2905.51 502.11 2902.73 495.652 2898.13 490.651Z" fill="#262626" fill-rule="evenodd"/><path d="M2963.51 747.557 2925.54 680.753C2911.09 663.784 2889.01 653.871 2865.61 653.871L2816.27 653.871 2736.69 653.871 2687.33 653.871C2663.94 653.871 2641.86 663.784 2627.41 680.753L2522.51 803.966 2585.93 830.947 2658.52 744.492 2677.3 873.871 2863.65 873.871 2886.43 746.024 2901.69 772.721 2963.51 747.557Z" fill="#185F5F" fill-rule="evenodd"/><path d="M2801.81 653.872 2746.2 653.872 2741.5 610.872 2806.5 610.872Z" fill="#FFD3B6" fill-rule="evenodd"/><path d="M2741.5 610.871 2743.32 627.731C2753.68 639.695 2773.08 647.872 2791.76 647.872 2795.2 647.872 2799.33 647.625 2802.59 647.119L2806.5 610.871 2741.5 610.871Z" fill="#F4B89A" fill-rule="evenodd"/><path d="M2774.01 625.872C2728.59 625.872 2690.51 591.385 2690.51 556.793L2690.51 486.507C2690.51 444.183 2727.89 409.871 2774.01 409.871L2774.01 409.871C2820.12 409.871 2857.51 444.179 2857.51 486.507L2857.51 556.793C2857.51 591.373 2819.42 625.872 2774.01 625.872Z" fill="#FFD3B6" fill-rule="evenodd"/><path d="M2691.35 512.214C2688.54 509.706 2685.52 509.097 2682.77 510.945 2676.42 515.219 2673.9 530.968 2677.16 546.125 2679.94 559.09 2686.05 567.386 2691.73 566.846 2691.51 563.969 2691.35 561.053 2691.35 558.064L2691.35 512.214Z" fill="#F7AB86" fill-rule="evenodd"/><path d="M2864.21 510.908C2861.94 509.671 2859.5 509.584 2857.11 510.427L2857.11 556.72C2857.11 559.494 2856.94 562.2 2856.69 564.873 2862.49 563.105 2868.15 555.718 2870.97 545.112 2874.9 530.375 2871.87 515.063 2864.21 510.908Z" fill="#F7AB86" fill-rule="evenodd"/><path d="M2798.05 559.882C2795.09 562.722 2779.05 562.33 2775.39 559.912 2771.75 557.493 2773.23 509.871 2780.77 509.871 2785.73 509.871 2792.94 530.319 2796.44 545.098 2798.25 552.766 2799.06 558.91 2798.05 559.882Z" fill="#F4A178" fill-rule="evenodd"/><path d="M2755.5 528.367C2755.5 534.719 2752.15 539.867 2748 539.867 2743.85 539.867 2740.5 534.719 2740.5 528.367 2740.5 522.015 2743.85 516.867 2748 516.867 2752.15 516.867 2755.5 522.015 2755.5 528.367Z" fill="url(#fill1)" fill-rule="evenodd"/><path d="M2826.5 528.367C2826.5 534.719 2823.15 539.867 2819 539.867 2814.85 539.867 2811.5 534.719 2811.5 528.367 2811.5 522.015 2814.85 516.867 2819 516.867 2823.15 516.867 2826.5 522.015 2826.5 528.367Z" fill="url(#fill2)" fill-rule="evenodd"/><path d="M2792.52 600.375C2792.52 602.86 2786.93 604.878 2780.02 604.878 2773.11 604.878 2767.52 602.86 2767.52 600.375 2767.52 597.878 2773.11 597.878 2780.02 597.878 2786.93 597.878 2792.52 597.878 2792.52 600.375Z" fill="#F4B89A" fill-rule="evenodd"/><path d="M2767.14 499.894C2767.33 501.587 2759.71 503.821 2750.12 504.881 2740.54 505.941 2732.61 505.426 2732.43 503.732 2732.24 502.038 2739.86 499.805 2749.44 498.745 2759.03 497.686 2766.96 498.202 2767.14 499.894Z" fill="#404040" fill-rule="evenodd"/><path d="M2838.28 504.343C2838.02 506.029 2830.08 506.204 2820.55 504.736 2811.02 503.267 2803.5 500.712 2803.76 499.026 2804.02 497.341 2811.96 497.166 2821.49 498.634 2831.02 500.102 2838.54 502.658 2838.28 504.343Z" fill="#404040" fill-rule="evenodd"/><path d="M2780.01 583.867C2760.81 583.867 2748.59 573.236 2748.08 572.787 2747.37 572.159 2747.32 571.099 2747.97 570.411 2748.62 569.731 2749.72 569.681 2750.44 570.305 2750.54 570.408 2762.21 580.501 2780.01 580.501 2797.81 580.501 2809.49 570.403 2809.59 570.305 2810.31 569.685 2811.41 569.734 2812.06 570.411 2812.71 571.099 2812.66 572.163 2811.95 572.787 2811.44 573.236 2799.23 583.867 2780.01 583.867Z" fill="#EF7356" fill-rule="evenodd"/><path d="M2773.83 406.871C2726.15 406.871 2687.51 442.115 2687.51 485.595L2690.09 510.871C2690.09 510.871 2737.36 487.346 2754.88 441.663L2754.88 441.654C2774.56 463.004 2807.69 477.026 2845.28 477.026 2850.1 477.026 2854.85 476.768 2859.51 476.321 2854.46 437.221 2818.05 406.871 2773.83 406.871Z" fill="#262626" fill-rule="evenodd"/><path d="M2444.11 990.395 2608.98 822.158C2637.08 793.495 2676.27 776.81 2715.57 776.798L2715.57 776.798C2726.77 765.363 2744.86 763.535 2755.97 772.735L2784.24 796.137C2795.34 805.325 2795.25 822.059 2784.05 833.494L2784.05 833.494C2788.12 869.419 2774.15 906.986 2746.05 935.649L2581.18 1103.87C2521.38 1164.89 2385.51 1176.87 2385.51 1176.87 2385.51 1176.87 2384.31 1051.41 2444.11 990.395Z" fill="#F9A743" fill-rule="evenodd"/><path d="M2385.51 1176.87C2385.51 1176.87 2499.26 1166.87 2564.51 1118.62 2561.44 1092.9 2545.29 1064.68 2518.03 1042.21 2490.79 1019.75 2458.45 1007.99 2430.18 1007.87 2384.54 1072.29 2385.51 1176.87 2385.51 1176.87Z" fill="#17BDB7" fill-rule="evenodd"/><path d="M2388.12 1135.87C2385.35 1160.1 2385.5 1176.87 2385.5 1176.87 2385.5 1176.87 2404.05 1175.26 2430.5 1170.26 2429.41 1160.83 2424.88 1152.03 2416.85 1145.52 2408.83 1139.01 2398.63 1135.87 2388.12 1135.87Z" fill="#F5564E" fill-rule="evenodd"/><path d="M2784.33 795.865 2756.42 772.68C2745.46 763.575 2727.58 765.371 2716.51 776.701L2784.15 832.872C2795.23 821.543 2795.31 804.97 2784.33 795.865Z" fill="#17BDB7" fill-rule="evenodd"/><path d="M2528.34 903.871 2665.51 1017.65 2648.67 1034.87 2511.51 921.081Z" fill="#F5564E" fill-rule="evenodd"/><path d="M2674.07 904.872C2674.07 904.872 2716 924.762 2704.52 946.363 2693.02 967.976 2667.51 928.836 2667.51 928.836L2674.07 904.872Z" fill="#F4A173" fill-rule="evenodd"/><path d="M2577.82 739.872 2521.88 804.522C2505.49 823.466 2508.88 850.845 2529.49 866.028L2619.16 932.615C2620.82 941.371 2648.52 1016.49 2695.49 995.033 2729.54 979.468 2704.65 940.039 2688.37 919.504 2682.6 912.216 2675.95 905.556 2668.62 899.525L2585.72 831.236 2631.99 777.019C2621.87 774.01 2577.82 739.872 2577.82 739.872Z" fill="#FFD3B6" fill-rule="evenodd"/><path d="M2692.91 969.579C2692.65 968.998 2691.93 968.72 2691.29 968.947 2690.65 969.175 2690.35 969.844 2690.6 970.425L2700.48 992.868C2701.2 992.389 2701.86 991.883 2702.51 991.378L2692.91 969.579Z" fill="#F4A173" fill-rule="evenodd"/><path d="M2666.25 976.945C2665.65 977.152 2665.36 977.751 2665.6 978.277L2674.91 998.726C2675.78 998.811 2676.65 998.848 2677.51 998.872L2667.78 977.519C2667.54 976.994 2666.86 976.737 2666.25 976.945Z" fill="#F4A173" fill-rule="evenodd"/><path d="M2680.18 973.942C2679.61 974.17 2679.35 974.814 2679.57 975.382L2688.43 997.868C2689.12 997.641 2689.81 997.414 2690.5 997.136L2681.58 974.561C2681.38 973.993 2680.73 973.728 2680.18 973.942Z" fill="#F4A173" fill-rule="evenodd"/><path d="M2986.68 788.359 2963.59 747.871 2901.66 773.009 2914.86 796.041 2838.12 836.889C2780.95 802.632 2720.83 830.867 2744.99 855.981 2769.14 881.106 2848.55 887.871 2848.55 887.871L2972.29 829.914C2988.84 822.17 2995.31 803.474 2986.68 788.359Z" fill="#FFD3B6" fill-rule="evenodd"/><path d="M2764.04 848.828C2764.64 849.008 2765.27 848.727 2765.46 848.21 2765.65 847.692 2765.35 847.129 2764.75 846.961L2740.98 839.883C2740.78 840.445 2740.62 841.019 2740.52 841.593L2764.04 848.828Z" fill="#F4A173" fill-rule="evenodd"/><path d="M2772.45 837.218C2772.67 836.715 2772.34 836.166 2771.73 835.995L2749.72 829.881C2748.94 830.338 2748.22 830.818 2747.52 831.31L2770.98 837.835C2771.59 837.994 2772.26 837.732 2772.45 837.218Z" fill="#F4A173" fill-rule="evenodd"/><path d="M2783.45 830.224C2783.64 829.734 2783.32 829.186 2782.72 829.022L2764.21 823.878C2762.94 824.181 2761.69 824.508 2760.5 824.858L2781.98 830.831C2782.58 830.994 2783.25 830.726 2783.45 830.224Z" fill="#F4A173" fill-rule="evenodd"/><path d="M2822.51 653.871 2816.09 653.871 2736.95 653.871 2724.51 653.871C2736.64 666.743 2754.08 674.872 2773.51 674.872 2792.93 674.872 2810.37 666.743 2822.51 653.871Z" fill="#F9A743" fill-rule="evenodd"/><path d="M3198.33 1426.84 3047.68 1426.84C3047.03 1426.84 3046.51 1427.52 3046.51 1428.34 3046.51 1429.17 3047.03 1429.84 3047.68 1429.84L3198.34 1429.84C3198.98 1429.84 3199.51 1429.17 3199.51 1428.34 3199.51 1427.52 3198.98 1426.84 3198.33 1426.84Z" fill="#185F5F" fill-rule="evenodd"/><path d="M3280.33 1426.84 3223.69 1426.84 3223.69 1426.84C3223.69 1426.84 3223.69 1426.84 3223.69 1426.84 3223.03 1426.84 3222.51 1427.52 3222.51 1428.34 3222.51 1429.17 3223.03 1429.84 3223.69 1429.84 3223.69 1429.84 3223.69 1429.84 3223.69 1429.84L3223.69 1429.84 3280.33 1429.84C3280.99 1429.84 3281.51 1429.17 3281.51 1428.34 3281.51 1427.52 3280.99 1426.84 3280.33 1426.84Z" fill="#185F5F" fill-rule="evenodd"/><path d="M3323.32 1426.84 3294.69 1426.84C3294.05 1426.84 3293.51 1427.52 3293.51 1428.34 3293.51 1429.17 3294.05 1429.84 3294.69 1429.84L3323.32 1429.84C3323.98 1429.84 3324.51 1429.17 3324.51 1428.34 3324.51 1427.52 3323.98 1426.84 3323.32 1426.84Z" fill="#185F5F" fill-rule="evenodd"/><path d="M2830.69 1427.62 2862.91 1427.62 2858.42 1407.23C2858.28 1406.62 2858.69 1406.02 2859.32 1405.9 2859.99 1405.76 2860.59 1406.16 2860.72 1406.77L2865.32 1427.62 2871.55 1427.62 2871.55 1406.99C2871.55 1406.38 2872.07 1405.87 2872.73 1405.87 2873.37 1405.87 2873.9 1406.38 2873.9 1406.99L2873.9 1427.62 2958.33 1427.62C2958.99 1427.62 2959.51 1428.11 2959.51 1428.74 2959.51 1429.36 2958.99 1429.87 2958.33 1429.87L2830.69 1429.87C2830.03 1429.87 2829.51 1429.36 2829.51 1428.74 2829.51 1428.13 2830.03 1427.62 2830.69 1427.62Z" fill="#185F5F" fill-rule="evenodd"/><path d="M4215.33 1426.84C4215.33 1426.84 4215.33 1426.84 4215.33 1426.84L4215.33 1426.84 4158.69 1426.84C4158.03 1426.84 4157.51 1427.52 4157.51 1428.34 4157.51 1429.17 4158.03 1429.84 4158.69 1429.84L4215.33 1429.84 4215.33 1429.84C4215.33 1429.84 4215.33 1429.84 4215.33 1429.84 4215.99 1429.84 4216.51 1429.17 4216.51 1428.34 4216.51 1427.52 4215.99 1426.84 4215.33 1426.84Z" fill="#185F5F" fill-rule="evenodd"/><path d="M4144.32 1426.84 4115.69 1426.84C4115.04 1426.84 4114.51 1427.52 4114.51 1428.34 4114.51 1429.17 4115.04 1429.84 4115.69 1429.84L4144.32 1429.84C4144.98 1429.84 4145.51 1429.17 4145.51 1428.34 4145.51 1427.52 4144.97 1426.84 4144.32 1426.84Z" fill="#185F5F" fill-rule="evenodd"/><path d="M2564.35 1426.84 2479.67 1426.84C2479.03 1426.84 2478.51 1427.52 2478.51 1428.34 2478.51 1429.17 2479.03 1429.84 2479.67 1429.84L2564.35 1429.84C2564.99 1429.84 2565.51 1429.17 2565.51 1428.34 2565.51 1427.52 2564.99 1426.84 2564.35 1426.84Z" fill="#185F5F" fill-rule="evenodd"/><path d="M2459.33 1426.84C2459.33 1426.84 2459.33 1426.84 2459.33 1426.84L2459.33 1426.84 2402.69 1426.84C2402.03 1426.84 2401.51 1427.52 2401.51 1428.34 2401.51 1429.17 2402.03 1429.84 2402.69 1429.84L2459.33 1429.84 2459.33 1429.84C2459.33 1429.84 2459.33 1429.84 2459.33 1429.84 2459.99 1429.84 2460.51 1429.17 2460.51 1428.34 2460.51 1427.52 2459.99 1426.84 2459.33 1426.84Z" fill="#185F5F" fill-rule="evenodd"/><path d="M2513.63 1469.87C2513.08 1469.87 2512.63 1470.35 2512.63 1470.92L2512.63 1490.82C2512.63 1491.4 2513.08 1491.87 2513.63 1491.87 2514.18 1491.87 2514.63 1491.4 2514.63 1490.82L2514.63 1470.92C2514.63 1470.34 2514.18 1469.87 2513.63 1469.87Z" fill="#196B24" fill-rule="evenodd"/><path d="M2525.77 1469.9C2525.23 1469.77 2524.7 1470.14 2524.58 1470.71L2520.58 1490.6C2520.46 1491.18 2520.81 1491.73 2521.35 1491.85 2521.42 1491.86 2521.5 1491.87 2521.57 1491.87 2522.02 1491.87 2522.45 1491.53 2522.54 1491.04L2526.54 1471.15C2526.65 1470.57 2526.31 1470.02 2525.77 1469.9Z" fill="#196B24" fill-rule="evenodd"/><path d="M3559.95 1520.87C3559.12 1520.87 3558.45 1521.37 3558.45 1521.98L3558.45 1542.77C3558.45 1543.38 3559.12 1543.87 3559.95 1543.87 3560.78 1543.87 3561.45 1543.38 3561.45 1542.77L3561.45 1521.98C3561.45 1521.36 3560.78 1520.87 3559.95 1520.87Z" fill="#196B24" fill-rule="evenodd"/><path d="M3573.57 1520.9C3572.94 1520.77 3572.32 1521.15 3572.18 1521.75L3567.51 1542.55C3567.37 1543.15 3567.78 1543.73 3568.41 1543.85 3568.5 1543.86 3568.58 1543.87 3568.66 1543.87 3569.2 1543.87 3569.69 1543.52 3569.8 1543L3574.46 1522.21C3574.59 1521.6 3574.2 1521.03 3573.57 1520.9Z" fill="#196B24" fill-rule="evenodd"/><path d="M2940.13 1459.87C2939.85 1459.87 2939.63 1460.35 2939.63 1460.92L2939.63 1480.82C2939.63 1481.4 2939.85 1481.87 2940.13 1481.87 2940.41 1481.87 2940.63 1481.4 2940.63 1480.82L2940.63 1460.92C2940.63 1460.35 2940.4 1459.87 2940.13 1459.87Z" fill="#196B24" fill-rule="evenodd"/><path d="M2926.41 1459.9C2925.78 1460.02 2925.38 1460.57 2925.51 1461.15L2930.18 1481.04C2930.29 1481.53 2930.78 1481.87 2931.33 1481.87 2931.4 1481.87 2931.48 1481.86 2931.56 1481.85 2932.19 1481.73 2932.6 1481.18 2932.46 1480.6L2927.8 1460.71C2927.67 1460.14 2927.05 1459.77 2926.41 1459.9Z" fill="#196B24" fill-rule="evenodd"/><path d="M4005.95 1500.87C4005.13 1500.87 4004.45 1501.35 4004.45 1501.92L4004.45 1521.82C4004.45 1522.4 4005.13 1522.87 4005.95 1522.87 4006.78 1522.87 4007.45 1522.4 4007.45 1521.82L4007.45 1501.92C4007.45 1501.34 4006.78 1500.87 4005.95 1500.87Z" fill="#196B24" fill-rule="evenodd"/><path d="M3992.35 1500.9C3991.81 1501.02 3991.46 1501.57 3991.58 1502.15L3995.58 1522.04C3995.68 1522.53 3996.1 1522.87 3996.56 1522.87 3996.62 1522.87 3996.7 1522.86 3996.77 1522.85 3997.31 1522.73 3997.66 1522.18 3997.54 1521.6L3993.54 1501.71C3993.42 1501.14 3992.92 1500.77 3992.35 1500.9Z" fill="#196B24" fill-rule="evenodd"/><path d="M3260.51 1471.34C3260.51 1470.52 3259.98 1469.84 3259.34 1469.84L3062.68 1469.84C3062.03 1469.84 3061.51 1470.52 3061.51 1471.34 3061.51 1472.17 3062.03 1472.84 3062.68 1472.84L3259.34 1472.84C3259.98 1472.84 3260.51 1472.17 3260.51 1471.34Z" fill="#196B24" fill-rule="evenodd"/><path d="M3411.34 1490.9 3214.68 1490.9C3214.03 1490.9 3213.51 1491.13 3213.51 1491.4 3213.51 1491.67 3214.03 1491.9 3214.68 1491.9L3411.34 1491.9C3411.98 1491.9 3412.51 1491.67 3412.51 1491.4 3412.51 1491.12 3411.98 1490.9 3411.34 1490.9Z" fill="#196B24" fill-rule="evenodd"/><path d="M3921.34 1459.9 3724.68 1459.9C3724.03 1459.9 3723.51 1460.13 3723.51 1460.4 3723.51 1460.67 3724.03 1460.9 3724.68 1460.9L3921.34 1460.9C3921.98 1460.9 3922.51 1460.67 3922.51 1460.4 3922.51 1460.13 3921.98 1459.9 3921.34 1459.9Z" fill="#196B24" fill-rule="evenodd"/><path d="M2833.32 1541.9 2754.69 1541.9C2754.05 1541.9 2753.51 1542.35 2753.51 1542.9 2753.51 1543.45 2754.05 1543.9 2754.69 1543.9L2833.32 1543.9C2833.98 1543.9 2834.51 1543.45 2834.51 1542.9 2834.51 1542.35 2833.97 1541.9 2833.32 1541.9Z" fill="#196B24" fill-rule="evenodd"/></g></svg>