<svg width="1468" height="1151" xmlns="http://www.w3.org/2000/svg" xmlns:xlink="http://www.w3.org/1999/xlink" xml:space="preserve" overflow="hidden"><defs><clipPath id="clip0"><rect x="1479" y="589" width="1468" height="1151"/></clipPath></defs><g clip-path="url(#clip0)" transform="translate(-1479 -589)"><path d="M2732.43 1420 2837.57 1420C2846.09 1420 2853 1413.09 2853 1404.56L2853 1400.44C2853 1391.91 2846.09 1385 2837.57 1385L2732.43 1385C2723.91 1385 2717 1391.91 2717 1400.44L2717 1404.56C2717 1413.09 2723.91 1420 2732.43 1420Z" fill="#55A8FF" fill-rule="evenodd"/><path d="M1897.53 1486 2085.48 1486C2094.05 1486 2101 1479.09 2101 1470.56L2101 1466.44C2101 1457.91 2094.05 1451 2085.48 1451L1897.53 1451C1888.95 1451 1882 1457.91 1882 1466.44L1882 1470.56C1882 1479.09 1888.95 1486 1897.53 1486Z" fill="#55A8FF" fill-rule="evenodd"/><path d="M2297.45 1366 2484.55 1366C2493.08 1366 2500 1359.09 2500 1350.56L2500 1346.44C2500 1337.91 2493.08 1331 2484.55 1331L2297.45 1331C2288.92 1331 2282 1337.91 2282 1346.44L2282 1350.56C2282 1359.09 2288.92 1366 2297.45 1366Z" fill="#55A8FF" fill-rule="evenodd"/><path d="M2708.53 1183 2896.48 1183C2905.05 1183 2912 1176.09 2912 1167.56L2912 1163.44C2912 1154.91 2905.05 1148 2896.48 1148L2708.53 1148C2699.95 1148 2693 1154.91 2693 1163.44L2693 1167.56C2693 1176.09 2699.95 1183 2708.53 1183Z" fill="#55A8FF" fill-rule="evenodd"/><path d="M2048.53 967 2236.47 967C2245.05 967 2252 960.088 2252 951.562L2252 947.439C2252 938.912 2245.05 932 2236.47 932L2048.53 932C2039.95 932 2033 938.912 2033 947.439L2033 951.562C2033 960.088 2039.95 967 2048.53 967Z" fill="#55A8FF" fill-rule="evenodd"/><path d="M1578.49 1525 1645.51 1525C1654.07 1525 1661 1518.09 1661 1509.56L1661 1505.44C1661 1496.91 1654.07 1490 1645.51 1490L1578.49 1490C1569.93 1490 1563 1496.91 1563 1505.44L1563 1509.56C1563 1518.09 1569.93 1525 1578.49 1525Z" fill="#55A8FF" fill-rule="evenodd"/><path d="M1529.45 1262 1716.55 1262C1725.08 1262 1732 1255.09 1732 1246.56L1732 1242.44C1732 1233.91 1725.08 1227 1716.55 1227L1529.45 1227C1520.92 1227 1514 1233.91 1514 1242.44L1514 1246.56C1514 1255.09 1520.92 1262 1529.45 1262Z" fill="#55A8FF" fill-rule="evenodd"/><path d="M1582.06 1078 1947.51 1078C1956.07 1078 1963 1071.06 1963 1062.49L1963 1058.35C1963 1049.79 1956.07 1042.84 1947.51 1042.84L1890.92 1042.84C1882.37 1042.84 1875.43 1035.9 1875.43 1027.34L1875.43 1024.51C1875.43 1015.94 1868.5 1009 1859.94 1009L1494.49 1009C1485.93 1009 1479 1015.94 1479 1024.51L1479 1028.64C1479 1037.21 1485.93 1044.15 1494.49 1044.15L1551.08 1044.15C1559.63 1044.15 1566.57 1051.1 1566.57 1059.66L1566.57 1062.49C1566.57 1071.06 1573.5 1078 1582.06 1078Z" fill="#55A8FF" fill-rule="evenodd"/><path d="M2309.94 1242.09 2228.76 1242.09C2220.21 1242.09 2213.27 1235.16 2213.27 1226.6L2213.27 1224.57C2213.27 1216.02 2206.34 1209.08 2197.78 1209.08L2041.02 1209.08C2032.47 1209.08 2025.53 1202.15 2025.53 1193.6L2025.53 1193.6C2025.53 1185.04 2032.47 1178.11 2041.02 1178.11L2172.14 1178.11C2180.69 1178.11 2187.63 1171.18 2187.63 1162.62L2187.63 1158.49C2187.63 1149.93 2180.69 1143 2172.14 1143L1751.49 1143C1742.93 1143 1736 1149.93 1736 1158.49L1736 1162.62C1736 1171.18 1742.93 1178.11 1751.49 1178.11L1882.61 1178.11C1891.16 1178.11 1898.1 1185.04 1898.1 1193.6L1898.1 1193.6C1898.1 1202.15 1891.16 1209.08 1882.61 1209.08L1777.13 1209.08C1768.58 1209.08 1761.65 1216.02 1761.65 1224.57L1761.65 1228.7C1761.65 1237.25 1768.58 1244.19 1777.13 1244.19L1913.55 1244.19C1922.1 1244.19 1929.03 1251.13 1929.03 1259.68L1929.03 1261.71C1929.03 1270.27 1935.97 1277.2 1944.52 1277.2L2001.11 1277.2C2009.66 1277.2 2016.6 1284.13 2016.6 1292.69L2016.6 1295.51C2016.6 1304.06 2023.53 1311 2032.08 1311L2397.51 1311C2406.06 1311 2413 1304.06 2413 1295.51L2413 1291.38C2413 1282.83 2406.07 1275.89 2397.51 1275.89L2340.93 1275.89C2332.37 1275.89 2325.44 1268.96 2325.44 1260.4L2325.44 1257.58C2325.43 1249.03 2318.49 1242.09 2309.94 1242.09Z" fill="#55A8FF" fill-rule="evenodd"/><path d="M1870.95 1308 1505.49 1308C1496.93 1308 1490 1314.94 1490 1323.51L1490 1327.65C1490 1336.21 1496.93 1343.15 1505.49 1343.15L1562.08 1343.15C1570.63 1343.15 1577.57 1350.1 1577.57 1358.66L1577.57 1361.49C1577.57 1370.06 1584.5 1377 1593.05 1377L1958.51 1377C1967.07 1377 1974 1370.06 1974 1361.49L1974 1357.35C1974 1348.79 1967.07 1341.85 1958.51 1341.85L1901.92 1341.85C1893.37 1341.85 1886.43 1334.9 1886.43 1326.34L1886.43 1323.51C1886.43 1314.94 1879.5 1308 1870.95 1308Z" fill="#55A8FF" fill-rule="evenodd"/><path d="M2759.36 1249.5 2759.36 1249.5C2759.36 1240.96 2766.29 1234.04 2774.84 1234.04L2905.89 1234.04C2914.44 1234.04 2921.37 1227.12 2921.37 1218.58L2921.37 1214.46C2921.37 1205.92 2914.44 1199 2905.89 1199L2485.48 1199C2476.93 1199 2470 1205.92 2470 1214.46L2470 1218.58C2470 1227.12 2476.93 1234.04 2485.48 1234.04L2616.53 1234.04C2625.07 1234.04 2632 1240.96 2632 1249.5L2632 1249.5C2632 1258.03 2625.07 1264.96 2616.53 1264.96L2511.11 1264.96C2502.56 1264.96 2495.63 1271.88 2495.63 1280.42L2495.63 1284.54C2495.63 1293.08 2502.56 1300 2511.11 1300L2931.52 1300C2940.07 1300 2947 1293.08 2947 1284.54L2947 1280.42C2947 1271.88 2940.07 1264.96 2931.52 1264.96L2774.84 1264.96C2766.29 1264.96 2759.36 1258.04 2759.36 1249.5Z" fill="#55A8FF" fill-rule="evenodd"/><path d="M1914.5 1174.5C1917.73 1175.65 1920.34 1178.28 1921.24 1181.78 1922.02 1184.81 1921.04 1188.19 1918.61 1190.5" stroke="#000000" stroke-width="3.17297" stroke-miterlimit="8" fill="none" fill-rule="evenodd"/><path d="M1928.5 1154.5C1937.73 1157.87 1945.19 1165.62 1947.75 1175.9 1949.97 1184.78 1947.2 1194.7 1940.24 1201.5" stroke="#000000" stroke-width="3.17297" stroke-miterlimit="8" fill="none" fill-rule="evenodd"/><path d="M1941.5 1134.5C1957.19 1140.09 1969.86 1152.96 1974.23 1170.01 1978 1184.75 1973.29 1201.23 1961.46 1212.5" stroke="#000000" stroke-width="3.17297" stroke-miterlimit="8" fill="none" fill-rule="evenodd"/><path d="M2392.54 1195.02 2392.54 1195.02C2384.08 1197.14 2375.5 1192 2373.38 1183.53L2319.98 970.153C2317.86 961.685 2323 953.1 2331.46 950.978L2331.46 950.978C2339.92 948.856 2348.5 954.003 2350.62 962.471L2404.02 1175.85C2406.14 1184.32 2401 1192.9 2392.54 1195.02Z" stroke="#000000" stroke-width="3.17297" stroke-miterlimit="8" fill="#FA9082" fill-rule="evenodd"/><path d="M2154.04 1087.35C2103.43 1100.03 2072.67 1151.34 2085.35 1201.96 2098.03 1252.57 2149.34 1283.33 2199.96 1270.65 2250.57 1257.97 2281.33 1206.66 2268.65 1156.05 2255.97 1105.43 2204.66 1074.68 2154.04 1087.35ZM2194.02 1246.96C2156.49 1256.36 2118.44 1233.56 2109.03 1196.02 2099.63 1158.49 2122.44 1120.44 2159.98 1111.04 2197.51 1101.63 2235.56 1124.44 2244.96 1161.98 2254.36 1199.51 2231.55 1237.56 2194.02 1246.96Z" stroke="#000000" stroke-width="3.17297" stroke-miterlimit="8" fill="#E0003F" fill-rule="evenodd"/><path d="M2319.35 967.5 2038.5 1119.04 2055 1184.56 2374.5 1186.5Z" stroke="#000000" stroke-width="3.17297" stroke-miterlimit="8" fill="#E0003F" fill-rule="evenodd"/><path d="M1974.5 1105.5 2039.03 1118.67 2055.5 1184.46 2004.8 1226.5Z" stroke="#000000" stroke-width="3.17297" stroke-miterlimit="8" fill="#E0003F" fill-rule="evenodd"/><path d="M2143.5 1080.5 2301.5 998.5" stroke="#FFFFFF" stroke-width="3.17297" stroke-miterlimit="8" fill="none" fill-rule="evenodd"/><path d="M1992.5 1121.5 2027.5 1127.5" stroke="#FFFFFF" stroke-width="3.17297" stroke-miterlimit="8" fill="none" fill-rule="evenodd"/><path d="M2365.5 1061.5 2391.5 1168.5" stroke="#FFFFFF" stroke-width="3.17297" stroke-miterlimit="8" fill="none" fill-rule="evenodd"/><path d="M2109.5 1332.5 2109.5 1231.5 2232.5 1231.5 2232.5 1332.5" stroke="#000000" stroke-width="3.17297" stroke-miterlimit="8" fill="#FCFCF7" fill-rule="evenodd"/><path d="M2230.73 1739.5 2213.66 1363.15 2213.66 1363.15C2228.86 1355.71 2238.5 1340.27 2238.5 1323.36L2238.5 1216.98C2238.5 1208.98 2232.01 1202.5 2224 1202.5L2224 1202.5C2215.99 1202.5 2209.5 1208.98 2209.5 1216.98L2209.5 1236.47" stroke="#000000" stroke-width="3.17297" stroke-miterlimit="8" fill="#FCFCF7" fill-rule="evenodd"/><path d="M2122.5 1255.95 2122.5 1231.98C2122.5 1223.98 2116.01 1217.5 2108 1217.5L2108 1217.5C2099.99 1217.5 2093.5 1223.98 2093.5 1231.98L2093.5 1306.53C2093.5 1316.2 2097.96 1325.33 2105.59 1331.28L2151.5 1367.11 2140.6 1739.5" stroke="#000000" stroke-width="3.17297" stroke-miterlimit="8" fill="#FCFCF7" fill-rule="evenodd"/><path d="M2122.5 1256.5 2122.5 1204.14C2122.5 1196.05 2128.99 1189.5 2137 1189.5L2137 1189.5C2145.01 1189.5 2151.5 1196.06 2151.5 1204.14L2151.5 1237.04" stroke="#000000" stroke-width="3.17297" stroke-miterlimit="8" fill="#FCFCF7" fill-rule="evenodd"/><path d="M2180.5 1236.5 2180.5 1208.71C2180.5 1200.86 2186.99 1194.5 2195 1194.5L2195 1194.5C2203.01 1194.5 2209.5 1200.86 2209.5 1208.71L2209.5 1236.5" stroke="#000000" stroke-width="3.17297" stroke-miterlimit="8" fill="#FCFCF7" fill-rule="evenodd"/><path d="M2151.5 1236.5 2151.5 1200.94C2151.5 1192.97 2157.99 1186.5 2166 1186.5L2166 1186.5C2174.01 1186.5 2180.5 1192.97 2180.5 1200.94L2180.5 1236.5" stroke="#000000" stroke-width="3.17297" stroke-miterlimit="8" fill="#FCFCF7" fill-rule="evenodd"/><path d="M2579.5 1472.5 2579.5 1371.5 2702.5 1371.5 2702.5 1472.5" stroke="#000000" stroke-width="3.17297" stroke-miterlimit="8" fill="#FCFCF7" fill-rule="evenodd"/><path d="M2700.73 1739.5 2683.66 1503.83 2683.66 1503.83C2698.86 1496.4 2708.5 1481 2708.5 1464.13L2708.5 1357.96C2708.5 1349.97 2702.01 1343.5 2694 1343.5L2694 1343.5C2685.99 1343.5 2679.5 1349.97 2679.5 1357.96L2679.5 1377.41" stroke="#000000" stroke-width="3.17297" stroke-miterlimit="8" fill="#FCFCF7" fill-rule="evenodd"/><path d="M2592.5 1395.96 2592.5 1371.98C2592.5 1363.99 2586 1357.5 2578 1357.5L2578 1357.5C2569.99 1357.5 2563.5 1363.99 2563.5 1371.98L2563.5 1446.56C2563.5 1456.24 2567.96 1465.37 2575.59 1471.32L2621.5 1507.16 2610.59 1739.5" stroke="#000000" stroke-width="3.17297" stroke-miterlimit="8" fill="#FCFCF7" fill-rule="evenodd"/><path d="M2592.5 1396.5 2592.5 1344.92C2592.5 1336.96 2598.99 1330.5 2607 1330.5L2607 1330.5C2615.01 1330.5 2621.5 1336.96 2621.5 1344.92L2621.5 1377.33" stroke="#000000" stroke-width="3.17297" stroke-miterlimit="8" fill="#FCFCF7" fill-rule="evenodd"/><path d="M2650.5 1377.5 2650.5 1349.05C2650.5 1341.02 2656.99 1334.5 2665 1334.5L2665 1334.5C2673.01 1334.5 2679.5 1341.02 2679.5 1349.05L2679.5 1377.5" stroke="#000000" stroke-width="3.17297" stroke-miterlimit="8" fill="#FCFCF7" fill-rule="evenodd"/><path d="M2621.5 1377.5 2621.5 1341.23C2621.5 1333.1 2627.99 1326.5 2636 1326.5L2636 1326.5C2644.01 1326.5 2650.5 1333.1 2650.5 1341.23L2650.5 1377.5" stroke="#000000" stroke-width="3.17297" stroke-miterlimit="8" fill="#FCFCF7" fill-rule="evenodd"/><path d="M1679.75 1415.5 1679.5 1371.5 1803.25 1371.5 1803.5 1415.5" stroke="#000000" stroke-width="3.17297" stroke-miterlimit="8" fill="#FCFCF7" fill-rule="evenodd"/><path d="M1800.73 1739.5 1783.66 1503.83 1783.66 1503.83C1798.86 1496.4 1808.5 1481 1808.5 1464.13L1808.5 1357.96C1808.5 1349.97 1802.01 1343.5 1794 1343.5L1794 1343.5C1785.99 1343.5 1779.5 1349.97 1779.5 1357.96L1779.5 1377.41" stroke="#000000" stroke-width="3.17297" stroke-miterlimit="8" fill="#FCFCF7" fill-rule="evenodd"/><path d="M1692.5 1395.96 1692.5 1371.98C1692.5 1363.99 1686.01 1357.5 1678 1357.5L1678 1357.5C1669.99 1357.5 1663.5 1363.99 1663.5 1371.98L1663.5 1446.56C1663.5 1456.24 1667.96 1465.37 1675.59 1471.32L1721.5 1507.16 1710.6 1739.5" stroke="#000000" stroke-width="3.17297" stroke-miterlimit="8" fill="#FCFCF7" fill-rule="evenodd"/><path d="M1692.5 1396.5 1692.5 1344.92C1692.5 1336.96 1698.99 1330.5 1707 1330.5L1707 1330.5C1715.01 1330.5 1721.5 1336.96 1721.5 1344.92L1721.5 1377.33" stroke="#000000" stroke-width="3.17297" stroke-miterlimit="8" fill="#FCFCF7" fill-rule="evenodd"/><path d="M1750.5 1377.5 1750.5 1349.05C1750.5 1341.02 1756.99 1334.5 1765 1334.5L1765 1334.5C1773.01 1334.5 1779.5 1341.02 1779.5 1349.05L1779.5 1377.5" stroke="#000000" stroke-width="3.17297" stroke-miterlimit="8" fill="#FCFCF7" fill-rule="evenodd"/><path d="M1721.5 1377.5 1721.5 1341.23C1721.5 1333.1 1727.99 1326.5 1736 1326.5L1736 1326.5C1744.01 1326.5 1750.5 1333.1 1750.5 1341.23L1750.5 1377.5" stroke="#000000" stroke-width="3.17297" stroke-miterlimit="8" fill="#FCFCF7" fill-rule="evenodd"/><path d="M2340.5 1739.5 2350.5 1513.5 2415.51 1513.5 2425.5 1739.5" stroke="#000000" stroke-width="3.17297" stroke-miterlimit="8" fill="#FCFCF7" fill-rule="evenodd"/><path d="M2359.18 1547.62C2351.48 1544.44 2344.4 1539.75 2338.39 1533.74L2335.61 1530.97C2329.13 1524.49 2325.5 1515.72 2325.5 1506.58L2325.5 1428.5 2440.5 1428.5 2440.5 1507.91C2440.5 1516.26 2437.47 1524.33 2431.96 1530.62L2431.96 1530.62C2425.37 1538.15 2417.19 1543.94 2408.13 1547.67 2400.47 1550.82 2392.19 1552.5 2383.72 1552.5" stroke="#000000" stroke-width="3.17297" stroke-miterlimit="8" fill="#FCFCF7" fill-rule="evenodd"/><path d="M2440.5 1402.89 2440.5 1434.11C2440.5 1442.06 2434.01 1448.5 2426 1448.5L2426 1448.5C2417.99 1448.5 2411.5 1442.06 2411.5 1434.11L2411.5 1402.89C2411.5 1394.94 2417.99 1388.5 2426 1388.5L2426 1388.5C2434.01 1388.5 2440.5 1394.95 2440.5 1402.89Z" stroke="#000000" stroke-width="3.17297" stroke-miterlimit="8" fill="#FCFCF7" fill-rule="evenodd"/><path d="M2411.5 1402.89 2411.5 1434.11C2411.5 1442.06 2405.01 1448.5 2397 1448.5L2397 1448.5C2388.99 1448.5 2382.5 1442.06 2382.5 1434.11L2382.5 1402.89C2382.5 1394.94 2388.99 1388.5 2397 1388.5L2397 1388.5C2405.01 1388.5 2411.5 1394.95 2411.5 1402.89Z" stroke="#000000" stroke-width="3.17297" stroke-miterlimit="8" fill="#FCFCF7" fill-rule="evenodd"/><path d="M2382.5 1402.89 2382.5 1434.11C2382.5 1442.06 2376.01 1448.5 2368 1448.5L2368 1448.5C2359.99 1448.5 2353.5 1442.06 2353.5 1434.11L2353.5 1402.89C2353.5 1394.94 2359.99 1388.5 2368 1388.5L2368 1388.5C2376.01 1388.5 2382.5 1394.95 2382.5 1402.89Z" stroke="#000000" stroke-width="3.17297" stroke-miterlimit="8" fill="#FCFCF7" fill-rule="evenodd"/><path d="M2353.5 1402.89 2353.5 1434.11C2353.5 1442.06 2347.23 1448.5 2339.5 1448.5L2339.5 1448.5C2331.77 1448.5 2325.5 1442.06 2325.5 1434.11L2325.5 1402.89C2325.5 1394.94 2331.77 1388.5 2339.5 1388.5L2339.5 1388.5C2347.23 1388.5 2353.5 1394.95 2353.5 1402.89Z" stroke="#000000" stroke-width="3.17297" stroke-miterlimit="8" fill="#FCFCF7" fill-rule="evenodd"/><path d="M2405.58 1476.26 2405.58 1476.26C2405.58 1467.34 2412.81 1460.11 2421.74 1460.11L2422.93 1460.11 2405.43 1460.11C2397.95 1460.11 2391.28 1454.65 2390.57 1447.21 2389.75 1438.68 2396.45 1431.5 2404.82 1431.5L2450.18 1431.5C2458.09 1431.5 2464.5 1437.9 2464.5 1445.81L2464.5 1473.98C2464.5 1487.32 2453.68 1498.14 2440.33 1498.14L2440.33 1498.14 2440.33 1507.5" stroke="#000000" stroke-width="3.17297" stroke-miterlimit="8" fill="#FCFCF7" fill-rule="evenodd"/><path d="M1877.5 1739.5 1887.38 1513.5 1951.62 1513.5 1961.5 1739.5" stroke="#000000" stroke-width="3.17297" stroke-miterlimit="8" fill="#FCFCF7" fill-rule="evenodd"/><path d="M1895.18 1547.62C1887.48 1544.44 1880.4 1539.75 1874.39 1533.74L1871.61 1530.97C1865.13 1524.49 1861.5 1515.72 1861.5 1506.58L1861.5 1428.5 1976.5 1428.5 1976.5 1507.91C1976.5 1516.26 1973.47 1524.33 1967.96 1530.62L1967.96 1530.62C1961.37 1538.15 1953.19 1543.94 1944.13 1547.67 1936.47 1550.82 1928.19 1552.5 1919.71 1552.5" stroke="#000000" stroke-width="3.17297" stroke-miterlimit="8" fill="#FCFCF7" fill-rule="evenodd"/><path d="M1976.5 1402.89 1976.5 1434.11C1976.5 1442.06 1970.23 1448.5 1962.5 1448.5L1962.5 1448.5C1954.77 1448.5 1948.5 1442.06 1948.5 1434.11L1948.5 1402.89C1948.5 1394.94 1954.77 1388.5 1962.5 1388.5L1962.5 1388.5C1970.23 1388.5 1976.5 1394.95 1976.5 1402.89Z" stroke="#000000" stroke-width="3.17297" stroke-miterlimit="8" fill="#FCFCF7" fill-rule="evenodd"/><path d="M1948.5 1402.89 1948.5 1434.11C1948.5 1442.06 1942.01 1448.5 1934 1448.5L1934 1448.5C1925.99 1448.5 1919.5 1442.06 1919.5 1434.11L1919.5 1402.89C1919.5 1394.94 1925.99 1388.5 1934 1388.5L1934 1388.5C1942.01 1388.5 1948.5 1394.95 1948.5 1402.89Z" stroke="#000000" stroke-width="3.17297" stroke-miterlimit="8" fill="#FCFCF7" fill-rule="evenodd"/><path d="M1919.5 1402.89 1919.5 1434.11C1919.5 1442.06 1913.01 1448.5 1905 1448.5L1905 1448.5C1896.99 1448.5 1890.5 1442.06 1890.5 1434.11L1890.5 1402.89C1890.5 1394.94 1896.99 1388.5 1905 1388.5L1905 1388.5C1913.01 1388.5 1919.5 1394.95 1919.5 1402.89Z" stroke="#000000" stroke-width="3.17297" stroke-miterlimit="8" fill="#FCFCF7" fill-rule="evenodd"/><path d="M1890.5 1402.89 1890.5 1434.11C1890.5 1442.06 1884.01 1448.5 1876 1448.5L1876 1448.5C1867.99 1448.5 1861.5 1442.06 1861.5 1434.11L1861.5 1402.89C1861.5 1394.94 1867.99 1388.5 1876 1388.5L1876 1388.5C1884.01 1388.5 1890.5 1394.95 1890.5 1402.89Z" stroke="#000000" stroke-width="3.17297" stroke-miterlimit="8" fill="#FCFCF7" fill-rule="evenodd"/><path d="M1941.78 1476.26 1941.78 1476.26C1941.78 1467.34 1949.11 1460.11 1958.16 1460.11L1959.37 1460.11 1941.63 1460.11C1934.05 1460.11 1927.29 1454.65 1926.57 1447.21 1925.74 1438.68 1932.53 1431.5 1941.01 1431.5L1986.99 1431.5C1995.01 1431.5 2001.5 1437.9 2001.5 1445.81L2001.5 1473.98C2001.5 1487.32 1990.53 1498.14 1977 1498.14L1977 1498.14 1977 1507.5" stroke="#000000" stroke-width="3.17297" stroke-miterlimit="8" fill="#FCFCF7" fill-rule="evenodd"/><path d="M2059.5 1436.5 2059.5 1568.5" stroke="#000000" stroke-width="3.17297" stroke-miterlimit="8" fill="none" fill-rule="evenodd"/><path d="M2079.5 1491.5 2079.5 1624.5" stroke="#000000" stroke-width="3.17297" stroke-miterlimit="8" fill="none" fill-rule="evenodd"/><path d="M1838.5 1327.5 1838.5 1459.5" stroke="#000000" stroke-width="3.17297" stroke-miterlimit="8" fill="none" fill-rule="evenodd"/><path d="M1796.5 1202.5 1796.5 1215.5" stroke="#000000" stroke-width="3.17297" stroke-miterlimit="8" fill="none" fill-rule="evenodd"/><path d="M1790.5 1209.5 1802.5 1209.5" stroke="#000000" stroke-width="3.17297" stroke-miterlimit="8" fill="none" fill-rule="evenodd"/><path d="M2809.5 1414.5 2809.5 1427.5" stroke="#000000" stroke-width="3.17297" stroke-miterlimit="8" fill="none" fill-rule="evenodd"/><path d="M2803.5 1421.5 2815.5 1421.5" stroke="#000000" stroke-width="3.17297" stroke-miterlimit="8" fill="none" fill-rule="evenodd"/><path d="M1657.5 1535.5 1657.5 1547.5" stroke="#000000" stroke-width="3.17297" stroke-miterlimit="8" fill="none" fill-rule="evenodd"/><path d="M1651.5 1541.5 1663.5 1541.5" stroke="#000000" stroke-width="3.17297" stroke-miterlimit="8" fill="none" fill-rule="evenodd"/><path d="M1855.5 1102.5 1855.5 1115.5" stroke="#000000" stroke-width="3.17297" stroke-miterlimit="8" fill="none" fill-rule="evenodd"/><path d="M1849.5 1108.5 1861.5 1108.5" stroke="#000000" stroke-width="3.17297" stroke-miterlimit="8" fill="none" fill-rule="evenodd"/><path d="M1904.5 1281.5 1904.5 1294.5" stroke="#000000" stroke-width="3.17297" stroke-miterlimit="8" fill="none" fill-rule="evenodd"/><path d="M1898.5 1288.5 1911.5 1288.5" stroke="#000000" stroke-width="3.17297" stroke-miterlimit="8" fill="none" fill-rule="evenodd"/><path d="M2603.5 1264.5 2603.5 1276.5" stroke="#000000" stroke-width="3.17297" stroke-miterlimit="8" fill="none" fill-rule="evenodd"/><path d="M2596.5 1270.5 2609.5 1270.5" stroke="#000000" stroke-width="3.17297" stroke-miterlimit="8" fill="none" fill-rule="evenodd"/><path d="M2278.5 1390.5 2278.5 1402.5" stroke="#000000" stroke-width="3.17297" stroke-miterlimit="8" fill="none" fill-rule="evenodd"/><path d="M2271.5 1396.5 2284.5 1396.5" stroke="#000000" stroke-width="3.17297" stroke-miterlimit="8" fill="none" fill-rule="evenodd"/><path d="M2363.5 1258.5 2363.5 1270.5" stroke="#000000" stroke-width="3.17297" stroke-miterlimit="8" fill="none" fill-rule="evenodd"/><path d="M2357.5 1264.5 2369.5 1264.5" stroke="#000000" stroke-width="3.17297" stroke-miterlimit="8" fill="none" fill-rule="evenodd"/><path d="M2765.5 1196.5 2765.5 1209.5" stroke="#000000" stroke-width="3.17297" stroke-miterlimit="8" fill="none" fill-rule="evenodd"/><path d="M2759.5 1202.5 2771.5 1202.5" stroke="#000000" stroke-width="3.17297" stroke-miterlimit="8" fill="none" fill-rule="evenodd"/><path d="M1692.5 951.5 1692.5 963.5" stroke="#000000" stroke-width="3.17297" stroke-miterlimit="8" fill="none" fill-rule="evenodd"/><path d="M1686.5 957.5 1698.5 957.5" stroke="#000000" stroke-width="3.17297" stroke-miterlimit="8" fill="none" fill-rule="evenodd"/><path d="M2613.5 1108.5 2613.5 1121.5" stroke="#000000" stroke-width="3.17297" stroke-miterlimit="8" fill="none" fill-rule="evenodd"/><path d="M2607.5 1115.5 2620.5 1115.5" stroke="#000000" stroke-width="3.17297" stroke-miterlimit="8" fill="none" fill-rule="evenodd"/><path d="M1824.5 920.5 1824.5 932.5" stroke="#000000" stroke-width="3.17297" stroke-miterlimit="8" fill="none" fill-rule="evenodd"/><path d="M1817.5 926.5 1830.5 926.5" stroke="#000000" stroke-width="3.17297" stroke-miterlimit="8" fill="none" fill-rule="evenodd"/><path d="M2280.5 1568.5 2280.5 1701.5" stroke="#000000" stroke-width="3.17297" stroke-miterlimit="8" fill="none" fill-rule="evenodd"/><path d="M2493.5 1393.5 2493.5 1526.5" stroke="#000000" stroke-width="3.17297" stroke-miterlimit="8" fill="none" fill-rule="evenodd"/><path d="M2729.5 1393.5 2729.5 1526.5" stroke="#000000" stroke-width="3.17297" stroke-miterlimit="8" fill="none" fill-rule="evenodd"/><path d="M2537.5 1195.5 2537.5 1646.5" stroke="#000000" stroke-width="3.17297" stroke-miterlimit="8" fill="none" fill-rule="evenodd"/><path d="M2765.5 1568.5 2765.5 1624.5" stroke="#000000" stroke-width="3.17297" stroke-miterlimit="8" fill="none" fill-rule="evenodd"/><path d="M1752.5 1270.5C1752.5 1273.81 1749.81 1276.5 1746.5 1276.5 1743.19 1276.5 1740.5 1273.81 1740.5 1270.5 1740.5 1267.19 1743.19 1264.5 1746.5 1264.5 1749.81 1264.5 1752.5 1267.19 1752.5 1270.5Z" stroke="#000000" stroke-width="3.17297" stroke-miterlimit="8" fill="#FCFCF7" fill-rule="evenodd"/><path d="M1569.5 1459.5C1569.5 1462.81 1566.81 1465.5 1563.5 1465.5 1560.19 1465.5 1557.5 1462.81 1557.5 1459.5 1557.5 1456.18 1560.19 1453.5 1563.5 1453.5 1566.81 1453.5 1569.5 1456.18 1569.5 1459.5Z" stroke="#000000" stroke-width="3.17297" stroke-miterlimit="8" fill="#FCFCF7" fill-rule="evenodd"/><path d="M2798.5 1047C2798.5 1050.59 2795.59 1053.5 2792 1053.5 2788.41 1053.5 2785.5 1050.59 2785.5 1047 2785.5 1043.41 2788.41 1040.5 2792 1040.5 2795.59 1040.5 2798.5 1043.41 2798.5 1047Z" stroke="#000000" stroke-width="3.17297" stroke-miterlimit="8" fill="#FCFCF7" fill-rule="evenodd"/><path d="M2603.5 986C2603.5 989.59 2600.59 992.5 2597 992.5 2593.41 992.5 2590.5 989.59 2590.5 986 2590.5 982.41 2593.41 979.5 2597 979.5 2600.59 979.5 2603.5 982.41 2603.5 986Z" stroke="#000000" stroke-width="3.17297" stroke-miterlimit="8" fill="#FCFCF7" fill-rule="evenodd"/><path d="M1921.5 992C1921.5 995.59 1918.59 998.5 1915 998.5 1911.41 998.5 1908.5 995.59 1908.5 992 1908.5 988.41 1911.41 985.5 1915 985.5 1918.59 985.5 1921.5 988.41 1921.5 992Z" stroke="#000000" stroke-width="3.17297" stroke-miterlimit="8" fill="#FCFCF7" fill-rule="evenodd"/><path d="M1635.5 1174C1635.5 1177.59 1632.81 1180.5 1629.5 1180.5 1626.19 1180.5 1623.5 1177.59 1623.5 1174 1623.5 1170.41 1626.19 1167.5 1629.5 1167.5 1632.81 1167.5 1635.5 1170.41 1635.5 1174Z" stroke="#000000" stroke-width="3.17297" stroke-miterlimit="8" fill="#FCFCF7" fill-rule="evenodd"/><path d="M2038.5 1382C2038.5 1385.59 2035.81 1388.5 2032.5 1388.5 2029.19 1388.5 2026.5 1385.59 2026.5 1382 2026.5 1378.41 2029.19 1375.5 2032.5 1375.5 2035.81 1375.5 2038.5 1378.41 2038.5 1382Z" stroke="#000000" stroke-width="3.17297" stroke-miterlimit="8" fill="#FCFCF7" fill-rule="evenodd"/><path d="M2856.5 1343C2856.5 1346.59 2853.59 1349.5 2850 1349.5 2846.41 1349.5 2843.5 1346.59 2843.5 1343 2843.5 1339.41 2846.41 1336.5 2850 1336.5 2853.59 1336.5 2856.5 1339.41 2856.5 1343Z" stroke="#000000" stroke-width="3.17297" stroke-miterlimit="8" fill="#FCFCF7" fill-rule="evenodd"/><path d="M2448.5 964.5 2481.5 950.5" stroke="#000000" stroke-width="3.17297" stroke-miterlimit="8" fill="none" fill-rule="evenodd"/><path d="M2488.5 1128.5 2521.5 1127.5" stroke="#000000" stroke-width="3.17297" stroke-miterlimit="8" fill="none" fill-rule="evenodd"/><path d="M2476.5 1046.5 2511.5 1036.5" stroke="#000000" stroke-width="3.17297" stroke-miterlimit="8" fill="none" fill-rule="evenodd"/><text font-family="Arial,Arial_MSFontService,sans-serif" font-weight="400" font-size="134" transform="matrix(1 0 0 1 1783.02 760)">Follow</text><text font-family="Arial,Arial_MSFontService,sans-serif" font-weight="400" font-size="134" transform="matrix(1 0 0 1 2409.22 760)">Us!</text><path d="M1824.5 831.5 2498.68 831.5C2526.66 831.5 2540.67 864.941 2520.88 884.5L2520.88 884.5 2613.5 831.5" stroke="#000000" stroke-width="3.17297" stroke-miterlimit="8" fill="#FCFCF7" fill-rule="evenodd"/></g></svg>