<svg width="2338" height="1719" xmlns="http://www.w3.org/2000/svg" xmlns:xlink="http://www.w3.org/1999/xlink" xml:space="preserve" overflow="hidden"><defs><clipPath id="clip0"><rect x="1031" y="378" width="2338" height="1719"/></clipPath></defs><g clip-path="url(#clip0)" transform="translate(-1031 -378)"><path d="M1031 378 3369 378 3369 2097 1031 2097Z" fill="#E9F7F8" fill-rule="evenodd"/><path d="M1370.17 1069.03 2078.55 678.044C2150.3 638.445 2238.55 644.386 2304.35 693.25L3053.33 1249.51C3199.56 1358.1 3146.9 1588.79 2968.05 1623.13L1946.57 1819.25C1885.19 1831.03 1821.75 1814.75 1773.62 1774.85L1337.73 1413.46C1224.17 1319.31 1241.03 1140.31 1370.17 1069.03Z" fill="#E9F7F8" fill-rule="evenodd"/><path d="M1535.66 1812 1435.34 1812 1415 1708 1556 1708Z" fill="#FFC154" fill-rule="evenodd"/><path d="M1424.2 1755 1550.13 1738 1556 1708 1415 1708Z" fill="#FF9E55" fill-rule="evenodd"/><path d="M1485.01 1699.98C1545.35 1616.41 1485.78 1566.66 1485.01 1566.02L1485.01 1566C1485.01 1566 1485 1566.01 1485 1566.01 1485 1566.01 1484.99 1566 1484.99 1566L1484.99 1566.02C1484.22 1566.66 1424.65 1616.41 1484.99 1699.98L1484.99 1700C1484.99 1700 1485 1699.99 1485 1699.99 1485 1699.99 1485.01 1700 1485.01 1700L1485.01 1699.98Z" fill="#A7E070" fill-rule="evenodd"/><path d="M1480 1711C1480.75 1595.62 1551.86 1587.33 1611 1628.8L1480 1711Z" fill="#75B75A" fill-rule="evenodd"/><path d="M1490 1714C1490 1640.58 1573.25 1615.87 1616 1699.77L1490 1714Z" fill="#A7E070" fill-rule="evenodd"/><path d="M1489 1711C1488.25 1595.62 1417.14 1587.33 1358 1628.8L1489 1711Z" fill="#75B75A" fill-rule="evenodd"/><path d="M1479 1714C1479 1640.58 1396.41 1615.87 1354 1699.77L1479 1714Z" fill="#A7E070" fill-rule="evenodd"/><path d="M1404 1704 1564 1704 1564 1728 1404 1728Z" fill="#FFC154" fill-rule="evenodd"/><path d="M2073 1144.77 2004.42 1096.03 2004.42 806.708C2004.42 792.509 1992.92 781 1978.73 781L1442.69 781C1428.5 781 1417 792.509 1417 806.708L1417 1273.29C1417 1287.49 1428.5 1299 1442.69 1299L1978.73 1299C1992.92 1299 2004.42 1287.49 2004.42 1273.29L2004.42 1193.49 2073 1144.77Z" fill="#FFFFFF" fill-rule="evenodd"/><path d="M1514.5 844.953C1533.26 849.401 1544.85 868.211 1540.41 886.966 1535.96 905.721 1517.15 917.318 1498.39 912.87 1479.64 908.421 1468.04 889.611 1472.49 870.856 1476.94 852.101 1495.75 840.504 1514.5 844.953Z" fill="#A7E070" fill-rule="evenodd"/><path d="M1940.81 883 1569.19 883C1564.11 883 1560 887.255 1560 892.5 1560 897.748 1564.11 902 1569.19 902L1940.81 902C1945.89 902 1950 897.748 1950 892.5 1950 887.252 1945.89 883 1940.81 883Z" fill="#D6E6FD" fill-rule="evenodd"/><path d="M1569.22 874.001 1738.78 874.001C1743.87 874.001 1748 869.969 1748 865 1748 860.028 1743.87 856 1738.78 856L1569.22 856C1564.13 856 1560 860.031 1560 865 1560 869.969 1564.13 874.001 1569.22 874.001Z" fill="#BDD3F4" fill-rule="evenodd"/><path d="M1881 984.5C1881 1003.55 1896.45 1019 1915.5 1019 1934.55 1019 1950 1003.55 1950 984.5 1950 965.448 1934.55 950 1915.5 950 1896.44 950 1881 965.448 1881 984.5Z" fill="#FFC154" fill-rule="evenodd"/><path d="M1852.81 989 1481.19 989C1476.11 989 1472 993.255 1472 998.5 1472 1003.75 1476.11 1008 1481.19 1008L1852.81 1008C1857.89 1008 1862 1003.74 1862 998.5 1862 993.252 1857.89 989 1852.81 989Z" fill="#D6E6FD" fill-rule="evenodd"/><path d="M1481.17 980 1649.83 980C1654.9 980 1659 975.972 1659 971 1659 966.028 1654.89 962 1649.83 962L1481.17 962C1476.1 962 1472 966.028 1472 971 1472 975.969 1476.11 980 1481.17 980Z" fill="#BDD3F4" fill-rule="evenodd"/><path d="M1541 1092C1541 1111.33 1525.55 1127 1506.5 1127 1487.45 1127 1472 1111.33 1472 1092 1472 1072.67 1487.45 1057 1506.5 1057 1525.55 1057 1541 1072.67 1541 1092Z" fill="#A7E070" fill-rule="evenodd"/><path d="M1940.81 1097 1569.19 1097C1564.11 1097 1560 1101.03 1560 1106 1560 1110.97 1564.11 1115 1569.19 1115L1940.81 1115C1945.89 1115 1950 1110.97 1950 1106 1950 1101.03 1945.89 1097 1940.81 1097Z" fill="#D6E6FD" fill-rule="evenodd"/><path d="M1569.22 1088 1738.78 1088C1743.87 1088 1748 1083.75 1748 1078.5 1748 1073.25 1743.87 1069 1738.78 1069L1569.22 1069C1564.13 1069 1560 1073.25 1560 1078.5 1560 1083.74 1564.13 1088 1569.22 1088Z" fill="#BDD3F4" fill-rule="evenodd"/><path d="M1950 1198C1950 1217.33 1934.55 1233 1915.5 1233 1896.45 1233 1881 1217.33 1881 1198 1881 1178.67 1896.45 1163 1915.5 1163 1934.55 1163 1950 1178.67 1950 1198Z" fill="#FFC154" fill-rule="evenodd"/><path d="M1852.81 1202 1481.19 1202C1476.11 1202 1472 1206.25 1472 1211.5 1472 1216.75 1476.11 1221 1481.19 1221L1852.81 1221C1857.89 1221 1862 1216.74 1862 1211.5 1862 1206.25 1857.89 1202 1852.81 1202Z" fill="#D6E6FD" fill-rule="evenodd"/><path d="M1481.17 1193 1649.83 1193C1654.9 1193 1659 1188.97 1659 1184 1659 1179.03 1654.89 1175 1649.83 1175L1481.17 1175C1476.1 1175 1472 1179.03 1472 1184 1472 1188.97 1476.11 1193 1481.17 1193Z" fill="#BDD3F4" fill-rule="evenodd"/><path d="M2270.28 1667.01 2241.79 1371.83C2238.92 1342.14 2212.5 1320.39 2182.76 1323.25 2153.03 1326.11 2131.25 1352.51 2134.11 1382.2L2158.24 1632.14 1822.59 1723.8C1803.28 1729.13 1790.85 1748.52 1794.7 1768.52 1798.74 1789.56 1819.1 1803.34 1840.16 1799.3L2228.68 1724.8 2275 1715.93 2270.28 1667.01Z" fill="#FFA67A" fill-rule="evenodd"/><path d="M2241.86 1372.27C2241.69 1370.48 2241.42 1368.73 2241.08 1367L2134.05 1375.34C2133.96 1377.74 2133.97 1380.17 2134.21 1382.63L2147.61 1521.34 2257 1529 2241.86 1372.27Z" fill="#EF946C" fill-rule="evenodd"/><path d="M2287 1490.91 2112.17 1507 2099.32 1366.73C2095.52 1325.19 2126.03 1288.41 2167.48 1284.6L2192.2 1282.32C2233.66 1278.51 2270.34 1309.09 2274.15 1350.64L2287 1490.91Z" fill="#4278C6" fill-rule="evenodd"/><path d="M1830.66 1800.23C1795.06 1802.39 1733.28 1801.76 1708.64 1774.63 1708.64 1774.63 1654.39 1795.02 1639.3 1795.95 1624.22 1796.87 1618 1784.41 1618 1784.41 1618 1784.41 1707.76 1716.8 1727.31 1709.68 1746.86 1702.56 1835.72 1720.36 1835.72 1720.36L1850.21 1772.95C1853.86 1786.21 1844.37 1799.39 1830.66 1800.23Z" fill="#FFA67A" fill-rule="evenodd"/><path d="M2384.05 1228C2282.15 1228 2203.56 1252.96 2154 1285.99L2209.5 1566.47 2198.03 1835.33C2198.03 1835.33 2395.87 1881.84 2595 1835.33L2572.01 1566.42 2591.89 1282.22C2591.89 1282.21 2511.54 1242.88 2384.05 1228Z" fill="#5295FE" fill-rule="evenodd"/><path d="M2481 1276.3C2481 1320.32 2429.51 1356 2366 1356 2302.49 1356 2251 1320.32 2251 1276.3 2251 1232.28 2302.49 1236.08 2366 1236.08 2429.51 1236.08 2481 1232.28 2481 1276.3Z" fill="#FFB692" fill-rule="evenodd"/><path d="M2655.28 1667.01 2626.79 1371.83C2623.92 1342.14 2597.5 1320.39 2567.76 1323.25 2538.03 1326.11 2516.25 1352.51 2519.11 1382.2L2543.24 1632.14 2207.59 1723.8C2188.28 1729.13 2175.85 1748.52 2179.7 1768.52 2183.74 1789.56 2204.1 1803.34 2225.16 1799.3L2613.68 1724.81 2660 1715.93 2655.28 1667.01Z" fill="#FFB692" fill-rule="evenodd"/><path d="M2630.74 1411 2523 1418.41 2532.35 1515.67 2642 1528Z" fill="#D88D87" fill-rule="evenodd"/><path d="M2672 1490.91 2497.17 1507 2484.32 1366.73C2480.52 1325.19 2511.03 1288.41 2552.48 1284.6L2577.21 1282.32C2618.66 1278.5 2655.35 1309.09 2659.15 1350.64L2672 1490.91Z" fill="#4278C6" fill-rule="evenodd"/><path d="M2215.66 1800.23C2180.06 1802.39 2118.28 1801.76 2093.64 1774.63 2093.64 1774.63 2039.39 1795.02 2024.3 1795.95 2009.22 1796.87 2003 1784.41 2003 1784.41 2003 1784.41 2092.76 1716.8 2112.31 1709.68 2131.85 1702.56 2220.72 1720.36 2220.72 1720.36L2235.21 1772.95C2238.87 1786.21 2229.37 1799.39 2215.66 1800.23Z" fill="#FFB692" fill-rule="evenodd"/><path d="M2259.71 1028.29C2261.62 1063.3 2240.56 1092.91 2212.67 1094.44 2184.79 1095.96 2160.63 1068.81 2158.72 1033.8 2156.81 998.794 2177.87 969.18 2205.75 967.658 2233.64 966.136 2257.8 993.282 2259.71 1028.29Z" fill="#6D86AA" fill-rule="evenodd"/><path d="M2180.12 1032.26C2182.05 1067.3 2206.39 1094.46 2234.48 1092.94 2262.58 1091.42 2283.8 1061.78 2281.88 1026.74 2279.95 991.708 2255.62 964.537 2227.52 966.061 2199.41 967.585 2178.2 997.223 2180.12 1032.26Z" fill="#FFFFFF" fill-rule="evenodd"/><path d="M2206.72 897.133C2132.42 968.602 2231 1049 2231 1049L2226.36 895 2206.72 897.133Z" fill="#323244" fill-rule="evenodd"/><path d="M2446.77 1245.92C2436.98 1066.97 2407.05 1161.88 2363.85 1164.23 2320.65 1166.58 2281.18 1087.03 2290.33 1254.44 2293.76 1317.15 2328.49 1309.83 2371.68 1307.48 2414.89 1305.12 2450.2 1308.63 2446.77 1245.92Z" fill="#FFB692" fill-rule="evenodd"/><path d="M2289 1202.24C2291.13 1105.79 2326.09 1166.35 2363.9 1164.3 2405.82 1162.01 2435.27 1072.74 2446 1229.94 2380.22 1255.44 2326.87 1232.9 2289 1202.24Z" fill="#D88D87" fill-rule="evenodd"/><path d="M2376.12 832.16 2306.51 835.956C2252.2 838.916 2210.18 885.728 2213.15 939.976L2220.99 1083.57C2225.13 1159.33 2290.57 1217.93 2366.42 1213.79L2366.42 1213.79C2442.26 1209.66 2500.93 1144.29 2496.79 1068.54L2489.42 933.62C2486.2 874.598 2435.21 828.939 2376.12 832.16Z" fill="#FFB692" fill-rule="evenodd"/><path d="M2443.12 1028.43C2444.97 1062.24 2467.56 1089.24 2495.78 1094 2496.89 1085.7 2497.27 1077.21 2496.8 1068.57L2490.69 957C2461.91 963.746 2441.22 993.675 2443.12 1028.43Z" fill="#D88D87" fill-rule="evenodd"/><path d="M2489 928.073C2482.82 871.73 2433.27 829.035 2376.13 832.161L2306.49 835.971C2283.21 837.246 2262.19 846.617 2246 861.18 2320.05 955.524 2423.94 946.639 2489 928.073Z" fill="#D88D87" fill-rule="evenodd"/><path d="M2406.95 976.34 2383.57 968.839C2376.34 966.519 2372.33 958.729 2374.66 951.531L2374.66 951.531C2376.99 944.33 2384.82 940.34 2392.05 942.661L2415.43 950.161C2422.66 952.481 2426.67 960.271 2424.34 967.469L2424.34 967.469C2422.01 974.667 2414.18 978.66 2406.95 976.34Z" fill="#323244" fill-rule="evenodd"/><path d="M2297.04 975.571 2276.03 987.307C2269.53 990.936 2261.27 988.536 2257.68 981.97L2257.68 981.97C2254.08 975.404 2256.46 967.062 2262.96 963.429L2283.97 951.694C2290.47 948.064 2298.73 950.464 2302.32 957.03L2302.32 957.03C2305.92 963.6 2303.54 971.941 2297.04 975.571Z" fill="#323244" fill-rule="evenodd"/><path d="M2316 1075C2316 1075 2352.46 1079.52 2352.99 1086.12 2353.52 1092.71 2336.13 1096.79 2331.14 1094.22 2326.14 1091.65 2316 1075 2316 1075Z" fill="#D88D87" fill-rule="evenodd"/><path d="M2301.98 1010.65C2302.44 1019.2 2295.89 1026.51 2287.35 1026.98 2278.8 1027.44 2271.49 1020.89 2271.02 1012.35 2270.56 1003.8 2277.11 996.491 2285.65 996.023 2294.21 995.556 2301.51 1002.11 2301.98 1010.65Z" fill="#34344F" fill-rule="evenodd"/><path d="M2409.98 1004.65C2410.43 1013.2 2404.09 1020.51 2395.82 1020.98 2387.55 1021.44 2380.48 1014.89 2380.02 1006.35 2379.57 997.798 2385.91 990.491 2394.18 990.024 2402.45 989.556 2409.52 996.107 2409.98 1004.65Z" fill="#34344F" fill-rule="evenodd"/><path d="M2341 995C2339.41 1003.81 2337.49 1012.49 2335.4 1021.11 2333.32 1029.73 2331.08 1038.28 2328.71 1046.81 2326.33 1055.33 2323.89 1063.83 2321.22 1072.28L2320.68 1073.86C2320.64 1073.93 2320.58 1074.37 2320.66 1073.65 2320.61 1073.06 2320.56 1072.99 2320.5 1072.83 2320.4 1072.6 2320.38 1072.68 2320.46 1072.77 2320.7 1073.22 2321.5 1074 2322.19 1074.68 2323.69 1076.07 2325.33 1077.55 2327.01 1078.95 2330.35 1081.83 2333.78 1084.71 2337.01 1088 2332.53 1086.83 2328.36 1085.06 2324.28 1083.01 2322.27 1081.92 2320.25 1080.85 2318.29 1079.43 2317.29 1078.69 2316.36 1078.02 2315.24 1076.71 2314.97 1076.37 2314.65 1075.97 2314.33 1075.24 2314.18 1074.81 2314.01 1074.48 2314 1073.61 2314.03 1072.6 2314.1 1072.79 2314.12 1072.59L2314.56 1070.98C2317.02 1062.4 2319.72 1053.87 2322.47 1045.37 2325.24 1036.86 2328.14 1028.39 2331.19 1019.98 2334.24 1011.57 2337.45 1003.22 2341 995Z" fill="#34344F" fill-rule="evenodd"/><path d="M2321.48 1116.1C2339.55 1110.42 2364.6 1101.22 2387.58 1088.17 2402.69 1079.59 2419.68 1097.97 2413.81 1116.83 2407.56 1136.9 2394.27 1156.81 2366.71 1163.44 2344.13 1168.88 2328.62 1165 2318.04 1157.87 2303.05 1147.78 2305.38 1121.15 2321.48 1116.1Z" fill="#34344F" fill-rule="evenodd"/><path d="M2366.63 1163.48C2394.27 1156.89 2407.59 1137.11 2413.86 1117.17 2414.74 1114.36 2415.05 1111.58 2414.99 1108.88 2404.38 1105.88 2390.85 1106.04 2373.66 1112.52 2347.1 1122.54 2336.55 1143.8 2333.01 1164.32 2333.01 1164.37 2333.01 1164.4 2333 1164.44 2341.96 1166.59 2352.99 1166.74 2366.63 1163.48Z" fill="#FF9292" fill-rule="evenodd"/><path d="M2350.1 1142.79C2353.51 1147.19 2363.84 1144.81 2373.17 1137.47 2382.51 1130.12 2387.31 1120.61 2383.9 1116.21 2380.49 1111.81 2370.16 1114.19 2360.83 1121.53 2351.49 1128.88 2346.69 1138.4 2350.1 1142.79Z" fill="#FFABAB" fill-rule="evenodd"/><path d="M2321.5 1116.19C2339.6 1110.49 2364.71 1101.27 2387.73 1088.18 2397.03 1082.88 2407.02 1087.82 2412 1096.78 2399.56 1111.8 2379.2 1125.48 2354.32 1133.95 2338.37 1139.39 2322.6 1141.97 2308.34 1142 2306.65 1131.18 2311.32 1119.39 2321.5 1116.19Z" fill="#FFFFFF" fill-rule="evenodd"/><path d="M2443.36 917.76C2098.48 1002.68 2132.96 829.024 2132.96 829.024L2151.62 855.686C2151.62 855.686 2136.77 774.48 2212.84 745L2222.9 796.021C2222.9 796.021 2342.33 734.922 2459.51 807.638 2576.7 880.354 2516.58 1054 2516.58 1054 2516.58 1054 2466.13 1056.28 2443.36 917.76Z" fill="#323244" fill-rule="evenodd"/><path d="M2493 836.288C2483.97 825.837 2473.04 816.27 2459.81 808 2377.58 866.944 2253.14 925.199 2150.48 842.097 2150.65 850.518 2151.62 855.866 2151.62 855.866L2132.96 829.172C2132.96 829.172 2131.07 838.673 2132.59 852.143 2247.17 955.036 2401.41 908.884 2493 836.288Z" fill="#49496B" fill-rule="evenodd"/><path d="M2471.4 1009.81C2468.62 1035.67 2480.52 1058.5 2497.97 1060.81 2515.42 1063.12 2531.82 1044.04 2534.6 1018.19 2537.38 992.337 2525.48 969.503 2508.03 967.189 2490.59 964.879 2474.18 983.962 2471.4 1009.81Z" fill="#FFB692" fill-rule="evenodd"/><path d="M2489.76 1011.52C2487.1 1011.16 2484.48 1011.59 2482 1012.63 2482.03 1012.2 2482.05 1011.78 2482.09 1011.35 2483.93 994.229 2494.73 981.594 2506.23 983.126 2517.73 984.658 2525.57 999.777 2523.73 1016.9 2522.33 1030.06 2515.61 1040.54 2507.35 1044 2508.67 1027.42 2500.97 1013.01 2489.76 1011.52Z" fill="#D88D87" fill-rule="evenodd"/><path d="M2562.88 1022.26C2564.79 1057.02 2543.77 1086.43 2515.95 1087.94 2488.13 1089.45 2464.03 1062.5 2462.12 1027.74 2460.21 992.973 2481.23 963.569 2509.05 962.06 2536.87 960.552 2560.97 987.505 2562.88 1022.26Z" fill="#FFFFFF" fill-rule="evenodd"/><path d="M2584.88 1020.74C2586.8 1055.78 2565.59 1085.42 2537.48 1086.94 2509.39 1088.46 2485.04 1061.3 2483.12 1026.26 2481.2 991.223 2502.42 961.582 2530.52 960.061 2558.61 958.537 2582.96 985.705 2584.88 1020.74Z" fill="#6D86AA" fill-rule="evenodd"/><path d="M2558.94 1022.61C2559.88 1040.27 2549.48 1055.2 2535.71 1055.97 2521.93 1056.74 2510 1043.05 2509.06 1025.39 2508.12 1007.73 2518.52 992.798 2532.29 992.031 2546.07 991.258 2558 1004.95 2558.94 1022.61Z" fill="#FFAC52" fill-rule="evenodd"/><path d="M2512.51 975.832C2528.57 863.031 2462.92 794.798 2382 787.079L2406.74 784C2406.74 784 2555.7 783.445 2544.39 978L2512.51 975.832Z" fill="#6D86AA" fill-rule="evenodd"/><path d="M2190.56 1084.5C2187.76 1173.76 2278.5 1166.35 2278.5 1166.35" stroke="#6D86AA" stroke-width="6.875" stroke-miterlimit="8" fill="none" fill-rule="evenodd"/><path d="M2291.18 1175.55 2276.43 1176C2270.84 1176.17 2266.17 1171.7 2266 1166.03L2266 1166.03C2265.84 1160.36 2270.24 1155.62 2275.82 1155.45L2290.57 1155C2296.16 1154.83 2300.83 1159.3 2301 1164.97L2301 1164.97C2301.16 1170.64 2296.77 1175.38 2291.18 1175.55Z" fill="#FFFFFF" fill-rule="evenodd"/><path d="M2866.09 570 2617.91 570C2584.82 570 2558 596.828 2558 629.919L2558 754.033C2558 785.68 2582.55 811.532 2613.63 813.735L2613.63 881 2680.67 813.952 2866.09 813.952C2899.18 813.952 2926 787.128 2926 754.033L2926 629.919C2926 596.828 2899.18 570 2866.09 570Z" fill="#FFC154" fill-rule="evenodd"/><path d="M2656.5 672C2642.42 672 2631 683.418 2631 697.5 2631 711.582 2642.42 723 2656.5 723 2670.58 723 2682 711.586 2682 697.5 2682 683.415 2670.58 672 2656.5 672Z" fill="#FFFFFF" fill-rule="evenodd"/><path d="M2741.5 672C2727.42 672 2716 683.418 2716 697.5 2716 711.582 2727.41 723 2741.5 723 2755.58 723 2767 711.586 2767 697.5 2767 683.415 2755.58 672 2741.5 672Z" fill="#FFFFFF" fill-rule="evenodd"/><path d="M2827 672C2812.64 672 2801 683.418 2801 697.5 2801 711.582 2812.64 723 2827 723 2841.36 723 2853 711.586 2853 697.5 2853 683.415 2841.36 672 2827 672Z" fill="#FFFFFF" fill-rule="evenodd"/><path d="M3097.08 1905 1302.92 1905C1277.01 1905 1256 1883.96 1256 1858L1256 1858C1256 1832.04 1277.01 1811 1302.92 1811L3097.08 1811C3122.99 1811 3144 1832.04 3144 1858L3144 1858C3144 1883.96 3122.99 1905 3097.08 1905Z" fill="#BDD3F4" fill-rule="evenodd"/><path d="M1601.02 1786 2092 1785.94 1989.47 1441 1499 1441Z" fill="#FFFFFF" fill-rule="evenodd"/><path d="M2320 1811 1601 1811 1601 1786 2320 1786Z" fill="#A0B8E8" fill-rule="evenodd"/><path d="M2092 1811 1601 1811 1601 1786 2092 1786Z" fill="#EFF6FF" fill-rule="evenodd"/><path d="M1990 1441 2008.55 1441 2112 1787 2091.99 1785.9Z" fill="#8BA6D1" fill-rule="evenodd"/><path d="M1744.69 1643.98C1752.73 1668.72 1776.41 1683.18 1797.57 1676.28 1818.73 1669.39 1829.36 1643.75 1821.31 1619.01 1813.26 1594.29 1789.59 1579.82 1768.43 1586.72 1747.27 1593.62 1736.64 1619.25 1744.69 1643.98Z" fill="#A0B8E8" fill-rule="evenodd"/><path d="M2836.45 1811 2756.55 1811C2740.78 1811 2728 1798.23 2728 1782.47L2728 1626 2865 1626 2865 1782.47C2865 1798.23 2852.22 1811 2836.45 1811Z" fill="#FFFFFF" fill-rule="evenodd"/><path d="M2885.81 1774 2841 1774 2841 1645 2885.81 1645C2906.87 1645 2924 1661.91 2924 1682.69L2924 1736.32C2924 1757.09 2906.87 1774 2885.81 1774ZM2860.83 1754.43 2885.81 1754.43C2895.93 1754.43 2904.17 1746.31 2904.17 1736.32L2904.17 1682.69C2904.17 1672.7 2895.93 1664.57 2885.81 1664.57L2860.83 1664.57 2860.83 1754.43Z" fill="#FFFFFF" fill-rule="evenodd"/><path d="M2760.55 1811 2832.45 1811C2850.43 1811 2865 1796.47 2865 1778.56L2865 1757.32C2827.7 1784.49 2773.07 1724.78 2728 1705L2728 1778.56C2728 1796.48 2742.57 1811 2760.55 1811Z" fill="#EFF6FF" fill-rule="evenodd"/><path d="M3090.57 1089 2689.99 1089C2679.81 1089 2671.55 1097.28 2671.55 1107.5L2671.55 1134.04 2623 1158.5 2671.55 1182.96 2671.55 1209.5C2671.55 1219.71 2679.81 1228 2689.99 1228L3090.57 1228C3100.75 1228 3109 1219.72 3109 1209.5L3109 1107.51C3109 1097.28 3100.75 1089 3090.57 1089Z" fill="#5295FE" fill-rule="evenodd"/><path d="M2729 1180.53 2710.46 1187 2711 1167.7 2699 1152.39 2717.87 1146.93 2729 1131 2740.12 1146.93 2759 1152.39 2747 1167.7 2747.54 1187Z" fill="#FFC154" fill-rule="evenodd"/><path d="M2810.5 1180.53 2792.27 1187 2792.8 1167.7 2781 1152.39 2799.56 1146.93 2810.5 1131 2821.44 1146.93 2840 1152.39 2828.2 1167.7 2828.73 1187Z" fill="#FFC154" fill-rule="evenodd"/><path d="M2891.5 1180.53 2873.27 1187 2873.8 1167.7 2862 1152.39 2880.56 1146.93 2891.5 1131 2902.44 1146.93 2921 1152.39 2909.2 1167.7 2909.73 1187Z" fill="#FFC154" fill-rule="evenodd"/><path d="M2972.5 1180.53 2954.27 1187 2954.8 1167.7 2943 1152.39 2961.56 1146.93 2972.5 1131 2983.44 1146.93 3002 1152.39 2990.2 1167.7 2990.73 1187Z" fill="#FFC154" fill-rule="evenodd"/><path d="M3054 1180.53 3035.46 1187 3036 1167.7 3024 1152.39 3042.88 1146.93 3054 1131 3065.12 1146.93 3084 1152.39 3072 1167.7 3072.54 1187Z" fill="#FFFFFF" fill-rule="evenodd"/></g></svg>