<svg width="3349" height="2625" xmlns="http://www.w3.org/2000/svg" xmlns:xlink="http://www.w3.org/1999/xlink" xml:space="preserve" overflow="hidden"><defs><clipPath id="clip0"><rect x="1459" y="-212" width="3349" height="2625"/></clipPath><radialGradient cx="9279774" cy="1762299" r="9445630" fx="9279775" fy="1762299" gradientUnits="userSpaceOnUse" spreadMethod="pad" id="fill1" gradientTransform="matrix(0.000360892 0 0 0.000360892 1459 1414)"><stop offset="0" stop-color="#5D993F"/><stop offset="1" stop-color="#C5A34C"/><stop offset="1" stop-color="#74C4E9"/></radialGradient><radialGradient cx="9274232" cy="0.5" r="9426010" fx="9274233" fy="-0.0296851" gradientUnits="userSpaceOnUse" spreadMethod="pad" id="fill2" gradientTransform="matrix(0.000360892 0 0 0.000360892 1461 1803)"><stop offset="0" stop-color="#257C4F"/><stop offset="0.8" stop-color="#B4C155"/><stop offset="1" stop-color="#C9CD55"/><stop offset="1" stop-color="#C5A34C"/></radialGradient><linearGradient x1="2853.64" y1="1876.48" x2="2792.36" y2="1949.52" gradientUnits="userSpaceOnUse" spreadMethod="reflect" id="fill3"><stop offset="0" stop-color="#B6C555"/><stop offset="0.52" stop-color="#609950"/><stop offset="0.72" stop-color="#3B7D23"/><stop offset="1" stop-color="#3B7D23"/></linearGradient><linearGradient x1="2868.77" y1="1897.68" x2="2821.23" y2="1954.32" gradientUnits="userSpaceOnUse" spreadMethod="reflect" id="fill4"><stop offset="0" stop-color="#B6C555"/><stop offset="0.52" stop-color="#609950"/><stop offset="0.72" stop-color="#3B7D23"/><stop offset="1" stop-color="#3B7D23"/></linearGradient><linearGradient x1="2811.52" y1="1892.31" x2="2752.48" y2="1962.69" gradientUnits="userSpaceOnUse" spreadMethod="reflect" id="fill5"><stop offset="0" stop-color="#B6C555"/><stop offset="0.52" stop-color="#609950"/><stop offset="0.72" stop-color="#3B7D23"/><stop offset="1" stop-color="#3B7D23"/></linearGradient><linearGradient x1="4734.34" y1="1747.67" x2="4666.66" y2="1828.33" gradientUnits="userSpaceOnUse" spreadMethod="reflect" id="fill6"><stop offset="0" stop-color="#B6C555"/><stop offset="0.52" stop-color="#609950"/><stop offset="0.72" stop-color="#3B7D23"/><stop offset="1" stop-color="#3B7D23"/></linearGradient><linearGradient x1="4744.53" y1="1778.77" x2="4695.47" y2="1837.23" gradientUnits="userSpaceOnUse" spreadMethod="reflect" id="fill7"><stop offset="0" stop-color="#B6C555"/><stop offset="0.52" stop-color="#609950"/><stop offset="0.72" stop-color="#3B7D23"/><stop offset="1" stop-color="#3B7D23"/></linearGradient><linearGradient x1="4685.12" y1="1759.68" x2="4630.88" y2="1824.32" gradientUnits="userSpaceOnUse" spreadMethod="reflect" id="fill8"><stop offset="0" stop-color="#B6C555"/><stop offset="0.52" stop-color="#609950"/><stop offset="0.72" stop-color="#3B7D23"/><stop offset="1" stop-color="#3B7D23"/></linearGradient><linearGradient x1="2572.16" y1="2011.65" x2="2465.84" y2="2138.35" gradientUnits="userSpaceOnUse" spreadMethod="reflect" id="fill9"><stop offset="0" stop-color="#3B7D23"/><stop offset="1" stop-color="#B6C555"/></linearGradient><linearGradient x1="2531.91" y1="2068.7" x2="2460.08" y2="2154.3" gradientUnits="userSpaceOnUse" spreadMethod="reflect" id="fill10"><stop offset="0" stop-color="#3B7D23"/><stop offset="1" stop-color="#B6C555"/></linearGradient><linearGradient x1="2615.87" y1="2020.19" x2="2533.13" y2="2118.81" gradientUnits="userSpaceOnUse" spreadMethod="reflect" id="fill11"><stop offset="0" stop-color="#3B7D23"/><stop offset="1" stop-color="#B6C555"/></linearGradient></defs><g clip-path="url(#clip0)" transform="translate(-1459 212)"><path d="M3018.28-208.333 4808-212 4808 1420 1727.06 1420C1726.03 1342.52 1739.52 1301.7 1738.49 1224.22 1780.3 1152.48 1822.96 1102.4 1939.86 991.174 2112.91 858.18 2121.37 940.732 2273.37 691.814 2469.28 438.999 2661.09-115.655 3018.28-208.333Z" fill="#97F8E4" fill-rule="evenodd"/><path d="M1755.36 1220.03C1750.79 1205.55 1789.63 1196.09 1852.11 1180.51 2055.18 1159.53 1999.53 1194.63 2074.8 1209.9 2153.73 1234.36 2154.2 1251.35 2303.74 1272.13 2453.27 1292.91 2780.41 1347.06 2972.01 1334.57 3163.61 1322.08 3252.97 1401.17 3332.13 1392.85 3411.29 1384.52 3540.31 1427.65 3538.99 1427.64L3537.67 1427.62 1756.74 1429C1756.74 1356.36 1755.36 1292.67 1755.36 1220.03Z" fill="#387E5A" fill-rule="evenodd"/><path d="M4807 1209.6C4807 1209.6 4469.57 1163.92 4295.09 1271.88 4120.61 1379.84 3871.35 1346.62 3701.03 1334.16 3530.7 1321.71 3451.27 1400.6 3380.9 1392.3 3310.52 1383.99 3195.84 1427.01 3197.01 1427 3198.18 1426.99 3198.18 1426.99 3198.18 1426.99L4807 1426.99 4807 1209.6Z" fill="#032C1E" fill-rule="evenodd"/><path d="M2533.86 1414.02C2754.36 1414.19 2953.19 1415.7 3065.1 1419.74 3423.22 1432.64 4808 1419.74 4808 1419.74L4808 2050 1460.04 2050 1459 1521.96 1462.11 1494.35C1465.52 1479.45 1470.17 1464.96 1475.96 1450.97L1492.11 1419.41 1513.13 1419.21C1669.86 1417.73 2136.96 1413.71 2533.86 1414.02Z" fill="url(#fill1)" fill-rule="evenodd"/><path d="M3526.76 1396.97C3526.76 1396.97 3859.58 1367.79 3950.05 1396.97 4040.52 1426.15 4085.75 1561.88 4072.83 1660.99 4059.9 1760.09 4029.75 1844.11 3971.59 1841.96 3913.43 1839.81 3502 1841.96 3502 1841.96L3526.76 1396.97Z" fill="#02644D" fill-rule="evenodd"/><path d="M3595 1391.56C3595 1391.56 3665.45 1378.44 3713.38 1373.59 3713.38 1373.59 3675.68 1381.31 3671.01 1385.26 3671.01 1385.26 3773.35 1369.82 3810.69 1373.59 3848.03 1377.36 3899.2 1383.69 3899.2 1383.69L3956.11 1379.88C3956.11 1379.88 3908.71 1385.62 3911.23 1386.34 3913.74 1387.06 3957.55 1392.44 3971.55 1401.42 3971.55 1401.42 4015 1415.06 4024.33 1423.32 4024.33 1423.32 3989.5 1405.73 3975.86 1406.8 3975.86 1406.8 4054.79 1461.55 4055 1513.71 4055.21 1565.86 3715.54 1435.17 3715.54 1435.17L3595 1391.56Z" fill="#02644D" fill-rule="evenodd"/><path d="M3574.72 1394.25C3574.72 1394.25 3441.92 1384.17 3357.71 1490.95 3273.5 1597.74 3341.52 1845.02 3451.64 1845.96 3561.76 1846.91 3697.41 1830.01 3726.75 1686.37 3756.1 1542.73 3694.56 1397.87 3574.72 1394.25Z" fill="#B7DB6F" fill-rule="evenodd"/><path d="M3303 1607C3303 1607 3350.71 1552.16 3355.77 1537L3363 1552.15 3303 1607Z" fill="#B7DB6F" fill-rule="evenodd"/><path d="M3337 1526.08C3337 1526.08 3343.2 1487.25 3361 1473 3361 1473 3344.82 1499.03 3349 1520.74 3353.18 1542.46 3337 1526.08 3337 1526.08Z" fill="#B7DB6F" fill-rule="evenodd"/><path d="M3360.98 1802.96C3361.86 1805.04 3334.98 1731.89 3343.77 1718L3348.88 1718.05C3348.88 1718.05 3352.37 1782.65 3360.98 1802.96Z" fill="#B7DB6F" fill-rule="evenodd"/><path d="M3339.17 1707.03C3339.17 1707.03 3319.88 1700.21 3309 1707.03 3309 1707.03 3326.88 1701.62 3337.77 1713.1 3348.66 1724.59 3339.17 1707.03 3339.17 1707.03Z" fill="#B7DB6F" fill-rule="evenodd"/><path d="M3522.48 1842C3492.02 1842 3455.35 1836.82 3424.05 1817.63 3390.22 1796.89 3368.12 1763.44 3358.36 1718.21 3341.76 1641.23 3349.91 1578.06 3382.6 1530.47 3413.16 1485.98 3464.77 1457.01 3531.85 1446.69 3577.11 1439.72 3616.31 1454.38 3645.19 1489.08 3686.92 1539.21 3698.91 1623.91 3674.35 1695.04 3657 1745.3 3610.64 1776.35 3550.35 1778.1 3548.63 1778.15 3546.92 1778.17 3545.21 1778.17 3484.48 1778.17 3429.74 1747.07 3410.94 1701.36 3391.78 1654.77 3392.77 1609.19 3413.74 1573.02 3435.03 1536.29 3475.23 1512.4 3526.94 1505.75 3573.75 1499.71 3599 1521.56 3611.94 1540.93 3636.9 1578.31 3636.84 1639.03 3620.11 1668.34 3603.99 1696.59 3559.38 1718.39 3520.64 1717.03 3492.69 1716.03 3471.35 1703.06 3460.56 1680.54 3446.68 1651.56 3447.59 1621.63 3463.05 1598.43 3475.51 1579.75 3495.63 1568.34 3514.3 1569.35 3535.74 1570.52 3544.88 1588.46 3546.19 1603.47 3547.35 1616.69 3542.85 1631.4 3532.01 1633.93 3511.86 1638.64 3504.71 1627.62 3504.41 1627.15 3504.41 1627.15 3493.53 1609.15 3507.07 1606.56 3522.58 1603.6 3518.5 1615.66 3518.5 1615.66 3518.72 1615.99 3514.67 1632.29 3530.75 1628.53 3537.38 1626.98 3541.74 1616.18 3540.67 1603.96 3539.5 1590.55 3531.88 1575.87 3514 1574.9 3497.22 1573.94 3479.05 1584.43 3467.66 1601.51 3453.31 1623.04 3452.54 1650.97 3465.55 1678.13 3478.19 1704.51 3502.59 1710.83 3520.84 1711.49 3557.71 1712.75 3600.1 1692.22 3615.3 1665.59 3629.38 1640.9 3633.17 1582.71 3607.33 1544.01 3590.03 1518.1 3562.48 1506.77 3527.64 1511.26 3477.68 1517.69 3438.93 1540.61 3418.53 1575.81 3398.45 1610.45 3397.57 1654.29 3416.06 1699.25 3434.53 1744.16 3489.73 1774.3 3550.19 1772.55 3608.09 1770.87 3652.54 1741.22 3669.11 1693.23 3693.07 1623.84 3681.49 1541.35 3640.94 1492.63 3621.71 1469.54 3587.34 1443.79 3532.69 1452.18 3467.16 1462.26 3416.84 1490.42 3387.17 1533.62 3355.37 1579.9 3347.5 1641.61 3363.78 1717.04 3373.2 1760.72 3394.45 1792.97 3426.94 1812.9 3492.59 1853.15 3596.15 1828.78 3597.06 1828.54L3585.34 1834.89C3584.84 1835.02 3557.84 1842 3522.48 1842Z" fill="#837D3F" fill-rule="evenodd"/><path d="M4068.55 1274.51C4068.55 1274.51 4492.55 1237.36 4607.81 1274.51 4723.07 1311.65 4780.7 1484.43 4764.23 1610.58 4747.77 1736.73 4709.35 1843.69 4635.25 1840.95 4561.16 1838.21 4037 1840.95 4037 1840.95L4068.55 1274.51Z" fill="#02644D" fill-rule="evenodd"/><path d="M4155 1267.65C4155 1267.65 4244.75 1250.93 4305.81 1244.76 4305.81 1244.76 4257.78 1254.59 4251.83 1259.63 4251.83 1259.63 4382.2 1239.95 4429.77 1244.76 4477.34 1249.56 4542.52 1257.62 4542.52 1257.62L4615.02 1252.76C4615.02 1252.76 4554.64 1260.09 4557.85 1261 4561.05 1261.92 4616.85 1268.78 4634.69 1280.22 4634.69 1280.22 4690.04 1297.61 4701.93 1308.13 4701.93 1308.13 4657.56 1285.71 4640.18 1287.08 4640.18 1287.08 4740.73 1356.86 4741 1423.33 4741.27 1489.81 4308.56 1323.24 4308.56 1323.24L4155 1267.65Z" fill="#02644D" fill-rule="evenodd"/><path d="M4129.63 1271.32C4129.63 1271.32 3960.91 1258.49 3853.91 1394.34 3746.92 1530.18 3833.34 1844.75 3973.25 1845.95 4113.17 1847.16 4285.5 1825.65 4322.79 1642.93 4360.07 1460.2 4281.89 1275.92 4129.63 1271.32Z" fill="#B7DB6F" fill-rule="evenodd"/><path d="M3784 1542C3784 1542 3844.43 1472.27 3850.84 1453L3860 1472.27 3784 1542Z" fill="#B7DB6F" fill-rule="evenodd"/><path d="M3827 1439.37C3827 1439.37 3834.75 1389.36 3857 1371 3857 1371 3836.78 1404.53 3842 1432.5 3847.22 1460.47 3827 1439.37 3827 1439.37Z" fill="#B7DB6F" fill-rule="evenodd"/><path d="M3856.97 1791.94C3858.09 1794.61 3824.13 1700.82 3835.23 1683L3841.69 1683.06C3841.69 1683.06 3846.1 1765.91 3856.97 1791.94Z" fill="#B7DB6F" fill-rule="evenodd"/><path d="M3830.05 1669.74C3830.05 1669.74 3805.07 1661.33 3791 1669.74 3791 1669.74 3814.14 1663.08 3828.23 1677.21 3842.32 1691.34 3830.05 1669.74 3830.05 1669.74Z" fill="#B7DB6F" fill-rule="evenodd"/><path d="M4062.56 1841C4023.79 1841 3977.11 1834.41 3937.27 1810 3894.2 1783.61 3866.06 1741.06 3853.64 1683.53 3832.5 1585.61 3842.89 1505.26 3884.5 1444.73 3923.41 1388.13 3989.11 1351.28 4074.49 1338.15 4132.11 1329.28 4182.02 1347.93 4218.78 1392.07 4271.9 1455.85 4287.16 1563.58 4255.9 1654.06 4233.8 1718 4174.8 1757.49 4098.05 1759.71 4095.86 1759.77 4093.68 1759.81 4091.5 1759.81 4014.19 1759.81 3944.5 1720.24 3920.58 1662.1 3896.18 1602.83 3897.45 1544.85 3924.14 1498.84 3951.24 1452.13 4002.42 1421.74 4068.24 1413.28 4127.83 1405.6 4159.98 1433.38 4176.45 1458.02 4208.22 1505.57 4208.14 1582.81 4186.84 1620.1 4166.33 1656.03 4109.54 1683.76 4060.23 1682.04 4024.65 1680.76 3997.48 1664.27 3983.74 1635.61 3966.07 1598.75 3967.23 1560.68 3986.92 1531.16 4002.77 1507.4 4028.38 1492.9 4052.15 1494.18 4079.44 1495.67 4091.08 1518.49 4092.75 1537.58 4094.22 1554.4 4088.5 1573.11 4074.7 1576.33 4049.04 1582.32 4039.94 1568.3 4039.56 1567.7 4039.56 1567.7 4025.71 1544.8 4042.95 1541.51 4062.69 1537.74 4057.5 1553.09 4057.5 1553.09 4057.78 1553.51 4052.62 1574.25 4073.1 1569.46 4081.54 1567.48 4087.09 1553.75 4085.72 1538.2 4084.23 1521.14 4074.53 1502.48 4051.77 1501.24 4030.41 1500.02 4007.28 1513.36 3992.78 1535.09 3974.51 1562.48 3973.53 1598 3990.1 1632.56 4006.19 1666.11 4037.25 1674.15 4060.48 1674.98 4107.42 1676.59 4161.37 1650.48 4180.72 1616.6 4198.65 1585.2 4203.47 1511.17 4170.58 1461.95 4148.56 1428.99 4113.48 1414.57 4069.14 1420.28 4005.54 1428.46 3956.21 1457.62 3930.24 1502.39 3904.68 1546.45 3903.56 1602.22 3927.1 1659.41 3950.61 1716.54 4020.88 1754.88 4097.85 1752.65 4171.54 1750.52 4228.14 1712.81 4249.23 1651.76 4279.73 1563.49 4264.98 1458.57 4213.36 1396.59 4188.89 1367.21 4145.13 1334.46 4075.56 1345.13 3992.15 1357.95 3928.09 1393.78 3890.31 1448.73 3849.84 1507.59 3839.83 1586.09 3860.54 1682.04 3872.53 1737.61 3899.59 1778.63 3940.95 1803.98 4024.52 1855.18 4156.35 1824.19 4157.5 1823.88L4142.59 1831.95C4141.95 1832.12 4107.58 1841 4062.56 1841Z" fill="#837D3F" fill-rule="evenodd"/><path d="M2354 780.794C2354 780.794 2395.15 670.926 2493.55 683.133 2493.55 683.133 2636.42 500.013 2788.76 658.718 2788.76 658.718 2950.7 619.394 3070.63 692.765 3150.59 741.685 3177 793 3177 793L2354 780.794Z" fill="#F6FBFF" fill-rule="evenodd"/><path d="M2830 503.462C2830 503.462 2844.45 462.606 2879 467.146 2879 467.146 2929.17 399.05 2982.67 458.066 2982.67 458.066 3039.53 443.444 3081.65 470.727 3109.72 488.918 3119 508 3119 508L2830 503.462Z" fill="#F6FBFF" fill-rule="evenodd"/><path d="M4808 446.733 4808 555.001 3891 545.618C3891 545.618 3946.45 443.499 4079.03 454.845 4079.03 454.845 4271.51 284.643 4476.76 432.154 4476.76 432.154 4654.54 402.375 4808 446.733Z" fill="#F6FBFF" fill-rule="evenodd"/><path d="M3093 328.357C3093 328.357 3120.55 277.564 3186.43 283.208 3186.43 283.208 3282.08 198.549 3384.07 271.92 3384.07 271.92 3492.49 253.74 3572.79 287.66 3626.32 310.276 3644 334 3644 334L3093 328.357Z" fill="#F6FBFF" fill-rule="evenodd"/><path d="M3865 334C3865 315.774 3879.78 301 3898 301 3916.23 301 3931 315.775 3931 334 3931 352.225 3916.23 367 3898 367 3879.78 367 3865 352.226 3865 334Z" fill="#F6FBFF" fill-rule="evenodd"/><path d="M4097.75 1803.05C4303.14 1803.66 4480.02 1809.43 4605.89 1815.07L4642.78 1816.77 4672.32 1818.25 4694.91 1819.43 4716.46 1820.6 4729.27 1821.34 4808 1826.32C4807.91 1854.01 4807.83 1881.69 4807.74 1909.37 4807.69 1927.18 4807.63 1944.98 4807.58 1962.78 4807.55 1970.61 4807.53 1978.43 4807.5 1986.25L4807.24 2071.31C4807.23 2075.1 4807.22 2078.89 4807.21 2082.68L4808 2411 1635.48 2409.79C1557.42 2395.02 1480.4 2329.42 1464.56 2247.43L1461 2210.03 1461 2018.49C1528.27 2020.61 1596.49 2020.76 1664.3 2019.4L1698.54 2018.59 1727.55 2017.71 1751.13 2016.87 1773.69 2015.97 1788.76 2015.31C1889.91 2010.74 1988.25 2003.39 2079.11 1994.87 2275.51 1976.44 2437.06 1952.53 2516.75 1939.35 2543.97 1934.84 2561.66 1931.61 2567.92 1930.26 3056.09 1825.36 3645.9 1801.72 4097.75 1803.05Z" fill="url(#fill2)" fill-rule="evenodd"/><path d="M2812.97 1966C2812.97 1966 2806.43 1841.35 2827.37 1862.39 2848.31 1883.44 2812.97 1966 2812.97 1966Z" fill="url(#fill3)" fill-rule="evenodd"/><path d="M2828 1960C2828 1960 2850.73 1886.42 2860.53 1892.34 2870.33 1898.25 2828 1960 2828 1960Z" fill="url(#fill4)" fill-rule="evenodd"/><path d="M2804 1969C2803.6 1967.91 2786.06 1872.16 2764.59 1887.71 2743.11 1903.25 2804 1969 2804 1969Z" fill="url(#fill5)" fill-rule="evenodd"/><path d="M4677 1837C4677 1837 4707.92 1716.43 4721.86 1742.76 4735.8 1769.09 4677 1837 4677 1837Z" fill="url(#fill6)" fill-rule="evenodd"/><path d="M4694 1836C4694 1836 4737.8 1772.22 4745.33 1780.79 4752.87 1789.36 4694 1836 4694 1836Z" fill="url(#fill7)" fill-rule="evenodd"/><path d="M4667.19 1837C4667.14 1835.84 4678.99 1739.02 4654.38 1747.53 4629.77 1756.04 4667.19 1837 4667.19 1837Z" fill="url(#fill8)" fill-rule="evenodd"/><path d="M1746.22 1216.6C1767.17 1210.38 1808.76 1201.42 1904.67 1220.68 2259.33 1261.08 2303.3 1241.29 2437.94 1260.89 2572.58 1280.49 2694.74 1263.09 2712.51 1338.28 2730.3 1413.46 2692.77 1459.17 2811.3 1455.41 2929.82 1451.65 2912.05 1572.54 2912.05 1572.54L1459 1573C1459.48 1555.63 1459.73 1533.89 1460.21 1516.52 1463.85 1402.77 1592.39 1247.04 1746.22 1216.6Z" fill="#19432F" fill-rule="evenodd"/><path d="M2427 1127 2763 1127 2763 1598 2427 1598Z" fill="#02634E" fill-rule="evenodd"/><path d="M2166 1127 2427 1127 2427 1598 2166 1598Z" fill="#057253" fill-rule="evenodd"/><path d="M2342 931 2452.2 1158 2787 1158 2612.45 931.828Z" fill="#E65924" fill-rule="evenodd"/><path d="M2329 931 2438.95 1158 2773 1158 2598.84 931.828Z" fill="#02634E" fill-rule="evenodd"/><path d="M2569.33 1044 2630.67 1044C2639.13 1044 2646 1050.87 2646 1059.33L2646 1197 2554 1197 2554 1059.33C2554 1050.87 2560.86 1044 2569.33 1044Z" fill="#002722" fill-rule="evenodd"/><path d="M2130 1170 2433.57 1170 2613 931 2511.99 931.022 2314.66 931.053Z" fill="#FD9C29" fill-rule="evenodd"/><path d="M2130 1170 2185.63 1170 2512 931 2314.66 931.031Z" fill="#E65924" fill-rule="evenodd"/><path d="M2635 1221 2713.5 1382 2952 1382 2827.66 1221.59Z" fill="#E65924" fill-rule="evenodd"/><path d="M2628 1221 2706.5 1382 2945 1382 2820.66 1221.59Z" fill="#02634E" fill-rule="evenodd"/><path d="M2707 1382 2707 1597.53 2945 1598 2945 1382Z" fill="#02634E" fill-rule="evenodd"/><path d="M2506 1382 2707 1382 2707 1597 2506 1597Z" fill="#057253" fill-rule="evenodd"/><path d="M2484 1392 2700.2 1392 2828 1222 2763.6 1222.01 2615.51 1222.04Z" fill="#FD9C29" fill-rule="evenodd"/><path d="M2778 1418.24 2778 1598 2878 1598 2878 1419.89C2878 1405.05 2871.66 1391.7 2861.54 1382.4 2852.5 1374.07 2840.43 1369 2827.17 1369 2814.12 1369 2802.25 1374.09 2793.46 1382.4 2783.94 1391.37 2778 1404.11 2778 1418.24Z" fill="#002722" fill-rule="evenodd"/><path d="M2839 1311C2839 1304.92 2834.07 1300 2828 1300 2821.92 1300 2817 1304.92 2817 1311 2817 1317.08 2821.92 1322 2828 1322 2834.07 1322 2839 1317.08 2839 1311Z" fill="#002722" fill-rule="evenodd"/><path d="M2484 1392 2524.95 1392 2763 1222 2615.23 1222.03Z" fill="#E65924" fill-rule="evenodd"/><path d="M2190 1486.19C2190 1486.19 2166.42 1481.81 2150.37 1480.2 2150.37 1480.2 2162.99 1482.77 2164.55 1484.09 2164.55 1484.09 2130.29 1478.94 2117.79 1480.2 2105.29 1481.45 2088.16 1483.56 2088.16 1483.56L2069.11 1482.29C2069.11 1482.29 2084.97 1484.21 2084.13 1484.45 2083.29 1484.69 2068.63 1486.48 2063.94 1489.47 2063.94 1489.47 2049.39 1494.02 2046.27 1496.77 2046.27 1496.77 2057.93 1490.91 2062.49 1491.27 2062.49 1491.27 2036.07 1509.52 2036 1526.9 2035.93 1544.29 2149.65 1500.72 2149.65 1500.72L2190 1486.19Z" fill="#057253" fill-rule="evenodd"/><path d="M2288 1558C2288 1558 2272.1 1539.98 2270.41 1535L2268 1539.98 2288 1558Z" fill="#FFCF83" fill-rule="evenodd"/><path d="M2276 1530.99C2276 1530.99 2273.93 1517.83 2268 1513 2268 1513 2273.39 1521.82 2272 1529.18 2270.61 1536.54 2276 1530.99 2276 1530.99Z" fill="#FFCF83" fill-rule="evenodd"/><path d="M2268.01 1623.99C2267.68 1624.7 2277.59 1599.74 2274.35 1595L2272.46 1595.01C2272.47 1595.01 2271.18 1617.06 2268.01 1623.99Z" fill="#FFCF83" fill-rule="evenodd"/><path d="M2275.35 1591.93C2275.35 1591.93 2282.16 1589.83 2286 1591.93 2286 1591.93 2279.69 1590.27 2275.85 1593.8 2272 1597.33 2275.35 1591.93 2275.35 1591.93Z" fill="#FFCF83" fill-rule="evenodd"/><path d="M2212.7 1487.36C2212.7 1487.36 2101.18 1477.55 2070.87 1487.36 2040.55 1497.17 2025.4 1542.81 2029.73 1576.14 2034.06 1609.46 2044.16 1637.71 2063.65 1636.99 2083.14 1636.26 2221 1636.99 2221 1636.99L2212.7 1487.36Z" fill="#057253" fill-rule="evenodd"/><path d="M2197.09 1487.09C2197.09 1487.09 2241.36 1483.72 2269.43 1519.39 2297.5 1555.06 2274.83 1637.67 2238.12 1637.99 2201.41 1638.3 2156.2 1632.66 2146.42 1584.67 2136.63 1536.69 2157.15 1488.29 2197.09 1487.09Z" fill="#48C094" fill-rule="evenodd"/><path d="M2214.17 1637C2224.38 1637 2236.67 1635.27 2247.17 1628.83 2258.52 1621.89 2265.93 1610.68 2269.2 1595.53 2274.76 1569.74 2272.03 1548.58 2261.07 1532.63 2250.82 1517.73 2233.52 1508.02 2211.03 1504.57 2195.85 1502.23 2182.7 1507.14 2173.02 1518.77 2159.03 1535.56 2155.01 1563.94 2163.24 1587.77 2169.06 1604.61 2184.6 1615.01 2204.82 1615.59 2205.4 1615.61 2205.97 1615.62 2206.54 1615.62 2226.91 1615.62 2245.26 1605.2 2251.57 1589.88 2257.99 1574.27 2257.66 1559.01 2250.63 1546.89 2243.49 1534.58 2230.01 1526.58 2212.67 1524.35 2196.97 1522.33 2188.51 1529.65 2184.17 1536.14 2175.8 1548.66 2175.82 1569 2181.43 1578.82 2186.83 1588.29 2201.79 1595.59 2214.78 1595.13 2224.16 1594.8 2231.31 1590.46 2234.93 1582.91 2239.58 1573.2 2239.28 1563.17 2234.09 1555.4 2229.92 1549.14 2223.17 1545.32 2216.91 1545.66 2209.72 1546.05 2206.66 1552.06 2206.22 1557.09 2205.83 1561.52 2207.34 1566.45 2210.97 1567.3 2217.73 1568.87 2220.13 1565.18 2220.22 1565.02 2220.22 1565.02 2223.87 1558.99 2219.33 1558.13 2214.13 1557.13 2215.5 1561.18 2215.5 1561.18 2215.43 1561.29 2216.79 1566.75 2211.39 1565.49 2209.17 1564.97 2207.71 1561.35 2208.07 1557.25 2208.46 1552.76 2211.02 1547.85 2217.01 1547.52 2222.64 1547.2 2228.73 1550.71 2232.55 1556.43 2237.36 1563.65 2237.62 1573 2233.26 1582.11 2229.02 1590.94 2220.83 1593.06 2214.71 1593.28 2202.35 1593.7 2188.14 1586.83 2183.04 1577.9 2178.32 1569.63 2177.05 1550.14 2185.71 1537.17 2191.51 1528.49 2200.75 1524.7 2212.43 1526.2 2229.19 1528.35 2242.18 1536.03 2249.02 1547.83 2255.75 1559.43 2256.05 1574.12 2249.85 1589.18 2243.66 1604.22 2225.15 1614.32 2204.87 1613.73 2185.46 1613.17 2170.55 1603.24 2165 1587.16 2156.96 1563.92 2160.85 1536.28 2174.45 1519.96 2180.89 1512.22 2192.42 1503.6 2210.74 1506.41 2232.72 1509.79 2249.59 1519.22 2259.54 1533.69 2270.2 1549.2 2272.84 1569.87 2267.38 1595.14 2264.22 1609.77 2257.1 1620.58 2246.2 1627.25 2224.19 1640.74 2189.46 1632.57 2189.16 1632.49L2193.09 1634.62C2193.26 1634.66 2202.31 1637 2214.17 1637Z" fill="#057253" fill-rule="evenodd"/><path d="M3124 2134 3132.44 2194 3137 2194 3137 2135.33Z" fill="#ED9F4A" fill-rule="evenodd"/><path d="M3133.07 2194.35C3131.63 2193.98 3153.55 2201.91 3171 2197.83 3171 2197.83 3139.17 2192.8 3135.16 2186L3133.07 2194.35Z" fill="#ED9F4A" fill-rule="evenodd"/><path d="M3120.04 2197.77C3119.26 2197.68 3130.43 2191.42 3131.64 2187L3136 2192.5C3136 2192.5 3133.64 2199.32 3120.04 2197.77Z" fill="#ED9F4A" fill-rule="evenodd"/><path d="M3060.1 2134 3048 2192.52 3051.98 2194 3071 2139.46Z" fill="#ED9F4A" fill-rule="evenodd"/><path d="M3050.07 2194.35C3048.63 2193.98 3070.55 2201.91 3088 2197.83 3088 2197.83 3056.17 2192.8 3052.16 2186L3050.07 2194.35Z" fill="#ED9F4A" fill-rule="evenodd"/><path d="M3037.04 2197.77C3036.26 2197.68 3047.43 2191.42 3048.64 2187L3053 2192.5C3053 2192.5 3050.64 2199.32 3037.04 2197.77Z" fill="#ED9F4A" fill-rule="evenodd"/><path d="M3108 2063.46C3108 2063.46 3108 2157.01 3134.09 2157 3146.93 2157 3181.29 2087.01 3169.62 2063.46 3157.94 2039.91 3116.43 2043.18 3108 2063.46Z" fill="#C9FCE9" fill-rule="evenodd"/><path d="M3064.22 2055.49C3064.22 2055.49 3036.34 2144.99 3061.56 2152.81 3073.96 2156.66 3128.02 2100.02 3123.76 2073.99 3119.5 2047.96 3078.41 2038.63 3064.22 2055.49Z" fill="#C9FCE9" fill-rule="evenodd"/><path d="M3212 1805.43C3212 1805.43 3217.23 1776.61 3235.1 1769.96 3252.98 1763.31 3263 1769.96 3263 1769.96 3263 1769.96 3275.64 1765.52 3282.62 1769.51 3289.59 1773.5 3289.59 1783.7 3289.59 1783.7 3289.59 1783.7 3303.11 1785.92 3303.98 1794.78 3304.85 1803.65 3281.05 1825.82 3251.32 1820.06 3221.59 1814.29 3212 1805.43 3212 1805.43Z" fill="#E55924" fill-rule="evenodd"/><path d="M2974.34 2030.65C2985.73 2062.66 3010.25 2092.41 3056.75 2110.94 3079.66 2120.07 3185.79 2127.66 3238.69 2064.6 3243.36 2059.03 3247.15 2053.11 3250.15 2046.91 3281.41 1982.73 3231.57 1889.32 3238.69 1873.48 3246.51 1856.1 3263.96 1853.2 3260.57 1828.1 3257.18 1802.98 3226.21 1799.11 3226.21 1799.11 3226.21 1799.11 3206.85 1796.24 3183.61 1819.4 3160.4 1842.58 3165.43 1896.09 3156.07 1917.4 3149.74 1931.76 3111.59 1947.94 3073.35 1942.86 3067.48 1942.1 3061.6 1940.83 3055.81 1938.96 3032.18 1931.34 2979.1 1904.07 2972.83 1928.08 2972.31 1930.07 2971.8 1932.1 2971.34 1934.15 2964.83 1962.27 2962.62 1997.7 2974.34 2030.65Z" fill="#E9F7F8" fill-rule="evenodd"/><path d="M3260 1822C3260 1822 3283.35 1828.9 3288 1840.04 3288 1840.04 3260.19 1851.13 3253.57 1843.06 3246.96 1834.99 3254.56 1822.42 3260 1822Z" fill="#ED9F4A" fill-rule="evenodd"/><path d="M3265.26 1845.79C3265.26 1845.79 3273.67 1859.64 3265.26 1869.18 3256.86 1878.72 3238.92 1873.13 3241.2 1860.96 3243.48 1848.79 3253.94 1843 3253.94 1843L3265.26 1845.79Z" fill="#E55924" fill-rule="evenodd"/><path d="M2924.66 1995.65C2933.64 2010.85 2950.32 2029.89 2974.25 2030.95 2982.05 2031.31 2990.66 2029.77 3000 2025.53 3008.77 2021.57 3017.68 2016.39 3026.23 2010.7 3054.73 1991.84 3079 1967.93 3079 1967.93 3079 1967.93 3076.85 1958.03 3073.02 1943.04 3060.69 1894.73 3030.74 1793.54 2997.74 1799.23 2954.49 1806.71 2981.33 1854.5 2949.26 1867.94 2945.39 1869.58 2942.28 1871.39 2939.83 1873.39 2939.47 1873.69 2939.11 1874 2938.74 1874.33 2938.71 1874.36 2938.68 1874.36 2938.68 1874.39 2936.42 1876.45 2934.78 1878.66 2933.61 1881.02L2933.61 1881.05C2926.56 1895.31 2937.5 1914.1 2935.84 1928.45 2933.61 1947.86 2912.72 1975.49 2924.66 1995.65Z" fill="#E9F7F8" fill-rule="evenodd"/><path d="M3231.49 1816.56C3232.68 1814.32 3235.66 1813.37 3238.15 1814.44 3240.65 1815.51 3241.7 1818.2 3240.51 1820.44 3239.32 1822.68 3236.34 1823.63 3233.85 1822.56 3231.35 1821.49 3230.3 1818.8 3231.49 1816.56Z" fill="#060633" fill-rule="evenodd"/><path d="M2940 1873C2939.67 1873.32 2939.33 1873.65 2939 1874 2939.03 1873.97 2939.08 1873.94 2939.14 1873.9 2939.56 1873.61 2939.83 1873.32 2940 1873Z" fill="#C65447" fill-rule="evenodd"/><path d="M2924.67 1995.43C2933.66 2010.6 2950.38 2029.61 2974.36 2030.67 2985.74 2062.67 3010.24 2092.41 3056.72 2110.94 3079.61 2120.07 3185.68 2127.65 3238.55 2064.61 3243.22 2059.05 3247 2053.12 3250 2046.93L3250 2046.9C3250 2046.9 3186.44 2085.52 3107.71 2063.22 3061.2 2050.01 3040.55 2028.25 3026.44 2010.45 3016.66 1998.12 3010.06 1987.69 3000.16 1983.4 2982.69 1975.81 2980.57 1953.21 2971.36 1934.19 2967.82 1926.88 2963.22 1920.11 2956.31 1914.91 2937.96 1901.13 2931.57 1888.95 2933.63 1881 2926.58 1895.24 2937.54 1914 2935.87 1928.33 2933.63 1947.7 2912.71 1975.3 2924.67 1995.43Z" fill="#C9FCE9" fill-rule="evenodd"/><path d="M2686 1694 2687.3 1706 2688 1706 2688 1694.27Z" fill="#ED9F4A" fill-rule="evenodd"/><path d="M2688.01 1706.29C2687.71 1706.23 2692.33 1707.45 2696 1706.82 2696 1706.82 2689.3 1706.05 2688.45 1705L2688.01 1706.29Z" fill="#ED9F4A" fill-rule="evenodd"/><path d="M2685.01 1706.96C2684.86 1706.94 2686.96 1705.8 2687.18 1705L2688 1706C2688 1706 2687.56 1707.24 2685.01 1706.96Z" fill="#ED9F4A" fill-rule="evenodd"/><path d="M2672.63 1694 2670 1705.7 2670.86 1706 2675 1695.09Z" fill="#ED9F4A" fill-rule="evenodd"/><path d="M2671.01 1706.29C2670.75 1706.23 2674.79 1707.45 2678 1706.82 2678 1706.82 2672.14 1706.05 2671.4 1705L2671.01 1706.29Z" fill="#ED9F4A" fill-rule="evenodd"/><path d="M2668.01 1706.96C2667.86 1706.94 2669.96 1705.8 2670.18 1705L2671 1706C2671 1706 2670.56 1707.24 2668.01 1706.96Z" fill="#ED9F4A" fill-rule="evenodd"/><path d="M2682 1679.29C2682 1679.29 2682 1698 2687.71 1698 2690.52 1698 2698.03 1684 2695.48 1679.29 2692.92 1674.58 2683.84 1675.24 2682 1679.29Z" fill="#C9FCE9" fill-rule="evenodd"/><path d="M2673.72 1677.76C2673.72 1677.76 2667.99 1696.34 2673.17 1697.96 2675.72 1698.76 2686.83 1687 2685.95 1681.6 2685.08 1676.2 2676.63 1674.26 2673.72 1677.76Z" fill="#C9FCE9" fill-rule="evenodd"/><path d="M2704 1625.83C2704 1625.83 2705.08 1619.96 2708.77 1618.6 2712.46 1617.25 2714.53 1618.6 2714.53 1618.6 2714.53 1618.6 2717.14 1617.7 2718.58 1618.51 2720.02 1619.32 2720.02 1621.4 2720.02 1621.4 2720.02 1621.4 2722.82 1621.85 2723 1623.66 2723.18 1625.47 2718.26 1629.98 2712.12 1628.81 2705.98 1627.63 2704 1625.83 2704 1625.83Z" fill="#E55924" fill-rule="evenodd"/><path d="M2654.73 1672.08C2657.08 1678.72 2662.15 1684.9 2671.77 1688.74 2676.5 1690.64 2698.45 1692.21 2709.39 1679.12 2710.35 1677.97 2711.14 1676.74 2711.76 1675.45 2718.22 1662.13 2707.91 1642.75 2709.39 1639.46 2711 1635.85 2714.61 1635.25 2713.91 1630.04 2713.21 1624.83 2706.81 1624.02 2706.81 1624.02 2706.81 1624.02 2702.8 1623.43 2698 1628.23 2693.2 1633.05 2694.24 1644.15 2692.3 1648.57 2690.99 1651.56 2683.11 1654.91 2675.2 1653.86 2673.98 1653.7 2672.77 1653.44 2671.57 1653.05 2666.69 1651.47 2655.71 1645.81 2654.41 1650.79 2654.31 1651.21 2654.2 1651.63 2654.1 1652.05 2652.76 1657.89 2652.3 1665.24 2654.73 1672.08Z" fill="#E9F7F8" fill-rule="evenodd"/><path d="M2713.94 1629C2713.94 1629 2718.99 1630.44 2720 1632.76 2720 1632.76 2713.99 1635.07 2712.56 1633.39 2711.13 1631.71 2712.77 1629.09 2713.94 1629Z" fill="#ED9F4A" fill-rule="evenodd"/><path d="M2715.2 1634.54C2715.2 1634.54 2717 1637.22 2715.2 1639.07 2713.4 1640.91 2709.55 1639.83 2710.04 1637.48 2710.53 1635.12 2712.77 1634 2712.77 1634L2715.2 1634.54Z" fill="#E55924" fill-rule="evenodd"/><path d="M2644.77 1664.69C2646.64 1667.83 2650.12 1671.77 2655.12 1671.99 2656.75 1672.07 2658.55 1671.75 2660.5 1670.87 2662.33 1670.05 2664.19 1668.98 2665.98 1667.8 2671.93 1663.9 2677 1658.95 2677 1658.95 2677 1658.95 2676.55 1656.9 2675.75 1653.8 2673.18 1643.81 2666.92 1622.87 2660.03 1624.05 2650.99 1625.59 2656.6 1635.48 2649.9 1638.26 2649.1 1638.6 2648.45 1638.98 2647.93 1639.39 2647.86 1639.45 2647.78 1639.52 2647.71 1639.59 2647.7 1639.59 2647.69 1639.59 2647.69 1639.6 2647.22 1640.02 2646.88 1640.48 2646.63 1640.97L2646.63 1640.98C2645.16 1643.93 2647.45 1647.81 2647.1 1650.78 2646.63 1654.8 2642.27 1660.52 2644.77 1664.69Z" fill="#E9F7F8" fill-rule="evenodd"/><path d="M2708.1 1628.28C2708.34 1628.04 2708.93 1627.93 2709.43 1628.05 2709.93 1628.17 2710.14 1628.47 2709.9 1628.72 2709.66 1628.96 2709.07 1629.07 2708.57 1628.95 2708.07 1628.83 2707.86 1628.53 2708.1 1628.28Z" fill="#060633" fill-rule="evenodd"/><path d="M2649 1640C2648.67 1640.33 2648.34 1640.65 2648 1641 2648.03 1640.97 2648.08 1640.93 2648.14 1640.9 2648.56 1640.62 2648.84 1640.33 2649 1640Z" fill="#C65447" fill-rule="evenodd"/><path d="M2644.76 1664.76C2646.62 1667.91 2650.07 1671.86 2655.03 1672.07 2657.38 1678.72 2662.45 1684.89 2672.05 1688.74 2676.78 1690.64 2698.71 1692.21 2709.63 1679.12 2710.6 1677.97 2711.38 1676.74 2712 1675.45L2712 1675.44C2712 1675.44 2698.86 1683.46 2682.59 1678.83 2672.98 1676.09 2668.71 1671.57 2665.79 1667.88 2663.77 1665.32 2662.41 1663.15 2660.36 1662.26 2656.75 1660.69 2656.31 1655.99 2654.41 1652.05 2653.68 1650.53 2652.73 1649.12 2651.3 1648.04 2647.51 1645.18 2646.18 1642.65 2646.61 1641 2645.15 1643.96 2647.42 1647.85 2647.07 1650.83 2646.61 1654.85 2642.29 1660.58 2644.76 1664.76Z" fill="#C9FCE9" fill-rule="evenodd"/><path d="M2769 1733 2767.7 1746 2767 1746 2767 1733.29Z" fill="#ED9F4A" fill-rule="evenodd"/><path d="M2766.99 1745.93C2767.25 1745.84 2763.22 1747.67 2760 1746.73 2760 1746.73 2765.86 1745.57 2766.6 1744L2766.99 1745.93Z" fill="#ED9F4A" fill-rule="evenodd"/><path d="M2769.99 1745.96C2770.14 1745.94 2768.04 1744.8 2767.82 1744L2767 1745C2767 1745 2767.44 1746.24 2769.99 1745.96Z" fill="#ED9F4A" fill-rule="evenodd"/><path d="M2782.37 1733 2785 1745.68 2784.14 1746 2780 1734.18Z" fill="#ED9F4A" fill-rule="evenodd"/><path d="M2784.99 1745.93C2785.29 1745.84 2780.67 1747.67 2777 1746.73 2777 1746.73 2783.7 1745.57 2784.55 1744L2784.99 1745.93Z" fill="#ED9F4A" fill-rule="evenodd"/><path d="M2786.99 1745.96C2787.14 1745.94 2785.04 1744.8 2784.82 1744L2784 1745C2784 1745 2784.44 1746.24 2786.99 1745.96Z" fill="#ED9F4A" fill-rule="evenodd"/><path d="M2773 1718.44C2773 1718.44 2773 1738 2767.29 1738 2764.48 1738 2756.97 1723.37 2759.52 1718.44 2762.08 1713.52 2771.16 1714.2 2773 1718.44Z" fill="#C9FCE9" fill-rule="evenodd"/><path d="M2781.28 1716.76C2781.28 1716.76 2787.01 1735.34 2781.83 1736.96 2779.28 1737.76 2768.17 1726 2769.05 1720.6 2769.93 1715.2 2778.37 1713.26 2781.28 1716.76Z" fill="#C9FCE9" fill-rule="evenodd"/><path d="M2751 1664.83C2751 1664.83 2749.92 1658.96 2746.23 1657.6 2742.54 1656.25 2740.47 1657.6 2740.47 1657.6 2740.47 1657.6 2737.86 1656.7 2736.42 1657.51 2734.98 1658.32 2734.98 1660.4 2734.98 1660.4 2734.98 1660.4 2732.19 1660.85 2732 1662.66 2731.82 1664.47 2736.74 1668.98 2742.88 1667.81 2749.02 1666.63 2751 1664.83 2751 1664.83Z" fill="#E55924" fill-rule="evenodd"/><path d="M2800.27 1712.08C2797.92 1718.72 2792.85 1724.9 2783.23 1728.74 2778.5 1730.64 2756.55 1732.21 2745.61 1719.12 2744.65 1717.97 2743.86 1716.74 2743.24 1715.45 2736.78 1702.13 2747.09 1682.75 2745.61 1679.46 2744 1675.85 2740.39 1675.25 2741.09 1670.04 2741.79 1664.83 2748.19 1664.02 2748.19 1664.02 2748.19 1664.02 2752.2 1663.43 2757 1668.24 2761.8 1673.05 2760.76 1684.15 2762.7 1688.57 2764.01 1691.56 2771.9 1694.91 2779.8 1693.86 2781.02 1693.7 2782.23 1693.44 2783.43 1693.05 2788.32 1691.47 2799.29 1685.81 2800.59 1690.79 2800.7 1691.21 2800.8 1691.63 2800.9 1692.05 2802.24 1697.89 2802.7 1705.24 2800.27 1712.08Z" fill="#E9F7F8" fill-rule="evenodd"/><path d="M2741.05 1669C2741.05 1669 2736.01 1670.44 2735 1672.76 2735 1672.76 2741.01 1675.07 2742.44 1673.39 2743.88 1671.7 2742.23 1669.09 2741.05 1669Z" fill="#ED9F4A" fill-rule="evenodd"/><path d="M2739.8 1673.54C2739.8 1673.54 2738 1676.22 2739.8 1678.07 2741.6 1679.91 2745.45 1678.83 2744.96 1676.48 2744.47 1674.12 2742.23 1673 2742.23 1673L2739.8 1673.54Z" fill="#E55924" fill-rule="evenodd"/><path d="M2810.24 1704.69C2808.36 1707.83 2804.88 1711.77 2799.88 1711.99 2798.25 1712.06 2796.45 1711.75 2794.5 1710.87 2792.67 1710.05 2790.81 1708.98 2789.02 1707.8 2783.07 1703.9 2778 1698.95 2778 1698.95 2778 1698.95 2778.45 1696.9 2779.25 1693.8 2781.82 1683.81 2788.08 1662.87 2794.97 1664.05 2804 1665.59 2798.4 1675.48 2805.1 1678.26 2805.9 1678.6 2806.56 1678.98 2807.07 1679.39 2807.14 1679.45 2807.22 1679.52 2807.29 1679.59 2807.3 1679.59 2807.31 1679.59 2807.31 1679.6 2807.78 1680.02 2808.12 1680.48 2808.37 1680.97L2808.37 1680.98C2809.84 1683.93 2807.55 1687.81 2807.9 1690.78 2808.37 1694.8 2812.73 1700.52 2810.24 1704.69Z" fill="#E9F7F8" fill-rule="evenodd"/><path d="M2746.9 1667.57C2746.66 1667.07 2746.07 1666.86 2745.57 1667.1 2745.07 1667.34 2744.86 1667.93 2745.1 1668.43 2745.33 1668.93 2745.93 1669.14 2746.43 1668.9 2746.93 1668.66 2747.14 1668.07 2746.9 1667.57Z" fill="#060633" fill-rule="evenodd"/><path d="M2807 1679C2807.33 1679.33 2807.67 1679.65 2808 1680 2807.97 1679.97 2807.92 1679.94 2807.86 1679.9 2807.45 1679.62 2807.17 1679.33 2807 1679Z" fill="#C65447" fill-rule="evenodd"/><path d="M2810.24 1704.76C2808.38 1707.91 2804.93 1711.86 2799.97 1712.07 2797.62 1718.72 2792.56 1724.89 2782.95 1728.74 2778.22 1730.64 2756.29 1732.21 2745.37 1719.12 2744.4 1717.97 2743.62 1716.74 2743 1715.45L2743 1715.44C2743 1715.44 2756.14 1723.47 2772.41 1718.83 2782.02 1716.09 2786.29 1711.57 2789.21 1707.88 2791.23 1705.32 2792.59 1703.15 2794.64 1702.26 2798.25 1700.69 2798.69 1695.99 2800.59 1692.05 2801.32 1690.53 2802.28 1689.12 2803.7 1688.04 2807.5 1685.18 2808.82 1682.65 2808.39 1681 2809.85 1683.96 2807.59 1687.85 2807.93 1690.83 2808.39 1694.85 2812.71 1700.58 2810.24 1704.76Z" fill="#C9FCE9" fill-rule="evenodd"/><path d="M4392.7 1645.57C4388.03 1675.3 4388.92 1707.63 4409.2 1731.83 4454.75 1786.2 4546.15 1779.64 4565.86 1771.77 4650.17 1738.15 4650.57 1661.79 4638.13 1614.21 4632.73 1593.54 4587.02 1617.01 4566.66 1623.59 4529.4 1635.66 4486.63 1619.3 4480.35 1605.01 4477.59 1598.72 4476.28 1589.16 4474.95 1578.52L4474.94 1578.43C4473.2 1564.5 4471.41 1548.72 4466.27 1535.95L4466.27 1535.93C4463.89 1530 4460.78 1524.72 4456.62 1520.57 4436.63 1500.6 4419.97 1503.1 4419.97 1503.1 4419.97 1503.1 4393.3 1506.42 4390.37 1528.05 4387.45 1549.69 4402.47 1552.18 4409.2 1567.17 4412.93 1575.48 4398.51 1608.52 4392.7 1645.57Z" fill="#002722" fill-rule="evenodd"/><path d="M4432 1508.02C4432 1508.02 4427.51 1484.01 4412.16 1478.46 4396.81 1472.92 4388.2 1478.46 4388.2 1478.46 4388.2 1478.46 4377.35 1474.77 4371.36 1478.09 4365.37 1481.42 4365.37 1489.92 4365.37 1489.92 4365.37 1489.92 4353.77 1491.76 4353.02 1499.15 4352.27 1506.54 4372.7 1525.02 4398.24 1520.21 4423.77 1515.41 4432 1508.02 4432 1508.02Z" fill="#E55924" fill-rule="evenodd"/><path d="M4392.71 1645.06C4397.87 1646.21 4404.47 1645.82 4411.62 1642.82 4424.8 1637.32 4426.97 1652.56 4443.57 1650.87 4460.17 1649.17 4454.21 1636.05 4470.81 1631.61 4487.41 1627.16 4480.63 1604.54 4480.63 1604.54 4480.63 1604.54 4477.94 1581.52 4476.45 1573.94 4474.53 1564.22 4471.29 1545.43 4467.72 1535.74 4464.03 1525.71 4460.46 1521.17 4456.28 1517.02 4436.24 1497.07 4420.06 1502.75 4420.06 1502.75 4420.06 1502.75 4393.31 1506.06 4390.38 1527.67 4387.44 1549.28 4402.51 1551.77 4409.26 1566.74 4413 1575.04 4398.53 1608.04 4392.71 1645.06Z" fill="#E9F7F8" fill-rule="evenodd"/><path d="M4390.46 1523C4390.46 1523 4370.9 1528.75 4367 1538.03 4367 1538.03 4390.3 1547.27 4395.84 1540.55 4401.39 1533.82 4395.02 1523.35 4390.46 1523Z" fill="#ED9F4A" fill-rule="evenodd"/><path d="M4386.2 1543.34C4386.2 1543.34 4379 1554.96 4386.2 1562.96 4393.41 1570.96 4408.79 1566.27 4406.83 1556.06 4404.87 1545.86 4395.91 1541 4395.91 1541L4386.2 1543.34Z" fill="#E55924" fill-rule="evenodd"/><path d="M4546 1648.35C4546 1648.35 4581.55 1683.37 4614.5 1698.25 4647.44 1713.13 4669.49 1689.84 4679.83 1672.37 4681.28 1669.94 4682.16 1667.38 4682.62 1664.74 4682.64 1664.49 4682.68 1664.25 4682.73 1663.98 4683.35 1659.64 4682.85 1655.09 4681.76 1650.47 4678.77 1637.79 4671.34 1624.58 4670.13 1614.14 4668.19 1597.32 4686.29 1573.38 4658.49 1561.73 4630.69 1550.09 4653.96 1508.68 4616.47 1502.2 4607.41 1500.64 4598.61 1508.37 4590.46 1520.99 4564.95 1560.59 4546 1648.35 4546 1648.35Z" fill="#002722" fill-rule="evenodd"/><path d="M4508 1792 4500.86 1843 4497 1843 4497 1793.13Z" fill="#ED9F4A" fill-rule="evenodd"/><path d="M4499.94 1844.07C4501.19 1843.75 4482.15 1850.46 4467 1847.01 4467 1847.01 4494.64 1842.75 4498.12 1837L4499.94 1844.07Z" fill="#ED9F4A" fill-rule="evenodd"/><path d="M4510.97 1846.81C4511.65 1846.74 4501.87 1841.62 4500.82 1838L4497 1842.5C4497 1842.5 4499.06 1848.08 4510.97 1846.81Z" fill="#ED9F4A" fill-rule="evenodd"/><path d="M4562.95 1792 4574 1842.72 4570.37 1844 4553 1796.73Z" fill="#ED9F4A" fill-rule="evenodd"/><path d="M4571.94 1844.07C4573.19 1843.75 4554.15 1850.46 4539 1847.01 4539 1847.01 4566.64 1842.75 4570.12 1837L4571.94 1844.07Z" fill="#ED9F4A" fill-rule="evenodd"/><path d="M4582.97 1846.81C4583.65 1846.74 4573.87 1841.62 4572.82 1838L4569 1842.5C4569 1842.5 4571.06 1848.08 4582.97 1846.81Z" fill="#ED9F4A" fill-rule="evenodd"/><path d="M4522 1731.21C4522 1731.21 4522 1812 4499.17 1812 4487.93 1812 4457.87 1751.55 4468.08 1731.21 4478.3 1710.88 4514.62 1713.7 4522 1731.21Z" fill="#002722" fill-rule="evenodd"/><path d="M4559.59 1724.29C4559.59 1724.29 4583.65 1801.12 4561.89 1807.84 4551.18 1811.15 4504.53 1762.52 4508.21 1740.17 4511.89 1717.82 4547.34 1709.81 4559.59 1724.29Z" fill="#002722" fill-rule="evenodd"/><path d="M4419.56 1521.28C4418.49 1519.28 4415.8 1518.44 4413.56 1519.39 4411.32 1520.35 4410.37 1522.73 4411.44 1524.72 4412.51 1526.72 4415.2 1527.56 4417.44 1526.61 4419.68 1525.66 4420.63 1523.27 4419.56 1521.28Z" fill="#233862" fill-rule="evenodd"/><path d="M4466 1705.47C4466 1705.47 4509.4 1733.79 4555.39 1728.29 4601.38 1722.8 4583.11 1712.21 4583.11 1712.21 4583.11 1712.21 4598.83 1709.27 4597.98 1696.6 4597.98 1696.6 4608.48 1686.03 4601.74 1675.46 4595 1664.9 4596.18 1690.91 4577.55 1704.52 4560.72 1716.82 4528.72 1725.44 4466 1705.47Z" fill="#EA5C25" fill-rule="evenodd"/><path d="M4591 1520.93 4591.01 1520.94C4591.01 1520.94 4623.83 1504.45 4623.76 1542.82 4623.69 1581.19 4638.35 1569.07 4641.54 1592.67 4644.2 1612.43 4675.04 1628.17 4682 1650 4679.02 1637.36 4671.61 1624.19 4670.4 1613.78 4668.48 1597.02 4686.51 1573.15 4658.8 1561.54 4631.1 1549.94 4654.29 1508.65 4616.92 1502.2 4607.89 1500.64 4599.12 1508.35 4591 1520.93Z" fill="#E9F7F8" fill-rule="evenodd"/><path d="M2181.51 1870.09C2181.51 1870.09 2170.05 1880.85 2172.29 1888.49 2174.52 1896.13 2184.86 1901.23 2186.26 1910.57 2187.65 1919.91 2193.24 1925 2198.27 1925 2203.3 1925 2222.24 1925 2222.24 1925 2222.24 1925 2225.94 1918.43 2217 1916.45 2208.06 1914.46 2204.69 1903.49 2205.25 1893.3 2205.81 1883.11 2204.41 1869.53 2204.41 1869.53L2185.42 1865 2181.51 1870.09Z" fill="#0A2B22" fill-rule="evenodd"/><path d="M2323.78 1899.6C2323.78 1899.6 2320.95 1922.56 2326.05 1925.14 2331.14 1927.72 2392 1926.86 2392 1926.86 2392 1926.86 2392 1919.11 2381.53 1917.39 2371.05 1915.67 2352.66 1909.36 2349.54 1895.3 2346.43 1881.24 2323.78 1899.6 2323.78 1899.6Z" fill="#0A2B22" fill-rule="evenodd"/><path d="M2379 1553.95C2379 1553.95 2375.56 1596.88 2371.53 1648.49 2366.04 1718.59 2359.44 1804.7 2358.78 1821.02 2357.65 1849.34 2353.13 1894.66 2353.13 1894.66 2353.13 1894.66 2342.38 1905.42 2320.89 1900.88 2320.89 1900.88 2301.73 1836.2 2296.26 1767.76 2296.17 1766.64 2296.09 1765.51 2296.01 1764.38 2290.92 1694.71 2283 1548 2283 1548L2379 1553.95Z" fill="#B7DB6F" fill-rule="evenodd"/><path d="M2379 1553.95C2379 1553.95 2375.56 1596.93 2371.53 1648.6L2296.26 1768C2296.17 1766.88 2296.09 1765.75 2296 1764.62 2290.92 1694.87 2283 1548 2283 1548L2379 1553.95Z" fill="#97C056" fill-rule="evenodd"/><path d="M2363 1559.03C2363 1559.03 2300.92 1714.5 2260.09 1787.55 2219.27 1860.61 2206.51 1881 2206.51 1881 2206.51 1881 2183.13 1871.66 2181 1865.28 2181 1865.28 2196.61 1724.24 2223.95 1689.86 2239.4 1670.43 2257.54 1612.13 2258.39 1591.74 2259.24 1571.35 2263.92 1531 2263.92 1531L2363 1559.03Z" fill="#B7DB6F" fill-rule="evenodd"/><path d="M2484.99 1537C2484.99 1537 2507.12 1547.56 2510.1 1550.27 2513.08 1552.99 2520.43 1566.3 2519.87 1567.3 2519.3 1568.3 2518.2 1568.61 2516.19 1567.23 2514.19 1565.85 2508.56 1560.09 2508.35 1561.16 2508.14 1562.23 2523.37 1580.05 2520.68 1583.83 2517.99 1587.6 2502.72 1586.48 2494 1580.32 2485.28 1574.15 2476.57 1551.48 2475.26 1550.24 2464.15 1539.75 2484.99 1537 2484.99 1537Z" fill="#F6C99F" fill-rule="evenodd"/><path d="M2485.78 1548.02C2491.84 1542.74 2492 1541.4 2492 1541.4 2492 1541.4 2453.26 1474.37 2449.9 1467.93 2446.54 1461.48 2425.78 1360.82 2425.78 1360.82L2354 1340C2354 1340 2404.56 1470.8 2413.39 1486.97 2427.98 1513.68 2475.61 1553 2475.61 1553 2475.61 1553 2481.01 1552.16 2485.78 1548.02Z" fill="#E65924" fill-rule="evenodd"/><path d="M2391 1313.61C2391 1313.61 2416.01 1358.18 2440.46 1364 2440.46 1364 2439.44 1349.03 2433.49 1338.78 2435.93 1335.87 2438.07 1333.2 2439.92 1330.8 2446.07 1322.81 2449 1317.92 2449 1317.92L2440.7 1295.33 2435.07 1280C2432.37 1284.97 2429.39 1289.22 2426.28 1292.84 2410.25 1311.5 2391 1313.61 2391 1313.61Z" fill="#F6C99F" fill-rule="evenodd"/><path d="M2426.21 1293.01C2426.21 1293.01 2423.22 1315.36 2439.89 1331 2446.07 1323.01 2449 1318.11 2449 1318.11L2440.68 1295.5C2431.76 1292.75 2426.21 1293.01 2426.21 1293.01Z" fill="#D4AB85" fill-rule="evenodd"/><path d="M2455.9 1321.8C2455.9 1321.8 2417.98 1306.88 2427.55 1283.2 2437.12 1259.51 2438.67 1241.64 2463.29 1250.16 2487.91 1258.68 2488.94 1269.64 2487.65 1278.33 2486.36 1287.02 2466.02 1325.07 2455.9 1321.8Z" fill="#F6C99F" fill-rule="evenodd"/><path d="M2260.08 1542.75C2275.36 1564.68 2389.66 1593.99 2388.29 1578.81 2387.78 1573 2387.08 1562.76 2388.31 1548.87 2388.6 1545.61 2389.01 1542.16 2389.52 1538.53 2392.44 1518.56 2399.33 1492.92 2414.71 1463.22 2415.87 1461 2417.07 1458.76 2418.31 1456.48 2424.66 1444.99 2430.04 1432.84 2434.16 1420.95 2442.08 1398.11 2445.28 1376.26 2441.27 1361.98 2441.26 1361.9 2441.24 1361.84 2441.21 1361.78 2417.32 1350.76 2408.07 1308 2408.07 1308 2408.07 1308 2326.56 1322.6 2280.9 1431.02 2280.9 1431.02 2276.51 1442.93 2271.5 1459.09 2265.42 1478.69 2258.41 1504.52 2257.19 1522.96 2256.6 1531.71 2257.33 1538.8 2260.08 1542.75Z" fill="#FD9C29" fill-rule="evenodd"/><path d="M2422.16 1239.87C2421.9 1239.35 2421.13 1238.78 2419.25 1238.21 2419.25 1238.21 2421.01 1237.61 2423.06 1238.06 2424.12 1235.46 2426.7 1231.03 2431.54 1231 2431.54 1231 2428.77 1231.73 2427.74 1234.52 2434.38 1230.29 2446.68 1229.07 2477.39 1239.33 2517.86 1252.86 2497.64 1276.44 2491.51 1278.33 2485.38 1280.22 2474.08 1268.09 2463.93 1266.43 2453.77 1264.78 2448.27 1278.98 2444.4 1280.15 2440.53 1281.33 2442.73 1278.1 2438.68 1274.86 2434.62 1271.63 2432.29 1279.24 2432.38 1284.59 2432.47 1289.93 2424.56 1295 2424.56 1295 2424.56 1295 2424.56 1295 2419.93 1286.46 2415.29 1277.93 2416.55 1246.94 2420.98 1241.36 2421.37 1240.87 2421.76 1240.37 2422.16 1239.87Z" fill="#070706" fill-rule="evenodd"/><path d="M2417 1245.51C2417 1245.51 2421.66 1208 2448.71 1210.08 2475.76 1212.17 2487.24 1226.17 2489 1247L2417 1245.51Z" fill="#EB6D25" fill-rule="evenodd"/><path d="M2389 1259.28C2388.75 1267.39 2400.17 1274.9 2417.72 1279.64 2417.45 1277.96 2417.24 1276.11 2417.09 1274.17 2416.91 1270.95 2417.24 1256.74 2417.24 1256.74 2424.53 1252.44 2438.25 1249.81 2453.9 1250.31 2468.45 1250.77 2481.19 1253.83 2488.52 1258.09 2492.79 1260.57 2495.24 1263.45 2495.13 1266.46 2495.06 1269.07 2490.66 1276.21 2487.28 1278.23 2487.01 1279.76 2486.7 1280.91 2485.99 1283 2507.1 1279.79 2519.72 1272.46 2520 1263.45 2520.27 1254.92 2507.59 1247.06 2488.46 1242.38 2486.88 1241.99 2485.23 1241.63 2483.54 1241.28 2482.31 1241.02 2481.06 1240.79 2479.77 1240.57 2472.22 1239.23 2463.95 1238.37 2455.26 1238.1 2443.1 1237.7 2431.71 1238.52 2421.9 1240.25 2421.5 1240.31 2421.11 1240.38 2420.72 1240.46 2419.67 1240.66 2418.65 1240.87 2417.65 1241.08 2400.57 1244.76 2389.26 1251.39 2389 1259.28Z" fill="#FD9C28" fill-rule="evenodd"/><path d="M2258 1523C2355.49 1493.32 2371 1376 2371 1376 2371 1376 2315.49 1418.82 2272.18 1458.97 2266.15 1478.62 2259.2 1504.52 2258 1523Z" fill="#E65924" fill-rule="evenodd"/><path d="M2161.46 1700.35 2240.89 1708.89C2250.97 1709.98 2260.1 1702.6 2261.18 1692.5L2271 1600.78 2256.85 1599.25C2257.86 1576.09 2240.69 1555.76 2217.39 1553.26 2194.08 1550.75 2173 1566.96 2169.07 1589.81L2154.93 1588.29 2145.11 1680.01C2144.02 1690.11 2151.38 1699.26 2161.46 1700.35ZM2253.35 1598.88 2172.58 1590.18C2176.29 1569.27 2195.63 1554.46 2217.01 1556.76 2238.39 1559.06 2254.15 1577.65 2253.35 1598.88Z" fill="#44391D" fill-rule="evenodd"/><path d="M2230.24 1526.63C2230.24 1526.63 2232.45 1544.95 2231.92 1547.94 2231.38 1550.93 2227.86 1559.83 2226.99 1559.87 2226.11 1559.92 2223.45 1560.03 2223.52 1558.2 2223.59 1556.36 2224.79 1554.65 2224.02 1554.96 2223.25 1555.26 2223.02 1562.18 2219.5 1562 2215.97 1561.82 2205.59 1557.94 2206.01 1549.91 2206.44 1541.88 2217.49 1527.16 2217.76 1525.83 2219.99 1514.52 2230.24 1526.63 2230.24 1526.63Z" fill="#F6C99F" fill-rule="evenodd"/><path d="M2224.66 1529.43C2232.46 1533 2235.36 1529.36 2235.36 1529.36 2235.36 1529.36 2280.85 1453.66 2285.64 1447.57 2290.43 1441.48 2374.39 1405.57 2374.39 1405.57 2374.39 1405.57 2408.56 1392.55 2409.91 1371.89 2411.08 1353.93 2400.86 1342.9 2389.66 1336.25 2376.31 1328.32 2359.43 1329.49 2347.16 1338.99 2319.62 1360.31 2265.02 1403.19 2256.23 1414.82 2236.68 1440.71 2215 1521.84 2215 1521.84 2215 1521.84 2218.52 1526.63 2224.66 1529.43Z" fill="#FD9C29" fill-rule="evenodd"/><path d="M2558 1640.5C2558 1638.57 2556.66 1637 2555 1637 2553.34 1637 2552 1638.57 2552 1640.5 2552 1642.43 2553.34 1644 2555 1644 2556.66 1644 2558 1642.43 2558 1640.5Z" fill="#404040" fill-rule="evenodd"/><path d="M2492 1582.5C2492 1580.57 2490.66 1579 2489 1579 2487.34 1579 2486 1580.57 2486 1582.5 2486 1584.43 2487.34 1586 2489 1586 2490.66 1586 2492 1584.43 2492 1582.5Z" fill="#404040" fill-rule="evenodd"/><path d="M2500 1662C2500 1660.34 2498.43 1659 2496.5 1659 2494.57 1659 2493 1660.34 2493 1662 2493 1663.66 2494.57 1665 2496.5 1665 2498.43 1665 2500 1663.66 2500 1662Z" fill="#404040" fill-rule="evenodd"/><path d="M2573 1784C2573 1782.34 2571.43 1781 2569.5 1781 2567.57 1781 2566 1782.34 2566 1784 2566 1785.66 2567.57 1787 2569.5 1787 2571.43 1787 2573 1785.66 2573 1784Z" fill="#404040" fill-rule="evenodd"/><path d="M2514 1725C2514 1723.34 2512.66 1722 2511 1722 2509.34 1722 2508 1723.34 2508 1725 2508 1726.66 2509.34 1728 2511 1728 2512.66 1728 2514 1726.66 2514 1725Z" fill="#404040" fill-rule="evenodd"/><path d="M2492 1598.5C2492 1596.57 2490.66 1595 2489 1595 2487.34 1595 2486 1596.57 2486 1598.5 2486 1600.43 2487.34 1602 2489 1602 2490.66 1602 2492 1600.43 2492 1598.5Z" fill="#404040" fill-rule="evenodd"/><path d="M2674.75 1867.27C2674.75 1867.27 2691.87 1907.18 2689.21 1915.84 2686.54 1924.49 2666 1926 2666 1926L2701 1926C2701 1926 2700.62 1916.97 2697.96 1910.19 2695.29 1903.41 2691.87 1862 2691.87 1862L2674.75 1867.27Z" fill="#ED9F4A" fill-rule="evenodd"/><path d="M2654.84 1873C2654.84 1873 2639.9 1917.26 2632.29 1920.36 2624.68 1923.46 2612 1926 2612 1926L2642.15 1926C2642.15 1926 2637.94 1919.74 2640.69 1916.73 2643.45 1913.72 2668 1876.51 2668 1876.51L2654.84 1873Z" fill="#ED9F4A" fill-rule="evenodd"/><path d="M2544.06 1731.94C2543.16 1735.79 2553.04 1736.57 2560.87 1737.59 2563.44 1737.98 2565.75 1738.36 2567.55 1738.88 2571.4 1739.9 2577.05 1740.42 2581.92 1739.52 2588.47 1755.57 2585.64 1797.05 2590.52 1833.9 2593.73 1857.53 2614.14 1870.11 2638.91 1875.51L2638.79 1875.64C2638.79 1875.64 2639.04 1875.64 2639.56 1875.76 2640.84 1876.02 2642 1876.28 2643.28 1876.41 2645.46 1877.05 2647.52 1877.82 2647.39 1878.97 2647 1881.29 2648.41 1891.3 2648.41 1891.3L2656.76 1894C2656.76 1894 2668.95 1878.97 2671.77 1878.97 2671.9 1878.97 2671.9 1878.97 2671.9 1878.85L2674.21 1878.85 2673.83 1878.97C2673.83 1878.97 2680.25 1887.58 2682.56 1887.84 2685 1888.09 2693.85 1886.04 2693.85 1886.04 2693.85 1886.04 2700.01 1878.21 2700.66 1876.66 2701.43 1876.54 2702.07 1876.41 2702.84 1876.28 2726.97 1872.04 2739.68 1851.11 2745.97 1834.16L2746.1 1834.16C2750.72 1821.58 2752 1811.3 2752 1811.3 2739.04 1818.11 2722.09 1811.3 2722.09 1811.3 2657.14 1785.36 2610.68 1819.14 2607.6 1783.69 2605.16 1754.41 2595.92 1732.71 2592.71 1726.03 2592.71 1717.95 2586.55 1713.45 2586.55 1713.45 2586.55 1713.45 2578.84 1709.08 2572.04 1715.5 2570.76 1716.66 2569.09 1717.82 2567.04 1718.97 2558.43 1723.72 2544.96 1727.7 2544.06 1731.94Z" fill="#E9F7F8" fill-rule="evenodd"/><path d="M2563.85 1725.8C2560.82 1727.13 2560.63 1733.21 2560.83 1737 2552.96 1735.97 2543.2 1735.17 2544.05 1731.46 2544.96 1727.48 2558.33 1723.62 2566.92 1719 2567.14 1720.84 2567.1 1724.38 2563.85 1725.8Z" fill="#ED9F4A" fill-rule="evenodd"/><path d="M2582 1739.15C2588.54 1755.24 2585.72 1796.81 2590.6 1833.76 2593.81 1857.44 2614.21 1870.06 2638.98 1875.46L2638.85 1875.59C2638.85 1875.59 2639.1 1875.59 2639.62 1875.72 2640.9 1875.98 2642.06 1876.23 2643.34 1876.36 2645.52 1877.01 2647.58 1877.78 2647.45 1878.94 2647.06 1881.26 2648.47 1891.3 2648.47 1891.3L2656.81 1894C2656.81 1894 2669.01 1878.94 2671.83 1878.94 2671.96 1878.94 2671.96 1878.94 2671.96 1878.81L2674.27 1878.81 2673.88 1878.94C2673.88 1878.94 2680.3 1887.57 2682.61 1887.82 2685.05 1888.08 2693.9 1886.02 2693.9 1886.02 2693.9 1886.02 2700.06 1878.17 2700.7 1876.62 2701.47 1876.49 2702.11 1876.37 2702.88 1876.24 2727.01 1871.99 2739.71 1851.01 2746 1834.02 2746 1834.02 2726.75 1855.26 2690.69 1849.85 2654.63 1844.57 2617.16 1841.87 2608.31 1835.69 2599.45 1829.51 2590.98 1734.77 2582 1739.15Z" fill="#C9FCE9" fill-rule="evenodd"/><path d="M2478.25 1886.54C2478.25 1886.54 2467 1913.35 2468.75 1919.17 2470.5 1924.99 2484 1926 2484 1926L2461 1926C2461 1926 2461.25 1919.93 2463 1915.38 2464.75 1910.82 2467 1883 2467 1883L2478.25 1886.54Z" fill="#ED9F4A" fill-rule="evenodd"/><path d="M2491.7 1891C2491.7 1891 2501.57 1920.23 2506.6 1922.27 2511.62 1924.32 2520 1926 2520 1926L2500.08 1926C2500.08 1926 2502.86 1921.86 2501.04 1919.88 2499.22 1917.89 2483 1893.32 2483 1893.32L2491.7 1891Z" fill="#ED9F4A" fill-rule="evenodd"/><path d="M2565.96 1797.26C2566.56 1799.82 2559.96 1800.33 2554.73 1801.02 2553.01 1801.27 2551.47 1801.53 2550.27 1801.87 2547.69 1802.55 2543.92 1802.89 2540.66 1802.3 2536.28 1812.97 2538.17 1840.54 2534.91 1865.05 2532.77 1880.75 2519.13 1889.12 2502.57 1892.71L2502.66 1892.79C2502.66 1892.79 2502.49 1892.79 2502.14 1892.87 2501.29 1893.05 2500.51 1893.22 2499.66 1893.3 2498.2 1893.73 2496.82 1894.24 2496.91 1895.01 2497.17 1896.55 2496.23 1903.21 2496.23 1903.21L2490.65 1905C2490.65 1905 2482.5 1895.01 2480.61 1895.01 2480.53 1895.01 2480.53 1895.01 2480.53 1894.93L2478.98 1894.93 2479.24 1895.01C2479.24 1895.01 2474.95 1900.73 2473.41 1900.9 2471.78 1901.07 2465.86 1899.71 2465.86 1899.71 2465.86 1899.71 2461.74 1894.5 2461.31 1893.47 2460.8 1893.39 2460.37 1893.3 2459.85 1893.22 2443.73 1890.4 2435.23 1876.49 2431.03 1865.22L2430.95 1865.22C2427.86 1856.85 2427 1850.02 2427 1850.02 2435.66 1854.55 2446.99 1850.02 2446.99 1850.02 2490.39 1832.78 2521.44 1855.23 2523.5 1831.66 2525.13 1812.2 2531.3 1797.77 2533.45 1793.33 2533.45 1787.95 2537.57 1784.96 2537.57 1784.96 2537.57 1784.96 2542.71 1782.06 2547.26 1786.33 2548.12 1787.1 2549.23 1787.87 2550.6 1788.63 2556.36 1791.79 2565.36 1794.44 2565.96 1797.26Z" fill="#E9F7F8" fill-rule="evenodd"/><path d="M2552.19 1792.91C2554.3 1793.88 2554.43 1798.26 2554.29 1801 2559.76 1800.25 2566.55 1799.68 2565.96 1797 2565.33 1794.12 2556.03 1791.33 2550.06 1788 2549.9 1789.33 2549.93 1791.88 2552.19 1792.91Z" fill="#ED9F4A" fill-rule="evenodd"/><path d="M2540 1802.1C2535.65 1812.79 2537.53 1840.42 2534.29 1864.97 2532.15 1880.71 2518.59 1889.09 2502.13 1892.68L2502.22 1892.77C2502.22 1892.77 2502.05 1892.77 2501.71 1892.85 2500.85 1893.02 2500.08 1893.19 2499.23 1893.28 2497.78 1893.71 2496.42 1894.22 2496.5 1894.99 2496.76 1896.53 2495.82 1903.2 2495.82 1903.2L2490.28 1905C2490.28 1905 2482.17 1894.99 2480.3 1894.99 2480.21 1894.99 2480.21 1894.99 2480.21 1894.91L2478.68 1894.91 2478.93 1894.99C2478.93 1894.99 2474.67 1900.72 2473.13 1900.9 2471.51 1901.07 2465.63 1899.7 2465.63 1899.7 2465.63 1899.7 2461.53 1894.48 2461.11 1893.45 2460.59 1893.37 2460.17 1893.28 2459.66 1893.2 2443.62 1890.37 2435.18 1876.43 2431 1865.14 2431 1865.14 2443.79 1879.25 2467.76 1875.66 2491.72 1872.15 2516.63 1870.36 2522.51 1866.25 2528.4 1862.15 2534.03 1799.19 2540 1802.1Z" fill="#C9FCE9" fill-rule="evenodd"/><path d="M2214 2238 2221.79 2296 2226 2296 2226 2239.28Z" fill="#ED9F4A" fill-rule="evenodd"/><path d="M2223.07 2296.35C2221.66 2295.98 2243.01 2303.91 2260 2299.83 2260 2299.83 2229 2294.8 2225.1 2288L2223.07 2296.35Z" fill="#ED9F4A" fill-rule="evenodd"/><path d="M2210.04 2299.77C2209.26 2299.68 2220.43 2293.42 2221.64 2289L2226 2294.5C2226 2294.5 2223.64 2301.32 2210.04 2299.77Z" fill="#ED9F4A" fill-rule="evenodd"/><path d="M2151.1 2237 2139 2294.54 2142.98 2296 2162 2242.37Z" fill="#ED9F4A" fill-rule="evenodd"/><path d="M2142.06 2296.35C2140.7 2295.98 2161.47 2303.91 2178 2299.83 2178 2299.83 2147.84 2294.8 2144.05 2288L2142.06 2296.35Z" fill="#ED9F4A" fill-rule="evenodd"/><path d="M2129.04 2299.77C2128.26 2299.68 2139.43 2293.42 2140.64 2289L2145 2294.5C2145 2294.5 2142.64 2301.32 2129.04 2299.77Z" fill="#ED9F4A" fill-rule="evenodd"/><path d="M2198 2168.16C2198 2168.16 2198 2260 2223.69 2260 2236.32 2260 2270.15 2191.28 2258.66 2168.16 2247.16 2145.04 2206.3 2148.25 2198 2168.16Z" fill="#C9FCE9" fill-rule="evenodd"/><path d="M2155.86 2160.33C2155.86 2160.33 2128.74 2248.14 2153.27 2255.82 2165.33 2259.59 2217.91 2204.02 2213.77 2178.48 2209.62 2152.94 2169.66 2143.78 2155.86 2160.33Z" fill="#C9FCE9" fill-rule="evenodd"/><path d="M2325.66 2169.28C2318.93 2178.32 2311.03 2185.89 2302.35 2192.19 2294.4 2197.98 2285.79 2202.7 2276.84 2206.5 2226.21 2228.13 2164.68 2220.9 2148.39 2214.4 2112.53 2200.13 2100.42 2171.49 2100.01 2138.45 2099.88 2128.09 2100.9 2117.27 2102.71 2106.34 2110.46 2059.45 2132.59 2010.22 2139.73 1983 2139.73 1983 2230.31 2038.93 2250.33 2052.48 2268.61 2064.85 2288.19 2076.95 2304.1 2089.68 2304.1 2089.68 2304.1 2089.68 2304.12 2089.69 2316.41 2099.5 2326.5 2109.68 2332.14 2120.64 2339.61 2135.19 2339.22 2151.07 2325.66 2169.28Z" fill="#E9F7F8" fill-rule="evenodd"/><path d="M2181 2053.05C2181 2053.05 2152.39 2101.53 2120.75 2127.3 2119.92 2127.98 2119.1 2128.63 2118.27 2129.24 2111.99 2133.92 2105.74 2136.86 2099.65 2138.48 2075.96 2144.72 2054.58 2130.55 2041.88 2118.14 2025.5 2102.13 2038.28 2070.8 2035.5 2051.92 2032.71 2033.03 2005.98 2012.24 2032.94 1991.47 2059.9 1970.7 2022.43 1932.39 2061.48 1914.43 2081.95 1905.02 2113.82 1943.59 2139.5 1982.4 2162.8 2017.63 2181 2053.05 2181 2053.05Z" fill="#E9F7F8" fill-rule="evenodd"/><path d="M2396 2247.11C2391.23 2248.66 2385.81 2249.34 2379.98 2248.84 2353.03 2246.54 2289.09 2213.21 2276.99 2206.8 2275.7 2206.11 2275 2205.73 2275 2205.73L2281.79 2178.89 2304.28 2090C2304.28 2090 2304.28 2090 2304.29 2090.01 2304.77 2090.56 2316.63 2103.67 2332.34 2120.96 2358.96 2150.28 2396.73 2191.6 2408.96 2203.81 2424.72 2219.55 2415.68 2240.75 2396 2247.11Z" fill="#E9F7F8" fill-rule="evenodd"/><path d="M2384 2175.98C2384 2175.98 2403.11 2155.57 2421.23 2159.5 2439.35 2163.44 2444.18 2173.97 2444.18 2173.97 2444.18 2173.97 2456.85 2176.97 2460.54 2183.79 2464.23 2190.61 2458.99 2198.8 2458.99 2198.8 2458.99 2198.8 2468.96 2207.59 2465.12 2215.15 2461.28 2222.72 2430.32 2228.17 2408.82 2208.12 2387.33 2188.07 2384 2175.98 2384 2175.98Z" fill="#E55924" fill-rule="evenodd"/><path d="M2411.44 2235.34C2411.44 2235.34 2422.34 2256.21 2417.96 2267 2417.96 2267 2392.02 2255.29 2393.03 2245.22 2394.04 2235.14 2407.54 2231.86 2411.44 2235.34Z" fill="#ED9F4A" fill-rule="evenodd"/><path d="M2402 2254.39C2402 2254.39 2398.14 2269.35 2385.54 2269.98 2372.94 2270.61 2364.31 2254.66 2374.48 2248.11 2384.64 2241.55 2396.04 2244.81 2396.04 2244.81L2402 2254.39Z" fill="#E55924" fill-rule="evenodd"/><path d="M2387.44 2208.56C2388.51 2206.32 2391.2 2205.37 2393.44 2206.44 2395.68 2207.51 2396.63 2210.2 2395.56 2212.44 2394.49 2214.68 2391.8 2215.63 2389.56 2214.56 2387.32 2213.49 2386.37 2210.8 2387.44 2208.56Z" fill="#060633" fill-rule="evenodd"/><path d="M2402 2234.75 2395.89 2247.11C2391.12 2248.66 2385.69 2249.34 2379.86 2248.84 2352.88 2246.54 2288.87 2213.15 2276.76 2206.74 2226.02 2228.39 2164.37 2221.15 2148.04 2214.64 2112.12 2200.35 2099.98 2171.68 2099.57 2138.6 2075.9 2144.81 2054.54 2130.69 2041.86 2118.31 2025.49 2102.35 2038.26 2071.1 2035.48 2052.28 2032.7 2033.44 2005.99 2012.71 2032.93 1992 2017.9 2024.98 2067.69 2057.73 2102.27 2106.44 2105.43 2110.89 2108.44 2115.45 2111.28 2120.15 2113.31 2123.51 2115.61 2126.56 2118.16 2129.38 2153.12 2168.04 2234.65 2158.17 2281.57 2178.79 2288.67 2181.91 2294.99 2185.73 2300.22 2190.52 2300.91 2191.15 2301.61 2191.78 2302.32 2192.4 2344.47 2229.44 2402 2234.75 2402 2234.75Z" fill="#C9FCE9" fill-rule="evenodd"/><path d="M4245 2178 4236.56 2237 4232 2237 4232 2179.31Z" fill="#ED9F4A" fill-rule="evenodd"/><path d="M4234.94 2237.35C4236.34 2236.98 4214.99 2244.91 4198 2240.83 4198 2240.83 4228.99 2235.8 4232.9 2229L4234.94 2237.35Z" fill="#ED9F4A" fill-rule="evenodd"/><path d="M4247.96 2240.77C4248.69 2240.68 4238.22 2234.42 4237.09 2230L4233 2235.5C4233 2235.5 4235.21 2242.32 4247.96 2240.77Z" fill="#ED9F4A" fill-rule="evenodd"/><path d="M4308.38 2177 4321 2235.52 4316.85 2237 4297 2182.46Z" fill="#ED9F4A" fill-rule="evenodd"/><path d="M4317.93 2237.35C4319.34 2236.98 4297.99 2244.91 4281 2240.83 4281 2240.83 4312 2235.8 4315.9 2229L4317.93 2237.35Z" fill="#ED9F4A" fill-rule="evenodd"/><path d="M4330.96 2240.77C4331.74 2240.68 4320.57 2234.42 4319.36 2230L4315 2235.5C4315 2235.5 4317.36 2242.32 4330.96 2240.77Z" fill="#ED9F4A" fill-rule="evenodd"/><path d="M4261 2106.46C4261 2106.46 4261 2200.01 4234.91 2200 4222.07 2200 4187.71 2130.01 4199.38 2106.46 4211.06 2082.91 4252.57 2086.18 4261 2106.46Z" fill="#C9FCE9" fill-rule="evenodd"/><path d="M4303.96 2098.49C4303.96 2098.49 4331.46 2187.99 4306.59 2195.81 4294.35 2199.66 4241.03 2143.02 4245.24 2116.99 4249.44 2090.96 4289.96 2081.63 4303.96 2098.49Z" fill="#C9FCE9" fill-rule="evenodd"/><path d="M4130.58 2107.98C4137.45 2117.24 4145.52 2125 4154.38 2131.46 4162.5 2137.4 4171.29 2142.24 4180.43 2146.14 4232.13 2168.31 4294.96 2160.89 4311.59 2154.23 4348.2 2139.6 4360.57 2110.24 4360.99 2076.37 4361.13 2065.75 4360.08 2054.66 4358.23 2043.45 4350.31 1995.37 4327.72 1944.91 4320.43 1917 4320.43 1917 4227.94 1974.34 4207.5 1988.23 4188.83 2000.91 4168.84 2013.32 4152.59 2026.36 4152.59 2026.36 4152.59 2026.36 4152.58 2026.38 4140.02 2036.43 4129.72 2046.87 4123.96 2058.11 4116.33 2073.02 4116.74 2089.31 4130.58 2107.98Z" fill="#E9F7F8" fill-rule="evenodd"/><path d="M4278 1989.52C4278 1989.52 4307.15 2038.85 4339.38 2065.08 4340.23 2065.77 4341.06 2066.43 4341.91 2067.05 4348.31 2071.81 4354.67 2074.81 4360.87 2076.45 4385.01 2082.8 4406.79 2068.39 4419.73 2055.75 4436.42 2039.46 4423.39 2007.58 4426.23 1988.37 4429.07 1969.15 4456.3 1947.99 4428.84 1926.86 4401.37 1905.71 4439.55 1866.73 4399.76 1848.46 4378.91 1838.88 4346.44 1878.13 4320.28 1917.62 4296.54 1953.47 4278 1989.52 4278 1989.52Z" fill="#E9F7F8" fill-rule="evenodd"/><path d="M4059.44 2187.07C4064.31 2188.65 4069.85 2189.34 4075.8 2188.84 4103.32 2186.49 4168.62 2152.53 4180.96 2146 4182.29 2145.3 4183 2144.92 4183 2144.92L4176.06 2117.57 4153.1 2027C4153.1 2027 4153.1 2027 4153.09 2027.02 4152.59 2027.57 4140.49 2040.93 4124.44 2058.54 4097.26 2088.42 4058.7 2130.52 4046.21 2142.95 4030.12 2158.99 4039.35 2180.59 4059.44 2187.07Z" fill="#E9F7F8" fill-rule="evenodd"/><path d="M4071 2114.52C4071 2114.52 4051.42 2093.46 4032.86 2097.52 4014.3 2101.58 4009.35 2112.45 4009.35 2112.45 4009.35 2112.45 3996.37 2115.54 3992.59 2122.58 3988.82 2129.62 3994.19 2138.06 3994.19 2138.06 3994.19 2138.06 3983.97 2147.13 3987.9 2154.94 3991.84 2162.74 4023.56 2168.36 4045.57 2147.68 4067.59 2126.99 4071 2114.52 4071 2114.52Z" fill="#E55924" fill-rule="evenodd"/><path d="M4042.85 2175.34C4042.85 2175.34 4031.53 2196.21 4036.08 2207 4036.08 2207 4063.02 2195.29 4061.97 2185.21 4060.92 2175.14 4046.9 2171.86 4042.85 2175.34Z" fill="#ED9F4A" fill-rule="evenodd"/><path d="M4053 2194.79C4053 2194.79 4056.87 2210.32 4069.46 2210.98 4082.06 2211.64 4090.69 2195.07 4080.52 2188.27 4070.36 2181.46 4058.97 2184.84 4058.97 2184.84L4053 2194.79Z" fill="#E55924" fill-rule="evenodd"/><path d="M4067.56 2147.85C4066.49 2145.35 4063.8 2144.3 4061.56 2145.49 4059.32 2146.68 4058.37 2149.66 4059.44 2152.15 4060.51 2154.65 4063.2 2155.7 4065.44 2154.51 4067.68 2153.32 4068.63 2150.34 4067.56 2147.85Z" fill="#060633" fill-rule="evenodd"/><path d="M4053 2174.47 4059.22 2187.07C4064.08 2188.65 4069.61 2189.34 4075.55 2188.84 4103.03 2186.49 4168.21 2152.45 4180.54 2145.91 4232.21 2167.99 4295 2160.6 4311.62 2153.97 4348.21 2139.4 4360.57 2110.17 4360.99 2076.45 4385.09 2082.79 4406.84 2068.39 4419.76 2055.77 4436.43 2039.49 4423.42 2007.64 4426.25 1988.45 4429.08 1969.25 4456.28 1948.11 4428.85 1927 4444.15 1960.62 4393.45 1994.01 4358.23 2043.67 4355.02 2048.2 4351.95 2052.85 4349.06 2057.64 4347 2061.06 4344.66 2064.18 4342.06 2067.05 4306.45 2106.46 4223.43 2096.4 4175.65 2117.42 4168.41 2120.6 4161.98 2124.5 4156.65 2129.38 4155.95 2130.02 4155.24 2130.67 4154.51 2131.3 4111.58 2169.06 4053 2174.47 4053 2174.47Z" fill="#C9FCE9" fill-rule="evenodd"/><path d="M2448 1703 2449.3 1714 2450 1714 2450 1703.24Z" fill="#ED9F4A" fill-rule="evenodd"/><path d="M2449.01 1714.29C2448.75 1714.23 2452.79 1715.45 2456 1714.82 2456 1714.82 2450.13 1714.04 2449.4 1713L2449.01 1714.29Z" fill="#ED9F4A" fill-rule="evenodd"/><path d="M2447.01 1714.96C2446.86 1714.94 2448.96 1713.8 2449.18 1713L2450 1714C2450 1714 2449.56 1715.24 2447.01 1714.96Z" fill="#ED9F4A" fill-rule="evenodd"/><path d="M2436.1 1703 2434 1713.73 2434.69 1714 2438 1704Z" fill="#ED9F4A" fill-rule="evenodd"/><path d="M2434.01 1714.29C2433.75 1714.23 2437.78 1715.45 2441 1714.82 2441 1714.82 2435.14 1714.04 2434.4 1713L2434.01 1714.29Z" fill="#ED9F4A" fill-rule="evenodd"/><path d="M2432.01 1714.96C2431.86 1714.94 2433.96 1713.8 2434.18 1713L2435 1714C2435 1714 2434.56 1715.24 2432.01 1714.96Z" fill="#ED9F4A" fill-rule="evenodd"/><path d="M2445 1689.99C2445 1689.99 2445 1707 2449.49 1707 2451.69 1707 2457.6 1694.27 2455.59 1689.99 2453.58 1685.71 2446.45 1686.3 2445 1689.99Z" fill="#C9FCE9" fill-rule="evenodd"/><path d="M2436.54 1688.6C2436.54 1688.6 2431.19 1705.49 2436.02 1706.96 2438.4 1707.69 2448.77 1697 2447.95 1692.09 2447.14 1687.18 2439.26 1685.42 2436.54 1688.6Z" fill="#C9FCE9" fill-rule="evenodd"/><path d="M2468.85 1690.44C2467.57 1692.11 2466.07 1693.51 2464.42 1694.67 2462.91 1695.74 2461.28 1696.62 2459.58 1697.32 2449.96 1701.32 2438.28 1699.98 2435.19 1698.78 2428.38 1696.14 2426.08 1690.85 2426 1684.74 2425.98 1682.82 2426.17 1680.82 2426.52 1678.8 2427.99 1670.13 2432.19 1661.03 2433.54 1656 2433.54 1656 2450.74 1666.34 2454.54 1668.85 2458.02 1671.13 2461.73 1673.37 2464.76 1675.72 2464.76 1675.72 2464.76 1675.72 2464.76 1675.73 2467.09 1677.54 2469.01 1679.42 2470.08 1681.45 2471.5 1684.14 2471.42 1687.07 2468.85 1690.44Z" fill="#E9F7F8" fill-rule="evenodd"/><path d="M2441 1668.91C2441 1668.91 2435.81 1677.88 2430.08 1682.65 2429.93 1682.78 2429.78 1682.9 2429.63 1683.01 2428.49 1683.88 2427.36 1684.42 2426.26 1684.72 2421.96 1685.87 2418.09 1683.25 2415.79 1680.96 2412.81 1678 2415.13 1672.2 2414.63 1668.71 2414.12 1665.21 2409.28 1661.36 2414.16 1657.52 2419.05 1653.68 2412.26 1646.59 2419.34 1643.27 2423.05 1641.52 2428.82 1648.66 2433.48 1655.84 2437.7 1662.36 2441 1668.91 2441 1668.91Z" fill="#E9F7F8" fill-rule="evenodd"/><path d="M2482.01 1704.66C2481.1 1704.94 2480.07 1705.06 2478.96 1704.97 2473.84 1704.55 2461.68 1698.47 2459.38 1697.3 2459.13 1697.18 2459 1697.11 2459 1697.11L2460.29 1692.21 2464.57 1676C2464.57 1676 2464.57 1676 2464.57 1676 2464.66 1676.1 2466.92 1678.49 2469.9 1681.65 2474.97 1686.99 2482.15 1694.53 2484.47 1696.76 2487.47 1699.63 2485.75 1703.5 2482.01 1704.66Z" fill="#E9F7F8" fill-rule="evenodd"/><path d="M2479 1691.97C2479 1691.97 2482.73 1688.4 2486.26 1689.09 2489.8 1689.78 2490.74 1691.61 2490.74 1691.61 2490.74 1691.61 2493.22 1692.14 2493.94 1693.33 2494.65 1694.52 2493.63 1695.95 2493.63 1695.95 2493.63 1695.95 2495.58 1697.48 2494.83 1698.8 2494.08 1700.13 2488.04 1701.08 2483.84 1697.58 2479.65 1694.08 2479 1691.97 2479 1691.97Z" fill="#E55924" fill-rule="evenodd"/><path d="M2484.55 1703.24C2484.55 1703.24 2486.64 1707.04 2485.8 1709 2485.8 1709 2480.81 1706.87 2481.01 1705.04 2481.2 1703.21 2483.8 1702.61 2484.55 1703.24Z" fill="#ED9F4A" fill-rule="evenodd"/><path d="M2483 1706C2483 1706 2482.28 1708.87 2479.91 1709 2477.55 1709.12 2475.93 1706.05 2477.84 1704.79 2479.75 1703.53 2481.88 1704.16 2481.88 1704.16L2483 1706Z" fill="#E55924" fill-rule="evenodd"/><path d="M2480.1 1697.57C2480.34 1697.07 2480.93 1696.86 2481.43 1697.1 2481.93 1697.34 2482.14 1697.93 2481.9 1698.43 2481.66 1698.93 2481.07 1699.14 2480.57 1698.9 2480.07 1698.66 2479.86 1698.07 2480.1 1697.57Z" fill="#060633" fill-rule="evenodd"/><path d="M2483 1702.34 2481.86 1704.65C2480.97 1704.94 2479.96 1705.06 2478.87 1704.97 2473.85 1704.54 2461.92 1698.3 2459.66 1697.11 2450.21 1701.15 2438.72 1699.8 2435.67 1698.58 2428.98 1695.91 2426.72 1690.56 2426.64 1684.38 2422.23 1685.54 2418.25 1682.9 2415.89 1680.59 2412.84 1677.61 2415.22 1671.78 2414.7 1668.26 2414.18 1664.74 2409.2 1660.87 2414.22 1657 2411.42 1663.16 2420.7 1669.28 2427.15 1678.38 2427.74 1679.21 2428.3 1680.06 2428.83 1680.93 2429.2 1681.56 2429.63 1682.13 2430.11 1682.66 2436.62 1689.88 2451.82 1688.04 2460.56 1691.89 2461.88 1692.47 2463.06 1693.18 2464.03 1694.08 2464.16 1694.2 2464.29 1694.31 2464.43 1694.43 2472.28 1701.35 2483 1702.34 2483 1702.34Z" fill="#C9FCE9" fill-rule="evenodd"/><path d="M3421 1300.77 3449.35 1306C3449.35 1306 3526.92 1186.79 3529.15 1150.44 3531.29 1115.73 3601.2 963.811 3519.36 868.964 3515.68 864.663 3511.67 860.482 3507.31 856.444 3507.17 856.282 3507.01 856.141 3506.84 856 3506.84 856 3506.7 856.222 3506.44 856.666 3504.78 859.432 3498.28 871.144 3490.66 897.033 3478.73 937.5 3463.98 1012.62 3460.5 1142.36 3460.5 1142.36 3441.46 1253.44 3421 1300.77Z" fill="#F5C89E" fill-rule="evenodd"/><path d="M3421.31 1300.28C3421.31 1300.28 3390.98 1334.51 3390.05 1348.38 3389.12 1362.26 3401.12 1379.73 3414.61 1382.72 3428.09 1385.7 3419.67 1364.29 3421.69 1355.7 3423.71 1347.1 3432.52 1334.06 3431.99 1337.95 3431.46 1341.83 3426.07 1357.13 3427.74 1359.58 3429.4 1362.02 3433.75 1362.41 3435.4 1354.24 3437.05 1346.07 3450.63 1336.55 3447.97 1327.78 3445.3 1319.02 3447.48 1312.27 3451.16 1300.52 3454.84 1288.77 3461 1274.66 3461 1274.66L3439.14 1270 3421.31 1300.28Z" fill="#F5C89E" fill-rule="evenodd"/><path d="M3625.99 684C3625.99 684 3626.66 698.384 3618.04 701.198 3609.42 704.012 3626.92 735.054 3625.54 756.018 3624.17 776.983 3614.9 785.397 3614.9 785.397 3614.9 785.397 3619.35 773.867 3616.86 766.735 3616.86 766.735 3617.26 781.568 3606.44 789.049 3595.62 796.53 3598.52 803 3598.52 803 3598.52 803 3574.06 795.671 3573.38 777.31 3573.38 777.31 3572.33 785.607 3573.17 789.045 3573.17 789.045 3552.05 773.175 3551.04 754.888 3550.03 736.602 3567.67 721.17 3575.7 720.893 3583.73 720.614 3601.65 704.833 3601.17 698.868 3600.69 692.903 3625.99 684 3625.99 684Z" fill="#070706" fill-rule="evenodd"/><path d="M3558.29 580.738C3572.56 559.089 3629.22 571.206 3684.84 607.801 3740.46 644.397 3773.98 691.614 3759.71 713.262 3745.44 734.911 3688.78 722.794 3633.16 686.199 3577.54 649.603 3544.02 602.387 3558.29 580.738Z" fill="#E65924" fill-rule="evenodd"/><path d="M3436 2179.83 3465.92 2191C3465.92 2191 3595.87 2010.35 3611.87 1851.41 3614.73 1823.03 3613.78 1795.54 3607.6 1770.15 3607.6 1770.15 3608.87 1762.88 3611.09 1750.02 3612.12 1744.02 3613.39 1736.8 3614.83 1728.53 3619.05 1704.26 3624.87 1671.06 3631.51 1633.26 3646.8 1546.28 3666.61 1435.07 3682 1353.33L3673.94 1350.73 3586.71 1322.53 3568.69 1265.14 3503.74 1248C3503.74 1248 3489.23 1276.45 3476.25 1410.84 3473.86 1428.46 3471.69 1447.9 3470.05 1468.98 3464.99 1533.32 3464.63 1613.14 3476.23 1704.38 3479.21 1727.74 3482.97 1751.86 3487.64 1776.63 3491.06 1794.8 3491.57 1819.55 3490.13 1847.98 3483.58 1977.91 3436 2179.83 3436 2179.83Z" fill="#014840" fill-rule="evenodd"/><path d="M3470 1468.97 3611.07 1750C3612.1 1744 3613.37 1736.78 3614.81 1728.5 3619.04 1704.24 3624.85 1671.04 3631.5 1633.24 3646.79 1546.26 3666.61 1435.06 3682 1353.31L3673.94 1350.72 3586.69 1322.51 3568.66 1265.13 3491.06 1242C3491.06 1242 3489.18 1276.44 3476.21 1410.82 3473.81 1428.45 3471.64 1447.89 3470 1468.97Z" fill="#002722" fill-rule="evenodd"/><path d="M3504.37 1254.78C3500.05 1249.61 3535.25 1255.72 3535.25 1255.72 3590.1 1270.3 3736.65 1215 3736.65 1215 3736.65 1215 3789.79 1261.72 3782.81 1373.72 3779.41 1428.38 3773.19 1660.67 3766.69 1729.4 3764.34 1754.32 3762.28 1772.04 3761.45 1779.13 3761.43 1779.16 3761.43 1779.18 3761.43 1779.19 3761.17 1781.35 3761.92 1783.4 3763.02 1785.28 3772.59 1801.52 3780.51 1818.42 3787 1835.72 3850.76 2005.69 3777.18 2215 3777.18 2215L3758.09 2207.3C3758.09 2207.3 3716.21 1974.36 3682.19 1871.45 3676.41 1854 3670.88 1840.28 3665.8 1832.09 3651.01 1808.2 3637.28 1769.18 3624.82 1722.77 3601.27 1635.02 3582.31 1520.86 3569.7 1432.75 3567.96 1432.83 3549.82 1309.25 3504.37 1254.78Z" fill="#014840" fill-rule="evenodd"/><path d="M3589 583.154 3689.1 735C3689.1 735 3700.54 712.581 3713.25 720.624 3733.08 733.152 3775.68 690.272 3766.8 629.728 3766.21 625.77 3765.52 622.009 3764.75 618.435 3744.77 589.666 3722.6 557.632 3706.68 535.112 3660.71 507.352 3589 583.154 3589 583.154Z" fill="#070706" fill-rule="evenodd"/><path d="M3545 890.064C3559.01 902.942 3577.2 914.469 3600.79 923.43 3689.19 957.043 3734.66 884.415 3755 833.076 3743.52 824.232 3732.02 821.058 3725.37 819.324 3718.88 817.643 3712.01 816.178 3706.3 815.108 3697.12 805.833 3686.22 771.514 3689.63 721L3685.18 721.569 3610.56 731.508C3610.56 731.508 3610.75 754.9 3609.42 776.806 3608.37 793.947 3606.37 810.189 3602.63 813.72 3596.85 814.176 3593.37 814.515 3593.37 814.515 3593.37 814.515 3593.37 814.538 3593.33 814.578 3592.15 816.035 3566.61 847.623 3545 890.064Z" fill="#F5C89E" fill-rule="evenodd"/><path d="M3504.12 941.89C3504.23 943.892 3504.42 945.878 3504.65 947.941 3511.84 1004.13 3522.26 1185.52 3522.26 1185.52 3504.67 1220.1 3765.93 1300.17 3777.21 1267.2 3794.12 1241.41 3777.24 1192.01 3762.62 1154.16 3759.04 1144.92 3758.25 1135.07 3755.06 1127.92 3753.03 1123.34 3751.4 1118.61 3750.2 1113.79 3747.16 1101.7 3746.83 1089.01 3749.35 1076.67 3756.07 1043.94 3765.47 1013.54 3773.38 988.925 3777.22 976.964 3780.68 966.386 3783.34 957.562 3779.57 952.323 3775.85 947.421 3772.41 942.795 3767.18 935.677 3762.64 929.115 3759.71 923.004 3756.46 916.323 3755.07 910.106 3756.61 904.076 3757.78 899.518 3759.37 894.969 3761.29 890.522 3762.19 888.418 3763.17 886.357 3764.18 884.289 3774.92 862.607 3791 844.969 3791 844.969 3769.99 827.572 3725.31 819.779 3725.31 819.779 3725.31 819.779 3724.59 822.174 3723.37 826.082 3718.56 841.774 3705.65 881.891 3698.21 887.908 3688.94 895.374 3560.99 900.432 3559 885.646 3557.05 871.128 3592.2 817.105 3593.52 815.07 3593.56 815.018 3593.57 815 3593.57 815 3592.18 815.09 3590.84 815.192 3589.52 815.281 3582.92 815.809 3577 816.932 3571.57 817.157 3536.73 818.642 3530.49 828.085 3530.49 828.085 3548.89 850.45 3501.29 888.715 3504.12 941.89Z" fill="#FD9C29" fill-rule="evenodd"/><path d="M3611.13 731.886C3611.13 731.886 3611.33 755.145 3610 776.957 3650.9 778.417 3674.85 742.248 3685 722L3611.13 731.886Z" fill="#D8A983" fill-rule="evenodd"/><path d="M3595.97 751.673C3595.97 751.673 3693.53 759.491 3697.47 698.733 3701.41 637.974 3716.66 598.063 3654.53 590.503 3592.41 582.943 3578.79 605.344 3572.54 625.305 3566.28 645.266 3570.69 748.074 3595.97 751.673Z" fill="#F5C89E" fill-rule="evenodd"/><path d="M3577.12 591.71C3593.37 574.334 3604.52 579.086 3610.55 585.006 3665.77 558.998 3697.38 604.68 3697.38 604.68 3701.13 648.845 3731 675.916 3731 675.916 3731 675.916 3712.51 685.801 3672.17 672.606 3659.85 668.575 3649.23 658.933 3640.41 647.496 3655.24 676.456 3676.55 698.001 3676.55 698.001 3629.01 672.163 3613.67 602.576 3612.17 595.225 3605.87 600.211 3593.39 611.119 3589.09 622.315 3583.23 637.531 3579.02 669.354 3569.8 667.675 3569.8 667.676 3552.75 617.771 3577.12 591.71Z" fill="#070706" fill-rule="evenodd"/><path d="M3666 2230 3817.17 2230C3817.17 2230 3820.79 2207.02 3812.9 2189.58 3805.33 2172.85 3793.48 2165.25 3796.32 2145 3786.71 2154.87 3771.06 2165.92 3749.2 2162.98 3746.52 2167.31 3731.92 2190.49 3722.97 2196.9 3713.09 2203.98 3669.04 2201.46 3666 2230Z" fill="#002722" fill-rule="evenodd"/><path d="M3342 2230 3492.41 2230C3492.41 2230 3498.03 2206.02 3488.15 2189.7 3479.41 2175.27 3482.76 2167.04 3489.24 2155.1 3482.43 2157.88 3473.61 2160.42 3463.91 2159.86 3456.41 2159.43 3448.49 2156.04 3441.54 2152 3435.06 2159.38 3407.35 2190.78 3398.68 2197 3388.86 2204.06 3345.03 2201.54 3342 2230Z" fill="#002722" fill-rule="evenodd"/><path d="M3769.32 660C3769.32 660 3814.57 569.865 3751.33 534.234 3688.09 498.603 3641.8 512.594 3607 556.171L3769.32 660Z" fill="#E65924" fill-rule="evenodd"/><path d="M3565.33 642.619C3564.37 633.49 3564.34 622.96 3566.81 613.033 3562.32 603.564 3561.51 595.372 3565.17 589.495 3569.4 582.676 3579.04 579.916 3592.14 580.777 3614.64 582.22 3647.32 594.328 3680.2 614.899 3722.99 641.684 3752.79 674.448 3755.61 695.539 3756.22 700.084 3755.59 704.082 3753.53 707.372 3750.78 711.779 3745.78 714.51 3739.02 715.623 3729.86 722.908 3720.35 725.161 3713.56 720.853 3706.92 716.64 3700.62 720.783 3696.12 725.694 3751.43 748.553 3797.31 752.078 3810.39 731.065 3822.15 712.138 3804.42 677.999 3768.09 642.35 3748.6 623.243 3723.74 603.7 3695.23 585.855 3672.28 571.503 3649.42 559.765 3627.98 550.962 3573.09 528.403 3527.62 525.033 3514.62 545.941 3501.96 566.283 3523.38 604.18 3565.33 642.619Z" fill="#FD9C29" fill-rule="evenodd"/><path d="M3661.61 1133.64C3699.16 1145.71 3735.72 1150.9 3764.72 1153 3761.15 1143.74 3758.5 1135.35 3755.32 1128.19 3753.29 1123.6 3751.66 1118.87 3750.46 1114.03 3747.43 1101.92 3747.1 1089.2 3749.62 1076.84 3756.32 1044.05 3774.11 988.097 3782 963.437 3760.94 916.28 3739.17 942.001 3739.17 942.001 3739.17 942.001 3675.51 970.661 3648.41 1023.49 3621.3 1076.32 3629.21 1123.22 3661.61 1133.64Z" fill="#E65924" fill-rule="evenodd"/><path d="M3743 822.616C3743 822.616 3682.03 861.667 3666.44 944L3648 938.131C3648 938.131 3655.14 879.36 3725.66 819L3743 822.616Z" fill="#014840" fill-rule="evenodd"/><path d="M3528.31 945.739 3547.6 947C3543.74 876.094 3579.44 827.685 3590 815 3583.38 815.527 3577.39 816.167 3572.01 816.875 3521.49 889.709 3528.31 945.739 3528.31 945.739Z" fill="#014840" fill-rule="evenodd"/><path d="M3664.38 989.66C3665.58 984.603 3677.37 935.454 3677.37 935.454 3677.37 935.454 3680.09 920.088 3653.03 918.569 3625.97 917.051 3529.97 912 3529.97 912 3529.97 912 3516.89 919.88 3516.7 936.046 3516.5 952.212 3503.44 1044.71 3503.44 1044.71L3490 1248.13 3782.75 1374C3782.75 1374 3802.82 1271.19 3780.35 1199.53 3767.24 1157.73 3750.34 1114.09 3750.34 1114.09 3750.34 1114.09 3646.17 1066.9 3664.38 989.66Z" fill="#014840" fill-rule="evenodd"/><path d="M3667.6 936.421C3669.02 932.211 3666.54 927.715 3662.07 926.378 3657.6 925.04 3652.82 927.37 3651.4 931.579 3649.98 935.79 3652.46 940.286 3656.93 941.623 3661.4 942.959 3666.18 940.63 3667.6 936.421Z" fill="#ED7D2B" fill-rule="evenodd"/><path d="M3665.62 936.421C3666.96 932.211 3664.63 927.714 3660.42 926.378 3656.21 925.04 3651.71 927.37 3650.38 931.579 3649.04 935.789 3651.37 940.286 3655.58 941.623 3659.79 942.959 3664.29 940.63 3665.62 936.421Z" fill="#3FB78A" fill-rule="evenodd"/><path d="M3663 933.998C3663 933.446 3662.55 932.999 3662 933 3661.45 933.001 3661 933.449 3661 934.001 3661 934.554 3661.45 935.001 3662 935 3662.55 934.999 3663 934.551 3663 933.998Z" fill="#2B478B" fill-rule="evenodd"/><path d="M3655 933.998C3655 933.446 3654.55 932.999 3654 933 3653.45 933.001 3653 933.449 3653 934.002 3653 934.553 3653.45 935 3654 935 3654.55 934.999 3655 934.551 3655 933.998Z" fill="#2B478B" fill-rule="evenodd"/><path d="M3548.62 926.421C3549.96 922.211 3547.63 917.715 3543.42 916.378 3539.21 915.04 3534.71 917.369 3533.38 921.579 3532.04 925.79 3534.37 930.286 3538.58 931.623 3542.79 932.959 3547.29 930.63 3548.62 926.421Z" fill="#ED7D2B" fill-rule="evenodd"/><path d="M3546.62 926.072C3547.96 921.599 3545.63 916.821 3541.42 915.4 3537.21 913.981 3532.71 916.455 3531.38 920.928 3530.04 925.401 3532.37 930.178 3536.58 931.599 3540.79 933.02 3545.29 930.545 3546.62 926.072Z" fill="#3FB78A" fill-rule="evenodd"/><path d="M3544 923.496C3544 922.669 3543.55 921.999 3543 922 3542.45 922 3542 922.674 3542 923.503 3542 924.33 3542.45 925 3543 925 3543.55 924.997 3544 924.325 3544 923.496Z" fill="#2B478B" fill-rule="evenodd"/><path d="M3537 923.498C3537 922.669 3536.33 921.998 3535.5 922 3534.67 922.001 3534 922.674 3534 923.503 3534 924.331 3534.67 925.002 3535.5 925 3536.33 924.999 3537 924.327 3537 923.498Z" fill="#2B478B" fill-rule="evenodd"/><path d="M3755.99 695C3755.99 695 3756.67 709.505 3747.93 712.342 3739.19 715.181 3756.93 746.483 3755.54 767.624 3754.15 788.765 3744.75 797.249 3744.75 797.249 3744.75 797.249 3749.26 785.622 3746.74 778.43 3746.74 778.43 3747.14 793.387 3736.18 800.932 3725.21 808.476 3728.16 815 3728.16 815 3728.16 815 3703.37 807.608 3702.67 789.094 3702.67 789.094 3701.61 797.461 3702.47 800.928 3702.47 800.928 3681.06 784.924 3680.04 766.483 3679.02 748.044 3696.89 732.483 3705.03 732.202 3713.17 731.921 3731.33 716.008 3730.84 709.991 3730.35 703.976 3755.99 695 3755.99 695Z" fill="#070706" fill-rule="evenodd"/><path d="M3755.15 1178C3755.15 1178 3726.13 1196.51 3721.88 1196.35 3711.92 1195.97 3692.26 1173.99 3675.89 1184.15 3659.53 1194.32 3643.5 1211.26 3649.16 1218.03 3654.83 1224.81 3674.05 1216.81 3683.27 1218.17 3692.49 1219.52 3715.22 1230.95 3731.26 1225.57 3746.68 1220.4 3780 1199.15 3780 1199.15L3755.15 1178Z" fill="#F5C89E" fill-rule="evenodd"/><path d="M3791.55 844.716C3791.55 844.716 3900.08 972.718 3936 1044.83 3936 1044.83 3892.81 1138.72 3752.82 1215 3752.82 1215 3746.6 1213.64 3737.1 1206.86 3722.29 1196.3 3738.7 1188.56 3741.94 1186.47 3777.46 1163.49 3839.52 1064.53 3841.32 1055.95 3843.11 1047.36 3763.53 970.348 3739.35 941.874 3715.17 913.399 3753.95 830.048 3791.55 844.716Z" fill="#F5C89E" fill-rule="evenodd"/><path d="M3626 718.1C3626 718.1 3611.36 726.947 3600.94 725.917 3590.62 724.897 3585 712.49 3585 712.49 3585 712.49 3605.02 709.544 3626 718.1Z" fill="#FFF2E9" fill-rule="evenodd"/><path d="M3795.18 846.928 3844 894.531C3844 894.531 3832.85 964.82 3758.96 974 3758.96 974 3698.31 925.539 3734.54 875.061 3770.78 824.58 3795.18 846.928 3795.18 846.928Z" fill="#FD9C29" fill-rule="evenodd"/><path d="M3530.85 828.115C3530.85 828.115 3493.16 845.432 3481 905.902 3481 905.902 3481.7 925.116 3510.75 935 3510.75 935 3548.9 832.875 3543.47 828.115 3538.04 823.356 3530.85 828.115 3530.85 828.115Z" fill="#FD9C29" fill-rule="evenodd"/><path d="M3722 1196.89C3722 1196.89 3720.34 1189.56 3714.03 1186.68 3707.72 1183.79 3701.85 1177.49 3701.34 1179.33 3700.83 1181.17 3700.43 1184.23 3703.7 1187.95 3706.96 1191.66 3712.52 1197.89 3722 1196.89Z" fill="#FFB27D" fill-rule="evenodd"/><path d="M2569 2141C2569 2141 2481.74 1972.51 2469.89 2016.25 2458.03 2059.99 2569 2141 2569 2141Z" fill="url(#fill9)" fill-rule="evenodd"/><path d="M2543 2145C2543 2145 2457.63 2064.62 2449.47 2079.94 2441.31 2095.26 2543 2145 2543 2145Z" fill="url(#fill10)" fill-rule="evenodd"/><path d="M2582.61 2138C2582.29 2136.27 2531.06 1996.9 2571.61 2001.09 2612.15 2005.29 2582.61 2138 2582.61 2138Z" fill="url(#fill11)" fill-rule="evenodd"/><path d="M4807.78 2252.06 4808 2167C4780.54 2167.21 4752.2 2168.54 4723.35 2171.36 4714.35 2172.23 4705.28 2173.24 4696.19 2174.42 4694.64 2174.62 4693.08 2174.83 4691.56 2175.04 4675.63 2177.27 4659.88 2180.37 4644.37 2184.17 4601.54 2190.09 4546.44 2202.6 4487.65 2228.63 4490.6 2227.71 4524.1 2217.3 4546.74 2218.1 4546.21 2218.35 4545.7 2218.57 4545.16 2218.81 4529.43 2220.77 4476.65 2230.15 4403.81 2271.99 4406.07 2271.02 4443.29 2254.97 4474.44 2255.34 4474.08 2255.55 4473.7 2255.77 4473.37 2255.96 4454.92 2258.01 4411.27 2271.36 4348.44 2343.86 4338.58 2352 4329.63 2359.72 4321.63 2366.82 4311.38 2375.89 4302.75 2383.95 4295.87 2390.54 4283.63 2402.24 4277 2409.34 4277 2409.34L4475.13 2409.96 4807.35 2411 4807.7 2283.25 4807.75 2263.44 4807.78 2252.06Z" fill="#02644D" fill-rule="evenodd"/><path d="M4808 2143 4807.93 2166.53 4807.71 2251.82 4807.68 2263.22 4807.63 2283.09 4807.28 2411.18 4807.28 2413 4475.29 2412.28C4475.39 2411.56 4475.51 2410.85 4475.63 2410.14 4481.55 2373.87 4498.57 2343.81 4517.63 2320.37 4549.85 2280.75 4587.87 2260 4587.87 2260 4512.16 2273.54 4467.56 2318.32 4449.45 2340.73 4443.28 2348.39 4440.18 2353.42 4440 2353.73 4441.38 2349.73 4442.99 2345.85 4444.79 2342.06 4477.85 2272.38 4576.59 2238.46 4576.59 2238.46 4520.19 2246.93 4456.19 2284.19 4454.2 2285.35 4505.78 2240.59 4596.83 2203.56 4691.69 2174.59 4701.8 2171.5 4712 2168.5 4722.19 2165.57 4751.13 2157.29 4780.07 2149.77 4808 2143Z" fill="#49C194" fill-rule="evenodd"/><path d="M4722 2216C4723.45 2217.23 4759.92 2247.7 4807 2263.2L4806.95 2283C4775.6 2264.82 4745.43 2242.62 4722 2216Z" fill="#02644D" fill-rule="evenodd"/><path d="M4808 2090 4807.86 2143.43 4807.79 2166.91 4807.57 2252C4774.37 2234.17 4732.47 2205.61 4722.66 2171.27 4722.16 2169.51 4721.75 2167.75 4721.42 2165.97L4721.42 2165.95C4716.51 2139.26 4755.53 2110.46 4808 2090Z" fill="#02644D" fill-rule="evenodd"/><path d="M4042 1951 4049.14 2005 4053 2005 4053 1952.19Z" fill="#ED9F4A" fill-rule="evenodd"/><path d="M4050.06 2005.71C4048.77 2005.37 4068.39 2012.69 4084 2008.92 4084 2008.92 4055.52 2004.27 4051.93 1998L4050.06 2005.71Z" fill="#ED9F4A" fill-rule="evenodd"/><path d="M4038.04 2008.79C4037.31 2008.71 4047.78 2003.02 4048.91 1999L4053 2004C4053 2004 4050.79 2010.2 4038.04 2008.79Z" fill="#ED9F4A" fill-rule="evenodd"/><path d="M3983.57 1951 3972 2003.67 3975.81 2005 3994 1955.91Z" fill="#ED9F4A" fill-rule="evenodd"/><path d="M3975.06 2005.71C3973.77 2005.37 3993.39 2012.69 4009 2008.92 4009 2008.92 3980.52 2004.27 3976.93 1998L3975.06 2005.71Z" fill="#ED9F4A" fill-rule="evenodd"/><path d="M3963.03 2008.79C3962.35 2008.71 3972.13 2003.02 3973.18 1999L3977 2004C3977 2004 3974.93 2010.2 3963.03 2008.79Z" fill="#ED9F4A" fill-rule="evenodd"/><path d="M4027 1885.96C4027 1885.96 4027 1971.01 4051.06 1971 4062.89 1971 4094.57 1907.37 4083.8 1885.96 4073.04 1864.55 4034.77 1867.53 4027 1885.96Z" fill="#C9FCE9" fill-rule="evenodd"/><path d="M3987.95 1879.69C3987.95 1879.69 3962.75 1960.74 3985.54 1967.83 3996.76 1971.32 4045.64 1920.02 4041.78 1896.44 4037.93 1872.87 4000.78 1864.42 3987.95 1879.69Z" fill="#C9FCE9" fill-rule="evenodd"/><path d="M4121 1652.16C4121 1652.16 4125.78 1626.54 4142.09 1620.63 4158.41 1614.72 4167.57 1620.63 4167.57 1620.63 4167.57 1620.63 4179.11 1616.69 4185.48 1620.23 4191.84 1623.78 4191.84 1632.85 4191.84 1632.85 4191.84 1632.85 4204.18 1634.82 4204.98 1642.7 4205.77 1650.58 4184.05 1670.29 4156.9 1665.16 4129.76 1660.04 4121 1652.16 4121 1652.16Z" fill="#E55924" fill-rule="evenodd"/><path d="M3905.58 1856.52C3915.93 1885.62 3938.2 1912.65 3980.45 1929.49 4001.26 1937.79 4097.68 1944.68 4145.73 1887.38 4149.97 1882.32 4153.41 1876.94 4156.14 1871.3 4184.54 1812.98 4139.27 1728.08 4145.73 1713.69 4152.83 1697.89 4168.69 1695.25 4165.61 1672.45 4162.52 1649.62 4134.39 1646.1 4134.39 1646.1 4134.39 1646.1 4116.81 1643.49 4095.69 1664.54 4074.61 1685.61 4079.18 1734.24 4070.67 1753.61 4064.92 1766.66 4030.27 1781.36 3995.53 1776.74 3990.19 1776.05 3984.85 1774.9 3979.59 1773.2 3958.12 1766.27 3909.9 1741.49 3904.2 1763.3 3903.73 1765.12 3903.27 1766.96 3902.85 1768.83 3896.94 1794.38 3894.93 1826.58 3905.58 1856.52Z" fill="#E9F7F8" fill-rule="evenodd"/><path d="M4165.02 1668C4165.02 1668 4185.85 1674.04 4190 1683.78 4190 1683.78 4165.2 1693.49 4159.3 1686.43 4153.39 1679.37 4160.18 1668.37 4165.02 1668Z" fill="#ED9F4A" fill-rule="evenodd"/><path d="M4169.67 1689.52C4169.67 1689.52 4177.17 1702.03 4169.67 1710.65 4162.16 1719.26 4146.14 1714.21 4148.18 1703.22 4150.22 1692.23 4159.55 1687 4159.55 1687L4169.67 1689.52Z" fill="#E55924" fill-rule="evenodd"/><path d="M3860.34 1824.85C3868.52 1838.67 3883.72 1855.99 3905.54 1856.95 3912.64 1857.28 3920.49 1855.88 3929 1852.03 3936.99 1848.42 3945.11 1843.71 3952.91 1838.54 3978.88 1821.38 4001 1799.64 4001 1799.64 4001 1799.64 3999.04 1790.63 3995.55 1777 3984.31 1733.07 3957.01 1641.03 3926.94 1646.21 3887.52 1653.01 3911.98 1696.48 3882.76 1708.7 3879.23 1710.19 3876.39 1711.84 3874.16 1713.66 3873.83 1713.93 3873.5 1714.21 3873.17 1714.51 3873.14 1714.54 3873.12 1714.54 3873.12 1714.56 3871.05 1716.44 3869.56 1718.45 3868.49 1720.6L3868.49 1720.62C3862.07 1733.59 3872.04 1750.68 3870.53 1763.73 3868.49 1781.39 3849.46 1806.52 3860.34 1824.85Z" fill="#E9F7F8" fill-rule="evenodd"/><path d="M4139.44 1662.56C4140.51 1660.32 4143.2 1659.37 4145.44 1660.44 4147.68 1661.51 4148.63 1664.2 4147.56 1666.44 4146.49 1668.68 4143.8 1669.63 4141.56 1668.56 4139.32 1667.49 4138.37 1664.8 4139.44 1662.56Z" fill="#060633" fill-rule="evenodd"/><path d="M3875 1714C3874.67 1714.32 3874.33 1714.65 3874 1715 3874.03 1714.97 3874.08 1714.94 3874.14 1714.9 3874.56 1714.61 3874.84 1714.32 3875 1714Z" fill="#C65447" fill-rule="evenodd"/><path d="M3860.33 1824.76C3868.51 1838.52 3883.7 1855.76 3905.49 1856.71 3915.84 1885.74 3938.1 1912.71 3980.34 1929.5 4001.15 1937.78 4097.55 1944.66 4145.6 1887.49 4149.83 1882.45 4153.28 1877.08 4156 1871.46L4156 1871.43C4156 1871.43 4098.24 1906.46 4026.69 1886.23 3984.42 1874.26 3965.65 1854.52 3952.83 1838.38 3943.94 1827.2 3937.94 1817.74 3928.94 1813.85 3913.06 1806.97 3911.14 1786.47 3902.77 1769.23 3899.55 1762.6 3895.37 1756.46 3889.09 1751.75 3872.42 1739.25 3866.61 1728.21 3868.48 1721 3862.07 1733.91 3872.03 1750.93 3870.52 1763.92 3868.48 1781.49 3849.46 1806.51 3860.33 1824.76Z" fill="#C9FCE9" fill-rule="evenodd"/><path d="M2085.7 1466.01C2085.7 1466.01 1974.18 1454.73 1943.87 1466.01 1913.55 1477.29 1898.4 1529.74 1902.73 1568.04 1907.06 1606.35 1917.16 1638.82 1936.65 1637.98 1956.14 1637.15 2094 1637.98 2094 1637.98L2085.7 1466.01Z" fill="#057253" fill-rule="evenodd"/><path d="M2069.48 1465.1C2069.48 1465.1 2114.06 1461.19 2142.34 1502.54 2170.61 1543.88 2147.78 1639.62 2110.8 1639.99 2073.83 1640.35 2028.29 1633.81 2018.44 1578.2 2008.58 1522.58 2029.24 1466.5 2069.48 1465.1Z" fill="#48C094" fill-rule="evenodd"/><path d="M2087.17 1638C2097.38 1638 2109.68 1636 2120.17 1628.61 2131.52 1620.61 2138.93 1607.72 2142.2 1590.29 2147.76 1560.62 2145.03 1536.28 2134.07 1517.94 2123.82 1500.79 2106.52 1489.63 2084.03 1485.65 2068.85 1482.96 2055.7 1488.62 2046.02 1501.99 2032.03 1521.31 2028.01 1553.95 2036.24 1581.36 2042.06 1600.73 2057.6 1612.7 2077.82 1613.37 2078.4 1613.39 2078.97 1613.4 2079.54 1613.4 2099.91 1613.4 2118.26 1601.42 2124.57 1583.8 2130.99 1565.84 2130.66 1548.28 2123.63 1534.34 2116.49 1520.18 2103.01 1510.98 2085.67 1508.41 2069.97 1506.09 2061.51 1514.51 2057.17 1521.97 2048.8 1536.38 2048.82 1559.78 2054.43 1571.08 2059.83 1581.96 2074.79 1590.36 2087.78 1589.84 2097.16 1589.45 2104.31 1584.46 2107.93 1575.77 2112.58 1564.61 2112.28 1553.07 2107.09 1544.13 2102.92 1536.93 2096.17 1532.54 2089.91 1532.93 2082.72 1533.38 2079.66 1540.29 2079.22 1546.07 2078.83 1551.17 2080.34 1556.84 2083.97 1557.81 2090.73 1559.63 2093.13 1555.38 2093.22 1555.2 2093.22 1555.2 2096.87 1548.26 2092.33 1547.27 2087.13 1546.12 2088.5 1550.77 2088.5 1550.77 2088.43 1550.9 2089.79 1557.18 2084.39 1555.73 2082.17 1555.14 2080.71 1550.98 2081.07 1546.26 2081.46 1541.09 2084.02 1535.44 2090.01 1535.06 2095.64 1534.7 2101.73 1538.74 2105.55 1545.32 2110.36 1553.62 2110.62 1564.38 2106.26 1574.85 2102.02 1585.02 2093.83 1587.45 2087.71 1587.7 2075.35 1588.19 2061.14 1580.28 2056.04 1570.02 2051.32 1560.5 2050.05 1538.08 2058.71 1523.16 2064.51 1513.18 2073.75 1508.81 2085.43 1510.54 2102.19 1513.02 2115.18 1521.85 2122.02 1535.42 2128.76 1548.76 2129.05 1565.66 2122.85 1582.99 2116.66 1600.3 2098.15 1611.91 2077.87 1611.24 2058.46 1610.59 2043.55 1599.16 2038 1580.67 2029.96 1553.93 2033.85 1522.14 2047.45 1503.36 2053.89 1494.46 2065.42 1484.54 2083.74 1487.77 2105.72 1491.66 2122.59 1502.51 2132.54 1519.16 2143.2 1536.99 2145.84 1560.77 2140.38 1589.84 2137.22 1606.68 2130.1 1619.11 2119.2 1626.79 2097.19 1642.3 2062.46 1632.91 2062.16 1632.82L2066.09 1635.26C2066.26 1635.31 2075.31 1638 2087.17 1638Z" fill="#057253" fill-rule="evenodd"/></g></svg>