<svg width="2646" height="2075" xmlns="http://www.w3.org/2000/svg" xmlns:xlink="http://www.w3.org/1999/xlink" xml:space="preserve" overflow="hidden"><defs><clipPath id="clip0"><rect x="230" y="2357" width="2646" height="2075"/></clipPath><radialGradient cx="7329054" cy="1393766" r="7460404" fx="7329055" fy="1393767" gradientUnits="userSpaceOnUse" spreadMethod="pad" id="fill1" gradientTransform="matrix(0.000360892 0 0 0.000360892 230 3643)"><stop offset="0" stop-color="#5D993F"/><stop offset="1" stop-color="#C5A34C"/><stop offset="1" stop-color="#74C4E9"/></radialGradient><radialGradient cx="7329054" cy="0" r="7449256" fx="7329055" fy="-0.0234796" gradientUnits="userSpaceOnUse" spreadMethod="pad" id="fill2" gradientTransform="matrix(0.000360892 0 0 0.000360892 231 3950)"><stop offset="0" stop-color="#257C4F"/><stop offset="0.8" stop-color="#B4C155"/><stop offset="1" stop-color="#C9CD55"/><stop offset="1" stop-color="#C5A34C"/></radialGradient><linearGradient x1="1331.4" y1="4008.92" x2="1282.6" y2="4067.08" gradientUnits="userSpaceOnUse" spreadMethod="reflect" id="fill3"><stop offset="0" stop-color="#B6C555"/><stop offset="0.52" stop-color="#609950"/><stop offset="0.72" stop-color="#3B7D23"/><stop offset="1" stop-color="#3B7D23"/></linearGradient><linearGradient x1="1343.91" y1="4024.96" x2="1306.09" y2="4070.04" gradientUnits="userSpaceOnUse" spreadMethod="reflect" id="fill4"><stop offset="0" stop-color="#B6C555"/><stop offset="0.52" stop-color="#609950"/><stop offset="0.72" stop-color="#3B7D23"/><stop offset="1" stop-color="#3B7D23"/></linearGradient><linearGradient x1="1298.27" y1="4021.26" x2="1251.73" y2="4076.74" gradientUnits="userSpaceOnUse" spreadMethod="reflect" id="fill5"><stop offset="0" stop-color="#B6C555"/><stop offset="0.52" stop-color="#609950"/><stop offset="0.72" stop-color="#3B7D23"/><stop offset="1" stop-color="#3B7D23"/></linearGradient><linearGradient x1="2817.35" y1="3906" x2="2763.65" y2="3970" gradientUnits="userSpaceOnUse" spreadMethod="reflect" id="fill6"><stop offset="0" stop-color="#B6C555"/><stop offset="0.52" stop-color="#609950"/><stop offset="0.72" stop-color="#3B7D23"/><stop offset="1" stop-color="#3B7D23"/></linearGradient><linearGradient x1="2825.1" y1="3931.24" x2="2786.9" y2="3976.76" gradientUnits="userSpaceOnUse" spreadMethod="reflect" id="fill7"><stop offset="0" stop-color="#B6C555"/><stop offset="0.52" stop-color="#609950"/><stop offset="0.72" stop-color="#3B7D23"/><stop offset="1" stop-color="#3B7D23"/></linearGradient><linearGradient x1="2778.91" y1="3915.99" x2="2736.09" y2="3967.01" gradientUnits="userSpaceOnUse" spreadMethod="reflect" id="fill8"><stop offset="0" stop-color="#B6C555"/><stop offset="0.52" stop-color="#609950"/><stop offset="0.72" stop-color="#3B7D23"/><stop offset="1" stop-color="#3B7D23"/></linearGradient><linearGradient x1="1108.97" y1="4115.49" x2="1025.03" y2="4215.51" gradientUnits="userSpaceOnUse" spreadMethod="reflect" id="fill9"><stop offset="0" stop-color="#3B7D23"/><stop offset="1" stop-color="#B6C555"/></linearGradient><linearGradient x1="1077.09" y1="4160.52" x2="1020.91" y2="4227.48" gradientUnits="userSpaceOnUse" spreadMethod="reflect" id="fill10"><stop offset="0" stop-color="#3B7D23"/><stop offset="1" stop-color="#B6C555"/></linearGradient><linearGradient x1="1143.37" y1="4122.42" x2="1078.63" y2="4199.58" gradientUnits="userSpaceOnUse" spreadMethod="reflect" id="fill11"><stop offset="0" stop-color="#3B7D23"/><stop offset="1" stop-color="#B6C555"/></linearGradient></defs><g clip-path="url(#clip0)" transform="translate(-230 -2357)"><path d="M463.288 3489.28C459.675 3477.87 490.372 3470.41 539.753 3458.13 700.251 3441.6 656.263 3469.26 715.753 3481.3 778.141 3500.58 778.512 3513.97 896.699 3530.35 1014.89 3546.73 1273.44 3589.41 1424.87 3579.57 1576.31 3569.72 1646.93 3632.07 1709.5 3625.5 1772.07 3618.94 1874.03 3652.94 1872.99 3652.93L1871.95 3652.91 464.374 3654C464.374 3596.74 463.288 3546.54 463.288 3489.28Z" fill="#387E5A" fill-rule="evenodd"/><path d="M2875 3481.57C2875 3481.57 2608.41 3445.55 2470.56 3530.68 2332.71 3615.81 2135.78 3589.62 2001.21 3579.79 1866.64 3569.97 1803.89 3632.18 1748.29 3625.63 1692.69 3619.09 1602.08 3653.01 1603.01 3653 1603.93 3652.99 1603.93 3652.99 1603.93 3652.99L2875 3652.99 2875 3481.57Z" fill="#032C1E" fill-rule="evenodd"/><path d="M1078.91 3643.01C1253.06 3643.15 1410.09 3644.35 1498.48 3647.54 1781.32 3657.75 2875 3647.54 2875 3647.54L2875 4146 230.824 4146 230 3728.39 232.46 3706.55C235.152 3694.77 238.824 3683.31 243.395 3672.24L256.147 3647.28 272.752 3647.12C396.537 3645.95 765.444 3642.77 1078.91 3643.01Z" fill="url(#fill1)" fill-rule="evenodd"/><path d="M1863.58 3629.25C1863.58 3629.25 2126.69 3606.19 2198.21 3629.25 2269.74 3652.32 2305.5 3759.6 2295.28 3837.93 2285.07 3916.26 2261.22 3982.67 2215.24 3980.97 2169.26 3979.27 1844 3980.97 1844 3980.97L1863.58 3629.25Z" fill="#02644D" fill-rule="evenodd"/><path d="M1917 3625.68C1917 3625.68 1972.75 3615.3 2010.68 3611.47 2010.68 3611.47 1980.84 3617.57 1977.15 3620.7 1977.15 3620.7 2058.13 3608.49 2087.68 3611.47 2117.23 3614.45 2157.71 3619.45 2157.71 3619.45L2202.75 3616.44C2202.75 3616.44 2165.24 3620.98 2167.23 3621.55 2169.22 3622.12 2203.89 3626.38 2214.97 3633.48 2214.97 3633.48 2249.35 3644.27 2256.73 3650.8 2256.73 3650.8 2229.17 3636.88 2218.38 3637.73 2218.38 3637.73 2280.83 3681.03 2281 3722.28 2281.17 3763.53 2012.38 3660.17 2012.38 3660.17L1917 3625.68Z" fill="#02644D" fill-rule="evenodd"/><path d="M1901.19 3627.2C1901.19 3627.2 1796.3 3619.23 1729.79 3703.58 1663.27 3787.92 1716.99 3983.23 1803.98 3983.97 1890.96 3984.72 1998.1 3971.37 2021.27 3857.92 2044.45 3744.47 1995.85 3630.06 1901.19 3627.2Z" fill="#B7DB6F" fill-rule="evenodd"/><path d="M1687 3795C1687 3795 1724.37 3751.91 1728.34 3740L1734 3751.91 1687 3795Z" fill="#B7DB6F" fill-rule="evenodd"/><path d="M1714 3731.28C1714 3731.28 1718.65 3700.35 1732 3689 1732 3689 1719.87 3709.74 1723 3727.03 1726.13 3744.33 1714 3731.28 1714 3731.28Z" fill="#B7DB6F" fill-rule="evenodd"/><path d="M1731.98 3950.97C1732.64 3952.63 1712.83 3894.11 1719.3 3883L1723.07 3883.04C1723.07 3883.04 1725.64 3934.72 1731.98 3950.97Z" fill="#B7DB6F" fill-rule="evenodd"/><path d="M1715.85 3874.33C1715.85 3874.33 1699.96 3869.08 1691 3874.33 1691 3874.33 1705.73 3870.17 1714.69 3879 1723.66 3887.83 1715.85 3874.33 1715.85 3874.33Z" fill="#B7DB6F" fill-rule="evenodd"/><path d="M1859.65 3981C1835.52 3981 1806.47 3976.92 1781.67 3961.79 1754.86 3945.43 1737.35 3919.06 1729.62 3883.4 1716.47 3822.71 1722.93 3772.91 1748.83 3735.39 1773.04 3700.31 1813.93 3677.47 1867.07 3669.33 1902.94 3663.84 1934 3675.4 1956.88 3702.75 1989.94 3742.28 1999.44 3809.06 1979.98 3865.14 1966.23 3904.76 1929.5 3929.24 1881.74 3930.62 1880.37 3930.66 1879.01 3930.68 1877.66 3930.68 1829.55 3930.68 1786.17 3906.16 1771.28 3870.12 1756.1 3833.38 1756.89 3797.45 1773.5 3768.93 1790.37 3739.98 1822.22 3721.14 1863.19 3715.9 1900.27 3711.14 1920.28 3728.36 1930.53 3743.63 1950.3 3773.1 1950.26 3820.97 1937 3844.09 1924.23 3866.35 1888.89 3883.54 1858.2 3882.47 1836.05 3881.68 1819.15 3871.46 1810.59 3853.7 1799.59 3830.85 1800.32 3807.26 1812.57 3788.96 1822.44 3774.24 1838.38 3765.25 1853.17 3766.04 1870.16 3766.97 1877.4 3781.11 1878.44 3792.94 1879.36 3803.36 1875.79 3814.96 1867.21 3816.96 1851.24 3820.67 1845.57 3811.98 1845.34 3811.61 1845.34 3811.61 1836.71 3797.42 1847.44 3795.38 1859.73 3793.04 1856.5 3802.55 1856.5 3802.55 1856.67 3802.81 1853.46 3815.66 1866.21 3812.7 1871.46 3811.47 1874.91 3802.96 1874.07 3793.32 1873.14 3782.75 1867.1 3771.18 1852.93 3770.41 1839.64 3769.66 1825.24 3777.93 1816.22 3791.39 1804.85 3808.37 1804.24 3830.39 1814.55 3851.81 1824.56 3872.6 1843.9 3877.58 1858.36 3878.1 1887.57 3879.1 1921.15 3862.91 1933.19 3841.92 1944.35 3822.45 1947.35 3776.57 1926.88 3746.06 1913.17 3725.64 1891.34 3716.7 1863.74 3720.24 1824.16 3725.31 1793.46 3743.38 1777.29 3771.13 1761.38 3798.44 1760.69 3833 1775.34 3868.45 1789.97 3903.86 1833.7 3927.63 1881.61 3926.24 1927.48 3924.92 1962.7 3901.55 1975.83 3863.71 1994.81 3809 1985.63 3743.97 1953.5 3705.55 1938.27 3687.35 1911.04 3667.04 1867.74 3673.66 1815.82 3681.61 1775.96 3703.81 1752.45 3737.87 1727.26 3774.36 1721.02 3823.01 1733.91 3882.48 1741.38 3916.92 1758.22 3942.35 1783.96 3958.05 1835.97 3989.79 1918.02 3970.58 1918.74 3970.39L1909.45 3975.39C1909.06 3975.5 1887.67 3981 1859.65 3981Z" fill="#837D3F" fill-rule="evenodd"/><path d="M2291.94 3532.05C2291.94 3532.05 2627.07 3502.68 2718.17 3532.05 2809.28 3561.43 2854.83 3698.05 2841.81 3797.8 2828.8 3897.55 2798.43 3982.13 2739.86 3979.96 2681.3 3977.79 2267 3979.96 2267 3979.96L2291.94 3532.05Z" fill="#02644D" fill-rule="evenodd"/><path d="M2360 3526.8C2360 3526.8 2430.91 3513.51 2479.15 3508.6 2479.15 3508.6 2441.21 3516.42 2436.51 3520.42 2436.51 3520.42 2539.51 3504.78 2577.1 3508.6 2614.68 3512.42 2666.18 3518.83 2666.18 3518.83L2723.46 3514.97C2723.46 3514.97 2675.76 3520.79 2678.29 3521.51 2680.82 3522.24 2724.91 3527.7 2739.01 3536.79 2739.01 3536.79 2782.74 3550.61 2792.13 3558.98 2792.13 3558.98 2757.07 3541.16 2743.34 3542.25 2743.34 3542.25 2822.79 3597.71 2823 3650.55 2823.21 3703.39 2481.32 3570.98 2481.32 3570.98L2360 3526.8Z" fill="#02644D" fill-rule="evenodd"/><path d="M2339.95 3529.26C2339.95 3529.26 2206.51 3519.1 2121.89 3626.6 2037.28 3734.09 2105.62 3983.01 2216.28 3983.96 2326.93 3984.92 2463.23 3967.9 2492.72 3823.31 2522.2 3678.72 2460.37 3532.9 2339.95 3529.26Z" fill="#B7DB6F" fill-rule="evenodd"/><path d="M2067 3744C2067 3744 2114.71 3689.15 2119.77 3674L2127 3689.15 2067 3744Z" fill="#B7DB6F" fill-rule="evenodd"/><path d="M2101 3662.98C2101 3662.98 2106.94 3623.49 2124 3609 2124 3609 2108.5 3635.47 2112.5 3657.55 2116.5 3679.63 2101 3662.98 2101 3662.98Z" fill="#B7DB6F" fill-rule="evenodd"/><path d="M2123.98 3940.96C2124.82 3943.06 2099.35 3869.06 2107.68 3855L2112.52 3855.05C2112.52 3855.05 2115.83 3920.41 2123.98 3940.96Z" fill="#B7DB6F" fill-rule="evenodd"/><path d="M2103.06 3844.8C2103.06 3844.8 2083.2 3838.5 2072 3844.8 2072 3844.8 2090.41 3839.81 2101.61 3850.4 2112.82 3861 2103.06 3844.8 2103.06 3844.8Z" fill="#B7DB6F" fill-rule="evenodd"/><path d="M2286.5 3980C2255.86 3980 2218.98 3974.8 2187.49 3955.5 2153.45 3934.66 2131.22 3901.04 2121.41 3855.59 2104.71 3778.21 2112.91 3714.73 2145.8 3666.9 2176.54 3622.19 2228.45 3593.07 2295.93 3582.7 2341.46 3575.69 2380.89 3590.43 2409.94 3625.3 2451.92 3675.69 2463.98 3760.81 2439.28 3832.3 2421.82 3882.81 2375.19 3914.02 2314.54 3915.77 2312.81 3915.82 2311.09 3915.85 2309.37 3915.85 2248.28 3915.85 2193.21 3884.59 2174.3 3838.65 2155.03 3791.82 2156.03 3746.01 2177.12 3709.66 2198.53 3672.75 2238.97 3648.74 2290.99 3642.06 2338.08 3635.99 2363.48 3657.94 2376.49 3677.41 2401.6 3714.98 2401.54 3776 2384.71 3805.47 2368.5 3833.85 2323.62 3855.76 2284.66 3854.4 2256.54 3853.39 2235.07 3840.36 2224.22 3817.72 2210.25 3788.6 2211.17 3758.52 2226.73 3735.2 2239.25 3716.42 2259.49 3704.97 2278.27 3705.98 2299.84 3707.16 2309.03 3725.19 2310.35 3740.27 2311.52 3753.55 2306.99 3768.34 2296.09 3770.89 2275.82 3775.62 2268.62 3764.54 2268.33 3764.07 2268.33 3764.07 2257.38 3745.98 2271 3743.38 2286.6 3740.4 2282.5 3752.52 2282.5 3752.52 2282.72 3752.85 2278.65 3769.24 2294.83 3765.45 2301.5 3763.9 2305.88 3753.05 2304.8 3740.76 2303.62 3727.28 2295.95 3712.53 2277.97 3711.55 2261.09 3710.59 2242.81 3721.13 2231.36 3738.3 2216.92 3759.94 2216.15 3788.01 2229.24 3815.31 2241.95 3841.82 2266.5 3848.17 2284.86 3848.83 2321.95 3850.1 2364.58 3829.47 2379.87 3802.7 2394.04 3777.89 2397.85 3719.4 2371.86 3680.51 2354.46 3654.47 2326.74 3643.08 2291.7 3647.59 2241.44 3654.05 2202.46 3677.09 2181.94 3712.47 2161.74 3747.28 2160.86 3791.34 2179.45 3836.53 2198.03 3881.66 2253.56 3911.96 2314.38 3910.2 2372.62 3908.51 2417.34 3878.71 2434.01 3830.48 2458.11 3760.74 2446.45 3677.84 2405.66 3628.87 2386.33 3605.66 2351.74 3579.78 2296.77 3588.21 2230.86 3598.35 2180.24 3626.65 2150.39 3670.07 2118.41 3716.58 2110.49 3778.6 2126.86 3854.41 2136.34 3898.31 2157.71 3930.72 2190.4 3950.75 2256.44 3991.2 2360.61 3966.72 2361.52 3966.47L2349.74 3972.85C2349.23 3972.98 2322.08 3980 2286.5 3980Z" fill="#837D3F" fill-rule="evenodd"/><path d="M937 3142.31C937 3142.31 969.5 3055.08 1047.22 3064.77 1047.22 3064.77 1160.05 2919.38 1280.37 3045.38 1280.37 3045.38 1408.27 3014.16 1502.99 3072.42 1566.14 3111.26 1587 3152 1587 3152L937 3142.31Z" fill="#F6FBFF" fill-rule="evenodd"/><path d="M1313 2922.44C1313 2922.44 1324.4 2890.42 1351.66 2893.98 1351.66 2893.98 1391.24 2840.61 1433.44 2886.86 1433.44 2886.86 1478.31 2875.4 1511.53 2896.79 1533.68 2911.04 1541 2926 1541 2926L1313 2922.44Z" fill="#F6FBFF" fill-rule="evenodd"/><path d="M2876 2878.21 2876 2964 2151 2956.57C2151 2956.57 2194.84 2875.65 2299.66 2884.64 2299.66 2884.64 2451.84 2749.78 2614.11 2866.66 2614.11 2866.66 2754.67 2843.07 2876 2878.21Z" fill="#F6FBFF" fill-rule="evenodd"/><path d="M1521 2784.52C1521 2784.52 1542.75 2744.22 1594.76 2748.7 1594.76 2748.7 1670.27 2681.52 1750.79 2739.74 1750.79 2739.74 1836.39 2725.32 1899.78 2752.23 1942.04 2770.18 1956 2789 1956 2789L1521 2784.52Z" fill="#F6FBFF" fill-rule="evenodd"/><path d="M2131 2789C2131 2774.64 2142.64 2763 2157 2763 2171.36 2763 2183 2774.64 2183 2789 2183 2803.36 2171.36 2815 2157 2815 2142.64 2815 2131 2803.36 2131 2789Z" fill="#F6FBFF" fill-rule="evenodd"/><path d="M2314.72 3950.04C2477.03 3950.52 2616.81 3955.09 2716.28 3959.55L2745.44 3960.9 2768.78 3962.07 2786.63 3963 2803.66 3963.93 2813.78 3964.51 2876 3968.45C2875.93 3990.35 2875.86 4012.25 2875.8 4034.15 2875.75 4048.24 2875.71 4062.32 2875.67 4076.41 2875.65 4082.6 2875.63 4088.78 2875.6 4094.97L2875.4 4162.26C2875.39 4165.26 2875.38 4168.26 2875.38 4171.26L2876 4431 368.887 4430.04C307.195 4418.35 246.327 4366.46 233.812 4301.59L231 4272.01 231 4120.48C284.16 4122.15 338.069 4122.27 391.661 4121.2L418.717 4120.55 441.64 4119.86 460.276 4119.2 478.11 4118.48 490.017 4117.96C569.953 4114.35 647.663 4108.53 719.47 4101.79 874.675 4087.21 1002.34 4068.29 1065.32 4057.87 1086.83 4054.3 1100.81 4051.74 1105.76 4050.68 1491.53 3967.69 1957.64 3948.98 2314.72 3950.04Z" fill="url(#fill2)" fill-rule="evenodd"/><path d="M1298.79 4080C1298.79 4080 1293.44 3981.22 1310.57 3997.9 1327.71 4014.58 1298.79 4080 1298.79 4080Z" fill="url(#fill3)" fill-rule="evenodd"/><path d="M1312 4075C1312 4075 1329.38 4015.49 1336.87 4020.27 1344.37 4025.06 1312 4075 1312 4075Z" fill="url(#fill4)" fill-rule="evenodd"/><path d="M1292 4082C1291.69 4081.14 1278.14 4005 1261.55 4017.36 1244.95 4029.72 1292 4082 1292 4082Z" fill="url(#fill5)" fill-rule="evenodd"/><path d="M2772 3977C2772 3977 2796.34 3881.04 2807.32 3901.99 2818.29 3922.95 2772 3977 2772 3977Z" fill="url(#fill6)" fill-rule="evenodd"/><path d="M2786 3976C2786 3976 2819.69 3925.89 2825.49 3932.62 2831.28 3939.35 2786 3976 2786 3976Z" fill="url(#fill7)" fill-rule="evenodd"/><path d="M2764.77 3977C2764.73 3976.09 2774.12 3899.7 2754.64 3906.42 2735.15 3913.13 2764.77 3977 2764.77 3977Z" fill="url(#fill8)" fill-rule="evenodd"/><path d="M456.777 3486.99C473.317 3482.09 506.149 3475.02 581.881 3490.21 861.901 3522.06 896.613 3506.46 1002.92 3521.91 1109.22 3537.37 1205.68 3523.65 1219.71 3582.93 1233.75 3642.21 1204.12 3678.25 1297.7 3675.28 1391.28 3672.32 1377.25 3767.64 1377.25 3767.64L230 3768C230.378 3754.3 230.575 3737.17 230.954 3723.47 233.826 3633.78 335.315 3511 456.777 3486.99Z" fill="#19432F" fill-rule="evenodd"/><path d="M995 3416 1260 3416 1260 3788 995 3788Z" fill="#02634E" fill-rule="evenodd"/><path d="M789 3416 995 3416 995 3788 789 3788Z" fill="#057253" fill-rule="evenodd"/><path d="M927 3261 1014.17 3440 1279 3440 1140.93 3261.65Z" fill="#E65924" fill-rule="evenodd"/><path d="M917 3261 1003.92 3440 1268 3440 1130.32 3261.65Z" fill="#02634E" fill-rule="evenodd"/><path d="M1107.17 3351 1155.83 3351C1162.55 3351 1168 3356.45 1168 3363.17L1168 3472 1095 3472 1095 3363.17C1095 3356.45 1100.45 3351 1107.17 3351Z" fill="#002722" fill-rule="evenodd"/><path d="M760 3450 1000.09 3450 1142 3261 1062.11 3261.02 906.045 3261.04Z" fill="#FD9C29" fill-rule="evenodd"/><path d="M760 3450 803.976 3450 1062 3261 905.991 3261.02Z" fill="#E65924" fill-rule="evenodd"/><path d="M1159 3490 1220.91 3618 1409 3618 1310.94 3490.47Z" fill="#E65924" fill-rule="evenodd"/><path d="M1154 3490 1215.91 3618 1404 3618 1305.94 3490.47Z" fill="#02634E" fill-rule="evenodd"/><path d="M1216 3618 1216 3787.63 1404 3788 1404 3618Z" fill="#02634E" fill-rule="evenodd"/><path d="M1057 3618 1216 3618 1216 3788 1057 3788Z" fill="#057253" fill-rule="evenodd"/><path d="M1039 3625 1209.95 3625 1311 3491 1260.08 3491.01 1142.99 3491.03Z" fill="#FD9C29" fill-rule="evenodd"/><path d="M1272 3645.92 1272 3788 1351 3788 1351 3647.22C1351 3635.5 1345.99 3624.94 1338 3617.59 1330.86 3611.01 1321.32 3607 1310.85 3607 1300.54 3607 1291.16 3611.03 1284.21 3617.59 1276.69 3624.68 1272 3634.75 1272 3645.92Z" fill="#002722" fill-rule="evenodd"/><path d="M1320 3561.5C1320 3556.81 1315.97 3553 1311 3553 1306.03 3553 1302 3556.81 1302 3561.5 1302 3566.19 1306.03 3570 1311 3570 1315.97 3570 1320 3566.19 1320 3561.5Z" fill="#002722" fill-rule="evenodd"/><path d="M1039 3625 1071.43 3625 1260 3491 1142.95 3491.03Z" fill="#E65924" fill-rule="evenodd"/><path d="M807 3699.85C807 3699.85 788.316 3696.42 775.603 3695.16 775.603 3695.16 785.602 3697.17 786.84 3698.21 786.84 3698.21 759.7 3694.17 749.795 3695.16 739.891 3696.14 726.321 3697.79 726.321 3697.79L711.227 3696.8C711.227 3696.8 723.798 3698.3 723.131 3698.49 722.464 3698.67 710.846 3700.08 707.133 3702.43 707.133 3702.43 695.609 3706 693.134 3708.16 693.134 3708.16 702.371 3703.56 705.99 3703.84 705.99 3703.84 685.057 3718.15 685 3731.79 684.943 3745.42 775.032 3711.25 775.032 3711.25L807 3699.85Z" fill="#057253" fill-rule="evenodd"/><path d="M884 3757C884 3757 872.073 3742.11 870.807 3738L869 3742.11 884 3757Z" fill="#FFCF83" fill-rule="evenodd"/><path d="M875 3735.39C875 3735.39 873.45 3724.86 869 3721 869 3721 873.045 3728.06 872 3733.95 870.956 3739.84 875 3735.39 875 3735.39Z" fill="#FFCF83" fill-rule="evenodd"/><path d="M869.005 3808.99C868.774 3809.55 875.848 3789.76 873.535 3786L872.189 3786.01C872.19 3786.01 871.271 3803.49 869.005 3808.99Z" fill="#FFCF83" fill-rule="evenodd"/><path d="M875.013 3782.93C875.013 3782.93 880.121 3780.83 883 3782.93 883 3782.93 878.267 3781.27 875.385 3784.8 872.503 3788.33 875.013 3782.93 875.013 3782.93Z" fill="#FFCF83" fill-rule="evenodd"/><path d="M825.431 3700.45C825.431 3700.45 737.146 3692.68 713.146 3700.45 689.147 3708.23 677.147 3744.38 680.576 3770.78 684.005 3797.18 692.005 3819.56 707.432 3818.99 722.861 3818.42 832 3818.99 832 3818.99L825.431 3700.45Z" fill="#057253" fill-rule="evenodd"/><path d="M812.937 3700.07C812.937 3700.07 847.9 3697.39 870.072 3725.74 892.243 3754.09 874.335 3819.74 845.342 3819.99 816.348 3820.24 780.635 3815.75 772.909 3777.62 765.182 3739.49 781.384 3701.03 812.937 3700.07Z" fill="#48C094" fill-rule="evenodd"/><path d="M826.451 3819C834.495 3819 844.178 3817.63 852.445 3812.55 861.38 3807.07 867.216 3798.22 869.792 3786.26 874.178 3765.9 872.025 3749.19 863.391 3736.61 855.319 3724.84 841.69 3717.18 823.976 3714.45 812.022 3712.6 801.669 3716.48 794.041 3725.66 783.021 3738.92 779.854 3761.32 786.341 3780.13 790.924 3793.43 803.166 3801.64 819.088 3802.1 819.542 3802.11 819.995 3802.12 820.447 3802.12 836.485 3802.12 850.942 3793.89 855.907 3781.8 860.967 3769.48 860.704 3757.43 855.168 3747.86 849.546 3738.15 838.928 3731.83 825.272 3730.07 812.909 3728.47 806.24 3734.25 802.823 3739.37 796.232 3749.26 796.248 3765.32 800.666 3773.07 804.923 3780.54 816.704 3786.31 826.935 3785.95 834.317 3785.68 839.953 3782.25 842.803 3776.3 846.469 3768.63 846.229 3760.72 842.144 3754.58 838.855 3749.64 833.542 3746.62 828.611 3746.89 822.948 3747.2 820.534 3751.95 820.187 3755.91 819.882 3759.41 821.07 3763.3 823.932 3763.97 829.255 3765.22 831.143 3762.3 831.221 3762.18 831.221 3762.18 834.096 3757.42 830.52 3756.73 826.424 3755.95 827.501 3759.14 827.501 3759.14 827.443 3759.23 828.513 3763.54 824.265 3762.54 822.513 3762.13 821.362 3759.28 821.645 3756.04 821.955 3752.5 823.968 3748.61 828.691 3748.36 833.122 3748.11 837.92 3750.88 840.928 3755.4 844.719 3761.09 844.922 3768.48 841.484 3775.66 838.148 3782.64 831.701 3784.31 826.882 3784.48 817.144 3784.82 805.952 3779.39 801.937 3772.35 798.217 3765.82 797.216 3750.42 804.041 3740.19 808.609 3733.34 815.886 3730.34 825.086 3731.53 838.28 3733.23 848.514 3739.29 853.903 3748.6 859.205 3757.76 859.437 3769.36 854.554 3781.25 849.677 3793.12 835.099 3801.1 819.13 3800.63 803.841 3800.19 792.1 3792.35 787.724 3779.65 781.396 3761.3 784.456 3739.49 795.166 3726.6 800.243 3720.49 809.322 3713.68 823.755 3715.9 841.06 3718.57 854.349 3726.02 862.186 3737.44 870.582 3749.68 872.66 3766 868.363 3785.95 865.874 3797.51 860.262 3806.03 851.681 3811.3 834.343 3821.95 806.993 3815.51 806.754 3815.44L809.848 3817.12C809.981 3817.15 817.11 3819 826.451 3819Z" fill="#057253" fill-rule="evenodd"/><path d="M1545 4212 1551.49 4259 1555 4259 1555 4213.04Z" fill="#ED9F4A" fill-rule="evenodd"/><path d="M1553.05 4259.42C1551.95 4259.14 1568.68 4265.24 1582 4262.1 1582 4262.1 1557.71 4258.23 1554.65 4253L1553.05 4259.42Z" fill="#ED9F4A" fill-rule="evenodd"/><path d="M1542.03 4262.81C1541.4 4262.74 1550.48 4257.62 1551.46 4254L1555 4258.5C1555 4258.5 1553.08 4264.08 1542.03 4262.81Z" fill="#ED9F4A" fill-rule="evenodd"/><path d="M1495 4212 1485 4258.81 1488.29 4260 1504 4216.36Z" fill="#ED9F4A" fill-rule="evenodd"/><path d="M1487.05 4259.42C1485.92 4259.14 1503.22 4265.24 1517 4262.1 1517 4262.1 1491.87 4258.23 1488.7 4253L1487.05 4259.42Z" fill="#ED9F4A" fill-rule="evenodd"/><path d="M1477.03 4262.81C1476.44 4262.74 1484.82 4257.62 1485.73 4254L1489 4258.5C1489 4258.5 1487.23 4264.08 1477.03 4262.81Z" fill="#ED9F4A" fill-rule="evenodd"/><path d="M1532 4156.02C1532 4156.02 1532 4230 1552.79 4230 1563.02 4230 1590.41 4174.64 1581.1 4156.02 1571.8 4137.39 1538.72 4139.98 1532 4156.02Z" fill="#C9FCE9" fill-rule="evenodd"/><path d="M1498.32 4149.73C1498.32 4149.73 1476.55 4220.65 1496.24 4226.85 1505.93 4229.9 1548.14 4185.02 1544.81 4164.39 1541.49 4143.76 1509.4 4136.36 1498.32 4149.73Z" fill="#C9FCE9" fill-rule="evenodd"/><path d="M1614 3951.89C1614 3951.89 1618.15 3929.47 1632.33 3924.3 1646.51 3919.13 1654.47 3924.3 1654.47 3924.3 1654.47 3924.3 1664.5 3920.85 1670.03 3923.95 1675.57 3927.06 1675.57 3934.99 1675.57 3934.99 1675.57 3934.99 1686.29 3936.71 1686.98 3943.61 1687.67 3950.51 1668.79 3967.75 1645.2 3963.27 1621.61 3958.78 1614 3951.89 1614 3951.89Z" fill="#E55924" fill-rule="evenodd"/><path d="M1427.56 4130.57C1436.52 4155.94 1455.8 4179.51 1492.37 4194.2 1510.39 4201.43 1593.85 4207.44 1635.46 4157.47 1639.13 4153.07 1642.1 4148.37 1644.46 4143.46 1669.05 4092.6 1629.86 4018.57 1635.46 4006.02 1641.61 3992.25 1655.33 3989.95 1652.66 3970.06 1649.99 3950.16 1625.64 3947.09 1625.64 3947.09 1625.64 3947.09 1610.41 3944.81 1592.14 3963.17 1573.89 3981.54 1577.84 4023.94 1570.48 4040.83 1565.5 4052.21 1535.5 4065.03 1505.43 4061 1500.81 4060.4 1496.18 4059.4 1491.63 4057.91 1473.05 4051.87 1431.3 4030.27 1426.37 4049.29 1425.96 4050.87 1425.56 4052.47 1425.2 4054.1 1420.08 4076.38 1418.34 4104.46 1427.56 4130.57Z" fill="#E9F7F8" fill-rule="evenodd"/><path d="M1652.81 3966C1652.81 3966 1670.48 3971.18 1674 3979.53 1674 3979.53 1652.96 3987.85 1647.95 3981.79 1642.94 3975.74 1648.7 3966.32 1652.81 3966Z" fill="#ED9F4A" fill-rule="evenodd"/><path d="M1656.93 3984.16C1656.93 3984.16 1663.84 3994.88 1656.93 4002.27 1650.03 4009.65 1635.29 4005.32 1637.16 3995.9 1639.04 3986.48 1647.63 3982 1647.63 3982L1656.93 3984.16Z" fill="#E55924" fill-rule="evenodd"/><path d="M1387.9 4102.12C1395 4114.11 1408.2 4129.12 1427.13 4129.96 1433.3 4130.25 1440.11 4129.03 1447.5 4125.69 1454.44 4122.56 1461.49 4118.47 1468.25 4113.99 1490.8 4099.11 1510 4080.25 1510 4080.25 1510 4080.25 1508.3 4072.44 1505.27 4060.62 1495.51 4022.51 1471.82 3942.69 1445.71 3947.18 1411.49 3953.08 1432.73 3990.78 1407.36 4001.38 1404.3 4002.67 1401.84 4004.1 1399.9 4005.68 1399.61 4005.92 1399.33 4006.16 1399.04 4006.42 1399.01 4006.44 1398.99 4006.44 1398.99 4006.47 1397.2 4008.09 1395.91 4009.83 1394.97 4011.7L1394.97 4011.72C1389.4 4022.97 1398.06 4037.79 1396.74 4049.11 1394.97 4064.42 1378.45 4086.22 1387.9 4102.12Z" fill="#E9F7F8" fill-rule="evenodd"/><path d="M1630.34 3960.99C1631.18 3959.25 1633.26 3958.51 1635.01 3959.34 1636.75 3960.18 1637.49 3962.26 1636.66 3964.01 1635.83 3965.75 1633.74 3966.49 1631.99 3965.66 1630.25 3964.82 1629.51 3962.74 1630.34 3960.99Z" fill="#060633" fill-rule="evenodd"/><path d="M1400 4006C1399.67 4006.32 1399.33 4006.65 1399 4007 1399.03 4006.97 1399.08 4006.94 1399.14 4006.9 1399.56 4006.61 1399.83 4006.32 1400 4006Z" fill="#C65447" fill-rule="evenodd"/><path d="M1387.9 4102.67C1395.01 4114.69 1408.22 4129.75 1427.17 4130.59 1436.17 4155.95 1455.52 4179.52 1492.26 4194.2 1510.35 4201.43 1594.17 4207.44 1635.95 4157.49 1639.64 4153.08 1642.63 4148.39 1645 4143.48L1645 4143.45C1645 4143.45 1594.77 4174.06 1532.55 4156.38 1495.8 4145.92 1479.48 4128.68 1468.33 4114.57 1460.6 4104.8 1455.38 4096.54 1447.56 4093.14 1433.75 4087.13 1432.07 4069.21 1424.8 4054.15 1422 4048.35 1418.36 4042.99 1412.91 4038.87 1398.41 4027.95 1393.36 4018.3 1394.98 4012 1389.41 4023.28 1398.07 4038.15 1396.76 4049.5 1394.98 4064.85 1378.45 4086.72 1387.9 4102.67Z" fill="#C9FCE9" fill-rule="evenodd"/><path d="M1199 3864 1200.3 3874 1201 3874 1201 3864.22Z" fill="#ED9F4A" fill-rule="evenodd"/><path d="M1201.01 3874.29C1200.78 3874.23 1204.25 3875.45 1207 3874.82 1207 3874.82 1201.97 3874.05 1201.34 3873L1201.01 3874.29Z" fill="#ED9F4A" fill-rule="evenodd"/><path d="M1198.01 3873.98C1197.86 3873.97 1199.96 3873.4 1200.18 3873L1201 3873.5C1201 3873.5 1200.56 3874.12 1198.01 3873.98Z" fill="#ED9F4A" fill-rule="evenodd"/><path d="M1188.58 3864 1187 3873.75 1187.52 3874 1190 3864.91Z" fill="#ED9F4A" fill-rule="evenodd"/><path d="M1187.01 3874.29C1186.78 3874.23 1190.25 3875.45 1193 3874.82 1193 3874.82 1187.97 3874.05 1187.34 3873L1187.01 3874.29Z" fill="#ED9F4A" fill-rule="evenodd"/><path d="M1185 3873.98C1184.91 3873.97 1186.3 3873.4 1186.45 3873L1187 3873.5C1187 3873.5 1186.7 3874.12 1185 3873.98Z" fill="#ED9F4A" fill-rule="evenodd"/><path d="M1196 3852.69C1196 3852.69 1196 3868 1200.49 3868 1202.69 3868 1208.6 3856.55 1206.59 3852.69 1204.58 3848.84 1197.45 3849.38 1196 3852.69Z" fill="#C9FCE9" fill-rule="evenodd"/><path d="M1189.17 3851.36C1189.17 3851.36 1184.59 3865.72 1188.74 3866.97 1190.77 3867.59 1199.66 3858.5 1198.96 3854.33 1198.26 3850.15 1191.51 3848.66 1189.17 3851.36Z" fill="#C9FCE9" fill-rule="evenodd"/><path d="M1213 3810.4C1213 3810.4 1213.85 3805.6 1216.77 3804.49 1219.68 3803.38 1221.32 3804.49 1221.32 3804.49 1221.32 3804.49 1223.38 3803.75 1224.51 3804.42 1225.65 3805.08 1225.65 3806.78 1225.65 3806.78 1225.65 3806.78 1227.85 3807.15 1228 3808.63 1228.14 3810.11 1224.26 3813.8 1219.41 3812.84 1214.56 3811.88 1213 3810.4 1213 3810.4Z" fill="#E55924" fill-rule="evenodd"/><path d="M1174.36 3846.88C1176.21 3852.11 1180.2 3856.98 1187.77 3860.01 1191.49 3861.5 1208.76 3862.74 1217.37 3852.43 1218.13 3851.52 1218.75 3850.55 1219.23 3849.54 1224.32 3839.04 1216.21 3823.77 1217.37 3821.18 1218.64 3818.34 1221.48 3817.86 1220.93 3813.76 1220.38 3809.65 1215.34 3809.02 1215.34 3809.02 1215.34 3809.02 1212.19 3808.55 1208.41 3812.34 1204.63 3816.13 1205.45 3824.88 1203.93 3828.36 1202.9 3830.71 1196.69 3833.35 1190.47 3832.52 1189.51 3832.4 1188.56 3832.19 1187.61 3831.89 1183.77 3830.64 1175.13 3826.18 1174.11 3830.11 1174.03 3830.43 1173.94 3830.77 1173.87 3831.1 1172.81 3835.7 1172.45 3841.49 1174.36 3846.88Z" fill="#E9F7F8" fill-rule="evenodd"/><path d="M1221.46 3813C1221.46 3813 1225.25 3814.15 1226 3816.01 1226 3816.01 1221.49 3817.85 1220.42 3816.51 1219.34 3815.16 1220.58 3813.07 1221.46 3813Z" fill="#ED9F4A" fill-rule="evenodd"/><path d="M1222.33 3816.45C1222.33 3816.45 1223.83 3818.68 1222.33 3820.22 1220.83 3821.76 1217.63 3820.86 1218.04 3818.9 1218.44 3816.93 1220.31 3816 1220.31 3816L1222.33 3816.45Z" fill="#E55924" fill-rule="evenodd"/><path d="M1166.6 3841.21C1168.08 3843.7 1170.82 3846.82 1174.76 3846.99 1176.05 3847.05 1177.46 3846.8 1179 3846.1 1180.44 3845.46 1181.91 3844.61 1183.32 3843.67 1188.01 3840.59 1192 3836.67 1192 3836.67 1192 3836.67 1191.65 3835.05 1191.02 3832.59 1188.99 3824.68 1184.06 3808.1 1178.63 3809.04 1171.51 3810.26 1175.93 3818.09 1170.65 3820.29 1170.01 3820.56 1169.5 3820.86 1169.1 3821.19 1169.04 3821.24 1168.98 3821.28 1168.92 3821.34 1168.92 3821.34 1168.91 3821.34 1168.91 3821.35 1168.54 3821.69 1168.27 3822.05 1168.08 3822.43L1168.08 3822.44C1166.92 3824.77 1168.72 3827.85 1168.44 3830.2 1168.07 3833.38 1164.64 3837.91 1166.6 3841.21Z" fill="#E9F7F8" fill-rule="evenodd"/><path d="M1216.1 3812.28C1216.33 3812.03 1216.93 3811.93 1217.43 3812.05 1217.93 3812.17 1218.14 3812.47 1217.9 3812.72 1217.66 3812.96 1217.07 3813.07 1216.57 3812.95 1216.07 3812.83 1215.86 3812.53 1216.1 3812.28Z" fill="#060633" fill-rule="evenodd"/><path d="M1170 3821C1169.67 3821.33 1169.34 3821.65 1169 3822 1169.03 3821.97 1169.08 3821.93 1169.14 3821.9 1169.56 3821.62 1169.84 3821.33 1170 3821Z" fill="#C65447" fill-rule="evenodd"/><path d="M1166.6 3841.42C1168.08 3843.87 1170.82 3846.93 1174.76 3847.1 1176.63 3852.25 1180.65 3857.04 1188.28 3860.02 1192.03 3861.49 1209.44 3862.72 1218.12 3852.56 1218.89 3851.67 1219.51 3850.71 1220 3849.72L1220 3849.71C1220 3849.71 1209.57 3855.93 1196.65 3852.34 1189.01 3850.21 1185.62 3846.71 1183.31 3843.84 1181.7 3841.86 1180.62 3840.18 1178.99 3839.49 1176.13 3838.27 1175.78 3834.63 1174.27 3831.57 1173.68 3830.39 1172.93 3829.3 1171.8 3828.46 1168.78 3826.24 1167.73 3824.28 1168.07 3823 1166.92 3825.29 1168.71 3828.31 1168.44 3830.62 1168.07 3833.74 1164.64 3838.18 1166.6 3841.42Z" fill="#C9FCE9" fill-rule="evenodd"/><path d="M1265 3895 1263.7 3905 1263 3905 1263 3895.22Z" fill="#ED9F4A" fill-rule="evenodd"/><path d="M1262.99 3905.29C1263.22 3905.23 1259.76 3906.45 1257 3905.82 1257 3905.82 1262.03 3905.05 1262.66 3904L1262.99 3905.29Z" fill="#ED9F4A" fill-rule="evenodd"/><path d="M1265 3905.96C1265.09 3905.94 1263.7 3904.8 1263.55 3904L1263 3905C1263 3905 1263.29 3906.24 1265 3905.96Z" fill="#ED9F4A" fill-rule="evenodd"/><path d="M1274.9 3895 1277 3904.75 1276.31 3905 1273 3895.91Z" fill="#ED9F4A" fill-rule="evenodd"/><path d="M1276.99 3905.29C1277.22 3905.23 1273.76 3906.45 1271 3905.82 1271 3905.82 1276.03 3905.05 1276.66 3904L1276.99 3905.29Z" fill="#ED9F4A" fill-rule="evenodd"/><path d="M1278.99 3905.96C1279.14 3905.94 1277.04 3904.8 1276.82 3904L1276 3905C1276 3905 1276.44 3906.24 1278.99 3905.96Z" fill="#ED9F4A" fill-rule="evenodd"/><path d="M1268 3883.69C1268 3883.69 1268 3899 1263.51 3899 1261.31 3899 1255.4 3887.55 1257.41 3883.69 1259.42 3879.84 1266.55 3880.37 1268 3883.69Z" fill="#C9FCE9" fill-rule="evenodd"/><path d="M1274.83 3882.36C1274.83 3882.36 1279.41 3896.72 1275.26 3897.97 1273.23 3898.59 1264.34 3889.5 1265.04 3885.33 1265.74 3881.15 1272.49 3879.66 1274.83 3882.36Z" fill="#C9FCE9" fill-rule="evenodd"/><path d="M1251 3841.4C1251 3841.4 1250.15 3836.6 1247.23 3835.49 1244.32 3834.38 1242.69 3835.49 1242.69 3835.49 1242.69 3835.49 1240.62 3834.75 1239.49 3835.42 1238.35 3836.08 1238.35 3837.78 1238.35 3837.78 1238.35 3837.78 1236.15 3838.15 1236 3839.63 1235.86 3841.11 1239.74 3844.8 1244.59 3843.84 1249.44 3842.88 1251 3841.4 1251 3841.4Z" fill="#E55924" fill-rule="evenodd"/><path d="M1289.64 3877.88C1287.79 3883.11 1283.8 3887.98 1276.23 3891.01 1272.51 3892.5 1255.24 3893.74 1246.63 3883.43 1245.87 3882.52 1245.25 3881.55 1244.77 3880.54 1239.68 3870.05 1247.79 3854.77 1246.63 3852.18 1245.36 3849.34 1242.52 3848.86 1243.07 3844.76 1243.62 3840.65 1248.66 3840.02 1248.66 3840.02 1248.66 3840.02 1251.81 3839.55 1255.59 3843.34 1259.37 3847.13 1258.55 3855.88 1260.07 3859.36 1261.1 3861.71 1267.31 3864.35 1273.53 3863.52 1274.49 3863.4 1275.45 3863.19 1276.39 3862.89 1280.23 3861.64 1288.87 3857.18 1289.89 3861.11 1289.97 3861.43 1290.06 3861.77 1290.13 3862.1 1291.19 3866.7 1291.55 3872.49 1289.64 3877.88Z" fill="#E9F7F8" fill-rule="evenodd"/><path d="M1242.54 3844C1242.54 3844 1238.75 3845.15 1238 3847.01 1238 3847.01 1242.51 3848.85 1243.58 3847.51 1244.66 3846.16 1243.42 3844.07 1242.54 3844Z" fill="#ED9F4A" fill-rule="evenodd"/><path d="M1241.67 3848.45C1241.67 3848.45 1240.17 3850.68 1241.67 3852.22 1243.17 3853.76 1246.37 3852.86 1245.96 3850.9 1245.56 3848.93 1243.69 3848 1243.69 3848L1241.67 3848.45Z" fill="#E55924" fill-rule="evenodd"/><path d="M1297.4 3872.21C1295.92 3874.7 1293.18 3877.82 1289.24 3877.99 1287.95 3878.05 1286.54 3877.8 1285 3877.1 1283.56 3876.46 1282.09 3875.61 1280.68 3874.67 1275.99 3871.59 1272 3867.67 1272 3867.67 1272 3867.67 1272.35 3866.05 1272.98 3863.59 1275.01 3855.68 1279.94 3839.11 1285.37 3840.04 1292.49 3841.26 1288.07 3849.09 1293.35 3851.29 1293.99 3851.56 1294.5 3851.86 1294.9 3852.19 1294.96 3852.23 1295.02 3852.28 1295.08 3852.34 1295.08 3852.34 1295.09 3852.34 1295.09 3852.35 1295.46 3852.69 1295.73 3853.05 1295.93 3853.43L1295.93 3853.44C1297.08 3855.77 1295.28 3858.85 1295.56 3861.2 1295.93 3864.38 1299.36 3868.91 1297.4 3872.21Z" fill="#E9F7F8" fill-rule="evenodd"/><path d="M1246.95 3843.28C1246.83 3843.04 1246.53 3842.93 1246.28 3843.05 1246.04 3843.17 1245.93 3843.47 1246.05 3843.72 1246.17 3843.96 1246.47 3844.07 1246.72 3843.95 1246.96 3843.83 1247.07 3843.53 1246.95 3843.28Z" fill="#060633" fill-rule="evenodd"/><path d="M1295 3852C1295.33 3852.33 1295.67 3852.65 1296 3853 1295.97 3852.97 1295.92 3852.94 1295.86 3852.9 1295.45 3852.62 1295.17 3852.33 1295 3852Z" fill="#C65447" fill-rule="evenodd"/><path d="M1297.4 3872.42C1295.92 3874.87 1293.18 3877.93 1289.24 3878.1 1287.37 3883.25 1283.35 3888.04 1275.72 3891.02 1271.97 3892.49 1254.56 3893.72 1245.88 3883.56 1245.11 3882.67 1244.49 3881.71 1244 3880.72L1244 3880.71C1244 3880.71 1254.43 3886.93 1267.35 3883.34 1274.99 3881.21 1278.38 3877.71 1280.69 3874.84 1282.3 3872.86 1283.38 3871.18 1285.01 3870.49 1287.88 3869.27 1288.22 3865.63 1289.74 3862.57 1290.32 3861.39 1291.07 3860.3 1292.21 3859.46 1295.22 3857.24 1296.27 3855.28 1295.93 3854 1297.09 3856.29 1295.29 3859.31 1295.56 3861.62 1295.93 3864.74 1299.36 3869.18 1297.4 3872.42Z" fill="#C9FCE9" fill-rule="evenodd"/><path d="M2547.14 3825.91C2543.44 3849.46 2544.15 3875.06 2560.19 3894.23 2596.24 3937.29 2668.57 3932.09 2684.16 3925.86 2750.88 3899.23 2751.2 3838.76 2741.35 3801.08 2737.08 3784.71 2700.91 3803.29 2684.8 3808.51 2655.31 3818.06 2621.46 3805.1 2616.5 3793.79 2614.31 3788.8 2613.27 3781.23 2612.23 3772.81L2612.22 3772.74C2610.84 3761.7 2609.43 3749.21 2605.36 3739.09L2605.36 3739.08C2603.47 3734.38 2601.01 3730.2 2597.72 3726.91 2581.9 3711.1 2568.72 3713.08 2568.72 3713.08 2568.72 3713.08 2547.61 3715.71 2545.3 3732.84 2542.98 3749.98 2554.87 3751.95 2560.19 3763.82 2563.15 3770.4 2551.73 3796.57 2547.14 3825.91Z" fill="#002722" fill-rule="evenodd"/><path d="M2579 3717.33C2579 3717.33 2575.42 3697.58 2563.18 3693.03 2550.94 3688.47 2544.07 3693.03 2544.07 3693.03 2544.07 3693.03 2535.42 3689.99 2530.64 3692.72 2525.87 3695.46 2525.87 3702.44 2525.87 3702.44 2525.87 3702.44 2516.61 3703.96 2516.02 3710.04 2515.42 3716.11 2531.71 3731.3 2552.07 3727.35 2572.43 3723.41 2579 3717.33 2579 3717.33Z" fill="#E55924" fill-rule="evenodd"/><path d="M2547.15 3826.25C2551.24 3827.18 2556.48 3826.86 2562.16 3824.47 2572.61 3820.08 2574.34 3832.24 2587.51 3830.9 2600.68 3829.54 2595.95 3819.06 2609.12 3815.51 2622.29 3811.96 2616.91 3793.89 2616.91 3793.89 2616.91 3793.89 2614.78 3775.51 2613.6 3769.46 2612.07 3761.69 2609.5 3746.68 2606.67 3738.95 2603.74 3730.93 2600.91 3727.31 2597.59 3723.99 2581.69 3708.06 2568.85 3712.6 2568.85 3712.6 2568.85 3712.6 2547.63 3715.24 2545.3 3732.5 2542.97 3749.76 2554.92 3751.75 2560.28 3763.71 2563.25 3770.34 2551.77 3796.69 2547.15 3826.25Z" fill="#E9F7F8" fill-rule="evenodd"/><path d="M2545.92 3729C2545.92 3729 2530.14 3733.6 2527 3741.03 2527 3741.03 2545.79 3748.42 2550.26 3743.04 2554.73 3737.66 2549.59 3729.28 2545.92 3729Z" fill="#ED9F4A" fill-rule="evenodd"/><path d="M2542.54 3744.89C2542.54 3744.89 2536.83 3754.27 2542.54 3760.74 2548.24 3767.19 2560.41 3763.41 2558.86 3755.17 2557.31 3746.92 2550.22 3743 2550.22 3743L2542.54 3744.89Z" fill="#E55924" fill-rule="evenodd"/><path d="M2669 3828.04C2669 3828.04 2697.02 3855.57 2723 3867.27 2748.97 3878.97 2766.35 3860.66 2774.5 3846.93 2775.64 3845.02 2776.34 3843 2776.7 3840.92 2776.72 3840.73 2776.75 3840.54 2776.79 3840.33 2777.27 3836.92 2776.88 3833.34 2776.02 3829.7 2773.67 3819.74 2767.81 3809.35 2766.85 3801.15 2765.33 3787.93 2779.59 3769.11 2757.68 3759.95 2735.76 3750.8 2754.11 3718.25 2724.55 3713.16 2717.41 3711.93 2710.47 3718.01 2704.05 3727.92 2683.94 3759.06 2669 3828.04 2669 3828.04Z" fill="#002722" fill-rule="evenodd"/><path d="M2638 3942 2632.81 3982 2630 3982 2630 3942.89Z" fill="#ED9F4A" fill-rule="evenodd"/><path d="M2631.96 3982.78C2632.9 3982.52 2618.48 3988.01 2607 3985.19 2607 3985.19 2627.94 3981.71 2630.58 3977L2631.96 3982.78Z" fill="#ED9F4A" fill-rule="evenodd"/><path d="M2640.97 3984.85C2641.51 3984.8 2633.83 3980.81 2633 3978L2630 3981.5C2630 3981.5 2631.62 3985.84 2640.97 3984.85Z" fill="#ED9F4A" fill-rule="evenodd"/><path d="M2682.06 3942 2691 3981.99 2688.06 3983 2674 3945.73Z" fill="#ED9F4A" fill-rule="evenodd"/><path d="M2688.95 3982.78C2689.94 3982.52 2674.94 3988.01 2663 3985.19 2663 3985.19 2684.78 3981.71 2687.52 3977L2688.95 3982.78Z" fill="#ED9F4A" fill-rule="evenodd"/><path d="M2697.97 3984.85C2698.51 3984.8 2690.83 3980.81 2690 3978L2687 3981.5C2687 3981.5 2688.62 3985.84 2697.97 3984.85Z" fill="#ED9F4A" fill-rule="evenodd"/><path d="M2650 3893.22C2650 3893.22 2650 3957 2632.06 3957 2623.23 3957 2599.61 3909.28 2607.64 3893.22 2615.66 3877.17 2644.2 3879.4 2650 3893.22Z" fill="#002722" fill-rule="evenodd"/><path d="M2678.95 3887.77C2678.95 3887.77 2698.04 3948.56 2680.77 3953.87 2672.27 3956.49 2635.24 3918.01 2638.16 3900.33 2641.08 3882.65 2669.22 3876.31 2678.95 3887.77Z" fill="#002722" fill-rule="evenodd"/><path d="M2568.66 3727.71C2567.82 3726.21 2565.74 3725.58 2563.99 3726.29 2562.25 3727.01 2561.51 3728.8 2562.34 3730.29 2563.18 3731.79 2565.26 3732.42 2567.01 3731.71 2568.75 3730.99 2569.49 3729.2 2568.66 3727.71Z" fill="#233862" fill-rule="evenodd"/><path d="M2606 3873.09C2606 3873.09 2639.97 3895.85 2675.96 3891.43 2711.95 3887.02 2697.65 3878.51 2697.65 3878.51 2697.65 3878.51 2709.95 3876.15 2709.29 3865.96 2709.29 3865.96 2717.51 3857.47 2712.23 3848.98 2706.96 3840.49 2707.88 3861.39 2693.3 3872.33 2680.13 3882.21 2655.08 3889.14 2606 3873.09Z" fill="#EA5C25" fill-rule="evenodd"/><path d="M2704 3727.96 2704.01 3727.97C2704.01 3727.97 2729.98 3714.93 2729.92 3745.27 2729.87 3775.6 2741.46 3766.02 2743.98 3784.68 2746.09 3800.3 2770.5 3812.75 2776 3830 2773.64 3820.01 2767.78 3809.6 2766.82 3801.37 2765.3 3788.12 2779.57 3769.25 2757.65 3760.07 2735.72 3750.89 2754.08 3718.26 2724.51 3713.16 2717.36 3711.93 2710.42 3718.02 2704 3727.96Z" fill="#E9F7F8" fill-rule="evenodd"/><path d="M800.644 4003.99C800.644 4003.99 791.436 4012.41 793.233 4018.4 795.029 4024.39 803.339 4028.38 804.461 4035.69 805.584 4043.01 810.075 4047 814.118 4047 818.16 4047 833.389 4047 833.389 4047 833.389 4047 836.366 4041.85 829.178 4040.3 821.993 4038.75 819.283 4030.15 819.732 4022.17 820.181 4014.19 819.059 4003.55 819.059 4003.55L803.788 4000 800.644 4003.99Z" fill="#0A2B22" fill-rule="evenodd"/><path d="M912.625 4026.53C912.625 4026.53 910.369 4044.52 914.43 4046.54 918.491 4048.57 967 4047.89 967 4047.89 967 4047.89 967 4041.82 958.651 4040.47 950.304 4039.12 935.638 4034.17 933.157 4023.15 930.675 4012.13 912.625 4026.53 912.625 4026.53Z" fill="#0A2B22" fill-rule="evenodd"/><path d="M957 3753.7C957 3753.7 954.244 3787.66 951.005 3828.48 946.602 3883.93 941.309 3952.04 940.785 3964.95 939.879 3987.35 936.246 4023.19 936.246 4023.19 936.246 4023.19 927.632 4031.71 910.389 4028.12 910.389 4028.12 895.024 3976.96 890.635 3922.82 890.567 3921.94 890.499 3921.04 890.431 3920.15 886.349 3865.04 880 3749 880 3749L957 3753.7Z" fill="#B7DB6F" fill-rule="evenodd"/><path d="M957 3753.68C957 3753.68 954.244 3787.48 951.005 3828.11L890.635 3922C890.567 3921.12 890.498 3920.23 890.431 3919.34 886.349 3864.49 880 3749 880 3749L957 3753.68Z" fill="#97C056" fill-rule="evenodd"/><path d="M944 3757.19C944 3757.19 894.879 3880.22 862.58 3938.04 830.28 3995.86 820.187 4012 820.187 4012 820.187 4012 801.682 4004.6 800 3999.56 800 3999.56 812.351 3887.94 833.981 3860.73 846.203 3845.35 860.561 3799.21 861.234 3783.07 861.907 3766.94 865.607 3735 865.607 3735L944 3757.19Z" fill="#B7DB6F" fill-rule="evenodd"/><path d="M1040.07 3740C1040.07 3740 1057.24 3748.41 1059.55 3750.57 1061.86 3752.72 1067.56 3763.32 1067.12 3764.12 1066.68 3764.92 1065.83 3765.16 1064.27 3764.06 1062.72 3762.97 1058.35 3758.38 1058.19 3759.23 1058.03 3760.08 1069.84 3774.27 1067.75 3777.27 1065.66 3780.27 1053.82 3779.38 1047.06 3774.48 1040.3 3769.57 1033.55 3751.52 1032.53 3750.54 1023.91 3742.19 1040.07 3740 1040.07 3740Z" fill="#F6C99F" fill-rule="evenodd"/><path d="M1041.08 3749.05C1045.88 3744.86 1046 3743.8 1046 3743.8 1046 3743.8 1015.4 3690.62 1012.75 3685.5 1010.09 3680.39 993.696 3600.52 993.696 3600.52L937 3584C937 3584 976.936 3687.78 983.909 3700.61 995.434 3721.81 1033.06 3753 1033.06 3753 1033.06 3753 1037.32 3752.34 1041.08 3749.05Z" fill="#E65924" fill-rule="evenodd"/><path d="M966 3563.4C966 3563.4 985.837 3598.43 1005.23 3603 1005.23 3603 1004.42 3591.24 999.698 3583.19 1001.63 3580.9 1003.33 3578.8 1004.8 3576.92 1009.68 3570.64 1012 3566.8 1012 3566.8L1005.42 3549.05 1000.95 3537C998.81 3540.91 996.443 3544.24 993.978 3547.09 981.271 3561.75 966 3563.4 966 3563.4Z" fill="#F6C99F" fill-rule="evenodd"/><path d="M994.164 3547.01C994.164 3547.01 991.821 3564.66 1004.87 3577 1009.7 3570.69 1012 3566.83 1012 3566.83L1005.49 3548.97C998.505 3546.8 994.164 3547.01 994.164 3547.01Z" fill="#D4AB85" fill-rule="evenodd"/><path d="M1017.63 3569.84C1017.63 3569.84 987.659 3558.15 995.224 3539.59 1002.79 3521.02 1004.01 3507.01 1023.47 3513.69 1042.93 3520.37 1043.74 3528.96 1042.72 3535.77 1041.7 3542.59 1025.63 3572.41 1017.63 3569.84Z" fill="#F6C99F" fill-rule="evenodd"/><path d="M862.431 3744.24C874.508 3761.55 964.845 3784.67 963.765 3772.69 963.357 3768.11 962.806 3760.03 963.777 3749.07 964.005 3746.5 964.329 3743.77 964.736 3740.91 967.039 3725.15 972.484 3704.92 984.645 3681.49 985.557 3679.73 986.505 3677.96 987.488 3676.17 992.501 3667.1 996.758 3657.51 1000.01 3648.13 1006.27 3630.11 1008.8 3612.86 1005.63 3601.59 1005.62 3601.53 1005.61 3601.49 1005.59 3601.44 986.708 3592.74 979.392 3559 979.392 3559 979.392 3559 914.974 3570.52 878.885 3656.08 878.885 3656.08 875.419 3665.47 871.461 3678.22 866.652 3693.69 861.111 3714.07 860.151 3728.62 859.684 3735.53 860.26 3741.12 862.431 3744.24Z" fill="#FD9C29" fill-rule="evenodd"/><path d="M991.069 3504.93C990.86 3504.52 990.254 3504.08 988.773 3503.63 988.773 3503.63 990.16 3503.17 991.775 3503.52 992.611 3501.49 994.647 3498.03 998.465 3498 998.465 3498 996.276 3498.57 995.468 3500.75 1000.7 3497.45 1010.4 3496.49 1034.6 3504.51 1066.5 3515.08 1050.57 3533.5 1045.73 3534.98 1040.9 3536.45 1031.99 3526.98 1023.99 3525.68 1015.98 3524.39 1011.65 3535.48 1008.6 3536.4 1005.55 3537.32 1007.28 3534.8 1004.09 3532.27 1000.89 3529.74 999.055 3535.69 999.125 3539.86 999.194 3544.04 992.962 3548 992.962 3548 992.962 3548 992.962 3548 989.308 3541.33 985.653 3534.66 986.647 3510.45 990.139 3506.1 990.446 3505.71 990.754 3505.32 991.069 3504.93Z" fill="#070706" fill-rule="evenodd"/><path d="M987 3509.79C987 3509.79 990.688 3479.38 1012.1 3481.07 1033.52 3482.76 1042.61 3494.11 1044 3511L987 3509.79Z" fill="#EB6D25" fill-rule="evenodd"/><path d="M965.003 3520.03C964.801 3526.51 973.786 3532.52 987.585 3536.31 987.371 3534.97 987.204 3533.49 987.086 3531.94 986.944 3529.36 987.204 3517.99 987.204 3517.99 992.932 3514.55 1003.72 3512.44 1016.02 3512.84 1027.47 3513.22 1037.49 3515.67 1043.25 3519.07 1046.6 3521.06 1048.53 3523.36 1048.45 3525.77 1048.39 3527.85 1044.93 3533.57 1042.28 3535.18 1042.06 3536.41 1041.82 3537.33 1041.26 3539 1057.86 3536.43 1067.78 3530.57 1068 3523.36 1068.21 3516.54 1058.24 3510.25 1043.2 3506.51 1041.96 3506.19 1040.66 3505.9 1039.33 3505.62 1038.37 3505.42 1037.38 3505.23 1036.37 3505.05 1030.43 3503.99 1023.93 3503.3 1017.09 3503.08 1007.54 3502.76 998.578 3503.42 990.865 3504.8 990.556 3504.85 990.246 3504.91 989.938 3504.97 989.117 3505.13 988.31 3505.3 987.526 3505.46 974.095 3508.41 965.205 3513.72 965.003 3520.03Z" fill="#FD9C28" fill-rule="evenodd"/><path d="M861 3729C938.649 3705.58 951 3613 951 3613 951 3613 906.791 3646.79 872.298 3678.48 867.494 3693.98 861.958 3714.42 861 3729Z" fill="#E65924" fill-rule="evenodd"/><path d="M785.064 3869.12 848.103 3875.92C856.1 3876.78 863.347 3870.91 864.204 3862.88L872 3789.98 860.773 3788.77C861.57 3770.36 847.947 3754.2 829.449 3752.2 810.949 3750.21 794.22 3763.1 791.107 3781.26L779.88 3780.05 772.084 3852.96C771.226 3860.98 777.067 3868.26 785.064 3869.12ZM857.991 3788.47 793.888 3781.56C796.832 3764.93 812.181 3753.16 829.15 3754.99 846.118 3756.82 858.63 3771.59 857.991 3788.47Z" fill="#44391D" fill-rule="evenodd"/><path d="M839.583 3731.53C839.583 3731.53 841.364 3746.28 840.933 3748.68 840.502 3751.09 837.658 3758.25 836.95 3758.29 836.242 3758.33 834.094 3758.41 834.152 3756.94 834.21 3755.46 835.18 3754.09 834.555 3754.33 833.93 3754.57 833.75 3760.14 830.903 3760 828.055 3759.85 819.669 3756.73 820.01 3750.27 820.351 3743.8 829.282 3731.96 829.495 3730.89 831.3 3721.78 839.583 3731.53 839.583 3731.53Z" fill="#F6C99F" fill-rule="evenodd"/><path d="M834.626 3733.76C840.792 3736.58 843.082 3733.71 843.082 3733.71 843.082 3733.71 879.001 3673.9 882.785 3669.09 886.568 3664.28 952.875 3635.91 952.875 3635.91 952.875 3635.91 979.861 3625.62 980.927 3609.3 981.854 3595.12 973.778 3586.4 964.935 3581.15 954.395 3574.88 941.062 3575.8 931.372 3583.31 909.621 3600.15 866.503 3634.03 859.563 3643.22 844.119 3663.67 827 3727.76 827 3727.76 827 3727.76 829.783 3731.55 834.626 3733.76Z" fill="#FD9C29" fill-rule="evenodd"/><path d="M1098 3821.5C1098 3820.12 1096.88 3819 1095.5 3819 1094.12 3819 1093 3820.12 1093 3821.5 1093 3822.88 1094.12 3824 1095.5 3824 1096.88 3824 1098 3822.88 1098 3821.5Z" fill="#404040" fill-rule="evenodd"/><path d="M1046 3776.5C1046 3775.12 1044.88 3774 1043.5 3774 1042.12 3774 1041 3775.12 1041 3776.5 1041 3777.88 1042.12 3779 1043.5 3779 1044.88 3779 1046 3777.88 1046 3776.5Z" fill="#404040" fill-rule="evenodd"/><path d="M1052 3838.5C1052 3837.12 1050.88 3836 1049.5 3836 1048.12 3836 1047 3837.12 1047 3838.5 1047 3839.88 1048.12 3841 1049.5 3841 1050.88 3841 1052 3839.88 1052 3838.5Z" fill="#404040" fill-rule="evenodd"/><path d="M1110 3935.5C1110 3934.12 1108.88 3933 1107.5 3933 1106.12 3933 1105 3934.12 1105 3935.5 1105 3936.88 1106.12 3938 1107.5 3938 1108.88 3938 1110 3936.88 1110 3935.5Z" fill="#404040" fill-rule="evenodd"/><path d="M1063 3888.5C1063 3887.12 1061.88 3886 1060.5 3886 1059.12 3886 1058 3887.12 1058 3888.5 1058 3889.88 1059.12 3891 1060.5 3891 1061.88 3891 1063 3889.88 1063 3888.5Z" fill="#404040" fill-rule="evenodd"/><path d="M1046 3788.5C1046 3787.12 1044.88 3786 1043.5 3786 1042.12 3786 1041 3787.12 1041 3788.5 1041 3789.88 1042.12 3791 1043.5 3791 1044.88 3791 1046 3789.88 1046 3788.5Z" fill="#404040" fill-rule="evenodd"/><path d="M1190 4001.2C1190 4001.2 1203.7 4033 1201.57 4039.9 1199.44 4046.8 1183 4048 1183 4048L1211 4048C1211 4048 1210.7 4040.8 1208.57 4035.4 1206.44 4030 1203.7 3997 1203.7 3997L1190 4001.2Z" fill="#ED9F4A" fill-rule="evenodd"/><path d="M1174.66 4006C1174.66 4006 1162.92 4041.07 1156.94 4043.53 1150.96 4045.98 1141 4048 1141 4048L1164.69 4048C1164.69 4048 1161.38 4043.04 1163.55 4040.65 1165.71 4038.27 1185 4008.78 1185 4008.78L1174.66 4006Z" fill="#ED9F4A" fill-rule="evenodd"/><path d="M1087.05 3893.78C1086.34 3896.83 1094.13 3897.44 1100.3 3898.25 1102.33 3898.55 1104.15 3898.86 1105.56 3899.26 1108.6 3900.08 1113.05 3900.48 1116.9 3899.77 1122.06 3912.47 1119.83 3945.29 1123.68 3974.45 1126.21 3993.14 1142.3 4003.1 1161.83 4007.37L1161.73 4007.47C1161.73 4007.47 1161.94 4007.47 1162.34 4007.57 1163.35 4007.77 1164.27 4007.98 1165.28 4008.08 1167 4008.59 1168.62 4009.2 1168.52 4010.11 1168.21 4011.94 1169.32 4019.87 1169.32 4019.87L1175.9 4022C1175.9 4022 1185.52 4010.11 1187.74 4010.11 1187.85 4010.11 1187.85 4010.11 1187.85 4010.01L1189.67 4010.01 1189.36 4010.11C1189.36 4010.11 1194.43 4016.92 1196.25 4017.12 1198.17 4017.33 1205.15 4015.7 1205.15 4015.7 1205.15 4015.7 1210.01 4009.5 1210.52 4008.28 1211.12 4008.18 1211.63 4008.08 1212.24 4007.98 1231.26 4004.63 1241.28 3988.07 1246.24 3974.65L1246.34 3974.65C1249.99 3964.7 1251 3956.57 1251 3956.57 1240.78 3961.95 1227.42 3956.57 1227.42 3956.57 1176.21 3936.05 1139.57 3962.77 1137.14 3934.72 1135.22 3911.56 1127.93 3894.39 1125.4 3889.1 1125.4 3882.7 1120.55 3879.15 1120.55 3879.15 1120.55 3879.15 1114.47 3875.69 1109.11 3880.77 1108.1 3881.69 1106.78 3882.6 1105.16 3883.52 1098.38 3887.28 1087.75 3890.43 1087.05 3893.78Z" fill="#E9F7F8" fill-rule="evenodd"/><path d="M1102.54 3889.67C1100.16 3890.78 1100.02 3895.84 1100.17 3899 1094.01 3898.14 1086.38 3897.47 1087.04 3894.38 1087.75 3891.07 1098.22 3887.85 1104.94 3884 1105.11 3885.53 1105.08 3888.48 1102.54 3889.67Z" fill="#ED9F4A" fill-rule="evenodd"/><path d="M1117 3900.12C1122.19 3912.78 1119.95 3945.5 1123.82 3974.58 1126.36 3993.22 1142.53 4003.15 1162.16 4007.41L1162.06 4007.51C1162.06 4007.51 1162.27 4007.51 1162.67 4007.61 1163.69 4007.81 1164.61 4008.02 1165.62 4008.12 1167.35 4008.63 1168.98 4009.23 1168.88 4010.14 1168.57 4011.97 1169.69 4019.87 1169.69 4019.87L1176.3 4022C1176.3 4022 1185.97 4010.15 1188.2 4010.15 1188.31 4010.15 1188.31 4010.15 1188.31 4010.05L1190.14 4010.05 1189.83 4010.15C1189.83 4010.15 1194.92 4016.94 1196.75 4017.14 1198.68 4017.34 1205.7 4015.72 1205.7 4015.72 1205.7 4015.72 1210.58 4009.54 1211.09 4008.32 1211.7 4008.22 1212.21 4008.12 1212.82 4008.02 1231.95 4004.68 1242.02 3988.16 1247 3974.79 1247 3974.79 1231.74 3991.5 1203.16 3987.25 1174.58 3983.09 1144.87 3980.97 1137.85 3976.1 1130.84 3971.24 1124.12 3896.67 1117 3900.12Z" fill="#C9FCE9" fill-rule="evenodd"/><path d="M1035.5 4016.8C1035.5 4016.8 1026.7 4038 1028.07 4042.6 1029.44 4047.2 1040 4048 1040 4048L1022 4048C1022 4048 1022.2 4043.2 1023.57 4039.6 1024.94 4036 1026.7 4014 1026.7 4014L1035.5 4016.8Z" fill="#ED9F4A" fill-rule="evenodd"/><path d="M1045.82 4020C1045.82 4020 1053.55 4043.38 1057.49 4045.02 1061.43 4046.66 1068 4048 1068 4048L1052.39 4048C1052.39 4048 1054.57 4044.69 1053.14 4043.1 1051.71 4041.51 1039 4021.85 1039 4021.85L1045.82 4020Z" fill="#ED9F4A" fill-rule="evenodd"/><path d="M1103.97 3945.52C1104.44 3947.55 1099.26 3947.96 1095.16 3948.5 1093.81 3948.7 1092.6 3948.91 1091.66 3949.18 1089.64 3949.72 1086.68 3949.99 1084.13 3949.52 1080.7 3957.98 1082.18 3979.86 1079.62 3999.3 1077.94 4011.76 1067.24 4018.4 1054.26 4021.25L1054.33 4021.31C1054.33 4021.31 1054.2 4021.31 1053.93 4021.38 1053.25 4021.52 1052.65 4021.65 1051.98 4021.72 1050.83 4022.06 1049.75 4022.47 1049.82 4023.07 1050.02 4024.29 1049.28 4029.58 1049.28 4029.58L1044.91 4031C1044.91 4031 1038.52 4023.07 1037.04 4023.07 1036.97 4023.07 1036.97 4023.07 1036.97 4023.01L1035.76 4023.01 1035.96 4023.07C1035.96 4023.07 1032.6 4027.61 1031.39 4027.75 1030.11 4027.89 1025.47 4026.8 1025.47 4026.8 1025.47 4026.8 1022.24 4022.67 1021.91 4021.86 1021.5 4021.79 1021.17 4021.72 1020.76 4021.65 1008.12 4019.42 1001.46 4008.38 998.161 3999.44L998.094 3999.44C995.673 3992.8 995 3987.38 995 3987.38 1001.79 3990.97 1010.67 3987.38 1010.67 3987.38 1044.71 3973.7 1069.06 3991.51 1070.67 3972.82 1071.95 3957.37 1076.79 3945.93 1078.47 3942.4 1078.47 3938.14 1081.7 3935.77 1081.7 3935.77 1081.7 3935.77 1085.74 3933.46 1089.3 3936.85 1089.98 3937.46 1090.85 3938.07 1091.93 3938.68 1096.44 3941.18 1103.5 3943.28 1103.97 3945.52Z" fill="#E9F7F8" fill-rule="evenodd"/><path d="M1093.64 3942.4C1095.22 3943.07 1095.32 3946.1 1095.22 3948 1099.32 3947.48 1104.42 3947.09 1103.97 3945.23 1103.5 3943.24 1096.52 3941.31 1092.04 3939 1091.92 3939.92 1091.95 3941.69 1093.64 3942.4Z" fill="#ED9F4A" fill-rule="evenodd"/><path d="M1084 3949.08C1080.57 3957.59 1082.05 3979.59 1079.49 3999.13 1077.81 4011.66 1067.11 4018.33 1054.12 4021.19L1054.19 4021.26C1054.19 4021.26 1054.06 4021.26 1053.79 4021.33 1053.11 4021.47 1052.51 4021.6 1051.84 4021.67 1050.69 4022.01 1049.61 4022.42 1049.68 4023.03 1049.88 4024.26 1049.14 4029.57 1049.14 4029.57L1044.77 4031C1044.77 4031 1038.38 4023.03 1036.9 4023.03 1036.83 4023.03 1036.83 4023.03 1036.83 4022.97L1035.62 4022.97 1035.82 4023.03C1035.82 4023.03 1032.45 4027.6 1031.24 4027.73 1029.96 4027.87 1025.32 4026.78 1025.32 4026.78 1025.32 4026.78 1022.09 4022.62 1021.75 4021.81 1021.35 4021.74 1021.01 4021.67 1020.61 4021.6 1007.96 4019.36 1001.3 4008.26 998 3999.27 998 3999.27 1008.09 4010.5 1027 4007.64 1045.91 4004.85 1065.56 4003.42 1070.2 4000.15 1074.85 3996.88 1079.29 3946.76 1084 3949.08Z" fill="#C9FCE9" fill-rule="evenodd"/><path d="M826 4294 832.49 4340 836 4340 836 4295.02Z" fill="#ED9F4A" fill-rule="evenodd"/><path d="M833.051 4340.42C831.953 4340.14 848.682 4346.24 862 4343.1 862 4343.1 837.706 4339.23 834.647 4334L833.051 4340.42Z" fill="#ED9F4A" fill-rule="evenodd"/><path d="M823.029 4342.83C822.444 4342.77 830.825 4338.22 831.729 4335L835 4339C835 4339 833.232 4343.96 823.029 4342.83Z" fill="#ED9F4A" fill-rule="evenodd"/><path d="M776.469 4294 767 4338.86 770.113 4340 785 4298.18Z" fill="#ED9F4A" fill-rule="evenodd"/><path d="M769.052 4340.42C767.953 4340.14 784.682 4346.24 798 4343.1 798 4343.1 773.707 4339.23 770.648 4334L769.052 4340.42Z" fill="#ED9F4A" fill-rule="evenodd"/><path d="M759.029 4342.83C758.444 4342.77 766.825 4338.22 767.73 4335L771 4339C771 4339 769.231 4343.96 759.029 4342.83Z" fill="#ED9F4A" fill-rule="evenodd"/><path d="M814 4238.72C814 4238.72 814 4311 833.979 4311 843.808 4311 870.115 4256.92 861.176 4238.72 852.237 4220.52 820.456 4223.05 814 4238.72Z" fill="#C9FCE9" fill-rule="evenodd"/><path d="M780.142 4233.49C780.142 4233.49 758.754 4301.88 778.097 4307.86 787.614 4310.8 829.088 4267.51 825.817 4247.62 822.547 4227.73 791.029 4220.6 780.142 4233.49Z" fill="#C9FCE9" fill-rule="evenodd"/><path d="M914.051 4239.93C908.742 4247.11 902.505 4253.11 895.662 4258.12 889.39 4262.72 882.593 4266.47 875.535 4269.49 835.581 4286.66 787.033 4280.92 774.179 4275.76 745.889 4264.43 736.33 4241.68 736.009 4215.45 735.902 4207.22 736.712 4198.63 738.14 4189.95 744.257 4152.71 761.717 4113.62 767.348 4092 767.348 4092 838.818 4136.42 854.612 4147.18 869.038 4157 884.487 4166.61 897.043 4176.71 897.043 4176.71 897.043 4176.71 897.055 4176.73 906.754 4184.51 914.717 4192.6 919.168 4201.31 925.06 4212.86 924.751 4225.47 914.051 4239.93Z" fill="#E9F7F8" fill-rule="evenodd"/><path d="M800 4148.44C800 4148.44 777.467 4186.66 752.552 4206.99 751.896 4207.53 751.252 4208.04 750.597 4208.51 745.652 4212.2 740.731 4214.53 735.94 4215.8 717.28 4220.72 700.443 4209.55 690.446 4199.76 677.541 4187.14 687.61 4162.43 685.417 4147.55 683.225 4132.65 662.17 4116.25 683.404 4099.88 704.637 4083.5 675.123 4053.29 705.877 4039.13 722 4031.71 747.094 4062.12 767.315 4092.73 785.664 4120.51 800 4148.44 800 4148.44Z" fill="#E9F7F8" fill-rule="evenodd"/><path d="M969.438 4301.5C965.676 4302.73 961.4 4303.27 956.804 4302.87 935.546 4301.05 885.112 4274.63 875.572 4269.56 874.549 4269.01 874 4268.71 874 4268.71L879.359 4247.44 897.092 4177C897.092 4177 897.092 4177 897.103 4177.01 897.484 4177.44 906.832 4187.83 919.23 4201.53 940.225 4224.77 970.009 4257.51 979.655 4267.19 992.089 4279.66 984.956 4296.46 969.438 4301.5Z" fill="#E9F7F8" fill-rule="evenodd"/><path d="M961 4245.48C961 4245.48 976.152 4229.28 990.514 4232.4 1004.88 4235.52 1008.7 4243.88 1008.7 4243.88 1008.7 4243.88 1018.75 4246.26 1021.67 4251.68 1024.59 4257.09 1020.44 4263.58 1020.44 4263.58 1020.44 4263.58 1028.35 4270.56 1025.3 4276.57 1022.26 4282.57 997.714 4286.89 980.678 4270.98 963.64 4255.07 961 4245.48 961 4245.48Z" fill="#E55924" fill-rule="evenodd"/><path d="M981.893 4292.06C981.893 4292.06 990.702 4308.5 987.161 4317 987.161 4317 966.206 4307.77 967.023 4299.84 967.841 4291.9 978.742 4289.32 981.893 4292.06Z" fill="#ED9F4A" fill-rule="evenodd"/><path d="M975 4307.39C975 4307.39 971.98 4319.47 962.138 4319.99 952.296 4320.5 945.557 4307.61 953.498 4302.32 961.439 4297.02 970.34 4299.65 970.34 4299.65L975 4307.39Z" fill="#E55924" fill-rule="evenodd"/><path d="M963.342 4270.99C964.175 4269.25 966.264 4268.51 968.008 4269.34 969.752 4270.18 970.491 4272.26 969.658 4274.01 968.825 4275.75 966.735 4276.49 964.992 4275.66 963.248 4274.83 962.51 4272.74 963.342 4270.99Z" fill="#060633" fill-rule="evenodd"/><path d="M975 4291.74 970.176 4301.51C966.403 4302.73 962.116 4303.27 957.507 4302.87 936.192 4301.05 885.622 4274.68 876.056 4269.62 835.97 4286.72 787.263 4281 774.367 4275.86 745.984 4264.57 736.394 4241.93 736.072 4215.79 717.372 4220.71 700.499 4209.55 690.481 4199.77 677.549 4187.16 687.638 4162.48 685.441 4147.61 683.244 4132.73 662.145 4116.35 683.423 4100 671.554 4126.05 710.888 4151.92 738.209 4190.4 740.705 4193.91 743.081 4197.51 745.325 4201.22 746.925 4203.88 748.741 4206.29 750.759 4208.51 778.378 4239.05 842.788 4231.26 879.853 4247.54 885.465 4250 890.457 4253.02 894.588 4256.81 895.138 4257.31 895.687 4257.81 896.248 4258.29 929.553 4287.55 975 4291.74 975 4291.74Z" fill="#C9FCE9" fill-rule="evenodd"/><path d="M2430 4247 2424.16 4293 2421 4293 2421 4248.02Z" fill="#ED9F4A" fill-rule="evenodd"/><path d="M2422.95 4294.42C2424.05 4294.14 2407.32 4300.24 2394 4297.1 2394 4297.1 2418.29 4293.23 2421.35 4288L2422.95 4294.42Z" fill="#ED9F4A" fill-rule="evenodd"/><path d="M2433.97 4296.81C2434.6 4296.74 2425.52 4291.62 2424.54 4288L2421 4292.5C2421 4292.5 2422.91 4298.08 2433.97 4296.81Z" fill="#ED9F4A" fill-rule="evenodd"/><path d="M2481.01 4246 2491 4292.81 2487.72 4294 2472 4250.37Z" fill="#ED9F4A" fill-rule="evenodd"/><path d="M2488.95 4294.42C2490.08 4294.14 2472.78 4300.24 2459 4297.1 2459 4297.1 2484.13 4293.23 2487.3 4288L2488.95 4294.42Z" fill="#ED9F4A" fill-rule="evenodd"/><path d="M2498.97 4296.81C2499.6 4296.74 2490.52 4291.62 2489.54 4288L2486 4292.5C2486 4292.5 2487.92 4298.08 2498.97 4296.81Z" fill="#ED9F4A" fill-rule="evenodd"/><path d="M2443 4190.87C2443 4190.87 2443 4264 2422.61 4264 2412.58 4264 2385.74 4209.28 2394.86 4190.87 2403.98 4172.46 2436.41 4175.01 2443 4190.87Z" fill="#C9FCE9" fill-rule="evenodd"/><path d="M2477.5 4184.65C2477.5 4184.65 2499.65 4254.72 2479.61 4260.85 2469.76 4263.87 2426.8 4219.52 2430.19 4199.13 2433.58 4178.75 2466.22 4171.44 2477.5 4184.65Z" fill="#C9FCE9" fill-rule="evenodd"/><path d="M2340.19 4191.28C2345.64 4198.57 2352.04 4204.67 2359.07 4209.76 2365.51 4214.43 2372.49 4218.24 2379.73 4221.31 2420.76 4238.75 2470.6 4232.92 2483.8 4227.68 2512.85 4216.16 2522.66 4193.06 2522.99 4166.4 2523.1 4158.05 2522.27 4149.32 2520.8 4140.5 2514.52 4102.67 2496.59 4062.96 2490.81 4041 2490.81 4041 2417.43 4086.12 2401.22 4097.05 2386.41 4107.03 2370.54 4116.79 2357.65 4127.06 2357.65 4127.06 2357.65 4127.06 2357.64 4127.07 2347.68 4134.98 2339.5 4143.19 2334.93 4152.04 2328.89 4163.77 2329.2 4176.58 2340.19 4191.28Z" fill="#E9F7F8" fill-rule="evenodd"/><path d="M2457 4097.91C2457 4097.91 2480.07 4136.99 2505.58 4157.77 2506.25 4158.31 2506.91 4158.84 2507.58 4159.32 2512.64 4163.1 2517.68 4165.47 2522.58 4166.77 2541.69 4171.8 2558.93 4160.38 2569.16 4150.38 2582.38 4137.47 2572.07 4112.21 2574.31 4096.99 2576.56 4081.77 2598.11 4065 2576.37 4048.26 2554.63 4031.51 2584.85 4000.63 2553.36 3986.15 2536.86 3978.57 2511.17 4009.66 2490.46 4040.95 2471.68 4069.35 2457 4097.91 2457 4097.91Z" fill="#E9F7F8" fill-rule="evenodd"/><path d="M2283.86 4254.47C2287.69 4255.72 2292.04 4256.27 2296.72 4255.87 2318.36 4254 2369.69 4226.96 2379.4 4221.76 2380.44 4221.2 2381 4220.9 2381 4220.9L2375.54 4199.12 2357.5 4127C2357.5 4127 2357.5 4127 2357.48 4127.01 2357.09 4127.45 2347.58 4138.09 2334.96 4152.12 2313.59 4175.91 2283.28 4209.43 2273.46 4219.33 2260.8 4232.11 2268.06 4249.31 2283.86 4254.47Z" fill="#E9F7F8" fill-rule="evenodd"/><path d="M2293 4196.75C2293 4196.75 2277.62 4180.22 2263.03 4183.41 2248.45 4186.59 2244.56 4195.12 2244.56 4195.12 2244.56 4195.12 2234.36 4197.55 2231.39 4203.07 2228.43 4208.59 2232.65 4215.22 2232.65 4215.22 2232.65 4215.22 2224.62 4222.33 2227.71 4228.46 2230.8 4234.58 2255.72 4238.99 2273.02 4222.76 2290.32 4206.53 2293 4196.75 2293 4196.75Z" fill="#E55924" fill-rule="evenodd"/><path d="M2271.4 4245.06C2271.4 4245.06 2262.17 4261.5 2265.88 4270 2265.88 4270 2287.83 4260.77 2286.98 4252.84 2286.12 4244.9 2274.7 4242.32 2271.4 4245.06Z" fill="#ED9F4A" fill-rule="evenodd"/><path d="M2279 4259.79C2279 4259.79 2282.02 4272.45 2291.86 4272.98 2301.7 4273.52 2308.44 4260.02 2300.5 4254.48 2292.56 4248.93 2283.66 4251.69 2283.66 4251.69L2279 4259.79Z" fill="#E55924" fill-rule="evenodd"/><path d="M2290.66 4223.28C2289.82 4221.28 2287.74 4220.44 2285.99 4221.39 2284.25 4222.34 2283.51 4224.73 2284.34 4226.72 2285.17 4228.72 2287.26 4229.56 2289.01 4228.61 2290.75 4227.66 2291.49 4225.27 2290.66 4223.28Z" fill="#060633" fill-rule="evenodd"/><path d="M2279 4244.46 2283.92 4254.47C2287.77 4255.72 2292.14 4256.27 2296.84 4255.87 2318.58 4254.01 2370.16 4226.99 2379.92 4221.79 2420.8 4239.32 2470.48 4233.46 2483.63 4228.19 2512.58 4216.63 2522.36 4193.42 2522.69 4166.64 2541.76 4171.68 2558.97 4160.25 2569.19 4150.23 2582.38 4137.31 2572.09 4112.02 2574.33 4096.79 2576.57 4081.54 2598.09 4064.76 2576.39 4048 2588.5 4074.69 2548.38 4101.2 2520.51 4140.62 2517.97 4144.22 2515.54 4147.91 2513.25 4151.71 2511.62 4154.43 2509.77 4156.91 2507.71 4159.19 2479.54 4190.47 2413.85 4182.49 2376.04 4199.17 2370.32 4201.7 2365.23 4204.79 2361.01 4208.67 2360.45 4209.18 2359.89 4209.69 2359.32 4210.19 2325.35 4240.17 2279 4244.46 2279 4244.46Z" fill="#C9FCE9" fill-rule="evenodd"/><path d="M1011 3872 1012.3 3880 1013 3880 1013 3872.18Z" fill="#ED9F4A" fill-rule="evenodd"/><path d="M1012.01 3880.29C1011.78 3880.23 1015.25 3881.45 1018 3880.82 1018 3880.82 1012.97 3880.04 1012.34 3879L1012.01 3880.29Z" fill="#ED9F4A" fill-rule="evenodd"/><path d="M1010.01 3880.96C1009.86 3880.94 1011.96 3879.8 1012.18 3879L1013 3880C1013 3880 1012.56 3881.24 1010.01 3880.96Z" fill="#ED9F4A" fill-rule="evenodd"/><path d="M1001.58 3872 1000 3879.8 1000.52 3880 1003 3872.73Z" fill="#ED9F4A" fill-rule="evenodd"/><path d="M1000.01 3880.29C999.784 3880.23 1003.24 3881.45 1006 3880.82 1006 3880.82 1000.97 3880.04 1000.34 3879L1000.01 3880.29Z" fill="#ED9F4A" fill-rule="evenodd"/><path d="M998.007 3880.96C997.862 3880.94 999.956 3879.8 1000.18 3879L1001 3880C1001 3880 1000.56 3881.24 998.007 3880.96Z" fill="#ED9F4A" fill-rule="evenodd"/><path d="M1008 3861.39C1008 3861.39 1008 3875 1012.08 3875 1014.08 3875 1019.45 3864.82 1017.63 3861.39 1015.8 3857.97 1009.32 3858.44 1008 3861.39Z" fill="#C9FCE9" fill-rule="evenodd"/><path d="M1001.99 3860.2C1001.99 3860.2 997.791 3872.86 1001.59 3873.97 1003.46 3874.52 1011.61 3866.5 1010.96 3862.82 1010.32 3859.14 1004.13 3857.82 1001.99 3860.2Z" fill="#C9FCE9" fill-rule="evenodd"/><path d="M1027.32 3861.39C1026.33 3862.72 1025.16 3863.84 1023.88 3864.76 1022.71 3865.61 1021.44 3866.31 1020.12 3866.87 1012.64 3870.05 1003.55 3868.99 1001.15 3868.03 995.85 3865.93 994.061 3861.72 994.002 3856.86 993.982 3855.34 994.134 3853.75 994.401 3852.14 995.546 3845.24 998.814 3838 999.868 3834 999.868 3834 1013.25 3842.22 1016.2 3844.22 1018.9 3846.04 1021.79 3847.82 1024.14 3849.69 1024.14 3849.69 1024.14 3849.69 1024.15 3849.69 1025.96 3851.13 1027.45 3852.63 1028.29 3854.24 1029.39 3856.38 1029.33 3858.72 1027.32 3861.39Z" fill="#E9F7F8" fill-rule="evenodd"/><path d="M1006 3844.36C1006 3844.36 1001.71 3851.41 996.962 3855.16 996.838 3855.25 996.714 3855.35 996.59 3855.44 995.649 3856.12 994.711 3856.54 993.799 3856.78 990.244 3857.69 987.037 3855.63 985.133 3853.82 982.674 3851.5 984.592 3846.94 984.175 3844.2 983.757 3841.45 979.747 3838.43 983.791 3835.41 987.836 3832.39 982.214 3826.82 988.072 3824.21 991.143 3822.84 995.924 3828.45 999.776 3834.09 1003.27 3839.21 1006 3844.36 1006 3844.36Z" fill="#E9F7F8" fill-rule="evenodd"/><path d="M1037.89 3872.73C1037.19 3872.95 1036.39 3873.05 1035.53 3872.98 1031.54 3872.64 1022.08 3867.82 1020.29 3866.89 1020.1 3866.8 1020 3866.74 1020 3866.74L1021 3862.86 1024.33 3850C1024.33 3850 1024.33 3850 1024.33 3850 1024.4 3850.08 1026.16 3851.98 1028.48 3854.48 1032.42 3858.72 1038 3864.7 1039.81 3866.46 1042.14 3868.74 1040.8 3871.81 1037.89 3872.73Z" fill="#E9F7F8" fill-rule="evenodd"/><path d="M1036 3862.43C1036 3862.43 1038.8 3859.51 1041.45 3860.07 1044.1 3860.63 1044.81 3862.14 1044.81 3862.14 1044.81 3862.14 1046.66 3862.57 1047.2 3863.54 1047.74 3864.52 1046.97 3865.69 1046.97 3865.69 1046.97 3865.69 1048.43 3866.94 1047.87 3868.02 1047.31 3869.1 1042.78 3869.88 1039.63 3867.02 1036.49 3864.15 1036 3862.43 1036 3862.43Z" fill="#E55924" fill-rule="evenodd"/><path d="M1039.84 3871.2C1039.84 3871.2 1041.51 3874.36 1040.84 3876 1040.84 3876 1036.85 3874.23 1037 3872.7 1037.16 3871.17 1039.24 3870.68 1039.84 3871.2Z" fill="#ED9F4A" fill-rule="evenodd"/><path d="M1039 3873.6C1039 3873.6 1038.4 3875.9 1036.43 3876 1034.46 3876.09 1033.11 3873.64 1034.7 3872.63 1036.29 3871.62 1038.07 3872.12 1038.07 3872.12L1039 3873.6Z" fill="#E55924" fill-rule="evenodd"/><path d="M1036.1 3867.28C1036.34 3867.03 1036.93 3866.93 1037.43 3867.05 1037.93 3867.17 1038.14 3867.47 1037.9 3867.72 1037.66 3867.96 1037.07 3868.07 1036.57 3867.95 1036.07 3867.83 1035.86 3867.53 1036.1 3867.28Z" fill="#060633" fill-rule="evenodd"/><path d="M1039 3870.89 1038.09 3872.72C1037.37 3872.95 1036.56 3873.05 1035.69 3872.98 1031.65 3872.64 1022.07 3867.7 1020.26 3866.75 1012.67 3869.95 1003.45 3868.88 1001.01 3867.92 995.631 3865.81 993.815 3861.57 993.755 3856.68 990.214 3857.59 987.018 3855.51 985.121 3853.68 982.672 3851.32 984.582 3846.7 984.167 3843.91 983.751 3841.13 979.755 3838.06 983.785 3835 981.536 3839.88 988.986 3844.72 994.16 3851.92 994.633 3852.58 995.082 3853.25 995.508 3853.95 995.811 3854.44 996.155 3854.9 996.537 3855.31 1001.77 3861.03 1013.96 3859.57 1020.98 3862.62 1022.05 3863.08 1022.99 3863.64 1023.77 3864.35 1023.88 3864.45 1023.98 3864.54 1024.09 3864.63 1030.39 3870.11 1039 3870.89 1039 3870.89Z" fill="#C9FCE9" fill-rule="evenodd"/><path d="M1780 3552.88 1802.39 3557C1802.39 3557 1863.66 3462.95 1865.42 3434.28 1867.12 3406.89 1922.33 3287.05 1857.69 3212.23 1854.78 3208.83 1851.61 3205.54 1848.17 3202.35 1848.06 3202.22 1847.93 3202.11 1847.8 3202 1847.8 3202 1847.69 3202.17 1847.48 3202.53 1846.17 3204.71 1841.04 3213.95 1835.02 3234.37 1825.6 3266.29 1813.95 3325.55 1811.2 3427.91 1811.2 3427.91 1796.16 3515.53 1780 3552.88Z" fill="#F5C89E" fill-rule="evenodd"/><path d="M1779.7 3552.85C1779.7 3552.85 1755.77 3579.81 1755.04 3590.74 1754.31 3601.67 1763.77 3615.43 1774.41 3617.78 1785.04 3620.13 1778.4 3603.27 1780 3596.5 1781.59 3589.73 1788.54 3579.46 1788.12 3582.52 1787.7 3585.58 1783.45 3597.62 1784.76 3599.55 1786.08 3601.48 1789.51 3601.79 1790.81 3595.35 1792.11 3588.92 1802.82 3581.41 1800.72 3574.51 1798.62 3567.61 1800.34 3562.29 1803.24 3553.04 1806.14 3543.78 1811 3532.67 1811 3532.67L1793.76 3529 1779.7 3552.85Z" fill="#F5C89E" fill-rule="evenodd"/><path d="M1941.99 3065C1941.99 3065 1942.53 3076.48 1935.63 3078.73 1928.73 3080.98 1942.73 3105.76 1941.64 3122.49 1940.54 3139.23 1933.12 3145.95 1933.12 3145.95 1933.12 3145.95 1936.68 3136.74 1934.69 3131.05 1934.69 3131.05 1935.01 3142.89 1926.35 3148.86 1917.69 3154.84 1920.02 3160 1920.02 3160 1920.02 3160 1900.45 3154.15 1899.9 3139.49 1899.9 3139.49 1899.06 3146.12 1899.74 3148.86 1899.74 3148.86 1882.84 3136.19 1882.03 3121.59 1881.23 3106.99 1895.34 3094.67 1901.76 3094.45 1908.19 3094.23 1922.52 3081.63 1922.14 3076.87 1921.75 3072.11 1941.99 3065 1941.99 3065Z" fill="#070706" fill-rule="evenodd"/><path d="M1887.61 2984.44C1898.93 2967.43 1943.87 2976.95 1988 3005.7 2032.12 3034.45 2058.71 3071.55 2047.39 3088.56 2036.07 3105.57 1991.13 3096.05 1947 3067.3 1902.88 3038.55 1876.29 3001.45 1887.61 2984.44Z" fill="#E65924" fill-rule="evenodd"/><path d="M1791 4248.17 1814.72 4257C1814.72 4257 1917.73 4114.09 1930.41 3988.35 1932.68 3965.9 1931.92 3944.15 1927.02 3924.07 1927.02 3924.07 1928.03 3918.31 1929.79 3908.15 1930.6 3903.4 1931.61 3897.69 1932.75 3891.14 1936.1 3871.95 1940.71 3845.68 1945.98 3815.78 1958.1 3746.96 1973.8 3658.99 1986 3594.32L1979.61 3592.27 1910.47 3569.96 1896.18 3524.56 1844.69 3511C1844.69 3511 1833.19 3533.51 1822.91 3639.82 1821.01 3653.76 1819.29 3669.14 1817.99 3685.82 1813.98 3736.72 1813.69 3799.86 1822.89 3872.04 1825.25 3890.52 1828.23 3909.6 1831.93 3929.2 1834.64 3943.57 1835.05 3963.15 1833.91 3985.64 1828.72 4088.43 1791 4248.17 1791 4248.17Z" fill="#014840" fill-rule="evenodd"/><path d="M1818 3686.16 1929.79 3908C1930.61 3903.27 1931.61 3897.56 1932.76 3891.03 1936.11 3871.88 1940.71 3845.67 1945.98 3815.84 1958.1 3747.17 1973.8 3659.39 1986 3594.87L1979.61 3592.82 1910.47 3570.55 1896.18 3525.25 1834.69 3507C1834.69 3507 1833.2 3534.18 1822.92 3640.26 1821.02 3654.18 1819.3 3669.52 1818 3686.16Z" fill="#002722" fill-rule="evenodd"/><path d="M1845.29 3517.43C1841.87 3513.34 1869.78 3518.17 1869.78 3518.17 1913.27 3529.68 2029.47 3486 2029.47 3486 2029.47 3486 2071.6 3522.91 2066.06 3611.39 2063.36 3654.57 2058.43 3838.08 2053.28 3892.38 2051.42 3912.06 2049.79 3926.06 2049.12 3931.66 2049.11 3931.69 2049.11 3931.7 2049.11 3931.71 2048.91 3933.42 2049.5 3935.03 2050.37 3936.52 2057.96 3949.35 2064.24 3962.7 2069.39 3976.37 2119.94 4110.64 2061.6 4276 2061.6 4276L2046.46 4269.92C2046.46 4269.92 2013.26 4085.9 1986.28 4004.6 1981.7 3990.81 1977.31 3979.97 1973.29 3973.5 1961.56 3954.63 1950.68 3923.8 1940.8 3887.14 1922.12 3817.81 1907.09 3727.63 1897.09 3658.02 1895.71 3658.09 1881.33 3560.46 1845.29 3517.43Z" fill="#014840" fill-rule="evenodd"/><path d="M1913 2985.85 1991.85 3106C1991.85 3106 2000.86 3088.26 2010.87 3094.63 2026.49 3104.54 2060.05 3070.61 2053.05 3022.7 2052.59 3019.57 2052.04 3016.59 2051.44 3013.77 2035.7 2991 2018.23 2965.66 2005.7 2947.84 1969.49 2925.87 1913 2985.85 1913 2985.85Z" fill="#070706" fill-rule="evenodd"/><path d="M1878 3228.01C1889.07 3238.14 1903.45 3247.21 1922.1 3254.26 1991.98 3280.7 2027.92 3223.56 2044 3183.17 2034.93 3176.22 2025.84 3173.72 2020.58 3172.35 2015.45 3171.03 2010.02 3169.88 2005.5 3169.04 1998.25 3161.74 1989.63 3134.74 1992.32 3095L1988.81 3095.45 1929.83 3103.27C1929.83 3103.27 1929.97 3121.67 1928.93 3138.9 1928.09 3152.39 1926.51 3165.17 1923.55 3167.95 1918.99 3168.3 1916.24 3168.57 1916.24 3168.57 1916.24 3168.57 1916.23 3168.59 1916.2 3168.62 1915.27 3169.77 1895.08 3194.62 1878 3228.01Z" fill="#F5C89E" fill-rule="evenodd"/><path d="M1845.1 3269.41C1845.18 3270.99 1845.33 3272.56 1845.52 3274.2 1851.2 3318.66 1859.44 3462.2 1859.44 3462.2 1845.53 3489.55 2052.17 3552.92 2061.09 3526.83 2074.47 3506.42 2061.12 3467.33 2049.56 3437.38 2046.72 3430.07 2046.1 3422.27 2043.58 3416.62 2041.97 3412.99 2040.68 3409.25 2039.73 3405.43 2037.33 3395.87 2037.07 3385.82 2039.06 3376.06 2044.37 3350.16 2051.81 3326.1 2058.06 3306.63 2061.1 3297.16 2063.84 3288.79 2065.94 3281.81 2062.96 3277.66 2060.02 3273.78 2057.3 3270.12 2053.16 3264.49 2049.57 3259.3 2047.26 3254.46 2044.68 3249.18 2043.58 3244.26 2044.8 3239.49 2045.72 3235.88 2046.98 3232.28 2048.5 3228.76 2049.22 3227.1 2049.99 3225.46 2050.79 3223.83 2059.28 3206.67 2072 3192.71 2072 3192.71 2055.38 3178.95 2020.05 3172.78 2020.05 3172.78 2020.05 3172.78 2019.48 3174.68 2018.51 3177.77 2014.7 3190.19 2004.49 3221.93 1998.61 3226.69 1991.28 3232.6 1890.08 3236.6 1888.5 3224.9 1886.96 3213.41 1914.76 3170.67 1915.81 3169.06 1915.84 3169.01 1915.84 3169 1915.84 3169 1914.75 3169.07 1913.69 3169.15 1912.64 3169.22 1907.42 3169.64 1902.74 3170.53 1898.45 3170.71 1870.89 3171.88 1865.95 3179.35 1865.95 3179.35 1880.51 3197.05 1842.86 3227.33 1845.1 3269.41Z" fill="#FD9C29" fill-rule="evenodd"/><path d="M1929.9 3103.73C1929.9 3103.73 1930.06 3121.91 1929 3138.97 1961.72 3140.11 1980.88 3111.83 1989 3096L1929.9 3103.73Z" fill="#D8A983" fill-rule="evenodd"/><path d="M1917.66 3118.74C1917.66 3118.74 1995.27 3124.88 1998.4 3077.17 2001.53 3029.46 2013.66 2998.12 1964.24 2992.18 1914.82 2986.24 1903.99 3003.83 1899.02 3019.51 1894.04 3035.18 1897.55 3115.92 1917.66 3118.74Z" fill="#F5C89E" fill-rule="evenodd"/><path d="M1903.37 2992.55C1916.22 2978.91 1925.03 2982.64 1929.8 2987.29 1973.44 2966.87 1998.43 3002.73 1998.43 3002.73 2001.39 3037.41 2025 3058.66 2025 3058.66 2025 3058.66 2010.39 3066.42 1978.5 3056.06 1968.76 3052.9 1960.37 3045.33 1953.4 3036.35 1965.12 3059.08 1981.96 3076 1981.96 3076 1944.38 3055.71 1932.26 3001.08 1931.08 2995.31 1926.1 2999.22 1916.23 3007.79 1912.83 3016.58 1908.2 3028.52 1904.87 3053.51 1897.58 3052.19 1897.58 3052.19 1884.11 3013.01 1903.37 2992.55Z" fill="#070706" fill-rule="evenodd"/><path d="M1974 4288 2093.35 4288C2093.35 4288 2096.21 4269.88 2089.97 4256.14 2084 4242.95 2074.64 4236.96 2076.88 4221 2069.3 4228.78 2056.94 4237.49 2039.69 4235.17 2037.57 4238.59 2026.04 4256.86 2018.98 4261.91 2011.18 4267.49 1976.4 4265.5 1974 4288Z" fill="#002722" fill-rule="evenodd"/><path d="M1717 4288 1836.73 4288C1836.73 4288 1841.21 4268.94 1833.35 4255.97 1826.39 4244.49 1829.06 4237.96 1834.21 4228.46 1828.79 4230.68 1821.77 4232.69 1814.04 4232.25 1808.08 4231.91 1801.77 4229.21 1796.24 4226 1791.08 4231.86 1769.02 4256.82 1762.12 4261.77 1754.3 4267.38 1719.41 4265.38 1717 4288Z" fill="#002722" fill-rule="evenodd"/><path d="M2054.66 3046C2054.66 3046 2090.26 2975 2040.52 2946.94 1990.78 2918.87 1954.37 2929.89 1927 2964.22L2054.66 3046Z" fill="#E65924" fill-rule="evenodd"/><path d="M1893.86 3032.77C1893.1 3025.52 1893.08 3017.17 1895.02 3009.29 1891.48 3001.78 1890.84 2995.28 1893.73 2990.62 1897.06 2985.21 1904.67 2983.02 1915 2983.7 1932.75 2984.85 1958.53 2994.45 1984.46 3010.77 2018.21 3032.03 2041.72 3058.02 2043.94 3074.76 2044.42 3078.36 2043.93 3081.53 2042.3 3084.14 2040.14 3087.64 2036.19 3089.81 2030.85 3090.69 2023.63 3096.47 2016.13 3098.26 2010.77 3094.84 2005.54 3091.5 2000.57 3094.79 1997.02 3098.68 2040.65 3116.82 2076.84 3119.62 2087.15 3102.94 2096.43 3087.93 2082.44 3060.84 2053.79 3032.55 2038.41 3017.39 2018.81 3001.89 1996.31 2987.73 1978.22 2976.34 1960.19 2967.03 1943.27 2960.04 1899.97 2942.15 1864.11 2939.47 1853.85 2956.06 1843.87 2972.2 1860.76 3002.27 1893.86 3032.77Z" fill="#FD9C29" fill-rule="evenodd"/><path d="M1969.49 3420.72C1999.28 3430.25 2028.28 3434.34 2051.29 3436 2048.46 3428.7 2046.36 3422.08 2043.83 3416.43 2042.22 3412.81 2040.93 3409.07 2039.98 3405.26 2037.58 3395.7 2037.32 3385.67 2039.31 3375.91 2044.63 3350.04 2058.74 3305.89 2065 3286.44 2048.29 3249.23 2031.02 3269.52 2031.02 3269.52 2031.02 3269.52 1980.52 3292.14 1959.02 3333.82 1937.51 3375.5 1943.79 3412.5 1969.49 3420.72Z" fill="#E65924" fill-rule="evenodd"/><path d="M2034 3175.84C2034 3175.84 1985.86 3206.45 1973.56 3271L1959 3266.4C1959 3266.4 1964.64 3220.32 2020.31 3173L2034 3175.84Z" fill="#014840" fill-rule="evenodd"/><path d="M1864.24 3273 1879.49 3274C1876.44 3217.6 1904.66 3179.09 1913 3169 1907.77 3169.42 1903.03 3169.93 1898.78 3170.49 1858.85 3228.43 1864.24 3273 1864.24 3273Z" fill="#014840" fill-rule="evenodd"/><path d="M1972.31 3306.52C1973.24 3302.52 1982.53 3263.58 1982.53 3263.58 1982.53 3263.58 1984.68 3251.41 1963.37 3250.2 1942.06 3249 1866.47 3245 1866.47 3245 1866.47 3245 1856.17 3251.24 1856.02 3264.05 1855.87 3276.86 1845.58 3350.13 1845.58 3350.13L1835 3511.28 2065.51 3611C2065.51 3611 2081.31 3529.55 2063.61 3472.78 2053.29 3439.67 2039.99 3405.1 2039.99 3405.1 2039.99 3405.1 1957.96 3367.72 1972.31 3306.52Z" fill="#014840" fill-rule="evenodd"/><path d="M1974.69 3265.47C1975.78 3262.05 1973.89 3258.39 1970.47 3257.31 1967.05 3256.22 1963.39 3258.11 1962.31 3261.53 1961.22 3264.95 1963.11 3268.61 1966.53 3269.69 1969.95 3270.78 1973.61 3268.89 1974.69 3265.47Z" fill="#ED7D2B" fill-rule="evenodd"/><path d="M1973.69 3264.82C1974.78 3261.66 1972.89 3258.29 1969.47 3257.28 1966.05 3256.28 1962.39 3258.03 1961.31 3261.18 1960.22 3264.34 1962.11 3267.71 1965.53 3268.72 1968.95 3269.72 1972.61 3267.97 1973.69 3264.82Z" fill="#3FB78A" fill-rule="evenodd"/><path d="M1971 3263C1971 3262.45 1970.55 3262 1970 3262 1969.45 3262 1969 3262.45 1969 3263 1969 3263.55 1969.45 3264 1970 3264 1970.55 3264 1971 3263.55 1971 3263Z" fill="#2B478B" fill-rule="evenodd"/><path d="M1965 3263C1965 3262.45 1964.55 3262 1964 3262 1963.45 3262 1963 3262.45 1963 3263 1963 3263.55 1963.45 3264 1964 3264 1964.55 3264 1965 3263.55 1965 3263Z" fill="#2B478B" fill-rule="evenodd"/><path d="M1880.69 3257.47C1881.78 3254.05 1879.89 3250.39 1876.47 3249.31 1873.05 3248.22 1869.39 3250.11 1868.31 3253.53 1867.22 3256.95 1869.11 3260.61 1872.53 3261.69 1875.95 3262.78 1879.61 3260.89 1880.69 3257.47Z" fill="#ED7D2B" fill-rule="evenodd"/><path d="M1879.69 3256.82C1880.78 3253.66 1878.89 3250.29 1875.47 3249.28 1872.05 3248.28 1868.39 3250.03 1867.31 3253.18 1866.22 3256.34 1868.11 3259.71 1871.53 3260.72 1874.95 3261.72 1878.61 3259.97 1879.69 3256.82Z" fill="#3FB78A" fill-rule="evenodd"/><path d="M1877 3255C1877 3254.45 1876.55 3254 1876 3254 1875.45 3254 1875 3254.45 1875 3255 1875 3255.55 1875.45 3256 1876 3256 1876.55 3256 1877 3255.55 1877 3255Z" fill="#2B478B" fill-rule="evenodd"/><path d="M1871 3255C1871 3254.45 1870.55 3254 1870 3254 1869.45 3254 1869 3254.45 1869 3255 1869 3255.55 1869.45 3256 1870 3256 1870.55 3256 1871 3255.55 1871 3255Z" fill="#2B478B" fill-rule="evenodd"/><path d="M2043.99 3075C2043.99 3075 2044.52 3086.36 2037.74 3088.58 2030.95 3090.81 2044.72 3115.33 2043.64 3131.89 2042.56 3148.45 2035.27 3155.1 2035.27 3155.1 2035.27 3155.1 2038.77 3145.99 2036.81 3140.35 2036.81 3140.35 2037.12 3152.07 2028.61 3157.98 2020.1 3163.89 2022.39 3169 2022.39 3169 2022.39 3169 2003.14 3163.21 2002.6 3148.71 2002.6 3148.71 2001.78 3155.26 2002.44 3157.98 2002.44 3157.98 1985.83 3145.44 1985.03 3131 1984.24 3116.55 1998.11 3104.36 2004.43 3104.14 2010.75 3103.92 2024.85 3091.46 2024.47 3086.74 2024.09 3082.03 2043.99 3075 2043.99 3075Z" fill="#070706" fill-rule="evenodd"/><path d="M2044.23 3456C2044.23 3456 2021.15 3470.73 2017.76 3470.61 2009.84 3470.31 1994.21 3452.81 1981.19 3460.9 1968.17 3468.99 1955.42 3482.47 1959.93 3487.86 1964.44 3493.26 1979.72 3486.89 1987.06 3487.97 1994.39 3489.05 2012.47 3498.14 2025.23 3493.86 2037.5 3489.75 2064 3472.84 2064 3472.84L2044.23 3456Z" fill="#F5C89E" fill-rule="evenodd"/><path d="M2072.55 3192.36C2072.55 3192.36 2157.79 3293.87 2186 3351.05 2186 3351.05 2152.08 3425.51 2042.14 3486 2042.14 3486 2037.25 3484.92 2029.79 3479.55 2018.16 3471.17 2031.05 3465.03 2033.59 3463.37 2061.49 3445.15 2110.23 3366.68 2111.64 3359.87 2113.05 3353.06 2050.55 3291.99 2031.56 3269.41 2012.57 3246.83 2043.03 3180.73 2072.55 3192.36Z" fill="#F5C89E" fill-rule="evenodd"/><path d="M1942 3092.79C1942 3092.79 1930.57 3099.74 1922.44 3098.93 1914.39 3098.13 1910 3088.39 1910 3088.39 1910 3088.39 1925.62 3086.07 1942 3092.79Z" fill="#FFF2E9" fill-rule="evenodd"/><path d="M2075.67 3193.92 2114 3231.79C2114 3231.79 2105.25 3287.7 2047.23 3295 2047.23 3295 1999.61 3256.45 2028.06 3216.3 2056.51 3176.14 2075.67 3193.92 2075.67 3193.92Z" fill="#FD9C29" fill-rule="evenodd"/><path d="M1866.57 3179.67C1866.57 3179.67 1836.65 3193.33 1827 3241.04 1827 3241.04 1827.55 3256.2 1850.61 3264 1850.61 3264 1880.89 3183.42 1876.58 3179.67 1872.27 3175.91 1866.57 3179.67 1866.57 3179.67Z" fill="#FD9C29" fill-rule="evenodd"/><path d="M2018 3470.92C2018 3470.92 2016.66 3465.22 2011.55 3462.97 2006.44 3460.73 2001.69 3455.83 2001.28 3457.26 2000.86 3458.69 2000.54 3461.07 2003.18 3463.96 2005.82 3466.85 2010.33 3471.69 2018 3470.92Z" fill="#FFB27D" fill-rule="evenodd"/><path d="M1106 4218C1106 4218 1037.94 4083.97 1028.69 4118.77 1019.44 4153.56 1106 4218 1106 4218Z" fill="url(#fill9)" fill-rule="evenodd"/><path d="M1086 4220C1086 4220 1018.79 4157.62 1012.37 4169.51 1005.94 4181.4 1086 4220 1086 4220Z" fill="url(#fill10)" fill-rule="evenodd"/><path d="M1117.14 4215C1116.9 4213.63 1078.13 4103.77 1108.81 4107.07 1139.49 4110.38 1117.14 4215 1117.14 4215Z" fill="url(#fill11)" fill-rule="evenodd"/><path d="M2874.83 4305.28 2875 4238C2853.33 4238.16 2830.97 4239.21 2808.2 4241.45 2801.1 4242.14 2793.95 4242.94 2786.77 4243.87 2785.55 4244.03 2784.32 4244.19 2783.12 4244.36 2770.55 4246.12 2758.12 4248.57 2745.88 4251.58 2712.09 4256.27 2668.61 4266.16 2622.22 4286.75 2624.55 4286.02 2650.98 4277.79 2668.84 4278.42 2668.43 4278.62 2668.02 4278.79 2667.6 4278.98 2655.19 4280.53 2613.54 4287.95 2556.07 4321.04 2557.85 4320.28 2587.21 4307.58 2611.79 4307.87 2611.51 4308.04 2611.21 4308.21 2610.95 4308.37 2596.39 4309.99 2561.95 4320.55 2512.37 4377.89 2504.6 4384.33 2497.53 4390.44 2491.22 4396.05 2483.13 4403.23 2476.32 4409.6 2470.89 4414.81 2461.23 4424.07 2456 4429.69 2456 4429.69L2612.34 4430.18 2874.49 4431 2874.76 4329.95 2874.8 4314.28 2874.83 4305.28Z" fill="#02644D" fill-rule="evenodd"/><path d="M2875 4219 2874.94 4237.56 2874.77 4304.85 2874.75 4313.84 2874.71 4329.52 2874.43 4430.57 2874.43 4432 2612.81 4431.43C2612.89 4430.86 2612.99 4430.3 2613.07 4429.75 2617.74 4401.13 2631.16 4377.42 2646.18 4358.93 2671.57 4327.67 2701.53 4311.3 2701.53 4311.3 2641.87 4321.99 2606.72 4357.31 2592.45 4374.98 2587.59 4381.03 2585.14 4385 2585 4385.24 2586.09 4382.09 2587.36 4379.02 2588.77 4376.04 2614.83 4321.07 2692.64 4294.3 2692.64 4294.3 2648.19 4300.99 2597.76 4330.38 2596.19 4331.3 2636.84 4295.99 2708.59 4266.77 2783.34 4243.92 2791.31 4241.48 2799.35 4239.12 2807.38 4236.81 2830.18 4230.27 2852.99 4224.34 2875 4219Z" fill="#49C194" fill-rule="evenodd"/><path d="M2808 4277C2809.14 4277.97 2837.89 4302.08 2875 4314.34L2874.96 4330C2850.25 4315.62 2826.47 4298.05 2808 4277Z" fill="#02644D" fill-rule="evenodd"/><path d="M2876 4177 2875.89 4219.22 2875.83 4237.77 2875.66 4305C2849.33 4290.91 2816.1 4268.35 2808.31 4241.21 2807.92 4239.82 2807.6 4238.44 2807.33 4237.02L2807.33 4237.01C2803.44 4215.93 2834.39 4193.17 2876 4177Z" fill="#02644D" fill-rule="evenodd"/><path d="M2270 4068 2275.84 4110 2279 4110 2279 4068.93Z" fill="#ED9F4A" fill-rule="evenodd"/><path d="M2277.05 4110.78C2276.02 4110.52 2291.6 4116.01 2304 4113.19 2304 4113.19 2281.38 4109.71 2278.53 4105L2277.05 4110.78Z" fill="#ED9F4A" fill-rule="evenodd"/><path d="M2268.03 4112.83C2267.49 4112.77 2275.17 4108.22 2276 4105L2279 4109C2279 4109 2277.38 4113.96 2268.03 4112.83Z" fill="#ED9F4A" fill-rule="evenodd"/><path d="M2223.94 4067 2215 4108.94 2217.94 4110 2232 4070.91Z" fill="#ED9F4A" fill-rule="evenodd"/><path d="M2217.05 4110.78C2216.02 4110.52 2231.6 4116.01 2244 4113.19 2244 4113.19 2221.38 4109.71 2218.53 4105L2217.05 4110.78Z" fill="#ED9F4A" fill-rule="evenodd"/><path d="M2208.03 4112.83C2207.49 4112.77 2215.17 4108.22 2216 4105L2219 4109C2219 4109 2217.38 4113.96 2208.03 4112.83Z" fill="#ED9F4A" fill-rule="evenodd"/><path d="M2259 4015.97C2259 4015.97 2259 4084 2277.76 4084 2286.98 4084 2311.68 4033.1 2303.29 4015.97 2294.9 3998.84 2265.06 4001.22 2259 4015.97Z" fill="#C9FCE9" fill-rule="evenodd"/><path d="M2227.42 4011.09C2227.42 4011.09 2207.56 4075.26 2225.52 4080.87 2234.36 4083.63 2272.87 4043.01 2269.83 4024.35 2266.79 4005.69 2237.53 3999 2227.42 4011.09Z" fill="#C9FCE9" fill-rule="evenodd"/><path d="M2333 3831.04C2333 3831.04 2336.75 3810.76 2349.57 3806.08 2362.4 3801.4 2369.59 3806.08 2369.59 3806.08 2369.59 3806.08 2378.66 3802.96 2383.66 3805.77 2388.66 3808.58 2388.66 3815.75 2388.66 3815.75 2388.66 3815.75 2398.36 3817.31 2398.98 3823.55 2399.61 3829.79 2382.54 3845.39 2361.21 3841.34 2339.88 3837.28 2333 3831.04 2333 3831.04Z" fill="#E55924" fill-rule="evenodd"/><path d="M2162.97 3992.82C2171.12 4015.87 2188.65 4037.29 2221.91 4050.63 2238.29 4057.21 2314.21 4062.67 2352.04 4017.26 2355.38 4013.26 2358.09 4008.99 2360.24 4004.53 2382.6 3958.31 2346.95 3891.04 2352.04 3879.64 2357.64 3867.12 2370.12 3865.03 2367.69 3846.96 2365.26 3828.87 2343.12 3826.08 2343.12 3826.08 2343.12 3826.08 2329.27 3824.01 2312.65 3840.69 2296.05 3857.39 2299.64 3895.92 2292.95 3911.27 2288.42 3921.61 2261.14 3933.25 2233.79 3929.6 2229.58 3929.05 2225.38 3928.14 2221.24 3926.79 2204.34 3921.3 2166.37 3901.67 2161.88 3918.95 2161.51 3920.39 2161.15 3921.85 2160.82 3923.33 2156.16 3943.57 2154.58 3969.09 2162.97 3992.82Z" fill="#E9F7F8" fill-rule="evenodd"/><path d="M2367.56 3843C2367.56 3843 2384.61 3847.89 2388 3855.78 2388 3855.78 2367.71 3863.63 2362.88 3857.92 2358.05 3852.2 2363.6 3843.3 2367.56 3843Z" fill="#ED9F4A" fill-rule="evenodd"/><path d="M2371.33 3859.98C2371.33 3859.98 2377.34 3869.81 2371.33 3876.58 2365.33 3883.35 2352.51 3879.38 2354.14 3870.74 2355.77 3862.11 2363.24 3858 2363.24 3858L2371.33 3859.98Z" fill="#E55924" fill-rule="evenodd"/><path d="M2127.62 3967.56C2134.04 3978.5 2145.97 3992.2 2163.09 3992.96 2168.66 3993.23 2174.82 3992.11 2181.5 3989.06 2187.77 3986.21 2194.15 3982.48 2200.26 3978.39 2220.64 3964.81 2238 3947.6 2238 3947.6 2238 3947.6 2236.47 3940.47 2233.72 3929.69 2224.9 3894.91 2203.48 3822.07 2179.88 3826.17 2148.95 3831.55 2168.14 3865.95 2145.21 3875.63 2142.45 3876.8 2140.22 3878.11 2138.47 3879.55 2138.21 3879.77 2137.95 3879.98 2137.69 3880.22 2137.67 3880.25 2137.65 3880.25 2137.65 3880.27 2136.03 3881.75 2134.86 3883.34 2134.02 3885.04L2134.02 3885.06C2128.98 3895.32 2136.8 3908.85 2135.62 3919.18 2134.02 3933.15 2119.08 3953.05 2127.62 3967.56Z" fill="#E9F7F8" fill-rule="evenodd"/><path d="M2347.34 3838.99C2348.18 3837.25 2350.26 3836.51 2352.01 3837.34 2353.75 3838.18 2354.49 3840.26 2353.66 3842.01 2352.82 3843.75 2350.74 3844.49 2348.99 3843.66 2347.25 3842.82 2346.51 3840.74 2347.34 3838.99Z" fill="#060633" fill-rule="evenodd"/><path d="M2138 3880C2137.67 3880.32 2137.33 3880.65 2137 3881 2137.03 3880.97 2137.08 3880.94 2137.14 3880.9 2137.56 3880.61 2137.84 3880.32 2138 3880Z" fill="#C65447" fill-rule="evenodd"/><path d="M2127.63 3967.43C2134.08 3978.36 2146.07 3992.05 2163.28 3992.81 2171.44 4015.87 2189.01 4037.29 2222.35 4050.63 2238.78 4057.21 2314.86 4062.67 2352.79 4017.26 2356.13 4013.25 2358.85 4008.99 2361 4004.52L2361 4004.5C2361 4004.5 2315.41 4032.33 2258.93 4016.26 2225.57 4006.74 2210.76 3991.07 2200.64 3978.25 2193.62 3969.36 2188.88 3961.85 2181.78 3958.76 2169.25 3953.3 2167.73 3937.01 2161.13 3923.32 2158.58 3918.05 2155.28 3913.17 2150.33 3909.43 2137.17 3899.5 2132.58 3890.73 2134.06 3885 2129 3895.25 2136.86 3908.77 2135.67 3919.09 2134.06 3933.05 2119.05 3952.93 2127.63 3967.43Z" fill="#C9FCE9" fill-rule="evenodd"/><path d="M724.475 3683.96C724.475 3683.96 636.77 3675.04 612.928 3683.96 589.087 3692.88 577.166 3734.37 580.572 3764.67 583.979 3794.96 591.926 3820.65 607.252 3819.99 622.579 3819.33 731 3819.99 731 3819.99L724.475 3683.96Z" fill="#057253" fill-rule="evenodd"/><path d="M711.937 3683.08C711.937 3683.08 746.9 3680 769.072 3712.6 791.243 3745.2 773.335 3820.7 744.342 3820.99 715.348 3821.28 679.635 3816.12 671.909 3772.26 664.182 3728.41 680.384 3684.18 711.937 3683.08Z" fill="#48C094" fill-rule="evenodd"/><path d="M725.939 3820C734.073 3820 743.865 3818.42 752.225 3812.57 761.261 3806.25 767.162 3796.06 769.768 3782.27 774.202 3758.81 772.025 3739.55 763.294 3725.05 755.132 3711.49 741.349 3702.66 723.436 3699.52 711.348 3697.39 700.879 3701.86 693.165 3712.44 682.021 3727.72 678.819 3753.53 685.378 3775.21 690.013 3790.53 702.392 3799.99 718.493 3800.52 718.952 3800.54 719.411 3800.55 719.868 3800.55 736.086 3800.55 750.706 3791.07 755.726 3777.14 760.843 3762.93 760.577 3749.04 754.979 3738.02 749.293 3726.82 738.557 3719.54 724.747 3717.52 712.245 3715.68 705.501 3722.33 702.046 3728.24 695.381 3739.63 695.397 3758.14 699.865 3767.07 704.169 3775.68 716.082 3782.32 726.428 3781.91 733.894 3781.61 739.592 3777.66 742.475 3770.79 746.182 3761.96 745.94 3752.83 741.808 3745.76 738.482 3740.07 733.11 3736.59 728.123 3736.9 722.397 3737.26 719.956 3742.73 719.605 3747.3 719.297 3751.33 720.498 3755.81 723.392 3756.58 728.775 3758.02 730.684 3754.66 730.763 3754.52 730.763 3754.52 733.67 3749.03 730.054 3748.24 725.911 3747.34 727.001 3751.02 727.001 3751.02 726.942 3751.12 728.025 3756.09 723.728 3754.94 721.957 3754.47 720.794 3751.18 721.08 3747.45 721.392 3743.36 723.428 3738.89 728.204 3738.59 732.685 3738.3 737.537 3741.5 740.578 3746.7 744.412 3753.27 744.617 3761.78 741.142 3770.06 737.767 3778.1 731.248 3780.02 726.375 3780.22 716.528 3780.61 705.209 3774.35 701.15 3766.24 697.388 3758.71 696.376 3740.97 703.277 3729.18 707.896 3721.28 715.256 3717.83 724.558 3719.2 737.901 3721.16 748.25 3728.14 753.699 3738.87 759.062 3749.43 759.296 3762.79 754.358 3776.49 749.426 3790.18 734.685 3799.37 718.536 3798.83 703.076 3798.32 691.202 3789.29 686.777 3774.66 680.378 3753.51 683.472 3728.37 694.302 3713.52 699.437 3706.48 708.617 3698.63 723.213 3701.19 740.712 3704.26 754.151 3712.85 762.076 3726.01 770.566 3740.12 772.668 3758.93 768.322 3781.92 765.805 3795.23 760.13 3805.06 751.453 3811.13 733.919 3823.4 706.262 3815.97 706.021 3815.9L709.15 3817.83C709.284 3817.87 716.493 3820 725.939 3820Z" fill="#057253" fill-rule="evenodd"/></g></svg>