<svg width="2646" height="2075" xmlns="http://www.w3.org/2000/svg" xmlns:xlink="http://www.w3.org/1999/xlink" xml:space="preserve" overflow="hidden"><defs><clipPath id="clip0"><rect x="1688" y="261" width="2646" height="2075"/></clipPath><radialGradient cx="7329054" cy="1390996" r="7459886" fx="7329054" fy="1390997" gradientUnits="userSpaceOnUse" spreadMethod="pad" id="fill1" gradientTransform="matrix(0.000360892 0 0 0.000360892 1688 1547)"><stop offset="0" stop-color="#5D993F"/><stop offset="1" stop-color="#C5A34C"/><stop offset="1" stop-color="#74C4E9"/></radialGradient><radialGradient cx="7329056" cy="-0.25" r="7449256" fx="7329055" fy="-0.0234914" gradientUnits="userSpaceOnUse" spreadMethod="pad" id="fill2" gradientTransform="matrix(0.000360892 0 0 0.000360892 1689 1854)"><stop offset="0" stop-color="#257C4F"/><stop offset="0.8" stop-color="#B4C155"/><stop offset="1" stop-color="#C9CD55"/><stop offset="1" stop-color="#C5A34C"/></radialGradient><linearGradient x1="2789.4" y1="1911.92" x2="2740.6" y2="1970.08" gradientUnits="userSpaceOnUse" spreadMethod="reflect" id="fill3"><stop offset="0" stop-color="#B6C555"/><stop offset="0.52" stop-color="#609950"/><stop offset="0.72" stop-color="#3B7D23"/><stop offset="1" stop-color="#3B7D23"/></linearGradient><linearGradient x1="2801.67" y1="1928.75" x2="2764.33" y2="1973.25" gradientUnits="userSpaceOnUse" spreadMethod="reflect" id="fill4"><stop offset="0" stop-color="#B6C555"/><stop offset="0.52" stop-color="#609950"/><stop offset="0.72" stop-color="#3B7D23"/><stop offset="1" stop-color="#3B7D23"/></linearGradient><linearGradient x1="2756.27" y1="1925.26" x2="2709.73" y2="1980.74" gradientUnits="userSpaceOnUse" spreadMethod="reflect" id="fill5"><stop offset="0" stop-color="#B6C555"/><stop offset="0.52" stop-color="#609950"/><stop offset="0.72" stop-color="#3B7D23"/><stop offset="1" stop-color="#3B7D23"/></linearGradient><linearGradient x1="4275.35" y1="1810" x2="4221.65" y2="1874" gradientUnits="userSpaceOnUse" spreadMethod="reflect" id="fill6"><stop offset="0" stop-color="#B6C555"/><stop offset="0.52" stop-color="#609950"/><stop offset="0.72" stop-color="#3B7D23"/><stop offset="1" stop-color="#3B7D23"/></linearGradient><linearGradient x1="4282.8" y1="1835" x2="4244.2" y2="1881" gradientUnits="userSpaceOnUse" spreadMethod="reflect" id="fill7"><stop offset="0" stop-color="#B6C555"/><stop offset="0.52" stop-color="#609950"/><stop offset="0.72" stop-color="#3B7D23"/><stop offset="1" stop-color="#3B7D23"/></linearGradient><linearGradient x1="4236.91" y1="1819.99" x2="4194.09" y2="1871.01" gradientUnits="userSpaceOnUse" spreadMethod="reflect" id="fill8"><stop offset="0" stop-color="#B6C555"/><stop offset="0.52" stop-color="#609950"/><stop offset="0.72" stop-color="#3B7D23"/><stop offset="1" stop-color="#3B7D23"/></linearGradient><linearGradient x1="2566.97" y1="2019.49" x2="2483.03" y2="2119.51" gradientUnits="userSpaceOnUse" spreadMethod="reflect" id="fill9"><stop offset="0" stop-color="#3B7D23"/><stop offset="1" stop-color="#B6C555"/></linearGradient><linearGradient x1="2534.8" y1="2064.28" x2="2478.2" y2="2131.72" gradientUnits="userSpaceOnUse" spreadMethod="reflect" id="fill10"><stop offset="0" stop-color="#3B7D23"/><stop offset="1" stop-color="#B6C555"/></linearGradient><linearGradient x1="2601.37" y1="2026.42" x2="2536.63" y2="2103.58" gradientUnits="userSpaceOnUse" spreadMethod="reflect" id="fill11"><stop offset="0" stop-color="#3B7D23"/><stop offset="1" stop-color="#B6C555"/></linearGradient></defs><g clip-path="url(#clip0)" transform="translate(-1688 -261)"><path d="M2920.11 264.06 4220.18 261C4277.24 262.375 4330.87 283.696 4333.62 364.163 4333.75 760.108 4333.87 1156.05 4334 1552L1900.04 1552C1899.23 1490.71 1909.89 1458.43 1909.08 1397.15 1942.1 1340.4 1975.81 1300.79 2068.16 1212.82 2204.87 1107.63 2211.55 1172.92 2331.63 976.037 2486.4 776.071 2637.94 337.364 2920.11 264.06Z" fill="#97F8E4" fill-rule="evenodd"/><path d="M1921.29 1393.28C1917.67 1381.87 1948.37 1374.41 1997.75 1362.13 2158.25 1345.6 2114.26 1373.26 2173.75 1385.3 2236.14 1404.58 2236.51 1417.97 2354.7 1434.35 2472.89 1450.73 2731.44 1493.41 2882.87 1483.57 3034.31 1473.72 3104.93 1536.07 3167.5 1529.5 3230.07 1522.94 3332.03 1556.94 3330.99 1556.93L3329.95 1556.91 1922.37 1558C1922.37 1500.74 1921.29 1450.54 1921.29 1393.28Z" fill="#387E5A" fill-rule="evenodd"/><path d="M4333 1385.57C4333 1385.57 4066.41 1349.55 3928.56 1434.68 3790.71 1519.81 3593.78 1493.62 3459.21 1483.79 3324.64 1473.97 3261.89 1536.18 3206.29 1529.63 3150.69 1523.09 3060.08 1557.01 3061.01 1557 3061.93 1556.99 3061.93 1556.99 3061.93 1556.99L4333 1556.99 4333 1385.57Z" fill="#032C1E" fill-rule="evenodd"/><path d="M2536.91 1547.01C2711.06 1547.15 2868.09 1548.34 2956.48 1551.53 3239.32 1561.72 4333 1551.53 4333 1551.53L4333 2049 1688.82 2049 1688 1632.22 1690.46 1610.42C1693.15 1598.66 1696.82 1587.23 1701.4 1576.18L1714.15 1551.27 1730.75 1551.11C1854.54 1549.95 2223.44 1546.77 2536.91 1547.01Z" fill="url(#fill1)" fill-rule="evenodd"/><path d="M3321.58 1533.25C3321.58 1533.25 3584.69 1510.19 3656.21 1533.25 3727.74 1556.32 3763.5 1663.6 3753.28 1741.93 3743.07 1820.26 3719.22 1886.67 3673.24 1884.97 3627.26 1883.27 3302 1884.97 3302 1884.97L3321.58 1533.25Z" fill="#02644D" fill-rule="evenodd"/><path d="M3375 1528.68C3375 1528.68 3430.75 1518.3 3468.68 1514.47 3468.68 1514.47 3438.84 1520.57 3435.15 1523.7 3435.15 1523.7 3516.13 1511.49 3545.68 1514.47 3575.23 1517.45 3615.71 1522.45 3615.71 1522.45L3660.75 1519.44C3660.75 1519.44 3623.24 1523.98 3625.23 1524.55 3627.22 1525.12 3661.89 1529.38 3672.97 1536.48 3672.97 1536.48 3707.35 1547.27 3714.73 1553.8 3714.73 1553.8 3687.17 1539.88 3676.38 1540.73 3676.38 1540.73 3738.83 1584.03 3739 1625.28 3739.17 1666.53 3470.38 1563.17 3470.38 1563.17L3375 1528.68Z" fill="#02644D" fill-rule="evenodd"/><path d="M3359.19 1531.2C3359.19 1531.2 3254.3 1523.23 3187.79 1607.58 3121.27 1691.92 3174.99 1887.23 3261.98 1887.97 3348.96 1888.72 3456.1 1875.37 3479.27 1761.92 3502.45 1648.47 3453.85 1534.06 3359.19 1531.2Z" fill="#B7DB6F" fill-rule="evenodd"/><path d="M3145 1699C3145 1699 3182.37 1655.91 3186.34 1644L3192 1655.91 3145 1699Z" fill="#B7DB6F" fill-rule="evenodd"/><path d="M3172 1635.28C3172 1635.28 3176.65 1604.35 3190 1593 3190 1593 3177.87 1613.74 3181 1631.03 3184.13 1648.33 3172 1635.28 3172 1635.28Z" fill="#B7DB6F" fill-rule="evenodd"/><path d="M3189.98 1853.97C3190.68 1855.61 3169.46 1797.95 3176.4 1787L3180.43 1787.04C3180.43 1787.04 3183.19 1837.96 3189.98 1853.97Z" fill="#B7DB6F" fill-rule="evenodd"/><path d="M3173.85 1778.33C3173.85 1778.33 3157.96 1773.08 3149 1778.33 3149 1778.33 3163.73 1774.17 3172.69 1783 3181.66 1791.83 3173.85 1778.33 3173.85 1778.33Z" fill="#B7DB6F" fill-rule="evenodd"/><path d="M3317.65 1885C3293.52 1885 3264.47 1880.91 3239.67 1865.72 3212.86 1849.32 3195.35 1822.86 3187.62 1787.09 3174.47 1726.2 3180.93 1676.24 3206.83 1638.6 3231.04 1603.41 3271.93 1580.5 3325.07 1572.34 3360.94 1566.82 3392 1578.42 3414.88 1605.86 3447.94 1645.52 3457.44 1712.51 3437.98 1768.77 3424.23 1808.52 3387.5 1833.08 3339.74 1834.46 3338.37 1834.5 3337.01 1834.51 3335.66 1834.51 3287.55 1834.51 3244.17 1809.92 3229.28 1773.76 3214.1 1736.91 3214.89 1700.86 3231.5 1672.25 3248.37 1643.21 3280.22 1624.31 3321.19 1619.05 3358.27 1614.27 3378.28 1631.55 3388.53 1646.87 3408.3 1676.44 3408.26 1724.46 3395 1747.65 3382.23 1769.99 3346.89 1787.23 3316.2 1786.16 3294.05 1785.36 3277.15 1775.11 3268.59 1757.29 3257.59 1734.37 3258.32 1710.7 3270.57 1692.35 3280.44 1677.57 3296.38 1668.56 3311.17 1669.36 3328.16 1670.28 3335.4 1684.47 3336.44 1696.34 3337.36 1706.8 3333.79 1718.43 3325.21 1720.43 3309.24 1724.16 3303.57 1715.44 3303.34 1715.07 3303.34 1715.07 3294.71 1700.83 3305.44 1698.78 3317.73 1696.44 3314.5 1705.98 3314.5 1705.98 3314.67 1706.24 3311.46 1719.14 3324.21 1716.16 3329.46 1714.93 3332.91 1706.4 3332.07 1696.72 3331.14 1686.12 3325.1 1674.51 3310.93 1673.74 3297.64 1672.98 3283.24 1681.28 3274.22 1694.79 3262.85 1711.82 3262.24 1733.91 3272.55 1755.39 3282.56 1776.26 3301.9 1781.25 3316.36 1781.77 3345.57 1782.77 3379.15 1766.54 3391.19 1745.47 3402.35 1725.95 3405.35 1679.92 3384.88 1649.31 3371.17 1628.82 3349.34 1619.85 3321.74 1623.41 3282.16 1628.49 3251.46 1646.62 3235.29 1674.46 3219.38 1701.86 3218.69 1736.53 3233.34 1772.09 3247.97 1807.61 3291.71 1831.46 3339.61 1830.07 3385.48 1828.74 3420.7 1805.29 3433.83 1767.33 3452.81 1712.45 3443.63 1647.21 3411.5 1608.67 3396.27 1590.41 3369.04 1570.04 3325.74 1576.68 3273.82 1584.65 3233.96 1606.93 3210.45 1641.09 3185.26 1677.7 3179.02 1726.5 3191.91 1786.17 3199.38 1820.71 3216.22 1846.22 3241.96 1861.98 3293.97 1893.82 3376.02 1874.55 3376.74 1874.36L3367.45 1879.37C3367.06 1879.48 3345.67 1885 3317.65 1885Z" fill="#837D3F" fill-rule="evenodd"/><path d="M3749.94 1436.05C3749.94 1436.05 4085.07 1406.68 4176.17 1436.05 4267.28 1465.43 4312.83 1602.05 4299.81 1701.8 4286.8 1801.55 4256.43 1886.13 4197.86 1883.96 4139.3 1881.79 3725 1883.96 3725 1883.96L3749.94 1436.05Z" fill="#02644D" fill-rule="evenodd"/><path d="M3818 1430.68C3818 1430.68 3888.91 1417.48 3937.15 1412.6 3937.15 1412.6 3899.21 1420.37 3894.51 1424.34 3894.51 1424.34 3997.51 1408.8 4035.1 1412.6 4072.68 1416.39 4124.18 1422.76 4124.18 1422.76L4181.46 1418.92C4181.46 1418.92 4133.76 1424.7 4136.29 1425.43 4138.82 1426.15 4182.91 1431.57 4197.01 1440.6 4197.01 1440.6 4240.74 1454.34 4250.13 1462.65 4250.13 1462.65 4215.08 1444.94 4201.34 1446.03 4201.34 1446.03 4280.79 1501.13 4281 1553.63 4281.21 1606.12 3939.32 1474.58 3939.32 1474.58L3818 1430.68Z" fill="#02644D" fill-rule="evenodd"/><path d="M3797.95 1433.26C3797.95 1433.26 3664.51 1423.1 3579.89 1530.6 3495.28 1638.09 3563.62 1887.01 3674.28 1887.96 3784.93 1888.92 3921.23 1871.9 3950.72 1727.31 3980.2 1582.72 3918.37 1436.9 3797.95 1433.26Z" fill="#B7DB6F" fill-rule="evenodd"/><path d="M3525 1648C3525 1648 3572.71 1593.15 3577.77 1578L3585 1593.15 3525 1648Z" fill="#B7DB6F" fill-rule="evenodd"/><path d="M3559 1566.08C3559 1566.08 3564.94 1527.25 3582 1513 3582 1513 3566.5 1539.03 3570.5 1560.74 3574.5 1582.46 3559 1566.08 3559 1566.08Z" fill="#B7DB6F" fill-rule="evenodd"/><path d="M3581.98 1844.96C3582.82 1847.06 3557.35 1773.06 3565.67 1759L3570.52 1759.05C3570.52 1759.05 3573.83 1824.41 3581.98 1844.96Z" fill="#B7DB6F" fill-rule="evenodd"/><path d="M3561.06 1748.8C3561.06 1748.8 3541.2 1742.5 3530 1748.8 3530 1748.8 3548.41 1743.81 3559.61 1754.4 3570.82 1765 3561.06 1748.8 3561.06 1748.8Z" fill="#B7DB6F" fill-rule="evenodd"/><path d="M3744.5 1884C3713.86 1884 3676.98 1878.8 3645.49 1859.51 3611.45 1838.66 3589.22 1805.04 3579.41 1759.59 3562.71 1682.21 3570.91 1618.73 3603.8 1570.9 3634.54 1526.19 3686.45 1497.07 3753.93 1486.7 3799.46 1479.69 3838.89 1494.43 3867.94 1529.3 3909.92 1579.69 3921.98 1664.81 3897.28 1736.3 3879.82 1786.81 3833.19 1818.02 3772.54 1819.77 3770.81 1819.82 3769.09 1819.85 3767.37 1819.85 3706.28 1819.85 3651.21 1788.59 3632.3 1742.65 3613.03 1695.82 3614.03 1650.01 3635.12 1613.66 3656.53 1576.75 3696.97 1552.74 3748.99 1546.06 3796.08 1539.99 3821.48 1561.94 3834.49 1581.41 3859.6 1618.98 3859.54 1680 3842.71 1709.47 3826.5 1737.85 3781.62 1759.76 3742.66 1758.4 3714.54 1757.39 3693.07 1744.36 3682.22 1721.72 3668.25 1692.6 3669.16 1662.52 3684.73 1639.2 3697.25 1620.42 3717.49 1608.97 3736.27 1609.98 3757.84 1611.16 3767.03 1629.19 3768.35 1644.27 3769.52 1657.55 3764.99 1672.34 3754.09 1674.89 3733.82 1679.62 3726.62 1668.54 3726.33 1668.07 3726.33 1668.07 3715.38 1649.98 3729 1647.38 3744.6 1644.4 3740.5 1656.52 3740.5 1656.52 3740.72 1656.85 3736.65 1673.24 3752.83 1669.45 3759.5 1667.9 3763.88 1657.05 3762.8 1644.76 3761.62 1631.28 3753.95 1616.53 3735.97 1615.55 3719.09 1614.59 3700.81 1625.13 3689.36 1642.3 3674.92 1663.94 3674.15 1692.01 3687.24 1719.31 3699.95 1745.82 3724.5 1752.17 3742.86 1752.83 3779.95 1754.1 3822.58 1733.47 3837.87 1706.7 3852.04 1681.89 3855.85 1623.4 3829.86 1584.51 3812.46 1558.47 3784.74 1547.08 3749.7 1551.59 3699.44 1558.05 3660.46 1581.09 3639.93 1616.47 3619.74 1651.28 3618.85 1695.34 3637.45 1740.53 3656.03 1785.66 3711.56 1815.96 3772.38 1814.2 3830.62 1812.51 3875.34 1782.71 3892.01 1734.48 3916.11 1664.74 3904.45 1581.84 3863.66 1532.87 3844.33 1509.66 3809.74 1483.78 3754.77 1492.21 3688.86 1502.35 3638.24 1530.65 3608.39 1574.07 3576.41 1620.58 3568.49 1682.6 3584.86 1758.41 3594.34 1802.31 3615.71 1834.72 3648.4 1854.75 3714.44 1895.2 3818.61 1870.72 3819.52 1870.47L3807.74 1876.85C3807.23 1876.98 3780.08 1884 3744.5 1884Z" fill="#837D3F" fill-rule="evenodd"/><path d="M2395 1046.31C2395 1046.31 2427.5 959.076 2505.22 968.769 2505.22 968.769 2618.05 823.377 2738.37 949.384 2738.37 949.384 2866.27 918.162 2960.99 976.417 3024.14 1015.26 3045 1056 3045 1056L2395 1046.31Z" fill="#F6FBFF" fill-rule="evenodd"/><path d="M2771 826.443C2771 826.443 2782.4 794.421 2809.66 797.979 2809.66 797.979 2849.24 744.607 2891.44 790.863 2891.44 790.863 2936.31 779.402 2969.53 800.786 2991.68 815.044 2999 830 2999 830L2771 826.443Z" fill="#F6FBFF" fill-rule="evenodd"/><path d="M4334 781.214 4334 867 3609 859.566C3609 859.566 3652.84 778.652 3757.66 787.642 3757.66 787.642 3909.84 652.783 4072.11 769.663 4072.11 769.663 4212.67 746.068 4334 781.214Z" fill="#F6FBFF" fill-rule="evenodd"/><path d="M2979 688.522C2979 688.522 3000.75 648.219 3052.76 652.697 3052.76 652.697 3128.27 585.523 3208.79 643.741 3208.79 643.741 3294.39 629.316 3357.78 656.231 3400.04 674.175 3414 693 3414 693L2979 688.522Z" fill="#F6FBFF" fill-rule="evenodd"/><path d="M3589 693C3589 678.64 3600.64 667 3615 667 3629.36 667 3641 678.641 3641 693 3641 707.359 3629.36 719 3615 719 3600.64 719 3589 707.36 3589 693Z" fill="#F6FBFF" fill-rule="evenodd"/><path d="M3772.72 1854.04C3935.03 1854.52 4074.81 1859.09 4174.28 1863.55L4203.44 1864.9 4226.78 1866.07 4244.63 1867 4261.66 1867.93 4271.78 1868.51 4334 1872.45C4333.93 1894.35 4333.86 1916.25 4333.8 1938.15 4333.75 1952.24 4333.71 1966.32 4333.67 1980.41 4333.65 1986.6 4333.63 1992.78 4333.6 1998.97L4333.4 2066.26C4333.39 2069.26 4333.38 2072.26 4333.38 2075.26L4334 2335 1826.89 2334.04C1765.19 2322.35 1704.33 2270.46 1691.81 2205.59L1689 2176.01 1689 2024.48C1742.16 2026.15 1796.07 2026.27 1849.66 2025.2L1876.72 2024.55 1899.64 2023.86 1918.28 2023.2 1936.11 2022.48 1948.02 2021.96C2027.95 2018.35 2105.66 2012.53 2177.47 2005.79 2332.67 1991.21 2460.34 1972.29 2523.32 1961.87 2544.83 1958.3 2558.81 1955.74 2563.76 1954.68 2949.53 1871.69 3415.64 1852.98 3772.72 1854.04Z" fill="url(#fill2)" fill-rule="evenodd"/><path d="M2756.79 1983C2756.79 1983 2751.44 1884.22 2768.57 1900.9 2785.71 1917.58 2756.79 1983 2756.79 1983Z" fill="url(#fill3)" fill-rule="evenodd"/><path d="M2770 1978C2770 1978 2787.38 1919.57 2794.87 1924.27 2802.37 1928.97 2770 1978 2770 1978Z" fill="url(#fill4)" fill-rule="evenodd"/><path d="M2750 1986C2749.69 1985.14 2736.14 1909 2719.54 1921.36 2702.95 1933.72 2750 1986 2750 1986Z" fill="url(#fill5)" fill-rule="evenodd"/><path d="M4230 1881C4230 1881 4254.35 1785.04 4265.32 1805.99 4276.29 1826.95 4230 1881 4230 1881Z" fill="url(#fill6)" fill-rule="evenodd"/><path d="M4243 1880C4243 1880 4277.53 1829.89 4283.48 1836.62 4289.42 1843.35 4243 1880 4243 1880Z" fill="url(#fill7)" fill-rule="evenodd"/><path d="M4222.77 1881C4222.73 1880.09 4232.12 1803.7 4212.64 1810.42 4193.15 1817.13 4222.77 1881 4222.77 1881Z" fill="url(#fill8)" fill-rule="evenodd"/><path d="M1914.78 1390.99C1931.32 1386.09 1964.15 1379.02 2039.88 1394.21 2319.9 1426.06 2354.61 1410.46 2460.92 1425.91 2567.22 1441.37 2663.68 1427.65 2677.71 1486.93 2691.75 1546.21 2662.12 1582.25 2755.7 1579.28 2849.28 1576.32 2835.25 1671.64 2835.25 1671.64L1688 1672C1688.38 1658.3 1688.58 1641.17 1688.95 1627.47 1691.83 1537.78 1793.32 1415 1914.78 1390.99Z" fill="#19432F" fill-rule="evenodd"/><path d="M2453 1320 2718 1320 2718 1692 2453 1692Z" fill="#02634E" fill-rule="evenodd"/><path d="M2247 1320 2453 1320 2453 1692 2247 1692Z" fill="#057253" fill-rule="evenodd"/><path d="M2385 1165 2472.17 1344 2737 1344 2598.93 1165.65Z" fill="#E65924" fill-rule="evenodd"/><path d="M2375 1165 2461.92 1344 2726 1344 2588.32 1165.65Z" fill="#02634E" fill-rule="evenodd"/><path d="M2565.17 1254 2613.83 1254C2620.55 1254 2626 1259.45 2626 1266.17L2626 1375 2553 1375 2553 1266.17C2553 1259.45 2558.45 1254 2565.17 1254Z" fill="#002722" fill-rule="evenodd"/><path d="M2218 1354 2458.09 1354 2600 1165 2520.11 1165.02 2364.05 1165.04Z" fill="#FD9C29" fill-rule="evenodd"/><path d="M2218 1354 2261.98 1354 2520 1165 2363.99 1165.02Z" fill="#E65924" fill-rule="evenodd"/><path d="M2617 1394 2678.91 1522 2867 1522 2768.94 1394.47Z" fill="#E65924" fill-rule="evenodd"/><path d="M2612 1394 2673.91 1522 2862 1522 2763.94 1394.47Z" fill="#02634E" fill-rule="evenodd"/><path d="M2674 1522 2674 1691.63 2862 1692 2862 1522Z" fill="#02634E" fill-rule="evenodd"/><path d="M2515 1522 2674 1522 2674 1692 2515 1692Z" fill="#057253" fill-rule="evenodd"/><path d="M2497 1529 2667.95 1529 2769 1395 2718.08 1395.01 2600.99 1395.03Z" fill="#FD9C29" fill-rule="evenodd"/><path d="M2730 1549.92 2730 1692 2809 1692 2809 1551.22C2809 1539.5 2803.99 1528.94 2796 1521.59 2788.86 1515.01 2779.32 1511 2768.85 1511 2758.54 1511 2749.16 1515.03 2742.21 1521.59 2734.69 1528.68 2730 1538.75 2730 1549.92Z" fill="#002722" fill-rule="evenodd"/><path d="M2778 1465C2778 1460.03 2773.97 1456 2769 1456 2764.03 1456 2760 1460.03 2760 1465 2760 1469.97 2764.03 1474 2769 1474 2773.97 1474 2778 1469.97 2778 1465Z" fill="#002722" fill-rule="evenodd"/><path d="M2497 1529 2529.43 1529 2718 1395 2600.95 1395.03Z" fill="#E65924" fill-rule="evenodd"/><path d="M2265 1603.85C2265 1603.85 2246.32 1600.42 2233.6 1599.16 2233.6 1599.16 2243.6 1601.17 2244.84 1602.21 2244.84 1602.21 2217.7 1598.17 2207.79 1599.16 2197.89 1600.14 2184.32 1601.79 2184.32 1601.79L2169.23 1600.8C2169.23 1600.8 2181.8 1602.3 2181.13 1602.49 2180.46 1602.67 2168.85 1604.08 2165.13 1606.43 2165.13 1606.43 2153.61 1610 2151.13 1612.16 2151.13 1612.16 2160.37 1607.56 2163.99 1607.84 2163.99 1607.84 2143.06 1622.15 2143 1635.79 2142.94 1649.42 2233.03 1615.25 2233.03 1615.25L2265 1603.85Z" fill="#057253" fill-rule="evenodd"/><path d="M2342 1661C2342 1661 2330.07 1646.11 2328.81 1642L2327 1646.11 2342 1661Z" fill="#FFCF83" fill-rule="evenodd"/><path d="M2333 1639.39C2333 1639.39 2331.45 1628.86 2327 1625 2327 1625 2331.04 1632.06 2330 1637.95 2328.96 1643.84 2333 1639.39 2333 1639.39Z" fill="#FFCF83" fill-rule="evenodd"/><path d="M2327.01 1711.99C2326.77 1712.53 2333.85 1693.6 2331.53 1690L2330.19 1690.01C2330.19 1690.01 2329.27 1706.73 2327.01 1711.99Z" fill="#FFCF83" fill-rule="evenodd"/><path d="M2333.01 1686.93C2333.01 1686.93 2338.12 1684.83 2341 1686.93 2341 1686.93 2336.27 1685.27 2333.38 1688.8 2330.5 1692.33 2333.01 1686.93 2333.01 1686.93Z" fill="#FFCF83" fill-rule="evenodd"/><path d="M2283.43 1604.45C2283.43 1604.45 2195.15 1596.68 2171.15 1604.45 2147.15 1612.23 2135.15 1648.38 2138.58 1674.78 2142.01 1701.18 2150.01 1723.56 2165.43 1722.99 2180.86 1722.42 2290 1722.99 2290 1722.99L2283.43 1604.45Z" fill="#057253" fill-rule="evenodd"/><path d="M2270.94 1604.07C2270.94 1604.07 2305.9 1601.39 2328.07 1629.74 2350.24 1658.09 2332.33 1723.74 2303.34 1723.99 2274.35 1724.24 2238.63 1719.75 2230.91 1681.62 2223.18 1643.48 2239.38 1605.03 2270.94 1604.07Z" fill="#48C094" fill-rule="evenodd"/><path d="M2284.45 1723C2292.49 1723 2302.18 1721.63 2310.44 1716.55 2319.38 1711.07 2325.22 1702.22 2327.79 1690.26 2332.18 1669.9 2330.02 1653.19 2321.39 1640.61 2313.32 1628.84 2299.69 1621.18 2281.98 1618.45 2270.02 1616.6 2259.67 1620.48 2252.04 1629.66 2241.02 1642.92 2237.85 1665.32 2244.34 1684.13 2248.92 1697.43 2261.17 1705.64 2277.09 1706.1 2277.54 1706.11 2278 1706.12 2278.45 1706.12 2294.48 1706.12 2308.94 1697.89 2313.91 1685.8 2318.97 1673.48 2318.7 1661.43 2313.17 1651.86 2307.55 1642.15 2296.93 1635.83 2283.27 1634.07 2270.91 1632.47 2264.24 1638.25 2260.82 1643.37 2254.23 1653.26 2254.25 1669.32 2258.67 1677.07 2262.92 1684.54 2274.7 1690.31 2284.93 1689.95 2292.32 1689.68 2297.95 1686.25 2300.8 1680.3 2304.47 1672.63 2304.23 1664.72 2300.14 1658.58 2296.85 1653.64 2291.54 1650.62 2286.61 1650.89 2280.95 1651.2 2278.53 1655.95 2278.19 1659.91 2277.88 1663.41 2279.07 1667.3 2281.93 1667.97 2287.26 1669.22 2289.14 1666.3 2289.22 1666.18 2289.22 1666.18 2292.1 1661.42 2288.52 1660.73 2284.42 1659.95 2285.5 1663.14 2285.5 1663.14 2285.44 1663.23 2286.51 1667.54 2282.26 1666.54 2280.51 1666.13 2279.36 1663.28 2279.65 1660.04 2279.95 1656.5 2281.97 1652.61 2286.69 1652.36 2291.12 1652.11 2295.92 1654.88 2298.93 1659.4 2302.72 1665.09 2302.92 1672.48 2299.48 1679.66 2296.15 1686.64 2289.7 1688.31 2284.88 1688.48 2275.14 1688.82 2263.95 1683.39 2259.94 1676.35 2256.22 1669.82 2255.22 1654.42 2262.04 1644.19 2266.61 1637.34 2273.89 1634.34 2283.09 1635.53 2296.28 1637.23 2306.51 1643.29 2311.9 1652.6 2317.21 1661.76 2317.44 1673.36 2312.55 1685.25 2307.68 1697.12 2293.1 1705.1 2277.13 1704.63 2261.84 1704.19 2250.1 1696.35 2245.72 1683.65 2239.4 1665.3 2242.46 1643.49 2253.17 1630.6 2258.24 1624.49 2267.32 1617.68 2281.75 1619.9 2299.06 1622.57 2312.35 1630.02 2320.19 1641.44 2328.58 1653.68 2330.66 1670 2326.36 1689.95 2323.87 1701.51 2318.26 1710.03 2309.68 1715.3 2292.34 1725.95 2264.99 1719.51 2264.75 1719.44L2267.85 1721.12C2267.98 1721.15 2275.11 1723 2284.45 1723Z" fill="#057253" fill-rule="evenodd"/><path d="M3003 2116 3009.49 2163 3013 2163 3013 2117.04Z" fill="#ED9F4A" fill-rule="evenodd"/><path d="M3011.05 2163.42C3009.95 2163.14 3026.68 2169.24 3040 2166.1 3040 2166.1 3015.71 2162.23 3012.65 2157L3011.05 2163.42Z" fill="#ED9F4A" fill-rule="evenodd"/><path d="M3000.03 2165.83C2999.4 2165.77 3008.48 2161.22 3009.46 2158L3013 2162C3013 2162 3011.08 2166.96 3000.03 2165.83Z" fill="#ED9F4A" fill-rule="evenodd"/><path d="M2953 2116 2943 2161.84 2946.29 2163 2962 2120.27Z" fill="#ED9F4A" fill-rule="evenodd"/><path d="M2945.05 2163.42C2943.92 2163.14 2961.22 2169.24 2975 2166.1 2975 2166.1 2949.87 2162.23 2946.7 2157L2945.05 2163.42Z" fill="#ED9F4A" fill-rule="evenodd"/><path d="M2935.03 2165.83C2934.44 2165.77 2942.82 2161.22 2943.73 2158L2947 2162C2947 2162 2945.23 2166.96 2935.03 2165.83Z" fill="#ED9F4A" fill-rule="evenodd"/><path d="M2990 2060.02C2990 2060.02 2990 2134 3010.79 2134 3021.02 2134 3048.41 2078.64 3039.1 2060.02 3029.8 2041.39 2996.72 2043.98 2990 2060.02Z" fill="#C9FCE9" fill-rule="evenodd"/><path d="M2956.32 2053.73C2956.32 2053.73 2934.55 2124.65 2954.24 2130.85 2963.93 2133.9 3006.14 2089.01 3002.81 2068.39 2999.49 2047.76 2967.4 2040.36 2956.32 2053.73Z" fill="#C9FCE9" fill-rule="evenodd"/><path d="M3072 1855.89C3072 1855.89 3076.15 1833.47 3090.33 1828.3 3104.51 1823.13 3112.47 1828.3 3112.47 1828.3 3112.47 1828.3 3122.5 1824.85 3128.03 1827.95 3133.57 1831.06 3133.57 1838.99 3133.57 1838.99 3133.57 1838.99 3144.29 1840.71 3144.98 1847.61 3145.67 1854.51 3126.79 1871.75 3103.2 1867.27 3079.61 1862.78 3072 1855.89 3072 1855.89Z" fill="#E55924" fill-rule="evenodd"/><path d="M2885.56 2034.57C2894.52 2059.94 2913.8 2083.51 2950.37 2098.2 2968.39 2105.43 3051.85 2111.44 3093.46 2061.47 3097.13 2057.07 3100.1 2052.37 3102.46 2047.46 3127.05 1996.6 3087.86 1922.57 3093.46 1910.02 3099.6 1896.25 3113.33 1893.95 3110.66 1874.06 3107.99 1854.16 3083.64 1851.09 3083.64 1851.09 3083.64 1851.09 3068.41 1848.81 3050.14 1867.17 3031.89 1885.54 3035.84 1927.94 3028.48 1944.83 3023.5 1956.21 2993.5 1969.03 2963.43 1965 2958.81 1964.4 2954.18 1963.4 2949.63 1961.91 2931.05 1955.87 2889.3 1934.27 2884.37 1953.29 2883.96 1954.87 2883.56 1956.47 2883.2 1958.1 2878.08 1980.38 2876.34 2008.46 2885.56 2034.57Z" fill="#E9F7F8" fill-rule="evenodd"/><path d="M3110.81 1870C3110.81 1870 3128.48 1875.18 3132 1883.53 3132 1883.53 3110.96 1891.85 3105.95 1885.79 3100.94 1879.74 3106.7 1870.32 3110.81 1870Z" fill="#ED9F4A" fill-rule="evenodd"/><path d="M3114.93 1888.16C3114.93 1888.16 3121.84 1898.88 3114.93 1906.27 3108.03 1913.65 3093.29 1909.32 3095.16 1899.9 3097.04 1890.48 3105.63 1886 3105.63 1886L3114.93 1888.16Z" fill="#E55924" fill-rule="evenodd"/><path d="M2845.9 2006.12C2853 2018.1 2866.2 2033.12 2885.13 2033.96 2891.3 2034.25 2898.11 2033.03 2905.5 2029.69 2912.44 2026.56 2919.49 2022.47 2926.25 2017.99 2948.8 2003.11 2968 1984.25 2968 1984.25 2968 1984.25 2966.3 1976.44 2963.27 1964.62 2953.51 1926.51 2929.82 1846.69 2903.71 1851.18 2869.49 1857.08 2890.73 1894.78 2865.36 1905.38 2862.3 1906.67 2859.84 1908.1 2857.9 1909.68 2857.61 1909.92 2857.33 1910.16 2857.04 1910.42 2857.01 1910.44 2856.99 1910.44 2856.99 1910.47 2855.2 1912.09 2853.91 1913.83 2852.97 1915.7L2852.97 1915.72C2847.4 1926.97 2856.06 1941.79 2854.74 1953.11 2852.97 1968.42 2836.45 1990.22 2845.9 2006.12Z" fill="#E9F7F8" fill-rule="evenodd"/><path d="M3088.34 1864.99C3089.18 1863.25 3091.26 1862.51 3093.01 1863.34 3094.75 1864.18 3095.49 1866.26 3094.66 1868.01 3093.83 1869.75 3091.74 1870.49 3089.99 1869.66 3088.25 1868.82 3087.51 1866.74 3088.34 1864.99Z" fill="#060633" fill-rule="evenodd"/><path d="M2858 1910C2857.67 1910.32 2857.33 1910.65 2857 1911 2857.03 1910.97 2857.08 1910.94 2857.14 1910.9 2857.56 1910.61 2857.83 1910.32 2858 1910Z" fill="#C65447" fill-rule="evenodd"/><path d="M2845.9 2006.67C2853.01 2018.69 2866.22 2033.75 2885.17 2034.59 2894.17 2059.95 2913.52 2083.52 2950.26 2098.2 2968.35 2105.43 3052.17 2111.44 3093.95 2061.49 3097.64 2057.08 3100.63 2052.39 3103 2047.48L3103 2047.45C3103 2047.45 3052.77 2078.06 2990.55 2060.39 2953.8 2049.92 2937.48 2032.68 2926.33 2018.57 2918.6 2008.8 2913.38 2000.54 2905.56 1997.14 2891.75 1991.13 2890.07 1973.21 2882.8 1958.15 2880 1952.35 2876.36 1946.99 2870.91 1942.87 2856.41 1931.95 2851.36 1922.3 2852.98 1916 2847.41 1927.28 2856.07 1942.15 2854.76 1953.5 2852.98 1968.85 2836.45 1990.72 2845.9 2006.67Z" fill="#C9FCE9" fill-rule="evenodd"/><path d="M2657 1768 2658.3 1778 2659 1778 2659 1768.22Z" fill="#ED9F4A" fill-rule="evenodd"/><path d="M2658.01 1777.29C2657.75 1777.23 2661.79 1778.45 2665 1777.82 2665 1777.82 2659.14 1777.05 2658.4 1776L2658.01 1777.29Z" fill="#ED9F4A" fill-rule="evenodd"/><path d="M2656.01 1777.98C2655.86 1777.97 2657.96 1777.4 2658.18 1777L2659 1777.5C2659 1777.5 2658.56 1778.12 2656.01 1777.98Z" fill="#ED9F4A" fill-rule="evenodd"/><path d="M2646.58 1768 2645 1777.75 2645.52 1778 2648 1768.91Z" fill="#ED9F4A" fill-rule="evenodd"/><path d="M2645.01 1777.29C2644.78 1777.23 2648.25 1778.45 2651 1777.82 2651 1777.82 2645.97 1777.05 2645.34 1776L2645.01 1777.29Z" fill="#ED9F4A" fill-rule="evenodd"/><path d="M2643 1777.98C2642.91 1777.97 2644.3 1777.4 2644.45 1777L2645 1777.5C2645 1777.5 2644.7 1778.12 2643 1777.98Z" fill="#ED9F4A" fill-rule="evenodd"/><path d="M2654 1756.69C2654 1756.69 2654 1772 2658.49 1772 2660.69 1772 2666.6 1760.55 2664.59 1756.69 2662.58 1752.84 2655.45 1753.38 2654 1756.69Z" fill="#C9FCE9" fill-rule="evenodd"/><path d="M2647.17 1755.36C2647.17 1755.36 2642.59 1769.72 2646.74 1770.97 2648.77 1771.59 2657.66 1762.5 2656.96 1758.33 2656.26 1754.15 2649.51 1752.66 2647.17 1755.36Z" fill="#C9FCE9" fill-rule="evenodd"/><path d="M2671 1714.4C2671 1714.4 2671.85 1709.6 2674.77 1708.49 2677.68 1707.38 2679.32 1708.49 2679.32 1708.49 2679.32 1708.49 2681.38 1707.75 2682.51 1708.42 2683.65 1709.08 2683.65 1710.78 2683.65 1710.78 2683.65 1710.78 2685.85 1711.15 2686 1712.63 2686.14 1714.11 2682.26 1717.8 2677.41 1716.84 2672.56 1715.88 2671 1714.4 2671 1714.4Z" fill="#E55924" fill-rule="evenodd"/><path d="M2632.36 1750.88C2634.21 1756.11 2638.2 1760.98 2645.77 1764.01 2649.49 1765.5 2666.76 1766.74 2675.37 1756.43 2676.13 1755.52 2676.75 1754.55 2677.23 1753.54 2682.32 1743.04 2674.21 1727.77 2675.37 1725.18 2676.64 1722.34 2679.48 1721.86 2678.93 1717.76 2678.38 1713.65 2673.34 1713.02 2673.34 1713.02 2673.34 1713.02 2670.19 1712.55 2666.41 1716.34 2662.63 1720.13 2663.45 1728.88 2661.93 1732.36 2660.9 1734.71 2654.69 1737.35 2648.47 1736.52 2647.51 1736.4 2646.56 1736.19 2645.61 1735.89 2641.77 1734.64 2633.13 1730.18 2632.11 1734.11 2632.03 1734.43 2631.94 1734.77 2631.87 1735.1 2630.81 1739.7 2630.45 1745.49 2632.36 1750.88Z" fill="#E9F7F8" fill-rule="evenodd"/><path d="M2679.46 1717C2679.46 1717 2683.25 1718.15 2684 1720.01 2684 1720.01 2679.49 1721.85 2678.42 1720.51 2677.34 1719.16 2678.58 1717.07 2679.46 1717Z" fill="#ED9F4A" fill-rule="evenodd"/><path d="M2680.33 1720.45C2680.33 1720.45 2681.83 1722.68 2680.33 1724.22 2678.83 1725.76 2675.63 1724.86 2676.04 1722.9 2676.44 1720.93 2678.31 1720 2678.31 1720L2680.33 1720.45Z" fill="#E55924" fill-rule="evenodd"/><path d="M2624.6 1745.21C2626.08 1747.7 2628.82 1750.82 2632.76 1750.99 2634.05 1751.05 2635.46 1750.8 2637 1750.1 2638.44 1749.46 2639.91 1748.61 2641.32 1747.67 2646.01 1744.59 2650 1740.67 2650 1740.67 2650 1740.67 2649.65 1739.05 2649.02 1736.59 2646.99 1728.68 2642.06 1712.1 2636.63 1713.04 2629.51 1714.26 2633.93 1722.09 2628.65 1724.29 2628.01 1724.56 2627.5 1724.86 2627.1 1725.19 2627.04 1725.24 2626.98 1725.28 2626.92 1725.34 2626.91 1725.34 2626.91 1725.34 2626.91 1725.35 2626.54 1725.69 2626.27 1726.05 2626.07 1726.43L2626.07 1726.44C2624.92 1728.77 2626.72 1731.85 2626.44 1734.2 2626.07 1737.38 2622.64 1741.91 2624.6 1745.21Z" fill="#E9F7F8" fill-rule="evenodd"/><path d="M2674.1 1715.57C2674.34 1715.07 2674.93 1714.86 2675.43 1715.1 2675.93 1715.34 2676.14 1715.93 2675.9 1716.43 2675.66 1716.93 2675.07 1717.14 2674.57 1716.9 2674.07 1716.66 2673.86 1716.07 2674.1 1715.57Z" fill="#060633" fill-rule="evenodd"/><path d="M2628 1725C2627.67 1725.33 2627.34 1725.65 2627 1726 2627.03 1725.97 2627.08 1725.93 2627.14 1725.9 2627.56 1725.62 2627.84 1725.33 2628 1725Z" fill="#C65447" fill-rule="evenodd"/><path d="M2624.6 1744.91C2626.08 1747.42 2628.82 1750.56 2632.76 1750.73 2634.63 1756.02 2638.65 1760.94 2646.28 1764 2650.03 1765.51 2667.44 1766.76 2676.12 1756.34 2676.89 1755.42 2677.51 1754.44 2678 1753.42L2678 1753.42C2678 1753.42 2667.57 1759.8 2654.65 1756.11 2647.01 1753.93 2643.62 1750.33 2641.31 1747.39 2639.7 1745.35 2638.62 1743.63 2636.99 1742.92 2634.13 1741.67 2633.78 1737.93 2632.27 1734.79 2631.68 1733.58 2630.93 1732.46 2629.8 1731.6 2626.78 1729.33 2625.73 1727.31 2626.07 1726 2624.91 1728.35 2626.71 1731.45 2626.44 1733.82 2626.07 1737.02 2622.64 1741.58 2624.6 1744.91Z" fill="#C9FCE9" fill-rule="evenodd"/><path d="M2723 1799 2721.7 1809 2721 1809 2721 1799.22Z" fill="#ED9F4A" fill-rule="evenodd"/><path d="M2720.99 1809.29C2721.22 1809.23 2717.76 1810.45 2715 1809.82 2715 1809.82 2720.03 1809.05 2720.66 1808L2720.99 1809.29Z" fill="#ED9F4A" fill-rule="evenodd"/><path d="M2723 1808.98C2723.09 1808.97 2721.7 1808.4 2721.55 1808L2721 1808.5C2721 1808.5 2721.29 1809.12 2723 1808.98Z" fill="#ED9F4A" fill-rule="evenodd"/><path d="M2732.9 1799 2735 1808.75 2734.31 1809 2731 1799.91Z" fill="#ED9F4A" fill-rule="evenodd"/><path d="M2734.99 1809.29C2735.22 1809.23 2731.76 1810.45 2729 1809.82 2729 1809.82 2734.03 1809.05 2734.66 1808L2734.99 1809.29Z" fill="#ED9F4A" fill-rule="evenodd"/><path d="M2736.99 1808.98C2737.14 1808.97 2735.04 1808.4 2734.82 1808L2734 1808.5C2734 1808.5 2734.44 1809.12 2736.99 1808.98Z" fill="#ED9F4A" fill-rule="evenodd"/><path d="M2726 1787.69C2726 1787.69 2726 1803 2721.51 1803 2719.31 1803 2713.4 1791.55 2715.41 1787.69 2717.42 1783.84 2724.55 1784.37 2726 1787.69Z" fill="#C9FCE9" fill-rule="evenodd"/><path d="M2732.83 1786.36C2732.83 1786.36 2737.41 1800.71 2733.26 1801.97 2731.23 1802.59 2722.34 1793.5 2723.04 1789.33 2723.74 1785.15 2730.49 1783.66 2732.83 1786.36Z" fill="#C9FCE9" fill-rule="evenodd"/><path d="M2709 1745.4C2709 1745.4 2708.15 1740.6 2705.23 1739.49 2702.32 1738.38 2700.69 1739.49 2700.69 1739.49 2700.69 1739.49 2698.62 1738.75 2697.49 1739.42 2696.35 1740.08 2696.35 1741.78 2696.35 1741.78 2696.35 1741.78 2694.15 1742.15 2694 1743.63 2693.86 1745.11 2697.74 1748.8 2702.59 1747.84 2707.44 1746.88 2709 1745.4 2709 1745.4Z" fill="#E55924" fill-rule="evenodd"/><path d="M2747.64 1781.88C2745.79 1787.11 2741.8 1791.98 2734.23 1795.01 2730.51 1796.5 2713.24 1797.74 2704.63 1787.43 2703.87 1786.52 2703.25 1785.55 2702.77 1784.54 2697.68 1774.05 2705.79 1758.77 2704.63 1756.18 2703.36 1753.34 2700.52 1752.86 2701.07 1748.76 2701.62 1744.65 2706.66 1744.02 2706.66 1744.02 2706.66 1744.02 2709.81 1743.55 2713.59 1747.34 2717.37 1751.13 2716.55 1759.88 2718.07 1763.36 2719.1 1765.71 2725.31 1768.35 2731.53 1767.52 2732.49 1767.4 2733.45 1767.19 2734.39 1766.89 2738.23 1765.64 2746.87 1761.18 2747.89 1765.11 2747.97 1765.43 2748.06 1765.77 2748.13 1766.1 2749.19 1770.7 2749.55 1776.49 2747.64 1781.88Z" fill="#E9F7F8" fill-rule="evenodd"/><path d="M2700.54 1748C2700.54 1748 2696.75 1749.15 2696 1751.01 2696 1751.01 2700.51 1752.85 2701.58 1751.51 2702.66 1750.16 2701.42 1748.07 2700.54 1748Z" fill="#ED9F4A" fill-rule="evenodd"/><path d="M2699.67 1751.54C2699.67 1751.54 2698.17 1754.22 2699.67 1756.07 2701.17 1757.91 2704.37 1756.83 2703.96 1754.48 2703.56 1752.12 2701.69 1751 2701.69 1751L2699.67 1751.54Z" fill="#E55924" fill-rule="evenodd"/><path d="M2755.4 1776.21C2753.92 1778.7 2751.18 1781.82 2747.24 1781.99 2745.95 1782.05 2744.54 1781.8 2743 1781.1 2741.56 1780.46 2740.09 1779.61 2738.68 1778.67 2733.99 1775.59 2730 1771.67 2730 1771.67 2730 1771.67 2730.35 1770.05 2730.98 1767.59 2733.01 1759.68 2737.94 1743.11 2743.37 1744.04 2750.49 1745.26 2746.07 1753.09 2751.35 1755.29 2751.99 1755.56 2752.5 1755.86 2752.9 1756.19 2752.96 1756.23 2753.02 1756.28 2753.08 1756.34 2753.08 1756.34 2753.09 1756.34 2753.09 1756.35 2753.46 1756.69 2753.73 1757.05 2753.93 1757.43L2753.93 1757.44C2755.08 1759.77 2753.28 1762.85 2753.56 1765.2 2753.93 1768.38 2757.36 1772.91 2755.4 1776.21Z" fill="#E9F7F8" fill-rule="evenodd"/><path d="M2704.95 1747.28C2704.83 1747.03 2704.53 1746.93 2704.28 1747.05 2704.04 1747.17 2703.93 1747.47 2704.05 1747.72 2704.17 1747.96 2704.47 1748.07 2704.72 1747.95 2704.96 1747.83 2705.07 1747.53 2704.95 1747.28Z" fill="#060633" fill-rule="evenodd"/><path d="M2753 1756C2753.33 1756.33 2753.67 1756.65 2754 1757 2753.97 1756.97 2753.92 1756.94 2753.86 1756.9 2753.45 1756.62 2753.17 1756.33 2753 1756Z" fill="#C65447" fill-rule="evenodd"/><path d="M2755.4 1776.42C2753.92 1778.87 2751.18 1781.93 2747.24 1782.1 2745.37 1787.25 2741.35 1792.04 2733.72 1795.02 2729.97 1796.49 2712.56 1797.72 2703.88 1787.56 2703.11 1786.67 2702.49 1785.71 2702 1784.72L2702 1784.71C2702 1784.71 2712.43 1790.93 2725.35 1787.34 2732.99 1785.21 2736.38 1781.71 2738.69 1778.84 2740.3 1776.86 2741.38 1775.18 2743.01 1774.49 2745.88 1773.27 2746.22 1769.63 2747.74 1766.57 2748.32 1765.39 2749.07 1764.3 2750.21 1763.46 2753.22 1761.24 2754.27 1759.28 2753.93 1758 2755.09 1760.29 2753.29 1763.31 2753.56 1765.62 2753.93 1768.74 2757.36 1773.18 2755.4 1776.42Z" fill="#C9FCE9" fill-rule="evenodd"/><path d="M4005.14 1729.91C4001.44 1753.46 4002.15 1779.06 4018.19 1798.23 4054.24 1841.29 4126.57 1836.09 4142.17 1829.86 4208.88 1803.23 4209.2 1742.76 4199.35 1705.08 4195.08 1688.71 4158.91 1707.29 4142.8 1712.51 4113.31 1722.06 4079.46 1709.1 4074.5 1697.79 4072.31 1692.8 4071.27 1685.23 4070.23 1676.81L4070.22 1676.74C4068.84 1665.7 4067.43 1653.21 4063.36 1643.09L4063.36 1643.08C4061.47 1638.38 4059.01 1634.2 4055.72 1630.91 4039.9 1615.1 4026.72 1617.08 4026.72 1617.08 4026.72 1617.08 4005.61 1619.71 4003.3 1636.84 4000.98 1653.98 4012.87 1655.95 4018.19 1667.82 4021.15 1674.4 4009.73 1700.57 4005.14 1729.91Z" fill="#002722" fill-rule="evenodd"/><path d="M4037 1621.33C4037 1621.33 4033.42 1601.58 4021.18 1597.03 4008.94 1592.47 4002.07 1597.03 4002.07 1597.03 4002.07 1597.03 3993.42 1593.99 3988.64 1596.72 3983.87 1599.46 3983.87 1606.44 3983.87 1606.44 3983.87 1606.44 3974.61 1607.96 3974.02 1614.04 3973.42 1620.11 3989.71 1635.3 4010.07 1631.35 4030.43 1627.41 4037 1621.33 4037 1621.33Z" fill="#E55924" fill-rule="evenodd"/><path d="M4005.15 1729.29C4009.24 1730.21 4014.48 1729.9 4020.16 1727.52 4030.61 1723.17 4032.34 1735.23 4045.51 1733.9 4058.68 1732.55 4053.95 1722.16 4067.12 1718.64 4080.29 1715.12 4074.91 1697.2 4074.91 1697.2 4074.91 1697.2 4072.78 1678.97 4071.6 1672.97 4070.07 1665.27 4067.5 1650.39 4064.67 1642.72 4061.74 1634.78 4058.91 1631.18 4055.59 1627.89 4039.69 1612.1 4026.85 1616.59 4026.85 1616.59 4026.85 1616.59 4005.63 1619.22 4003.3 1636.33 4000.97 1653.44 4012.92 1655.42 4018.28 1667.27 4021.25 1673.85 4009.77 1699.98 4005.15 1729.29Z" fill="#E9F7F8" fill-rule="evenodd"/><path d="M4003.92 1633C4003.92 1633 3988.14 1637.6 3985 1645.03 3985 1645.03 4003.79 1652.42 4008.26 1647.04 4012.73 1641.66 4007.59 1633.28 4003.92 1633Z" fill="#ED9F4A" fill-rule="evenodd"/><path d="M4000.54 1648.89C4000.54 1648.89 3994.83 1658.27 4000.54 1664.73 4006.24 1671.19 4018.42 1667.41 4016.87 1659.17 4015.32 1650.92 4008.22 1647 4008.22 1647L4000.54 1648.89Z" fill="#E55924" fill-rule="evenodd"/><path d="M4127 1732.04C4127 1732.04 4155.02 1759.57 4181 1771.27 4206.97 1782.97 4224.35 1764.66 4232.5 1750.93 4233.64 1749.02 4234.34 1747 4234.7 1744.92 4234.72 1744.73 4234.75 1744.54 4234.79 1744.33 4235.27 1740.92 4234.88 1737.34 4234.02 1733.71 4231.67 1723.74 4225.81 1713.35 4224.85 1705.15 4223.33 1691.93 4237.59 1673.11 4215.68 1663.95 4193.76 1654.8 4212.11 1622.25 4182.55 1617.16 4175.41 1615.93 4168.47 1622.01 4162.05 1631.92 4141.94 1663.06 4127 1732.04 4127 1732.04Z" fill="#002722" fill-rule="evenodd"/><path d="M4096 1846 4090.81 1886 4088 1886 4088 1846.88Z" fill="#ED9F4A" fill-rule="evenodd"/><path d="M4089.96 1886.78C4090.9 1886.52 4076.48 1892.01 4065 1889.19 4065 1889.19 4085.94 1885.71 4088.58 1881L4089.96 1886.78Z" fill="#ED9F4A" fill-rule="evenodd"/><path d="M4098.97 1888.85C4099.51 1888.8 4091.83 1884.81 4091 1882L4088 1885.5C4088 1885.5 4089.62 1889.84 4098.97 1888.85Z" fill="#ED9F4A" fill-rule="evenodd"/><path d="M4140.06 1846 4149 1885.01 4146.06 1886 4132 1849.64Z" fill="#ED9F4A" fill-rule="evenodd"/><path d="M4146.95 1886.78C4147.94 1886.52 4132.94 1892.01 4121 1889.19 4121 1889.19 4142.78 1885.71 4145.52 1881L4146.95 1886.78Z" fill="#ED9F4A" fill-rule="evenodd"/><path d="M4155.97 1888.85C4156.51 1888.8 4148.83 1884.81 4148 1882L4145 1885.5C4145 1885.5 4146.62 1889.84 4155.97 1888.85Z" fill="#ED9F4A" fill-rule="evenodd"/><path d="M4108 1797.22C4108 1797.22 4108 1861 4090.06 1861 4081.23 1861 4057.61 1813.28 4065.64 1797.22 4073.66 1781.17 4102.2 1783.4 4108 1797.22Z" fill="#002722" fill-rule="evenodd"/><path d="M4136.94 1791.77C4136.94 1791.77 4156.04 1852.56 4138.77 1857.87 4130.27 1860.49 4093.24 1822.01 4096.16 1804.33 4099.08 1786.65 4127.22 1780.31 4136.94 1791.77Z" fill="#002722" fill-rule="evenodd"/><path d="M4026.66 1631.71C4025.82 1630.21 4023.74 1629.58 4021.99 1630.29 4020.25 1631.01 4019.51 1632.8 4020.34 1634.29 4021.18 1635.79 4023.26 1636.42 4025.01 1635.71 4026.75 1634.99 4027.49 1633.2 4026.66 1631.71Z" fill="#233862" fill-rule="evenodd"/><path d="M4064 1777.09C4064 1777.09 4097.97 1799.85 4133.96 1795.43 4169.95 1791.02 4155.65 1782.51 4155.65 1782.51 4155.65 1782.51 4167.95 1780.15 4167.29 1769.96 4167.29 1769.96 4175.51 1761.47 4170.23 1752.98 4164.96 1744.49 4165.88 1765.39 4151.3 1776.33 4138.13 1786.21 4113.08 1793.14 4064 1777.09Z" fill="#EA5C25" fill-rule="evenodd"/><path d="M4162 1631.96 4162.01 1631.97C4162.01 1631.97 4187.98 1618.93 4187.92 1649.27 4187.87 1679.6 4199.46 1670.02 4201.98 1688.68 4204.09 1704.3 4228.49 1716.75 4234 1734 4231.64 1724.01 4225.78 1713.6 4224.82 1705.37 4223.3 1692.12 4237.57 1673.25 4215.65 1664.07 4193.72 1654.89 4212.08 1622.26 4182.51 1617.16 4175.36 1615.93 4168.42 1622.02 4162 1631.96Z" fill="#E9F7F8" fill-rule="evenodd"/><path d="M2258.64 1907.99C2258.64 1907.99 2249.44 1916.41 2251.23 1922.4 2253.03 1928.39 2261.34 1932.38 2262.46 1939.69 2263.58 1947.01 2268.08 1951 2272.12 1951 2276.16 1951 2291.39 1951 2291.39 1951 2291.39 1951 2294.37 1945.85 2287.18 1944.3 2279.99 1942.75 2277.28 1934.15 2277.73 1926.17 2278.18 1918.19 2277.06 1907.55 2277.06 1907.55L2261.79 1904 2258.64 1907.99Z" fill="#0A2B22" fill-rule="evenodd"/><path d="M2370.63 1930.53C2370.63 1930.53 2368.37 1948.52 2372.43 1950.54 2376.49 1952.57 2425 1951.89 2425 1951.89 2425 1951.89 2425 1945.82 2416.65 1944.47 2408.3 1943.12 2393.64 1938.17 2391.16 1927.15 2388.68 1916.13 2370.63 1930.53 2370.63 1930.53Z" fill="#0A2B22" fill-rule="evenodd"/><path d="M2414 1656.7C2414 1656.7 2411.28 1690.66 2408.08 1731.48 2403.74 1786.93 2398.51 1855.04 2398 1867.95 2397.1 1890.35 2393.52 1926.19 2393.52 1926.19 2393.52 1926.19 2385.01 1934.71 2367.99 1931.12 2367.99 1931.12 2352.83 1879.96 2348.5 1825.82 2348.43 1824.94 2348.36 1824.04 2348.3 1823.15 2344.27 1768.04 2338 1652 2338 1652L2414 1656.7Z" fill="#B7DB6F" fill-rule="evenodd"/><path d="M2414 1656.71C2414 1656.71 2411.28 1690.7 2408.08 1731.56L2348.5 1826C2348.43 1825.11 2348.36 1824.22 2348.3 1823.32 2344.27 1768.16 2338 1652 2338 1652L2414 1656.71Z" fill="#97C056" fill-rule="evenodd"/><path d="M2402 1661.19C2402 1661.19 2352.88 1784.22 2320.58 1842.04 2288.28 1899.86 2278.19 1916 2278.19 1916 2278.19 1916 2259.68 1908.6 2258 1903.56 2258 1903.56 2270.35 1791.94 2291.98 1764.73 2304.2 1749.35 2318.56 1703.21 2319.23 1687.07 2319.91 1670.94 2323.61 1639 2323.61 1639L2402 1661.19Z" fill="#B7DB6F" fill-rule="evenodd"/><path d="M2498.07 1644C2498.07 1644 2515.24 1652.41 2517.55 1654.57 2519.86 1656.72 2525.56 1667.32 2525.12 1668.12 2524.68 1668.92 2523.83 1669.16 2522.27 1668.06 2520.72 1666.97 2516.35 1662.38 2516.19 1663.23 2516.03 1664.08 2527.84 1678.27 2525.75 1681.27 2523.66 1684.27 2511.82 1683.38 2505.06 1678.48 2498.3 1673.57 2491.55 1655.53 2490.53 1654.54 2481.91 1646.19 2498.07 1644 2498.07 1644Z" fill="#F6C99F" fill-rule="evenodd"/><path d="M2499.08 1653.04C2503.88 1648.86 2504 1647.8 2504 1647.8 2504 1647.8 2473.4 1594.62 2470.75 1589.5 2468.09 1584.39 2451.7 1504.52 2451.7 1504.52L2395 1488C2395 1488 2434.94 1591.78 2441.91 1604.61 2453.43 1625.81 2491.06 1657 2491.06 1657 2491.06 1657 2495.32 1656.34 2499.08 1653.04Z" fill="#E65924" fill-rule="evenodd"/><path d="M2424 1467.4C2424 1467.4 2443.84 1502.43 2463.23 1507 2463.23 1507 2462.42 1495.24 2457.7 1487.19 2459.63 1484.9 2461.33 1482.8 2462.8 1480.92 2467.68 1474.64 2470 1470.8 2470 1470.8L2463.42 1453.05 2458.95 1441C2456.81 1444.91 2454.44 1448.24 2451.98 1451.09 2439.27 1465.75 2424 1467.4 2424 1467.4Z" fill="#F6C99F" fill-rule="evenodd"/><path d="M2452.16 1451C2452.16 1451 2449.82 1468.66 2462.87 1481 2467.7 1474.69 2470 1470.83 2470 1470.83L2463.49 1452.97C2456.5 1450.8 2452.16 1451 2452.16 1451Z" fill="#D4AB85" fill-rule="evenodd"/><path d="M2475.63 1473.84C2475.63 1473.84 2445.66 1462.15 2453.22 1443.59 2460.79 1425.02 2462.01 1411.01 2481.47 1417.69 2500.93 1424.37 2501.74 1432.96 2500.72 1439.77 2499.7 1446.59 2483.63 1476.41 2475.63 1473.84Z" fill="#F6C99F" fill-rule="evenodd"/><path d="M2320.43 1648.24C2332.51 1665.55 2422.84 1688.67 2421.77 1676.69 2421.36 1672.11 2420.81 1664.03 2421.78 1653.07 2422.01 1650.5 2422.33 1647.77 2422.74 1644.91 2425.04 1629.15 2430.48 1608.92 2442.65 1585.49 2443.56 1583.73 2444.5 1581.96 2445.49 1580.17 2450.5 1571.1 2454.76 1561.51 2458.01 1552.13 2464.27 1534.11 2466.8 1516.86 2463.63 1505.59 2463.62 1505.53 2463.61 1505.49 2463.59 1505.44 2444.71 1496.74 2437.39 1463 2437.39 1463 2437.39 1463 2372.97 1474.52 2336.89 1560.08 2336.89 1560.08 2333.42 1569.47 2329.46 1582.22 2324.65 1597.69 2319.11 1618.07 2318.15 1632.62 2317.68 1639.53 2318.26 1645.12 2320.43 1648.24Z" fill="#FD9C29" fill-rule="evenodd"/><path d="M2449.07 1408.93C2448.86 1408.52 2448.25 1408.08 2446.77 1407.63 2446.77 1407.63 2448.16 1407.17 2449.78 1407.52 2450.61 1405.49 2452.65 1402.03 2456.46 1402 2456.46 1402 2454.28 1402.57 2453.47 1404.75 2458.7 1401.45 2468.4 1400.49 2492.6 1408.51 2524.5 1419.08 2508.57 1437.5 2503.73 1438.98 2498.9 1440.45 2489.99 1430.98 2481.99 1429.68 2473.98 1428.39 2469.65 1439.48 2466.6 1440.4 2463.55 1441.32 2465.28 1438.8 2462.09 1436.27 2458.89 1433.74 2457.05 1439.69 2457.12 1443.86 2457.19 1448.04 2450.96 1452 2450.96 1452 2450.96 1452 2450.96 1452 2447.31 1445.33 2443.65 1438.66 2444.65 1414.45 2448.14 1410.1 2448.45 1409.71 2448.75 1409.32 2449.07 1408.93Z" fill="#070706" fill-rule="evenodd"/><path d="M2445 1412.83C2445 1412.83 2448.69 1383.43 2470.1 1385.07 2491.52 1386.7 2500.61 1397.68 2502 1414L2445 1412.83Z" fill="#EB6D25" fill-rule="evenodd"/><path d="M2423 1424.03C2422.8 1430.51 2431.79 1436.52 2445.58 1440.31 2445.37 1438.97 2445.2 1437.49 2445.09 1435.94 2444.94 1433.36 2445.2 1421.99 2445.2 1421.99 2450.93 1418.55 2461.72 1416.44 2474.02 1416.84 2485.47 1417.22 2495.49 1419.67 2501.25 1423.07 2504.6 1425.06 2506.53 1427.36 2506.45 1429.77 2506.39 1431.85 2502.93 1437.57 2500.28 1439.18 2500.06 1440.41 2499.82 1441.33 2499.26 1443 2515.86 1440.43 2525.78 1434.57 2526 1427.36 2526.21 1420.54 2516.24 1414.25 2501.2 1410.51 2499.96 1410.19 2498.66 1409.9 2497.33 1409.62 2496.37 1409.42 2495.38 1409.23 2494.37 1409.05 2488.43 1407.99 2481.93 1407.3 2475.09 1407.08 2465.54 1406.76 2456.58 1407.42 2448.86 1408.8 2448.56 1408.85 2448.25 1408.91 2447.94 1408.97 2447.12 1409.12 2446.31 1409.3 2445.53 1409.46 2432.1 1412.41 2423.21 1417.72 2423 1424.03Z" fill="#FD9C28" fill-rule="evenodd"/><path d="M2319 1633C2396.65 1609.58 2409 1517 2409 1517 2409 1517 2364.79 1550.79 2330.3 1582.48 2325.49 1597.98 2319.96 1618.42 2319 1633Z" fill="#E65924" fill-rule="evenodd"/><path d="M2242.93 1773.12 2305.34 1779.92C2313.26 1780.78 2320.43 1774.91 2321.28 1766.88L2329 1693.98 2317.89 1692.77C2318.67 1674.36 2305.19 1658.2 2286.87 1656.2 2268.56 1654.21 2252 1667.1 2248.92 1685.26L2237.8 1684.05 2230.08 1756.96C2229.23 1764.98 2235.02 1772.26 2242.93 1773.12ZM2315.13 1692.46 2251.67 1685.56C2254.58 1668.93 2269.78 1657.16 2286.58 1658.99 2303.38 1660.82 2315.76 1675.59 2315.13 1692.46Z" fill="#44391D" fill-rule="evenodd"/><path d="M2297.58 1635.53C2297.58 1635.53 2299.36 1650.28 2298.93 1652.68 2298.5 1655.09 2295.66 1662.25 2294.95 1662.29 2294.24 1662.33 2292.09 1662.41 2292.15 1660.94 2292.21 1659.46 2293.18 1658.09 2292.56 1658.33 2291.93 1658.57 2291.75 1664.14 2288.9 1664 2286.05 1663.85 2277.67 1660.73 2278.01 1654.27 2278.35 1647.8 2287.28 1635.96 2287.5 1634.89 2289.3 1625.78 2297.58 1635.53 2297.58 1635.53Z" fill="#F6C99F" fill-rule="evenodd"/><path d="M2292.63 1637.76C2298.79 1640.58 2301.08 1637.71 2301.08 1637.71 2301.08 1637.71 2337 1577.9 2340.78 1573.09 2344.57 1568.28 2410.88 1539.91 2410.88 1539.91 2410.88 1539.91 2437.86 1529.62 2438.93 1513.3 2439.85 1499.12 2431.78 1490.4 2422.93 1485.15 2412.4 1478.88 2399.06 1479.8 2389.37 1487.31 2367.62 1504.15 2324.5 1538.03 2317.56 1547.22 2302.12 1567.67 2285 1631.76 2285 1631.76 2285 1631.76 2287.78 1635.55 2292.63 1637.76Z" fill="#FD9C29" fill-rule="evenodd"/><path d="M2556 1725.5C2556 1724.12 2554.88 1723 2553.5 1723 2552.12 1723 2551 1724.12 2551 1725.5 2551 1726.88 2552.12 1728 2553.5 1728 2554.88 1728 2556 1726.88 2556 1725.5Z" fill="#404040" fill-rule="evenodd"/><path d="M2504 1680.5C2504 1679.12 2502.88 1678 2501.5 1678 2500.12 1678 2499 1679.12 2499 1680.5 2499 1681.88 2500.12 1683 2501.5 1683 2502.88 1683 2504 1681.88 2504 1680.5Z" fill="#404040" fill-rule="evenodd"/><path d="M2510 1742.5C2510 1741.12 2508.88 1740 2507.5 1740 2506.12 1740 2505 1741.12 2505 1742.5 2505 1743.88 2506.12 1745 2507.5 1745 2508.88 1745 2510 1743.88 2510 1742.5Z" fill="#404040" fill-rule="evenodd"/><path d="M2568 1839.5C2568 1838.12 2566.88 1837 2565.5 1837 2564.12 1837 2563 1838.12 2563 1839.5 2563 1840.88 2564.12 1842 2565.5 1842 2566.88 1842 2568 1840.88 2568 1839.5Z" fill="#404040" fill-rule="evenodd"/><path d="M2521 1792.5C2521 1791.12 2519.88 1790 2518.5 1790 2517.12 1790 2516 1791.12 2516 1792.5 2516 1793.88 2517.12 1795 2518.5 1795 2519.88 1795 2521 1793.88 2521 1792.5Z" fill="#404040" fill-rule="evenodd"/><path d="M2504 1692.5C2504 1691.12 2502.88 1690 2501.5 1690 2500.12 1690 2499 1691.12 2499 1692.5 2499 1693.88 2500.12 1695 2501.5 1695 2502.88 1695 2504 1693.88 2504 1692.5Z" fill="#404040" fill-rule="evenodd"/><path d="M2648 1905.2C2648 1905.2 2661.7 1937 2659.57 1943.9 2657.44 1950.8 2641 1952 2641 1952L2669 1952C2669 1952 2668.7 1944.8 2666.56 1939.4 2664.43 1934 2661.69 1901 2661.69 1901L2648 1905.2Z" fill="#ED9F4A" fill-rule="evenodd"/><path d="M2632.66 1909C2632.66 1909 2620.92 1944.91 2614.94 1947.42 2608.96 1949.94 2599 1952 2599 1952L2622.69 1952C2622.69 1952 2619.38 1946.92 2621.55 1944.48 2623.71 1942.04 2643 1911.85 2643 1911.85L2632.66 1909Z" fill="#ED9F4A" fill-rule="evenodd"/><path d="M2545.05 1797.78C2544.34 1800.83 2552.13 1801.44 2558.3 1802.25 2560.33 1802.55 2562.15 1802.86 2563.57 1803.26 2566.6 1804.08 2571.06 1804.48 2574.9 1803.77 2580.06 1816.47 2577.83 1849.29 2581.68 1878.45 2584.21 1897.14 2600.3 1907.1 2619.84 1911.37L2619.74 1911.47C2619.74 1911.47 2619.94 1911.47 2620.34 1911.57 2621.35 1911.77 2622.27 1911.98 2623.28 1912.08 2625 1912.59 2626.62 1913.2 2626.52 1914.11 2626.21 1915.94 2627.33 1923.87 2627.33 1923.87L2633.9 1926C2633.9 1926 2643.52 1914.11 2645.74 1914.11 2645.85 1914.11 2645.85 1914.11 2645.85 1914.01L2647.67 1914.01 2647.37 1914.11C2647.37 1914.11 2652.43 1920.92 2654.25 1921.12 2656.17 1921.33 2663.15 1919.7 2663.15 1919.7 2663.15 1919.7 2668.01 1913.5 2668.52 1912.28 2669.12 1912.18 2669.63 1912.08 2670.24 1911.98 2689.26 1908.63 2699.28 1892.07 2704.24 1878.65L2704.34 1878.65C2707.99 1868.7 2709 1860.57 2709 1860.57 2698.78 1865.96 2685.42 1860.57 2685.42 1860.57 2634.21 1840.05 2597.57 1866.77 2595.14 1838.72 2593.22 1815.56 2585.93 1798.39 2583.4 1793.1 2583.4 1786.7 2578.55 1783.15 2578.55 1783.15 2578.55 1783.15 2572.47 1779.69 2567.11 1784.77 2566.1 1785.69 2564.78 1786.6 2563.16 1787.52 2556.38 1791.28 2545.75 1794.43 2545.05 1797.78Z" fill="#E9F7F8" fill-rule="evenodd"/><path d="M2560.54 1793.29C2558.16 1794.33 2558.02 1799.05 2558.17 1802 2552.01 1801.2 2544.38 1800.58 2545.04 1797.69 2545.75 1794.59 2556.22 1791.59 2562.94 1788 2563.11 1789.43 2563.08 1792.18 2560.54 1793.29Z" fill="#ED9F4A" fill-rule="evenodd"/><path d="M2575 1804.12C2580.19 1816.78 2577.95 1849.5 2581.82 1878.58 2584.36 1897.22 2600.53 1907.15 2620.16 1911.41L2620.06 1911.51C2620.06 1911.51 2620.27 1911.51 2620.67 1911.61 2621.69 1911.81 2622.61 1912.02 2623.62 1912.12 2625.35 1912.63 2626.98 1913.23 2626.88 1914.14 2626.57 1915.97 2627.69 1923.87 2627.69 1923.87L2634.3 1926C2634.3 1926 2643.97 1914.15 2646.2 1914.15 2646.31 1914.15 2646.31 1914.15 2646.31 1914.05L2648.14 1914.05 2647.83 1914.15C2647.83 1914.15 2652.92 1920.94 2654.75 1921.14 2656.68 1921.34 2663.7 1919.72 2663.7 1919.72 2663.7 1919.72 2668.58 1913.54 2669.09 1912.32 2669.7 1912.22 2670.21 1912.12 2670.82 1912.02 2689.95 1908.68 2700.02 1892.16 2705 1878.79 2705 1878.79 2689.74 1895.5 2661.16 1891.25 2632.58 1887.09 2602.87 1884.97 2595.85 1880.1 2588.84 1875.24 2582.12 1800.67 2575 1804.12Z" fill="#C9FCE9" fill-rule="evenodd"/><path d="M2493.5 1920.8C2493.5 1920.8 2484.7 1942 2486.07 1946.6 2487.44 1951.2 2498 1952 2498 1952L2480 1952C2480 1952 2480.2 1947.2 2481.57 1943.6 2482.94 1940 2484.7 1918 2484.7 1918L2493.5 1920.8Z" fill="#ED9F4A" fill-rule="evenodd"/><path d="M2503.82 1924C2503.82 1924 2511.55 1947.38 2515.49 1949.02 2519.43 1950.66 2526 1952 2526 1952L2510.39 1952C2510.39 1952 2512.57 1948.69 2511.14 1947.1 2509.71 1945.51 2497 1925.85 2497 1925.85L2503.82 1924Z" fill="#ED9F4A" fill-rule="evenodd"/><path d="M2561.97 1849.52C2562.44 1851.55 2557.26 1851.96 2553.16 1852.5 2551.81 1852.7 2550.6 1852.91 2549.66 1853.18 2547.64 1853.72 2544.68 1853.99 2542.13 1853.52 2538.7 1861.98 2540.18 1883.86 2537.62 1903.3 2535.94 1915.76 2525.24 1922.4 2512.26 1925.25L2512.33 1925.31C2512.33 1925.31 2512.2 1925.31 2511.93 1925.38 2511.25 1925.52 2510.65 1925.65 2509.98 1925.72 2508.83 1926.06 2507.75 1926.47 2507.82 1927.07 2508.02 1928.29 2507.28 1933.58 2507.28 1933.58L2502.91 1935C2502.91 1935 2496.52 1927.07 2495.04 1927.07 2494.97 1927.07 2494.97 1927.07 2494.97 1927.01L2493.76 1927.01 2493.96 1927.07C2493.96 1927.07 2490.6 1931.61 2489.39 1931.75 2488.11 1931.89 2483.47 1930.8 2483.47 1930.8 2483.47 1930.8 2480.24 1926.67 2479.91 1925.86 2479.5 1925.79 2479.17 1925.72 2478.76 1925.65 2466.12 1923.42 2459.46 1912.38 2456.16 1903.44L2456.09 1903.44C2453.67 1896.8 2453 1891.38 2453 1891.38 2459.79 1894.97 2468.67 1891.38 2468.67 1891.38 2502.71 1877.7 2527.06 1895.51 2528.67 1876.82 2529.95 1861.37 2534.79 1849.93 2536.47 1846.4 2536.47 1842.14 2539.7 1839.77 2539.7 1839.77 2539.7 1839.77 2543.74 1837.46 2547.3 1840.85 2547.98 1841.46 2548.85 1842.07 2549.93 1842.68 2554.44 1845.18 2561.5 1847.28 2561.97 1849.52Z" fill="#E9F7F8" fill-rule="evenodd"/><path d="M2551.64 1846.4C2553.22 1847.07 2553.32 1850.1 2553.22 1852 2557.32 1851.48 2562.42 1851.09 2561.97 1849.23 2561.5 1847.24 2554.52 1845.31 2550.04 1843 2549.92 1843.92 2549.95 1845.69 2551.64 1846.4Z" fill="#ED9F4A" fill-rule="evenodd"/><path d="M2542 1853.08C2538.57 1861.59 2540.05 1883.59 2537.49 1903.13 2535.81 1915.66 2525.11 1922.33 2512.12 1925.19L2512.19 1925.26C2512.19 1925.26 2512.06 1925.26 2511.79 1925.33 2511.11 1925.47 2510.51 1925.6 2509.84 1925.67 2508.69 1926.01 2507.61 1926.42 2507.68 1927.03 2507.88 1928.26 2507.14 1933.57 2507.14 1933.57L2502.77 1935C2502.77 1935 2496.38 1927.03 2494.9 1927.03 2494.83 1927.03 2494.83 1927.03 2494.83 1926.97L2493.62 1926.97 2493.82 1927.03C2493.82 1927.03 2490.45 1931.6 2489.24 1931.73 2487.96 1931.87 2483.32 1930.78 2483.32 1930.78 2483.32 1930.78 2480.09 1926.62 2479.75 1925.81 2479.35 1925.74 2479.01 1925.67 2478.61 1925.6 2465.96 1923.36 2459.3 1912.26 2456 1903.27 2456 1903.27 2466.09 1914.5 2485 1911.64 2503.91 1908.85 2523.56 1907.42 2528.2 1904.15 2532.85 1900.88 2537.29 1850.76 2542 1853.08Z" fill="#C9FCE9" fill-rule="evenodd"/><path d="M2284 2198 2290.49 2244 2294 2244 2294 2199.02Z" fill="#ED9F4A" fill-rule="evenodd"/><path d="M2291.05 2244.42C2289.95 2244.14 2306.68 2250.24 2320 2247.1 2320 2247.1 2295.71 2243.23 2292.65 2238L2291.05 2244.42Z" fill="#ED9F4A" fill-rule="evenodd"/><path d="M2281.03 2246.83C2280.44 2246.77 2288.83 2242.22 2289.73 2239L2293 2243C2293 2243 2291.23 2247.96 2281.03 2246.83Z" fill="#ED9F4A" fill-rule="evenodd"/><path d="M2234.47 2198 2225 2242.86 2228.11 2244 2243 2202.18Z" fill="#ED9F4A" fill-rule="evenodd"/><path d="M2227.05 2244.42C2225.95 2244.14 2242.68 2250.24 2256 2247.1 2256 2247.1 2231.71 2243.23 2228.65 2238L2227.05 2244.42Z" fill="#ED9F4A" fill-rule="evenodd"/><path d="M2217.03 2246.83C2216.44 2246.77 2224.82 2242.22 2225.73 2239L2229 2243C2229 2243 2227.23 2247.96 2217.03 2246.83Z" fill="#ED9F4A" fill-rule="evenodd"/><path d="M2272 2142.72C2272 2142.72 2272 2215 2291.98 2215 2301.81 2215 2328.11 2160.92 2319.18 2142.72 2310.24 2124.52 2278.46 2127.05 2272 2142.72Z" fill="#C9FCE9" fill-rule="evenodd"/><path d="M2238.14 2136.57C2238.14 2136.57 2216.75 2205.8 2236.1 2211.86 2245.61 2214.83 2287.09 2171.02 2283.82 2150.88 2280.55 2130.74 2249.03 2123.52 2238.14 2136.57Z" fill="#C9FCE9" fill-rule="evenodd"/><path d="M2372.05 2143.93C2366.74 2151.11 2360.51 2157.11 2353.66 2162.12 2347.39 2166.72 2340.59 2170.47 2333.54 2173.49 2293.58 2190.66 2245.03 2184.92 2232.18 2179.76 2203.89 2168.42 2194.33 2145.68 2194.01 2119.45 2193.9 2111.22 2194.71 2102.63 2196.14 2093.95 2202.26 2056.71 2219.72 2017.62 2225.35 1996 2225.35 1996 2296.82 2040.42 2312.61 2051.18 2327.04 2061 2342.49 2070.61 2355.04 2080.71 2355.04 2080.71 2355.04 2080.71 2355.06 2080.73 2364.75 2088.51 2372.72 2096.6 2377.17 2105.31 2383.06 2116.86 2382.75 2129.47 2372.05 2143.93Z" fill="#E9F7F8" fill-rule="evenodd"/><path d="M2258 2052.06C2258 2052.06 2235.47 2090.49 2210.55 2110.93 2209.9 2111.47 2209.25 2111.99 2208.6 2112.47 2203.65 2116.18 2198.73 2118.51 2193.94 2119.79 2175.28 2124.74 2158.44 2113.51 2148.45 2103.66 2135.54 2090.97 2145.61 2066.13 2143.42 2051.16 2141.22 2036.18 2120.17 2019.69 2141.4 2003.23 2162.64 1986.75 2133.12 1956.37 2163.88 1942.14 2180 1934.68 2205.09 1965.26 2225.32 1996.03 2243.66 2023.97 2258 2052.06 2258 2052.06Z" fill="#E9F7F8" fill-rule="evenodd"/><path d="M2427.44 2205.5C2423.68 2206.73 2419.4 2207.27 2414.8 2206.87 2393.55 2205.05 2343.11 2178.63 2333.57 2173.56 2332.55 2173.01 2332 2172.71 2332 2172.71L2337.36 2151.44 2355.09 2081C2355.09 2081 2355.09 2081 2355.1 2081.01 2355.48 2081.44 2364.83 2091.83 2377.23 2105.53 2398.22 2128.77 2428.01 2161.51 2437.66 2171.19 2450.09 2183.66 2442.96 2200.46 2427.44 2205.5Z" fill="#E9F7F8" fill-rule="evenodd"/><path d="M2419 2149.48C2419 2149.48 2434.15 2133.28 2448.51 2136.4 2462.88 2139.52 2466.7 2147.88 2466.7 2147.88 2466.7 2147.88 2476.75 2150.26 2479.67 2155.68 2482.59 2161.09 2478.44 2167.58 2478.44 2167.58 2478.44 2167.58 2486.35 2174.56 2483.3 2180.57 2480.26 2186.57 2455.71 2190.89 2438.68 2174.98 2421.64 2159.07 2419 2149.48 2419 2149.48Z" fill="#E55924" fill-rule="evenodd"/><path d="M2439.89 2196.06C2439.89 2196.06 2448.7 2212.5 2445.16 2221 2445.16 2221 2424.21 2211.77 2425.02 2203.84 2425.84 2195.9 2436.74 2193.32 2439.89 2196.06Z" fill="#ED9F4A" fill-rule="evenodd"/><path d="M2433 2211.39C2433 2211.39 2429.98 2223.47 2420.14 2223.99 2410.3 2224.5 2403.56 2211.61 2411.5 2206.32 2419.44 2201.02 2428.34 2203.65 2428.34 2203.65L2433 2211.39Z" fill="#E55924" fill-rule="evenodd"/><path d="M2421.34 2174.99C2422.18 2173.25 2424.26 2172.51 2426.01 2173.34 2427.75 2174.18 2428.49 2176.26 2427.66 2178.01 2426.82 2179.75 2424.74 2180.49 2422.99 2179.66 2421.25 2178.83 2420.51 2176.74 2421.34 2174.99Z" fill="#060633" fill-rule="evenodd"/><path d="M2433 2195.68 2428.18 2205.5C2424.4 2206.73 2420.12 2207.27 2415.51 2206.87 2394.19 2205.04 2343.62 2178.54 2334.06 2173.45 2293.97 2190.64 2245.26 2184.89 2232.37 2179.73 2203.98 2168.38 2194.39 2145.62 2194.07 2119.36 2175.37 2124.3 2158.5 2113.09 2148.48 2103.26 2135.55 2090.59 2145.64 2065.79 2143.44 2050.85 2141.24 2035.89 2120.14 2019.44 2141.42 2003 2129.55 2029.18 2168.89 2055.17 2196.21 2093.84 2198.7 2097.37 2201.08 2100.99 2203.33 2104.72 2204.93 2107.39 2206.74 2109.81 2208.76 2112.05 2236.38 2142.73 2300.79 2134.9 2337.85 2151.27 2343.46 2153.74 2348.46 2156.78 2352.59 2160.58 2353.14 2161.08 2353.69 2161.58 2354.25 2162.07 2387.55 2191.48 2433 2195.68 2433 2195.68Z" fill="#C9FCE9" fill-rule="evenodd"/><path d="M3888 2151 3882.16 2197 3879 2197 3879 2152.02Z" fill="#ED9F4A" fill-rule="evenodd"/><path d="M3880.95 2197.43C3882.05 2197.14 3865.32 2203.24 3852 2200.1 3852 2200.1 3876.29 2196.23 3879.35 2191L3880.95 2197.43Z" fill="#ED9F4A" fill-rule="evenodd"/><path d="M3891.97 2200.81C3892.6 2200.74 3883.52 2195.62 3882.54 2192L3879 2196.5C3879 2196.5 3880.91 2202.08 3891.97 2200.81Z" fill="#ED9F4A" fill-rule="evenodd"/><path d="M3939.01 2150 3949 2195.84 3945.71 2197 3930 2154.27Z" fill="#ED9F4A" fill-rule="evenodd"/><path d="M3946.95 2197.43C3948.08 2197.14 3930.78 2203.24 3917 2200.1 3917 2200.1 3942.13 2196.23 3945.3 2191L3946.95 2197.43Z" fill="#ED9F4A" fill-rule="evenodd"/><path d="M3956.97 2200.81C3957.6 2200.74 3948.52 2195.62 3947.54 2192L3944 2196.5C3944 2196.5 3945.92 2202.08 3956.97 2200.81Z" fill="#ED9F4A" fill-rule="evenodd"/><path d="M3901 2094.02C3901 2094.02 3901 2168 3880.61 2168 3870.58 2168 3843.74 2112.64 3852.86 2094.02 3861.98 2075.39 3894.41 2077.98 3901 2094.02Z" fill="#C9FCE9" fill-rule="evenodd"/><path d="M3935.5 2088.65C3935.5 2088.65 3957.65 2158.72 3937.61 2164.85 3927.76 2167.87 3884.8 2123.52 3888.19 2103.13 3891.58 2082.75 3924.22 2075.44 3935.5 2088.65Z" fill="#C9FCE9" fill-rule="evenodd"/><path d="M3798.19 2095.28C3803.64 2102.57 3810.04 2108.67 3817.07 2113.76 3823.51 2118.43 3830.49 2122.24 3837.73 2125.31 3878.76 2142.75 3928.6 2136.92 3941.8 2131.68 3970.85 2120.16 3980.66 2097.06 3980.99 2070.4 3981.1 2062.05 3980.27 2053.32 3978.8 2044.5 3972.52 2006.67 3954.59 1966.96 3948.81 1945 3948.81 1945 3875.43 1990.12 3859.22 2001.05 3844.41 2011.03 3828.54 2020.79 3815.65 2031.06 3815.65 2031.06 3815.65 2031.06 3815.64 2031.07 3805.68 2038.98 3797.5 2047.19 3792.93 2056.04 3786.89 2067.77 3787.2 2080.58 3798.19 2095.28Z" fill="#E9F7F8" fill-rule="evenodd"/><path d="M3915 2001.91C3915 2001.91 3938.07 2040.99 3963.58 2061.77 3964.25 2062.31 3964.91 2062.84 3965.58 2063.32 3970.64 2067.1 3975.68 2069.47 3980.58 2070.77 3999.69 2075.8 4016.93 2064.38 4027.16 2054.38 4040.38 2041.47 4030.07 2016.21 4032.31 2000.99 4034.56 1985.77 4056.11 1969 4034.37 1952.26 4012.63 1935.51 4042.85 1904.63 4011.36 1890.15 3994.86 1882.57 3969.17 1913.66 3948.46 1944.95 3929.68 1973.35 3915 2001.91 3915 2001.91Z" fill="#E9F7F8" fill-rule="evenodd"/><path d="M3741.86 2158.47C3745.69 2159.72 3750.04 2160.27 3754.72 2159.87 3776.36 2158 3827.69 2130.96 3837.4 2125.76 3838.44 2125.2 3839 2124.9 3839 2124.9L3833.54 2103.12 3815.5 2031C3815.5 2031 3815.5 2031 3815.48 2031.01 3815.09 2031.45 3805.58 2042.09 3792.96 2056.12 3771.59 2079.91 3741.28 2113.43 3731.46 2123.33 3718.8 2136.11 3726.06 2153.31 3741.86 2158.47Z" fill="#E9F7F8" fill-rule="evenodd"/><path d="M3751 2100.75C3751 2100.75 3735.61 2084.22 3721.03 2087.41 3706.45 2090.59 3702.56 2099.12 3702.56 2099.12 3702.56 2099.12 3692.36 2101.55 3689.39 2107.07 3686.43 2112.59 3690.65 2119.22 3690.65 2119.22 3690.65 2119.22 3682.62 2126.33 3685.71 2132.46 3688.8 2138.58 3713.72 2142.99 3731.02 2126.76 3748.32 2110.53 3751 2100.75 3751 2100.75Z" fill="#E55924" fill-rule="evenodd"/><path d="M3729.11 2149.06C3729.11 2149.06 3720.3 2165.5 3723.84 2174 3723.84 2174 3744.8 2164.77 3743.98 2156.84 3743.16 2148.9 3732.26 2146.32 3729.11 2149.06Z" fill="#ED9F4A" fill-rule="evenodd"/><path d="M3737 2163.79C3737 2163.79 3740.02 2176.45 3749.86 2176.98 3759.7 2177.52 3766.44 2164.02 3758.5 2158.48 3750.56 2152.93 3741.66 2155.69 3741.66 2155.69L3737 2163.79Z" fill="#E55924" fill-rule="evenodd"/><path d="M3748.66 2126.99C3747.82 2125.25 3745.74 2124.51 3743.99 2125.34 3742.25 2126.18 3741.51 2128.26 3742.34 2130.01 3743.17 2131.75 3745.26 2132.49 3747.01 2131.66 3748.75 2130.83 3749.49 2128.74 3748.66 2126.99Z" fill="#060633" fill-rule="evenodd"/><path d="M3737 2148.46 3741.92 2158.47C3745.77 2159.72 3750.14 2160.27 3754.84 2159.87 3776.58 2158.01 3828.16 2130.99 3837.92 2125.79 3878.8 2143.32 3928.48 2137.46 3941.63 2132.19 3970.58 2120.63 3980.36 2097.42 3980.69 2070.64 3999.76 2075.68 4016.97 2064.25 4027.19 2054.23 4040.38 2041.31 4030.09 2016.02 4032.33 2000.79 4034.57 1985.54 4056.09 1968.76 4034.39 1952 4046.5 1978.69 4006.38 2005.2 3978.51 2044.62 3975.97 2048.22 3973.54 2051.91 3971.25 2055.71 3969.62 2058.43 3967.77 2060.91 3965.71 2063.19 3937.54 2094.47 3871.85 2086.49 3834.04 2103.17 3828.32 2105.7 3823.23 2108.79 3819.01 2112.67 3818.45 2113.18 3817.89 2113.69 3817.32 2114.19 3783.35 2144.17 3737 2148.46 3737 2148.46Z" fill="#C9FCE9" fill-rule="evenodd"/><path d="M2469 1775 2470.3 1784 2471 1784 2471 1775.2Z" fill="#ED9F4A" fill-rule="evenodd"/><path d="M2470.01 1784.29C2469.78 1784.23 2473.25 1785.45 2476 1784.82 2476 1784.82 2470.97 1784.04 2470.34 1783L2470.01 1784.29Z" fill="#ED9F4A" fill-rule="evenodd"/><path d="M2468.01 1784.96C2467.86 1784.94 2469.96 1783.8 2470.18 1783L2471 1784C2471 1784 2470.56 1785.24 2468.01 1784.96Z" fill="#ED9F4A" fill-rule="evenodd"/><path d="M2459.58 1775 2458 1783.78 2458.52 1784 2461 1775.82Z" fill="#ED9F4A" fill-rule="evenodd"/><path d="M2458.01 1784.29C2457.78 1784.23 2461.24 1785.45 2464 1784.82 2464 1784.82 2458.97 1784.04 2458.34 1783L2458.01 1784.29Z" fill="#ED9F4A" fill-rule="evenodd"/><path d="M2456.01 1784.96C2455.86 1784.94 2457.96 1783.8 2458.18 1783L2459 1784C2459 1784 2458.56 1785.24 2456.01 1784.96Z" fill="#ED9F4A" fill-rule="evenodd"/><path d="M2466 1765.39C2466 1765.39 2466 1779 2470.08 1779 2472.08 1779 2477.45 1768.82 2475.63 1765.39 2473.8 1761.97 2467.32 1762.44 2466 1765.39Z" fill="#C9FCE9" fill-rule="evenodd"/><path d="M2459.99 1764.2C2459.99 1764.2 2455.79 1776.86 2459.59 1777.97 2461.46 1778.52 2469.61 1770.5 2468.96 1766.82 2468.32 1763.14 2462.13 1761.82 2459.99 1764.2Z" fill="#C9FCE9" fill-rule="evenodd"/><path d="M2485.32 1765.39C2484.33 1766.72 2483.16 1767.84 2481.88 1768.76 2480.71 1769.61 2479.44 1770.31 2478.12 1770.87 2470.64 1774.05 2461.55 1772.99 2459.15 1772.03 2453.85 1769.93 2452.06 1765.72 2452 1760.86 2451.98 1759.34 2452.13 1757.75 2452.4 1756.14 2453.55 1749.24 2456.81 1742 2457.87 1738 2457.87 1738 2471.25 1746.23 2474.2 1748.22 2476.9 1750.04 2479.79 1751.82 2482.14 1753.69 2482.14 1753.69 2482.14 1753.69 2482.15 1753.69 2483.96 1755.13 2485.45 1756.63 2486.29 1758.24 2487.39 1760.38 2487.33 1762.72 2485.32 1765.39Z" fill="#E9F7F8" fill-rule="evenodd"/><path d="M2464 1747.98C2464 1747.98 2459.71 1755.24 2454.96 1759.1 2454.84 1759.2 2454.71 1759.3 2454.59 1759.39 2453.65 1760.09 2452.71 1760.53 2451.8 1760.77 2448.24 1761.71 2445.04 1759.59 2443.13 1757.73 2440.67 1755.33 2442.59 1750.64 2442.17 1747.81 2441.76 1744.98 2437.75 1741.87 2441.79 1738.75 2445.84 1735.64 2440.21 1729.9 2446.07 1727.21 2449.14 1725.81 2453.92 1731.58 2457.78 1737.39 2461.27 1742.67 2464 1747.98 2464 1747.98Z" fill="#E9F7F8" fill-rule="evenodd"/><path d="M2495.89 1776.73C2495.19 1776.95 2494.39 1777.05 2493.53 1776.98 2489.54 1776.64 2480.08 1771.82 2478.29 1770.89 2478.1 1770.8 2478 1770.74 2478 1770.74L2479 1766.86 2482.33 1754C2482.33 1754 2482.33 1754 2482.33 1754 2482.4 1754.08 2484.16 1755.98 2486.48 1758.48 2490.42 1762.72 2496 1768.7 2497.81 1770.46 2500.14 1772.74 2498.8 1775.81 2495.89 1776.73Z" fill="#E9F7F8" fill-rule="evenodd"/><path d="M2494 1766.43C2494 1766.43 2496.8 1763.51 2499.45 1764.07 2502.1 1764.63 2502.81 1766.14 2502.81 1766.14 2502.81 1766.14 2504.66 1766.57 2505.2 1767.54 2505.74 1768.52 2504.97 1769.69 2504.97 1769.69 2504.97 1769.69 2506.43 1770.94 2505.87 1772.02 2505.31 1773.1 2500.78 1773.88 2497.63 1771.02 2494.49 1768.15 2494 1766.43 2494 1766.43Z" fill="#E55924" fill-rule="evenodd"/><path d="M2497.84 1775.2C2497.84 1775.2 2499.51 1778.36 2498.84 1780 2498.84 1780 2494.85 1778.22 2495 1776.7 2495.16 1775.17 2497.24 1774.68 2497.84 1775.2Z" fill="#ED9F4A" fill-rule="evenodd"/><path d="M2497 1777.6C2497 1777.6 2496.4 1779.9 2494.43 1780 2492.46 1780.09 2491.11 1777.64 2492.7 1776.63 2494.29 1775.62 2496.07 1776.12 2496.07 1776.12L2497 1777.6Z" fill="#E55924" fill-rule="evenodd"/><path d="M2494.1 1771.28C2494.34 1771.03 2494.93 1770.93 2495.43 1771.05 2495.93 1771.17 2496.14 1771.47 2495.9 1771.72 2495.66 1771.96 2495.07 1772.07 2494.57 1771.95 2494.07 1771.83 2493.86 1771.53 2494.1 1771.28Z" fill="#060633" fill-rule="evenodd"/><path d="M2497 1774.89 2496.09 1776.72C2495.37 1776.95 2494.56 1777.05 2493.69 1776.98 2489.65 1776.64 2480.07 1771.7 2478.26 1770.75 2470.67 1773.95 2461.45 1772.88 2459.01 1771.92 2453.63 1769.81 2451.82 1765.57 2451.75 1760.68 2448.21 1761.59 2445.02 1759.51 2443.12 1757.68 2440.67 1755.32 2442.58 1750.7 2442.17 1747.91 2441.75 1745.13 2437.75 1742.06 2441.78 1739 2439.54 1743.88 2446.99 1748.72 2452.16 1755.92 2452.63 1756.58 2453.08 1757.25 2453.51 1757.95 2453.81 1758.44 2454.15 1758.9 2454.54 1759.31 2459.77 1765.03 2471.96 1763.57 2478.98 1766.62 2480.05 1767.08 2480.99 1767.64 2481.77 1768.35 2481.88 1768.45 2481.98 1768.54 2482.09 1768.63 2488.39 1774.11 2497 1774.89 2497 1774.89Z" fill="#C9FCE9" fill-rule="evenodd"/><path d="M3238 1456.88 3260.39 1461C3260.39 1461 3321.66 1366.95 3323.42 1338.28 3325.12 1310.89 3380.33 1191.05 3315.69 1116.23 3312.78 1112.83 3309.61 1109.54 3306.17 1106.35 3306.06 1106.22 3305.93 1106.11 3305.81 1106 3305.81 1106 3305.69 1106.17 3305.49 1106.53 3304.17 1108.71 3299.04 1117.95 3293.02 1138.37 3283.6 1170.29 3271.95 1229.55 3269.2 1331.91 3269.2 1331.91 3254.16 1419.53 3238 1456.88Z" fill="#F5C89E" fill-rule="evenodd"/><path d="M3237.7 1456.85C3237.7 1456.85 3213.77 1483.81 3213.04 1494.74 3212.31 1505.67 3221.77 1519.43 3232.41 1521.78 3243.04 1524.13 3236.4 1507.27 3238 1500.5 3239.59 1493.73 3246.54 1483.46 3246.12 1486.52 3245.7 1489.58 3241.45 1501.62 3242.76 1503.55 3244.08 1505.48 3247.51 1505.79 3248.81 1499.35 3250.11 1492.92 3260.82 1485.41 3258.72 1478.51 3256.62 1471.61 3258.34 1466.29 3261.24 1457.04 3264.14 1447.78 3269 1436.67 3269 1436.67L3251.76 1433 3237.7 1456.85Z" fill="#F5C89E" fill-rule="evenodd"/><path d="M3399.99 969C3399.99 969 3400.53 980.483 3393.63 982.729 3386.73 984.976 3400.73 1009.76 3399.64 1026.49 3398.54 1043.23 3391.12 1049.95 3391.12 1049.95 3391.12 1049.95 3394.68 1040.74 3392.69 1035.05 3392.69 1035.05 3393.01 1046.89 3384.35 1052.86 3375.69 1058.84 3378.02 1064 3378.02 1064 3378.02 1064 3358.45 1058.15 3357.9 1043.49 3357.9 1043.49 3357.06 1050.12 3357.74 1052.86 3357.74 1052.86 3340.84 1040.19 3340.03 1025.59 3339.23 1010.99 3353.34 998.674 3359.76 998.452 3366.19 998.229 3380.52 985.632 3380.14 980.869 3379.75 976.107 3399.99 969 3399.99 969Z" fill="#070706" fill-rule="evenodd"/><path d="M3345.61 887.507C3356.93 870.357 3401.87 879.956 3446 908.947 3490.12 937.938 3516.71 975.344 3505.39 992.493 3494.07 1009.64 3449.13 1000.04 3405 971.054 3360.88 942.062 3334.29 904.657 3345.61 887.507Z" fill="#E65924" fill-rule="evenodd"/><path d="M3249 2152.17 3272.72 2161C3272.72 2161 3375.73 2018.09 3388.41 1892.35 3390.68 1869.9 3389.92 1848.15 3385.02 1828.07 3385.02 1828.07 3386.03 1822.31 3387.79 1812.15 3388.6 1807.4 3389.61 1801.69 3390.75 1795.14 3394.1 1775.95 3398.71 1749.68 3403.98 1719.78 3416.1 1650.96 3431.8 1562.99 3444 1498.32L3437.61 1496.27 3368.47 1473.96 3354.18 1428.56 3302.69 1415C3302.69 1415 3291.19 1437.51 3280.91 1543.82 3279.01 1557.76 3277.29 1573.14 3275.99 1589.82 3271.98 1640.72 3271.69 1703.86 3280.89 1776.04 3283.25 1794.52 3286.23 1813.6 3289.93 1833.2 3292.64 1847.57 3293.05 1867.15 3291.91 1889.64 3286.72 1992.43 3249 2152.17 3249 2152.17Z" fill="#014840" fill-rule="evenodd"/><path d="M3276 1590.16 3387.79 1812C3388.61 1807.26 3389.61 1801.56 3390.76 1795.03 3394.11 1775.88 3398.71 1749.67 3403.98 1719.84 3416.1 1651.17 3431.8 1563.39 3444 1498.87L3437.61 1496.82 3368.47 1474.55 3354.18 1429.26 3292.69 1411C3292.69 1411 3291.2 1438.18 3280.92 1544.26 3279.02 1558.18 3277.3 1573.52 3276 1590.16Z" fill="#002722" fill-rule="evenodd"/><path d="M3303.29 1420.47C3299.87 1416.38 3327.78 1421.21 3327.78 1421.21 3371.27 1432.74 3487.47 1389 3487.47 1389 3487.47 1389 3529.6 1425.96 3524.06 1514.55 3521.36 1557.78 3516.43 1741.52 3511.28 1795.89 3509.42 1815.6 3507.79 1829.62 3507.12 1835.22 3507.11 1835.25 3507.11 1835.26 3507.11 1835.28 3506.91 1836.99 3507.5 1838.6 3508.37 1840.09 3515.96 1852.94 3522.24 1866.31 3527.39 1879.99 3577.94 2014.43 3519.6 2180 3519.6 2180L3504.46 2173.91C3504.46 2173.91 3471.26 1989.66 3444.28 1908.26 3439.7 1894.45 3435.31 1883.6 3431.29 1877.12 3419.56 1858.22 3408.68 1827.36 3398.8 1790.64 3380.12 1721.23 3365.09 1630.94 3355.09 1561.24 3353.71 1561.31 3339.33 1463.55 3303.29 1420.47Z" fill="#014840" fill-rule="evenodd"/><path d="M3371 889.85 3449.85 1010C3449.85 1010 3458.86 992.261 3468.87 998.625 3484.49 1008.54 3518.05 974.608 3511.05 926.702 3510.59 923.57 3510.05 920.595 3509.44 917.766 3493.7 895.003 3476.23 869.656 3463.7 851.836 3427.49 829.871 3371 889.85 3371 889.85Z" fill="#070706" fill-rule="evenodd"/><path d="M3336 1132.01C3347.07 1142.14 3361.45 1151.21 3380.1 1158.26 3449.98 1184.7 3485.92 1127.56 3502 1087.17 3492.93 1080.22 3483.84 1077.72 3478.58 1076.35 3473.45 1075.03 3468.02 1073.88 3463.51 1073.04 3456.25 1065.74 3447.63 1038.74 3450.32 999L3446.81 999.448 3387.83 1007.27C3387.83 1007.27 3387.97 1025.67 3386.93 1042.9 3386.09 1056.39 3384.51 1069.17 3381.55 1071.95 3376.99 1072.3 3374.24 1072.57 3374.24 1072.57 3374.24 1072.57 3374.23 1072.59 3374.2 1072.62 3373.27 1073.77 3353.08 1098.62 3336 1132.01Z" fill="#F5C89E" fill-rule="evenodd"/><path d="M3303.1 1173.41C3303.18 1174.99 3303.33 1176.56 3303.52 1178.2 3309.2 1222.66 3317.44 1366.2 3317.44 1366.2 3303.53 1393.55 3510.17 1456.92 3519.09 1430.83 3532.47 1410.42 3519.12 1371.33 3507.56 1341.38 3504.72 1334.07 3504.1 1326.27 3501.58 1320.62 3499.97 1316.99 3498.68 1313.25 3497.73 1309.43 3495.33 1299.87 3495.07 1289.82 3497.06 1280.06 3502.37 1254.16 3509.81 1230.1 3516.06 1210.63 3519.1 1201.16 3521.84 1192.79 3523.94 1185.81 3520.96 1181.66 3518.02 1177.78 3515.3 1174.12 3511.16 1168.49 3507.57 1163.3 3505.25 1158.46 3502.68 1153.18 3501.58 1148.26 3502.8 1143.49 3503.72 1139.88 3504.98 1136.28 3506.5 1132.76 3507.22 1131.1 3507.99 1129.46 3508.79 1127.83 3517.28 1110.67 3530 1096.71 3530 1096.71 3513.38 1082.95 3478.05 1076.78 3478.05 1076.78 3478.05 1076.78 3477.48 1078.68 3476.51 1081.77 3472.7 1094.19 3462.49 1125.93 3456.61 1130.69 3449.28 1136.6 3348.08 1140.6 3346.5 1128.9 3344.96 1117.41 3372.76 1074.67 3373.81 1073.06 3373.84 1073.01 3373.84 1073 3373.84 1073 3372.75 1073.07 3371.69 1073.15 3370.64 1073.22 3365.42 1073.64 3360.74 1074.53 3356.45 1074.71 3328.89 1075.88 3323.96 1083.35 3323.96 1083.35 3338.51 1101.05 3300.86 1131.33 3303.1 1173.41Z" fill="#FD9C29" fill-rule="evenodd"/><path d="M3387.9 1007.73C3387.9 1007.73 3388.06 1025.91 3387 1042.97 3419.72 1044.11 3438.88 1015.83 3447 1000L3387.9 1007.73Z" fill="#D8A983" fill-rule="evenodd"/><path d="M3375.46 1022.74C3375.46 1022.74 3452.33 1028.88 3455.43 981.17 3458.54 933.459 3470.55 902.117 3421.6 896.181 3372.65 890.244 3361.93 907.835 3357 923.509 3352.07 939.184 3355.55 1019.92 3375.46 1022.74Z" fill="#F5C89E" fill-rule="evenodd"/><path d="M3361.37 896.549C3374.22 882.907 3383.03 886.638 3387.8 891.286 3431.44 870.866 3456.43 906.732 3456.43 906.732 3459.39 941.407 3483 962.662 3483 962.662 3483 962.662 3468.39 970.422 3436.5 960.063 3426.76 956.898 3418.37 949.327 3411.4 940.348 3423.12 963.085 3439.96 980 3439.96 980 3402.38 959.714 3390.26 905.08 3389.08 899.309 3384.1 903.224 3374.23 911.788 3370.83 920.578 3366.2 932.525 3362.87 957.51 3355.58 956.191 3355.58 956.192 3342.11 917.01 3361.37 896.549Z" fill="#070706" fill-rule="evenodd"/><path d="M3432 2192 3551.35 2192C3551.35 2192 3554.21 2173.88 3547.97 2160.14 3542 2146.95 3532.64 2140.96 3534.88 2125 3527.3 2132.78 3514.94 2141.49 3497.69 2139.17 3495.57 2142.59 3484.04 2160.86 3476.98 2165.91 3469.18 2171.49 3434.4 2169.5 3432 2192Z" fill="#002722" fill-rule="evenodd"/><path d="M3175 2192 3294.73 2192C3294.73 2192 3299.21 2172.94 3291.35 2159.97 3284.39 2148.49 3287.06 2141.96 3292.21 2132.46 3286.79 2134.68 3279.77 2136.69 3272.04 2136.25 3266.08 2135.91 3259.77 2133.21 3254.24 2130 3249.08 2135.86 3227.02 2160.82 3220.12 2165.77 3212.3 2171.38 3177.41 2169.38 3175 2192Z" fill="#002722" fill-rule="evenodd"/><path d="M3512.58 950C3512.58 950 3548.43 879.003 3498.33 850.938 3448.23 822.872 3411.56 833.893 3384 868.217L3512.58 950Z" fill="#E65924" fill-rule="evenodd"/><path d="M3351.86 936.768C3351.1 929.525 3351.08 921.17 3353.02 913.294 3349.48 905.781 3348.84 899.281 3351.73 894.618 3355.06 889.208 3362.67 887.017 3373 887.701 3390.75 888.846 3416.53 898.453 3442.46 914.774 3476.21 936.026 3499.72 962.022 3501.94 978.756 3502.42 982.362 3501.93 985.535 3500.3 988.145 3498.14 991.641 3494.19 993.809 3488.85 994.692 3481.63 1000.47 3474.13 1002.26 3468.77 998.841 3463.54 995.498 3458.57 998.785 3455.02 1002.68 3498.65 1020.82 3534.84 1023.62 3545.15 1006.94 3554.43 991.927 3540.44 964.839 3511.79 936.555 3496.41 921.394 3476.81 905.889 3454.31 891.73 3436.22 880.343 3418.19 871.029 3401.27 864.045 3357.97 846.146 3322.11 843.472 3311.85 860.061 3301.87 876.201 3318.76 906.269 3351.86 936.768Z" fill="#FD9C29" fill-rule="evenodd"/><path d="M3427.49 1324.72C3457.28 1334.25 3486.28 1338.34 3509.29 1340 3506.46 1332.7 3504.36 1326.08 3501.83 1320.43 3500.22 1316.81 3498.93 1313.07 3497.98 1309.26 3495.58 1299.7 3495.32 1289.67 3497.31 1279.91 3502.63 1254.04 3516.74 1209.89 3523 1190.44 3506.29 1153.23 3489.02 1173.52 3489.02 1173.52 3489.02 1173.52 3438.52 1196.14 3417.02 1237.82 3395.51 1279.5 3401.79 1316.5 3427.49 1324.72Z" fill="#E65924" fill-rule="evenodd"/><path d="M3492 1079.84C3492 1079.84 3443.86 1110.45 3431.56 1175L3417 1170.4C3417 1170.4 3422.64 1124.32 3478.31 1077L3492 1079.84Z" fill="#014840" fill-rule="evenodd"/><path d="M3322.24 1177 3337.49 1178C3334.44 1121.6 3362.66 1083.09 3371 1073 3365.77 1073.42 3361.03 1073.93 3356.78 1074.49 3316.85 1132.43 3322.24 1177 3322.24 1177Z" fill="#014840" fill-rule="evenodd"/><path d="M3430.31 1210.52C3431.25 1206.52 3440.53 1167.58 3440.53 1167.58 3440.53 1167.58 3442.68 1155.41 3421.37 1154.2 3400.06 1153 3324.47 1149 3324.47 1149 3324.47 1149 3314.17 1155.24 3314.02 1168.05 3313.87 1180.86 3303.58 1254.13 3303.58 1254.13L3293 1415.28 3523.51 1515C3523.51 1515 3539.31 1433.55 3521.61 1376.78 3511.29 1343.67 3497.99 1309.1 3497.99 1309.1 3497.99 1309.1 3415.96 1271.72 3430.31 1210.52Z" fill="#014840" fill-rule="evenodd"/><path d="M3432.69 1169.47C3433.78 1166.05 3431.89 1162.39 3428.47 1161.31 3425.05 1160.22 3421.39 1162.11 3420.31 1165.53 3419.22 1168.95 3421.11 1172.61 3424.53 1173.69 3427.95 1174.78 3431.61 1172.89 3432.69 1169.47Z" fill="#ED7D2B" fill-rule="evenodd"/><path d="M3431.69 1168.82C3432.78 1165.66 3430.89 1162.29 3427.47 1161.28 3424.05 1160.28 3420.39 1162.03 3419.31 1165.18 3418.22 1168.34 3420.11 1171.71 3423.53 1172.72 3426.95 1173.72 3430.61 1171.97 3431.69 1168.82Z" fill="#3FB78A" fill-rule="evenodd"/><path d="M3429 1167C3429 1166.45 3428.55 1166 3428 1166 3427.45 1166 3427 1166.45 3427 1167 3427 1167.55 3427.45 1168 3428 1168 3428.55 1168 3429 1167.55 3429 1167Z" fill="#2B478B" fill-rule="evenodd"/><path d="M3423 1167C3423 1166.45 3422.55 1166 3422 1166 3421.45 1166 3421 1166.45 3421 1167 3421 1167.55 3421.45 1168 3422 1168 3422.55 1168 3423 1167.55 3423 1167Z" fill="#2B478B" fill-rule="evenodd"/><path d="M3338.69 1161.47C3339.78 1158.05 3337.89 1154.39 3334.47 1153.31 3331.05 1152.22 3327.39 1154.11 3326.31 1157.53 3325.22 1160.95 3327.11 1164.61 3330.53 1165.69 3333.95 1166.78 3337.61 1164.89 3338.69 1161.47Z" fill="#ED7D2B" fill-rule="evenodd"/><path d="M3337.69 1160.47C3338.78 1157.05 3336.89 1153.39 3333.47 1152.31 3330.05 1151.22 3326.39 1153.11 3325.31 1156.53 3324.22 1159.95 3326.11 1163.61 3329.53 1164.69 3332.95 1165.78 3336.61 1163.89 3337.69 1160.47Z" fill="#3FB78A" fill-rule="evenodd"/><path d="M3335 1159C3335 1158.45 3334.55 1158 3334 1158 3333.45 1158 3333 1158.45 3333 1159 3333 1159.55 3333.45 1160 3334 1160 3334.55 1160 3335 1159.55 3335 1159Z" fill="#2B478B" fill-rule="evenodd"/><path d="M3329 1159C3329 1158.45 3328.55 1158 3328 1158 3327.45 1158 3327 1158.45 3327 1159 3327 1159.55 3327.45 1160 3328 1160 3328.55 1160 3329 1159.55 3329 1159Z" fill="#2B478B" fill-rule="evenodd"/><path d="M3501.99 978C3501.99 978 3502.52 989.483 3495.74 991.729 3488.95 993.976 3502.72 1018.76 3501.64 1035.49 3500.56 1052.23 3493.27 1058.95 3493.27 1058.95 3493.27 1058.95 3496.77 1049.74 3494.81 1044.05 3494.81 1044.05 3495.12 1055.89 3486.61 1061.86 3478.1 1067.83 3480.39 1073 3480.39 1073 3480.39 1073 3461.14 1067.15 3460.6 1052.49 3460.6 1052.49 3459.78 1059.11 3460.44 1061.86 3460.44 1061.86 3443.83 1049.19 3443.03 1034.59 3442.24 1019.99 3456.11 1007.67 3462.43 1007.45 3468.75 1007.23 3482.85 994.631 3482.47 989.868 3482.09 985.106 3501.99 978 3501.99 978Z" fill="#070706" fill-rule="evenodd"/><path d="M3502.23 1360C3502.23 1360 3479.15 1374.73 3475.76 1374.61 3467.84 1374.31 3452.21 1356.81 3439.19 1364.9 3426.17 1372.99 3413.42 1386.47 3417.92 1391.86 3422.43 1397.26 3437.72 1390.89 3445.06 1391.97 3452.39 1393.05 3470.47 1402.14 3483.23 1397.86 3495.5 1393.75 3522 1376.84 3522 1376.84L3502.23 1360Z" fill="#F5C89E" fill-rule="evenodd"/><path d="M3530.55 1096.36C3530.55 1096.36 3615.79 1197.52 3644 1254.51 3644 1254.51 3610.08 1328.72 3500.14 1389 3500.14 1389 3495.25 1387.93 3487.79 1382.57 3476.16 1374.22 3489.05 1368.11 3491.59 1366.45 3519.49 1348.29 3568.23 1270.08 3569.64 1263.3 3571.05 1256.51 3508.55 1195.65 3489.56 1173.14 3470.57 1150.64 3501.03 1084.76 3530.55 1096.36Z" fill="#F5C89E" fill-rule="evenodd"/><path d="M3400 995.793C3400 995.793 3388.57 1002.74 3380.44 1001.93 3372.39 1001.13 3368 991.385 3368 991.385 3368 991.385 3383.62 989.07 3400 995.793Z" fill="#FFF2E9" fill-rule="evenodd"/><path d="M3533.67 1097.92 3572 1135.79C3572 1135.79 3563.25 1191.7 3505.23 1199 3505.23 1199 3457.61 1160.45 3486.06 1120.3 3514.51 1080.14 3533.67 1097.92 3533.67 1097.92Z" fill="#FD9C29" fill-rule="evenodd"/><path d="M3324.57 1082.69C3324.57 1082.69 3294.65 1096.51 3285 1144.78 3285 1144.78 3285.55 1160.11 3308.61 1168 3308.61 1168 3338.89 1086.49 3334.58 1082.69 3330.27 1078.89 3324.57 1082.69 3324.57 1082.69Z" fill="#FD9C29" fill-rule="evenodd"/><path d="M3476 1374.92C3476 1374.92 3474.66 1369.22 3469.55 1366.97 3464.44 1364.73 3459.69 1359.83 3459.28 1361.26 3458.86 1362.69 3458.54 1365.07 3461.18 1367.96 3463.82 1370.85 3468.33 1375.69 3476 1374.92Z" fill="#FFB27D" fill-rule="evenodd"/><path d="M2564 2122C2564 2122 2495.94 1987.97 2486.69 2022.77 2477.44 2057.56 2564 2122 2564 2122Z" fill="url(#fill9)" fill-rule="evenodd"/><path d="M2544 2124C2544 2124 2475.88 2061.62 2469.37 2073.51 2462.86 2085.4 2544 2124 2544 2124Z" fill="url(#fill10)" fill-rule="evenodd"/><path d="M2575.14 2119C2574.9 2117.63 2536.13 2007.77 2566.81 2011.07 2597.49 2014.38 2575.14 2119 2575.14 2119Z" fill="url(#fill11)" fill-rule="evenodd"/><path d="M4332.83 2209.28 4333 2142C4311.33 2142.16 4288.97 2143.22 4266.2 2145.45 4259.1 2146.14 4251.95 2146.94 4244.77 2147.87 4243.55 2148.03 4242.32 2148.19 4241.12 2148.36 4228.55 2150.12 4216.12 2152.57 4203.88 2155.58 4170.09 2160.27 4126.61 2170.16 4080.22 2190.75 4082.55 2190.02 4108.98 2181.79 4126.84 2182.42 4126.43 2182.62 4126.02 2182.79 4125.6 2182.98 4113.19 2184.53 4071.54 2191.95 4014.07 2225.04 4015.85 2224.28 4045.21 2211.58 4069.79 2211.87 4069.51 2212.04 4069.21 2212.21 4068.95 2212.37 4054.39 2213.99 4019.95 2224.55 3970.37 2281.89 3962.6 2288.33 3955.53 2294.44 3949.22 2300.05 3941.13 2307.23 3934.32 2313.6 3928.89 2318.81 3919.23 2328.07 3914 2333.69 3914 2333.69L4070.34 2334.18 4332.49 2335 4332.76 2233.95 4332.8 2218.28 4332.83 2209.28Z" fill="#02644D" fill-rule="evenodd"/><path d="M4333 2123 4332.94 2141.56 4332.77 2208.85 4332.75 2217.84 4332.71 2233.52 4332.43 2334.57 4332.43 2336 4070.81 2335.43C4070.89 2334.86 4070.99 2334.3 4071.07 2333.75 4075.74 2305.13 4089.16 2281.42 4104.18 2262.93 4129.57 2231.67 4159.53 2215.3 4159.53 2215.3 4099.87 2225.99 4064.72 2261.31 4050.45 2278.98 4045.59 2285.03 4043.14 2289 4043 2289.24 4044.09 2286.09 4045.36 2283.02 4046.77 2280.04 4072.83 2225.07 4150.64 2198.3 4150.64 2198.3 4106.19 2204.99 4055.76 2234.38 4054.19 2235.3 4094.84 2199.99 4166.58 2170.77 4241.34 2147.92 4249.31 2145.48 4257.35 2143.12 4265.38 2140.81 4288.18 2134.27 4310.99 2128.34 4333 2123Z" fill="#49C194" fill-rule="evenodd"/><path d="M4266 2181C4267.14 2181.97 4295.89 2206.08 4333 2218.34L4332.96 2234C4308.25 2219.62 4284.47 2202.05 4266 2181Z" fill="#02644D" fill-rule="evenodd"/><path d="M4334 2081 4333.89 2123.22 4333.83 2141.77 4333.66 2209C4307.33 2194.91 4274.1 2172.35 4266.31 2145.21 4265.92 2143.82 4265.6 2142.44 4265.33 2141.02L4265.33 2141.01C4261.44 2119.93 4292.39 2097.16 4334 2081Z" fill="#02644D" fill-rule="evenodd"/><path d="M3728 1971 3733.84 2014 3737 2014 3737 1971.95Z" fill="#ED9F4A" fill-rule="evenodd"/><path d="M3735.05 2014.78C3734.02 2014.52 3749.6 2020.01 3762 2017.19 3762 2017.19 3739.38 2013.71 3736.53 2009L3735.05 2014.78Z" fill="#ED9F4A" fill-rule="evenodd"/><path d="M3726.03 2016.83C3725.49 2016.77 3733.17 2012.22 3734 2009L3737 2013C3737 2013 3735.38 2017.96 3726.03 2016.83Z" fill="#ED9F4A" fill-rule="evenodd"/><path d="M3681.94 1971 3673 2012.94 3675.94 2014 3690 1974.91Z" fill="#ED9F4A" fill-rule="evenodd"/><path d="M3675.05 2014.78C3674.02 2014.52 3689.6 2020.01 3702 2017.19 3702 2017.19 3679.38 2013.71 3676.53 2009L3675.05 2014.78Z" fill="#ED9F4A" fill-rule="evenodd"/><path d="M3666.03 2016.83C3665.49 2016.77 3673.17 2012.22 3674 2009L3677 2013C3677 2013 3675.38 2017.96 3666.03 2016.83Z" fill="#ED9F4A" fill-rule="evenodd"/><path d="M3717 1919.82C3717 1919.82 3717 1987 3735.76 1987 3744.98 1987 3769.68 1936.73 3761.29 1919.82 3752.9 1902.91 3723.06 1905.26 3717 1919.82Z" fill="#C9FCE9" fill-rule="evenodd"/><path d="M3685.42 1914.09C3685.42 1914.09 3665.56 1978.26 3683.52 1983.87 3692.36 1986.63 3730.87 1946.02 3727.83 1927.35 3724.79 1908.69 3695.53 1902 3685.42 1914.09Z" fill="#C9FCE9" fill-rule="evenodd"/><path d="M3791 1735.04C3791 1735.04 3794.75 1714.76 3807.57 1710.08 3820.4 1705.4 3827.59 1710.08 3827.59 1710.08 3827.59 1710.08 3836.66 1706.96 3841.66 1709.77 3846.66 1712.58 3846.66 1719.75 3846.66 1719.75 3846.66 1719.75 3856.36 1721.31 3856.98 1727.55 3857.61 1733.79 3840.54 1749.39 3819.21 1745.34 3797.88 1741.28 3791 1735.04 3791 1735.04Z" fill="#E55924" fill-rule="evenodd"/><path d="M3620.97 1896.82C3629.12 1919.87 3646.65 1941.29 3679.91 1954.63 3696.29 1961.21 3772.21 1966.67 3810.04 1921.26 3813.38 1917.26 3816.09 1912.99 3818.24 1908.53 3840.6 1862.31 3804.95 1795.04 3810.04 1783.64 3815.63 1771.12 3828.12 1769.03 3825.69 1750.96 3823.26 1732.87 3801.12 1730.08 3801.12 1730.08 3801.12 1730.08 3787.27 1728.01 3770.65 1744.69 3754.05 1761.39 3757.64 1799.92 3750.95 1815.27 3746.42 1825.61 3719.14 1837.25 3691.79 1833.6 3687.58 1833.05 3683.38 1832.14 3679.24 1830.79 3662.34 1825.3 3624.37 1805.67 3619.88 1822.95 3619.51 1824.39 3619.15 1825.85 3618.82 1827.33 3614.16 1847.57 3612.58 1873.09 3620.97 1896.82Z" fill="#E9F7F8" fill-rule="evenodd"/><path d="M3825.56 1747C3825.56 1747 3842.61 1751.89 3846 1759.78 3846 1759.78 3825.71 1767.63 3820.88 1761.92 3816.05 1756.2 3821.6 1747.3 3825.56 1747Z" fill="#ED9F4A" fill-rule="evenodd"/><path d="M3829.33 1763.98C3829.33 1763.98 3835.34 1773.81 3829.33 1780.58 3823.33 1787.35 3810.51 1783.38 3812.14 1774.74 3813.77 1766.11 3821.24 1762 3821.24 1762L3829.33 1763.98Z" fill="#E55924" fill-rule="evenodd"/><path d="M3585.62 1871.56C3592.04 1882.5 3603.97 1896.2 3621.09 1896.96 3626.66 1897.23 3632.82 1896.11 3639.5 1893.06 3645.77 1890.21 3652.15 1886.48 3658.26 1882.39 3678.64 1868.81 3696 1851.6 3696 1851.6 3696 1851.6 3694.47 1844.47 3691.72 1833.69 3682.9 1798.91 3661.48 1726.07 3637.88 1730.17 3606.95 1735.55 3626.14 1769.95 3603.21 1779.63 3600.45 1780.8 3598.22 1782.11 3596.47 1783.55 3596.21 1783.77 3595.95 1783.98 3595.69 1784.22 3595.67 1784.25 3595.65 1784.25 3595.65 1784.27 3594.03 1785.75 3592.86 1787.34 3592.02 1789.04L3592.02 1789.06C3586.98 1799.32 3594.8 1812.85 3593.62 1823.18 3592.02 1837.15 3577.08 1857.05 3585.62 1871.56Z" fill="#E9F7F8" fill-rule="evenodd"/><path d="M3805.34 1742.99C3806.18 1741.25 3808.26 1740.51 3810.01 1741.34 3811.75 1742.18 3812.49 1744.26 3811.66 1746.01 3810.82 1747.75 3808.74 1748.49 3806.99 1747.66 3805.25 1746.82 3804.51 1744.74 3805.34 1742.99Z" fill="#060633" fill-rule="evenodd"/><path d="M3596 1784C3595.67 1784.32 3595.33 1784.65 3595 1785 3595.03 1784.97 3595.08 1784.94 3595.14 1784.9 3595.56 1784.61 3595.84 1784.32 3596 1784Z" fill="#C65447" fill-rule="evenodd"/><path d="M3585.63 1871.43C3592.08 1882.36 3604.07 1896.05 3621.28 1896.81 3629.44 1919.87 3647.01 1941.29 3680.35 1954.63 3696.78 1961.21 3772.86 1966.67 3810.79 1921.26 3814.13 1917.25 3816.85 1912.99 3819 1908.52L3819 1908.5C3819 1908.5 3773.41 1936.33 3716.93 1920.26 3683.57 1910.74 3668.76 1895.07 3658.64 1882.25 3651.62 1873.36 3646.88 1865.85 3639.78 1862.76 3627.25 1857.3 3625.73 1841.01 3619.13 1827.32 3616.58 1822.05 3613.28 1817.17 3608.33 1813.43 3595.17 1803.5 3590.58 1794.73 3592.06 1789 3587 1799.25 3594.86 1812.77 3593.67 1823.09 3592.06 1837.05 3577.05 1856.93 3585.63 1871.43Z" fill="#C9FCE9" fill-rule="evenodd"/><path d="M2182.47 1587.96C2182.47 1587.96 2094.77 1579.04 2070.93 1587.96 2047.09 1596.88 2035.17 1638.37 2038.57 1668.67 2041.98 1698.96 2049.93 1724.65 2065.25 1723.99 2080.58 1723.33 2189 1723.99 2189 1723.99L2182.47 1587.96Z" fill="#057253" fill-rule="evenodd"/><path d="M2169.94 1587.08C2169.94 1587.08 2204.9 1584 2227.07 1616.6 2249.24 1649.2 2231.34 1724.7 2202.34 1724.99 2173.35 1725.28 2137.64 1720.12 2129.91 1676.26 2122.18 1632.41 2138.38 1588.18 2169.94 1587.08Z" fill="#48C094" fill-rule="evenodd"/><path d="M2183.94 1724C2192.07 1724 2201.86 1722.42 2210.22 1716.57 2219.26 1710.25 2225.16 1700.06 2227.77 1686.27 2232.2 1662.81 2230.02 1643.55 2221.29 1629.05 2213.13 1615.49 2199.35 1606.66 2181.44 1603.52 2169.35 1601.39 2158.88 1605.86 2151.17 1616.43 2140.02 1631.72 2136.82 1657.53 2143.38 1679.21 2148.01 1694.53 2160.39 1703.99 2176.49 1704.52 2176.95 1704.54 2177.41 1704.55 2177.87 1704.55 2194.09 1704.55 2208.71 1695.07 2213.73 1681.14 2218.84 1666.93 2218.58 1653.04 2212.98 1642.02 2207.29 1630.82 2196.56 1623.54 2182.75 1621.52 2170.24 1619.68 2163.5 1626.33 2160.05 1632.24 2153.38 1643.63 2153.4 1662.14 2157.86 1671.07 2162.17 1679.68 2174.08 1686.32 2184.43 1685.91 2191.89 1685.61 2197.59 1681.66 2200.47 1674.79 2204.18 1665.96 2203.94 1656.83 2199.81 1649.76 2196.48 1644.07 2191.11 1640.59 2186.12 1640.9 2180.4 1641.26 2177.96 1646.73 2177.6 1651.3 2177.3 1655.33 2178.5 1659.81 2181.39 1660.58 2186.77 1662.02 2188.68 1658.66 2188.76 1658.52 2188.76 1658.52 2191.67 1653.03 2188.05 1652.24 2183.91 1651.34 2185 1655.02 2185 1655.02 2184.94 1655.12 2186.02 1660.09 2181.73 1658.94 2179.96 1658.47 2178.79 1655.18 2179.08 1651.45 2179.39 1647.36 2181.43 1642.89 2186.2 1642.59 2190.68 1642.3 2195.54 1645.5 2198.58 1650.7 2202.41 1657.27 2202.62 1665.78 2199.14 1674.06 2195.77 1682.1 2189.25 1684.02 2184.37 1684.22 2174.53 1684.61 2163.21 1678.35 2159.15 1670.24 2155.39 1662.71 2154.38 1644.97 2161.28 1633.18 2165.9 1625.28 2173.26 1621.83 2182.56 1623.2 2195.9 1625.16 2206.25 1632.14 2211.7 1642.87 2217.06 1653.43 2217.3 1666.79 2212.36 1680.49 2207.43 1694.18 2192.68 1703.37 2176.54 1702.83 2161.08 1702.32 2149.2 1693.29 2144.78 1678.66 2138.38 1657.51 2141.47 1632.37 2152.3 1617.52 2157.44 1610.48 2166.62 1602.63 2181.21 1605.19 2198.71 1608.26 2212.15 1616.85 2220.08 1630.01 2228.57 1644.12 2230.67 1662.93 2226.32 1685.92 2223.81 1699.23 2218.13 1709.06 2209.45 1715.13 2191.92 1727.4 2164.26 1719.97 2164.02 1719.9L2167.15 1721.83C2167.28 1721.87 2174.49 1724 2183.94 1724Z" fill="#057253" fill-rule="evenodd"/></g></svg>