<svg width="2871" height="2223" xmlns="http://www.w3.org/2000/svg" xmlns:xlink="http://www.w3.org/1999/xlink" xml:space="preserve" overflow="hidden"><defs><clipPath id="clip0"><rect x="717" y="80" width="2871" height="2223"/></clipPath><radialGradient cx="3857107" cy="0.375" r="4169004" fy="0.352582" gradientUnits="userSpaceOnUse" spreadMethod="pad" id="fill1" gradientTransform="matrix(0.000360892 0 0 0.000360892 2196 1256)"><stop offset="0" stop-color="#5F5F5F"/><stop offset="0.5" stop-color="#8B8B8B"/><stop offset="1" stop-color="#A6A6A6"/></radialGradient><linearGradient x1="717" y1="1538.5" x2="3278" y2="1538.5" gradientUnits="userSpaceOnUse" spreadMethod="reflect" id="fill2"><stop offset="0" stop-color="#6E6E6E"/><stop offset="0.5" stop-color="#A0A0A0"/><stop offset="1" stop-color="#BFBFBF"/></linearGradient><linearGradient x1="1737.23" y1="881.689" x2="2260.77" y2="2066.31" gradientUnits="userSpaceOnUse" spreadMethod="reflect" id="fill3"><stop offset="0" stop-color="#484848"/><stop offset="0.5" stop-color="#6A6A6A"/><stop offset="1" stop-color="#7F7F7F"/></linearGradient><linearGradient x1="2153" y1="1485" x2="2153" y2="1824" gradientUnits="userSpaceOnUse" spreadMethod="reflect" id="fill4"><stop offset="0" stop-color="#414141"/><stop offset="0.5" stop-color="#606060"/><stop offset="1" stop-color="#747474"/></linearGradient><linearGradient x1="3067.27" y1="2633.58" x2="1237.73" y2="1098.42" gradientUnits="userSpaceOnUse" spreadMethod="reflect" id="fill5"><stop offset="0" stop-color="#588E4D"/><stop offset="0.91" stop-color="#D09E00"/><stop offset="1" stop-color="#F6C6AD"/></linearGradient><linearGradient x1="3115.03" y1="2866.66" x2="1189.97" y2="1251.34" gradientUnits="userSpaceOnUse" spreadMethod="reflect" id="fill6"><stop offset="0" stop-color="#588E4D"/><stop offset="0.18" stop-color="#588E4D"/><stop offset="0.97" stop-color="#D09E00"/><stop offset="1" stop-color="#F6C6AD"/></linearGradient><linearGradient x1="3603.68" y1="1882.24" x2="3414.32" y2="1846.76" gradientUnits="userSpaceOnUse" spreadMethod="reflect" id="fill7"><stop offset="0" stop-color="#01541C"/><stop offset="0.5" stop-color="#067C2D"/><stop offset="1" stop-color="#0A9438"/></linearGradient><linearGradient x1="3274.81" y1="1962.43" x2="3616.19" y2="1818.57" gradientUnits="userSpaceOnUse" spreadMethod="reflect" id="fill8"><stop offset="0" stop-color="#1C4A0B"/><stop offset="0.5" stop-color="#2D6E15"/><stop offset="1" stop-color="#37841C"/></linearGradient><linearGradient x1="3573.51" y1="2085.64" x2="3309.49" y2="1918.36" gradientUnits="userSpaceOnUse" spreadMethod="reflect" id="fill9"><stop offset="0" stop-color="#01541C"/><stop offset="0.5" stop-color="#067C2D"/><stop offset="1" stop-color="#0A9438"/></linearGradient><linearGradient x1="3374.04" y1="2339.41" x2="3530.96" y2="2093.59" gradientUnits="userSpaceOnUse" spreadMethod="reflect" id="fill10"><stop offset="0" stop-color="#1C4A0B"/><stop offset="0.5" stop-color="#2D6E15"/><stop offset="1" stop-color="#37841C"/></linearGradient><linearGradient x1="3492.48" y1="1949.66" x2="3618.52" y2="1927.34" gradientUnits="userSpaceOnUse" spreadMethod="reflect" id="fill11"><stop offset="0" stop-color="#1C4A0B"/><stop offset="0.5" stop-color="#2D6E15"/><stop offset="1" stop-color="#37841C"/></linearGradient><linearGradient x1="3455" y1="2134.5" x2="3588" y2="2134.5" gradientUnits="userSpaceOnUse" spreadMethod="reflect" id="fill12"><stop offset="0" stop-color="#113006"/><stop offset="0.5" stop-color="#1D490E"/><stop offset="1" stop-color="#255812"/></linearGradient><linearGradient x1="2842" y1="2087" x2="2897" y2="2087" gradientUnits="userSpaceOnUse" spreadMethod="reflect" id="fill13"><stop offset="0" stop-color="#6F2C1D"/><stop offset="0.5" stop-color="#A1432E"/><stop offset="1" stop-color="#C05139"/></linearGradient><linearGradient x1="2548" y1="2081" x2="2679" y2="2081" gradientUnits="userSpaceOnUse" spreadMethod="reflect" id="fill14"><stop offset="0" stop-color="#6F2C1D"/><stop offset="0.5" stop-color="#A1432E"/><stop offset="1" stop-color="#C05139"/></linearGradient><linearGradient x1="2978.52" y1="1683.14" x2="2594.48" y2="1575.86" gradientUnits="userSpaceOnUse" spreadMethod="reflect" id="fill15"><stop offset="0" stop-color="#172C51"/><stop offset="0.5" stop-color="#264378"/><stop offset="1" stop-color="#2F518F"/></linearGradient><linearGradient x1="2513.56" y1="1666.64" x2="2850.44" y2="1586.36" gradientUnits="userSpaceOnUse" spreadMethod="reflect" id="fill16"><stop offset="0" stop-color="#16325A"/><stop offset="0.5" stop-color="#254C84"/><stop offset="1" stop-color="#2E5C9E"/></linearGradient><linearGradient x1="2595" y1="1750" x2="2595" y2="1471" gradientUnits="userSpaceOnUse" spreadMethod="reflect" id="fill17"><stop offset="0" stop-color="#114639"/><stop offset="0.5" stop-color="#1E6856"/><stop offset="1" stop-color="#257D68"/></linearGradient><linearGradient x1="2120" y1="1998.5" x2="2452" y2="1998.5" gradientUnits="userSpaceOnUse" spreadMethod="reflect" id="fill18"><stop offset="0" stop-color="#6F2C1D"/><stop offset="0.5" stop-color="#A1432E"/><stop offset="1" stop-color="#C05139"/></linearGradient><linearGradient x1="1540" y1="2008" x2="1540" y2="1735" gradientUnits="userSpaceOnUse" spreadMethod="reflect" id="fill19"><stop offset="0" stop-color="#925321"/><stop offset="0.5" stop-color="#D27A34"/><stop offset="1" stop-color="#FA9340"/></linearGradient><linearGradient x1="655.8" y1="2180.6" x2="982.2" y2="2017.4" gradientUnits="userSpaceOnUse" spreadMethod="reflect" id="fill20"><stop offset="0" stop-color="#1C4A0B"/><stop offset="0.5" stop-color="#2D6E15"/><stop offset="1" stop-color="#37841C"/></linearGradient><linearGradient x1="717" y1="2177.5" x2="1261" y2="2177.5" gradientUnits="userSpaceOnUse" spreadMethod="reflect" id="fill21"><stop offset="0" stop-color="#113006"/><stop offset="0.5" stop-color="#1D490E"/><stop offset="1" stop-color="#255812"/></linearGradient><linearGradient x1="1301.03" y1="2375.07" x2="1443.97" y2="2027.93" gradientUnits="userSpaceOnUse" spreadMethod="reflect" id="fill22"><stop offset="0" stop-color="#1C4A0B"/><stop offset="0.5" stop-color="#2D6E15"/><stop offset="1" stop-color="#37841C"/></linearGradient></defs><g clip-path="url(#clip0)" transform="translate(-717 -80)"><path d="M3388.11 857.03C3308.92 814.312 3388.05 492.516 3111.82 383.494 2869.43 287.828 2602.34 575.619 2558.23 379.921 2474.88 10.1087 1845.92 86.5368 1845.92 86.5368 1684.43 101.436 1564.5 138.052 1475.58 182.649 1335.15 253.083 1242.62 382.059 1224.6 526.978 1214.05 611.792 1170.8 738.838 1031.56 784.735 912.321 824.043 801.498 955.287 717 1096.11L717 1865.67 3467.78 1888C3499.14 1888.05 3557.75 1747.49 3588 1567.79L3588 1154.38C3560.35 1027.63 3499.86 917.314 3388.11 857.03Z" fill="#96D9C9" fill-rule="evenodd" fill-opacity="0.301961"/><path d="M3053.8 1259.56C2817.55 1298.85 2498.37 1558.2 2196 1709.61L2196 1822.88 3588 1827 3588 1604.26C3455.79 1431.39 3253.15 1226.41 3053.8 1259.56Z" fill="url(#fill1)" fill-rule="evenodd"/><path d="M797.5 1368 821 1560 774 1560Z" fill="#71AB65" fill-rule="evenodd"/><path d="M857.499 1250 889 1503 826 1503Z" fill="#71AB65" fill-rule="evenodd"/><path d="M3013.18 1470.48C3013.25 1468.01 3016.68 1466.09 3018.51 1468.28 3020.32 1470.47 3020.25 1469 3022.01 1473.72 3027.08 1487.32 3034.55 1500.47 3043.22 1511.96 3059.85 1533.98 3076.31 1545.09 3095.01 1556.1 3087.3 1538.82 3082.15 1520.37 3081.49 1501.75 3081.25 1494.98 3081.38 1487.95 3084.3 1481.73 3085.11 1479.98 3088.24 1480.34 3088.55 1482.28 3090.12 1491.88 3087.81 1499.12 3090.93 1516.3 3098.37 1557.31 3127.85 1600.81 3156.29 1631.27 3150.83 1579.71 3148.19 1521.1 3157.94 1469.09 3159.54 1460.56 3162.09 1452.46 3164.45 1444.12 3165.01 1442.15 3167.8 1443 3167.45 1444.95 3166.97 1447.72 3162.32 1483.51 3162.04 1485.97 3157.53 1525.58 3158.43 1569.46 3161.94 1609.48 3184 1579.73 3198.76 1544.94 3205.67 1508.62 3207.7 1497.88 3208.25 1486.79 3211.11 1476.26 3211.5 1474.8 3213.91 1474.65 3214.21 1476.26 3217.14 1492.04 3211.27 1519.98 3206.98 1535.16 3198.29 1565.91 3184.39 1593.47 3165.38 1618.11 3164.65 1619.06 3195.9 1859.73 3195.07 1862.77 3193.65 1867.92 3184.66 1871.52 3183.25 1862.4 3182.7 1858.69 3165.52 1712.36 3157.76 1644.57 3154.83 1642.96 3152.96 1640.1 3145.42 1631.68 3127.98 1612.16 3110.73 1587.87 3099.22 1564.96 3092.3 1564.56 3042.36 1540.36 3017.59 1485.26 3016.87 1483.68 3013.65 1476.22 3013.19 1474.55 3012.79 1473.13 3013.13 1471.89 3013.18 1470.48Z" fill="#184655" fill-rule="evenodd"/><path d="M3172.85 1392C3172.28 1384.6 3172 1377.05 3172 1369.35 3172 1283.55 3208.49 1214 3253.5 1214 3298.51 1214 3335 1283.55 3335 1369.35 3335 1377.05 3334.7 1384.6 3334.13 1392L3172.85 1392Z" fill="#406D35" fill-rule="evenodd"/><path d="M3080.85 1354C3080.3 1343.54 3080 1332.83 3080 1321.93 3080 1200.47 3116.49 1102 3161.5 1102 3206.51 1102 3243 1200.47 3243 1321.93 3243 1332.83 3242.7 1343.54 3242.13 1354L3080.85 1354Z" fill="#71AB65" fill-rule="evenodd"/><path d="M3111.13 1488C3111.7 1480.62 3112 1473.05 3112 1465.35 3112 1379.56 3075.51 1310 3030.5 1310 2985.49 1310 2949 1379.56 2949 1465.35 2949 1473.05 2949.3 1480.62 2949.85 1488L3111.13 1488Z" fill="#71AB65" fill-rule="evenodd"/><path d="M3240.9 1488C3241.62 1477.58 3242 1466.92 3242 1456.07 3242 1335.08 3195.88 1237 3138.99 1237 3082.11 1237 3036 1335.08 3036 1456.07 3036 1466.92 3036.37 1477.58 3037.09 1488L3240.9 1488Z" fill="#406D35" fill-rule="evenodd"/><path d="M3161.92 1237C3190.52 1237 3216.06 1268.11 3232.92 1316.91 3241.5 1312.44 3250.62 1310.02 3260.08 1310.02 3310.84 1310.02 3352 1379.57 3352 1465.36 3352 1473.05 3351.67 1480.62 3351.02 1488L3070.98 1488C3070.33 1477.58 3070 1466.92 3070 1456.07 3070 1335.08 3111.16 1237 3161.92 1237Z" fill="#588E4D" fill-rule="evenodd"/><path d="M2451.87 1812.1C2072.72 1812.1 1574.91 1315.74 1243.14 1260.51 1046.8 1227.82 847.22 1429.94 717 1600.38L717 1820 3278 1812.42C3232.06 1810.57 3175.74 1805.95 3117.1 1795.6 2974.93 1770.49 2831.03 1812.1 2451.87 1812.1Z" fill="url(#fill2)" fill-rule="evenodd"/><path d="M3388 1812 3278 1812.23C3343.53 1814.09 3388 1812 3388 1812Z" fill="#86B1F2" fill-rule="evenodd"/><path d="M2133.01 1091 2102 1344 2164 1344Z" fill="#71AB65" fill-rule="evenodd"/><path d="M2038.5 1183 2015 1375 2062 1375Z" fill="#71AB65" fill-rule="evenodd"/><path d="M2280 1287 2256 1479 2304 1479Z" fill="#71AB65" fill-rule="evenodd"/><path d="M2219.99 1169 2189 1421 2251 1421Z" fill="#71AB65" fill-rule="evenodd"/><path d="M1225.28 1750.61C1225.28 1750.61 1598.96 1148.9 1741.34 1122.05 1883.73 1095.19 2005.71 1341.26 2005.71 1341.26 2005.71 1341.26 2070.16 1285.03 2169.28 1307 2268.39 1328.95 2800 1828 2800 1828L1198 1808.01 1225.28 1750.61Z" fill="url(#fill3)" fill-rule="evenodd"/><path d="M1431.49 1380.14C1420.82 1352.25 1410.37 1324.35 1402.78 1295.34 1379.43 1206.06 1385.07 1140.99 1385.94 1109.7 1386.06 1105.56 1379.45 1104.44 1378.88 1108.69 1376.89 1123.38 1376.45 1138.31 1376.35 1153.12 1376.19 1178.16 1377.7 1203.21 1380.9 1228.23 1363.78 1232.71 1347.58 1226 1334.32 1213.95 1311.48 1193.17 1303.32 1165.49 1299.73 1134.82 1299.36 1131.69 1299.25 1128.73 1296.71 1126.91 1296.15 1125.3 1293.81 1124.81 1293.23 1127.21 1289.61 1130.94 1291.36 1138.45 1291.92 1143.28 1299.46 1208.6 1338.99 1240.25 1370.81 1239.98 1374.3 1239.96 1378.55 1239.78 1382.34 1238.72 1384.64 1254.35 1387.58 1269.85 1391.19 1285.21 1398.07 1314.46 1407.71 1342.68 1418.33 1370.66 1454.62 1466.29 1466.2 1515.14 1476.51 1542.82 1478.07 1548.39 1486.27 1546.05 1484.83 1540.42 1484.32 1538.41 1456.01 1444.2 1431.49 1380.14Z" fill="#184655" fill-rule="evenodd"/><path d="M1577.4 1128.4C1577.05 1126.34 1575.86 1124.97 1575.4 1123.05 1574.8 1120.5 1570.66 1120.25 1570.23 1123.05 1569.98 1124.65 1569.1 1125.64 1568.76 1127.27 1567.65 1132.56 1570.33 1162.33 1563.33 1207.88 1561.48 1219.99 1559.42 1232.03 1555.41 1243.58 1548.91 1262.27 1537.08 1282.4 1522.37 1295.13 1521.9 1268.45 1520.31 1241.8 1517.13 1215.28 1515.22 1199.43 1512.81 1183.63 1509.89 1167.93 1508.46 1160.3 1506.93 1152.68 1505.27 1145.08 1503.53 1137.11 1501.89 1129.47 1498.09 1122.26 1496.93 1120.04 1493.61 1121.07 1493.61 1123.53 1493.59 1130.6 1495 1137.12 1496.47 1143.99 1497.93 1150.84 1499.3 1157.7 1500.58 1164.58 1510.03 1215.59 1513.58 1260.9 1513.55 1311.98 1497.96 1292.29 1484.33 1268.72 1474.24 1245.56 1462.1 1217.74 1453.93 1187.79 1450.52 1157.4 1449.57 1148.91 1448.99 1140.35 1448.81 1131.8 1448.72 1127.37 1448.63 1122.94 1448.54 1118.51 1448.49 1116.23 1447.62 1109.36 1443.8 1111.36 1440.28 1113.22 1440.61 1117.35 1440.32 1120.97 1440 1124.91 1439.97 1128.83 1440.02 1132.78 1440.11 1140.34 1440.52 1147.91 1441.22 1155.43 1446.28 1210.01 1466.79 1263.96 1497.98 1308.16 1502.73 1314.9 1507.64 1322.11 1513.42 1327.99 1512.09 1415.34 1499.16 1525.69 1498.94 1534.5 1498.89 1536.44 1499.32 1538.44 1499.61 1540.36 1500.2 1544.33 1505.39 1543.4 1506.45 1540.36 1508.45 1534.61 1508.25 1532.36 1511.24 1500.5 1516.57 1443.68 1522.54 1313.5 1522.51 1308.23 1541.03 1294.87 1554.15 1274.32 1562.71 1252.87 1567.26 1241.48 1569.93 1229.76 1571.93 1217.62 1578.74 1176.38 1578.52 1135.14 1577.4 1128.4Z" fill="#184655" fill-rule="evenodd"/><path d="M1449.93 1058C1450.63 1051.69 1451 1045.23 1451 1038.66 1451 965.394 1405.78 906 1350 906 1294.22 906 1249 965.394 1249 1038.66 1249 1045.23 1249.36 1051.69 1250.07 1058L1449.93 1058Z" fill="#406D35" fill-rule="evenodd"/><path d="M1563.93 1025C1564.63 1016.11 1565 1007.02 1565 997.772 1565 894.621 1519.78 811 1464 811 1408.22 811 1363 894.621 1363 997.772 1363 1007.02 1363.36 1016.11 1364.07 1025L1563.93 1025Z" fill="#71AB65" fill-rule="evenodd"/><path d="M1365.35 1139C1364.46 1130.15 1364 1121.11 1364 1111.89 1364 1009.23 1421.31 926 1492 926 1562.69 926 1620 1009.23 1620 1111.89 1620 1121.11 1619.54 1130.15 1618.65 1139L1365.35 1139Z" fill="#406D35" fill-rule="evenodd"/><path d="M1464.24 926C1428.85 926 1397.24 952.404 1376.37 993.814 1365.75 990.012 1354.46 987.965 1342.76 987.965 1279.93 987.965 1229 1046.98 1229 1119.78 1229 1126.3 1229.41 1132.73 1230.2 1139L1576.8 1139C1577.59 1130.15 1578 1121.11 1578 1111.89 1578 1009.23 1527.07 926 1464.24 926Z" fill="#588E4D" fill-rule="evenodd"/><path d="M729 1820C729 1820 1092.79 1504.48 1561.85 1485.09 1719.36 1478.59 3499.5 1820.89 3577 1824L729 1820Z" fill="url(#fill4)" fill-rule="evenodd"/><path d="M1561 1750 1524 1750 1524 1535.59 1542.5 1518 1561 1535.59Z" fill="#FFFBE3" fill-rule="evenodd"/><path d="M1618 1750 1582 1750 1582 1535.59 1600 1518 1618 1535.59Z" fill="#FFFBE3" fill-rule="evenodd"/><path d="M1728 1750 1691 1750 1691 1535.59 1709.5 1518 1728 1535.59Z" fill="#FFFBE3" fill-rule="evenodd"/><path d="M1673 1750 1636 1750 1636 1535.59 1654.5 1518 1673 1535.59Z" fill="#FFFBE3" fill-rule="evenodd"/><path d="M1786 1750 1749 1750 1749 1535.59 1767.5 1518 1786 1535.59Z" fill="#FFFBE3" fill-rule="evenodd"/><path d="M1895 1750 1859 1750 1859 1535.59 1877 1518 1895 1535.59Z" fill="#FFFBE3" fill-rule="evenodd"/><path d="M1841 1750 1804 1750 1804 1535.59 1822.5 1518 1841 1535.59Z" fill="#FFFBE3" fill-rule="evenodd"/><path d="M1953 1750 1916 1750 1916 1535.59 1934.5 1518 1953 1535.59Z" fill="#FFFBE3" fill-rule="evenodd"/><path d="M2063 1750 2026 1750 2026 1535.59 2044.5 1518 2063 1535.59Z" fill="#FFFBE3" fill-rule="evenodd"/><path d="M2008 1750 1971 1750 1971 1535.59 1989.5 1518 2008 1535.59Z" fill="#FFFBE3" fill-rule="evenodd"/><path d="M1954.32 1589 1949.71 1589 1778.62 1589 1774.02 1589 1516 1589 1516 1601 1774.02 1601 1778.62 1601 1949.71 1601 1954.32 1601 2130 1601 2130 1589Z" fill="#FFFBE3" fill-rule="evenodd"/><path d="M1954.32 1676 1949.71 1676 1778.62 1676 1774.02 1676 1516 1676 1516 1688 1774.02 1688 1778.62 1688 1949.71 1688 1954.32 1688 2130 1688 2130 1676Z" fill="#FFFBE3" fill-rule="evenodd"/><path d="M2121 1750 2084 1750 2084 1535.59 2102.5 1518 2121 1535.59Z" fill="#FFFBE3" fill-rule="evenodd"/><path d="M1288.71 1535.7 1580.01 1538 1589 1518.53 1308.05 1247 1032 1279.06Z" fill="#9E4233" fill-rule="evenodd"/><path d="M1053 1276.65 1282.29 1250 1580 1538 1250.74 1534.82Z" fill="#B75742" fill-rule="evenodd"/><path d="M1302.11 1501 1211 1603.48 1255.09 1798 1437.4 1778.37 1456 1553.46Z" fill="#184655" fill-rule="evenodd"/><path d="M876.674 1842 1187 1805.84 1141.33 1581 831 1617.16Z" fill="#EAB054" fill-rule="evenodd"/><path d="M939.292 1779 1050 1766.14 1015.71 1614 905 1626.86Z" fill="#082026" fill-rule="evenodd"/><path d="M1313.66 1270 1295.3 1295.74 1547 1536.84 1535.09 1768.55 1418.21 1780.89 1397.9 1606.21C1393.05 1564.49 1355.33 1534.6 1313.66 1539.46L1313.66 1539.46C1271.99 1544.31 1242.14 1582.07 1246.99 1623.8L1267.11 1796.83 1161.23 1808 1067 1432.55 1313.66 1270Z" fill="#F7CC7F" fill-rule="evenodd"/><path d="M957.056 1777 1067 1764.14 1032.94 1612 923 1624.86Z" fill="#184655" fill-rule="evenodd"/><path d="M1519.75 1770.11 1513.83 1770.73 1498.52 1490.29 1414.7 1409.93 1440.5 1778.48 1437.54 1778.79 1434.58 1779 1408.31 1403.81 1323.87 1322.85 1343.44 1541.76C1341.43 1541.19 1339.4 1540.7 1337.34 1540.29L1317.34 1316.59 1299 1299 1299.1 1299.02 1547 1536.77 1504.81 1496.31 1519.75 1770.11Z" fill="#EAB054" fill-rule="evenodd"/><path d="M1266 1564.07C1264.3 1565.97 1262.69 1567.94 1261.19 1570L1223 1394.26 1228.83 1393 1266 1564.07Z" fill="#EAB054" fill-rule="evenodd"/><path d="M1211 1802.37 1205.05 1803 1146 1520.21 1151.83 1519Z" fill="#EAB054" fill-rule="evenodd"/><path d="M1351.02 1532.91C1351.25 1534.82 1352.98 1536.2 1354.9 1535.98 1356.82 1535.76 1358.2 1534.01 1357.98 1532.1 1357.75 1530.18 1356.02 1528.79 1354.1 1529.03 1352.18 1529.25 1350.8 1530.98 1351.02 1532.91Z" fill="#EAB054" fill-rule="evenodd"/><path d="M1397.02 1409.91C1397.25 1411.82 1398.99 1413.2 1400.9 1412.98 1402.82 1412.74 1404.2 1411.01 1403.98 1409.1 1403.75 1407.18 1402.01 1405.8 1400.09 1406.02 1398.18 1406.26 1396.8 1407.99 1397.02 1409.91Z" fill="#EAB054" fill-rule="evenodd"/><path d="M1423.02 1438.91C1423.25 1440.82 1424.98 1442.2 1426.9 1441.98 1428.82 1441.76 1430.2 1440.01 1429.98 1438.1 1429.75 1436.18 1428.01 1434.8 1426.1 1435.02 1424.18 1435.26 1422.8 1436.99 1423.02 1438.91Z" fill="#EAB054" fill-rule="evenodd"/><path d="M1489.02 1497.91C1489.25 1499.82 1490.98 1501.2 1492.9 1500.98 1494.82 1500.74 1496.2 1499.01 1495.98 1497.1 1495.75 1495.18 1494.02 1493.8 1492.1 1494.02 1490.18 1494.26 1488.8 1495.99 1489.02 1497.91Z" fill="#EAB054" fill-rule="evenodd"/><path d="M1501.02 1758.91C1501.25 1760.82 1502.98 1762.2 1504.9 1761.98 1506.82 1761.76 1508.2 1760.01 1507.98 1758.09 1507.75 1756.18 1506.02 1754.8 1504.1 1755.02 1502.18 1755.24 1500.8 1756.99 1501.02 1758.91Z" fill="#EAB054" fill-rule="evenodd"/><path d="M1444.02 1761.9C1444.25 1763.82 1445.99 1765.2 1447.9 1764.98 1449.82 1764.74 1451.2 1763.01 1450.98 1761.09 1450.75 1759.18 1449.02 1757.8 1447.1 1758.02 1445.18 1758.24 1443.8 1759.99 1444.02 1761.9Z" fill="#EAB054" fill-rule="evenodd"/><path d="M1322.02 1527.91C1322.25 1529.82 1323.98 1531.2 1325.9 1530.98 1327.82 1530.76 1329.2 1529.01 1328.98 1527.09 1328.75 1525.18 1327.01 1523.8 1325.09 1524.02 1323.18 1524.24 1321.8 1525.99 1322.02 1527.91Z" fill="#EAB054" fill-rule="evenodd"/><path d="M1267.02 1546.91C1267.25 1548.82 1268.98 1550.2 1270.9 1549.98 1272.82 1549.76 1274.2 1548.01 1273.98 1546.1 1273.75 1544.17 1272.02 1542.79 1270.1 1543.03 1268.18 1543.25 1266.8 1544.98 1267.02 1546.91Z" fill="#EAB054" fill-rule="evenodd"/><path d="M1290.02 1534.91C1290.25 1536.82 1291.98 1538.2 1293.9 1537.98 1295.82 1537.76 1297.2 1536.01 1296.98 1534.1 1296.75 1532.17 1295.02 1530.79 1293.09 1531.03 1291.18 1531.25 1289.8 1532.98 1290.02 1534.91Z" fill="#EAB054" fill-rule="evenodd"/><path d="M1237.02 1405.9C1237.25 1407.82 1238.98 1409.2 1240.9 1408.98 1242.82 1408.74 1244.2 1407.01 1243.98 1405.1 1243.75 1403.18 1242.01 1401.8 1240.1 1402.02 1238.17 1402.24 1236.8 1403.99 1237.02 1405.9Z" fill="#EAB054" fill-rule="evenodd"/><path d="M1307.02 1326.91C1307.25 1328.82 1308.98 1330.2 1310.9 1329.98 1312.82 1329.76 1314.2 1328.01 1313.98 1326.09 1313.75 1324.18 1312.02 1322.8 1310.1 1323.02 1308.18 1323.24 1306.8 1324.99 1307.02 1326.91Z" fill="#EAB054" fill-rule="evenodd"/><path d="M1242.02 1569.9C1242.25 1571.82 1243.98 1573.21 1245.9 1572.97 1247.82 1572.75 1249.2 1571.02 1248.98 1569.09 1248.75 1567.18 1247.02 1565.8 1245.1 1566.02 1243.18 1566.24 1241.8 1567.99 1242.02 1569.9Z" fill="#EAB054" fill-rule="evenodd"/><path d="M1234.66 1600.99C1236.86 1601.16 1238.8 1599.72 1238.99 1597.79 1239.17 1595.88 1237.54 1594.18 1235.34 1594.01 1233.14 1593.85 1231.2 1595.28 1231.01 1597.2 1230.83 1599.13 1232.46 1600.83 1234.66 1600.99Z" fill="#EAB054" fill-rule="evenodd"/><path d="M1234.2 1625.99C1236.13 1626.15 1237.82 1624.72 1237.99 1622.8 1238.15 1620.87 1236.72 1619.17 1234.8 1619.01 1232.87 1618.84 1231.18 1620.28 1231.01 1622.21 1230.85 1624.12 1232.28 1625.83 1234.2 1625.99Z" fill="#EAB054" fill-rule="evenodd"/><path d="M1162.2 1535.99C1164.13 1536.15 1165.82 1534.72 1165.99 1532.8 1166.15 1530.88 1164.72 1529.18 1162.8 1529.01 1160.87 1528.85 1159.18 1530.27 1159.01 1532.2 1158.85 1534.12 1160.28 1535.82 1162.2 1535.99Z" fill="#EAB054" fill-rule="evenodd"/><path d="M1142.2 1567.99C1144.13 1568.15 1145.82 1566.72 1145.99 1564.8 1146.15 1562.87 1144.72 1561.17 1142.8 1561.01 1140.87 1560.84 1139.18 1562.28 1139.01 1564.21 1138.85 1566.12 1140.28 1567.82 1142.2 1567.99Z" fill="#EAB054" fill-rule="evenodd"/><path d="M1118.2 1609.99C1120.13 1610.15 1121.82 1608.72 1121.99 1606.8 1122.15 1604.87 1120.72 1603.17 1118.8 1603.01 1116.87 1602.84 1115.18 1604.28 1115.01 1606.21 1114.85 1608.12 1116.28 1609.82 1118.2 1609.99Z" fill="#EAB054" fill-rule="evenodd"/><path d="M1072.2 1620.99C1074.13 1621.16 1075.82 1619.72 1075.99 1617.79 1076.15 1615.87 1074.72 1614.17 1072.8 1614.01 1070.87 1613.85 1069.18 1615.28 1069.01 1617.2 1068.85 1619.13 1070.28 1620.83 1072.2 1620.99Z" fill="#EAB054" fill-rule="evenodd"/><path d="M1042.2 1624.99C1044.13 1625.15 1045.82 1623.72 1045.99 1621.8 1046.15 1619.88 1044.72 1618.18 1042.8 1618.01 1040.87 1617.85 1039.18 1619.27 1039.01 1621.2 1038.85 1623.12 1040.28 1624.82 1042.2 1624.99Z" fill="#EAB054" fill-rule="evenodd"/><path d="M1004.2 1782.99C1006.13 1783.15 1007.82 1781.72 1007.99 1779.8 1008.15 1777.87 1006.72 1776.17 1004.8 1776.01 1002.87 1775.84 1001.18 1777.28 1001.01 1779.19 1000.85 1781.12 1002.28 1782.82 1004.2 1782.99Z" fill="#EAB054" fill-rule="evenodd"/><path d="M1013.2 1820.99C1015.13 1821.15 1016.82 1819.72 1016.99 1817.79 1017.15 1815.87 1015.72 1814.17 1013.8 1814.01 1011.87 1813.85 1010.18 1815.28 1010.01 1817.21 1009.85 1819.13 1011.28 1820.83 1013.2 1820.99Z" fill="#EAB054" fill-rule="evenodd"/><path d="M938.203 1828.99C940.128 1829.15 941.824 1827.72 941.987 1825.8 942.152 1823.87 940.723 1822.17 938.797 1822.01 936.87 1821.84 935.176 1823.27 935.013 1825.21 934.849 1827.12 936.277 1828.82 938.203 1828.99Z" fill="#EAB054" fill-rule="evenodd"/><path d="M885.203 1640.99C887.129 1641.16 888.823 1639.72 888.987 1637.79 889.151 1635.88 887.723 1634.18 885.797 1634.01 883.871 1633.85 882.177 1635.28 882.013 1637.2 881.849 1639.13 883.277 1640.83 885.203 1640.99Z" fill="#EAB054" fill-rule="evenodd"/><path d="M844.203 1647.99C846.129 1648.16 847.823 1646.72 847.988 1644.79 848.151 1642.87 846.723 1641.18 844.797 1641.01 842.872 1640.85 841.178 1642.28 841.013 1644.2 840.849 1646.13 842.276 1647.83 844.203 1647.99Z" fill="#EAB054" fill-rule="evenodd"/><path d="M884.203 1837.99C886.129 1838.16 887.823 1836.72 887.987 1834.79 888.151 1832.87 886.723 1831.17 884.797 1831.01 882.871 1830.85 881.177 1832.28 881.013 1834.2 880.849 1836.13 882.277 1837.83 884.203 1837.99Z" fill="#EAB054" fill-rule="evenodd"/><path d="M1102.2 1615.99C1104.13 1616.16 1105.82 1614.72 1105.99 1612.79 1106.15 1610.88 1104.72 1609.17 1102.8 1609.01 1100.87 1608.85 1099.18 1610.28 1099.01 1612.2 1098.85 1614.13 1100.28 1615.83 1102.2 1615.99Z" fill="#EAB054" fill-rule="evenodd"/><path d="M1151.66 1802.99C1153.86 1803.16 1155.8 1801.72 1155.99 1799.79 1156.17 1797.88 1154.54 1796.18 1152.34 1796.01 1150.14 1795.85 1148.2 1797.28 1148.01 1799.2 1147.83 1801.13 1149.46 1802.83 1151.66 1802.99Z" fill="#EAB054" fill-rule="evenodd"/><path d="M1101.2 1810.99C1103.13 1811.17 1104.82 1809.54 1104.99 1807.34 1105.15 1805.13 1103.72 1803.2 1101.8 1803.01 1099.87 1802.83 1098.18 1804.46 1098.01 1806.66 1097.85 1808.87 1099.28 1810.8 1101.2 1810.99Z" fill="#EAB054" fill-rule="evenodd"/><path d="M1169.2 1800.99C1171.13 1801.15 1172.82 1799.72 1172.99 1797.8 1173.15 1795.87 1171.72 1794.17 1169.8 1794.01 1167.87 1793.84 1166.18 1795.28 1166.01 1797.21 1165.85 1799.13 1167.28 1800.83 1169.2 1800.99Z" fill="#EAB054" fill-rule="evenodd"/><path d="M1257.2 1791.99C1259.13 1792.16 1260.82 1790.72 1260.99 1788.79 1261.15 1786.87 1259.72 1785.17 1257.8 1785.01 1255.87 1784.85 1254.18 1786.28 1254.01 1788.2 1253.85 1790.13 1255.28 1791.83 1257.2 1791.99Z" fill="#EAB054" fill-rule="evenodd"/><path d="M1223.2 1435.99C1225.13 1436.15 1226.82 1434.72 1226.99 1432.8 1227.15 1430.87 1225.72 1429.17 1223.8 1429.01 1221.87 1428.84 1220.18 1430.28 1220.01 1432.21 1219.85 1434.13 1221.28 1435.83 1223.2 1435.99Z" fill="#EAB054" fill-rule="evenodd"/><path d="M1379.02 1549.9C1379.25 1551.82 1380.98 1553.2 1382.9 1552.98 1384.82 1552.74 1386.2 1551.01 1385.98 1549.09 1385.75 1547.18 1384.01 1545.8 1382.1 1546.02 1380.18 1546.24 1378.8 1547.99 1379.02 1549.9Z" fill="#EAB054" fill-rule="evenodd"/><path d="M1400.02 1585.9C1400.25 1587.82 1401.99 1589.2 1403.9 1588.98 1405.82 1588.76 1407.2 1587.01 1406.98 1585.1 1406.75 1583.18 1405.02 1581.8 1403.1 1582.02 1401.18 1582.24 1399.8 1583.99 1400.02 1585.9Z" fill="#EAB054" fill-rule="evenodd"/><path d="M1522.02 1752.9C1522.25 1754.83 1523.98 1756.21 1525.9 1755.97 1527.82 1755.75 1529.2 1754.02 1528.98 1752.09 1528.75 1750.18 1527.02 1748.8 1525.1 1749.02 1523.18 1749.24 1521.8 1750.99 1522.02 1752.9Z" fill="#EAB054" fill-rule="evenodd"/><path d="M1516.02 1521.9C1516.25 1523.83 1517.99 1525.21 1519.9 1524.97 1521.82 1524.75 1523.2 1523.02 1522.98 1521.09 1522.75 1519.18 1521.01 1517.8 1519.09 1518.02 1517.18 1518.24 1515.8 1519.99 1516.02 1521.9Z" fill="#EAB054" fill-rule="evenodd"/><path d="M1330.02 1349.9C1330.25 1351.82 1331.98 1353.2 1333.9 1352.98 1335.82 1352.74 1337.2 1351.01 1336.98 1349.09 1336.75 1347.18 1335.01 1345.8 1333.1 1346.02 1331.18 1346.24 1329.8 1347.99 1330.02 1349.9Z" fill="#EAB054" fill-rule="evenodd"/><path d="M1022.96 1823 1009 1770.69 1015.04 1770 1029 1822.31Z" fill="#EAB054" fill-rule="evenodd" fill-opacity="0.6"/><path d="M1110.05 1813 1053 1595.51 1058.74 1594 1116 1812.31Z" fill="#EAB054" fill-rule="evenodd" fill-opacity="0.6"/><path d="M865 1610.52 870.77 1609 930 1834.31 924.015 1835Z" fill="#EAB054" fill-rule="evenodd" fill-opacity="0.6"/><path d="M791 1622.12 793.123 1640 880 1630.08 862.116 1614Z" fill="#9E4233" fill-rule="evenodd"/><path d="M1069.35 1274.77 1307.78 1247 1321 1263.9 1103.91 1604.09 830 1636Z" fill="#9E4233" fill-rule="evenodd"/><path d="M791 1622 1078.76 1588.52 1308 1247 1020.24 1280.47Z" fill="#B75742" fill-rule="evenodd"/><path d="M791 1622 1078.76 1588.52 1308 1247 1020.24 1280.47Z" fill="#B75742" fill-rule="evenodd"/><path d="M1147.62 1486.46 859 1522 863.384 1515.53 1152 1480Z" fill="#F7CC7F" fill-rule="evenodd" fill-opacity="0.501961"/><path d="M1184.62 1430.61 896 1467 900.384 1460.39 1189 1424Z" fill="#F7CC7F" fill-rule="evenodd" fill-opacity="0.501961"/><path d="M1221.62 1375.61 933 1412 937.384 1405.39 1226 1369Z" fill="#F7CC7F" fill-rule="evenodd" fill-opacity="0.501961"/><path d="M1258.62 1320.63 970 1357 974.383 1350.39 1263 1314Z" fill="#F7CC7F" fill-rule="evenodd" fill-opacity="0.501961"/><path d="M1110.62 1541.46 822 1577 826.384 1570.53 1115 1535Z" fill="#F7CC7F" fill-rule="evenodd" fill-opacity="0.501961"/><path d="M717 1815.61C717 1815.61 1864.16 1598.24 3588 1815.61L3588 2013 718.422 2001.65 717 1815.61Z" fill="url(#fill5)" fill-rule="evenodd"/><path d="M717 1815 3588 1815 3588 2303 717 2303Z" fill="url(#fill6)" fill-rule="evenodd"/><path d="M3494.95 1997.91C3495.92 1976.44 3500.31 1955.15 3499.93 1933.67 3499.56 1912.82 3494.72 1892.35 3489.9 1872.07 3484.62 1849.86 3479.33 1827.63 3474.04 1805.42 3470.75 1791.59 3467.45 1777.68 3466.48 1763.48 3464.36 1732.95 3473.07 1702.17 3468.57 1671.9 3466.62 1658.8 3462.25 1646.16 3460.6 1633.04 3459.65 1625.53 3459.73 1617.62 3461.56 1610.33 3463.51 1602.49 3473.59 1600.38 3478.56 1606.74 3489.76 1621.01 3498.58 1637.24 3499.71 1655.15 3500.38 1665.9 3498.23 1676.6 3497.27 1687.32 3493.04 1735.07 3512.55 1782.11 3511.9 1830.06 3511.7 1844.52 3509.67 1859.16 3512.42 1873.37 3518.99 1907.39 3551.33 1932.1 3557.06 1966.27 3561.75 1994.28 3547.48 2021.83 3545.49 2050.17 3544.38 2066.02 3547.14 2082 3545.67 2097.84 3544.53 2110.14 3538.85 2126.1 3524.1 2126 3510.1 2125.91 3511.51 2114.11 3509.62 2103.6 3503.26 2068.07 3493.27 2034.51 3494.95 1997.91Z" fill="url(#fill7)" fill-rule="evenodd"/><path d="M3469.13 2023.26C3467.21 2012.67 3466.45 2001.75 3462.52 1991.74 3459.19 1983.29 3453.74 1975.88 3449.23 1967.99 3440.76 1953.22 3435.62 1936.82 3430.54 1920.57 3421.3 1891.03 3412.06 1861.49 3402.83 1831.96 3388.46 1786.04 3374.06 1739.99 3354.34 1696.12 3348.87 1683.94 3342.83 1670.77 3345.77 1657.73 3346.39 1655 3348.14 1651.81 3350.95 1652.01 3352.94 1652.15 3354.34 1653.97 3355.45 1655.64 3386.92 1702.91 3407.48 1757.02 3440.95 1802.88 3448.97 1813.87 3457.77 1824.46 3463.51 1836.8 3470.4 1851.61 3472.52 1868.12 3475.91 1884.1 3480.78 1907.04 3488.49 1929.47 3500.02 1949.88 3506.06 1960.55 3513.14 1970.7 3517.77 1982.05 3523.53 1996.21 3525.23 2011.64 3527.37 2026.78 3531.48 2055.9 3537.42 2084.76 3545.14 2113.12 3549.68 2129.8 3535.41 2132.76 3523.56 2124.7 3515.27 2119.05 3513.44 2111.1 3509.03 2102.67 3494.59 2074.93 3474.99 2055.68 3469.13 2023.26Z" fill="url(#fill8)" fill-rule="evenodd"/><path d="M3424.1 2074.96C3426.97 2084.57 3427.92 2095.13 3433.87 2103.19 3437.66 2108.34 3443.15 2111.93 3447.96 2116.16 3464.82 2131.01 3475.46 2155.22 3497.23 2160.63 3498.66 2160.99 3500.23 2161.24 3501.57 2160.63 3503.47 2159.79 3504.31 2157.56 3504.67 2155.51 3506.76 2143.28 3498.45 2132.06 3492.51 2121.18 3491.47 2119.27 3490.46 2117.1 3490.99 2115 3491.56 2112.68 3493.77 2111.2 3495.04 2109.19 3497.58 2105.17 3495.99 2099.91 3494.24 2095.47 3489.85 2084.42 3484.84 2073.61 3479.21 2063.14 3476.01 2057.19 3472.54 2051.26 3467.59 2046.7 3462.15 2041.66 3455.26 2038.59 3448.67 2035.19 3419.58 2020.19 3394.58 1997.3 3377.02 1969.59 3373.23 1963.6 3369.57 1957.17 3363.73 1953.16 3357.88 1949.16 3349.01 1948.51 3344.33 1953.83 3341 1957.62 3363.74 1980.14 3366.41 1982.85 3374.04 1990.6 3376.01 1998.47 3381.5 2007.81 3394.97 2030.65 3416.33 2048.87 3424.1 2074.96Z" fill="#3B7D23" fill-rule="evenodd"/><path d="M3445.75 2081.88C3439.96 2073.44 3434.1 2064.9 3430.56 2055.28 3426.63 2044.59 3425.68 2032.92 3421.21 2022.45 3415.46 2008.99 3404.37 1998.61 3397.08 1985.92 3391.82 1976.76 3388.64 1966.57 3384.47 1956.85 3372.55 1929.07 3352.24 1904.01 3349.17 1873.92 3348.51 1867.36 3349.59 1859.29 3355.6 1856.69 3361.03 1854.35 3367.44 1858.31 3370.24 1863.57 3373.05 1868.81 3373.36 1874.98 3374.33 1880.86 3377.05 1897.24 3385.55 1912.6 3397.97 1923.55 3409.89 1934.07 3425.09 1940.49 3436.26 1951.82 3449.97 1965.71 3458.63 1976.94 3468.03 1994.1 3486.72 2028.19 3516.74 2062.32 3530.26 2098.81 3535.64 2113.32 3536.49 2132.34 3524.18 2141.63 3488.59 2168.48 3460.32 2103.1 3445.75 2081.88Z" fill="url(#fill9)" fill-rule="evenodd"/><path d="M3588 2201.12C3572.76 2188.38 3557.71 2178.34 3544.54 2174.06 3490.62 2156.54 3541.45 2226.15 3541.45 2226.15 3541.45 2226.15 3445.76 2121.13 3410.65 2130.6 3378.47 2139.27 3410.65 2204.37 3410.65 2204.37 3410.65 2204.37 3374.41 2168.33 3330.44 2168.33 3315.92 2168.33 3314.7 2183.04 3319.58 2202.76 3334.17 2261.81 3387.43 2303 3448.04 2303L3588 2303 3588 2201.12Z" fill="url(#fill10)" fill-rule="evenodd"/><path d="M3588 2013C3580.76 2024.07 3572.47 2034.85 3568.34 2047.27 3564.24 2059.57 3569.22 2111.09 3588 2116L3588 2013Z" fill="#B75742" fill-rule="evenodd"/><path d="M3588 2077.7C3586.18 2070.3 3583.3 2063.03 3580.58 2056.5 3579.9 2054.85 3579.21 2053.22 3578.53 2051.57 3578 2050.29 3577.47 2049 3577.33 2047.64 3577.08 2045.19 3578.09 2042.84 3578.92 2040.53 3586.53 2019.27 3579.1 1995.86 3579.63 1973.28 3579.96 1958.9 3583.52 1945.08 3588 1931.39L3588 1755C3584.69 1764.14 3581.16 1773.21 3578.92 1782.66 3573.84 1803.98 3575.51 1826.27 3573.36 1848.08 3570.57 1876.28 3561.23 1903.83 3546.27 1927.94 3538.27 1940.83 3528.51 1953.14 3524.82 1967.86 3521.79 1979.97 3523.12 1992.68 3524.67 2005.07 3527.53 2028.14 3530.56 2051.37 3535.08 2074.18 3537.79 2087.88 3541.38 2105.68 3551.82 2115.94 3562.19 2126.13 3575.55 2122.73 3583.79 2111.24 3585.67 2108.63 3587.04 2105.89 3588 2103.07L3588 2077.7Z" fill="url(#fill11)" fill-rule="evenodd"/><path d="M3588 2045.64C3584.3 2043.84 3580.5 2042.29 3576.57 2041.04 3566.2 2037.74 3555.39 2029.68 3547.75 2012.16L3538.75 1990.41C3531.77 1974.42 3513.92 1966.78 3498.86 1973.36 3460.94 1989.92 3444.46 2036.01 3462.04 2076.3L3474.89 2105.76C3480.53 2118.67 3478.57 2132.86 3470.98 2142.88 3464.08 2151.96 3462.95 2164.6 3467.74 2175.56L3474.51 2191.09C3481.85 2207.91 3496.13 2220.36 3513.07 2225.5 3522.97 2228.51 3531.72 2235.94 3536.34 2246.53L3545.93 2268.53C3553.75 2286.44 3570.55 2297.44 3588 2298L3588 2045.64Z" fill="url(#fill12)" fill-rule="evenodd"/><path d="M2421.53 1206.06C2422.21 1206.1 2422.88 1206.08 2423.56 1205.95 2445.23 1202.23 2627.19 1170.86 2634.77 1167.24 2641.61 1163.97 2752 1074.13 2752 1074.13L2694.71 1038 2596.07 1123.87C2589.57 1126.1 2467.87 1163.28 2467.87 1163.28 2467.87 1163.28 2445.74 1170.7 2432.42 1174.27 2429.08 1173.32 2425.92 1172.39 2423.32 1171.53 2417.75 1169.32 2413.11 1166.57 2409.19 1164.07 2404.26 1160.9 2393.61 1155.85 2390.82 1155.33 2387.58 1154.72 2380.85 1153.71 2376.79 1153.15 2372.75 1152.59 2368.02 1151.76 2365.84 1151.72 2364.5 1151.7 2361.78 1150.53 2359.84 1149.62 2356.97 1148.25 2353.9 1151.15 2355.11 1154.1 2356.26 1156.88 2360.09 1158.83 2362.48 1160.03 2369.23 1163.42 2381.17 1164.63 2380.62 1165.63 2380.06 1166.63 2360.28 1171.46 2358.05 1172.15 2355.82 1172.86 2332.86 1178.58 2328.77 1181.17 2324.69 1183.77 2325.62 1186.74 2328.34 1187.35 2330.67 1187.88 2362.98 1182.31 2362.98 1182.31 2362.98 1182.31 2367.1 1181.62 2365.94 1183.53 2364.78 1185.45 2335.45 1190.56 2331.22 1192.13 2326.99 1193.72 2324.9 1196.77 2328.55 1198.97 2332.99 1201.65 2363.95 1194.26 2363.95 1194.26 2363.95 1194.26 2367.85 1193.41 2367.61 1195.12 2367.36 1196.83 2342.33 1200.76 2340.26 1202.22 2338.17 1203.7 2337.62 1207.07 2341.37 1208.38 2345.77 1209.93 2373.36 1203.1 2373.36 1203.1 2373.36 1203.1 2375.61 1203.18 2374.94 1204.29 2374.27 1205.39 2353.18 1210.27 2351.36 1212.58 2349.84 1214.53 2351.56 1215.94 2351.56 1215.94 2354.56 1219.74 2374.41 1212.15 2384.51 1211.48 2394.6 1210.82 2405.6 1205.31 2417.72 1205.84 2418.48 1205.88 2420.34 1205.99 2421.53 1206.06Z" fill="#F6C6AD" fill-rule="evenodd"/><path d="M2769.84 1061.66C2759.62 1098.46 2677.53 1147 2677.53 1147 2677.53 1147 2633.69 1085.14 2630 1067.08 2630 1067.08 2709.56 1019.92 2714.58 1017.16 2737.35 1004.67 2753.67 1013.86 2763.59 1021.13 2771.56 1026.96 2769.84 1061.66 2769.84 1061.66Z" fill="#3C8F7C" fill-rule="evenodd"/><path d="M2726.26 902.031C2726.26 902.031 2726.51 903.395 2726.96 905.716 2729.11 916.853 2737.42 953.797 2743.03 963.955 2749.81 976.229 2719.82 1015.38 2690.96 1010.6 2682.35 1009.18 2698.22 974.63 2697.46 970.97 2696 963.965 2694.02 954.409 2691.99 944.61 2690.86 939.083 2689.69 933.479 2688.6 928.211 2685.52 913.243 2683 901 2683 901L2726.26 902.031Z" fill="#F6C6AD" fill-rule="evenodd"/><path d="M2726.7 905.661C2726.25 903.367 2726.01 902.02 2726.01 902.02L2683 901C2683 901 2685.5 913.097 2688.57 927.886 2689.65 933.062 2690.79 938.568 2691.93 944 2698.56 943.069 2705.49 939.997 2712.45 934.201 2720.04 927.884 2725 920.291 2728 912.185 2727.48 909.597 2727.03 907.367 2726.7 905.661Z" fill="#F2AA84" fill-rule="evenodd"/><path d="M2807.71 1511C2814.49 1512.71 2824.93 1753.59 2830.55 1764.26 2866.14 1831.95 2874.59 2037.73 2874.59 2037.73L2885.21 2067.67 2896 2103.26C2896 2103.26 2860.47 2112.39 2841.83 2102.13L2843.9 2066.71 2845.79 2034.31 2771 1766.34 2771 1516.86 2807.71 1511Z" fill="#F6C6AD" fill-rule="evenodd"/><path d="M2844.09 2067C2860.6 2074.18 2878.38 2069.86 2885.53 2067.56L2887.89 2073.8 2897 2103.47C2897 2103.47 2860.77 2112.25 2842 2102.12L2844.09 2067Z" fill="url(#fill13)" fill-rule="evenodd"/><path d="M2727 1452 2695.5 1732.24C2695.5 1732.24 2710.9 1791.5 2709.04 1808.34 2707.18 1825.17 2674.8 2046.03 2674.8 2046.03L2676.17 2058.41 2676.2 2095 2556 2095C2556 2095 2581.52 2083.63 2617.21 2061.15 2619.85 2059.48 2625.93 2054.18 2627.4 2043.6 2636.93 1975.53 2618.07 1748.47 2618.07 1748.47L2603.22 1452.9 2727 1452Z" fill="#F6C6AD" fill-rule="evenodd"/><path d="M2677.58 2104 2552.82 2104C2548.22 2103.58 2547.08 2099.79 2548.69 2097.47 2551.98 2092.67 2566.53 2089.14 2582.9 2081.5 2611.59 2084.54 2671.79 2064.67 2676.32 2058 2678.94 2071.36 2680.14 2103.43 2677.58 2104Z" fill="url(#fill14)" fill-rule="evenodd"/><path d="M2683 1261.03 2754.34 1766.79 2819.32 2000 2890 2000C2890 2000 2873.59 1812.11 2838.43 1745.56 2838.43 1745.56 2823.08 1567.21 2807.72 1458.13 2805.43 1441.83 2816.78 1399.51 2813.83 1388.57 2791.04 1304.5 2770.96 1259 2770.96 1259L2683 1261.03Z" fill="url(#fill15)" fill-rule="evenodd"/><path d="M2726.95 1479.52 2710.46 1673.89C2710.46 1673.89 2727.32 1784.95 2715.76 1858.65 2704.18 1932.34 2688.86 2000 2688.86 2000L2624 2000 2611.11 1632.96C2611.11 1632.96 2586.18 1433.53 2594.82 1379.45 2603.46 1325.37 2645.44 1253 2645.44 1253L2747.47 1257.67C2747.47 1257.67 2775.14 1356.67 2770.47 1389.9 2766.99 1414.56 2726.95 1479.52 2726.95 1479.52Z" fill="url(#fill16)" fill-rule="evenodd"/><path d="M2771.87 826.563C2781.21 864.992 2730.65 892.896 2690.62 893.916 2664.61 894.579 2652.65 891.914 2648.44 864.563 2641.62 820.2 2659.94 793.156 2685.61 781.964 2718.73 767.521 2764.16 794.86 2771.87 826.563Z" fill-rule="evenodd"/><path d="M2640.45 1043.75C2654.97 1024.02 2714.85 966.884 2721.5 967 2740.9 967.337 2804.55 967.362 2817 973.647L2816.41 1082.42C2814.37 1091.55 2770.43 1233.77 2772.98 1264.9L2772.67 1265.19C2735.84 1300.55 2677.75 1297.78 2644.06 1259.03L2644.06 1259.03C2644.06 1259.03 2644.21 1215.89 2639.02 1176.54 2630.89 1114.89 2604.39 1092.75 2640.45 1043.75Z" fill="#215F9A" fill-rule="evenodd"/><path d="M2831.39 1149.47C2910.93 1125.81 2889.63 1056.29 2889.18 1058.93 2889.42 1056.79 2896.91 1048.03 2900.62 1040.55 2916.06 1009.39 2895.68 971.845 2872.35 958.863 2887.83 919.228 2872.46 881.206 2843.31 865.361 2828.61 857.363 2816.23 845.991 2806.29 832.838 2784.21 803.645 2744.09 774.257 2695.84 783.852 2648.1 795.963 2712.02 823.384 2705.68 868.922 2702.47 892.006 2711.69 888.696 2726.08 907.254 2705.37 943.334 2717.35 1003.9 2749.08 1031.37 2733.52 1096.38 2750.24 1173.63 2831.39 1149.47Z" fill-rule="evenodd"/><path d="M2713.84 805.74C2713.84 805.74 2731.47 811.639 2740.86 829.34 2750.26 847.042 2745.59 903.72 2706.51 922.413 2667.42 941.105 2649.46 898.659 2652.29 867.336 2655.12 836.013 2666.44 795.028 2713.84 805.74Z" fill="#F6C6AD" fill-rule="evenodd"/><path d="M2754.25 872.668C2760.04 843.102 2757.78 820.696 2736.82 809.878 2715.88 799.059 2697.97 788.333 2679.24 807.778L2675 810.173C2675 810.173 2710.37 819.976 2712.34 838.814 2714.31 857.652 2733.12 880.044 2730.22 889.297 2727.32 898.549 2723.98 917 2723.98 917L2731.73 910.613C2731.73 910.613 2748.46 902.234 2754.25 872.668Z" fill-rule="evenodd"/><path d="M2718.29 861.523C2715.37 869.579 2717.58 877.667 2723.22 879.588 2728.85 881.508 2735.79 876.535 2738.71 868.477 2741.63 860.42 2739.43 852.332 2733.79 850.412 2728.15 848.491 2721.21 853.467 2718.29 861.523Z" fill="#F6C6AD" fill-rule="evenodd"/><path d="M2700.78 891 2669 898.675C2669 898.675 2672.67 910.494 2686.74 907.52 2703.89 903.895 2700.78 891 2700.78 891Z" fill="#FFFFFF" fill-rule="evenodd"/><path d="M2661.12 1057.67 2665.18 1188.39C2662.82 1194.84 2614.88 1312.74 2614.88 1312.74 2614.88 1312.74 2601.62 1347.1 2596 1359.8L2630.92 1367C2630.92 1367 2721.27 1192.65 2722.94 1185.71 2724.73 1178.35 2725 1036 2725 1036L2661.12 1057.67Z" fill="#F6C6AD" fill-rule="evenodd"/><path d="M2727.8 1013.8C2749.86 1044.85 2735.27 1139 2735.27 1139 2735.27 1139 2659.36 1134.15 2643 1125.66 2643 1125.66 2657.03 1034.34 2658.09 1028.71 2662.89 1003.21 2680.4 996.328 2692.36 993.192 2701.96 990.675 2727.8 1013.8 2727.8 1013.8Z" fill="#163E64" fill-rule="evenodd"/><path d="M2695.97 1479C2695.75 1474.96 2689.46 1380.06 2595 1380.06 2500.54 1380.06 2494.24 1474.96 2494.01 1479L2483 1478.41C2483.05 1477.32 2489.98 1369 2595 1369 2700.02 1369 2706.95 1477.32 2707 1478.41L2695.97 1479Z" fill="#184655" fill-rule="evenodd"/><path d="M2475 1471 2512.72 1750 2592.4 1750 2597.6 1750 2677.28 1750 2715 1471Z" fill="url(#fill17)" fill-rule="evenodd"/><path d="M2459 1469 2733 1469 2733 1489 2459 1489Z" fill="#3C8F7C" fill-rule="evenodd"/><path d="M2631 1366.57C2615.97 1359.62 2598.44 1351 2598.44 1351 2593.5 1352.33 2577.04 1358.39 2570.06 1361.29 2568.12 1362.09 2566.42 1363.3 2565 1364.83 2561.87 1368.23 2556 1374.59 2556 1374.59L2565.18 1373.82C2568.03 1373.58 2570.63 1375.71 2570.97 1378.57L2570.99 1378.63C2571.33 1381.53 2570.69 1384.39 2570.03 1387.34 2569.16 1391.19 2569.4 1395.52 2570.17 1399.43 2570.92 1403.27 2573.95 1405.48 2578.11 1405.44 2580.67 1405.42 2583.44 1404.68 2585.74 1405.44 2589.71 1406.74 2625.13 1406.13 2628.08 1399.77 2629.54 1396.58 2631.15 1380 2630.72 1373.47 2630.55 1371.14 2630.67 1368.81 2631 1366.57Z" fill="#F6C6AD" fill-rule="evenodd"/><path d="M2232.21 2133C2232.21 2133 2216.46 2193.74 2218.52 2196.46 2220.57 2199.2 2202.75 2212.88 2200 2218.36 2200 2218.36 2215.78 2209.24 2222.4 2208.56 2229.03 2207.86 2254.17 2219.96 2280 2222 2280 2222 2262.63 2216.98 2254.4 2211.06 2246.17 2205.14 2236.57 2204.22 2237.71 2203.76 2238.86 2203.3 2251.89 2201.72 2264.92 2205.36 2277.94 2209 2296 2204.9 2296 2204.9 2296 2204.9 2273.38 2203.08 2264 2199.66 2254.63 2196.24 2230.86 2196.7 2230.86 2196.7L2245.27 2134.51 2232.21 2133Z" fill="#EE944C" fill-rule="evenodd"/><path d="M2309 2136.75C2309 2136.75 2339.65 2189.68 2341.71 2192.43 2343.77 2195.17 2325.97 2208.87 2323.25 2214.34 2323.25 2214.34 2338.97 2205.21 2345.59 2204.52 2352.19 2203.84 2377.27 2215.94 2403.04 2218 2403.04 2218 2385.71 2212.97 2377.51 2207.04 2369.3 2201.1 2359.73 2200.19 2360.87 2199.73 2362.01 2199.28 2375 2197.68 2387.99 2201.34 2400.98 2204.98 2419 2200.88 2419 2200.88 2419 2200.88 2396.43 2199.05 2387.08 2195.63 2377.73 2192.2 2354.01 2192.65 2354.01 2192.65L2325.37 2135 2309 2136.75Z" fill="#EE944C" fill-rule="evenodd"/><path d="M2273 2113.69C2273 2113.69 2286.58 2144.4 2305.14 2145.22 2323.71 2146.04 2327.79 2152.87 2336.4 2141.48 2345 2130.09 2361.29 2096.83 2373.07 2083.62 2384.85 2070.4 2281.15 2096.37 2273 2113.69Z" fill="#933B2C" fill-rule="evenodd"/><path d="M2422.83 1852.7C2422.83 1852.7 2401.98 1854.05 2380.68 1887.13 2359.37 1920.2 2348.49 1941.95 2327.19 1944.21 2305.89 1946.48 2270.98 1934.24 2245.6 1936.06 2220.2 1937.87 2197.1 1928.35 2183.03 1909.78 2168.98 1891.2 2135.45 1873.54 2125.46 1885.31 2115.49 1897.09 2125.46 1922.92 2125.46 1922.92 2125.46 1922.92 2114.13 1924.27 2124.1 1941.95 2134.08 1959.61 2138.17 1964.14 2138.17 1964.14 2138.17 1964.14 2125.02 1958.7 2132.27 1974.1 2139.53 1989.52 2149.94 1998.57 2149.94 1998.57 2149.94 1998.57 2139.97 1998.57 2152.66 2015.78 2152.66 2015.78 2142.7 2028.02 2162.65 2030.28 2162.65 2030.28 2160.83 2042.97 2168.08 2051.57 2168.08 2051.57 2163.55 2075.59 2175.34 2088.72 2187.11 2101.86 2217.94 2129.5 2227.46 2136.29 2236.98 2143.1 2246.5 2148.53 2258.74 2142.18 2270.98 2135.85 2299.53 2102.32 2326.73 2096.88 2353.93 2091.45 2387.48 2095.98 2414.67 2057.46 2441.87 2018.96 2461.37 1949.2 2447.31 1922.92 2433.26 1896.64 2476.32 1845.45 2422.83 1852.7Z" fill="url(#fill18)" fill-rule="evenodd"/><path d="M2460.98 1876C2461.59 1875.93 2473.47 1877.59 2481 1894 2481 1894 2458.71 1889.61 2454.14 1889.7 2449.57 1889.77 2453.68 1879.64 2454.14 1879.4 2454.6 1879.18 2460.98 1876 2460.98 1876Z" fill="#B75742" fill-rule="evenodd"/><path d="M2459.28 1867.82C2459.28 1867.82 2452.65 1855.05 2441.81 1857.92 2430.96 1860.79 2435.02 1872.44 2436.08 1874.26 2437.13 1876.06 2439.54 1881.52 2435.77 1882.88 2432.02 1884.24 2422.68 1874.7 2421.16 1877.27 2419.66 1879.85 2420.41 1898.15 2432.17 1896.02 2443.92 1893.91 2433.37 1899.66 2434.43 1909.04 2435.48 1918.41 2438.5 1928.1 2450.84 1919.93 2463.2 1911.76 2457.17 1889.07 2457.32 1883.93 2457.47 1878.8 2468.01 1881.36 2474.8 1876.83 2481.58 1872.29 2481.58 1852.02 2475.7 1846.58 2469.82 1841.13 2464.85 1834.93 2459.28 1829.79 2453.71 1824.65 2453.71 1820.26 2442.71 1823.43 2431.71 1826.61 2417.25 1815.27 2410.32 1825.1 2403.39 1834.93 2401.13 1843.55 2408.82 1848.39 2416.5 1853.23 2419.72 1853.3 2419.72 1853.3 2419.72 1853.3 2445.88 1848.23 2459.28 1867.82Z" fill="#F47458" fill-rule="evenodd"/><path d="M2385 1975C2385 1975 2379.32 2044.36 2342.08 2047.99 2304.85 2051.61 2269.19 2077.01 2245.59 2071.12 2221.97 2065.22 2206.07 2056.83 2197 2025.33 2197 2025.33 2207.89 2055.25 2232.87 2059.78 2257.84 2064.32 2290.77 2045.95 2305.98 2044.36 2321.2 2042.78 2340.7 2044.01 2351.85 2035.3 2379.12 2013.99 2381.86 1988.38 2385 1975Z" fill="#933B2C" fill-rule="evenodd"/><path d="M1525.13 2000.66C1525.13 2000.66 1521.05 2053.22 1523.17 2055.18 1525.29 2057.14 1512.47 2071.07 1511 2076 1511 2076 1522.79 2066.13 1528.21 2064.6 1533.63 2063.06 1556.38 2069.36 1578.21 2067.26 1578.21 2067.26 1562.99 2065.66 1555.25 2061.97 1547.51 2058.28 1539.37 2058.93 1540.26 2058.39 1541.14 2057.85 1551.76 2054.6 1563.16 2055.7 1574.56 2056.81 1589 2050.76 1589 2050.76 1589 2050.76 1569.87 2052.58 1561.55 2051.13 1553.23 2049.67 1533.49 2053.55 1533.49 2053.55L1536.24 2000 1525.13 2000.66Z" fill="#B75742" fill-rule="evenodd"/><path d="M1583 1976C1583 1976 1601.41 2024 1602.75 2026.56 1604.09 2029.1 1587.43 2038.06 1584.41 2042.24 1584.41 2042.24 1598.74 2036.79 1604.34 2037.11 1609.94 2037.43 1629.21 2050.82 1650.4 2056 1650.4 2056 1636.64 2049.5 1630.6 2043.47 1624.56 2037.45 1616.71 2035.41 1617.72 2035.18 1618.73 2034.96 1629.77 2035.38 1640.11 2040.16 1650.44 2044.93 1666 2043.95 1666 2043.95 1666 2043.95 1647.44 2039.4 1640.12 2035.3 1632.79 2031.21 1612.97 2028.4 1612.97 2028.4L1596.87 1976.75 1583 1976Z" fill="#B75742" fill-rule="evenodd"/><path d="M1555 1951.79C1555 1951.79 1562.24 1979.45 1577.7 1982.68 1593.16 1985.91 1595.65 1992.21 1604.4 1983.82 1613.15 1975.42 1631.31 1949.72 1642.97 1940.23 1654.62 1930.74 1564.17 1938.36 1555 1951.79Z" fill="#EB753B" fill-rule="evenodd"/><path d="M1642.92 1737.48C1642.92 1737.48 1625.67 1741.71 1612.78 1772.52 1599.88 1803.32 1594.02 1823.1 1576.53 1828.18 1559.04 1833.23 1528.01 1828.2 1507.04 1833.49 1486.07 1838.79 1465.31 1834.28 1450.78 1820.85 1436.24 1807.42 1405.54 1797.65 1398.95 1808.97 1392.36 1820.3 1404.56 1840.39 1404.56 1840.39 1404.56 1840.39 1395.28 1843.22 1406.26 1856.5 1417.24 1869.77 1421.33 1872.94 1421.33 1872.94 1421.33 1872.94 1409.52 1870.37 1417.89 1882.15 1426.26 1893.95 1436.33 1899.97 1436.33 1899.97 1436.33 1899.97 1427.99 1901.45 1441.18 1913.95 1441.18 1913.95 1434.66 1925.65 1451.68 1924.58 1451.68 1924.58 1452.06 1935.45 1459.41 1941.56 1459.41 1941.56 1459.2 1962.3 1471.02 1971.52 1482.85 1980.75 1512.76 1999.24 1521.74 2003.5 1530.72 2007.77 1539.5 2010.89 1548.79 2003.77 1558.09 1996.65 1576.98 1964.4 1598.93 1955.81 1620.88 1947.22 1649.62 1946.01 1666.64 1909.79 1683.65 1873.56 1689.55 1812.37 1673.87 1792.51 1658.2 1772.65 1686.59 1723.46 1642.92 1737.48Z" fill="url(#fill19)" fill-rule="evenodd"/><path d="M1677.9 1751.04C1678.39 1750.89 1688.39 1750.54 1697 1762.6 1697 1762.6 1678.03 1762.25 1674.29 1762.96 1670.55 1763.67 1672.43 1754.98 1672.78 1754.73 1673.12 1754.49 1677.9 1751.04 1677.9 1751.04Z" fill="#F9A653" fill-rule="evenodd"/><path d="M1675.25 1744.47C1675.25 1744.47 1667.84 1734.8 1659.25 1738.82 1650.65 1742.83 1655.75 1751.94 1656.9 1753.28 1658.04 1754.64 1660.85 1758.82 1657.92 1760.52 1654.99 1762.21 1645.81 1755.66 1644.94 1758.03 1644.06 1760.4 1647.39 1775.54 1656.85 1772.03 1666.32 1768.51 1658.39 1774.88 1660.65 1782.53 1662.92 1790.19 1666.85 1797.81 1675.92 1789.17 1684.99 1780.51 1676.63 1762.5 1675.99 1758.19 1675.36 1753.88 1684.51 1754.46 1689.48 1749.66 1694.45 1744.86 1691.46 1727.97 1685.77 1724.31 1680.08 1720.65 1675.03 1716.22 1669.63 1712.77 1664.23 1709.32 1663.59 1705.65 1654.91 1709.94 1646.23 1714.23 1632.52 1706.94 1628.21 1716.16 1623.9 1725.38 1623.29 1732.9 1630.4 1735.8 1637.5 1738.69 1640.2 1738.27 1640.2 1738.27 1640.2 1738.27 1661.2 1730.14 1675.25 1744.47Z" fill="#B75742" fill-rule="evenodd"/><path d="M1628.6 1845C1628.6 1845 1634.2 1904.34 1603.62 1912.99 1573.05 1921.62 1547.04 1948.38 1526.43 1946.94 1505.82 1945.52 1491.29 1940.84 1479 1915.63 1479 1915.63 1492.57 1939.22 1514.12 1939.31 1535.66 1939.38 1560.44 1918.96 1572.91 1915.34 1585.39 1911.72 1601.87 1909.84 1609.89 1900.81 1629.5 1878.76 1627.97 1856.76 1628.6 1845Z" fill="#EB753B" fill-rule="evenodd"/><path d="M2352.54 1775C2352.54 1775 2362.54 1813.89 2361.23 1815.64 2359.93 1817.41 2371.26 1826.15 2373 1829.67 2373 1829.67 2362.98 1823.82 2358.77 1823.39 2354.56 1822.95 2338.58 1830.68 2322.17 1832 2322.17 1832 2333.2 1828.79 2338.43 1824.99 2343.67 1821.19 2349.77 1820.61 2349.04 1820.32 2348.31 1820.02 2340.04 1819.01 2331.75 1821.34 2323.47 1823.67 2312 1821.05 2312 1821.05 2312 1821.05 2326.38 1819.89 2332.33 1817.69 2338.28 1815.51 2353.4 1815.79 2353.4 1815.79L2344.23 1775.98 2352.54 1775Z" fill="#EE944C" fill-rule="evenodd"/><path d="M2303 1777.13C2303 1777.13 2283.49 1810.92 2282.18 1812.68 2280.88 1814.43 2292.2 1823.18 2293.94 1826.67 2293.94 1826.67 2283.92 1820.83 2279.72 1820.4 2275.51 1819.97 2259.55 1827.69 2243.15 1829 2243.15 1829 2254.19 1825.79 2259.4 1822 2264.63 1818.22 2270.73 1817.64 2270 1817.34 2269.27 1817.04 2261 1816.03 2252.73 1818.36 2244.46 1820.7 2233 1818.07 2233 1818.07 2233 1818.07 2247.37 1816.91 2253.31 1814.71 2259.26 1812.53 2274.35 1812.82 2274.35 1812.82L2292.58 1776 2303 1777.13Z" fill="#EE944C" fill-rule="evenodd"/><path d="M2326 1763.3C2326 1763.3 2317.4 1782.74 2305.63 1783.24 2293.87 1783.76 2291.29 1788.08 2285.84 1780.88 2280.38 1773.68 2270.05 1752.64 2262.59 1744.29 2255.13 1735.93 2320.84 1752.36 2326 1763.3Z" fill="#C5D0E2" fill-rule="evenodd"/><path d="M2295.65 1654.38C2309.38 1654.14 2328.88 1647.94 2343.49 1648.98 2359.76 1650.14 2374.58 1644.05 2383.59 1632.13 2392.6 1620.21 2414.11 1608.88 2420.5 1616.44 2426.89 1624 2420.5 1640.55 2420.5 1640.55 2420.5 1640.55 2427.76 1641.43 2421.37 1652.76 2414.97 1664.09 2412.36 1667 2412.36 1667 2412.36 1667 2420.79 1663.51 2416.14 1673.4 2411.49 1683.27 2404.8 1689.08 2404.8 1689.08 2404.8 1689.08 2411.19 1689.08 2403.07 1700.12 2403.07 1700.12 2409.46 1707.98 2396.67 1709.43 2396.67 1709.43 2397.84 1717.57 2393.18 1723.08 2393.18 1723.08 2396.09 1738.48 2388.53 1746.9 2380.97 1755.34 2361.21 1773.06 2355.12 1777.42 2349.01 1781.78 2342.91 1785.26 2335.07 1781.2 2327.21 1777.13 2308.91 1755.63 2291.47 1752.13 2274.99 1748.85 2254.88 1751.24 2238 1730.66L2295.65 1654.38Z" fill="#E9EEF6" fill-rule="evenodd"/><path d="M2195.7 1679.37C2195.4 1660.27 2155.27 1644.95 2187.56 1632.37 2187.56 1632.37 2199.68 1626.65 2221.96 1638.57 2244.23 1650.49 2298 1654.63 2298 1654.63L2273.36 1750C2268.01 1749.34 2262.26 1747.71 2255.97 1744.68 2228.71 1731.55 2196.01 1698.48 2195.7 1679.37Z" fill="#E9EEF6" fill-rule="evenodd"/><path d="M2175.49 1663.2C2175.13 1663.35 2169.21 1667.82 2170.09 1679 2170.09 1679 2180.85 1669.92 2183.33 1668.6 2185.83 1667.26 2180.55 1662.99 2180.23 1663 2179.91 1663.01 2175.49 1663.2 2175.49 1663.2Z" fill="#FFD9B3" fill-rule="evenodd"/><path d="M2173.89 1657.58C2173.89 1657.58 2173.66 1648.41 2180.56 1646.65 2187.46 1644.89 2188.78 1652.62 2188.75 1653.96 2188.72 1655.3 2189.05 1659.07 2191.56 1658.66 2194.07 1658.26 2196.33 1650.06 2197.96 1651.02 2199.59 1651.98 2204.79 1662.39 2197.6 1664.87 2190.43 1667.33 2198.06 1667.25 2200.34 1672.79 2202.63 1678.34 2203.94 1684.66 2194.57 1683.94 2185.21 1683.23 2181.59 1668.74 2179.92 1665.92 2178.26 1663.12 2173.19 1667.82 2168.04 1667.39 2162.88 1666.97 2156.66 1655.7 2158.25 1650.84 2159.84 1646 2160.7 1641 2162.22 1636.42 2163.74 1631.83 2162.39 1629.39 2169.47 1627.74 2176.55 1626.1 2181.1 1615.31 2187.96 1618.63 2194.83 1621.94 2198.73 1626.04 2195.95 1631.11 2193.16 1636.2 2191.4 1637.23 2191.4 1637.23 2191.4 1637.23 2175.32 1642.52 2173.89 1657.58Z" fill="#F47458" fill-rule="evenodd"/><path d="M2255 1674C2255 1674 2258.62 1718.34 2282.39 1720.66 2306.16 1722.97 2328.91 1739.2 2343.99 1735.44 2359.06 1731.67 2369.2 1726.31 2375 1706.17 2375 1706.17 2368.05 1725.29 2352.11 1728.18 2336.17 1731.09 2315.14 1719.35 2305.43 1718.34 2295.73 1717.32 2283.28 1718.1 2276.16 1712.54 2258.75 1698.93 2257 1682.56 2255 1674Z" fill="#C5D0E2" fill-rule="evenodd"/><path d="M1647.51 2104C1647.51 2104 1633.57 2158.59 1635.39 2161.05 1637.21 2163.51 1621.43 2175.81 1619 2180.73 1619 2180.73 1632.96 2172.53 1638.83 2171.92 1644.7 2171.29 1666.97 2182.16 1689.83 2184 1689.83 2184 1674.45 2179.5 1667.17 2174.17 1659.88 2168.84 1651.38 2168.02 1652.39 2167.61 1653.41 2167.2 1664.94 2165.77 1676.48 2169.04 1688.01 2172.33 1704 2168.63 1704 2168.63 1704 2168.63 1683.96 2167 1675.67 2163.92 1667.37 2160.84 1646.32 2161.25 1646.32 2161.25L1659.08 2105.36 1647.51 2104Z" fill="#EE944C" fill-rule="evenodd"/><path d="M1717 2107.57C1717 2107.57 1744.31 2154.76 1746.14 2157.2 1747.97 2159.64 1732.13 2171.85 1729.69 2176.74 1729.69 2176.74 1743.7 2168.6 1749.59 2167.99 1755.48 2167.38 1777.83 2178.17 1800.78 2180 1800.78 2180 1785.34 2175.53 1778.03 2170.22 1770.72 2164.93 1762.19 2164.12 1763.2 2163.71 1764.22 2163.3 1775.8 2161.88 1787.38 2165.14 1798.95 2168.39 1815 2164.74 1815 2164.74 1815 2164.74 1794.89 2163.1 1786.56 2160.05 1778.24 2157 1757.11 2157.41 1757.11 2157.41L1731.59 2106 1717 2107.57Z" fill="#EE944C" fill-rule="evenodd"/><path d="M1684 2087.22C1684 2087.22 1696.11 2114.77 1712.65 2115.5 1729.19 2116.24 1732.82 2122.38 1740.49 2112.16 1748.15 2101.94 1762.68 2072.1 1773.17 2060.25 1783.66 2048.39 1691.26 2071.69 1684 2087.22Z" fill="#C5D0E2" fill-rule="evenodd"/><path d="M1726.4 1935.4C1707.22 1935.06 1679.95 1926.4 1659.54 1927.86 1636.79 1929.48 1616.08 1920.95 1603.48 1904.32 1590.89 1887.68 1560.83 1871.85 1551.9 1882.41 1542.96 1892.96 1551.9 1916.08 1551.9 1916.08 1551.9 1916.08 1541.74 1917.31 1550.68 1933.12 1559.62 1948.95 1563.27 1953.01 1563.27 1953.01 1563.27 1953.01 1551.49 1948.14 1557.99 1961.94 1564.49 1975.73 1573.83 1983.85 1573.83 1983.85 1573.83 1983.85 1564.9 1983.85 1576.27 1999.28 1576.27 1999.28 1567.33 2010.22 1585.21 2012.25 1585.21 2012.25 1583.58 2023.61 1590.08 2031.32 1590.08 2031.32 1586.02 2052.83 1596.58 2064.6 1607.14 2076.36 1634.76 2101.12 1643.29 2107.21 1651.82 2113.29 1660.35 2118.16 1671.32 2112.49 1682.29 2106.8 1707.88 2076.77 1732.25 2071.9 1755.29 2067.29 1783.41 2070.65 1807 2041.91L1726.4 1935.4Z" fill="#E9EEF6" fill-rule="evenodd"/><path d="M1867.04 1969.89C1867.47 1943.08 1923.59 1921.58 1878.44 1903.93 1878.44 1903.93 1861.48 1895.89 1830.33 1912.62 1799.19 1929.35 1724 1935.15 1724 1935.15L1758.45 2069C1765.93 2068.07 1773.98 2065.78 1782.76 2061.54 1820.9 2043.11 1866.62 1996.7 1867.04 1969.89Z" fill="#E9EEF6" fill-rule="evenodd"/><path d="M1895.17 1946.3C1895.67 1946.51 1904.13 1952.92 1902.87 1969 1902.87 1969 1887.52 1955.96 1883.95 1954.04 1880.39 1952.14 1887.95 1945.99 1888.4 1946 1888.85 1946.02 1895.17 1946.3 1895.17 1946.3Z" fill="#EE944C" fill-rule="evenodd"/><path d="M1897.6 1939.76C1897.6 1939.76 1897.95 1926.85 1888.22 1924.36 1878.49 1921.88 1876.63 1932.78 1876.67 1934.67 1876.71 1936.55 1876.25 1941.86 1872.71 1941.29 1869.17 1940.71 1865.99 1929.17 1863.7 1930.53 1861.41 1931.88 1854.08 1946.56 1864.19 1950.03 1874.3 1953.5 1863.56 1953.4 1860.33 1961.21 1857.1 1969.02 1855.27 1977.93 1868.47 1976.92 1881.67 1975.91 1886.76 1955.49 1889.11 1951.54 1891.45 1947.56 1898.59 1954.19 1905.85 1953.6 1913.12 1953 1921.88 1937.11 1919.64 1930.28 1917.4 1923.44 1916.19 1916.42 1914.06 1909.95 1911.92 1903.48 1913.82 1900.04 1903.84 1897.72 1893.86 1895.42 1887.45 1880.21 1877.78 1884.89 1868.11 1889.57 1862.61 1895.33 1866.53 1902.48 1870.45 1909.63 1872.93 1911.1 1872.93 1911.1 1872.93 1911.1 1895.58 1918.55 1897.6 1939.76Z" fill="#F47458" fill-rule="evenodd"/><path d="M1784 1963C1784 1963 1778.93 2025.22 1745.65 2028.48 1712.38 2031.72 1680.52 2054.5 1659.42 2049.21 1638.32 2043.92 1624.12 2036.4 1616 2008.14 1616 2008.14 1625.74 2034.98 1648.06 2039.04 1670.38 2043.11 1699.8 2026.64 1713.39 2025.22 1726.99 2023.8 1744.41 2024.9 1754.38 2017.08 1778.75 1997.97 1781.19 1975.01 1784 1963Z" fill="#C5D0E2" fill-rule="evenodd"/><path d="M2362 1257.01C2362 1258.66 2360.66 1260 2359 1260 2357.34 1260 2356 1258.66 2356 1257.01 2356 1255.34 2357.34 1254 2359 1254 2360.66 1254 2362 1255.34 2362 1257.01Z" fill="#C04F15" fill-rule="evenodd"/><path d="M2393 1187.5C2393 1189.43 2391.44 1191 2389.51 1191 2387.56 1191 2386 1189.43 2386 1187.5 2386 1185.57 2387.56 1184 2389.51 1184 2391.44 1184 2393 1185.57 2393 1187.5Z" fill="#F8C48B" fill-rule="evenodd"/><path d="M2414 1192.01C2414 1193.66 2412.44 1195 2410.51 1195 2408.56 1195 2407 1193.66 2407 1192.01 2407 1190.34 2408.56 1189 2410.51 1189 2412.44 1189 2414 1190.34 2414 1192.01Z" fill="#F8C48B" fill-rule="evenodd"/><path d="M2399 1175.51C2399 1177.44 2397.66 1179 2396 1179 2394.34 1179 2393 1177.44 2393 1175.51 2393 1173.56 2394.34 1172 2396 1172 2397.66 1172 2399 1173.56 2399 1175.51Z" fill="#F8C48B" fill-rule="evenodd"/><path d="M2379 1182C2379 1183.66 2377.66 1185 2376 1185 2374.34 1185 2373 1183.66 2373 1182 2373 1180.34 2374.34 1179 2376 1179 2377.66 1179 2379 1180.34 2379 1182Z" fill="#F8C48B" fill-rule="evenodd"/><path d="M2414 1249.99C2414 1251.65 2412.44 1253 2410.51 1253 2408.56 1253 2407 1251.65 2407 1249.99 2407 1248.34 2408.56 1247 2410.51 1247 2412.44 1247 2414 1248.34 2414 1249.99Z" fill="#C04F15" fill-rule="evenodd"/><path d="M2393 1294.01C2393 1295.66 2391.44 1297 2389.51 1297 2387.56 1297 2386 1295.66 2386 1294.01 2386 1292.34 2387.56 1291 2389.51 1291 2391.44 1291 2393 1292.34 2393 1294.01Z" fill="#C04F15" fill-rule="evenodd"/><path d="M2373 1354.5C2373 1356.43 2371.66 1358 2370.01 1358 2368.34 1358 2367 1356.43 2367 1354.5 2367 1352.57 2368.34 1351 2370.01 1351 2371.66 1351 2373 1352.57 2373 1354.5Z" fill="#C04F15" fill-rule="evenodd"/><path d="M2406 1414C2406 1415.66 2404.43 1417 2402.5 1417 2400.57 1417 2399 1415.66 2399 1414 2399 1412.34 2400.57 1411 2402.5 1411 2404.43 1411 2406 1412.34 2406 1414Z" fill="#C04F15" fill-rule="evenodd"/><path d="M2460 1328C2460 1329.66 2458.66 1331 2457.01 1331 2455.34 1331 2454 1329.66 2454 1328 2454 1326.34 2455.34 1325 2457.01 1325 2458.66 1325 2460 1326.34 2460 1328Z" fill="#C04F15" fill-rule="evenodd"/><path d="M2420 1225.99C2420 1227.66 2418.66 1229 2417 1229 2415.34 1229 2414 1227.66 2414 1225.99 2414 1224.34 2415.34 1223 2417 1223 2418.66 1223 2420 1224.34 2420 1225.99Z" fill="#C04F15" fill-rule="evenodd"/><path d="M2349 1310C2349 1311.66 2347.66 1313 2345.99 1313 2344.34 1313 2343 1311.66 2343 1310 2343 1308.34 2344.34 1307 2345.99 1307 2347.66 1307 2349 1308.34 2349 1310Z" fill="#C04F15" fill-rule="evenodd"/><path d="M2420 1333.99C2420 1335.66 2418.66 1337 2417 1337 2415.34 1337 2414 1335.66 2414 1333.99 2414 1332.34 2415.34 1331 2417 1331 2418.66 1331 2420 1332.34 2420 1333.99Z" fill="#C04F15" fill-rule="evenodd"/><path d="M2391 1204C2391 1205.66 2389.66 1207 2388 1207 2386.34 1207 2385 1205.66 2385 1204 2385 1202.34 2386.34 1201 2388 1201 2389.66 1201 2391 1202.34 2391 1204Z" fill="#F8C48B" fill-rule="evenodd"/><path d="M1166.93 1927C1167.18 1927 1169.52 1930.32 1176 1936.19 1176 1936.19 1165.63 1938.16 1163.78 1937.99 1161.94 1937.8 1163.91 1931.82 1164.11 1931.75 1164.31 1931.67 1166.93 1927 1166.93 1927Z" fill="#B75742" fill-rule="evenodd"/><path d="M1108.39 2011C1108.39 2011 1104.29 2026.7 1104.82 2027.4 1105.36 2028.11 1100.71 2031.64 1100 2033.06 1100 2033.06 1104.11 2030.71 1105.83 2030.52 1107.56 2030.34 1114.11 2033.47 1120.83 2034 1120.83 2034 1116.31 2032.7 1114.17 2031.18 1112.02 2029.64 1109.52 2029.41 1109.82 2029.29 1110.12 2029.17 1113.51 2028.76 1116.91 2029.7 1120.3 2030.65 1125 2029.58 1125 2029.58 1125 2029.58 1119.11 2029.11 1116.67 2028.22 1114.23 2027.34 1108.04 2027.46 1108.04 2027.46L1111.79 2011.39 1108.39 2011Z" fill="#EE944C" fill-rule="evenodd"/><path d="M1130 2011.48C1130 2011.48 1138.64 2026.15 1139.22 2026.91 1139.8 2027.68 1134.79 2031.47 1134.01 2032.99 1134.01 2032.99 1138.45 2030.45 1140.31 2030.27 1142.17 2030.08 1149.24 2033.43 1156.5 2034 1156.5 2034 1151.62 2032.61 1149.31 2030.96 1146.99 2029.33 1144.29 2029.07 1144.62 2028.94 1144.94 2028.82 1148.6 2028.37 1152.26 2029.39 1155.92 2030.39 1161 2029.25 1161 2029.25 1161 2029.25 1154.64 2028.76 1152.01 2027.8 1149.37 2026.85 1142.69 2026.98 1142.69 2026.98L1134.61 2011 1130 2011.48Z" fill="#EE944C" fill-rule="evenodd"/><path d="M1137.05 1921.22C1137.05 1921.22 1130.31 1923.68 1128 1933.56 1125.7 1943.43 1124.63 1948.72 1117.01 1951.02 1109.39 1953.31 1085.63 1960.72 1082.61 1971.3 1081.41 1975.54 1079.52 1978.5 1077.69 1980.53 1074.53 1984.04 1074.12 1989.22 1076.63 1993.21 1080.54 1999.43 1087.31 2006.99 1097.69 2008.7 1115.95 2011.68 1106.73 2020.68 1132.26 2012.92 1157.79 2005.17 1146.62 1999.52 1160.62 1983.12 1174.63 1966.72 1161.51 1955.25 1167.54 1940.97 1173.57 1926.68 1160.45 1908.7 1137.05 1921.22Z" fill="#F7CC7F" fill-rule="evenodd"/><path d="M1116.7 1971.83C1114.83 1972.16 1112.99 1972.63 1111.24 1973.2 1109.5 1973.79 1107.75 1974.51 1106.57 1975.63 1105.97 1976.17 1105.63 1976.77 1105.55 1977.35 1105.54 1977.65 1105.53 1977.94 1105.63 1978.27 1105.66 1978.43 1105.73 1978.59 1105.8 1978.75L1106.05 1979.37C1106.88 1981.25 1107.18 1983.39 1107.51 1985.1 1107.67 1986 1107.9 1986.67 1108.24 1987.12 1108.56 1987.58 1108.97 1987.94 1109.66 1988.25 1110.98 1988.89 1112.75 1989.23 1114.51 1989.49L1117.24 1989.82C1118.24 1989.99 1119.24 1990.05 1120.24 1990.32 1122.24 1990.71 1124.26 1991.48 1126.1 1992.46 1127.02 1992.96 1127.85 1993.54 1128.6 1994.03 1129.34 1994.51 1129.88 1994.75 1130.3 1994.81 1131.12 1994.96 1132.75 1994.22 1134.23 1993.32 1135 1992.9 1135.76 1992.39 1136.52 1991.89 1136.92 1991.64 1137.26 1991.38 1137.55 1991.12L1138.51 1990.33C1139.16 1989.82 1139.6 1989.11 1140.19 1988.52 1140.65 1987.83 1141.12 1987.14 1141.52 1986.39 1143.02 1983.34 1143.62 1979.73 1143.64 1976.08 1143.66 1972.42 1143.16 1968.7 1142.34 1965 1144.06 1968.39 1145.16 1972.1 1145.75 1975.95 1146.23 1979.78 1146.12 1983.88 1144.58 1987.76 1144.18 1988.72 1143.67 1989.65 1143.16 1990.56 1142.5 1991.38 1141.93 1992.3 1141.15 1993.03L1139.97 1994.09C1139.58 1994.47 1139.18 1994.8 1138.79 1995.07 1138 1995.65 1137.23 1996.23 1136.37 1996.78 1135.55 1997.35 1134.61 1997.84 1133.6 1998.29 1133.02 1998.49 1132.57 1998.74 1131.88 1998.84 1131.55 1998.9 1131.23 1998.96 1130.9 1999 1130.54 1999 1130.18 1998.99 1129.82 1998.98 1128.36 1998.8 1127.18 1998.13 1126.34 1997.62 1125.49 1997.09 1124.76 1996.61 1124.01 1996.21 1122.54 1995.4 1121.01 1994.76 1119.3 1994.4 1118.49 1994.15 1117.59 1994.09 1116.73 1993.92 1115.82 1993.77 1114.81 1993.65 1113.85 1993.48 1111.9 1993.06 1109.92 1992.66 1107.87 1991.56 1106.87 1991.03 1105.79 1990.12 1105.16 1988.96 1104.51 1987.8 1104.31 1986.6 1104.21 1985.62 1104.03 1983.62 1103.9 1981.98 1103.42 1980.3 1103.35 1979.95 1103.09 1979.3 1103.05 1978.71 1102.95 1978.11 1103.01 1977.44 1103.15 1976.83 1103.51 1975.55 1104.37 1974.59 1105.27 1973.99 1107.11 1972.79 1109.05 1972.35 1110.97 1972.05 1112.88 1971.77 1114.8 1971.71 1116.7 1971.83Z" fill="#EAB054" fill-rule="evenodd"/><path d="M2737.46 2138C2737.18 2138 2734.49 2141.91 2727 2148.86 2727 2148.86 2738.98 2151.2 2741.1 2150.99 2743.23 2150.77 2740.94 2143.7 2740.72 2143.61 2740.5 2143.53 2737.46 2138 2737.46 2138Z" fill="#B75742" fill-rule="evenodd"/><path d="M2806.94 2238C2806.94 2238 2811.86 2257.1 2811.22 2257.97 2810.57 2258.82 2816.15 2263.12 2817 2264.85 2817 2264.85 2812.07 2261.98 2810 2261.76 2807.93 2261.55 2800.07 2265.36 2792 2266 2792 2266 2797.43 2264.41 2800 2262.55 2802.57 2260.7 2805.58 2260.4 2805.22 2260.26 2804.86 2260.11 2800.79 2259.62 2796.72 2260.76 2792.64 2261.91 2787 2260.62 2787 2260.62 2787 2260.62 2794.07 2260.05 2797 2258.97 2799.93 2257.89 2807.36 2258.04 2807.36 2258.04L2802.86 2238.47 2806.94 2238Z" fill="#EE944C" fill-rule="evenodd"/><path d="M2781 2238.6C2781 2238.6 2770.68 2256.44 2769.99 2257.37 2769.3 2258.29 2775.29 2262.91 2776.2 2264.76 2776.2 2264.76 2770.9 2261.69 2768.68 2261.45 2766.46 2261.22 2758.03 2265.31 2749.37 2266 2749.37 2266 2755.19 2264.3 2757.95 2262.29 2760.71 2260.3 2763.93 2259.99 2763.55 2259.84 2763.17 2259.68 2758.8 2259.15 2754.43 2260.37 2750.05 2261.61 2744 2260.22 2744 2260.22 2744 2260.22 2751.59 2259.6 2754.73 2258.45 2757.87 2257.3 2765.84 2257.45 2765.84 2257.45L2775.48 2238 2781 2238.6Z" fill="#EE944C" fill-rule="evenodd"/><path d="M2772.73 2131.03C2772.73 2131.03 2780.7 2133.97 2783.42 2145.75 2786.14 2157.52 2787.39 2163.82 2796.39 2166.55 2805.39 2169.29 2833.44 2178.11 2837.01 2190.72 2838.43 2195.78 2840.67 2199.3 2842.83 2201.74 2846.55 2205.91 2847.03 2212.09 2844.08 2216.83 2839.45 2224.24 2831.45 2233.26 2819.21 2235.28 2797.65 2238.85 2808.54 2249.58 2778.38 2240.33 2748.24 2231.08 2761.43 2224.35 2744.89 2204.8 2728.35 2185.26 2743.84 2171.59 2736.73 2154.57 2729.6 2137.54 2745.1 2116.1 2772.73 2131.03Z" fill="#F7CC7F" fill-rule="evenodd"/><path d="M2796.75 2191.24C2798.96 2191.63 2801.14 2192.19 2803.22 2192.89 2805.28 2193.61 2807.36 2194.48 2808.76 2195.81 2809.47 2196.46 2809.87 2197.19 2809.97 2197.89 2809.98 2198.26 2809.99 2198.61 2809.87 2199 2809.84 2199.19 2809.76 2199.39 2809.66 2199.59L2809.37 2200.33C2808.39 2202.6 2808.04 2205.17 2807.64 2207.24 2807.45 2208.31 2807.18 2209.13 2806.79 2209.67 2806.41 2210.22 2805.92 2210.66 2805.1 2211.04 2803.53 2211.79 2801.42 2212.22 2799.34 2212.51L2796.11 2212.92C2794.92 2213.13 2793.74 2213.21 2792.55 2213.53 2790.17 2214 2787.79 2214.92 2785.61 2216.11 2784.52 2216.72 2783.53 2217.41 2782.63 2218 2781.76 2218.58 2781.13 2218.86 2780.62 2218.94 2779.66 2219.11 2777.71 2218.23 2775.95 2217.14 2775.05 2216.64 2774.15 2216.01 2773.24 2215.42 2772.76 2215.12 2772.37 2214.81 2772.02 2214.49L2770.88 2213.54C2770.11 2212.92 2769.58 2212.07 2768.9 2211.35 2768.34 2210.53 2767.79 2209.68 2767.32 2208.79 2765.53 2205.12 2764.82 2200.76 2764.79 2196.37 2764.77 2191.94 2765.37 2187.47 2766.34 2183 2764.3 2187.09 2762.99 2191.56 2762.3 2196.2 2761.73 2200.81 2761.86 2205.76 2763.68 2210.44 2764.16 2211.59 2764.76 2212.71 2765.37 2213.82 2766.15 2214.81 2766.83 2215.91 2767.76 2216.78L2769.15 2218.08C2769.62 2218.53 2770.08 2218.93 2770.55 2219.25 2771.49 2219.94 2772.4 2220.66 2773.43 2221.31 2774.39 2221.99 2775.51 2222.59 2776.71 2223.13 2777.39 2223.37 2777.93 2223.68 2778.75 2223.8 2779.14 2223.88 2779.52 2223.94 2779.91 2224 2780.34 2223.99 2780.77 2223.98 2781.19 2223.95 2782.93 2223.75 2784.32 2222.95 2785.33 2222.31 2786.33 2221.68 2787.2 2221.1 2788.08 2220.63 2789.82 2219.65 2791.64 2218.88 2793.66 2218.44 2794.63 2218.14 2795.71 2218.07 2796.71 2217.87 2797.8 2217.69 2799 2217.55 2800.13 2217.33 2802.44 2216.84 2804.79 2216.33 2807.22 2215.01 2808.4 2214.39 2809.69 2213.28 2810.45 2211.88 2811.21 2210.49 2811.45 2209.03 2811.56 2207.86 2811.78 2205.44 2811.93 2203.47 2812.5 2201.46 2812.59 2201.03 2812.88 2200.24 2812.95 2199.52 2813.06 2198.8 2812.99 2198 2812.81 2197.25 2812.39 2195.73 2811.38 2194.55 2810.3 2193.83 2808.12 2192.39 2805.82 2191.86 2803.54 2191.5 2801.28 2191.18 2799 2191.1 2796.75 2191.24Z" fill="#EAB054" fill-rule="evenodd"/><path d="M3022.06 1909C3021.83 1908.99 3019.49 1912.31 3013 1918.18 3013 1918.18 3023.37 1920.16 3025.22 1919.99 3027.07 1919.8 3025.08 1913.81 3024.89 1913.75 3024.69 1913.67 3022.06 1909 3022.06 1909Z" fill="#B75742" fill-rule="evenodd"/><path d="M3080.62 1993C3080.62 1993 3084.72 2009.38 3084.18 2010.11 3083.64 2010.85 3088.28 2014.54 3089 2016.01 3089 2016.01 3084.89 2013.55 3083.16 2013.37 3081.44 2013.18 3074.89 2016.44 3068.16 2017 3068.16 2017 3072.69 2015.65 3074.83 2014.04 3076.97 2012.45 3079.48 2012.2 3079.17 2012.08 3078.88 2011.96 3075.49 2011.53 3072.09 2012.51 3068.7 2013.49 3064 2012.39 3064 2012.39 3064 2012.39 3069.89 2011.89 3072.33 2010.97 3074.77 2010.05 3080.96 2010.18 3080.96 2010.18L3077.22 1993.4 3080.62 1993Z" fill="#EE944C" fill-rule="evenodd"/><path d="M3059 1993.51C3059 1993.51 3050.35 2008.81 3049.77 2009.61 3049.2 2010.39 3054.21 2014.36 3054.98 2015.94 3054.98 2015.94 3050.55 2013.3 3048.69 2013.1 3046.82 2012.91 3039.75 2016.41 3032.49 2017 3032.49 2017 3037.37 2015.55 3039.69 2013.83 3042 2012.11 3044.71 2011.84 3044.39 2011.72 3044.07 2011.58 3040.4 2011.12 3036.73 2012.17 3033.07 2013.23 3028 2012.05 3028 2012.05 3028 2012.05 3034.36 2011.52 3036.99 2010.53 3039.62 2009.54 3046.3 2009.67 3046.3 2009.67L3054.39 1993 3059 1993.51Z" fill="#EE944C" fill-rule="evenodd"/><path d="M3051.95 1903.22C3051.95 1903.22 3058.69 1905.69 3061 1915.56 3063.3 1925.44 3064.36 1930.73 3071.98 1933.02 3079.62 1935.31 3103.38 1942.72 3106.39 1953.3 3107.6 1957.54 3109.48 1960.5 3111.31 1962.53 3114.47 1966.04 3114.87 1971.22 3112.37 1975.21 3108.46 1981.42 3101.69 1988.99 3091.32 1990.69 3073.06 1993.68 3082.27 2002.68 3056.74 1994.92 3031.21 1987.15 3042.39 1981.52 3028.37 1965.11 3014.37 1948.72 3027.49 1937.26 3021.46 1922.97 3015.43 1908.68 3028.55 1890.69 3051.95 1903.22Z" fill="#F7CC7F" fill-rule="evenodd"/><path d="M3072.29 1954.02C3074.16 1954.37 3076 1954.84 3077.76 1955.43 3079.49 1956.05 3081.25 1956.79 3082.42 1957.94 3083.01 1958.48 3083.37 1959.11 3083.44 1959.7 3083.46 1960.02 3083.46 1960.32 3083.36 1960.65 3083.33 1960.81 3083.26 1960.99 3083.19 1961.15L3082.94 1961.8C3082.12 1963.72 3081.81 1965.93 3081.48 1967.7 3081.32 1968.6 3081.09 1969.3 3080.75 1969.77 3080.44 1970.24 3080.02 1970.62 3079.33 1970.93 3078.02 1971.59 3076.24 1971.94 3074.49 1972.21L3071.75 1972.55C3070.76 1972.72 3069.75 1972.79 3068.76 1973.06 3066.76 1973.47 3064.74 1974.26 3062.9 1975.27 3061.98 1975.79 3061.14 1976.38 3060.4 1976.87 3059.66 1977.37 3059.12 1977.63 3058.7 1977.69 3057.88 1977.84 3056.25 1977.08 3054.76 1976.15 3054 1975.72 3053.24 1975.18 3052.49 1974.68 3052.08 1974.43 3051.74 1974.16 3051.44 1973.88L3050.49 1973.08C3049.84 1972.55 3049.39 1971.82 3048.82 1971.21 3048.35 1970.49 3047.88 1969.79 3047.48 1969.02 3045.98 1965.88 3045.38 1962.16 3045.35 1958.41 3045.34 1954.64 3045.84 1950.81 3046.67 1947 3044.94 1950.49 3043.83 1954.31 3043.25 1958.27 3042.78 1962.21 3042.87 1966.43 3044.42 1970.43 3044.83 1971.41 3045.33 1972.37 3045.84 1973.3 3046.51 1974.16 3047.07 1975.11 3047.85 1975.85L3049.03 1976.95C3049.42 1977.34 3049.82 1977.68 3050.22 1977.95 3051 1978.55 3051.76 1979.15 3052.64 1979.71 3053.45 1980.3 3054.39 1980.8 3055.41 1981.27 3055.98 1981.46 3056.43 1981.74 3057.13 1981.84 3057.45 1981.9 3057.77 1981.96 3058.1 1982 3058.47 1982 3058.82 1981.99 3059.18 1981.98 3060.64 1981.79 3061.82 1981.11 3062.67 1980.58 3063.51 1980.03 3064.24 1979.53 3064.99 1979.13 3066.46 1978.29 3068 1977.63 3069.7 1977.26 3070.51 1977.01 3071.41 1976.95 3072.27 1976.77 3073.18 1976.62 3074.2 1976.49 3075.16 1976.32 3077.1 1975.89 3079.08 1975.46 3081.12 1974.32 3082.13 1973.8 3083.21 1972.86 3083.85 1971.67 3084.49 1970.47 3084.68 1969.22 3084.78 1968.22 3084.97 1966.16 3085.1 1964.48 3085.58 1962.75 3085.65 1962.39 3085.91 1961.72 3085.95 1961.1 3086.05 1960.49 3086 1959.81 3085.85 1959.16 3085.49 1957.86 3084.63 1956.86 3083.73 1956.25 3081.88 1955.02 3079.94 1954.56 3078.03 1954.26 3076.11 1953.97 3074.2 1953.91 3072.29 1954.02Z" fill="#EAB054" fill-rule="evenodd"/><path d="M2060.93 2086C2061.18 2086 2063.51 2089.32 2070 2095.19 2070 2095.19 2059.63 2097.17 2057.78 2096.99 2055.94 2096.81 2057.91 2090.82 2058.11 2090.75 2058.3 2090.69 2060.93 2086 2060.93 2086Z" fill="#B75742" fill-rule="evenodd"/><path d="M2002.38 2170C2002.38 2170 1998.28 2186.38 1998.82 2187.12 1999.36 2187.85 1994.71 2191.55 1994 2193.03 1994 2193.03 1998.1 2190.56 1999.82 2190.38 2001.56 2190.19 2008.11 2193.46 2014.83 2194 2014.83 2194 2010.31 2192.66 2008.16 2191.05 2006.02 2189.46 2003.52 2189.21 2003.81 2189.08 2004.12 2188.97 2007.51 2188.54 2010.9 2189.52 2014.29 2190.5 2019 2189.4 2019 2189.4 2019 2189.4 2013.1 2188.9 2010.67 2187.98 2008.22 2187.06 2002.03 2187.18 2002.03 2187.18L2005.78 2170.4 2002.38 2170Z" fill="#EE944C" fill-rule="evenodd"/><path d="M2024 2170.51C2024 2170.51 2032.91 2185.82 2033.51 2186.6 2034.12 2187.4 2028.94 2191.37 2028.14 2192.95 2028.14 2192.95 2032.72 2190.31 2034.64 2190.11 2036.57 2189.92 2043.86 2193.41 2051.36 2194 2051.36 2194 2046.32 2192.56 2043.94 2190.84 2041.55 2189.12 2038.76 2188.85 2039.09 2188.73 2039.42 2188.59 2043.2 2188.13 2046.98 2189.18 2050.77 2190.24 2056 2189.06 2056 2189.06 2056 2189.06 2049.43 2188.52 2046.72 2187.54 2044 2186.54 2037.1 2186.68 2037.1 2186.68L2028.76 2170 2024 2170.51Z" fill="#EE944C" fill-rule="evenodd"/><path d="M2031.4 2080.21C2031.4 2080.21 2024.73 2082.69 2022.45 2092.57 2020.17 2102.44 2019.11 2107.73 2011.57 2110.02 2004.02 2112.32 1980.52 2119.72 1977.54 2130.31 1976.34 2134.54 1974.48 2137.5 1972.66 2139.54 1969.54 2143.03 1969.13 2148.22 1971.62 2152.21 1975.49 2158.42 1982.18 2165.99 1992.45 2167.69 2010.52 2170.68 2001.4 2179.68 2026.65 2171.92 2051.92 2164.16 2040.86 2158.52 2054.71 2142.11 2068.58 2125.72 2055.6 2114.26 2061.55 2099.97 2067.52 2085.69 2054.54 2067.7 2031.4 2080.21Z" fill="#F7CC7F" fill-rule="evenodd"/><path d="M2011.02 2131.02C2009.11 2131.36 2007.23 2131.84 2005.43 2132.43 2003.66 2133.05 2001.86 2133.79 2000.66 2134.93 2000.04 2135.48 1999.69 2136.11 1999.61 2136.7 1999.6 2137.02 1999.59 2137.32 1999.7 2137.65 1999.73 2137.81 1999.79 2137.98 1999.86 2138.15L2000.13 2138.8C2000.97 2140.73 2001.27 2142.93 2001.62 2144.7 2001.79 2145.6 2002.02 2146.3 2002.36 2146.77 2002.69 2147.24 2003.11 2147.62 2003.81 2147.93 2005.17 2148.59 2006.98 2148.94 2008.77 2149.19L2011.57 2149.55C2012.59 2149.72 2013.61 2149.79 2014.64 2150.06 2016.69 2150.47 2018.75 2151.26 2020.63 2152.27 2021.58 2152.79 2022.42 2153.38 2023.2 2153.87 2023.95 2154.37 2024.51 2154.61 2024.93 2154.68 2025.77 2154.84 2027.45 2154.07 2028.97 2153.15 2029.74 2152.72 2030.52 2152.18 2031.3 2151.68 2031.71 2151.43 2032.06 2151.16 2032.36 2150.88L2033.34 2150.08C2034 2149.55 2034.46 2148.82 2035.05 2148.2 2035.53 2147.49 2036 2146.77 2036.42 2146.02 2037.95 2142.88 2038.57 2139.16 2038.59 2135.41 2038.6 2131.64 2038.09 2127.81 2037.26 2124 2039.02 2127.49 2040.15 2131.31 2040.74 2135.26 2041.23 2139.21 2041.13 2143.43 2039.55 2147.43 2039.13 2148.4 2038.62 2149.37 2038.09 2150.3 2037.42 2151.15 2036.83 2152.11 2036.04 2152.84L2034.83 2153.95C2034.43 2154.34 2034.02 2154.68 2033.62 2154.95 2032.81 2155.55 2032.03 2156.15 2031.14 2156.71 2030.31 2157.3 2029.34 2157.8 2028.31 2158.27 2027.72 2158.46 2027.26 2158.74 2026.54 2158.84 2026.21 2158.9 2025.89 2158.96 2025.55 2159 2025.18 2159 2024.81 2158.99 2024.44 2158.96 2022.95 2158.79 2021.74 2158.11 2020.87 2157.56 2020.02 2157.02 2019.27 2156.53 2018.5 2156.13 2017 2155.28 2015.43 2154.63 2013.69 2154.26 2012.84 2154.01 2011.93 2153.95 2011.05 2153.77 2010.12 2153.62 2009.07 2153.49 2008.11 2153.32 2006.11 2152.89 2004.09 2152.46 2001.99 2151.32 2000.96 2150.8 1999.85 2149.86 1999.2 2148.65 1998.54 2147.47 1998.34 2146.22 1998.24 2145.22 1998.05 2143.16 1997.92 2141.47 1997.43 2139.75 1997.35 2139.39 1997.09 2138.72 1997.05 2138.1 1996.95 2137.49 1997.01 2136.81 1997.16 2136.16 1997.53 2134.86 1998.41 2133.86 1999.32 2133.24 2001.21 2132 2003.19 2131.55 2005.15 2131.26 2007.11 2130.97 2009.07 2130.91 2011.02 2131.02Z" fill="#EAB054" fill-rule="evenodd"/><path d="M1967.28 1738C1967.11 1738 1965.49 1740.42 1961 1744.68 1961 1744.68 1968.18 1746.12 1969.46 1745.99 1970.74 1745.85 1969.37 1741.5 1969.23 1741.46 1969.1 1741.41 1967.28 1738 1967.28 1738Z" fill="#B75742" fill-rule="evenodd"/><path d="M2008.97 1798C2008.97 1798 2011.92 1808.92 2011.53 1809.41 2011.15 1809.9 2014.49 1812.35 2015 1813.34 2015 1813.34 2012.05 1811.7 2010.8 1811.58 2009.56 1811.45 2004.84 1813.62 2000 1814 2000 1814 2003.26 1813.1 2004.8 1812.03 2006.34 1810.97 2008.15 1810.8 2007.93 1810.72 2007.72 1810.64 2005.28 1810.35 2002.82 1811 2000.38 1811.66 1997 1810.92 1997 1810.92 1997 1810.92 2001.24 1810.59 2003 1809.99 2004.76 1809.37 2009.21 1809.45 2009.21 1809.45L2006.51 1798.27 2008.97 1798Z" fill="#EE944C" fill-rule="evenodd"/><path d="M1993 1798.33C1993 1798.33 1986.87 1808.54 1986.46 1809.06 1986.04 1809.59 1989.6 1812.24 1990.15 1813.29 1990.15 1813.29 1987 1811.52 1985.68 1811.39 1984.36 1811.26 1979.34 1813.6 1974.19 1814 1974.19 1814 1977.65 1813.03 1979.29 1811.88 1980.94 1810.74 1982.85 1810.57 1982.62 1810.47 1982.4 1810.39 1979.8 1810.08 1977.2 1810.78 1974.6 1811.49 1971 1810.7 1971 1810.7 1971 1810.7 1975.52 1810.34 1977.38 1809.69 1979.25 1809.03 1983.99 1809.11 1983.99 1809.11L1989.72 1798 1993 1798.33Z" fill="#EE944C" fill-rule="evenodd"/><path d="M1988.44 1733.99C1988.44 1733.99 1993.17 1735.72 1994.78 1742.7 1996.4 1749.7 1997.15 1753.43 2002.5 1755.05 2007.86 1756.68 2024.54 1761.91 2026.65 1769.4 2027.5 1772.39 2028.83 1774.48 2030.12 1775.92 2032.33 1778.4 2032.61 1782.07 2030.86 1784.89 2028.1 1789.27 2023.36 1794.63 2016.07 1795.83 2003.25 1797.95 2009.73 1804.31 1991.79 1798.83 1973.87 1793.33 1981.71 1789.35 1971.88 1777.75 1962.05 1766.15 1971.25 1758.05 1967.02 1747.95 1962.8 1737.85 1972 1725.12 1988.44 1733.99Z" fill="#F7CC7F" fill-rule="evenodd"/><path d="M2002.11 1769.82C2003.47 1770.06 2004.79 1770.38 2006.06 1770.79 2007.3 1771.2 2008.57 1771.73 2009.42 1772.5 2009.85 1772.88 2010.1 1773.32 2010.15 1773.72 2010.17 1773.94 2010.17 1774.14 2010.09 1774.37 2010.08 1774.48 2010.03 1774.59 2009.98 1774.71L2009.79 1775.15C2009.19 1776.47 2008.98 1777.98 2008.75 1779.19 2008.62 1779.81 2008.46 1780.3 2008.22 1780.61 2007.99 1780.94 2007.69 1781.19 2007.19 1781.41 2006.25 1781.85 2004.96 1782.09 2003.69 1782.27L2001.73 1782.52C2001.01 1782.64 2000.29 1782.68 1999.56 1782.87 1998.12 1783.15 1996.68 1783.68 1995.35 1784.39 1994.69 1784.74 1994.09 1785.14 1993.54 1785.48 1993.01 1785.82 1992.62 1785.99 1992.32 1786.04 1991.72 1786.14 1990.54 1785.63 1989.48 1784.98 1988.92 1784.69 1988.38 1784.33 1987.83 1783.97 1987.54 1783.8 1987.31 1783.62 1987.08 1783.43L1986.4 1782.88C1985.93 1782.52 1985.6 1782.02 1985.19 1781.6 1984.86 1781.11 1984.52 1780.62 1984.22 1780.1 1983.14 1777.94 1982.72 1775.4 1982.7 1772.83 1982.68 1770.24 1983.05 1767.61 1983.64 1765 1982.39 1767.4 1981.6 1770.01 1981.18 1772.72 1980.84 1775.43 1980.91 1778.33 1982.02 1781.06 1982.32 1781.74 1982.68 1782.4 1983.05 1783.04 1983.52 1783.62 1983.94 1784.27 1984.49 1784.78L1985.34 1785.53C1985.63 1785.8 1985.91 1786.04 1986.2 1786.22 1986.76 1786.63 1987.32 1787.05 1987.94 1787.42 1988.53 1787.82 1989.21 1788.17 1989.94 1788.49 1990.36 1788.62 1990.68 1788.82 1991.18 1788.88 1991.41 1788.93 1991.65 1788.96 1991.89 1789 1992.15 1789 1992.41 1788.99 1992.67 1788.98 1993.72 1788.85 1994.57 1788.38 1995.17 1788.02 1995.78 1787.64 1996.32 1787.3 1996.85 1787.02 1997.91 1786.45 1999.02 1786 2000.25 1785.75 2000.85 1785.58 2001.49 1785.53 2002.1 1785.41 2002.76 1785.31 2003.5 1785.22 2004.18 1785.09 2005.59 1784.81 2007.02 1784.51 2008.49 1783.73 2009.21 1783.37 2009.99 1782.72 2010.45 1781.91 2010.91 1781.08 2011.06 1780.24 2011.12 1779.56 2011.26 1778.15 2011.36 1776.98 2011.7 1775.8 2011.76 1775.56 2011.93 1775.09 2011.97 1774.68 2012.03 1774.25 2011.99 1773.79 2011.9 1773.34 2011.63 1772.45 2011.01 1771.76 2010.36 1771.35 2009.03 1770.5 2007.64 1770.18 2006.26 1769.98 2004.88 1769.78 2003.48 1769.75 2002.11 1769.82Z" fill="#EAB054" fill-rule="evenodd"/><path d="M1278.28 1824C1278.11 1824 1276.49 1826.41 1272 1830.68 1272 1830.68 1279.18 1832.12 1280.46 1831.99 1281.74 1831.85 1280.37 1827.5 1280.23 1827.45 1280.1 1827.4 1278.28 1824 1278.28 1824Z" fill="#B75742" fill-rule="evenodd"/><path d="M1319.96 1884C1319.96 1884 1322.91 1894.92 1322.53 1895.41 1322.14 1895.9 1325.49 1898.35 1326 1899.34 1326 1899.34 1323.04 1897.7 1321.8 1897.57 1320.56 1897.45 1315.84 1899.62 1311 1900 1311 1900 1314.26 1899.1 1315.8 1898.03 1317.34 1896.97 1319.14 1896.8 1318.93 1896.72 1318.71 1896.64 1316.27 1896.35 1313.83 1897 1311.39 1897.67 1308 1896.92 1308 1896.92 1308 1896.92 1312.24 1896.6 1314 1895.99 1315.76 1895.37 1320.21 1895.45 1320.21 1895.45L1317.51 1884.27 1319.96 1884Z" fill="#EE944C" fill-rule="evenodd"/><path d="M1305 1884.33C1305 1884.33 1298.87 1894.54 1298.46 1895.06 1298.05 1895.59 1301.6 1898.24 1302.15 1899.29 1302.15 1899.29 1299.01 1897.54 1297.68 1897.39 1296.36 1897.26 1291.34 1899.6 1286.19 1900 1286.19 1900 1289.66 1899.03 1291.3 1897.88 1292.94 1896.74 1294.86 1896.57 1294.63 1896.47 1294.4 1896.39 1291.8 1896.08 1289.2 1896.78 1286.6 1897.49 1283 1896.7 1283 1896.7 1283 1896.7 1287.51 1896.34 1289.38 1895.68 1291.25 1895.03 1295.99 1895.11 1295.99 1895.11L1301.73 1884 1305 1884.33Z" fill="#EE944C" fill-rule="evenodd"/><path d="M1299.78 1819.97C1299.78 1819.97 1304.58 1821.72 1306.22 1828.7 1307.86 1835.7 1308.62 1839.43 1314.06 1841.05 1319.49 1842.68 1336.42 1847.91 1338.57 1855.4 1339.43 1858.39 1340.78 1860.48 1342.08 1861.92 1344.33 1864.4 1344.63 1868.07 1342.84 1870.89 1340.05 1875.28 1335.22 1880.63 1327.83 1881.83 1314.82 1883.95 1321.39 1890.31 1303.19 1884.83 1284.99 1879.33 1292.95 1875.35 1282.97 1863.75 1272.99 1852.15 1282.34 1844.05 1278.04 1833.95 1273.74 1823.85 1283.1 1811.13 1299.78 1819.97Z" fill="#F7CC7F" fill-rule="evenodd"/><path d="M1314.12 1855.81C1315.47 1856.05 1316.79 1856.37 1318.06 1856.78 1319.31 1857.21 1320.57 1857.72 1321.42 1858.49 1321.85 1858.87 1322.1 1859.31 1322.16 1859.71 1322.17 1859.93 1322.17 1860.13 1322.1 1860.36 1322.07 1860.47 1322.03 1860.58 1321.97 1860.7L1321.79 1861.14C1321.2 1862.47 1320.98 1863.97 1320.74 1865.19 1320.63 1865.81 1320.46 1866.29 1320.22 1866.61 1319.99 1866.94 1319.69 1867.19 1319.19 1867.41 1318.25 1867.86 1316.96 1868.09 1315.7 1868.27L1313.73 1868.51C1313.01 1868.64 1312.29 1868.67 1311.57 1868.87 1310.12 1869.15 1308.67 1869.68 1307.35 1870.38 1306.68 1870.74 1306.09 1871.14 1305.54 1871.48 1305.01 1871.82 1304.62 1871.99 1304.32 1872.04 1303.73 1872.15 1302.55 1871.62 1301.48 1870.98 1300.93 1870.69 1300.38 1870.32 1299.84 1869.97 1299.54 1869.8 1299.3 1869.62 1299.09 1869.43L1298.4 1868.88C1297.93 1868.51 1297.61 1868.02 1297.19 1867.59 1296.86 1867.11 1296.52 1866.62 1296.23 1866.1 1295.15 1863.95 1294.72 1861.4 1294.7 1858.82 1294.69 1856.23 1295.05 1853.6 1295.64 1851 1294.4 1853.39 1293.6 1856 1293.18 1858.71 1292.84 1861.42 1292.91 1864.32 1294.02 1867.06 1294.31 1867.74 1294.68 1868.39 1295.05 1869.04 1295.52 1869.62 1295.94 1870.26 1296.5 1870.77L1297.35 1871.53C1297.63 1871.79 1297.92 1872.04 1298.2 1872.22 1298.77 1872.63 1299.32 1873.04 1299.94 1873.42 1300.53 1873.82 1301.21 1874.17 1301.94 1874.49 1302.36 1874.62 1302.68 1874.82 1303.18 1874.88 1303.42 1874.93 1303.65 1874.96 1303.89 1875 1304.15 1875 1304.41 1874.99 1304.67 1874.98 1305.72 1874.85 1306.57 1874.38 1307.18 1874.02 1307.79 1873.64 1308.32 1873.3 1308.85 1873.02 1309.91 1872.45 1311.02 1872 1312.25 1871.74 1312.84 1871.57 1313.49 1871.53 1314.1 1871.41 1314.76 1871.31 1315.49 1871.22 1316.18 1871.09 1317.58 1870.81 1319.01 1870.51 1320.49 1869.73 1321.21 1869.36 1321.99 1868.72 1322.45 1867.91 1322.91 1867.08 1323.06 1866.23 1323.13 1865.55 1323.26 1864.13 1323.35 1862.98 1323.7 1861.8 1323.75 1861.54 1323.93 1861.08 1323.97 1860.67 1324.04 1860.24 1324 1859.78 1323.89 1859.33 1323.63 1858.45 1323.01 1857.75 1322.36 1857.33 1321.04 1856.49 1319.64 1856.17 1318.26 1855.97 1316.87 1855.77 1315.49 1855.74 1314.12 1855.81Z" fill="#EAB054" fill-rule="evenodd"/><path d="M910.866 2031.83C934.674 1980.66 915.101 1920.93 867.15 1898.41 848.122 1889.47 825.038 1898.7 815.591 1919L803.377 1946.62C793.024 1968.88 778.949 1978.88 765.588 1982.78 747.18 1988.15 730.452 1998.34 717.044 2012.16L717 2303C717 2303 779.57 2279.45 793.934 2248.58L810.39 2227.09C816.652 2213.62 827.977 2225.32 840.738 2221.78 862.562 2215.74 881.226 2200.22 891.16 2178.87L900.337 2159.14C906.812 2145.23 905.785 2128.95 897.263 2117.04 887.877 2103.94 885.835 2085.64 893.461 2069.24L910.866 2031.83Z" fill="url(#fill20)" fill-rule="evenodd"/><path d="M717 2303C717 2303 853.463 2141.16 931.552 2115.79 1009.64 2090.41 936.043 2191.18 936.043 2191.18 936.043 2191.18 1074.57 2039.17 1125.41 2052.87 1172.01 2065.43 1125.41 2159.66 1125.41 2159.66 1125.41 2159.66 1177.89 2107.48 1241.54 2107.48 1305.19 2107.48 1192.34 2302.84 1192.34 2302.84L717 2303Z" fill="url(#fill21)" fill-rule="evenodd"/><path d="M1126 2303C1126 2303 1210.88 2075.85 1316 2102.11 1401.19 2123.4 1340.63 2237.7 1345.82 2232.5 1351.01 2227.31 1396.7 2149.73 1470.63 2149.73 1544.55 2149.73 1447.93 2254.43 1447.93 2254.43 1447.93 2254.43 1605.44 2205.21 1617.77 2256.9 1628.01 2299.79 1570.76 2303 1570.76 2303L1126 2303Z" fill="url(#fill22)" fill-rule="evenodd"/><path d="M1933 376C1936.27 361.773 1949.01 351.158 1964.25 351.158 1967.04 351.158 1969.76 351.518 1972.34 352.189 1979.86 336.126 1996.18 324.995 2015.09 324.995 2019.99 324.995 2024.71 325.74 2029.15 327.12 2039.33 310.268 2057.83 299 2078.98 299 2104.13 299 2125.55 314.95 2133.67 337.277 2139.42 334.077 2146.03 332.246 2153.08 332.246 2175.13 332.246 2193 350.102 2193 372.13 2193 373.437 2192.93 374.726 2192.81 376L1933 376Z" fill="#FFFFFF" fill-rule="evenodd" fill-opacity="0.8"/><path d="M3137 622C3132.97 604.447 3117.28 591.35 3098.54 591.35 3095.09 591.35 3091.76 591.794 3088.58 592.622 3079.32 572.804 3059.24 559.071 3035.96 559.071 3029.93 559.071 3024.12 559.989 3018.66 561.692 3006.13 540.901 2983.35 527 2957.33 527 2926.37 527 2900.01 546.678 2890.02 574.225 2882.95 570.276 2874.81 568.017 2866.13 568.017 2839 568.017 2817 590.049 2817 617.225 2817 618.836 2817.09 620.427 2817.24 621.999L3137 621.999Z" fill="#FFFFFF" fill-rule="evenodd" fill-opacity="0.8"/><path d="M1580 681C1576.46 665.479 1562.69 653.9 1546.23 653.9 1543.21 653.9 1540.27 654.292 1537.48 655.024 1529.35 637.5 1511.72 625.358 1491.27 625.358 1485.98 625.358 1480.88 626.169 1476.09 627.676 1465.08 609.293 1445.08 597 1422.23 597 1395.05 597 1371.89 614.398 1363.12 638.755 1356.91 635.265 1349.76 633.268 1342.14 633.268 1318.32 633.268 1299 652.747 1299 676.777 1299 678.202 1299.07 679.609 1299.21 680.999L1580 680.999Z" fill="#FFFFFF" fill-rule="evenodd" fill-opacity="0.8"/><path d="M2459 877.999C2452.21 848.25 2425.75 826.056 2394.1 826.056 2388.29 826.056 2382.67 826.807 2377.29 828.212 2361.68 794.625 2327.78 771.353 2288.48 771.353 2278.33 771.353 2268.53 772.908 2259.31 775.795 2238.16 740.56 2199.72 717 2155.81 717 2103.57 717 2059.08 750.348 2042.22 797.034 2030.28 790.343 2016.54 786.516 2001.91 786.516 1956.12 786.516 1919 823.852 1919 869.908 1919 872.639 1919.14 875.337 1919.39 878L2459 878Z" fill="#FFFFFF" fill-rule="evenodd" fill-opacity="0.8"/></g></svg>