<svg width="1364" height="1292" xmlns="http://www.w3.org/2000/svg" xmlns:xlink="http://www.w3.org/1999/xlink" xml:space="preserve" overflow="hidden"><defs><filter id="fx0" x="-10%" y="-10%" width="120%" height="120%" filterUnits="userSpaceOnUse" primitiveUnits="userSpaceOnUse"><feComponentTransfer color-interpolation-filters="sRGB"><feFuncR type="discrete" tableValues="0 0"/><feFuncG type="discrete" tableValues="0 0"/><feFuncB type="discrete" tableValues="0 0"/><feFuncA type="linear" slope="0.4" intercept="0"/></feComponentTransfer><feGaussianBlur stdDeviation="6.11111 6.11111"/></filter><filter id="fx1" x="-10%" y="-10%" width="120%" height="120%" filterUnits="userSpaceOnUse" primitiveUnits="userSpaceOnUse"><feComponentTransfer color-interpolation-filters="sRGB"><feFuncR type="discrete" tableValues="0 0"/><feFuncG type="discrete" tableValues="0 0"/><feFuncB type="discrete" tableValues="0 0"/><feFuncA type="linear" slope="0.4" intercept="0"/></feComponentTransfer><feGaussianBlur stdDeviation="6.11111 6.11111"/></filter><filter id="fx2" x="-10%" y="-10%" width="120%" height="120%" filterUnits="userSpaceOnUse" primitiveUnits="userSpaceOnUse"><feComponentTransfer color-interpolation-filters="sRGB"><feFuncR type="discrete" tableValues="0 0"/><feFuncG type="discrete" tableValues="0 0"/><feFuncB type="discrete" tableValues="0 0"/><feFuncA type="linear" slope="0.4" intercept="0"/></feComponentTransfer><feGaussianBlur stdDeviation="6.11111 6.11111"/></filter><filter id="fx3" x="-10%" y="-10%" width="120%" height="120%" filterUnits="userSpaceOnUse" primitiveUnits="userSpaceOnUse"><feComponentTransfer color-interpolation-filters="sRGB"><feFuncR type="discrete" tableValues="0 0"/><feFuncG type="discrete" tableValues="0 0"/><feFuncB type="discrete" tableValues="0 0"/><feFuncA type="linear" slope="0.4" intercept="0"/></feComponentTransfer><feGaussianBlur stdDeviation="6.11111 6.11111"/></filter><filter id="fx4" x="-10%" y="-10%" width="120%" height="120%" filterUnits="userSpaceOnUse" primitiveUnits="userSpaceOnUse"><feComponentTransfer color-interpolation-filters="sRGB"><feFuncR type="discrete" tableValues="0 0"/><feFuncG type="discrete" tableValues="0 0"/><feFuncB type="discrete" tableValues="0 0"/><feFuncA type="linear" slope="0.4" intercept="0"/></feComponentTransfer><feGaussianBlur stdDeviation="6.11111 6.11111"/></filter><filter id="fx5" x="-10%" y="-10%" width="120%" height="120%" filterUnits="userSpaceOnUse" primitiveUnits="userSpaceOnUse"><feComponentTransfer color-interpolation-filters="sRGB"><feFuncR type="discrete" tableValues="0 0"/><feFuncG type="discrete" tableValues="0 0"/><feFuncB type="discrete" tableValues="0 0"/><feFuncA type="linear" slope="0.4" intercept="0"/></feComponentTransfer><feGaussianBlur stdDeviation="6.11111 6.11111"/></filter><clipPath id="clip6"><rect x="514" y="578" width="1364" height="1292"/></clipPath><linearGradient x1="1193.5" y1="1178" x2="1193.5" y2="1870" gradientUnits="userSpaceOnUse" spreadMethod="reflect" id="fill7"><stop offset="0" stop-color="#BADDDC"/><stop offset="0.23" stop-color="#E2F6F5"/><stop offset="1" stop-color="#E2F6F5"/></linearGradient><radialGradient cx="1752280" cy="1615856" r="2382520" gradientUnits="userSpaceOnUse" spreadMethod="pad" id="fill8" gradientTransform="matrix(0.000360892 1.45519e-11 -1.45519e-11 0.000360892 531.616 577.85)"><stop offset="0" stop-color="#7E7E7E"/><stop offset="0.5" stop-color="#B6B6B6"/><stop offset="1" stop-color="#D9D9D9"/></radialGradient><radialGradient cx="1752280" cy="1615856" r="2382520" gradientUnits="userSpaceOnUse" spreadMethod="pad" id="fill9" gradientTransform="matrix(0.000360892 0 0 0.000360892 531.616 577.85)"><stop offset="0" stop-color="#7E7E7E"/><stop offset="0.5" stop-color="#B6B6B6"/><stop offset="1" stop-color="#D9D9D9"/></radialGradient><radialGradient cx="1752280" cy="1615856" r="2382520" gradientUnits="userSpaceOnUse" spreadMethod="pad" id="fill10" gradientTransform="matrix(0.000360892 0 0 0.000360892 531.616 577.85)"><stop offset="0" stop-color="#7E7E7E"/><stop offset="0.5" stop-color="#B6B6B6"/><stop offset="1" stop-color="#D9D9D9"/></radialGradient><radialGradient cx="1752280" cy="1615856" r="2382520" gradientUnits="userSpaceOnUse" spreadMethod="pad" id="fill11" gradientTransform="matrix(0.000360892 0 0 0.000360892 531.616 577.85)"><stop offset="0" stop-color="#7E7E7E"/><stop offset="0.5" stop-color="#B6B6B6"/><stop offset="1" stop-color="#D9D9D9"/></radialGradient><radialGradient cx="1752280" cy="1615856" r="2382520" gradientUnits="userSpaceOnUse" spreadMethod="pad" id="fill12" gradientTransform="matrix(0.000360892 0 0 0.000360892 531.616 577.85)"><stop offset="0" stop-color="#7E7E7E"/><stop offset="0.5" stop-color="#B6B6B6"/><stop offset="1" stop-color="#D9D9D9"/></radialGradient><radialGradient cx="1752280" cy="1615856" r="2382520" gradientUnits="userSpaceOnUse" spreadMethod="pad" id="fill13" gradientTransform="matrix(0.000360892 0 0 0.000360892 531.616 577.85)"><stop offset="0" stop-color="#7E7E7E"/><stop offset="0.5" stop-color="#B6B6B6"/><stop offset="1" stop-color="#D9D9D9"/></radialGradient><radialGradient cx="1752280" cy="1615856" r="2382520" gradientUnits="userSpaceOnUse" spreadMethod="pad" id="fill14" gradientTransform="matrix(0.000360892 0 0 0.000360892 531.616 577.85)"><stop offset="0" stop-color="#7E7E7E"/><stop offset="0.5" stop-color="#B6B6B6"/><stop offset="1" stop-color="#D9D9D9"/></radialGradient><radialGradient cx="1752280" cy="1615856" r="2382520" gradientUnits="userSpaceOnUse" spreadMethod="pad" id="fill15" gradientTransform="matrix(0.000360892 0 0 0.000360892 531.616 577.85)"><stop offset="0" stop-color="#7E7E7E"/><stop offset="0.5" stop-color="#B6B6B6"/><stop offset="1" stop-color="#D9D9D9"/></radialGradient><radialGradient cx="1752280" cy="1615856" r="2382520" gradientUnits="userSpaceOnUse" spreadMethod="pad" id="fill16" gradientTransform="matrix(0.000360892 0 0 0.000360892 531.616 577.85)"><stop offset="0" stop-color="#7E7E7E"/><stop offset="0.5" stop-color="#B6B6B6"/><stop offset="1" stop-color="#D9D9D9"/></radialGradient><radialGradient cx="1752280" cy="1615856" r="2382520" gradientUnits="userSpaceOnUse" spreadMethod="pad" id="fill17" gradientTransform="matrix(0.000360892 0 0 0.000360892 531.616 577.85)"><stop offset="0" stop-color="#7E7E7E"/><stop offset="0.5" stop-color="#B6B6B6"/><stop offset="1" stop-color="#D9D9D9"/></radialGradient><radialGradient cx="1752280" cy="1615856" r="2382520" gradientUnits="userSpaceOnUse" spreadMethod="pad" id="fill18" gradientTransform="matrix(0.000360892 0 0 0.000360892 531.616 577.85)"><stop offset="0" stop-color="#7E7E7E"/><stop offset="0.5" stop-color="#B6B6B6"/><stop offset="1" stop-color="#D9D9D9"/></radialGradient><radialGradient cx="1752280" cy="1615856" r="2382520" gradientUnits="userSpaceOnUse" spreadMethod="pad" id="fill19" gradientTransform="matrix(0.000360892 0 0 0.000360892 531.616 577.85)"><stop offset="0" stop-color="#7E7E7E"/><stop offset="0.5" stop-color="#B6B6B6"/><stop offset="1" stop-color="#D9D9D9"/></radialGradient><radialGradient cx="1752280" cy="1615856" r="2382520" gradientUnits="userSpaceOnUse" spreadMethod="pad" id="fill20" gradientTransform="matrix(0.000360892 0 0 0.000360892 531.616 577.85)"><stop offset="0" stop-color="#7E7E7E"/><stop offset="0.5" stop-color="#B6B6B6"/><stop offset="1" stop-color="#D9D9D9"/></radialGradient><radialGradient cx="1752280" cy="1615856" r="2382520" gradientUnits="userSpaceOnUse" spreadMethod="pad" id="fill21" gradientTransform="matrix(0.000360892 0 0 0.000360892 531.616 577.85)"><stop offset="0" stop-color="#7E7E7E"/><stop offset="0.5" stop-color="#B6B6B6"/><stop offset="1" stop-color="#D9D9D9"/></radialGradient><radialGradient cx="1752280" cy="1615856" r="2382520" gradientUnits="userSpaceOnUse" spreadMethod="pad" id="fill22" gradientTransform="matrix(0.000360892 0 0 0.000360892 531.616 577.85)"><stop offset="0" stop-color="#7E7E7E"/><stop offset="0.5" stop-color="#B6B6B6"/><stop offset="1" stop-color="#D9D9D9"/></radialGradient><radialGradient cx="1752280" cy="1615856" r="2382520" gradientUnits="userSpaceOnUse" spreadMethod="pad" id="fill23" gradientTransform="matrix(0.000360892 0 0 0.000360892 531.616 577.85)"><stop offset="0" stop-color="#7E7E7E"/><stop offset="0.5" stop-color="#B6B6B6"/><stop offset="1" stop-color="#D9D9D9"/></radialGradient><radialGradient cx="1752280" cy="1615856" r="2382520" gradientUnits="userSpaceOnUse" spreadMethod="pad" id="fill24" gradientTransform="matrix(0.000360892 7.27596e-12 -7.27596e-12 0.000360892 531.616 577.85)"><stop offset="0" stop-color="#7E7E7E"/><stop offset="0.5" stop-color="#B6B6B6"/><stop offset="1" stop-color="#D9D9D9"/></radialGradient><radialGradient cx="1752280" cy="1615856" r="2382520" gradientUnits="userSpaceOnUse" spreadMethod="pad" id="fill25" gradientTransform="matrix(0.000360892 0 0 0.000360892 531.616 577.85)"><stop offset="0" stop-color="#7E7E7E"/><stop offset="0.5" stop-color="#B6B6B6"/><stop offset="1" stop-color="#D9D9D9"/></radialGradient><radialGradient cx="1752280" cy="1615856" r="2382520" gradientUnits="userSpaceOnUse" spreadMethod="pad" id="fill26" gradientTransform="matrix(0.000360892 0 0 0.000360892 531.616 577.85)"><stop offset="0" stop-color="#7E7E7E"/><stop offset="0.5" stop-color="#B6B6B6"/><stop offset="1" stop-color="#D9D9D9"/></radialGradient><linearGradient x1="1196.5" y1="1767" x2="1196.5" y2="1864" gradientUnits="userSpaceOnUse" spreadMethod="reflect" id="fill27"><stop offset="0" stop-color="#D9D9D9"/><stop offset="0.02" stop-color="#D8D8D8"/><stop offset="0.04" stop-color="#D8D8D8"/><stop offset="0.06" stop-color="#D8D8D8"/><stop offset="0.08" stop-color="#D8D8D8"/><stop offset="0.1" stop-color="#D8D8D8"/><stop offset="0.12" stop-color="#D8D8D8"/><stop offset="0.14" stop-color="#D7D7D7"/><stop offset="0.16" stop-color="#D7D7D7"/><stop offset="0.18" stop-color="#D6D6D6"/><stop offset="0.2" stop-color="#D6D6D6"/><stop offset="0.22" stop-color="#D6D6D6"/><stop offset="0.24" stop-color="#D5D5D5"/><stop offset="0.26" stop-color="#D4D4D4"/><stop offset="0.28" stop-color="#D4D4D4"/><stop offset="0.3" stop-color="#D3D3D3"/><stop offset="0.32" stop-color="#D2D2D2"/><stop offset="0.34" stop-color="#D2D2D2"/><stop offset="0.36" stop-color="#D1D1D1"/><stop offset="0.38" stop-color="#D0D0D0"/><stop offset="0.4" stop-color="#CFCFCF"/><stop offset="0.42" stop-color="#CECECE"/><stop offset="0.44" stop-color="#CECECE"/><stop offset="0.46" stop-color="#CDCDCD"/><stop offset="0.48" stop-color="#CCCCCC"/><stop offset="0.5" stop-color="#CBCBCB"/><stop offset="0.52" stop-color="#CACACA"/><stop offset="0.54" stop-color="#C8C8C8"/><stop offset="0.56" stop-color="#C7C7C7"/><stop offset="0.58" stop-color="#C6C6C6"/><stop offset="0.6" stop-color="#C5C5C5"/><stop offset="0.62" stop-color="#C4C4C4"/><stop offset="0.64" stop-color="#C2C2C2"/><stop offset="0.66" stop-color="#C1C1C1"/><stop offset="0.68" stop-color="#C0C0C0"/><stop offset="0.7" stop-color="#BEBEBE"/><stop offset="0.72" stop-color="#BDBDBD"/><stop offset="0.74" stop-color="#BCBCBC"/><stop offset="0.76" stop-color="#BABABA"/><stop offset="0.78" stop-color="#B8B8B8"/><stop offset="0.8" stop-color="#B7B7B7"/><stop offset="0.82" stop-color="#B5B5B5"/><stop offset="0.84" stop-color="#B4B4B4"/><stop offset="0.86" stop-color="#B2B2B2"/><stop offset="0.88" stop-color="#B0B0B0"/><stop offset="0.9" stop-color="#AFAFAF"/><stop offset="0.92" stop-color="#ADADAD"/><stop offset="0.94" stop-color="#ABABAB"/><stop offset="0.96" stop-color="#A9A9A9"/><stop offset="0.98" stop-color="#A7A7A7"/><stop offset="1" stop-color="#A6A6A6"/></linearGradient></defs><g clip-path="url(#clip6)" transform="translate(-514 -578)"><path d="M1302.02 1861.32C1132.2 1881.43 983.725 1860.95 861.459 1856.12 739.192 1851.29 625.919 1859.59 568.418 1832.35 510.917 1805.11 510.579 1762.77 516.449 1692.69 522.319 1622.6 572.022 1459.39 603.637 1411.83 635.252 1364.27 685.594 1508.61 726.316 1469.71 767.039 1430.82 789.48 1165.59 847.971 1178.45 906.463 1191.31 903.542 1414.9 965.736 1466.87 1088.46 1403.25 1100.62 1558.5 1144.1 1516.67 1187.57 1474.84 1189.35 1272.25 1226.58 1215.88 1263.81 1159.51 1288.47 1377.59 1365.26 1370 1442.04 1362.41 1517.25 1177.51 1568.43 1192.37 1619.61 1207.23 1634.59 1427.05 1672.32 1459.17 1710.05 1491.28 1758.49 1314.62 1798.48 1357.55 1838.47 1400.49 1868.07 1692.33 1873 1766.66 1790.87 1846.04 1471.83 1841.21 1302.02 1861.32Z" fill="url(#fill7)" fill-rule="evenodd"/><path d="M1707 1776 1814 1776 1814 1777 1707 1777Z" fill="#EBEBEB" fill-rule="evenodd"/><path d="M1401 1786 1430 1786 1430 1787 1401 1787Z" fill="#EBEBEB" fill-rule="evenodd"/><path d="M1641 1744 1703 1744 1703 1745 1641 1745Z" fill="#EBEBEB" fill-rule="evenodd"/><path d="M527 1750 667 1750 667 1751 527 1751Z" fill="#EBEBEB" fill-rule="evenodd"/><path d="M696 1750 716 1750 716 1751 696 1751Z" fill="#EBEBEB" fill-rule="evenodd"/><path d="M783 1765 1086 1765 1086 1766 783 1766Z" fill="#EBEBEB" fill-rule="evenodd"/><path d="M557.985 1225.82 587.182 1209.38 594.113 1221.68 564.916 1238.13Z" fill="url(#fill8)" fill-rule="evenodd"/><path d="M637 1386 658 1386 658 1425 637 1425Z" fill="url(#fill9)" fill-rule="evenodd"/><path d="M665.538 1391.54 650.003 1401.59C642.386 1406.52 632.442 1403.62 628.253 1395.23L552.822 1244.3C548.957 1236.56 551.429 1226.96 558.461 1222.4L558.461 1222.4C565.493 1217.85 574.636 1219.94 579.296 1227.16L670.266 1368.04C675.317 1375.87 673.158 1386.61 665.538 1391.54Z" fill="url(#fill10)" fill-rule="evenodd"/><path d="M582.115 1230.53 576.488 1215.69C575.057 1211.92 576.886 1207.64 580.506 1206.3L739.041 1147.4C742.436 1146.14 746.169 1147.94 747.513 1151.48L747.513 1151.48C748.856 1155.02 747.331 1159.05 744.055 1160.62L591.147 1234.36C587.657 1236.04 583.546 1234.3 582.115 1230.53Z" fill="url(#fill11)" fill-rule="evenodd"/><path d="M748.287 1156.54 748.287 1156.54C742.054 1154.85 737.78 1148.83 738.009 1142.07L738.697 1121.81 740.526 1114.9 751.334 1097.44C752.988 1094.77 756.484 1094.19 758.84 1096.21L758.84 1096.21 750.458 1119.54 749.353 1124.05 748.804 1142.45C748.762 1143.87 749.664 1145.13 750.972 1145.49L750.972 1145.49C752.281 1145.84 753.651 1145.2 754.268 1143.93L762.242 1127.54 763.347 1123.03 766.731 1098.34 766.731 1098.34C769.706 1097.78 772.488 1100.07 772.679 1103.24L774 1125.27 772.172 1132.18 763.91 1149.15C760.985 1155.16 754.497 1158.22 748.287 1156.54Z" fill="url(#fill12)" fill-rule="evenodd"/><path d="M650 1361.8C648.062 1360.66 645.828 1360 643.447 1360 636.021 1360 630 1366.32 630 1374.12 630 1376.62 630.623 1378.96 631.711 1381L650 1361.8Z" fill="url(#fill13)" fill-rule="evenodd"/><path d="M637 1386.2C638.938 1387.34 641.172 1388 643.553 1388 650.98 1388 657 1381.68 657 1373.88 657 1371.38 656.378 1369.04 655.29 1367L637 1386.2Z" fill="url(#fill14)" fill-rule="evenodd"/><path d="M599 1208.99C598.004 1208.09 596.788 1207.44 595.414 1207.16 591.131 1206.27 586.983 1209.24 586.147 1213.79 585.88 1215.24 585.986 1216.69 586.395 1218L599 1208.99Z" fill="url(#fill15)" fill-rule="evenodd"/><path d="M589 1221.83C589.996 1222.81 591.212 1223.52 592.586 1223.83 596.869 1224.8 601.018 1221.56 601.853 1216.6 602.121 1215.01 602.014 1213.43 601.605 1212L589 1221.83Z" fill="url(#fill16)" fill-rule="evenodd"/><path d="M625 1635 670 1635 670 1676 625 1676Z" fill="url(#fill17)" fill-rule="evenodd"/><path d="M763 1744 532 1744 537.335 1716.86C542.131 1692.48 562.467 1675 586.04 1675L708.958 1675C732.53 1675 752.867 1692.48 757.662 1716.86L763 1744Z" fill="url(#fill18)" fill-rule="evenodd"/><path d="M657.726 1654 633.271 1654C613.548 1654 597.898 1639.3 599.061 1621.86L611.289 1438.56C612.358 1422.52 627.356 1410 645.502 1410L645.502 1410C663.645 1410 678.645 1422.52 679.712 1438.56L691.939 1621.86C693.103 1639.3 677.449 1654 657.726 1654Z" fill="url(#fill19)" fill-rule="evenodd"/><path d="M657 1583.73C654.187 1582 650.953 1581 647.499 1581 636.731 1581 628 1590.63 628 1602.52 628 1606.32 628.906 1609.9 630.478 1613L657 1583.73Z" fill="url(#fill20)" fill-rule="evenodd"/><path d="M635 1618.35C637.91 1620.04 641.256 1621 644.828 1621 655.968 1621 665 1611.67 665 1600.16 665 1596.46 664.063 1593.01 662.438 1590L635 1618.35Z" fill="url(#fill21)" fill-rule="evenodd"/><path d="M788.738 604.799C786.8 602.937 784.766 601.257 782.67 599.728L785.181 588.362C782.498 586.641 779.73 585.143 776.897 583.851L769.635 592.613C764.742 590.736 759.667 589.596 754.553 589.17L751.366 578.014C748.254 577.949 745.146 578.11 742.053 578.491L739.902 589.922C734.85 590.871 729.905 592.53 725.206 594.897L717.178 586.923C714.479 588.5 711.86 590.273 709.345 592.262L712.885 603.315C710.938 605.053 709.069 606.933 707.31 608.987 705.552 611.038 703.968 613.189 702.521 615.409L691.787 612.75C690.161 615.591 688.747 618.522 687.526 621.521L695.801 629.21C694.029 634.391 692.952 639.765 692.55 645.18L682.013 648.557C681.952 651.852 682.104 655.143 682.464 658.418L693.26 660.695C694.156 666.045 695.723 671.281 697.959 676.256L690.427 684.759C691.914 687.618 693.591 690.391 695.47 693.05L705.912 689.302C707.554 691.363 709.329 693.342 711.269 695.201 713.206 697.063 715.238 698.743 717.334 700.272L714.822 711.637C717.506 713.359 720.274 714.857 723.107 716.149L730.369 707.388C735.262 709.264 740.337 710.404 745.451 710.83L748.637 721.986C751.749 722.051 754.858 721.89 757.95 721.505L760.101 710.074C765.154 709.126 770.099 707.47 774.798 705.099L782.826 713.074C785.525 711.497 788.144 709.724 790.656 707.734L787.115 696.682C789.062 694.943 790.931 693.064 792.69 691.009 794.449 688.958 796.035 686.807 797.479 684.585L808.213 687.244C809.839 684.402 811.254 681.472 812.474 678.472L804.2 670.783C805.971 665.602 807.049 660.228 807.451 654.813L817.987 651.44C818.049 648.145 817.896 644.853 817.536 641.579L806.74 639.301C805.845 633.952 804.278 628.716 802.042 623.74L809.573 615.24C808.084 612.382 806.409 609.609 804.531 606.95L794.092 610.698C792.453 608.64 790.675 606.661 788.738 604.799ZM773.941 673.655C762.305 687.237 742.475 688.257 729.648 675.937 716.821 663.616 715.858 642.62 727.494 629.038 739.13 615.457 758.959 614.437 771.786 626.757 784.613 639.078 785.577 660.074 773.941 673.655Z" fill="url(#fill22)" fill-rule="evenodd"/><path d="M725.507 738.568C724.436 737.606 723.322 736.717 722.179 735.893L725.219 723.015C723.61 722.085 721.966 721.253 720.289 720.505L711.483 730.443C708.753 729.54 705.948 728.945 703.115 728.652L699.249 716C697.399 715.993 695.548 716.081 693.707 716.268L691.098 729.23C688.311 729.794 685.578 730.658 682.947 731.818L673.212 722.772C671.617 723.675 670.058 724.662 668.549 725.744L672.838 738.268C671.781 739.199 670.759 740.19 669.788 741.251 668.816 742.312 667.919 743.415 667.086 744.547L654.084 741.536C653.144 743.129 652.304 744.758 651.549 746.418L661.583 755.139C660.672 757.843 660.071 760.621 659.775 763.427L647 767.255C646.993 769.088 647.082 770.918 647.271 772.744L660.359 775.328C660.928 778.088 661.8 780.795 662.968 783.4L653.838 793.041C654.749 794.62 655.746 796.164 656.839 797.659L669.485 793.411C670.425 794.458 671.425 795.47 672.497 796.432 673.568 797.394 674.682 798.283 675.825 799.108L672.785 811.985C674.394 812.916 676.038 813.748 677.715 814.495L686.517 804.558C689.247 805.46 692.055 806.056 694.885 806.348L698.751 819C700.602 819.007 702.453 818.919 704.293 818.732L706.902 805.77C709.689 805.206 712.423 804.343 715.053 803.186L724.788 812.232C726.383 811.329 727.942 810.342 729.451 809.26L725.162 796.735C726.219 795.805 727.241 794.814 728.212 793.753 729.184 792.692 730.081 791.589 730.914 790.457L743.917 793.468C744.856 791.874 745.696 790.246 746.451 788.585L736.417 779.864C737.328 777.161 737.93 774.38 738.225 771.577L751 767.749C751.007 765.916 750.918 764.083 750.73 762.26L737.641 759.676C737.072 756.916 736.2 754.209 735.032 751.604L744.162 741.963C743.251 740.383 742.255 738.84 741.161 737.345L728.515 741.593C727.579 740.542 726.578 739.53 725.507 738.568ZM716.267 783.009C707.618 792.449 692.878 793.161 683.342 784.595 673.81 776.029 673.091 761.432 681.74 751.988 690.39 742.544 705.133 741.836 714.665 750.402 724.197 758.968 724.916 773.569 716.267 783.009Z" fill="url(#fill23)" fill-rule="evenodd"/><path d="M677.971 669.256C677.213 668.134 676.402 667.074 675.553 666.07L680.892 654.372C679.649 653.177 678.354 652.07 677.013 651.037L667.135 658.831C664.887 657.449 662.51 656.345 660.045 655.525L659.186 642.724C657.538 642.363 655.871 642.094 654.193 641.921L649.219 653.781C646.621 653.787 644.009 654.089 641.428 654.692L634.602 644.208C632.997 644.764 631.406 645.408 629.84 646.151L631.102 658.912C629.97 659.598 628.857 660.348 627.775 661.174 626.692 662 625.667 662.881 624.694 663.801L613.723 658.447C612.56 659.787 611.479 661.179 610.468 662.618L617.626 672.85C616.262 675.254 615.158 677.788 614.321 680.407L602.156 681.618C601.775 683.364 601.481 685.125 601.276 686.903L612.409 691.866C612.353 694.606 612.577 697.354 613.085 700.061L602.98 707.51C603.469 709.19 604.041 710.853 604.709 712.486L616.846 710.851C617.47 712.029 618.154 713.185 618.912 714.307 619.67 715.429 620.481 716.489 621.331 717.493L615.991 729.191C617.234 730.386 618.529 731.493 619.87 732.526L629.745 724.732C631.993 726.114 634.373 727.218 636.835 728.037L637.694 740.839C639.342 741.199 641.009 741.468 642.687 741.641L647.66 729.781C650.259 729.775 652.872 729.474 655.452 728.874L662.277 739.357C663.883 738.802 665.474 738.158 667.039 737.414L665.777 724.653C666.909 723.968 668.022 723.218 669.104 722.392 670.187 721.566 671.212 720.685 672.185 719.765L683.156 725.118C684.319 723.779 685.4 722.386 686.412 720.947L679.253 710.716C680.618 708.312 681.722 705.775 682.558 703.159L694.723 701.948C695.104 700.202 695.399 698.437 695.604 696.663L684.47 691.7C684.526 688.96 684.303 686.212 683.794 683.505L693.9 676.055C693.411 674.375 692.838 672.713 692.17 671.079L680.033 672.715C679.414 671.534 678.729 670.378 677.971 669.256ZM660.656 709.866C651.02 717.216 637.741 715.08 630.995 705.091 624.252 695.103 626.594 681.047 636.231 673.694 645.868 666.341 659.149 668.481 665.892 678.469 672.635 688.457 670.292 702.516 660.656 709.866Z" fill="url(#fill24)" fill-rule="evenodd"/><path d="M1772.71 696.908C1771.73 695.973 1770.72 695.111 1769.67 694.31L1772.45 681.808C1770.98 680.905 1769.48 680.097 1767.94 679.371L1759.9 689.019C1757.41 688.146 1754.85 687.564 1752.26 687.281L1748.73 675.001C1747.04 674.991 1745.35 675.08 1743.66 675.261L1741.28 687.845C1738.73 688.393 1736.24 689.231 1733.84 690.354L1724.94 681.575C1723.49 682.451 1722.06 683.41 1720.68 684.46L1724.6 696.62C1723.64 697.524 1722.7 698.485 1721.81 699.516 1720.93 700.546 1720.11 701.617 1719.35 702.716L1707.47 699.793C1706.61 701.34 1705.84 702.921 1705.16 704.533L1714.32 713C1713.49 715.625 1712.94 718.322 1712.67 721.046L1701 724.763C1700.99 726.542 1701.07 728.318 1701.25 730.091L1713.2 732.6C1713.72 735.28 1714.52 737.908 1715.59 740.437L1707.25 749.797C1708.08 751.331 1708.99 752.83 1709.99 754.281L1721.54 750.157C1722.4 751.173 1723.31 752.155 1724.29 753.09 1725.27 754.024 1726.29 754.887 1727.33 755.687L1724.55 768.189C1726.02 769.093 1727.53 769.901 1729.06 770.626L1737.1 760.978C1739.59 761.855 1742.16 762.433 1744.74 762.717L1748.27 775C1749.96 775.007 1751.66 774.921 1753.34 774.74L1755.72 762.156C1758.27 761.608 1760.76 760.769 1763.16 759.647L1772.06 768.426C1773.51 767.549 1774.94 766.591 1776.32 765.54L1772.4 753.381C1773.36 752.477 1774.3 751.516 1775.19 750.485 1776.07 749.455 1776.89 748.384 1777.65 747.285L1789.53 750.208C1790.39 748.661 1791.16 747.08 1791.84 745.468L1782.68 737.005C1783.51 734.379 1784.06 731.679 1784.33 728.958L1796 725.242C1796.01 723.462 1795.93 721.682 1795.75 719.913L1783.8 717.404C1783.28 714.725 1782.48 712.096 1781.41 709.567L1789.75 700.207C1788.92 698.674 1788.01 697.175 1787.01 695.724L1775.46 699.848C1774.6 698.824 1773.69 697.842 1772.71 696.908ZM1764.27 740.054C1756.37 749.219 1742.91 749.91 1734.2 741.594 1725.49 733.277 1724.83 719.105 1732.73 709.937 1740.63 700.768 1754.1 700.08 1762.81 708.397 1771.52 716.713 1772.17 730.888 1764.27 740.054Z" fill="url(#fill25)" fill-rule="evenodd"/><path d="M1772.71 696.908C1771.73 695.973 1770.72 695.111 1769.67 694.31L1772.45 681.808C1770.98 680.905 1769.48 680.097 1767.94 679.371L1759.9 689.019C1757.41 688.146 1754.85 687.564 1752.26 687.281L1748.73 675.001C1747.04 674.991 1745.35 675.08 1743.66 675.261L1741.28 687.845C1738.73 688.393 1736.24 689.231 1733.84 690.354L1724.94 681.575C1723.49 682.451 1722.06 683.41 1720.68 684.46L1724.6 696.62C1723.64 697.524 1722.7 698.485 1721.81 699.516 1720.93 700.546 1720.11 701.617 1719.35 702.716L1707.47 699.793C1706.61 701.34 1705.84 702.921 1705.16 704.533L1714.32 713C1713.49 715.625 1712.94 718.322 1712.67 721.046L1701 724.763C1700.99 726.542 1701.07 728.318 1701.25 730.091L1713.2 732.6C1713.72 735.28 1714.52 737.908 1715.59 740.437L1707.25 749.797C1708.08 751.331 1708.99 752.83 1709.99 754.281L1721.54 750.157C1722.4 751.173 1723.31 752.155 1724.29 753.09 1725.27 754.024 1726.29 754.887 1727.33 755.687L1724.55 768.189C1726.02 769.093 1727.53 769.901 1729.06 770.626L1737.1 760.978C1739.59 761.855 1742.16 762.433 1744.74 762.717L1748.27 775C1749.96 775.007 1751.66 774.921 1753.34 774.74L1755.72 762.156C1758.27 761.608 1760.76 760.769 1763.16 759.647L1772.06 768.426C1773.51 767.549 1774.94 766.591 1776.32 765.54L1772.4 753.381C1773.36 752.477 1774.3 751.516 1775.19 750.485 1776.07 749.455 1776.89 748.384 1777.65 747.285L1789.53 750.208C1790.39 748.661 1791.16 747.08 1791.84 745.468L1782.68 737.005C1783.51 734.379 1784.06 731.679 1784.33 728.958L1796 725.242C1796.01 723.462 1795.93 721.682 1795.75 719.913L1783.8 717.404C1783.28 714.725 1782.48 712.096 1781.41 709.567L1789.75 700.207C1788.92 698.674 1788.01 697.175 1787.01 695.724L1775.46 699.848C1774.6 698.824 1773.69 697.842 1772.71 696.908ZM1764.27 740.054C1756.37 749.219 1742.91 749.91 1734.2 741.594 1725.49 733.277 1724.83 719.105 1732.73 709.937 1740.63 700.768 1754.1 700.08 1762.81 708.397 1771.52 716.713 1772.17 730.888 1764.27 740.054Z" fill="url(#fill26)" fill-rule="evenodd"/><path d="M515 1751 1878 1751 1878 1767 515 1767Z" fill="#BFBFBF" fill-rule="evenodd"/><rect x="515" y="1767" width="1363" height="97.0002" fill="url(#fill27)"/><path d="M1694.73 1031.59 1683.83 1036.54C1680.54 1038.03 1679.09 1041.89 1680.59 1045.17L1680.63 1045.25C1681.68 1047.54 1683.89 1048.9 1686.24 1049.03L1729.95 1144.62C1731.67 1148.38 1736.13 1150.04 1739.91 1148.32L1742.6 1147.1C1746.38 1145.38 1748.04 1140.95 1746.32 1137.18L1702.61 1041.6C1704.06 1039.74 1704.47 1037.19 1703.43 1034.91L1703.39 1034.82C1701.89 1031.54 1698.01 1030.1 1694.73 1031.59Z" fill="#DCEAF7" fill-rule="evenodd"/><path d="M1681 1038.93C1682.48 1039.28 1686.37 1038.34 1690.69 1036.48 1695.01 1034.63 1698.31 1032.47 1699 1031.18 1697.64 1030.87 1696.17 1030.94 1694.79 1031.53L1684.04 1036.16C1682.66 1036.75 1681.64 1037.75 1681 1038.93Z" fill="#89BEBD" fill-rule="evenodd"/><path d="M1714.96 1089.93C1712.1 1091.2 1709.47 1091.5 1709 1090.64L1733.21 1142.59C1734.17 1144.66 1736.68 1145.57 1738.8 1144.63L1741.53 1143.41C1743.65 1142.47 1744.59 1140.02 1743.62 1137.94L1719.41 1086C1719.77 1086.92 1717.81 1088.66 1714.96 1089.93Z" fill="#82D4D2" fill-rule="evenodd"/><path d="M1719.94 1085.54C1720.38 1086.5 1718.3 1088.37 1715.29 1089.72 1712.29 1091.08 1709.5 1091.41 1709.06 1090.45 1708.62 1089.5 1710.7 1087.63 1713.71 1086.28 1716.71 1084.92 1719.51 1084.59 1719.94 1085.54Z" fill="#87D5D3" fill-rule="evenodd"/><path d="M1690.16 1048.32C1704.39 1079.9 1718.62 1111.48 1732.85 1143.06 1733.73 1145 1736.72 1143.63 1735.84 1141.68 1721.61 1110.1 1707.38 1078.52 1693.15 1046.94 1692.27 1045 1689.28 1046.37 1690.16 1048.32L1690.16 1048.32Z" fill="#FFFFFF" fill-rule="evenodd"/><path d="M1818.58 1178.1C1816.3 1162.27 1804.14 1149.41 1788.85 1145.66L1788.85 1101.17C1792.43 1100.31 1795.09 1097.11 1795.09 1093.27L1795.09 1093.15C1795.09 1088.65 1791.45 1085 1786.95 1085L1772.05 1085C1767.55 1085 1763.91 1088.65 1763.91 1093.15L1763.91 1093.27C1763.91 1097.11 1766.57 1100.31 1770.14 1101.17L1770.14 1145.6C1752.85 1149.81 1740 1165.37 1740 1183.97 1740 1197.27 1746.57 1209.02 1756.63 1216.18 1759.24 1218.04 1762.39 1219 1765.59 1219L1793.42 1219C1796.59 1219 1799.72 1218.06 1802.31 1216.23 1813.87 1208.03 1820.84 1193.8 1818.58 1178.1Z" fill="#407BFF" fill-rule="evenodd"/><path d="M1818.58 1178.1C1816.3 1162.27 1804.14 1149.41 1788.85 1145.66L1788.85 1101.17C1792.43 1100.31 1795.09 1097.11 1795.09 1093.27L1795.09 1093.15C1795.09 1088.65 1791.45 1085 1786.95 1085L1772.05 1085C1767.55 1085 1763.91 1088.65 1763.91 1093.15L1763.91 1093.27C1763.91 1097.11 1766.57 1100.31 1770.14 1101.17L1770.14 1145.6C1752.85 1149.81 1740 1165.37 1740 1183.97 1740 1197.27 1746.57 1209.02 1756.63 1216.18 1759.24 1218.04 1762.39 1219 1765.59 1219L1793.42 1219C1796.59 1219 1799.72 1218.06 1802.31 1216.23 1813.87 1208.03 1820.84 1193.8 1818.58 1178.1Z" fill="#DCEAF7" fill-rule="evenodd"/><path d="M1767 1086.84C1768.51 1088.08 1773.5 1089 1779.5 1089 1785.5 1089 1790.5 1088.08 1792 1086.84 1790.61 1085.7 1788.88 1085 1786.97 1085L1772.03 1085C1770.12 1085 1768.39 1085.7 1767 1086.84Z" fill="#89BEBD" fill-rule="evenodd"/><path d="M1814.62 1178.81C1813.96 1174.22 1812.28 1169.93 1809.93 1166.04 1809.51 1168.3 1796.07 1170.1 1779.5 1170.1 1762.82 1170.1 1749.3 1168.27 1749.06 1166 1745.87 1171.34 1744 1177.51 1744 1184.09 1744 1195.52 1749.59 1206.31 1758.95 1212.95 1760.81 1214.27 1763.15 1215 1765.53 1215L1793.49 1215C1795.89 1215 1798.14 1214.31 1800 1212.99 1810.95 1205.25 1816.55 1192.15 1814.62 1178.81Z" fill="#82D4D2" fill-rule="evenodd"/><path d="M1810 1166C1810 1168.21 1796.34 1170 1779.5 1170 1762.66 1170 1749 1168.21 1749 1166 1749 1163.79 1762.66 1162 1779.5 1162 1796.34 1162 1810 1163.79 1810 1166Z" fill="#87D5D3" fill-rule="evenodd"/><path d="M1748 1185C1748 1185 1755.16 1211.56 1766.54 1209.93 1777.93 1208.3 1758.44 1199.4 1748 1185Z" fill="#FFFFFF" fill-rule="evenodd" fill-opacity="0.501961"/><path d="M1739.84 797.889C1736.6 808.541 1683.89 802.005 1622.12 783.288 1560.35 764.57 1512.91 740.764 1516.16 730.112 1519.4 719.459 1572.11 725.995 1633.88 744.712 1695.65 763.426 1743.09 787.233 1739.84 797.889Z" fill="#C8EBEB" fill-rule="evenodd"/><path d="M1584.43 784.5 1569.78 821.379C1568.46 824.693 1572.11 827.783 1575.19 825.956L1575.19 825.956C1575.89 825.54 1576.44 824.906 1576.75 824.151L1592.5 785.422 1584.43 784.5Z" stroke="#263238" stroke-width="3.4375" stroke-miterlimit="8" fill="none" fill-rule="evenodd"/><path d="M1654.5 805.25 1645.98 844.52C1645.21 848.046 1640.41 848.599 1638.86 845.337L1638.86 845.337C1638.51 844.592 1638.41 843.751 1638.58 842.944L1647.23 801.5 1654.5 805.25Z" stroke="#263238" stroke-width="3.4375" stroke-miterlimit="8" fill="none" fill-rule="evenodd"/><path d="M1584.79 791 1578 788.97 1582.01 776 1591 778.682Z" fill="#89BEBD" fill-rule="evenodd"/><path d="M1585 791 1592.93 789.376 1598 778 1590.56 778.91Z" fill="#5AC6C3" fill-rule="evenodd"/><path d="M1650 811.058 1656.29 813 1660 800.571 1651.69 798Z" fill="#89BEBD" fill-rule="evenodd"/><path d="M1650.23 811 1644 804.765 1645.81 792 1652 797.326Z" fill="#5AC6C3" fill-rule="evenodd"/><path d="M1577 745.781C1576.69 745.698 1561.29 742.477 1554.24 741.006 1554 740.952 1553.9 741.301 1554.14 741.378L1571.35 747 1577 745.781Z" fill="#404040" fill-rule="evenodd"/><path d="M1575.94 755 1567 752.232 1567.85 749.377C1568.6 746.86 1571.21 745.441 1573.68 746.207L1573.68 746.207C1576.16 746.973 1577.55 749.631 1576.8 752.148L1575.94 755Z" fill="#3CAEAB" fill-rule="evenodd"/><path d="M1576.91 743.865 1576.26 746 1572 744.706 1572.65 742.567C1573 741.407 1574.25 740.74 1575.41 741.096 1576.59 741.458 1577.26 742.705 1576.91 743.865Z" fill="#3CAEAB" fill-rule="evenodd"/><path d="M1588.97 748.705 1593.45 750.765C1594.26 751.136 1594.15 752.344 1593.29 752.559L1593.29 752.559C1590.89 753.148 1588.4 753.148 1586 752.552L1580.26 751.121C1580.17 751.096 1580.08 751.056 1579.99 751.005L1574.21 747.318 1572 745 1578.5 745.764C1582.13 746.19 1585.65 747.18 1588.97 748.705Z" fill="#404040" fill-rule="evenodd"/><path d="M1601 765.694 1596.93 773 1567.14 758.097C1565.55 757.601 1564.65 755.857 1565.13 754.224 1565.62 752.567 1567.31 751.637 1568.9 752.134L1575.15 754.088C1576.25 754.43 1577.02 755.343 1577.22 756.402L1577.24 756.409 1601 765.694Z" fill="#89BEBD" fill-rule="evenodd"/><path d="M1682 778C1682.3 778.104 1696.42 783.94 1702.88 786.609 1703.1 786.703 1702.99 787.058 1702.75 786.992L1685.84 782.231 1682 778Z" fill="#404040" fill-rule="evenodd"/><path d="M1677 786.234 1685.94 789 1686.8 786.146C1687.55 783.63 1686.16 780.973 1683.68 780.207L1683.68 780.207C1681.21 779.442 1678.6 780.863 1677.85 783.376L1677 786.234Z" fill="#3CAEAB" fill-rule="evenodd"/><path d="M1682.65 776.566 1682 778.705 1686.26 780 1686.91 777.859C1687.26 776.697 1686.59 775.449 1685.43 775.096 1684.25 774.74 1683 775.405 1682.65 776.566Z" fill="#3CAEAB" fill-rule="evenodd"/><path d="M1669.93 773.843 1665.09 773.015C1664.21 772.864 1663.65 773.919 1664.25 774.582L1664.25 774.582C1665.91 776.415 1667.98 777.816 1670.29 778.674L1675.82 780.723C1675.91 780.759 1676.01 780.777 1676.11 780.781L1682.9 781 1686 780.337 1680.19 777.308C1676.97 775.623 1673.5 774.456 1669.93 773.843Z" fill="#404040" fill-rule="evenodd"/><path d="M1650.57 781 1650 789.271 1683.07 793.869C1684.67 794.357 1686.38 793.442 1686.87 791.831 1687.36 790.2 1686.45 788.486 1684.85 787.994L1678.54 786.07C1677.44 785.732 1676.3 786.046 1675.55 786.799L1675.53 786.793 1650.57 781Z" fill="#89BEBD" fill-rule="evenodd"/><path d="M1551 735C1551.62 735.086 1581.17 740.676 1594.69 743.237 1595.16 743.326 1595.07 744.033 1594.59 743.999L1559.99 741.452 1551 735Z" fill="#7F7F7F" fill-rule="evenodd"/><path d="M1560.83 737.519C1560.18 739.367 1557.95 740.411 1555.84 739.847 1553.73 739.287 1552.53 737.33 1553.17 735.481 1553.81 733.633 1556.05 732.589 1558.16 733.153 1560.28 733.713 1561.47 735.67 1560.83 737.519Z" fill="#3CAEAB" fill-rule="evenodd"/><path d="M1554.03 739.614 1558.34 740.924 1557.75 742.865 1553.44 741.554Z" fill="#3CAEAB" fill-rule="evenodd"/><path d="M1527.71 731.017 1518.68 731.229C1517.05 731.27 1516.39 733.495 1517.7 734.534L1517.7 734.534C1521.33 737.419 1525.55 739.333 1530.02 740.109L1540.73 741.976C1540.91 742.009 1541.09 742.009 1541.27 741.976L1553.63 739.871 1559 737.455 1547.46 733.821C1541.05 731.808 1534.39 730.86 1527.71 731.017Z" fill="#407BFF" fill-rule="evenodd"/><path d="M1527.71 731.017 1518.68 731.229C1517.05 731.27 1516.39 733.495 1517.7 734.534L1517.7 734.534C1521.33 737.419 1525.55 739.333 1530.02 740.109L1540.73 741.976C1540.91 742.009 1541.09 742.009 1541.27 741.976L1553.63 739.871 1559 737.455 1547.46 733.821C1541.05 731.808 1534.39 730.86 1527.71 731.017Z" fill="#7F7F7F" fill-rule="evenodd"/><path d="M1558.99 756 1544 751.46 1545.71 745.86C1546.81 742.24 1550.65 740.196 1554.29 741.299L1556.12 741.857C1559.75 742.957 1561.81 746.784 1560.7 750.404L1558.99 756Z" fill="#407BFF" fill-rule="evenodd"/><path d="M1558.99 756 1544 751.46 1545.71 745.86C1546.81 742.24 1550.65 740.196 1554.29 741.299L1556.12 741.857C1559.75 742.957 1561.81 746.784 1560.7 750.404L1558.99 756Z" fill="#3CAEAB" fill-rule="evenodd"/><path d="M1626 811 1604 804.354 1605.64 802.603C1606.96 801.196 1608.97 800.658 1610.82 801.218L1622.09 804.621C1623.94 805.18 1625.31 806.738 1625.62 808.637L1626 811Z" fill="#3CAEAB" fill-rule="evenodd"/><path d="M1622.73 807.386 1608.95 803.201C1606.52 802.46 1603.95 803.834 1603.21 806.267L1601.2 812.869C1600.46 815.303 1601.83 817.874 1604.27 818.614L1618.05 822.8C1620.48 823.54 1623.05 822.166 1623.79 819.733L1625.8 813.134C1626.54 810.694 1625.17 808.122 1622.73 807.386Z" fill="#BFBFBF" fill-rule="evenodd"/><path d="M1619.13 824 1602 818.049 1602.48 816.26C1603.91 810.854 1608.92 807.802 1613.65 809.444L1613.65 809.444C1618.38 811.086 1621.05 816.8 1619.61 822.211L1619.13 824Z" fill="#3CAEAB" fill-rule="evenodd"/><path d="M1619.68 823.722C1618.37 828.763 1613.5 831.158 1608.7 829.456 1603.91 827.755 1601.01 822.601 1602.31 817.555 1603.63 812.514 1608.58 809.804 1613.37 811.51 1618.17 813.212 1620.99 818.681 1619.68 823.722Z" fill="#5AC6C3" fill-rule="evenodd"/><path d="M1616.79 823.411C1615.84 827.038 1612.04 828.902 1608.29 827.57 1604.55 826.237 1602.27 822.22 1603.21 818.589 1604.16 814.962 1607.96 813.098 1611.71 814.43 1615.45 815.763 1617.73 819.78 1616.79 823.411Z" fill="#F2F2F2" fill-rule="evenodd"/><path d="M1614.85 822.718C1614.17 825.311 1611.46 826.644 1608.78 825.693 1606.1 824.742 1604.48 821.87 1605.15 819.278 1605.83 816.685 1608.54 815.356 1611.22 816.307 1613.9 817.254 1615.52 820.126 1614.85 822.718Z" fill="#5AC6C3" fill-rule="evenodd"/><path d="M1613.89 821.705C1613.42 823.52 1611.52 824.451 1609.65 823.785 1607.77 823.119 1606.63 821.109 1607.11 819.295 1607.58 817.481 1609.48 816.549 1611.35 817.216 1613.23 817.881 1614.37 819.891 1613.89 821.705Z" fill="#7F7F7F" fill-rule="evenodd"/><path d="M1620.96 797.824 1614.77 795.883C1612.71 795.237 1611.54 792.986 1612.17 790.857L1612.17 790.857C1612.8 788.728 1614.98 787.529 1617.04 788.175L1623.23 790.115C1625.29 790.761 1626.46 793.013 1625.83 795.138L1625.83 795.138C1625.21 797.271 1623.03 798.473 1620.96 797.824Z" fill="#407BFF" fill-rule="evenodd"/><path d="M1703.29 798.781 1692.53 795.51C1691.38 795.163 1690.22 795.228 1689.18 795.613L1560.23 756.443C1559.58 755.546 1558.65 754.845 1557.51 754.498L1546.75 751.227C1543.98 750.389 1541.07 751.945 1540.23 754.704L1540.23 754.704C1539.39 757.463 1540.95 760.381 1543.71 761.219L1551.61 763.621 1551.61 763.621 1596.07 782.048 1598.18 790.672C1599.29 795.184 1602.7 798.781 1607.15 800.132L1625.88 805.821C1630.33 807.172 1635.16 806.079 1638.6 802.946L1645.16 796.956 1692.35 806.371 1692.35 806.371 1700.26 808.773C1703.02 809.611 1705.94 808.055 1706.78 805.296L1706.78 805.296C1707.61 802.537 1706.05 799.619 1703.29 798.781Z" fill="#87D5D3" fill-rule="evenodd"/><path d="M1703.29 798.781 1692.53 795.51C1691.38 795.163 1690.22 795.228 1689.18 795.613L1560.23 756.443C1559.58 755.546 1558.65 754.845 1557.51 754.498L1546.75 751.227C1543.98 750.389 1541.07 751.945 1540.23 754.704L1540.23 754.704C1539.39 757.463 1540.95 760.381 1543.71 761.219L1551.61 763.621 1551.61 763.621 1596.07 782.048 1598.18 790.672C1599.29 795.184 1602.7 798.781 1607.15 800.132L1625.88 805.821C1630.33 807.172 1635.16 806.079 1638.6 802.946L1645.16 796.956 1692.35 806.371 1692.35 806.371 1700.26 808.773C1703.02 809.611 1705.94 808.055 1706.78 805.296L1706.78 805.296C1707.61 802.537 1706.05 799.619 1703.29 798.781Z" fill="#87D5D3" fill-rule="evenodd"/><path d="M1652.85 784.691C1651.24 790.031 1637.24 790.468 1621.59 785.667 1605.93 780.867 1594.54 772.648 1596.15 767.309 1597.76 761.97 1611.76 761.533 1627.41 766.333 1643.07 771.133 1654.46 779.352 1652.85 784.691Z" fill="#5AC6C3" fill-rule="evenodd"/><path d="M1652.85 784.691C1651.24 790.031 1637.24 790.468 1621.59 785.667 1605.93 780.867 1594.54 772.648 1596.15 767.309 1597.76 761.97 1611.76 761.533 1627.41 766.333 1643.07 771.133 1654.46 779.352 1652.85 784.691Z" fill="#5AC6C3" fill-rule="evenodd"/><path d="M1709 782.67C1708.45 782.411 1681.06 771.172 1668.53 766.033 1668.09 765.853 1667.78 766.458 1668.2 766.688L1698.06 783 1709 782.67Z" fill="#7F7F7F" fill-rule="evenodd"/><path d="M1699.17 779.836C1698.53 781.949 1699.73 784.183 1701.84 784.827 1703.95 785.468 1706.18 784.279 1706.83 782.165 1707.47 780.052 1706.28 777.819 1704.16 777.175 1702.05 776.531 1699.81 777.723 1699.17 779.836Z" fill="#3CAEAB" fill-rule="evenodd"/><path d="M1703.3 787.176 1698.99 785.866 1699.58 783.925 1703.89 785.236Z" fill="#407BFF" fill-rule="evenodd"/><path d="M1729.98 792.562 1737.28 797.818C1738.6 798.767 1738 800.888 1736.39 800.968L1736.39 800.968C1731.92 801.186 1727.48 800.31 1723.41 798.407L1713.67 793.842C1713.51 793.766 1713.36 793.662 1713.23 793.538L1704.17 784.924 1701 780 1712.33 783.644C1718.63 785.665 1724.58 788.676 1729.98 792.562Z" fill="#407BFF" fill-rule="evenodd"/><path d="M1729.98 792.562 1737.28 797.818C1738.6 798.767 1738 800.888 1736.39 800.968L1736.39 800.968C1731.92 801.186 1727.48 800.31 1723.41 798.407L1713.67 793.842C1713.51 793.766 1713.36 793.662 1713.23 793.538L1704.17 784.924 1701 780 1712.33 783.644C1718.63 785.665 1724.58 788.676 1729.98 792.562Z" fill="#7F7F7F" fill-rule="evenodd"/><path d="M1690 796.386 1705.21 801 1706.65 796.241C1707.93 792.049 1705.56 787.618 1701.36 786.345L1701.36 786.345C1697.16 785.072 1692.72 787.435 1691.45 791.628L1690 796.386Z" fill="#407BFF" fill-rule="evenodd"/><path d="M1690 796.386 1705.21 801 1706.65 796.241C1707.93 792.049 1705.56 787.618 1701.36 786.345L1701.36 786.345C1697.16 785.072 1692.72 787.435 1691.45 791.628L1690 796.386Z" fill="#3CAEAB" fill-rule="evenodd"/><path d="M909.096 788.927C918.518 816.746 903.604 846.935 875.785 856.357 847.967 865.778 817.777 850.865 808.355 823.046 798.934 795.227 813.848 765.038 841.666 755.616 869.485 746.194 899.674 761.108 909.096 788.927Z" fill="#000000" fill-rule="evenodd" fill-opacity="0.101961"/><path d="M838 852.33 787.386 950 779 945.67 829.617 848Z" fill="#89BEBD" fill-rule="evenodd"/><path d="M822.077 897.596 797.463 945.022C795.589 948.635 791.134 950.044 787.515 948.173L780.985 944.794C777.366 942.923 775.954 938.475 777.829 934.862L802.443 887.436C804.531 883.409 809.496 881.836 813.53 883.922L818.554 886.523C822.591 888.611 824.165 893.569 822.077 897.596Z" fill="#A9CFCE" fill-rule="evenodd"/><path d="M876.119 861.746C875.603 861.925 875.087 862.097 874.564 862.262 859.795 866.94 844.087 865.591 830.33 858.465 801.924 843.75 790.782 808.69 805.488 780.314 812.613 766.566 824.685 756.419 839.436 751.738 854.201 747.06 869.913 748.409 883.67 755.535 912.076 770.25 923.219 805.309 908.512 833.686 901.642 846.945 890.179 856.858 876.119 861.746ZM841.088 761.448C829.391 765.514 819.855 773.758 814.137 784.789 801.9 808.398 811.175 837.569 834.809 849.814 846.258 855.748 859.334 856.869 871.619 852.975 883.897 849.078 893.936 840.641 899.863 829.204 912.1 805.595 902.825 776.424 879.191 764.179 867.742 758.246 854.666 757.125 842.381 761.018 841.948 761.159 841.514 761.3 841.088 761.448Z" fill="#9BDDDB" fill-rule="evenodd"/><path d="M833.837 767.249C817.834 776.78 805.758 802.57 813.302 823.257 815.704 827.504 817.25 830.148 819.391 833.464 820.017 834.433 821.557 834.003 821.564 832.86 821.673 807.135 829.941 784.79 846.728 764.868 847.47 763.988 846.577 762.708 845.459 763.06 841.518 764.284 838.551 765.39 833.837 767.249Z" fill="#FFFFFF" fill-rule="evenodd" fill-opacity="0.501961"/><path d="M892.995 779.122C891.109 804.766 881.633 830.684 867.135 851.625 867.007 851.812 866.818 851.957 866.605 852.033 864.5 852.815 863.06 853.348 861.444 853.933 860.498 854.276 859.65 853.234 860.147 852.338 873.107 828.842 882.84 802.233 887.396 775.567 887.686 773.875 889.846 773.422 890.765 774.861 891.353 775.778 891.958 776.74 892.701 777.935 892.921 778.284 893.026 778.703 892.995 779.122Z" fill="#FFFFFF" fill-rule="evenodd"/><path d="M1515 1771.42 1510.42 1815 1487 1812.52 1489.29 1765Z" fill="#F2AA84" fill-rule="evenodd"/><path d="M1485.67 1809.06 1511.85 1811.01C1512.84 1811.09 1513.64 1811.85 1513.79 1812.84L1516.96 1834.88C1517.25 1836.83 1515.94 1838.66 1514.02 1838.96 1513.77 1839 1513.52 1839.01 1513.28 1838.99 1503.85 1838.12 1495.5 1836.97 1483.75 1836.11 1469.88 1835.08 1473.28 1837.03 1456.96 1836.05 1447.13 1835.45 1446.15 1823.95 1450.35 1823.7 1469.59 1822.68 1471.99 1816.97 1479.84 1810.58 1481.54 1809.35 1483.61 1808.82 1485.67 1809.06Z" fill="#263238" fill-rule="evenodd"/><path d="M1487.53 1791.65 1504.89 1791 1512 1793.81 1505.93 1802 1487 1801.05Z" fill="#000000" fill-rule="evenodd" fill-opacity="0.2"/><path d="M1574 1339.27 1532.12 1590.29 1518.36 1801 1482.86 1796.66C1482.86 1796.66 1476.62 1691.25 1482.57 1580.59 1487.94 1480.66 1505.41 1376.36 1507.94 1343.02L1521.06 1320 1547.2 1323.19 1574 1339.27Z" fill="#274658" fill-rule="evenodd"/><path d="M1732 1780.98 1714.24 1790C1714.24 1790 1710.2 1782.95 1703.7 1771.55 1702.25 1769.01 1700.67 1766.24 1699 1763.31L1720.2 1754.14 1720.48 1754C1720.67 1754.47 1720.89 1754.94 1721.08 1755.38 1722.14 1757.86 1723.12 1760.18 1724.07 1762.36 1728.99 1773.84 1732 1780.98 1732 1780.98Z" fill="#F2AA84" fill-rule="evenodd"/><path d="M1709.99 1781.76 1728.75 1773.18C1729.65 1772.79 1730.7 1773.05 1731.29 1773.82L1744.29 1790.97C1745.45 1792.48 1745.16 1794.64 1743.63 1795.78 1743.43 1795.93 1743.22 1796.06 1742.99 1796.16 1734.38 1799.82 1731.52 1800.75 1720.88 1805.51 1708.32 1811.12 1712.19 1811.18 1697.51 1817.97 1688.67 1822.06 1682.47 1812.8 1686.02 1810.62 1702.31 1800.78 1708.09 1782.52 1709.99 1781.76Z" fill="#263238" fill-rule="evenodd"/><path d="M1724 1762.03 1703.69 1771C1702.24 1768.52 1700.66 1765.82 1699 1762.96L1720.15 1754 1721.02 1755.22C1722.08 1757.64 1723.05 1759.9 1724 1762.03Z" fill="#000000" fill-rule="evenodd" fill-opacity="0.2"/><path d="M1535 1338C1535 1338 1578.37 1548.23 1599.15 1598.55 1617.6 1643.23 1699.46 1769 1699.46 1769L1725 1756.26C1725 1756.26 1696.57 1675.96 1669.28 1624.39 1659.76 1606.39 1649.84 1592.59 1645.59 1582.87 1639.99 1570.07 1641.71 1357.94 1609.84 1337L1535 1338Z" fill="#1F3649" fill-rule="evenodd"/><path d="M1555 1446.02 1541.04 1536C1537.43 1484.52 1544.4 1405 1544.4 1405L1555 1446.02Z" fill="#000000" fill-rule="evenodd" fill-opacity="0.2"/><path d="M1504.25 1308.66C1505.12 1299.34 1505.71 1290.23 1504.98 1281.57 1497.66 1195.65 1497.57 1187.27 1498.29 1172.15 1498.42 1169.44 1500.17 1167.07 1502.73 1166.19 1561.89 1145.86 1613.53 1155.43 1626.91 1162.98 1644.73 1173.02 1637.64 1183.81 1637.44 1186.9 1635.77 1212.36 1619.41 1262.8 1619.16 1304.13 1619.12 1310.19 1619.8 1324.79 1620.21 1332.85 1620.37 1336.12 1618.14 1339.02 1614.95 1339.69 1601.66 1342.48 1537.87 1343.26 1526.92 1342.93 1516.51 1342.61 1509.64 1341.98 1505.25 1341.39 1501.43 1340.87 1498.88 1337.18 1499.69 1333.4 1501.31 1325.9 1503.75 1314.04 1504.25 1308.66Z" fill="#D9D9D9" fill-rule="evenodd"/><path d="M1576.9 1119C1574.69 1132.2 1572.66 1151.54 1582 1160.08 1582 1160.08 1581.85 1173.52 1545.38 1189 1531.59 1170.11 1541.36 1161.16 1541.36 1161.16 1555.85 1157.27 1555.29 1151.31 1552.51 1141.14L1576.9 1119Z" fill="#F2AA84" fill-rule="evenodd"/><path d="M1567.64 1128 1553 1140.93C1553.71 1143.24 1554.2 1145.6 1554.47 1148 1560.15 1147.07 1568.95 1142.18 1570 1136.17 1569.93 1133.3 1569.12 1130.49 1567.64 1128Z" fill="#000000" fill-rule="evenodd" fill-opacity="0.2"/><path d="M1594.02 1095.4C1588.68 1117.26 1586.86 1126.59 1573.7 1135.89 1553.9 1149.89 1528.35 1138.48 1527.09 1115.48 1525.99 1094.77 1534.96 1062.4 1558.08 1057.68 1574.57 1054.14 1590.8 1064.71 1594.33 1081.28 1595.32 1085.95 1595.21 1090.78 1594.02 1095.4Z" fill="#F2AA84" fill-rule="evenodd"/><path d="M1555.96 1092.91C1555.65 1094.82 1554.54 1096.19 1553.48 1095.98 1552.43 1095.77 1551.78 1094 1552.07 1092.09 1552.35 1090.18 1553.49 1088.81 1554.55 1089.02 1555.6 1089.23 1556.16 1091.08 1555.96 1092.91Z" fill="#263238" fill-rule="evenodd"/><path d="M1535.93 1089.34C1535.62 1091.01 1534.52 1092.16 1533.47 1091.98 1532.42 1091.8 1531.78 1090.27 1532.07 1088.63 1532.35 1086.99 1533.48 1085.81 1534.53 1086.02 1535.58 1086.24 1536.22 1087.7 1535.93 1089.34Z" fill="#263238" fill-rule="evenodd"/><path d="M1549.09 1116.98C1548.2 1116.96 1547.32 1116.87 1546.45 1116.69 1546.16 1116.65 1545.96 1116.38 1546.01 1116.09 1546.01 1116.08 1546.01 1116.08 1546.01 1116.07 1546.08 1115.78 1546.36 1115.6 1546.65 1115.66 1551.1 1116.58 1555.72 1115.29 1559.09 1112.17 1559.29 1111.95 1559.62 1111.94 1559.83 1112.15 1560.05 1112.35 1560.06 1112.7 1559.85 1112.91 1556.96 1115.7 1553.07 1117.17 1549.09 1116.98Z" fill="#263238" fill-rule="evenodd"/><path d="M1566.04 1089.99C1565.55 1090.06 1565.07 1089.83 1564.86 1089.42 1562.84 1086.57 1559.61 1084.62 1555.97 1084.06 1555.35 1083.97 1554.92 1083.44 1555.01 1082.87 1555.1 1082.31 1555.67 1081.93 1556.27 1082.01 1556.28 1082.02 1556.3 1082.02 1556.31 1082.02 1560.69 1082.67 1564.56 1085.04 1566.89 1088.53 1567.16 1089.05 1566.92 1089.65 1566.37 1089.89L1566.37 1089.89C1566.27 1089.95 1566.16 1089.99 1566.04 1089.99Z" fill="#263238" fill-rule="evenodd"/><path d="M1532.38 1081.98C1531.98 1082.06 1531.57 1081.93 1531.29 1081.64 1530.88 1081.2 1530.91 1080.51 1531.36 1080.1 1533.93 1077.59 1537.61 1076.51 1541.16 1077.21 1541.73 1077.33 1542.1 1077.88 1541.98 1078.44 1541.97 1078.47 1541.96 1078.5 1541.96 1078.52 1541.81 1079.1 1541.22 1079.45 1540.63 1079.31 1540.63 1079.31 1540.62 1079.3 1540.61 1079.3L1540.61 1079.3C1537.82 1078.85 1534.98 1079.74 1532.97 1081.68 1532.81 1081.84 1532.6 1081.94 1532.38 1081.98Z" fill="#263238" fill-rule="evenodd"/><path d="M1586.97 1153.64 1583.1 1153 1561.5 1164.92 1554.81 1165.18 1541.95 1154.2 1537.67 1155.24 1537.67 1155.24C1533.68 1167.73 1532.93 1181.04 1535.49 1193.91L1542.82 1230.72 1550.47 1271 1550.63 1270.99 1552.23 1267.28 1558.24 1253.39 1566.47 1237.54 1581.47 1198.81 1585.72 1182.86C1588.26 1173.33 1588.68 1163.35 1586.97 1153.64L1586.97 1153.64Z" fill="#7F7F7F" fill-rule="evenodd"/><path d="M1564.08 1165.43C1540.76 1165.68 1538.15 1157.04 1538.15 1157.04L1538.17 1155C1538.17 1155 1531.18 1168.33 1551.41 1170.65 1571.64 1172.96 1585.13 1163.31 1587.99 1157.51 1588 1157.5 1588 1157.49 1588 1157.49 1585.72 1160.57 1579.69 1165.26 1564.08 1165.43Z" fill="#000000" fill-rule="evenodd" fill-opacity="0.101961"/><path d="M1593.5 1118.26C1599.44 1113.59 1598.76 1105.74 1602.28 1099.05 1608.37 1087.47 1602.34 1082.65 1602.34 1082.65 1607.51 1075.48 1603.2 1065.41 1593.44 1066.56 1589.97 1060.95 1586.36 1055.2 1581.01 1051.36 1571.9 1044.82 1558.34 1045.81 1549.88 1053.18 1547.18 1050.56 1542.14 1051.06 1540.02 1054.16 1537.89 1057.26 1539.25 1062.14 1542.68 1063.7 1545.57 1068.14 1550.91 1071.46 1555.91 1073.23 1562.91 1075.7 1574.85 1076.3 1582.14 1077.71 1582.04 1083.19 1580.52 1090.08 1579.7 1095.49 1577.11 1112.51 1579.6 1131 1579.6 1131 1584.62 1127.13 1592.63 1124.54 1593.5 1118.26Z" fill="#263238" fill-rule="evenodd"/><path d="M1592.78 1111.66C1590.8 1115.13 1587.51 1117.69 1583.63 1118.76 1578.47 1120.11 1575.94 1115.5 1577.42 1110.66 1578.79 1106.31 1583.11 1100.36 1588.28 1101.06 1592.01 1101.68 1594.53 1105.19 1593.9 1108.91 1593.74 1109.89 1593.36 1110.83 1592.78 1111.66Z" fill="#F2AA84" fill-rule="evenodd"/><path d="M1583.06 1096.09 1568.07 1093.6C1566.8 1089.81 1561.41 1088.91 1559.12 1088.53 1556.73 1088.13 1551 1087.19 1548.7 1090.82L1543.47 1089.96C1542.5 1085.78 1536.77 1084.81 1534.39 1084.41 1531.6 1083.95 1524.19 1082.72 1523.12 1089 1522.27 1093.98 1526.15 1098.79 1531.78 1099.73 1537.4 1100.66 1542.67 1097.37 1543.52 1092.39 1543.58 1092.04 1543.6 1091.71 1543.61 1091.4L1548.09 1092.14C1547.99 1092.44 1547.9 1092.76 1547.85 1093.11 1547 1098.09 1550.88 1102.9 1556.51 1103.84 1562.13 1104.78 1567.4 1101.49 1568.25 1096.51 1568.34 1095.99 1568.35 1095.51 1568.33 1095.06L1582.83 1097.47C1584.81 1097.8 1586.62 1098.8 1587.93 1100.3L1589 1099.39C1587.47 1097.64 1585.36 1096.47 1583.06 1096.09ZM1532.01 1098.35C1527.16 1097.54 1523.79 1093.45 1524.51 1089.23 1525.1 1085.79 1527.98 1084.76 1534.16 1085.79 1540.33 1086.82 1542.71 1088.72 1542.13 1092.16 1541.4 1096.38 1536.87 1099.16 1532.01 1098.35ZM1556.74 1102.46C1551.88 1101.65 1548.52 1097.56 1549.24 1093.34 1549.83 1089.9 1552.71 1088.87 1558.88 1089.9 1565.06 1090.93 1567.44 1092.84 1566.85 1096.27 1566.13 1100.49 1561.59 1103.27 1556.74 1102.46Z" fill="#595959" fill-rule="evenodd"/><path d="M1538.08 1149.06 1538 1157.67C1538 1157.67 1540.59 1166.25 1563.79 1165.99 1586.98 1165.74 1588.94 1155.47 1588.94 1155.47L1589 1149.21C1589.04 1144.71 1584.99 1141.31 1580.59 1142.16 1573.92 1143.43 1562.89 1144.26 1546.02 1142.06 1541.83 1141.51 1538.12 1144.82 1538.08 1149.06Z" fill="#A6A6A6" fill-rule="evenodd"/><path d="M1544 1092C1540.96 1096.8 1537.26 1101.17 1533 1104.99 1535.1 1107.07 1538.02 1108.16 1541.01 1107.98L1544 1092Z" fill="#F84A35" fill-rule="evenodd"/><path d="M1392 1127.86C1392 1127.86 1391.75 1115.83 1379.64 1109.75 1379.64 1109.75 1377.9 1097.09 1370.82 1094.33 1363.75 1091.58 1354 1106.72 1354 1106.72 1354 1106.72 1356.18 1124.37 1369.91 1128.82L1384.88 1137 1392 1127.86Z" fill="#F2AA84" fill-rule="evenodd"/><path d="M1399 1133.98 1394.95 1124C1394.95 1124 1382.15 1126.05 1374 1138.06L1383.5 1146 1399 1133.98Z" fill="#A6A6A6" fill-rule="evenodd"/><path d="M1398.99 1132C1421.65 1162.38 1449.69 1178.43 1449.69 1178.43 1488.09 1163.64 1520 1166.54 1520 1166.54L1506.72 1196.78C1506.72 1196.78 1461.72 1212.39 1439.88 1206.79 1422.58 1202.35 1392.68 1161.65 1381 1144.92 1388.06 1136.93 1395.9 1133.23 1398.99 1132Z" fill="#7F7F7F" fill-rule="evenodd"/><path d="M1676.07 1305.75C1676.07 1305.75 1668.57 1315.29 1674.13 1327.48 1674.13 1327.48 1667.38 1338.43 1671.14 1344.93 1674.89 1351.42 1692.17 1345.6 1692.17 1345.6 1692.17 1345.6 1701.76 1330.49 1693.91 1318.58L1687.48 1303 1676.07 1305.75Z" fill="#F2AA84" fill-rule="evenodd"/><path d="M1674.02 1296 1671 1306.29C1671 1306.29 1682.24 1312.77 1696 1308.6L1693.52 1296.46 1674.02 1296Z" fill="#A6A6A6" fill-rule="evenodd"/><path d="M1672.84 1297.09C1674.22 1259.33 1662.51 1229.35 1662.51 1229.35 1662.51 1229.35 1616.95 1202.16 1602.88 1187.54 1594.81 1179.15 1597.05 1165.36 1607.36 1159.98L1607.36 1159.98C1613.19 1156.93 1620.22 1157.43 1625.55 1161.3 1642.17 1173.35 1677.61 1199.81 1687.77 1213.42 1698.4 1227.67 1696.2 1277.98 1694.83 1298.28 1684.38 1300.08 1676.01 1298.06 1672.84 1297.09Z" fill="#263238" fill-rule="evenodd"/><path d="M1672.84 1297.09C1674.22 1259.33 1662.51 1229.35 1662.51 1229.35 1662.51 1229.35 1616.95 1202.16 1602.88 1187.54 1594.81 1179.15 1597.05 1165.36 1607.36 1159.98L1607.36 1159.98C1613.19 1156.93 1620.22 1157.43 1625.55 1161.3 1642.17 1173.35 1677.61 1199.81 1687.77 1213.42 1698.4 1227.67 1696.2 1277.98 1694.83 1298.28 1684.38 1300.08 1676.01 1298.06 1672.84 1297.09Z" fill="#7F7F7F" fill-rule="evenodd"/><path d="M915.588 1429 938 1537.99 899 1540Z" fill="#407BFF" fill-rule="evenodd"/><path d="M915.588 1429 938 1537.99 899 1540Z" fill="#FFFFFF" fill-rule="evenodd" fill-opacity="0.6"/><path d="M974 1765.38 972.66 1812 951.338 1811.8 949 1763Z" fill="#FFB573" fill-rule="evenodd"/><path d="M950.562 1793.79 950 1782.7 974 1782 973.634 1794Z" fill="#000000" fill-rule="evenodd" fill-opacity="0.101961"/><path d="M974.234 1808.12 948.645 1808C947.681 1808 946.847 1808.72 946.641 1809.76L942.085 1832.73C941.667 1834.78 942.83 1836.83 944.689 1837.31 944.929 1837.37 945.169 1837.4 945.417 1837.41 954.7 1837.27 962.954 1836.75 974.513 1836.82 988.153 1836.88 984.715 1838.67 1000.76 1839 1010.43 1839.18 1011.97 1827.08 1007.87 1826.46 989.131 1823.78 987.107 1817.56 979.82 1810.18 978.238 1808.77 976.252 1808.04 974.234 1808.12Z" fill="#263238" fill-rule="evenodd"/><path d="M862 1757.63 849.695 1802 829 1796.33 838.22 1749Z" fill="#FFB573" fill-rule="evenodd"/><path d="M854.785 1786 832 1780.51 835.62 1762 860 1767.27Z" fill="#000000" fill-rule="evenodd" fill-opacity="0.101961"/><path d="M851.6 1800.1 826.37 1795.04C825.42 1794.85 824.462 1795.4 824.068 1796.38L815.314 1818.16C814.519 1820.09 815.286 1822.34 817.025 1823.17 817.246 1823.28 817.481 1823.36 817.719 1823.41 826.892 1825.08 835.128 1826.17 846.523 1828.48 859.988 1831.21 856.259 1832.3 872.07 1835.75 881.613 1837.83 885.404 1826.15 881.454 1824.75 863.399 1818.45 862.559 1811.91 856.729 1803.22 855.432 1801.52 853.608 1800.4 851.6 1800.1Z" fill="#263238" fill-rule="evenodd"/><path d="M957.746 1364C957.746 1364 981.81 1547.38 984.286 1605.84 986.224 1651.59 983.604 1776 983.604 1776L945.013 1775.65 944.238 1759.65C939.176 1655 925.482 1550.93 903.294 1448.48L886 1368.63 957.746 1364Z" fill="#407BFF" fill-rule="evenodd"/><path d="M957.746 1364C957.746 1364 981.81 1547.38 984.286 1605.84 986.224 1651.59 983.604 1776 983.604 1776L945.013 1775.65 944.238 1759.65C939.176 1655 925.482 1550.93 903.294 1448.48L886 1368.63 957.746 1364Z" fill="#263238" fill-rule="evenodd"/><path d="M906 1482.68 921.48 1407 923.777 1416.73C934.708 1463.01 936.899 1511 930.225 1558.12L927.411 1578C925.156 1567.39 914.995 1509.87 906 1482.68Z" fill="#000000" fill-rule="evenodd" fill-opacity="0.101961"/><path d="M932 1364C932 1364 919.317 1587.23 912.843 1621.48 905.225 1661.8 863.533 1768 863.533 1768L834 1759.93C834 1759.93 846.826 1677.85 854.764 1629.05 861.518 1587.53 863.751 1516.32 865.378 1469.64 865.378 1469.64 855.115 1392.17 862.154 1372.15L932 1364Z" fill="#263238" fill-rule="evenodd"/><path d="M932 1364C932 1364 919.317 1587.23 912.843 1621.48 905.225 1661.8 863.533 1768 863.533 1768L834 1759.93C834 1759.93 846.826 1677.85 854.764 1629.05 861.518 1587.53 863.751 1516.32 865.378 1469.64 865.378 1469.64 855.115 1392.17 862.154 1372.15L932 1364Z" fill="#263238" fill-rule="evenodd"/><path d="M875 1762.7 866.884 1780 825 1767.31 827.032 1752Z" fill="#7F7F7F" fill-rule="evenodd"/><path d="M988 1767 986.718 1786 939.306 1785.13 938 1767.3Z" fill="#7F7F7F" fill-rule="evenodd"/><path d="M1042.95 1142 1050.61 1128.83 1066.27 1117.86C1069.05 1115.92 1070.45 1112.57 1069.87 1109.22L1068.04 1098.48C1067.25 1093.85 1062.97 1090.59 1058.27 1091.04L1054.37 1091.42C1050.3 1091.81 1047.05 1094.91 1046.48 1098.93L1046.48 1098.93C1046.21 1100.9 1045.27 1102.71 1043.81 1104.08L1041.64 1106.12C1039.71 1107.93 1038.71 1110.51 1038.91 1113.16L1039.34 1118.72 1030 1134.23 1042.95 1142Z" fill="#FFB573" fill-rule="evenodd"/><path d="M1046.89 1142 1051 1134.11 1032.93 1123 1029 1131.97Z" fill="#263238" fill-rule="evenodd"/><path d="M1046.89 1142 1051 1134.11 1032.93 1123 1029 1131.97Z" fill="#FFFFFF" fill-rule="evenodd" fill-opacity="0.701961"/><path d="M922 1192.78 950.878 1193.27C979.586 1188.16 1004.34 1170.18 1018.55 1144.84L1029.13 1126 1051 1140.94 1028.49 1183.34C1017.68 1203.78 1000.45 1210.56 991.78 1212.09L928.137 1229 922 1192.78Z" fill="#263238" fill-rule="evenodd"/><path d="M922 1192.78 950.878 1193.27C979.586 1188.16 1004.34 1170.18 1018.55 1144.84L1029.13 1126 1051 1140.94 1028.49 1183.34C1017.68 1203.78 1000.45 1210.56 991.78 1212.09L928.137 1229 922 1192.78Z" fill="#84E291" fill-rule="evenodd"/><path d="M996 1210 930.671 1228 930 1221.66 941.356 1219.1Z" fill="#000000" fill-rule="evenodd" fill-opacity="0.2"/><path d="M956.273 1226.57 963 1367.41 963 1367.41C932.57 1376.78 915.463 1376.95 868.831 1377L858.022 1375.96 839.143 1229.37C837.975 1219.94 844.081 1211.13 853.38 1208.82L921.211 1192 938.696 1194.53C950.35 1191.64 955.731 1214.69 956.273 1226.57Z" fill="#FFFFFF" fill-rule="evenodd"/><path d="M774.948 1370 762.281 1380.48C762.281 1380.48 749.722 1384.37 748.109 1391.77 747.131 1396.25 752.906 1400.6 757.616 1403.34 761.254 1405.46 765.77 1405.57 769.478 1403.58 774.712 1400.77 780.219 1391.14 780.219 1391.14L787 1377.57 774.948 1370Z" fill="#FFB573" fill-rule="evenodd"/><path d="M775.045 1369.59C775.691 1368.46 790.499 1348 790.499 1348L802 1355.56 784.326 1381C784.323 1381 770.098 1378.24 775.045 1369.59Z" fill="#FFB573" fill-rule="evenodd"/><path d="M776.801 1362 773 1368.65 788.908 1380 794 1371.8Z" fill-rule="evenodd"/><path d="M776.801 1362 773 1368.65 788.908 1380 794 1371.8Z" fill="#FFFFFF" fill-rule="evenodd" fill-opacity="0.701961"/><path d="M836.013 1225.26 812.545 1309.02 774 1362.13 794.72 1375 844.376 1319.59 870.999 1239.87C870.999 1239.87 871.564 1205.63 851.491 1210.47 844.156 1212.24 838.473 1218.09 836.013 1225.26Z" fill="#263238" fill-rule="evenodd"/><path d="M836.013 1225.26 812.545 1309.02 774 1362.13 794.72 1375 844.376 1319.59 870.999 1239.87C870.999 1239.87 871.564 1205.63 851.491 1210.47 844.156 1212.24 838.473 1218.09 836.013 1225.26Z" fill="#84E291" fill-rule="evenodd"/><path d="M844.038 1319.38 845.513 1315.19 846 1267 834 1330Z" fill="#000000" fill-rule="evenodd" fill-opacity="0.2"/><path d="M878.55 1379.6C878.505 1381.43 878.459 1383.29 878.418 1385.2L878.418 1385.3C878.338 1388.13 878.255 1391.04 878.175 1394L842.792 1393.68C843.343 1386.95 843.786 1380.22 844.146 1373.49 844.178 1373.12 844.209 1372.74 844.212 1372.39 844.472 1367.84 844.677 1363.32 844.829 1358.79 846.423 1315.77 844.514 1272.64 839.143 1229.82 839.042 1229.01 838.994 1228.18 839.001 1227.37 839.081 1218.94 844.944 1211.42 853.503 1209.35L875.285 1204C875.285 1204 876.273 1232.5 877.215 1265.8 878.158 1299.04 879.111 1337.08 878.989 1356.09 878.955 1362.42 878.799 1370.44 878.55 1379.6Z" fill="#263238" fill-rule="evenodd"/><path d="M878.55 1379.6C878.505 1381.43 878.459 1383.29 878.418 1385.2L878.418 1385.3C878.338 1388.13 878.255 1391.04 878.175 1394L842.792 1393.68C843.343 1386.95 843.786 1380.22 844.146 1373.49 844.178 1373.12 844.209 1372.74 844.212 1372.39 844.472 1367.84 844.677 1363.32 844.829 1358.79 846.423 1315.77 844.514 1272.64 839.143 1229.82 839.042 1229.01 838.994 1228.18 839.001 1227.37 839.081 1218.94 844.944 1211.42 853.503 1209.35L875.285 1204C875.285 1204 876.273 1232.5 877.215 1265.8 878.158 1299.04 879.111 1337.08 878.989 1356.09 878.955 1362.42 878.799 1370.44 878.55 1379.6Z" fill="#84E291" fill-rule="evenodd"/><path d="M970 1379.82 938.163 1387 921 1192 938.444 1194.55C950.054 1191.65 955.405 1214.75 955.97 1226.67L958.048 1273C958.134 1275.25 958.25 1277.47 958.39 1279.72 958.455 1281.4 958.575 1283.08 958.668 1284.76 958.856 1287.63 959.044 1290.53 959.233 1293.4 959.373 1295.55 959.544 1297.69 959.712 1299.83 960.41 1308.77 961.27 1317.69 962.263 1326.61 963.232 1335.31 964.361 1344.02 965.625 1352.7 965.673 1353.13 965.751 1353.56 965.8 1354.02 967.015 1362.32 968.364 1370.6 969.846 1378.84 969.874 1379.17 969.952 1379.5 970 1379.82Z" fill="#263238" fill-rule="evenodd"/><path d="M970 1379.82 938.163 1387 921 1192 938.444 1194.55C950.054 1191.65 955.405 1214.75 955.97 1226.67L958.048 1273C958.134 1275.25 958.25 1277.47 958.39 1279.72 958.455 1281.4 958.575 1283.08 958.668 1284.76 958.856 1287.63 959.044 1290.53 959.233 1293.4 959.373 1295.55 959.544 1297.69 959.712 1299.83 960.41 1308.77 961.27 1317.69 962.263 1326.61 963.232 1335.31 964.361 1344.02 965.625 1352.7 965.673 1353.13 965.751 1353.56 965.8 1354.02 967.015 1362.32 968.364 1370.6 969.846 1378.84 969.874 1379.17 969.952 1379.5 970 1379.82Z" fill="#84E291" fill-rule="evenodd"/><path d="M917 1207.22 905.675 1225 887 1213.44 891.219 1206.99 911.507 1204Z" fill="#263238" fill-rule="evenodd"/><path d="M917 1207.22 905.675 1225 887 1213.44 891.219 1206.99 911.507 1204Z" fill="#8ED973" fill-rule="evenodd" fill-opacity="0.501961"/><path d="M917 1123C917 1123 916.159 1100.15 898 1110.85L917 1123Z" fill="#263238" fill-rule="evenodd"/><path d="M917 1123C917 1123 916.159 1100.15 898 1110.85L917 1123Z" fill="#595959" fill-rule="evenodd" fill-opacity="0.701961"/><path d="M914 1202.12 908.116 1209.52 898.202 1211 882.218 1205.99C882.279 1205.74 882.34 1205.49 882.432 1205.24 886.752 1193.92 881.804 1174.23 878 1163L905.74 1180.92C904.834 1189.09 906.262 1197.89 914 1202.12Z" fill="#FFB573" fill-rule="evenodd"/><path d="M894.632 1178.48C894.632 1178.48 899.856 1179.69 905.245 1181.47 904.827 1185.31 904.945 1189.28 906 1192.85 892.736 1194.24 885.506 1185.9 882.12 1180.04 881.779 1178.33 881.401 1176.64 881 1175L894.632 1178.48Z" fill="#000000" fill-rule="evenodd" fill-opacity="0.101961"/><path d="M868.989 1142.93C873.937 1161.24 875.923 1172.2 887.244 1179.77 904.26 1191.19 925.383 1177.93 925.976 1158.56 926.51 1141 918.303 1114.09 898.649 1110.46 884.632 1107.79 871.112 1117 868.452 1131.03 867.702 1134.98 867.887 1139.05 868.989 1142.93Z" fill="#FFB573" fill-rule="evenodd"/><path d="M921.998 1129.33C922.045 1127.83 921.307 1124.51 918.02 1125.78 918.02 1125.78 915.173 1121.96 912.784 1125.51 912.784 1125.51 908.881 1125.44 909.003 1128.24 909.159 1131.88 912.076 1128.99 916.01 1130.02 919.697 1130.99 921.913 1131.89 921.998 1129.33Z" fill="#263238" fill-rule="evenodd"/><path d="M921.998 1129.33C922.045 1127.83 921.307 1124.51 918.02 1125.78 918.02 1125.78 915.173 1121.96 912.784 1125.51 912.784 1125.51 908.881 1125.44 909.003 1128.24 909.159 1131.88 912.076 1128.99 916.01 1130.02 919.697 1130.99 921.913 1131.89 921.998 1129.33Z" fill="#494D4F" fill-rule="evenodd"/><path d="M890.667 1136.19C889.933 1135.06 889.057 1132.16 892.552 1131.54 892.552 1131.54 893.313 1127.24 897.056 1128.79 897.056 1128.79 900.471 1126.85 901.656 1129.05 903.186 1131.9 899.285 1131.11 896.28 1133.81 893.465 1136.34 891.921 1138.11 890.667 1136.19Z" fill="#263238" fill-rule="evenodd"/><path d="M890.667 1136.19C889.933 1135.06 889.057 1132.16 892.552 1131.54 892.552 1131.54 893.313 1127.24 897.056 1128.79 897.056 1128.79 900.471 1126.85 901.656 1129.05 903.186 1131.9 899.285 1131.11 896.28 1133.81 893.465 1136.34 891.921 1138.11 890.667 1136.19Z" fill="#494D4F" fill-rule="evenodd"/><path d="M912 1139C915.153 1142.71 918.858 1146.02 923 1148.8 920.996 1151.81 916.187 1152 916.187 1152L912 1139Z" fill="#ED893E" fill-rule="evenodd"/><path d="M892.366 1101.64C886.825 1099.85 873.744 1101.91 870.779 1106.85 863.107 1106.2 854.121 1112.19 852.56 1119.6 851.754 1123.43 853.036 1128.23 856.804 1129.48 853.919 1131.39 850.731 1133.89 848.475 1136.49 846.219 1139.09 844.676 1142.47 845.058 1145.87 845.44 1149.27 848.131 1152.51 851.59 1152.84 849.921 1155.88 848.76 1158.37 848.044 1161.75 847.328 1165.13 847.717 1168.9 849.89 1171.62 852.063 1174.34 856.276 1175.57 859.276 1173.77 859.829 1173.77 860.847 1173.64 861.4 1173.64 860.99 1175.34 861.928 1177.26 863.531 1178 865.133 1178.75 867.237 1178.24 868.307 1176.85 869.395 1175.43 869.997 1173 871.787 1173.19 872.277 1175.32 872.739 1178.25 874.888 1178.81 877.036 1179.37 879.473 1178.66 880.968 1177.05 878.541 1170.42 885.74 1160.64 883.314 1154.01 881.42 1148.83 879.508 1143.57 879.063 1138.08 878.618 1132.6 870.442 1129.35 874.123 1125.2 877.804 1121.06 883.804 1119.4 888.782 1121.92 888.821 1117.97 891.031 1118.13 891.031 1118.13 891.768 1117.71 895.196 1117.03 896.892 1118.79 896.395 1117.62 898.092 1115.81 900.059 1118.43 900.365 1117.85 899.691 1116.78 900.643 1116.41 901.7 1116.25 902.016 1116.81 903 1117.1 902.767 1115.71 897.907 1103.43 892.366 1101.64Z" fill="#263238" fill-rule="evenodd"/><path d="M892.366 1101.64C886.825 1099.85 873.744 1101.91 870.779 1106.85 863.107 1106.2 854.121 1112.19 852.56 1119.6 851.754 1123.43 853.036 1128.23 856.804 1129.48 853.919 1131.39 850.731 1133.89 848.475 1136.49 846.219 1139.09 844.676 1142.47 845.058 1145.87 845.44 1149.27 848.131 1152.51 851.59 1152.84 849.921 1155.88 848.76 1158.37 848.044 1161.75 847.328 1165.13 847.717 1168.9 849.89 1171.62 852.063 1174.34 856.276 1175.57 859.276 1173.77 859.829 1173.77 860.847 1173.64 861.4 1173.64 860.99 1175.34 861.928 1177.26 863.531 1178 865.133 1178.75 867.237 1178.24 868.307 1176.85 869.395 1175.43 869.997 1173 871.787 1173.19 872.277 1175.32 872.739 1178.25 874.888 1178.81 877.036 1179.37 879.473 1178.66 880.968 1177.05 878.541 1170.42 885.74 1160.64 883.314 1154.01 881.42 1148.83 879.508 1143.57 879.063 1138.08 878.618 1132.6 870.442 1129.35 874.123 1125.2 877.804 1121.06 883.804 1119.4 888.782 1121.92 888.821 1117.97 891.031 1118.13 891.031 1118.13 891.768 1117.71 895.196 1117.03 896.892 1118.79 896.395 1117.62 898.092 1115.81 900.059 1118.43 900.365 1117.85 899.691 1116.78 900.643 1116.41 901.7 1116.25 902.016 1116.81 903 1117.1 902.767 1115.71 897.907 1103.43 892.366 1101.64Z" fill="#595959" fill-rule="evenodd" fill-opacity="0.701961"/><path d="M902.871 1137.5C903.255 1139.13 902.753 1140.68 901.747 1140.96 900.738 1141.24 899.555 1140.12 899.141 1138.5 898.727 1136.88 899.26 1135.32 900.265 1135.04 901.27 1134.76 902.405 1135.98 902.871 1137.5Z" fill="#263238" fill-rule="evenodd"/><path d="M919.87 1134.5C920.257 1136.13 919.751 1137.68 918.746 1137.96 917.738 1138.24 916.555 1137.12 916.141 1135.5 915.727 1133.88 916.26 1132.32 917.268 1132.04 918.273 1131.76 919.408 1132.97 919.87 1134.5Z" fill="#263238" fill-rule="evenodd"/><path d="M925 1194.67 913.881 1193 900.112 1206.98 873.607 1200.68 867 1208.46 892.272 1224 901.074 1210.93 915.168 1219.11Z" fill="#A7EBAF" fill-rule="evenodd"/><path d="M708.073 1399.67 741.424 1360.14 800.141 1409.69 766.791 1449.21Z" fill="#46B1E1" fill-rule="evenodd"/><path d="M702.59 1405.77 735.941 1366.25 794.658 1415.79 761.308 1455.32Z" fill="#0070C0" fill-rule="evenodd"/><path d="M744.258 1388.53 727.796 1407.89C726.675 1409.21 724.683 1409.38 723.353 1408.26L718.12 1403.88C716.79 1402.77 716.619 1400.8 717.744 1399.47L734.206 1380.11C735.327 1378.79 737.319 1378.62 738.649 1379.74L743.882 1384.12C745.212 1385.23 745.379 1387.21 744.258 1388.53Z" fill="#FFFFFF" fill-rule="evenodd"/><path d="M798 1409.5 795.179 1413 739 1365.17 741.554 1362Z" fill="#FFFFFF" fill-rule="evenodd"/><path d="M740 1388.23 727.566 1404 726 1402.61 738.607 1387Z" fill="#46B1E1" fill-rule="evenodd"/><path d="M869 1149.16 870.068 1150C871.219 1148.44 874.944 1143.77 876.796 1143.33L890.37 1140.13C890.377 1140.58 890.419 1141.05 890.536 1141.56 891.645 1146.45 896.832 1149.42 902.099 1148.17 907.365 1146.93 910.749 1141.94 909.64 1137.05 909.56 1136.71 909.46 1136.4 909.349 1136.1L913.537 1135.11C913.565 1135.42 913.61 1135.75 913.686 1136.09 914.795 1140.98 919.982 1143.95 925.249 1142.71 930.515 1141.46 933.899 1136.47 932.789 1131.58 931.39 1125.41 924.451 1127.05 921.838 1127.67 919.609 1128.19 914.242 1129.48 913.583 1133.67L908.686 1134.82C906.288 1131.35 900.914 1132.6 898.685 1133.13 896.542 1133.63 891.49 1134.84 890.519 1138.66L876.489 1141.97C874.336 1142.49 870.337 1147.34 869 1149.16ZM914.992 1135.79C914.225 1132.41 916.365 1130.39 922.146 1129.03 927.927 1127.66 930.72 1128.52 931.483 1131.9 932.423 1136.04 929.489 1140.29 924.942 1141.36 920.397 1142.43 915.932 1139.93 914.992 1135.79ZM891.842 1141.25C891.075 1137.88 893.214 1135.86 898.996 1134.49 904.777 1133.13 907.569 1133.98 908.333 1137.36 909.273 1141.5 906.339 1145.75 901.792 1146.83 897.247 1147.9 892.782 1145.4 891.842 1141.25Z" fill="#263238" fill-rule="evenodd"/><g filter="url(#fx0)" transform="translate(957 691)"><g><path d="M493.997 255.65C493.235 124.605 386.509 18.9911 255.62 19.7541 124.731 20.5175 19.245 127.369 20.0039 258.414 20.5569 353.471 96.4849 417.381 144.685 492.354 159.615 515.576 158.492 602.75 158.492 602.75L359.527 601.578C359.527 601.578 357.391 514.425 372.049 491.027 419.371 415.493 494.55 350.707 493.997 255.65Z" fill="#89BEBD" fill-rule="evenodd"/><path d="M493.997 255.65C493.235 124.605 386.509 18.9911 255.62 19.7541 124.731 20.5175 19.245 127.369 20.0039 258.414 20.5569 353.471 96.4849 417.381 144.685 492.354 159.615 515.576 158.492 602.75 158.492 602.75L359.527 601.578C359.527 601.578 357.391 514.425 372.049 491.027 419.371 415.493 494.55 350.707 493.997 255.65Z" fill="#ADD3D2" fill-rule="evenodd"/></g></g><path d="M1451 932.9C1450.23 801.855 1343.51 696.241 1212.62 697.004 1081.73 697.767 976.245 804.619 977.004 935.664 977.557 1030.72 1053.48 1094.63 1101.68 1169.6 1116.61 1192.83 1115.49 1280 1115.49 1280L1316.53 1278.83C1316.53 1278.83 1314.39 1191.67 1329.05 1168.28 1376.37 1092.74 1451.55 1027.96 1451 932.9Z" fill="#89BEBD" fill-rule="evenodd"/><path d="M1451 932.9C1450.23 801.855 1343.51 696.241 1212.62 697.004 1081.73 697.767 976.245 804.619 977.004 935.664 977.557 1030.72 1053.48 1094.63 1101.68 1169.6 1116.61 1192.83 1115.49 1280 1115.49 1280L1316.53 1278.83C1316.53 1278.83 1314.39 1191.67 1329.05 1168.28 1376.37 1092.74 1451.55 1027.96 1451 932.9Z" fill="#ADD3D2" fill-rule="evenodd"/><path d="M1423 889.111C1423.14 1038.49 1329.95 1207.89 1214.79 1208 1099.64 1208.11 1006.12 1018.87 1006 889.496 1005.92 809.798 1099.22 745.107 1214.37 745 1329.52 744.893 1422.93 809.413 1423 889.111Z" fill="#FFFFFF" fill-rule="evenodd" fill-opacity="0.301961"/><path d="M1350 1034.38C1350.07 1108.66 1289.91 1168.93 1215.62 1169 1141.34 1169.07 1081.07 1108.91 1081 1034.62 1080.93 960.344 1141.09 900.069 1215.38 900 1289.66 899.931 1349.93 960.093 1350 1034.38Z" fill="#FFFFFF" fill-rule="evenodd" fill-opacity="0.4"/><path d="M1309 1068.57C1309.05 1120.98 1266.75 1136.96 1214.56 1137 1162.37 1137.05 1120.05 1121.15 1120 1068.74 1119.95 1016.33 1162.25 1001.05 1214.44 1001 1266.63 1000.96 1308.95 1016.15 1309 1068.57Z" fill="#FFFFFF" fill-rule="evenodd" fill-opacity="0.4"/><g filter="url(#fx1)" transform="translate(1106 1406)"><g><path d="M164.568 61.7501 51.4293 61.7467 20.0001 19.7501 196 19.7538Z" fill="#AEAEAE" fill-rule="evenodd"/></g></g><path d="M1270.57 1454 1157.43 1454 1126 1412 1302 1412Z" fill="#AEAEAE" fill-rule="evenodd"/><g filter="url(#fx2)" transform="translate(1085 1238)"><g><path d="M20.0001 28.3218 20.0001 28.3218C19.9763 24.1911 23.2963 20.825 27.4169 20.8044L228.508 19.75C232.622 19.7294 235.976 23.0542 236 27.178L236 27.178C236.024 31.3091 232.704 34.6752 228.584 34.6958L27.4927 35.7498C23.3785 35.774 20.0243 32.4492 20.0001 28.3218Z" fill="#AEAEAE" fill-rule="evenodd"/></g></g><path d="M1105 1252.57 1105 1252.57C1104.98 1248.44 1108.3 1245.07 1112.42 1245.05L1313.51 1244C1317.62 1243.98 1320.98 1247.3 1321 1251.43L1321 1251.43C1321.02 1255.56 1317.7 1258.93 1313.58 1258.95L1112.49 1260C1108.38 1260.02 1105.02 1256.7 1105 1252.57Z" fill="#AEAEAE" fill-rule="evenodd"/><g filter="url(#fx3)" transform="translate(1069 1249)"><g><path d="M270 47.1922C269.969 62.377 257.707 74.6417 242.614 74.6656L214.74 74.714C212.782 75.2132 210.649 75.4887 208.509 75.4851L47.4617 75.7504C32.314 75.7742 20.0242 63.4821 20 48.2977 20.0379 33.337 31.9086 21.1963 46.7646 20.8413L47.3827 20.8276 75.2569 20.7795C77.0499 20.3421 78.9561 20.0703 80.8692 20.0255L81.4876 20.0117 242.535 19.75C257.686 19.7157 269.973 32.0078 270 47.1922Z" fill="#D9D9D9" fill-rule="evenodd"/></g></g><path d="M1339 1282.44C1338.97 1297.63 1326.71 1309.89 1311.61 1309.92L1283.74 1309.96C1281.78 1310.46 1279.65 1310.74 1277.51 1310.74L1116.46 1311C1101.31 1311.02 1089.02 1298.73 1089 1283.55 1089.04 1268.59 1100.91 1256.45 1115.76 1256.09L1116.38 1256.08 1144.26 1256.03C1146.05 1255.59 1147.96 1255.32 1149.87 1255.28L1150.49 1255.26 1311.54 1255C1326.69 1254.97 1338.97 1267.26 1339 1282.44Z" fill="#D9D9D9" fill-rule="evenodd"/><g filter="url(#fx4)" transform="translate(1077 1303)"><g><path d="M253 46.9132C252.997 61.9078 241.588 73.995 227.522 73.995L201.545 73.9986C199.72 74.488 197.734 74.76 195.737 74.7496L45.6397 74.7396C31.5219 74.7396 20.0479 62.5811 19.9999 47.5864 20.01 32.8131 31.0539 20.8484 44.8995 20.5185L45.4782 20.505 71.4552 20.5014C73.125 20.0695 74.9013 19.8078 76.6846 19.7636L77.2592 19.75 227.36 19.7604C241.478 19.7636 252.952 31.9225 253 46.9132Z" fill="#BFBFBF" fill-rule="evenodd"/></g></g><path d="M1330 1336.16C1330 1351.16 1318.59 1363.24 1304.52 1363.24L1278.54 1363.25C1276.72 1363.74 1274.73 1364.01 1272.74 1364L1122.64 1363.99C1108.52 1363.99 1097.05 1351.83 1097 1336.84 1097.01 1322.06 1108.05 1310.1 1121.9 1309.77L1122.48 1309.76 1148.46 1309.75C1150.12 1309.32 1151.9 1309.06 1153.68 1309.01L1154.26 1309 1304.36 1309.01C1318.48 1309.01 1329.95 1321.17 1330 1336.16Z" fill="#BFBFBF" fill-rule="evenodd"/><g filter="url(#fx5)" transform="translate(1085 1354)"><g><path d="M235 47.6203C235.024 62.8302 224.519 75.0703 211.541 75.0427L187.569 74.9978C185.886 75.491 184.051 75.76 182.21 75.7495L43.7105 75.4704C30.6839 75.4461 20.0759 63.0924 20.0001 47.8828 19.9832 32.9006 30.1512 20.7811 42.9272 20.4708L43.4595 20.457 67.4311 20.5019C68.97 20.0671 70.6085 19.8017 72.2574 19.7636L72.7901 19.7499 211.29 20.029C224.317 20.0569 234.928 32.4107 235 47.6203Z" fill="#A6A6A6" fill-rule="evenodd"/></g></g><path d="M1320 1387.87C1320.02 1403.08 1309.52 1415.32 1296.54 1415.29L1272.57 1415.25C1270.89 1415.74 1269.05 1416.01 1267.21 1416L1128.71 1415.72C1115.68 1415.7 1105.08 1403.34 1105 1388.13 1104.98 1373.15 1115.15 1361.03 1127.93 1360.72L1128.46 1360.71 1152.43 1360.75C1153.97 1360.32 1155.61 1360.05 1157.26 1360.01L1157.79 1360 1296.29 1360.28C1309.32 1360.31 1319.93 1372.66 1320 1387.87Z" fill="#A6A6A6" fill-rule="evenodd"/><path d="M1121 1423.71 1121 1423.71C1120.98 1419.65 1124.31 1416.35 1128.44 1416.34L1298.53 1416C1302.64 1415.99 1305.98 1419.25 1306 1423.29L1306 1423.29C1306.02 1427.35 1302.69 1430.65 1298.56 1430.66L1128.47 1431C1124.36 1431.01 1121.02 1427.75 1121 1423.71Z" fill="#7F7F7F" fill-rule="evenodd"/><path d="M1173.44 913.552 1159 921.571C1159.9 926.183 1161.12 930.681 1162.62 935.049L1179.11 934.777C1182.07 941.991 1185.98 948.706 1190.68 954.784L1182.2 968.925C1185.26 972.439 1188.56 975.737 1192.07 978.8L1206.22 970.319C1212.29 975.021 1219.01 978.934 1226.22 981.897L1225.95 998.386C1230.32 999.883 1234.82 1001.1 1239.43 1002L1247.45 987.562C1251.23 988.068 1255.08 988.354 1259 988.354 1262.92 988.354 1266.77 988.068 1270.56 987.562L1278.57 1002C1283.19 1001.1 1287.68 999.883 1292.05 998.386L1291.78 981.897C1298.99 978.934 1305.71 975.024 1311.79 970.319L1325.93 978.8C1329.44 975.737 1332.74 972.436 1335.8 968.925L1327.32 954.784C1332.02 948.706 1335.94 941.991 1338.9 934.777L1355.39 935.049C1356.88 930.681 1358.1 926.187 1359 921.571L1344.56 913.552C1345.07 909.77 1345.35 905.918 1345.35 901.998 1345.35 898.078 1345.07 894.227 1344.56 890.444L1359 882.425C1358.1 877.814 1356.88 873.315 1355.39 868.948L1338.9 869.22C1335.93 862.009 1332.02 855.291 1327.32 849.213L1335.8 835.071C1332.74 831.557 1329.44 828.26 1325.93 825.197L1311.78 833.677C1305.71 828.976 1298.99 825.063 1291.78 822.103L1292.05 805.614C1287.68 804.117 1283.18 802.898 1278.57 802L1270.55 816.438C1266.77 815.932 1262.92 815.646 1259 815.646 1255.08 815.646 1251.23 815.932 1247.44 816.438L1239.43 802C1234.81 802.898 1230.32 804.117 1225.95 805.614L1226.22 822.103C1219.01 825.066 1212.29 828.976 1206.21 833.677L1192.07 825.197C1188.56 828.26 1185.26 831.561 1182.2 835.071L1190.68 849.213C1185.98 855.291 1182.06 862.006 1179.1 869.22L1162.61 868.948C1161.12 873.315 1159.9 877.814 1159 882.425L1173.44 890.444C1172.93 894.227 1172.65 898.078 1172.65 901.998 1172.65 905.922 1172.94 909.773 1173.44 913.552ZM1212.72 904.067C1212.72 878.123 1233.75 857.094 1259.69 857.094 1285.63 857.094 1306.66 878.127 1306.66 904.067 1306.66 930.01 1285.63 951.039 1259.69 951.039 1233.75 951.039 1212.72 930.007 1212.72 904.067Z" fill="#516A77" fill-rule="evenodd"/><path d="M1100.95 1037.35 1085 1046.2C1085.53 1048.69 1086.19 1051.13 1086.97 1053.52L1105.2 1053.21C1106.78 1056.81 1108.75 1060.2 1111.05 1063.34L1101.67 1078.97C1103.36 1080.85 1105.15 1082.64 1107.03 1084.33L1122.67 1074.96C1125.8 1077.26 1129.19 1079.22 1132.79 1080.81L1132.49 1099.04C1134.87 1099.82 1137.31 1100.48 1139.8 1101L1148.66 1085.06C1150.58 1085.26 1152.53 1085.38 1154.5 1085.38 1156.48 1085.38 1158.43 1085.26 1160.35 1085.06L1169.2 1101C1171.69 1100.48 1174.13 1099.82 1176.51 1099.04L1176.21 1080.81C1179.81 1079.22 1183.2 1077.26 1186.34 1074.96L1201.97 1084.33C1203.85 1082.64 1205.64 1080.85 1207.33 1078.97L1197.96 1063.34C1200.26 1060.2 1202.22 1056.81 1203.81 1053.21L1222.04 1053.52C1222.82 1051.13 1223.48 1048.69 1224 1046.2L1208.06 1037.35C1208.26 1035.42 1208.38 1033.48 1208.38 1031.5 1208.38 1029.52 1208.26 1027.58 1208.06 1025.66L1224 1016.8C1223.48 1014.31 1222.82 1011.87 1222.04 1009.48L1203.81 1009.79C1202.22 1006.19 1200.26 1002.8 1197.96 999.664L1207.33 984.03C1205.64 982.15 1203.85 980.36 1201.97 978.671L1186.34 988.043C1183.2 985.744 1179.81 983.779 1176.21 982.192L1176.51 963.962C1174.13 963.184 1171.69 962.523 1169.2 962L1160.34 977.944C1158.42 977.737 1156.47 977.624 1154.5 977.624 1152.52 977.624 1150.57 977.737 1148.65 977.944L1139.8 962C1137.31 962.523 1134.87 963.184 1132.48 963.962L1132.78 982.192C1129.19 983.779 1125.79 985.744 1122.66 988.043L1107.03 978.671C1105.15 980.36 1103.36 982.147 1101.67 984.03L1111.04 999.664C1108.74 1002.8 1106.78 1006.19 1105.19 1009.79L1086.96 1009.48C1086.18 1011.87 1085.52 1014.31 1085 1016.8L1100.94 1025.66C1100.74 1027.58 1100.62 1029.52 1100.62 1031.5 1100.63 1033.48 1100.74 1035.42 1100.95 1037.35ZM1122.66 1031.5C1122.66 1013.92 1136.92 999.664 1154.5 999.664 1172.08 999.664 1186.34 1013.92 1186.34 1031.5 1186.34 1049.08 1172.08 1063.34 1154.5 1063.34 1136.92 1063.34 1122.66 1049.08 1122.66 1031.5Z" fill="#516A77" fill-rule="evenodd"/><path d="M1100.95 1037.35 1085 1046.2C1085.53 1048.69 1086.19 1051.13 1086.97 1053.52L1105.2 1053.21C1106.78 1056.81 1108.75 1060.2 1111.05 1063.34L1101.67 1078.97C1103.36 1080.85 1105.15 1082.64 1107.03 1084.33L1122.67 1074.96C1125.8 1077.26 1129.19 1079.22 1132.79 1080.81L1132.49 1099.04C1134.87 1099.82 1137.31 1100.48 1139.8 1101L1148.66 1085.06C1150.58 1085.26 1152.53 1085.38 1154.5 1085.38 1156.48 1085.38 1158.43 1085.26 1160.35 1085.06L1169.2 1101C1171.69 1100.48 1174.13 1099.82 1176.51 1099.04L1176.21 1080.81C1179.81 1079.22 1183.2 1077.26 1186.34 1074.96L1201.97 1084.33C1203.85 1082.64 1205.64 1080.85 1207.33 1078.97L1197.96 1063.34C1200.26 1060.2 1202.22 1056.81 1203.81 1053.21L1222.04 1053.52C1222.82 1051.13 1223.48 1048.69 1224 1046.2L1208.06 1037.35C1208.26 1035.42 1208.38 1033.48 1208.38 1031.5 1208.38 1029.52 1208.26 1027.58 1208.06 1025.66L1224 1016.8C1223.48 1014.31 1222.82 1011.87 1222.04 1009.48L1203.81 1009.79C1202.22 1006.19 1200.26 1002.8 1197.96 999.664L1207.33 984.03C1205.64 982.15 1203.85 980.36 1201.97 978.671L1186.34 988.043C1183.2 985.744 1179.81 983.779 1176.21 982.192L1176.51 963.962C1174.13 963.184 1171.69 962.523 1169.2 962L1160.34 977.944C1158.42 977.737 1156.47 977.624 1154.5 977.624 1152.52 977.624 1150.57 977.737 1148.65 977.944L1139.8 962C1137.31 962.523 1134.87 963.184 1132.48 963.962L1132.78 982.192C1129.19 983.779 1125.79 985.744 1122.66 988.043L1107.03 978.671C1105.15 980.36 1103.36 982.147 1101.67 984.03L1111.04 999.664C1108.74 1002.8 1106.78 1006.19 1105.19 1009.79L1086.96 1009.48C1086.18 1011.87 1085.52 1014.31 1085 1016.8L1100.94 1025.66C1100.74 1027.58 1100.62 1029.52 1100.62 1031.5 1100.63 1033.48 1100.74 1035.42 1100.95 1037.35ZM1122.66 1031.5C1122.66 1013.92 1136.92 999.664 1154.5 999.664 1172.08 999.664 1186.34 1013.92 1186.34 1031.5 1186.34 1049.08 1172.08 1063.34 1154.5 1063.34 1136.92 1063.34 1122.66 1049.08 1122.66 1031.5Z" fill="#516A77" fill-rule="evenodd"/><path d="M908.316 1165.99C907.362 1165.96 906.416 1165.87 905.48 1165.69 905.176 1165.65 904.962 1165.38 905.006 1165.09 905.006 1165.08 905.006 1165.08 905.009 1165.07 905.085 1164.78 905.386 1164.6 905.695 1164.66 910.466 1165.58 915.411 1164.29 919.022 1161.17 919.236 1160.95 919.595 1160.94 919.823 1161.15 920.051 1161.35 920.059 1161.7 919.845 1161.91 916.738 1164.7 912.579 1166.17 908.316 1165.99Z" fill="#263238" fill-rule="evenodd"/><path d="M808.869 1517.95C809.452 1517.43 809.647 1516.65 809.388 1515.93 809.128 1515.21 808.481 1514.76 807.704 1514.76L801.746 1514.76C800.969 1514.76 800.321 1514.24 800.062 1513.52L798.184 1507.74C797.925 1507.02 797.277 1506.5 796.5 1506.5 795.723 1506.5 795.075 1507.02 794.816 1507.74L792.938 1513.52C792.679 1514.24 792.031 1514.76 791.254 1514.76L785.296 1514.76C784.584 1514.76 783.872 1515.21 783.612 1515.93 783.353 1516.65 783.548 1517.43 784.131 1517.95L786.203 1519.83 788.858 1522.17C789.117 1522.43 789.311 1522.69 789.376 1523.02 789.441 1523.34 789.441 1523.73 789.376 1524.06L787.563 1530.17C787.304 1530.89 787.563 1531.67 788.211 1532.12 788.793 1532.58 789.635 1532.58 790.283 1532.19L795.464 1528.55C796.047 1528.09 796.888 1528.09 797.471 1528.55L802.652 1532.19C803.3 1532.64 804.077 1532.58 804.725 1532.12 805.307 1531.67 805.567 1530.89 805.372 1530.17L803.624 1524.06C803.429 1523.41 803.624 1522.63 804.142 1522.17L808.869 1517.95Z" stroke="#83CBEB" stroke-width="3.4375" stroke-linecap="square" stroke-miterlimit="8" stroke-dasharray="10.3125 3.4375" fill="none" fill-rule="evenodd"/><path d="M1218.9 1521.97C1219.47 1521.49 1219.63 1520.67 1219.39 1520.02 1219.15 1519.29 1218.49 1518.88 1217.76 1518.8L1211.8 1518.8C1211.07 1518.8 1210.33 1518.31 1210.09 1517.58L1208.21 1511.72C1207.97 1510.99 1207.32 1510.5 1206.5 1510.5 1205.77 1510.5 1205.03 1510.99 1204.79 1511.72L1202.91 1517.58C1202.67 1518.31 1202.01 1518.8 1201.2 1518.8L1195.24 1518.8C1194.51 1518.8 1193.85 1519.29 1193.61 1520.02 1193.37 1520.75 1193.53 1521.49 1194.1 1521.97L1196.22 1523.85 1198.91 1526.21C1199.16 1526.45 1199.32 1526.78 1199.48 1527.1 1199.57 1527.43 1199.57 1527.75 1199.48 1528.16L1197.53 1534.18C1197.28 1534.91 1197.53 1535.73 1198.18 1536.13 1198.83 1536.62 1199.65 1536.62 1200.22 1536.13L1205.44 1532.47C1206.01 1532.07 1206.83 1532.07 1207.48 1532.47L1212.7 1536.13C1213.35 1536.62 1214.17 1536.62 1214.82 1536.13 1215.47 1535.65 1215.72 1534.83 1215.47 1534.1L1213.68 1528C1213.52 1527.35 1213.68 1526.61 1214.25 1526.12L1218.9 1521.97Z" stroke="#83CBEB" stroke-width="3.4375" stroke-linecap="square" stroke-miterlimit="8" stroke-dasharray="10.3125 3.4375" fill="none" fill-rule="evenodd"/><path d="M1126.56 1676.8C1127.38 1675.98 1127.7 1674.84 1127.38 1673.86 1127.05 1672.88 1125.91 1672.06 1124.93 1672.06L1115.98 1672.06C1114.84 1672.06 1113.86 1671.25 1113.54 1670.27L1110.6 1661.46C1110.12 1660.32 1109.14 1659.5 1108 1659.5 1106.86 1659.5 1105.88 1660.32 1105.4 1661.3L1102.46 1670.11C1102.14 1671.25 1101.16 1671.9 1100.02 1671.9L1091.07 1671.9C1089.93 1671.9 1088.95 1672.55 1088.62 1673.7 1088.3 1674.68 1088.62 1675.98 1089.44 1676.63L1092.53 1679.41 1096.44 1683C1096.77 1683.32 1097.09 1683.81 1097.25 1684.3 1097.42 1684.79 1097.42 1685.28 1097.25 1685.77L1094.49 1695.07C1094.16 1696.22 1094.49 1697.36 1095.46 1698.01 1096.44 1698.66 1097.58 1698.66 1098.56 1698.01L1106.37 1692.46C1107.35 1691.81 1108.49 1691.81 1109.47 1692.46L1117.28 1698.01C1118.26 1698.66 1119.4 1698.66 1120.37 1698.01 1121.35 1697.36 1121.68 1696.05 1121.35 1695.07L1118.58 1685.77C1118.26 1684.79 1118.58 1683.65 1119.4 1683L1126.56 1676.8Z" stroke="#83CBEB" stroke-width="3.4375" stroke-linecap="square" stroke-miterlimit="8" stroke-dasharray="10.3125 3.4375" fill="none" fill-rule="evenodd"/><path d="M1835.9 1663.97C1836.47 1663.49 1836.63 1662.67 1836.39 1662.02 1836.15 1661.29 1835.49 1660.88 1834.76 1660.8L1828.8 1660.8C1828.07 1660.8 1827.33 1660.31 1827.09 1659.58L1825.21 1653.72C1824.97 1652.99 1824.32 1652.5 1823.5 1652.5 1822.77 1652.5 1822.03 1652.99 1821.79 1653.72L1819.91 1659.58C1819.67 1660.31 1819.01 1660.8 1818.2 1660.8L1812.24 1660.8C1811.51 1660.8 1810.85 1661.29 1810.61 1662.02 1810.37 1662.75 1810.53 1663.49 1811.1 1663.97L1813.22 1665.85 1815.91 1668.21C1816.16 1668.45 1816.32 1668.78 1816.48 1669.1 1816.57 1669.43 1816.57 1669.75 1816.48 1670.16L1814.53 1676.18C1814.28 1676.91 1814.53 1677.73 1815.18 1678.13 1815.83 1678.62 1816.65 1678.62 1817.22 1678.13L1822.44 1674.47C1823.01 1674.07 1823.83 1674.07 1824.48 1674.47L1829.7 1678.13C1830.35 1678.62 1831.17 1678.62 1831.82 1678.13 1832.47 1677.65 1832.72 1676.83 1832.47 1676.1L1830.68 1670C1830.52 1669.35 1830.68 1668.61 1831.25 1668.12L1835.9 1663.97Z" stroke="#83CBEB" stroke-width="3.4375" stroke-linecap="square" stroke-miterlimit="8" stroke-dasharray="10.3125 3.4375" fill="none" fill-rule="evenodd"/><path d="M1457.9 1288.97C1458.47 1288.49 1458.63 1287.67 1458.39 1287.02 1458.15 1286.29 1457.49 1285.88 1456.76 1285.8L1450.8 1285.8C1450.07 1285.8 1449.33 1285.31 1449.09 1284.58L1447.21 1278.72C1446.97 1277.99 1446.32 1277.5 1445.5 1277.5 1444.77 1277.5 1444.03 1277.99 1443.79 1278.72L1441.91 1284.58C1441.67 1285.31 1441.01 1285.8 1440.2 1285.8L1434.24 1285.8C1433.51 1285.8 1432.85 1286.29 1432.61 1287.02 1432.37 1287.75 1432.53 1288.49 1433.1 1288.97L1435.22 1290.85 1437.91 1293.21C1438.16 1293.45 1438.32 1293.78 1438.48 1294.1 1438.57 1294.43 1438.57 1294.75 1438.48 1295.16L1436.53 1301.18C1436.28 1301.91 1436.53 1302.73 1437.18 1303.13 1437.83 1303.62 1438.65 1303.62 1439.22 1303.13L1444.44 1299.47C1445.01 1299.07 1445.83 1299.07 1446.48 1299.47L1451.7 1303.13C1452.35 1303.62 1453.17 1303.62 1453.82 1303.13 1454.47 1302.65 1454.72 1301.83 1454.47 1301.1L1452.68 1295C1452.52 1294.35 1452.68 1293.61 1453.25 1293.12L1457.9 1288.97Z" stroke="#83CBEB" stroke-width="3.4375" stroke-linecap="square" stroke-miterlimit="8" stroke-dasharray="10.3125 3.4375" fill="none" fill-rule="evenodd"/><path d="M1448.6 1515.71C1449.46 1514.98 1449.7 1513.76 1449.33 1512.78 1448.97 1511.68 1447.99 1511.07 1446.89 1510.95L1437.95 1510.95C1436.85 1510.95 1435.75 1510.22 1435.38 1509.12L1432.57 1500.33C1432.2 1499.23 1431.22 1498.5 1430 1498.5 1428.9 1498.5 1427.8 1499.23 1427.43 1500.33L1424.62 1509.12C1424.25 1510.22 1423.27 1510.95 1422.05 1510.95L1413.11 1510.95C1412.01 1510.95 1411.03 1511.68 1410.67 1512.78 1410.3 1513.88 1410.54 1514.98 1411.4 1515.71L1414.58 1518.52 1418.62 1522.06C1418.99 1522.42 1419.23 1522.91 1419.48 1523.4 1419.6 1523.89 1419.6 1524.38 1419.48 1524.99L1416.54 1534.02C1416.17 1535.12 1416.54 1536.34 1417.52 1536.95 1418.5 1537.68 1419.72 1537.68 1420.58 1536.95L1428.41 1531.46C1429.27 1530.85 1430.49 1530.85 1431.47 1531.46L1439.3 1536.95C1440.28 1537.68 1441.5 1537.68 1442.48 1536.95 1443.46 1536.22 1443.83 1535 1443.46 1533.9L1440.77 1524.74C1440.52 1523.77 1440.77 1522.67 1441.63 1521.94L1448.6 1515.71Z" stroke="#83CBEB" stroke-width="3.4375" stroke-linecap="square" stroke-miterlimit="8" stroke-dasharray="10.3125 3.4375" fill="none" fill-rule="evenodd"/><path d="M717.601 1317.71C718.457 1316.98 718.702 1315.76 718.335 1314.78 717.968 1313.68 716.989 1313.07 715.887 1312.95L706.954 1312.95C705.853 1312.95 704.752 1312.22 704.384 1311.12L701.57 1302.33C701.203 1301.23 700.224 1300.5 699 1300.5 697.899 1300.5 696.797 1301.23 696.43 1302.33L693.616 1311.12C693.249 1312.22 692.27 1312.95 691.046 1312.95L682.113 1312.95C681.011 1312.95 680.032 1313.68 679.665 1314.78 679.298 1315.88 679.543 1316.98 680.4 1317.71L683.581 1320.52 687.619 1324.06C687.987 1324.42 688.231 1324.91 688.476 1325.4 688.598 1325.89 688.598 1326.38 688.476 1326.99L685.539 1336.02C685.172 1337.12 685.539 1338.34 686.518 1338.95 687.497 1339.68 688.721 1339.68 689.577 1338.95L697.409 1333.46C698.266 1332.85 699.49 1332.85 700.469 1333.46L708.3 1338.95C709.279 1339.68 710.503 1339.68 711.482 1338.95 712.461 1338.22 712.828 1337 712.461 1335.9L709.769 1326.74C709.524 1325.77 709.769 1324.67 710.625 1323.94L717.601 1317.71Z" stroke="#83CBEB" stroke-width="3.4375" stroke-linecap="square" stroke-miterlimit="8" stroke-dasharray="10.3125 3.4375" fill="none" fill-rule="evenodd"/><path d="M568.901 1630.97C569.472 1630.49 569.635 1629.67 569.39 1629.02 569.145 1628.29 568.493 1627.88 567.758 1627.8L561.803 1627.8C561.069 1627.8 560.334 1627.31 560.09 1626.58L558.213 1620.72C557.969 1619.99 557.316 1619.5 556.5 1619.5 555.766 1619.5 555.032 1619.99 554.787 1620.72L552.91 1626.58C552.666 1627.31 552.013 1627.8 551.197 1627.8L545.242 1627.8C544.507 1627.8 543.855 1628.29 543.61 1629.02 543.365 1629.75 543.528 1630.49 544.1 1630.97L546.221 1632.85 548.913 1635.21C549.158 1635.45 549.321 1635.78 549.484 1636.1 549.566 1636.43 549.566 1636.75 549.484 1637.16L547.526 1643.18C547.281 1643.91 547.526 1644.73 548.179 1645.13 548.831 1645.62 549.647 1645.62 550.218 1645.13L555.439 1641.47C556.011 1641.07 556.826 1641.07 557.479 1641.47L562.7 1645.13C563.353 1645.62 564.169 1645.62 564.821 1645.13 565.474 1644.65 565.719 1643.83 565.474 1643.1L563.679 1637C563.516 1636.35 563.679 1635.61 564.25 1635.12L568.901 1630.97Z" stroke="#83CBEB" stroke-width="3.4375" stroke-linecap="square" stroke-miterlimit="8" stroke-dasharray="10.3125 3.4375" fill="none" fill-rule="evenodd"/><path d="M641.561 864.797C642.375 863.981 642.701 862.839 642.375 861.86 642.05 860.881 640.91 860.065 639.933 860.065L630.978 860.065C629.838 860.065 628.861 859.249 628.536 858.27L625.605 849.458C625.117 848.316 624.14 847.5 623 847.5 621.86 847.5 620.883 848.316 620.395 849.295L617.464 858.107C617.139 859.249 616.162 859.902 615.022 859.902L606.067 859.902C604.927 859.902 603.951 860.554 603.625 861.696 603.299 862.676 603.625 863.981 604.439 864.634L607.532 867.408 611.44 870.998C611.766 871.324 612.091 871.814 612.254 872.303 612.417 872.793 612.417 873.282 612.254 873.772L609.486 883.073C609.161 884.216 609.486 885.358 610.463 886.011 611.44 886.663 612.58 886.663 613.557 886.011L621.372 880.462C622.349 879.81 623.488 879.81 624.465 880.462L632.281 886.011C633.257 886.663 634.397 886.663 635.374 886.011 636.351 885.358 636.677 884.052 636.351 883.073L633.583 873.772C633.257 872.793 633.583 871.651 634.397 870.998L641.561 864.797Z" stroke="#83CBEB" stroke-width="3.4375" stroke-linecap="square" stroke-miterlimit="8" stroke-dasharray="10.3125 3.4375" fill="none" fill-rule="evenodd"/><path d="M1610.56 655.797C1611.38 654.981 1611.7 653.839 1611.38 652.86 1611.05 651.881 1609.91 651.065 1608.93 651.065L1599.98 651.065C1598.84 651.065 1597.86 650.249 1597.54 649.27L1594.6 640.458C1594.12 639.316 1593.14 638.5 1592 638.5 1590.86 638.5 1589.88 639.316 1589.4 640.295L1586.46 649.107C1586.14 650.249 1585.16 650.902 1584.02 650.902L1575.07 650.902C1573.93 650.902 1572.95 651.554 1572.62 652.696 1572.3 653.676 1572.62 654.981 1573.44 655.634L1576.53 658.408 1580.44 661.998C1580.77 662.324 1581.09 662.814 1581.25 663.303 1581.42 663.793 1581.42 664.282 1581.25 664.772L1578.49 674.073C1578.16 675.216 1578.49 676.358 1579.46 677.011 1580.44 677.663 1581.58 677.663 1582.56 677.011L1590.37 671.462C1591.35 670.81 1592.49 670.81 1593.47 671.462L1601.28 677.011C1602.26 677.663 1603.4 677.663 1604.37 677.011 1605.35 676.358 1605.68 675.052 1605.35 674.073L1602.58 664.772C1602.26 663.793 1602.58 662.651 1603.4 661.998L1610.56 655.797Z" stroke="#83CBEB" stroke-width="3.4375" stroke-linecap="square" stroke-miterlimit="8" stroke-dasharray="10.3125 3.4375" fill="none" fill-rule="evenodd"/><path d="M1037.56 636.797C1038.38 635.981 1038.7 634.839 1038.38 633.86 1038.05 632.881 1036.91 632.065 1035.93 632.065L1026.98 632.065C1025.84 632.065 1024.86 631.249 1024.54 630.27L1021.61 621.458C1021.12 620.316 1020.14 619.5 1019 619.5 1017.86 619.5 1016.88 620.316 1016.4 621.295L1013.46 630.107C1013.14 631.249 1012.16 631.902 1011.02 631.902L1002.07 631.902C1000.93 631.902 999.951 632.554 999.625 633.697 999.299 634.676 999.625 635.981 1000.44 636.634L1003.53 639.408 1007.44 642.998C1007.77 643.324 1008.09 643.814 1008.25 644.303 1008.42 644.793 1008.42 645.283 1008.25 645.772L1005.49 655.073C1005.16 656.216 1005.49 657.358 1006.46 658.011 1007.44 658.663 1008.58 658.663 1009.56 658.011L1017.37 652.463C1018.35 651.81 1019.49 651.81 1020.47 652.463L1028.28 658.011C1029.26 658.663 1030.4 658.663 1031.37 658.011 1032.35 657.358 1032.68 656.052 1032.35 655.073L1029.58 645.772C1029.26 644.793 1029.58 643.651 1030.4 642.998L1037.56 636.797Z" stroke="#83CBEB" stroke-width="3.4375" stroke-linecap="square" stroke-miterlimit="8" stroke-dasharray="10.3125 3.4375" fill="none" fill-rule="evenodd"/><path d="M1293.56 695.797C1294.38 694.981 1294.7 693.839 1294.38 692.86 1294.05 691.881 1292.91 691.065 1291.93 691.065L1282.98 691.065C1281.84 691.065 1280.86 690.249 1280.54 689.27L1277.6 680.458C1277.12 679.316 1276.14 678.5 1275 678.5 1273.86 678.5 1272.88 679.316 1272.4 680.295L1269.46 689.107C1269.14 690.249 1268.16 690.902 1267.02 690.902L1258.07 690.902C1256.93 690.902 1255.95 691.554 1255.62 692.697 1255.3 693.676 1255.62 694.981 1256.44 695.634L1259.53 698.408 1263.44 701.998C1263.77 702.324 1264.09 702.814 1264.25 703.303 1264.42 703.793 1264.42 704.282 1264.25 704.772L1261.49 714.073C1261.16 715.216 1261.49 716.358 1262.46 717.01 1263.44 717.663 1264.58 717.663 1265.56 717.01L1273.37 711.462C1274.35 710.81 1275.49 710.81 1276.47 711.462L1284.28 717.01C1285.26 717.663 1286.4 717.663 1287.37 717.01 1288.35 716.358 1288.68 715.052 1288.35 714.073L1285.58 704.772C1285.26 703.793 1285.58 702.651 1286.4 701.998L1293.56 695.797Z" stroke="#83CBEB" stroke-width="3.4375" stroke-linecap="square" stroke-miterlimit="8" stroke-dasharray="10.3125 3.4375" fill="none" fill-rule="evenodd"/></g></svg>