<svg width="234" height="53" xmlns="http://www.w3.org/2000/svg" xmlns:xlink="http://www.w3.org/1999/xlink" xml:space="preserve" overflow="hidden"><g transform="translate(-515 -285)"><path d="M35.6146 85.4435C33.643 85.4435 31.7918 85.069 30.0593 84.3224 28.3247 83.5734 26.8169 82.5583 25.5358 81.2751 24.2524 79.9939 23.2375 78.4862 22.4887 76.7537 21.742 75.0193 21.3677 73.168 21.3677 71.1966 21.3677 69.225 21.742 67.3738 22.4887 65.6411 23.2375 63.9067 24.2524 62.3984 25.5358 61.1171 26.8169 59.8342 28.3247 58.8193 30.0593 58.0705 31.7918 57.3239 33.643 56.9494 35.6146 56.9494 37.1579 56.9494 38.618 57.1741 39.9949 57.6254 41.3736 58.0766 42.6424 58.707 43.8072 59.5139L41.7418 61.6143C40.8393 61.0445 39.8763 60.5992 38.855 60.2793 37.8339 59.959 36.7543 59.7989 35.6146 59.7989 32.4575 59.7989 29.7681 60.9097 27.5468 63.1288 25.3277 65.3501 24.2172 68.0391 24.2172 71.1966 24.2172 74.3538 25.3277 77.0428 27.5468 79.2644 29.7681 81.4832 32.4575 82.594 35.6146 82.594 38.7719 82.594 41.4611 81.4832 43.6824 79.2644 45.9015 77.0428 47.0122 74.3538 47.0122 71.1966 47.0122 70.7699 46.9893 70.3417 46.9414 69.9151 46.8936 69.4868 46.8228 69.0706 46.7272 68.6672L49.0421 66.3525C49.3042 67.1118 49.5059 67.8959 49.6473 68.7027 49.7909 69.5098 49.8615 70.3417 49.8615 71.1966 49.8615 73.168 49.4872 75.0193 48.7405 76.7537 47.9919 78.4862 46.9767 79.9939 45.6936 81.2751 44.4123 82.5583 42.9045 83.5734 41.1719 84.3224 39.4373 85.069 37.5864 85.4435 35.6146 85.4435ZM33.62 77.75 27.5657 71.6956 29.5603 69.701 33.62 73.761 47.8669 59.4786 49.8615 61.473 33.62 77.75Z" fill="#F47B12" fill-rule="evenodd" transform="matrix(1 0 0 1.03312 493.644 235.875)"/><text fill="#2E2E2E" font-family="Avenir Next LT Pro,Avenir Next LT Pro_MSFontService,sans-serif" font-weight="700" font-size="403" transform="matrix(0.0604964 0 0 0.0624999 545.536 317)">Sympto</text><text fill="#F47B12" font-family="Avenir Next LT Pro,Avenir Next LT Pro_MSFontService,sans-serif" font-weight="700" font-size="403" transform="matrix(0.0604964 0 0 0.0624999 637.12 317)">Checker</text></g></svg>