<svg width="2578" height="1444" xmlns="http://www.w3.org/2000/svg" xmlns:xlink="http://www.w3.org/1999/xlink" xml:space="preserve" overflow="hidden"><g transform="translate(-389 -399)"><path d="M2341 461 2536 461 2536 829 2341 829Z" fill="#E6E6E6" fill-rule="evenodd"/><path d="M2297 461 2526 461 2526 829 2297 829Z" fill="#F0F0F0" fill-rule="evenodd"/><path d="M2332 494 2491 494 2491 796 2332 796Z" fill="#FFFFFF" fill-rule="evenodd"/><path d="M2383 584 2445 584 2445 701 2383 701Z" fill="#EBEBEB" fill-rule="evenodd"/><path d="M814 461 1010 461 1010 829 814 829Z" fill="#E6E6E6" fill-rule="evenodd"/><path d="M771 461 1000 461 1000 829 771 829Z" fill="#F0F0F0" fill-rule="evenodd"/><path d="M806 494 965 494 965 796 806 796Z" fill="#FFFFFF" fill-rule="evenodd"/><path d="M856 584 918 584 918 701 856 701Z" fill="#EBEBEB" fill-rule="evenodd"/><path d="M2704.84 1345 2083.16 1345C2072.05 1345 2063 1335.95 2063 1324.83L2063 419.166C2063 408.047 2072.05 399 2083.16 399L2704.84 399C2715.95 399 2725 408.044 2725 419.166L2725 1324.83C2725 1335.96 2715.95 1345 2704.84 1345ZM2083.16 399.86C2072.52 399.86 2063.86 408.519 2063.86 419.166L2063.86 1324.83C2063.86 1335.48 2072.52 1344.14 2083.16 1344.14L2704.84 1344.14C2715.48 1344.14 2724.14 1335.48 2724.14 1324.83L2724.14 419.166C2724.14 408.522 2715.48 399.86 2704.84 399.86L2083.16 399.86Z" fill="#E0E0E0" fill-rule="evenodd"/><path d="M1988.83 1345 1367.16 1345C1356.05 1345 1347 1335.95 1347 1324.83L1347 419.166C1347 408.047 1356.04 399 1367.16 399L1988.84 399C1999.95 399 2009 408.044 2009 419.166L2009 1324.83C2009 1335.96 1999.95 1345 1988.83 1345ZM1367.16 399.86C1356.52 399.86 1347.86 408.519 1347.86 419.166L1347.86 1324.83C1347.86 1335.48 1356.52 1344.14 1367.16 1344.14L1988.84 1344.14C1999.48 1344.14 2008.14 1335.48 2008.14 1324.83L2008.14 419.166C2008.14 408.522 1999.48 399.86 1988.84 399.86L1367.16 399.86Z" fill="#E0E0E0" fill-rule="evenodd"/><path d="M1272.84 1345 651.163 1345C640.046 1345 631 1335.95 631 1324.83L631 419.166C631 408.047 640.042 399 651.163 399L1272.84 399C1283.95 399 1293 408.044 1293 419.166L1293 1324.83C1293 1335.96 1283.96 1345 1272.84 1345ZM651.163 399.86C640.521 399.86 631.86 408.519 631.86 419.166L631.86 1324.83C631.86 1335.48 640.521 1344.14 651.163 1344.14L1272.84 1344.14C1283.48 1344.14 1292.14 1335.48 1292.14 1324.83L1292.14 419.166C1292.14 408.522 1283.48 399.86 1272.84 399.86L651.163 399.86Z" fill="#E0E0E0" fill-rule="evenodd"/><path d="M389 1555 2967 1555 2967 1556 389 1556Z" fill="#E0E0E0" fill-rule="evenodd"/><path d="M2636 1656 2827 1656 2827 1657 2636 1657Z" fill="#EBEBEB" fill-rule="evenodd"/><path d="M2091 1671 2141 1671 2141 1673 2091 1673Z" fill="#EBEBEB" fill-rule="evenodd"/><path d="M529 1612 779 1612 779 1613 529 1613Z" fill="#EBEBEB" fill-rule="evenodd"/><path d="M830 1612 867 1612 867 1613 830 1613Z" fill="#EBEBEB" fill-rule="evenodd"/><path d="M986 1636 1527 1636 1527 1638 986 1638Z" fill="#EBEBEB" fill-rule="evenodd"/><path d="M1209.09 618.846C1200.49 631.984 1194.71 646.416 1191.63 661.307L1168 663.54 1168 709.457 1191.63 711.69C1194.71 726.574 1200.49 741.006 1209.09 754.151L1194 772.442 1226.36 804.91 1244.58 789.769C1257.68 798.398 1272.06 804.201 1286.89 807.288L1289.12 831 1334.88 830.997 1337.1 807.288C1351.94 804.198 1366.32 798.394 1379.42 789.765L1397.64 804.906 1430 772.438 1414.91 754.147C1423.51 741.006 1429.29 726.574 1432.37 711.69L1456 709.457 1456 663.54 1432.37 661.307C1429.29 646.423 1423.51 631.991 1414.91 618.853L1430 600.562 1397.64 568.094 1379.42 583.235C1366.32 574.606 1351.94 568.8 1337.11 565.712L1334.88 542 1289.12 542.004 1286.9 565.715C1272.07 568.806 1257.68 574.606 1244.59 583.235L1226.36 568.091 1194 600.559 1209.09 618.846ZM1355.81 642.544C1380 666.817 1380 706.176 1355.81 730.453 1331.61 754.729 1292.39 754.726 1268.2 730.453 1244.01 706.176 1244.01 666.821 1268.2 642.544 1292.39 618.271 1331.61 618.271 1355.81 642.544Z" fill="#EBEBEB" fill-rule="evenodd"/><path d="M1298.55 1172.29C1294.25 1178.84 1291.36 1186.03 1289.82 1193.44L1278 1194.56 1278 1217.44 1289.82 1218.55C1291.36 1225.96 1294.25 1233.16 1298.55 1239.71L1291 1248.82 1307.18 1265 1316.29 1257.45C1322.84 1261.75 1330.03 1264.65 1337.45 1266.18L1338.56 1278 1361.44 1278 1362.55 1266.19C1369.97 1264.65 1377.16 1261.75 1383.71 1257.46L1392.82 1265 1409 1248.82 1401.46 1239.71C1405.76 1233.16 1408.65 1225.97 1410.19 1218.55L1422 1217.44 1422 1194.56 1410.19 1193.45C1408.64 1186.03 1405.75 1178.84 1401.46 1172.29L1409 1163.18 1392.82 1147 1383.71 1154.55C1377.16 1150.25 1369.97 1147.35 1362.55 1145.82L1361.44 1134 1338.56 1134 1337.45 1145.82C1330.03 1147.36 1322.84 1150.25 1316.29 1154.55L1307.18 1147 1291 1163.18 1298.55 1172.29ZM1371.9 1184.1C1384 1196.19 1384 1215.81 1371.9 1227.9 1359.81 1240 1340.2 1240 1328.1 1227.9 1316.01 1215.8 1316.01 1196.19 1328.1 1184.1 1340.2 1172 1359.81 1172 1371.9 1184.1Z" fill="#EBEBEB" fill-rule="evenodd"/><path d="M644.532 932.633C637.724 942.997 633.145 954.384 630.706 966.128L612 967.889 612 1004.11 630.706 1005.88C633.142 1017.62 637.724 1029 644.528 1039.37L632.581 1053.81 658.199 1079.42 672.629 1067.47C682.997 1074.28 694.383 1078.86 706.124 1081.29L707.885 1100 744.112 1100 745.873 1081.29C757.617 1078.85 769.003 1074.28 779.371 1067.47L793.802 1079.42 819.419 1053.8 807.472 1039.37C814.276 1029 818.855 1017.62 821.294 1005.88L839.997 1004.11 840 967.889 821.294 966.124C818.855 954.384 814.276 942.997 807.469 932.629L819.416 918.199 793.802 892.585 779.371 904.532C769.003 897.724 757.617 893.145 745.876 890.707L744.115 872 707.889 872 706.128 890.707C694.383 893.145 683.001 897.721 672.633 904.528L658.202 892.581 632.585 918.199 644.532 932.633ZM760.678 951.325C779.825 970.476 779.829 1001.53 760.678 1020.68 741.525 1039.83 710.476 1039.83 691.325 1020.68 672.175 1001.53 672.175 970.479 691.325 951.325 710.476 932.179 741.525 932.175 760.678 951.325Z" fill="#EBEBEB" fill-rule="evenodd"/><path d="M2612.27 859.19C2609.07 864.007 2606.92 869.304 2605.78 874.761L2597 875.581 2597 892.423 2605.78 893.243C2606.92 898.703 2609.07 903.996 2612.27 908.817L2606.66 915.525 2618.68 927.433 2625.45 921.88C2630.32 925.044 2635.66 927.173 2641.17 928.304L2642 937 2659 937 2659.83 928.304C2665.34 927.17 2670.68 925.041 2675.55 921.877L2682.32 927.429 2694.34 915.521 2688.73 908.814C2691.93 903.993 2694.08 898.7 2695.22 893.24L2704 892.419 2704 875.577 2695.22 874.757C2694.08 869.297 2691.93 864.004 2688.73 859.186L2694.34 852.475 2682.32 840.567 2675.55 846.123C2670.68 842.959 2665.34 840.83 2659.83 839.696L2659 831 2642 831 2641.17 839.696C2635.66 840.83 2630.32 842.956 2625.45 846.123L2618.68 840.567 2606.66 852.475 2612.27 859.19ZM2666.78 867.879C2675.76 876.783 2675.76 891.217 2666.78 900.121 2657.79 909.026 2643.21 909.026 2634.23 900.121 2625.24 891.217 2625.24 876.783 2634.23 867.879 2643.21 858.978 2657.79 858.978 2666.78 867.879Z" fill="#EBEBEB" fill-rule="evenodd"/><path d="M1966.27 647.185C1963.07 652.003 1960.92 657.299 1959.78 662.757L1951 663.577 1951 680.42 1959.78 681.24C1960.92 686.701 1963.07 691.994 1966.27 696.815L1960.66 703.523 1972.68 715.432 1979.45 709.876C1984.32 713.04 1989.66 715.169 1995.17 716.303L1996 725 2013 725 2013.83 716.303C2019.34 715.169 2024.68 713.04 2029.55 709.876L2036.32 715.432 2048.34 703.523 2042.73 696.815C2045.93 691.994 2048.08 686.701 2049.22 681.244L2058 680.423 2058 663.58 2049.22 662.76C2048.08 657.299 2045.93 652.006 2042.73 647.188L2048.34 640.477 2036.32 628.568 2029.55 634.125C2024.68 630.96 2019.34 628.831 2013.83 627.697L2013 619 1996 619 1995.17 627.697C1989.66 628.831 1984.32 630.957 1979.45 634.125L1972.68 628.568 1960.66 640.477 1966.27 647.185ZM2020.77 655.878C2029.76 664.783 2029.76 679.217 2020.77 688.122 2011.78 697.027 1997.21 697.027 1988.22 688.122 1979.24 679.217 1979.24 664.783 1988.22 655.878 1997.21 646.973 2011.79 646.973 2020.77 655.878Z" fill="#F5F5F5" fill-rule="evenodd"/><path d="M832.267 1133.45C829.073 1138.32 826.924 1143.66 825.779 1149.17L817 1150 817 1167 825.779 1167.83C826.924 1173.34 829.073 1178.68 832.267 1183.55L826.658 1190.32 838.68 1202.34 845.451 1196.73C850.318 1199.93 855.661 1202.08 861.17 1203.22L861.998 1212 878.999 1212 879.827 1203.22C885.339 1202.08 890.683 1199.93 895.549 1196.73L902.321 1202.34 914.342 1190.32 908.733 1183.55C911.927 1178.68 914.076 1173.34 915.221 1167.83L924 1167 924 1150 915.221 1149.17C914.076 1143.66 911.927 1138.32 908.733 1133.46L914.342 1126.68 902.321 1114.66 895.549 1120.27C890.683 1117.07 885.339 1114.92 879.831 1113.78L879.003 1105 862.001 1105 861.173 1113.78C855.661 1114.92 850.318 1117.07 845.454 1120.27L838.68 1114.66 826.658 1126.68 832.267 1133.45ZM886.778 1142.23C895.764 1151.22 895.767 1165.79 886.778 1174.77 877.789 1183.76 863.215 1183.76 854.229 1174.77 845.24 1165.78 845.24 1151.22 854.229 1142.23 863.215 1133.24 877.789 1133.24 886.778 1142.23Z" fill="#F5F5F5" fill-rule="evenodd"/><path d="M2365.25 927.66C2359.76 935.98 2356.06 945.118 2354.1 954.547L2339 955.961 2339 985.038 2354.1 986.453C2356.07 995.878 2359.76 1005.02 2365.25 1013.34L2355.61 1024.92 2376.28 1045.48 2387.93 1035.89C2396.29 1041.36 2405.48 1045.03 2414.96 1046.99L2416.38 1062 2445.62 1062 2447.04 1046.99C2456.52 1045.03 2465.71 1041.35 2474.07 1035.89L2485.72 1045.48 2506.39 1024.92 2496.75 1013.34C2502.24 1005.02 2505.94 995.878 2507.9 986.453L2523 985.038 2523 955.961 2507.9 954.547C2505.94 945.121 2502.24 935.984 2496.75 927.663L2506.39 916.082 2485.72 895.521 2474.07 905.112C2465.7 899.647 2456.52 895.971 2447.04 894.014L2445.62 879 2416.38 879 2414.96 894.014C2405.48 895.971 2396.29 899.643 2387.93 905.108L2376.28 895.517 2355.61 916.078 2365.25 927.66ZM2458.98 942.667C2474.43 958.038 2474.44 982.962 2458.98 998.333 2443.52 1013.7 2418.47 1013.7 2403.01 998.333 2387.56 982.962 2387.56 958.041 2403.01 942.667 2418.47 927.296 2443.52 927.296 2458.98 942.667Z" fill="#EBEBEB" fill-rule="evenodd"/><path d="M1786.39 1090.93C1780.87 1099.3 1777.16 1108.48 1775.18 1117.96L1760 1119.38 1760 1148.62 1775.18 1150.04C1777.16 1159.52 1780.87 1168.7 1786.4 1177.07L1776.7 1188.72 1797.48 1209.39 1809.19 1199.75C1817.61 1205.24 1826.84 1208.94 1836.37 1210.9L1837.8 1226 1867.19 1226 1868.62 1210.9C1878.15 1208.93 1887.39 1205.24 1895.8 1199.75L1907.51 1209.39 1928.3 1188.72 1918.61 1177.07C1924.13 1168.7 1927.84 1159.52 1929.82 1150.04L1945 1148.62 1945 1119.38 1929.82 1117.96C1927.84 1108.48 1924.13 1099.29 1918.61 1090.93L1928.3 1079.28 1907.52 1058.61 1895.81 1068.25C1887.39 1062.76 1878.15 1059.06 1868.63 1057.09L1867.2 1042 1837.81 1042 1836.38 1057.09C1826.85 1059.06 1817.61 1062.76 1809.2 1068.25L1797.49 1058.61 1776.71 1079.28 1786.39 1090.93ZM1880.63 1106.02C1896.17 1121.47 1896.17 1146.53 1880.63 1161.98 1865.09 1177.44 1839.9 1177.44 1824.36 1161.98 1808.82 1146.53 1808.82 1121.47 1824.36 1106.02 1839.9 1090.56 1865.09 1090.56 1880.63 1106.02Z" fill="#EBEBEB" fill-rule="evenodd"/><path d="M1873.23 1367.43C1863.98 1381.53 1857.76 1397.01 1854.44 1412.98L1829 1415.37 1829 1464.63 1854.44 1467.03C1857.75 1482.99 1863.97 1498.47 1873.23 1512.57L1856.99 1532.19 1891.81 1567.02 1911.44 1550.77C1925.53 1560.03 1941.01 1566.25 1956.98 1569.57L1959.37 1595 2008.63 1595 2011.02 1569.57C2026.99 1566.25 2042.47 1560.02 2056.57 1550.77L2076.19 1567.01 2111.02 1532.19 2094.77 1512.57C2104.03 1498.47 2110.25 1482.99 2113.57 1467.02L2139 1464.63 2139 1415.37 2113.57 1412.98C2110.26 1397.01 2104.03 1381.53 2094.77 1367.43L2111.02 1347.81 2076.19 1312.99 2056.57 1329.23C2042.47 1319.98 2026.99 1313.75 2011.03 1310.43L2008.63 1285 1959.38 1285 1956.98 1310.44C1941.02 1313.75 1925.54 1319.98 1911.44 1329.23L1891.82 1312.99 1857 1347.82 1873.23 1367.43ZM2031.15 1392.85C2057.18 1418.89 2057.18 1461.11 2031.15 1487.15 2005.11 1513.19 1962.89 1513.19 1936.85 1487.15 1910.81 1461.11 1910.82 1418.89 1936.85 1392.85 1962.89 1366.82 2005.11 1366.82 2031.15 1392.85Z" fill="#EBEBEB" fill-rule="evenodd"/><path d="M2797 1778C2797 1789.6 2311.45 1799 1712.5 1799 1113.55 1799 628 1789.6 628 1778 628 1766.4 1113.55 1757 1712.5 1757 2311.45 1757 2797 1766.4 2797 1778Z" fill="#F5F5F5" fill-rule="evenodd"/><path d="M791.383 1179C728.823 1252.41 710.552 1361.07 745.646 1451 784.638 1416.09 812.097 1362.88 813.833 1316.33 815.572 1269.79 803.428 1223.98 791.383 1179Z" fill="#8ED973" fill-rule="evenodd"/><path d="M780.947 1458.85C759.713 1491.46 749.552 1531.17 752.5 1570 786.328 1558.2 816.151 1519.89 834.029 1488.78 851.908 1457.67 861.903 1422.73 871 1388 834.355 1400.93 802.182 1426.24 780.947 1458.85Z" fill="#8ED973" fill-rule="evenodd"/><path d="M772.489 1306.91C747.603 1397.52 734.925 1491.51 735 1585.57 735.021 1612.33 736.091 1639.08 738.156 1665.76 738.285 1667.41 740.833 1667.42 740.704 1665.76 733.448 1571.94 738.832 1477.21 756.812 1384.87 761.873 1358.89 767.94 1333.11 774.948 1307.6 775.386 1306 772.93 1305.31 772.489 1306.91L772.489 1306.91Z" fill="#263238" fill-rule="evenodd"/><path d="M738.603 1601.15C764.462 1539.89 798.461 1482.5 837.756 1428.86 838.741 1427.52 836.492 1426.23 835.517 1427.56 804.756 1469.55 777.115 1513.82 754.241 1560.56 747.818 1573.69 741.786 1587 736.105 1600.46 735.459 1601.99 737.968 1602.66 738.603 1601.15L738.603 1601.15Z" fill="#263238" fill-rule="evenodd"/><path d="M701.917 1510.17C719.583 1537.41 728.036 1570.57 725.584 1603 697.442 1593.14 672.63 1561.15 657.758 1535.17 642.882 1509.19 634.566 1480 627 1451 657.484 1461.79 684.25 1482.94 701.917 1510.17Z" fill="#8ED973" fill-rule="evenodd"/><path d="M737.894 1624.46C716.692 1574.18 688.673 1527.57 656.482 1483.56 655.508 1482.23 653.26 1483.52 654.244 1484.86 686.29 1528.68 714.288 1575.09 735.397 1625.15 736.032 1626.66 738.543 1625.99 737.894 1624.46L737.894 1624.46Z" fill="#263238" fill-rule="evenodd"/><path d="M739.193 1640.61C779.058 1599.54 819.765 1559.29 859.63 1518.21 860.788 1517.02 858.966 1515.19 857.808 1516.39 817.943 1557.47 777.236 1597.71 737.371 1638.79 736.213 1639.98 738.031 1641.81 739.193 1640.61L739.193 1640.61Z" fill="#263238" fill-rule="evenodd"/><path d="M860.719 1500C826.238 1533.35 794.82 1569.89 767 1609L773.307 1609C799.552 1607.77 825.029 1594.78 841.495 1574.25 857.961 1553.72 865.142 1525.97 860.719 1500Z" fill="#8ED973" fill-rule="evenodd"/><path d="M697.195 1419.92C711.867 1444.23 725.694 1469.05 738.645 1494.35 739.399 1495.83 741.599 1494.52 740.845 1493.05 727.895 1467.75 714.068 1442.92 699.396 1418.61 698.54 1417.2 696.336 1418.49 697.195 1419.92L697.195 1419.92Z" fill="#263238" fill-rule="evenodd"/><path d="M661.355 1297C655.683 1322.59 650.055 1355.86 650 1382.5 649.942 1409.15 658.047 1435.14 673.146 1453 688.245 1470.86 718.717 1478.68 731.001 1468.46L661.355 1297Z" fill="#8ED973" fill-rule="evenodd"/><path d="M660 1653 812 1653 812 1681 660 1681Z" fill="#C04F15" fill-rule="evenodd"/><path d="M787.46 1780 693.14 1780 676 1674 801 1674Z" fill="#C04F15" fill-rule="evenodd"/><path d="M677 1681 800 1681 798.469 1693 678.942 1693Z" fill="#000000" fill-rule="evenodd" fill-opacity="0.2"/><path d="M2572.3 1047.5C2610.65 1025.7 2659.51 1038.93 2681.44 1077.05 2703.36 1115.17 2690.05 1163.74 2651.7 1185.53 2622.1 1202.35 2586.27 1198.23 2561.36 1177.97L2537.63 1181.68 2543.28 1157.08C2543.05 1156.7 2542.78 1156.36 2542.56 1155.97 2520.64 1117.86 2533.95 1069.3 2572.3 1047.5Z" fill="#4E95D9" fill-rule="evenodd"/><path d="M2587 1030C2561.29 1034.84 2538.66 1053.18 2529 1077" stroke="#407BFF" stroke-width="1.71893" stroke-linecap="round" stroke-linejoin="round" stroke-miterlimit="10" fill="none" fill-rule="evenodd"/><path d="M2525 1088C2523.19 1091.73 2522.17 1095.85 2522 1100" stroke="#407BFF" stroke-width="1.71893" stroke-linecap="round" stroke-linejoin="round" stroke-miterlimit="10" fill="#4E95D9" fill-rule="evenodd"/><path d="M2602.7 1147 2569 1116.01 2579.73 1104.16 2602.33 1124.94 2639.88 1088 2651 1099.48Z" fill="#FFFFFF" fill-rule="evenodd"/><path d="M1751.8 538.385C1791.91 515.078 1843.31 528.698 1866.62 568.812 1889.92 608.923 1876.3 660.338 1836.2 683.645 1805.23 701.638 1767.59 697.547 1741.29 676.323L1716.4 680.417 1722.14 654.387C1721.9 653.985 1721.62 653.624 1721.38 653.218 1698.08 613.107 1711.7 561.693 1751.8 538.385Z" fill="#4E95D9" fill-rule="evenodd"/><path d="M1867 550C1850.78 528.024 1823.08 515.226 1796 517.2" stroke="#407BFF" stroke-width="1.71893" stroke-linecap="round" stroke-linejoin="round" stroke-miterlimit="10" fill="none" fill-rule="evenodd"/><path d="M1783 519C1778.89 518.992 1774.78 519.678 1771 521" stroke="#407BFF" stroke-width="1.71893" stroke-linecap="round" stroke-linejoin="round" stroke-miterlimit="10" fill="#4E95D9" fill-rule="evenodd"/><path d="M1740 605.656 1800.21 605.656 1800.21 590 1850 613 1800.21 636 1800.21 620.343 1740 620.343Z" fill="#FFFFFF" fill-rule="evenodd"/><path d="M2266 1038.29C2266 1038.29 2263.92 1074.28 2246.35 1137.37 2235.33 1176.35 2221.95 1214.62 2206.29 1251.98 2197.53 1273.09 2187.47 1295.49 2175.93 1319.06 2170.73 1329.77 2165.17 1340.67 2159.33 1351.85 2152.61 1542.77 2045.52 1736.84 2045.52 1736.84 2039.59 1739.91 2018.86 1736.57 2019 1730.54 2034.86 1705.35 2066.06 1460.72 2086.17 1344.66 2087.42 1328.89 2089.23 1312.19 2091.46 1294.52 2097.34 1247.67 2106.06 1196.74 2114.64 1151.93 2127.94 1081.34 2140.6 1026 2140.6 1026L2175.88 1029.43 2266 1038.29Z" fill="#EEC1BB" fill-rule="evenodd"/><path d="M2044.48 1777.33 2038.43 1777.33 2036.71 1769.74 2016.23 1779 1964.32 1779C1964.32 1779 1956.08 1770.76 1980.75 1764.23 1981.96 1763.89 1983.12 1763.45 1984.24 1762.89 1997.42 1756.74 2016.13 1736 2016.13 1736L2044.57 1736C2045.45 1737.31 2046.23 1738.69 2046.9 1740.12 2050.02 1746.23 2055.37 1759.47 2044.48 1777.33Z" fill="#263238" fill-rule="evenodd"/><path d="M2047 1740.2 2047 1740.2C2043.25 1736.04 2026.08 1754.26 2013.49 1760.49 2002.26 1765.97 1989.62 1768.42 1984 1762.84 1997.24 1756.7 2020.83 1728 2020.83 1728L2041.06 1730C2041.06 1730.01 2045.69 1737.52 2047 1740.2Z" fill="#EEC1BB" fill-rule="evenodd"/><path d="M2307.95 1302.17 2307.95 1302.17C2305.11 1322.69 2301.45 1344.65 2296.97 1368.04 2335.16 1495.67 2256.62 1744.75 2256.62 1744.75 2243.33 1747.39 2231.57 1745.68 2225.61 1741.18 2240.42 1666.13 2229.77 1471.01 2218.25 1354.41 2217.23 1343.85 2215.93 1332.21 2214.54 1319.78 2212.19 1298.74 2209.36 1275.56 2206.35 1251.59 2201.26 1211.49 2195.57 1169.3 2190.43 1131.89 2184.14 1086.69 2178.67 1048.45 2175.85 1029.21 2174.69 1020.77 2174 1016 2174 1016L2284.25 1027.96C2284.25 1027.96 2312.29 1059.44 2316.64 1157.76 2318.08 1206.06 2315.17 1254.39 2307.95 1302.17Z" fill="#EEC1BB" fill-rule="evenodd"/><path d="M2259.54 1777.33 2253.34 1777.33 2251.62 1769.74 2231.18 1779 2179.32 1779C2179.32 1779 2171.08 1770.76 2195.8 1764.23 2197 1763.89 2198.17 1763.45 2199.29 1762.89 2212.42 1756.74 2231.18 1736 2231.18 1736L2259.63 1736C2260.48 1737.33 2261.26 1738.7 2261.95 1740.12 2265.08 1746.23 2270.29 1759.47 2259.54 1777.33Z" fill="#263238" fill-rule="evenodd"/><path d="M2262 1740.19 2262 1740.19C2258.27 1736.04 2241.37 1754.26 2228.97 1760.48 2217.92 1765.97 2205.48 1768.42 2200 1762.84 2212.99 1756.7 2233.49 1730 2233.49 1730L2256.11 1730C2256.1 1730 2260.66 1737.52 2262 1740.19Z" fill="#EEC1BB" fill-rule="evenodd"/><path d="M2337.52 760.479C2331.82 755.589 2322.61 757.464 2314.77 756.549 2302.87 755.16 2293.28 746.622 2288.16 736.938 2283.04 727.251 2281.55 716.412 2279.73 705.826 2277.91 695.241 2275.55 684.398 2269.01 675.413 2262.48 666.429 2246.74 655.292 2235.31 662.105L2220 685.666C2229.19 713.271 2236.66 741.334 2242.37 769.676 2244.92 782.332 2247.45 795.719 2256.7 805.578 2265.77 815.234 2280.11 819.943 2294.19 820.844 2301.33 821.3 2308.71 820.848 2315.24 818.218 2321.76 815.588 2327.31 810.509 2328.76 804.254 2330.2 798 2326.73 790.778 2320.1 788.385 2326.5 785.7 2333.16 782.83 2337.44 777.792 2341.7 772.755 2342.62 764.858 2337.52 760.479Z" fill="#263238" fill-rule="evenodd"/><path d="M2119.01 642.933C2101.43 659.805 2099.21 679.886 2102.01 693.63 2107.91 711.806 2116.84 723.812 2125.23 741L2155 623C2143.79 627.39 2138.12 625.969 2119.01 642.933Z" fill="#263238" fill-rule="evenodd"/><path d="M2172 622C2206 622.691 2240.14 651.122 2242.82 678.707 2245.49 706.297 2218.35 741.893 2213.26 744.079L2197.16 750C2197.16 750 2214.92 708.926 2207.55 697.953 2200.18 686.979 2194.83 686.859 2194.83 686.859L2172 622Z" fill="#263238" fill-rule="evenodd"/><path d="M2142.64 628.956C2160.37 616.436 2181.33 623.594 2193.76 628.956 2207.77 637.025 2217.65 650.683 2220.91 666.494 2223.62 681.335 2226.91 699.328 2219.3 708.704 2215.07 714.103 2208.76 717.474 2201.91 718L2116 663.636C2121.78 650.002 2130.95 638.067 2142.64 628.956Z" fill="#263238" fill-rule="evenodd"/><path d="M2177.16 829.525C2183.89 834.312 2188.71 831.435 2195.71 826.988 2237.76 802.741 2220.49 783.549 2220.49 783.549 2210.12 775.137 2207.57 763.29 2207.35 744.561 2207.31 744.022 2207.24 743.483 2207.12 742.954 2206.65 740.537 2205.44 738.322 2203.65 736.619 2198.88 731.832 2191.12 731.787 2186.3 736.523 2186.3 736.526 2186.29 736.533 2186.29 736.536L2167.19 745.911 2167.19 745.911C2167.19 746.196 2167.18 746.481 2167.18 746.804 2168.94 756.748 2170.64 764.409 2171.68 770.487 2171.67 771.236 2171.94 771.991 2172.04 772.705L2172.04 772.705C2172.02 773.454 2172.23 774.24 2172.36 774.958 2173.4 783.357 2161.5 798.119 2156.26 802.061 2153.14 804.678 2154.34 813.41 2177.16 829.525Z" fill="#EEC1BB" fill-rule="evenodd"/><path d="M2167.02 745.875 2167.02 745.875C2167.06 746.184 2167.06 746.496 2167 746.801 2168.78 756.725 2170.5 764.37 2171.55 770.436 2171.72 771.162 2171.85 771.902 2171.91 772.65L2171.91 772.65C2172.01 773.431 2172.06 774.216 2172.05 775.001L2172.05 775.001C2186.75 768.102 2198.95 756.941 2207 743.024L2207 743.024C2206.54 740.642 2205.38 738.449 2203.67 736.705 2198.9 731.883 2191.06 731.75 2186.13 736.41L2167.02 745.875Z" fill="#000000" fill-rule="evenodd" fill-opacity="0.2"/><path d="M2210.24 672.195C2215.76 706.622 2218.85 721.021 2205.86 742.605 2186.29 775.032 2143.56 775.056 2127.87 743.131 2113.99 714.344 2107.15 663.016 2136.81 641.394 2166.47 619.775 2204.69 637.734 2210.24 672.195Z" fill="#EEC1BB" fill-rule="evenodd"/><path d="M2230.42 698.997C2228.29 706.926 2222.95 712.97 2217.37 716.039 2208.98 720.655 2200.4 707.666 2201.03 697.976 2201.6 689.257 2208.99 681.616 2218.24 681.026 2227.34 680.442 2232.86 689.935 2230.42 698.997Z" fill="#EEC1BB" fill-rule="evenodd"/><path d="M2211.24 702C2210.59 698.733 2211.27 695.218 2213.08 692.442 2214.89 689.666 2217.8 687.663 2221 687" stroke="#000000" stroke-width="1.71893" stroke-linecap="round" stroke-linejoin="round" stroke-miterlimit="10" stroke-opacity="0.2" fill="none" fill-rule="evenodd"/><path d="M2167.76 695.354C2168.51 698.887 2167.44 702.265 2165.36 702.897 2163.29 703.53 2160.99 701.178 2160.24 697.646 2159.49 694.113 2160.56 690.735 2162.64 690.103 2164.71 689.471 2167.01 691.819 2167.76 695.354Z" fill="#263238" fill-rule="evenodd"/><path d="M2134.75 704.323C2135.57 707.853 2134.33 711.241 2131.98 711.892 2129.64 712.54 2127.07 710.206 2126.25 706.677 2125.43 703.148 2126.67 699.759 2129.02 699.108 2131.36 698.46 2133.93 700.793 2134.75 704.323Z" fill="#263238" fill-rule="evenodd"/><path d="M2171.84 680.891C2171.42 681.048 2170.95 681.041 2170.53 680.835 2163.97 677.584 2158.53 680.711 2158.47 680.747 2157.66 681.211 2156.64 680.973 2156.2 680.179 2155.76 679.385 2156.06 678.355 2156.88 677.875 2157.16 677.712 2163.99 673.778 2172.13 677.816 2172.94 678.218 2173.24 679.221 2172.8 680.058 2172.58 680.453 2172.24 680.744 2171.84 680.891Z" fill="#263238" fill-rule="evenodd"/><path d="M2118.29 689.998C2117.92 689.979 2117.57 689.82 2117.32 689.525 2116.81 688.913 2116.92 687.952 2117.57 687.374 2124.1 681.608 2130.7 683.175 2130.98 683.248 2131.76 683.445 2132.19 684.265 2131.92 685.082 2131.66 685.897 2130.81 686.397 2130.02 686.204 2129.76 686.139 2124.62 684.999 2119.44 689.586 2119.09 689.881 2118.68 690.019 2118.29 689.998Z" fill="#263238" fill-rule="evenodd"/><path d="M2143.09 700C2143.09 700 2141.16 714.457 2137.2 724.207 2136.5 725.91 2137.73 727.797 2139.58 727.958 2144.33 728.374 2149 725.59 2149 725.59L2143.09 700Z" fill="#D4827D" fill-rule="evenodd"/><path d="M2164 690 2155 690.24C2155 690.24 2161.34 694.355 2164 690Z" fill="#263238" fill-rule="evenodd"/><path d="M2130 699 2122 699.237C2122 699.237 2127.63 703.357 2130 699Z" fill="#263238" fill-rule="evenodd"/><path d="M2199.77 683.212C2199.77 683.212 2176.07 664.306 2171.97 645.18 2171.97 645.18 2098.95 642.383 2116.45 701.989 2116.45 701.989 2091.74 652.194 2147.53 633.13 2203.31 614.066 2228.79 687.056 2207.55 718 2207.4 717.748 2214.47 695.085 2199.77 683.212Z" fill="#263238" fill-rule="evenodd"/><path d="M2122.57 645.471C2116.28 654.064 2112.93 664.411 2113 675.012 2114.37 682.462 2125.64 686 2125.64 686L2135.19 667.5 2137.82 681.769C2157.95 675.849 2167.84 662.942 2172 646.133L2156.82 628C2156.82 627.996 2128.32 638.412 2122.57 645.471Z" fill="#263238" fill-rule="evenodd"/><path d="M2163 730.915C2165.38 731.263 2167.93 730.533 2169.66 729.001 2171.39 727.469 2172.26 725.174 2171.93 723" stroke="#263238" stroke-width="1.71893" stroke-linecap="round" stroke-linejoin="round" stroke-miterlimit="10" fill="none" fill-rule="evenodd"/><path d="M2231 720.001C2231 720.001 2256.78 688.146 2236.59 661 2236.59 661 2251.47 671.192 2248.64 688.785 2246.43 702.597 2240.38 713.792 2231 720.001Z" fill="#000000" fill-rule="evenodd" fill-opacity="0.2"/><path d="M2308.21 1302.38 2308.21 1302.38C2278.05 1312.58 2246.62 1318.51 2214.82 1320 2212.46 1298.95 2209.64 1275.76 2206.63 1251.78 2197.88 1272.89 2187.84 1295.28 2176.32 1318.84 2146.91 1316.17 2118.28 1307.85 2092 1294.36 2097.88 1247.52 2106.58 1196.6 2115.14 1151.81 2126.82 1144.93 2139.45 1139.82 2152.62 1136.64 2165.14 1133.62 2177.97 1132.06 2190.85 1132 2209.61 1131.92 2228.33 1133.64 2246.75 1137.15 2270.68 1141.64 2294.09 1148.6 2316.59 1157.92 2318.13 1206.23 2315.33 1254.57 2308.21 1302.38Z" fill="#000000" fill-rule="evenodd" fill-opacity="0.2"/><path d="M2138.96 1016 2285.7 1016 2289.69 1034.9C2289.69 1034.9 2343.6 1109.38 2316.27 1295.12 2316.27 1295.12 2198.2 1308.74 2087 1284.93 2087 1284.93 2111.96 1094.1 2138.03 1031.79L2138.96 1016Z" fill="#263238" fill-rule="evenodd"/><path d="M2277.57 958.071 2288 1036 2127.24 1029.53C2126.82 1012.78 2141.76 968.356 2140.03 956.207 2135.15 941.198 2110.46 918.548 2103.88 900.415 2096.87 875.235 2111.35 806.001 2116.07 803.804 2121.79 801.143 2128.93 801.384 2133.31 799.455 2150.38 795.441 2189.2 781.586 2206.59 779.424 2209.96 779.108 2213.3 778.5 2216.63 778.116 2216.63 778.116 2282.4 774.951 2285.31 801.696 2285.6 803.183 2269.64 873.337 2277.57 958.071Z" fill="#83CBEB" fill-rule="evenodd"/><path d="M2277 941.432 2275.67 920.143 2250.97 854 2270.32 931.871 2209 953Z" fill="#000000" fill-rule="evenodd" fill-opacity="0.2"/><path d="M2207 1011C2209.13 1010.72 2228 989.99 2228 989.99L2282 992.057 2279.39 972.318C2280.99 971.041 2216.3 974.022 2216.3 974.022L2207 994.396 2207 1011Z" fill="#000000" fill-rule="evenodd" fill-opacity="0.2"/><path d="M2260.67 784.455C2263.49 784.805 2274.95 778.348 2295.65 804.782 2316.34 831.216 2339.54 931.989 2340.85 946.691 2342.51 965.363 2330 974.567 2317.53 976.615 2280.09 982.761 2211 984.001 2211 984.001L2211 952.35 2279.94 936.829C2279.94 936.829 2240.81 843.171 2246.99 819.038 2253.16 794.913 2260.67 784.455 2260.67 784.455Z" fill="#0F9ED5" fill-rule="evenodd"/><path d="M2230 777.297C2225.03 804.359 2204.81 825.602 2178.19 832.465 2168.85 834.711 2158.41 829.54 2151.03 823.418 2143.55 817.168 2138.57 808.431 2137 798.805 2169.42 786.01 2198.78 775.037 2230 777.297Z" fill="#EEC1BB" fill-rule="evenodd"/><path d="M2279.58 936.862C2279.58 936.862 2291.11 936.268 2296 942 2296 942 2293.06 931.01 2278 933.319L2279.58 936.862Z" fill="#000000" fill-rule="evenodd" fill-opacity="0.2"/><path d="M2189 1141.01 2189 787 1835 787 1835 928.442C1841.42 930.875 1862.38 932.479 1868.76 930.109 1879.93 925.951 1872.64 913.095 1883.43 908.024 1899.34 900.541 1919.17 911.088 1927.51 926.553 1933.98 938.55 1935.2 944.834 1934.6 955.2 1935.2 965.565 1933.98 971.849 1927.51 983.847 1919.17 999.315 1899.34 1009.86 1883.43 1002.38 1872.64 997.305 1881.41 984.768 1870.24 980.61 1863.86 978.24 1841.42 979.521 1835 981.957L1835 1141.01 1993.3 1141.01C1993.49 1144.46 1993.1 1147.92 1991.87 1151.19 1987.71 1162.35 1975.83 1168.99 1970.76 1179.76 1963.26 1195.65 1973.83 1215.45 1989.31 1223.78 2001.33 1230.25 2007.62 1231.46 2018 1230.87 2028.38 1231.46 2034.67 1230.25 2046.69 1223.78 2062.17 1215.45 2072.73 1195.65 2065.24 1179.76 2060.16 1168.99 2048.29 1162.35 2044.12 1151.19 2042.9 1147.92 2042.51 1144.46 2042.69 1141.01L2189 1141.01Z" fill="#E97132" fill-rule="evenodd"/><path d="M2207 1141.01 2207 787 1853 787 1853 928.442C1859.42 930.875 1866.44 931.483 1872.82 929.112 1883.99 924.955 1890.64 913.095 1901.43 908.024 1917.34 900.541 1937.17 911.088 1945.51 926.553 1951.98 938.55 1953.2 944.834 1952.6 955.2 1953.2 965.565 1951.98 971.849 1945.51 983.847 1937.17 999.315 1917.34 1009.86 1901.43 1002.38 1890.64 997.305 1883.99 985.445 1872.82 981.287 1866.44 978.917 1859.42 979.521 1853 981.957L1853 1141.01 2011.3 1141.01C2011.49 1144.46 2011.09 1147.92 2009.87 1151.19 2005.71 1162.35 1993.83 1168.99 1988.76 1179.76 1981.26 1195.65 1991.82 1215.45 2007.31 1223.78 2019.33 1230.25 2025.62 1231.46 2036 1230.87 2046.38 1231.46 2052.67 1230.25 2064.69 1223.78 2080.17 1215.45 2090.74 1195.65 2083.24 1179.76 2078.16 1168.99 2066.29 1162.35 2062.12 1151.19 2060.9 1147.92 2060.51 1144.46 2060.7 1141.01L2207 1141.01Z" fill="#407BFF" fill-rule="evenodd"/><path d="M2207 1141.01 2207 787 1853 787 1853 928.442C1859.42 930.875 1866.44 931.483 1872.82 929.112 1883.99 924.955 1890.64 913.095 1901.43 908.024 1917.34 900.541 1937.17 911.088 1945.51 926.553 1951.98 938.55 1953.2 944.834 1952.6 955.2 1953.2 965.565 1951.98 971.849 1945.51 983.847 1937.17 999.315 1917.34 1009.86 1901.43 1002.38 1890.64 997.305 1883.99 985.445 1872.82 981.287 1866.44 978.917 1859.42 979.521 1853 981.957L1853 1141.01 2011.3 1141.01C2011.49 1144.46 2011.09 1147.92 2009.87 1151.19 2005.71 1162.35 1993.83 1168.99 1988.76 1179.76 1981.26 1195.65 1991.82 1215.45 2007.31 1223.78 2019.33 1230.25 2025.62 1231.46 2036 1230.87 2046.38 1231.46 2052.67 1230.25 2064.69 1223.78 2080.17 1215.45 2090.74 1195.65 2083.24 1179.76 2078.16 1168.99 2066.29 1162.35 2062.12 1151.19 2060.9 1147.92 2060.51 1144.46 2060.7 1141.01L2207 1141.01Z" fill="#F3A75B" fill-rule="evenodd"/><path d="M2206.68 958.956C2206.68 958.956 2183.11 964.926 2180.53 970.547 2177.95 976.168 2186.67 975.739 2186.67 975.739 2186.67 975.739 2177.1 976.812 2177 980.987 2176.88 986.003 2186.01 985.508 2186.01 985.508 2186.01 985.508 2178.24 986.708 2178.4 990.43 2178.56 994.291 2188.91 994.477 2188.91 994.477 2188.91 994.477 2183.59 996.373 2185.14 998.898 2186.7 1001.42 2208.66 1002.25 2215.12 998.085 2221.59 993.921 2221.61 965.324 2220.35 959.084 2219.09 952.844 2214.42 949.478 2206.69 940L2206.69 958.956 2206.68 958.956Z" fill="#EEC1BB" fill-rule="evenodd"/><path d="M2186.42 976C2186.43 976 2186.44 975.995 2186.46 975.995L2202.66 973.035C2202.88 972.993 2203.03 972.733 2203 972.45 2202.96 972.166 2202.75 971.964 2202.54 972.006L2186.34 974.966C2186.12 975.009 2185.97 975.269 2186 975.552 2186.03 975.82 2186.21 976.011 2186.42 976Z" fill="#000000" fill-rule="evenodd" fill-opacity="0.2"/><path d="M2186.43 985.999C2186.44 985.999 2186.44 985.999 2186.44 985.999L2202.63 984.262C2202.85 984.238 2203.02 983.934 2203 983.589 2202.98 983.238 2202.82 983.033 2202.56 983L2186.37 984.738C2186.15 984.761 2185.98 985.065 2186 985.411 2186.02 985.757 2186.21 986.018 2186.43 985.999Z" fill="#000000" fill-rule="evenodd" fill-opacity="0.2"/><path d="M2189.43 995 2201.61 994.213C2201.84 994.2 2202.01 993.913 2202 993.582 2201.99 993.247 2201.79 992.987 2201.56 993.001L2189.39 993.788C2189.16 993.801 2188.99 994.088 2189 994.419 2189.01 994.754 2189.2 995.013 2189.43 995Z" fill="#000000" fill-rule="evenodd" fill-opacity="0.2"/><path d="M1934.93 949.237C1934.93 949.237 1960.75 956.314 1963.39 961.872 1966.04 967.433 1957.11 967.009 1957.11 967.009 1957.11 967.009 1966.9 968.07 1967 972.2 1967.12 977.163 1957.78 976.673 1957.78 976.673 1957.78 976.673 1965.73 977.857 1965.57 981.543 1965.4 985.362 1954.82 985.547 1954.82 985.547 1954.82 985.547 1960.26 987.419 1958.67 989.921 1957.08 992.419 1934.62 993.237 1928.01 989.116 1921.4 984.996 1921.37 956.704 1922.66 950.531 1923.95 944.357 1924.48 945.377 1932.39 936L1933.83 941.25C1934.22 942.677 1934.48 944.135 1934.61 945.606L1934.93 949.237Z" fill="#EEC1BB" fill-rule="evenodd"/><path d="M1956.58 968C1956.57 968 1956.56 967.996 1956.54 967.996L1940.34 965.035C1940.12 964.992 1939.97 964.732 1940 964.449 1940.04 964.166 1940.25 963.963 1940.46 964.005L1956.66 966.967C1956.88 967.009 1957.03 967.269 1957 967.552 1956.97 967.824 1956.78 968.011 1956.58 968Z" fill="#000000" fill-rule="evenodd" fill-opacity="0.2"/><path d="M1956.57 977C1956.56 977 1956.56 977 1956.56 977L1940.37 975.841C1940.15 975.825 1939.98 975.623 1940 975.392 1940.02 975.159 1940.18 975.018 1940.44 975L1956.63 976.159C1956.85 976.174 1957.02 976.377 1957 976.61 1956.98 976.834 1956.79 977.009 1956.57 977Z" fill="#000000" fill-rule="evenodd" fill-opacity="0.2"/><path d="M1953.6 986 1942.36 985.606C1942.15 985.599 1941.99 985.456 1942 985.291 1942.01 985.123 1942.19 984.993 1942.4 985L1953.64 985.393C1953.85 985.4 1954.01 985.544 1954 985.711 1953.99 985.877 1953.81 986.009 1953.6 986Z" fill="#000000" fill-rule="evenodd" fill-opacity="0.2"/><path d="M1414 1737.59 1449.07 1741 1475 1652.77 1421.64 1647Z" fill="#EEC1BB" fill-rule="evenodd"/><path d="M1454.3 1726 1441.82 1726C1438.99 1726 1436.38 1727.43 1434.71 1729.71 1427.51 1739.54 1422.1 1735.82 1414.27 1726.58 1409.29 1726 1407.95 1731.71 1407.54 1733.25L1398.21 1767.19C1397.4 1770.03 1399.04 1772.98 1401.87 1773.79 1402.38 1773.94 1402.9 1774.01 1403.42 1774 1418.59 1774 1425.76 1774 1444.63 1774L1502.35 1774C1518.08 1774 1521.34 1758.15 1514.86 1756.68 1485.72 1750.24 1465.08 1741.67 1456.07 1733.19 1454.4 1731.71 1456.12 1730.6 1454.3 1726Z" fill="#263238" fill-rule="evenodd"/><path d="M1481.84 1736C1483.17 1735.04 1483.96 1733.5 1483.98 1731.86 1484.09 1730.98 1483.69 1730.12 1482.95 1729.63 1479 1726.83 1463.23 1734.22 1461.46 1735.09 1461.27 1735.16 1461.11 1735.31 1461.04 1735.51 1460.91 1735.87 1461.1 1736.28 1461.46 1736.41 1465.34 1737.33 1469.3 1737.84 1473.28 1737.94 1476.26 1738.22 1479.27 1737.54 1481.84 1736ZM1481.97 1730.83C1482.29 1731.03 1482.45 1731.41 1482.38 1731.78 1482.31 1732.97 1481.74 1734.07 1480.81 1734.8 1477.23 1737.48 1468.59 1736.32 1463.93 1735.46 1470.48 1732.57 1479.78 1729.3 1481.97 1730.83Z" fill="#407BFF" fill-rule="evenodd"/><path d="M1462.09 1736C1466.75 1734.04 1476.51 1726.3 1475.98 1722.21 1475.9 1721.35 1475.29 1720.33 1473.19 1720.05 1464.68 1719.06 1461.03 1734.49 1461.03 1735.14 1460.95 1735.41 1461.03 1735.69 1461.24 1735.88 1461.39 1735.92 1461.56 1735.92 1461.72 1735.88L1462.09 1736ZM1472.9 1721.31C1474.48 1721.48 1474.48 1722.05 1474.48 1722.26 1474.92 1724.75 1467.84 1731.17 1462.77 1733.87 1463.82 1730.27 1466.94 1721.27 1472.33 1721.27L1472.9 1721.31Z" fill="#407BFF" fill-rule="evenodd"/><path d="M1463 1736C1458.54 1736.6 1454.4 1739.24 1452 1743" stroke="#407BFF" stroke-width="1.71893" stroke-linecap="round" stroke-linejoin="round" stroke-miterlimit="10" fill="none" fill-rule="evenodd"/><path d="M1471 1742C1466.54 1742.51 1462.4 1744.77 1460 1748" stroke="#407BFF" stroke-width="1.71893" stroke-linecap="round" stroke-linejoin="round" stroke-miterlimit="10" fill="none" fill-rule="evenodd"/><path d="M1480 1746C1475.94 1746.6 1472.18 1749.24 1470 1753" stroke="#407BFF" stroke-width="1.71893" stroke-linecap="round" stroke-linejoin="round" stroke-miterlimit="10" fill="none" fill-rule="evenodd"/><path d="M1618 1737.59 1653.08 1741 1679 1652.77 1625.64 1647Z" fill="#EEC1BB" fill-rule="evenodd"/><path d="M1658.31 1726 1645.82 1726C1642.99 1726 1640.38 1727.43 1638.71 1729.71 1631.51 1739.54 1626.1 1735.82 1618.27 1726.58 1613.29 1726 1611.95 1731.71 1611.54 1733.25L1602.21 1767.19C1601.4 1770.03 1603.04 1772.98 1605.87 1773.79 1606.38 1773.94 1606.9 1774.01 1607.42 1774 1622.59 1774 1629.76 1774 1648.63 1774L1706.35 1774C1722.08 1774 1725.34 1758.15 1718.86 1756.68 1689.72 1750.24 1669.08 1741.67 1660.07 1733.19 1658.41 1731.71 1660.12 1730.6 1658.31 1726Z" fill="#263238" fill-rule="evenodd"/><path d="M1685.84 1736C1687.17 1735.04 1687.96 1733.5 1687.98 1731.86 1688.09 1730.98 1687.7 1730.12 1686.95 1729.63 1683 1726.83 1667.23 1734.22 1665.46 1735.09 1665.27 1735.16 1665.11 1735.31 1665.04 1735.51 1664.91 1735.87 1665.1 1736.28 1665.46 1736.41 1669.34 1737.33 1673.3 1737.84 1677.28 1737.94 1680.27 1738.22 1683.26 1737.54 1685.84 1736ZM1685.96 1730.83C1686.28 1731.03 1686.45 1731.41 1686.37 1731.78 1686.31 1732.97 1685.74 1734.07 1684.81 1734.8 1681.23 1737.48 1672.58 1736.32 1667.93 1735.46 1674.48 1732.57 1683.78 1729.3 1685.96 1730.83Z" fill="#407BFF" fill-rule="evenodd"/><path d="M1666.09 1736C1670.75 1734.04 1680.51 1726.3 1679.98 1722.21 1679.9 1721.35 1679.29 1720.33 1677.19 1720.05 1668.68 1719.06 1665.03 1734.49 1665.03 1735.14 1664.95 1735.41 1665.03 1735.69 1665.24 1735.88 1665.4 1735.92 1665.56 1735.92 1665.72 1735.88L1666.09 1736ZM1676.9 1721.31C1678.48 1721.48 1678.48 1722.05 1678.48 1722.26 1678.93 1724.75 1671.84 1731.17 1666.78 1733.87 1667.83 1730.27 1670.95 1721.27 1676.33 1721.27L1676.9 1721.31Z" fill="#407BFF" fill-rule="evenodd"/><path d="M1667 1736C1662.94 1736.6 1659.18 1739.24 1657 1743" stroke="#407BFF" stroke-width="1.71893" stroke-linecap="round" stroke-linejoin="round" stroke-miterlimit="10" fill="none" fill-rule="evenodd"/><path d="M1675 1742C1670.54 1742.51 1666.4 1744.77 1664 1748" stroke="#407BFF" stroke-width="1.71893" stroke-linecap="round" stroke-linejoin="round" stroke-miterlimit="10" fill="none" fill-rule="evenodd"/><path d="M1685 1746C1680.54 1746.6 1676.4 1749.24 1674 1753" stroke="#407BFF" stroke-width="1.71893" stroke-linecap="round" stroke-linejoin="round" stroke-miterlimit="10" fill="none" fill-rule="evenodd"/><path d="M1666 1699.3 1662.78 1710 1621 1703.77 1621.75 1695Z" fill="#000000" fill-rule="evenodd" fill-opacity="0.301961"/><path d="M1697.95 1103C1697.95 1103 1726.98 1231.59 1740.82 1343.59 1745.03 1377.73 1745.84 1423.38 1738.39 1456.98L1682.44 1736 1612.03 1728.93C1623.1 1608.59 1638.52 1460.18 1642.93 1397.03 1627.44 1323.04 1594.44 1233.46 1562 1144.38L1697.95 1103Z" fill="#404040" fill-rule="evenodd"/><path d="M1461.41 1384.13C1463.01 1377.17 1465.56 1363.05 1468.7 1344.42 1468.6 1344.4 1468.5 1344.38 1468.4 1344.36 1470.7 1319.73 1474.95 1205.47 1482.76 1132.6 1488.76 1086.18 1500.65 1054.77 1512.62 1039.39 1513.24 1038.6 1513.81 1037.88 1514.32 1037.24 1516.31 1034.77 1517.52 1033.41 1517.52 1033.41 1519.8 1033.97 1522.06 1034.5 1524.31 1034.99 1525.15 1035.18 1525.99 1035.36 1526.82 1035.53 1611.35 1053.17 1685.73 1031 1685.73 1031 1693.51 1050.18 1699.32 1091.06 1705 1133.45 1696.16 1143.14 1657.36 1155.7 1612.84 1164.02L1600.15 1221.3C1593.47 1256.82 1584.89 1291.65 1577.61 1323.02L1570 1357.37C1569.53 1359.63 1569.08 1361.86 1568.65 1364.05 1564.79 1383.8 1472.88 1702 1472.88 1702L1413 1698.5C1413.01 1698.5 1439.76 1478.27 1461.41 1384.13Z" fill="#404040" fill-rule="evenodd"/><path d="M1462.24 1394.13C1463.84 1387.17 1466.38 1373.05 1469.51 1354.42 1469.41 1354.4 1469.31 1354.38 1469.21 1354.36 1471.5 1329.73 1475.74 1215.47 1483.52 1142.6 1489.5 1096.18 1501.35 1064.77 1513.28 1049.39 1513.9 1048.6 1514.46 1047.88 1514.98 1047.24 1516.96 1044.77 1518.16 1043.41 1518.16 1043.41 1520.43 1043.97 1522.68 1044.5 1524.93 1044.99 1525.77 1045.18 1526.6 1045.36 1527.43 1045.53 1611.67 1063.17 1685.8 1041 1685.8 1041 1693.55 1060.18 1699.34 1101.06 1705 1143.45 1696.19 1153.14 1657.52 1165.7 1613.16 1174.02L1600.51 1231.3C1593.85 1266.82 1585.31 1301.65 1578.04 1333.02L1570.46 1367.37C1570 1369.63 1569.54 1371.86 1569.12 1374.05 1565.27 1393.8 1473.67 1712 1473.67 1712L1414 1708.5C1414.01 1708.5 1440.66 1488.27 1462.24 1394.13Z" fill="#000000" fill-rule="evenodd" fill-opacity="0.2"/><path d="M1599 1226.75C1598.77 1227.92 1626.48 1128 1626.48 1128 1626.48 1128 1649.8 1217.21 1614.31 1273L1599 1226.75Z" fill="#000000" fill-rule="evenodd" fill-opacity="0.2"/><path d="M1540 774.453C1540 774.453 1553.9 785.184 1571.8 800.67 1575.53 803.897 1579.64 806.687 1583.98 809.004 1595.71 815.257 1606.4 818.836 1609.3 813.158 1609.95 811.91 1610.44 810.557 1610.81 809.141 1613.27 799.634 1612.26 786.271 1604.6 780.155 1595.97 773.26 1591.81 767.36 1593.37 758.023 1594.19 752.731 1596.09 747.268 1598.32 741.96L1591.53 733.988 1556.01 698C1556.9 722.029 1558.71 761.408 1540 774.453Z" fill="#EEC1BB" fill-rule="evenodd"/><path d="M1593.54 760C1583.65 754.159 1572.81 744.028 1574.11 732.453 1574.69 727.58 1575.74 722.96 1576.92 720L1597 746.46C1595.35 750.726 1594.75 753.545 1593.54 760Z" fill="#000000" fill-rule="evenodd" fill-opacity="0.2"/><path d="M1546.22 659.005C1549.57 695.932 1550.22 711.592 1569.09 730.957 1597.47 760.083 1641.13 750.284 1648.65 713.681 1655.41 680.733 1648.8 625.878 1612.91 610.359 1577.54 595.071 1542.88 622.078 1546.22 659.005Z" fill="#EEC1BB" fill-rule="evenodd"/><path d="M1592.01 670.405C1592.19 673.994 1594.11 676.949 1596.32 676.999 1598.52 677.053 1600.16 674.187 1599.99 670.595 1599.81 667.006 1597.89 664.051 1595.68 664.001 1593.48 663.947 1591.84 666.813 1592.01 670.405Z" fill="#263238" fill-rule="evenodd"/><path d="M1630.01 669.91C1630.21 673.222 1632.38 675.949 1634.86 676 1637.34 676.051 1639.18 673.406 1638.99 670.09 1638.79 666.778 1636.62 664.052 1634.14 664.001 1631.66 663.95 1629.81 666.594 1630.01 669.91Z" fill="#263238" fill-rule="evenodd"/><path d="M1585.68 656.989C1586.14 657.042 1586.6 656.905 1586.96 656.559 1592.53 651.166 1598.8 653.06 1598.88 653.081 1599.81 653.364 1600.75 652.814 1600.96 651.823 1601.17 650.832 1600.58 649.791 1599.64 649.495 1599.31 649.392 1591.44 647.008 1584.53 653.702 1583.84 654.369 1583.82 655.55 1584.49 656.34 1584.82 656.718 1585.24 656.94 1585.68 656.989Z" fill="#263238" fill-rule="evenodd"/><path d="M1641.94 654.949C1642.38 655.055 1642.84 655 1643.23 654.753 1644.03 654.248 1644.24 653.132 1643.7 652.263 1638.22 643.549 1630.08 643.02 1629.73 643.003 1628.76 642.951 1627.98 643.721 1628 644.727 1628.02 645.73 1628.82 646.585 1629.79 646.64 1630.11 646.657 1636.42 647.162 1640.78 654.09 1641.06 654.543 1641.49 654.839 1641.94 654.949Z" fill="#263238" fill-rule="evenodd"/><path d="M1561.48 682.191C1561.48 682.191 1572.91 664.967 1568.2 631.427 1567.41 625.804 1570.98 620.481 1576.57 619.399 1592.56 616.304 1613.93 596.206 1640 636.124 1640 636.124 1627.57 588.312 1554.77 607.573 1489.98 624.715 1534.34 679.449 1541.02 685.076 1547.7 690.706 1561.48 682.191 1561.48 682.191Z" fill="#263238" fill-rule="evenodd"/><path d="M1534.42 688.946C1538.8 696.434 1545.91 701.136 1552.44 702.747 1562.25 705.17 1567.32 689.631 1563.97 679.948 1560.95 671.233 1551.31 665.461 1541.76 667.363 1532.35 669.237 1529.41 680.384 1534.42 688.946Z" fill="#EEC1BB" fill-rule="evenodd"/><path d="M1621 705.83C1617.95 710.313 1614.28 719 1614.28 719 1613.39 718.823 1612.51 718.65 1611.63 718.43 1599.69 715.762 1595.07 710.764 1593.58 706.027 1592.77 703.433 1592.93 700.896 1593.33 698.889 1593.78 696.563 1594.65 695 1594.65 695 1600.1 700.021 1611.03 703.323 1616.95 704.855 1619.41 705.526 1621 705.83 1621 705.83Z" fill="#263238" fill-rule="evenodd"/><path d="M1617 705.078 1614.88 709C1603.45 706.406 1595.77 703.108 1593 698.977 1593.45 696.598 1594.34 695 1594.34 695 1599.87 700.131 1610.99 703.511 1617 705.078Z" fill="#FFFFFF" fill-rule="evenodd"/><path d="M1611 719C1599.76 716.204 1595.41 710.966 1594 706 1597.8 707.109 1602.26 708.894 1605.91 711.732 1608.7 713.888 1610.18 716.512 1611 719Z" fill="#DC5753" fill-rule="evenodd"/><path d="M1620 669C1620 669 1625.85 682.53 1632.44 690.965 1633.59 692.439 1632.88 694.591 1631.09 695.228 1626.47 696.87 1621.07 695.383 1621.07 695.383L1620 669Z" fill="#D4827D" fill-rule="evenodd"/><path d="M1595 664.281 1603 662C1603 662 1598.63 669.2 1595 664.281Z" fill="#263238" fill-rule="evenodd"/><path d="M1633 663.711 1641 662C1641 662 1636.63 667.4 1633 663.711Z" fill="#263238" fill-rule="evenodd"/><path d="M1646.42 651.586C1646.42 651.586 1668.79 625.252 1653.87 603.549 1648.26 595.391 1637.96 594.177 1628.87 590.192 1607.9 580.998 1590.9 579.139 1564.13 605.243 1536.28 632.399 1531.24 641.545 1561.96 675 1561.96 675 1558.65 670.625 1570 660.673 1581.36 650.718 1593.89 641.863 1587.81 632.21 1587.81 632.21 1597.25 635.835 1597.92 644.772L1614.53 640.259C1614.53 640.259 1613.81 633.87 1609.41 627.481 1609.41 627.481 1618.02 632.526 1620.82 639.922L1635.18 642.614C1635.18 642.614 1633.07 629.501 1629.02 624.793 1629.01 624.786 1642.17 638.249 1646.42 651.586Z" fill="#263238" fill-rule="evenodd"/><path d="M1556 688C1555.71 684.314 1554.2 680.763 1551.84 678.215 1549.47 675.666 1546.27 674.135 1543 674" stroke="#000000" stroke-width="1.71893" stroke-linecap="round" stroke-linejoin="round" stroke-miterlimit="10" stroke-opacity="0.2" fill="none" fill-rule="evenodd"/><path d="M1731.94 993.252C1729.87 991.658 1727.91 989.896 1726.07 987.98 1724.51 986.346 1723.42 984.238 1723.8 984.238 1723.72 984.005 1723.62 983.776 1723.51 983.553L1722.85 982.024 1721.24 977.912C1720.15 974.961 1719.11 971.743 1718.07 968.477 1715.89 961.993 1713.86 955.245 1711.87 948.446 1707.84 934.792 1704.01 920.981 1700.13 907.119L1693.01 878.054C1691.97 873.345 1690.38 866.484 1688.25 858.656L1688.25 858.632 1688.25 858.632C1682.45 837.285 1672.78 808.81 1660.12 797.487 1640.47 782.476 1627.94 800.992 1619.85 820.246 1612.09 838.724 1631.25 889.219 1631.25 889.219L1654.59 887.533C1657.54 898.277 1660.63 908.966 1663.68 919.874 1667.66 934.107 1672.39 948.076 1677.12 962.044 1679.54 969.056 1682.05 976.068 1684.79 983.131 1686.4 986.716 1687.87 990.246 1689.53 993.992 1690.34 995.836 1691.24 997.789 1692.23 999.739L1693.98 1003.01C1694.71 1004.37 1695.54 1005.68 1696.44 1006.91 1699.9 1011.35 1704.16 1014.94 1708.94 1017.45 1712.62 1019.51 1716.49 1021.12 1720.49 1022.25 1727.76 1024.35 1735.27 1025.26 1742.79 1024.94L1747 1004.59C1741.98 1000.84 1736.44 996.942 1731.94 993.252Z" fill="#AEAEAE" fill-rule="evenodd"/><path d="M1664.12 830C1668.1 836.701 1669.47 840.52 1671.96 848.242 1674.46 855.964 1677.28 897.671 1663 910L1663 881.085C1663.52 863.366 1663.6 847.716 1664.12 830Z" fill="#7F7F7F" fill-rule="evenodd"/><path d="M1489.92 883.368 1468 808.608C1481.87 787.908 1550.48 772 1550.48 772L1585.64 784.343 1595.68 774.473C1595.68 774.473 1613.05 778.35 1627.93 783.203 1647.78 789.681 1658.52 794.89 1663.26 805.912 1663.26 805.912 1671.54 830.33 1666.56 880.648 1665.19 894.485 1666.74 966.419 1670.6 990.185L1694 1064.26C1611.41 1128.6 1495.8 1068.52 1495.8 1068.52 1499.51 1057.16 1511.88 1022.28 1513.56 1011.17 1512.35 997.009 1514.03 975.166 1508.04 950.367 1506.88 945.572 1491.93 888.018 1489.92 883.368Z" fill="#D9D9D9" fill-rule="evenodd"/><path d="M1741 963.157C1743.56 932.025 1767.44 906.942 1798.27 903L1791.96 913.571 1804 906.382 1748.78 976 1741 963.157Z" fill="#407BFF" fill-rule="evenodd"/><path d="M1741 963.157C1743.56 932.025 1767.44 906.942 1798.27 903L1791.96 913.571 1804 906.382 1748.78 976 1741 963.157Z" fill="#FFFFFF" fill-rule="evenodd" fill-opacity="0.8"/><path d="M1653.97 906.58 1672.99 906 1764 936.946 1681.05 1064 1599.41 1043.56C1594.76 1042.27 1592.03 1037.44 1593.32 1032.78 1593.51 1032.08 1593.79 1031.41 1594.14 1030.79L1627.11 971.008C1627.77 969.828 1627.77 968.389 1627.11 967.205L1622.64 959.23C1621.7 957.596 1621.7 955.584 1622.64 953.95L1644.76 912.393C1646.63 908.997 1650.11 906.804 1653.97 906.58Z" fill="#407BFF" fill-rule="evenodd"/><path d="M1764.09 936.495 1816 903 1730.64 1030.4 1681 1064Z" fill="#407BFF" fill-rule="evenodd"/><path d="M1764.09 936.495 1816 903 1730.64 1030.4 1681 1064Z" fill="#000000" fill-rule="evenodd" fill-opacity="0.2"/><path d="M1753.97 996.225C1753.97 996.225 1733.74 990.947 1729.29 994.4 1724.84 997.854 1730.93 1001.13 1730.93 1001.13 1730.93 1001.13 1723.97 998.015 1721.89 1001.34 1719.4 1005.33 1725.79 1008.73 1725.79 1008.73 1725.79 1008.73 1719.97 1006.46 1718.29 1009.53 1716.53 1012.7 1723.42 1017.16 1723.42 1017.16 1723.42 1017.16 1718.92 1016.47 1718.76 1019.15 1718.59 1021.83 1732.99 1031.63 1739.35 1030.97 1745.72 1030.3 1759.5 1007.28 1761.65 1001.74 1763.8 996.183 1763.58 991.861 1759.5 988L1753.97 996.225 1753.97 996.225Z" fill="#EEC1BB" fill-rule="evenodd"/><path d="M1731.14 1000.86C1731.15 1000.87 1731.16 1000.87 1731.17 1000.88L1743.47 1005.98C1743.64 1006.05 1743.85 1005.91 1743.95 1005.68 1744.05 1005.44 1743.99 1005.18 1743.83 1005.12L1731.53 1000.02C1731.36 999.951 1731.15 1000.09 1731.05 1000.32 1730.96 1000.55 1731 1000.78 1731.14 1000.86Z" fill="#000000" fill-rule="evenodd" fill-opacity="0.2"/><path d="M1726.14 1008.86C1726.15 1008.86 1726.15 1008.87 1726.15 1008.87L1737.45 1014.97C1737.61 1015.06 1737.83 1014.94 1737.94 1014.71 1738.05 1014.48 1738.01 1014.27 1737.85 1014.13L1726.55 1008.03C1726.39 1007.94 1726.17 1008.06 1726.06 1008.29 1725.95 1008.52 1725.99 1008.77 1726.14 1008.86Z" fill="#000000" fill-rule="evenodd" fill-opacity="0.2"/><path d="M1724.14 1017.75 1732.44 1021.97C1732.6 1022.05 1732.82 1021.95 1732.93 1021.75 1733.05 1021.56 1733.01 1021.33 1732.86 1021.25L1724.56 1017.03C1724.4 1016.95 1724.18 1017.05 1724.07 1017.25 1723.95 1017.45 1723.99 1017.67 1724.14 1017.75Z" fill="#000000" fill-rule="evenodd" fill-opacity="0.2"/><path d="M1609 777.086 1593.56 762.468 1585.7 783.727 1551.4 757 1534 775.651 1577.09 805 1585.7 786.362 1609 803.45Z" fill="#AEAEAE" fill-rule="evenodd"/><path d="M1608.35 777C1609.44 778.687 1608.35 804.024 1608.35 804.024L1585.36 786.509 1576.86 805.614 1536 777 1577.82 814 1585.36 791.535 1611 814 1608.35 777Z" fill="#000000" fill-rule="evenodd" fill-opacity="0.301961"/><path d="M1630 893.167 1513 1006 1513 983.703C1513 983.703 1618.32 887.14 1619.59 887.002 1620.87 886.862 1630 893.167 1630 893.167Z" fill="#000000" fill-rule="evenodd" fill-opacity="0.301961"/><path d="M1520 901.691 1507.48 850 1505 910Z" fill="#000000" fill-rule="evenodd" fill-opacity="0.301961"/><path d="M1467.83 808C1467.83 808 1451.97 823.475 1446.64 876.267 1442.81 914.16 1433.12 995.872 1462.5 1006.36 1491.88 1016.86 1620 894.078 1620 894.078L1599.2 858.29 1505.05 910.497C1505.05 910.497 1514.65 823.947 1498.06 816.039 1481.47 808.131 1467.83 808 1467.83 808Z" fill="#AEAEAE" fill-rule="evenodd"/><path d="M1607.15 855.694C1607.15 855.694 1619.56 830.748 1625.45 829.649 1631.33 828.551 1636.08 830.522 1636.08 830.522 1636.08 830.522 1676.18 806.806 1678.85 813.046 1680.29 816.424 1671.39 823.866 1652.27 834.815 1652.27 834.815 1663.28 838.883 1658.84 845.359 1658.84 845.359 1666.95 849.09 1662.62 857.173 1662.62 857.173 1666.34 864.314 1661.67 868.874 1656.99 873.434 1634.96 886.021 1622.2 887.899 1609.44 889.777 1602 864.886 1602 864.886L1607.15 855.694Z" fill="#EEC1BB" fill-rule="evenodd"/><path d="M1741.94 1562.63C1752.71 1567.7 1759.35 1579.56 1770.5 1583.71 1776.77 1586.05 1783.67 1585.5 1790 1583.16L1790 1423.99 1637.66 1423.99C1637.47 1420.54 1637.87 1417.08 1639.09 1413.81 1643.24 1402.65 1655.1 1396.01 1660.17 1385.24 1667.66 1369.35 1657.11 1349.55 1641.65 1341.22 1629.65 1334.75 1623.36 1333.54 1613 1334.13 1602.63 1333.54 1596.35 1334.75 1584.35 1341.22 1568.88 1349.55 1558.34 1369.35 1565.82 1385.24 1570.89 1396.01 1582.75 1402.65 1586.91 1413.81 1588.13 1417.08 1588.53 1420.54 1588.34 1423.99L1436 1423.99 1436 1778 1790 1778 1790 1636.44C1783.67 1634.1 1776.77 1633.55 1770.5 1635.89 1759.35 1640.04 1752.66 1651.81 1741.94 1656.98 1727.63 1663.86 1706.31 1653.89 1697.91 1638.45 1691.4 1626.48 1690.24 1620.16 1690.83 1609.8 1690.24 1599.43 1691.45 1593.15 1697.91 1581.15 1706.24 1565.69 1726.04 1555.14 1741.94 1562.63Z" fill="#215F9A" fill-rule="evenodd"/><path d="M1759.8 1562.63C1770.6 1567.7 1777.26 1579.56 1788.45 1583.71 1794.73 1586.05 1801.65 1585.5 1808 1583.16L1808 1423.99 1655.23 1423.99C1655.04 1420.54 1655.44 1417.08 1656.66 1413.81 1660.83 1402.65 1672.72 1396.01 1677.81 1385.24 1685.31 1369.35 1674.73 1349.55 1659.23 1341.22 1647.19 1334.75 1640.89 1333.54 1630.5 1334.13 1620.1 1333.54 1613.8 1334.75 1601.77 1341.22 1586.26 1349.55 1575.68 1369.35 1583.19 1385.24 1588.28 1396.01 1600.17 1402.65 1604.34 1413.81 1605.56 1417.08 1605.96 1420.54 1605.77 1423.99L1453 1423.99 1453 1778 1808 1778 1808 1636.44C1801.65 1634.1 1794.73 1633.55 1788.45 1635.89 1777.26 1640.04 1770.56 1651.81 1759.8 1656.98 1745.45 1663.86 1724.07 1653.89 1715.65 1638.45 1709.12 1626.48 1707.95 1620.16 1708.55 1609.8 1707.95 1599.43 1709.17 1593.15 1715.65 1581.15 1724.01 1565.69 1743.86 1555.14 1759.8 1562.63Z" fill="#46B1E1" fill-rule="evenodd"/><path d="M1749 1659.9C1749 1659.9 1761.3 1681.71 1782.44 1679.89 1803.57 1678.07 1808 1668.99 1808 1668.99L1807.71 1639 1760.56 1656.85C1757.3 1659.49 1753.41 1660.4 1749 1659.9Z" fill="#000000" fill-rule="evenodd" fill-opacity="0.4"/><path d="M2185 1472.37 2305.84 1425.88 2375.6 1358.17C2377.53 1355.92 2397.76 1321 2397.76 1321L2432 1394.43C2432 1394.43 2346.87 1480.08 2315.69 1490.05 2290.49 1498.11 2201.27 1520 2201.27 1520L2185 1472.37Z" fill="#BFBFBF" fill-rule="evenodd"/><path d="M2039.13 1426C2038.94 1429.46 2039.34 1432.91 2040.56 1436.19 2044.72 1447.36 2056.6 1454.01 2061.67 1464.79 2069.17 1480.71 2058.61 1500.53 2043.12 1508.87 2031.11 1515.34 2024.81 1516.55 2014.43 1515.96 2004.05 1516.55 1997.76 1515.34 1985.75 1508.87 1970.26 1500.53 1959.7 1480.71 1967.19 1464.79 1972.27 1454.01 1984.15 1447.36 1988.31 1436.19 1989.53 1432.91 1989.93 1429.46 1989.74 1426L1831.73 1426 1831.73 1585.24C1825.32 1587.68 1818.29 1588.28 1811.92 1585.91 1800.74 1581.75 1794.1 1569.87 1783.31 1564.8 1767.4 1557.3 1747.57 1567.86 1739.23 1583.35 1732.75 1595.36 1731.54 1601.65 1732.13 1612.03 1731.54 1622.4 1732.76 1628.7 1739.23 1640.71 1747.57 1656.19 1767.4 1666.75 1783.31 1659.26 1794.1 1654.18 1800.75 1642.31 1811.92 1638.14 1818.29 1635.77 1825.32 1636.38 1831.73 1638.82L1831.73 1780.42 2185 1782 2185 1427.58 2039.13 1426Z" fill="#263238" fill-rule="evenodd"/><path d="M2039.13 1426C2038.94 1429.46 2039.34 1432.91 2040.56 1436.19 2044.72 1447.36 2056.6 1454.01 2061.67 1464.79 2069.17 1480.71 2058.61 1500.53 2043.12 1508.87 2031.11 1515.34 2024.81 1516.55 2014.43 1515.96 2004.05 1516.55 1997.76 1515.34 1985.75 1508.87 1970.26 1500.53 1959.7 1480.71 1967.19 1464.79 1972.27 1454.01 1984.15 1447.36 1988.31 1436.19 1989.53 1432.91 1989.93 1429.46 1989.74 1426L1831.73 1426 1831.73 1585.24C1825.32 1587.68 1818.29 1588.28 1811.92 1585.91 1800.74 1581.75 1794.1 1569.87 1783.31 1564.8 1767.4 1557.3 1747.57 1567.86 1739.23 1583.35 1732.75 1595.36 1731.54 1601.65 1732.13 1612.03 1731.54 1622.4 1732.76 1628.7 1739.23 1640.71 1747.57 1656.19 1767.4 1666.75 1783.31 1659.26 1794.1 1654.18 1800.75 1642.31 1811.92 1638.14 1818.29 1635.77 1825.32 1636.38 1831.73 1638.82L1831.73 1780.42 2185 1782 2185 1427.58 2039.13 1426Z" fill="#3B7D23" fill-rule="evenodd"/><path d="M2055.13 1426C2054.94 1429.46 2055.34 1432.91 2056.56 1436.19 2060.72 1447.36 2072.6 1454.01 2077.68 1464.79 2085.17 1480.71 2074.61 1500.53 2059.12 1508.87 2047.11 1515.34 2040.81 1516.55 2030.43 1515.96 2020.05 1516.55 2013.76 1515.34 2001.75 1508.87 1986.26 1500.53 1975.7 1480.71 1983.19 1464.79 1988.27 1454.01 2000.15 1447.36 2004.31 1436.19 2005.53 1432.91 2005.93 1429.46 2005.74 1426L1847.73 1426 1847.73 1585.24C1841.32 1587.68 1834.29 1588.28 1827.92 1585.91 1816.75 1581.75 1810.1 1569.87 1799.31 1564.8 1783.4 1557.3 1763.57 1567.86 1755.22 1583.35 1748.75 1595.36 1747.54 1601.65 1748.13 1612.03 1747.54 1622.4 1748.76 1628.7 1755.22 1640.71 1763.57 1656.19 1783.4 1666.75 1799.31 1659.26 1810.1 1654.18 1816.75 1642.31 1827.92 1638.14 1834.29 1635.77 1841.32 1636.38 1847.73 1638.82L1847.73 1780.42 2201 1782 2201 1427.58 2055.13 1426Z" fill="#8ED973" fill-rule="evenodd"/><path d="M2303.97 1664.37 2359 1661C2350.2 1710.03 2341.14 1741.83 2345 1767L2322.81 1782 2302.28 1761.57C2302.28 1761.57 2298.48 1721.5 2303.97 1664.37Z" fill="#E9B376" fill-rule="evenodd"/><path d="M2298.39 1727 2318.58 1727.24C2328.34 1744.11 2335.1 1740.13 2345.45 1728.23 2351.32 1727.62 2352.81 1734.34 2353.27 1736.15L2363.78 1776.09C2364.69 1779.42 2362.72 1782.87 2359.38 1783.78 2358.78 1783.94 2358.17 1784.01 2357.55 1784 2339.72 1783.79 2331.28 1783.69 2309.1 1783.43L2241.23 1782.64C2222.73 1782.42 2219.12 1763.78 2226.76 1762.15 2261.11 1755 2285.5 1745.23 2296.21 1735.41 2298.19 1733.69 2296.19 1732.37 2298.39 1727Z" fill="#7F7F7F" fill-rule="evenodd"/><path d="M2288 1739C2293.31 1739.73 2298.2 1742.74 2301 1747" stroke="#263238" stroke-width="1.71893" stroke-linecap="round" stroke-linejoin="round" stroke-miterlimit="10" fill="none" fill-rule="evenodd"/><path d="M2279 1745C2283.9 1745.83 2288.41 1749.21 2291 1754" stroke="#263238" stroke-width="1.71893" stroke-linecap="round" stroke-linejoin="round" stroke-miterlimit="10" fill="none" fill-rule="evenodd"/><path d="M2268 1751C2272.9 1751.73 2277.41 1754.74 2280 1759" stroke="#263238" stroke-width="1.71893" stroke-linecap="round" stroke-linejoin="round" stroke-miterlimit="10" fill="none" fill-rule="evenodd"/><path d="M2359.41 1783.78C2358.82 1783.94 2358.2 1784.01 2357.59 1784 2339.79 1783.79 2331.37 1783.7 2309.22 1783.44L2241.47 1782.67C2231.47 1782.55 2225.86 1777.17 2224 1772 2226.81 1772.05 2361.43 1774.61 2363.21 1774.05L2363.93 1776.96C2364.41 1779.99 2362.52 1782.96 2359.41 1783.78Z" fill="#FFFFFF" fill-rule="evenodd" fill-opacity="0.701961"/><path d="M2516.29 1517.78C2516.29 1517.78 2364.55 1439.43 2335.01 1437.2 2305.47 1434.97 2277.23 1450.96 2271.58 1512.13 2265.94 1573.3 2277.23 1730.6 2277.23 1730.6L2359.08 1732 2369.23 1549.76C2369.23 1549.76 2495.99 1642.34 2499.75 1641.4 2503.52 1640.46 2553 1638.22 2553 1638.22L2516.29 1517.78Z" fill="#263238" fill-rule="evenodd"/><path d="M2516.29 1517.78C2516.29 1517.78 2364.55 1439.43 2335.01 1437.2 2305.47 1434.97 2277.23 1450.96 2271.58 1512.13 2265.94 1573.3 2277.23 1730.6 2277.23 1730.6L2359.08 1732 2369.23 1549.76C2369.23 1549.76 2495.99 1642.34 2499.75 1641.4 2503.52 1640.46 2553 1638.22 2553 1638.22L2516.29 1517.78Z" fill="#404040" fill-rule="evenodd" fill-opacity="0.301961"/><path d="M2365 1635C2365 1635 2297.72 1658.42 2297.01 1713.56 2296.29 1768.7 2355.62 1758.2 2355.62 1758.2L2365 1635Z" fill="#000000" fill-rule="evenodd" fill-opacity="0.4"/><path d="M2574.02 1778 2559 1723.29C2611.51 1717.59 2646.6 1730.54 2671.01 1719L2693 1737.33 2678.48 1764.63C2678.48 1764.63 2639.77 1777.8 2574.02 1778Z" fill="#E9B376" fill-rule="evenodd"/><path d="M2644.52 1778.29 2638.65 1757.69C2653.03 1742.67 2646.9 1736.99 2631.53 1730.05 2629.13 1724.27 2635.58 1720.73 2637.29 1719.72L2675.15 1697C2678.3 1695.06 2682.44 1696.03 2684.39 1699.16 2684.74 1699.71 2685 1700.32 2685.17 1700.95 2690.36 1719.14 2692.81 1727.75 2699.27 1750.39L2719.01 1819.63C2724.39 1838.51 2706.33 1847.8 2702.34 1840.52 2684.58 1807.74 2667.16 1785.89 2653.82 1777.97 2651.46 1776.47 2650.7 1778.9 2644.52 1778.29Z" fill="#7F7F7F" fill-rule="evenodd"/><path d="M2659.18 1786C2658.39 1780.65 2660.2 1775.01 2664 1771" stroke="#263238" stroke-width="1.71893" stroke-linecap="round" stroke-linejoin="round" stroke-miterlimit="10" fill="none" fill-rule="evenodd"/><path d="M2669.18 1793C2668.39 1787.66 2670.2 1782.01 2674 1778" stroke="#263238" stroke-width="1.71893" stroke-linecap="round" stroke-linejoin="round" stroke-miterlimit="10" fill="none" fill-rule="evenodd"/><path d="M2678.18 1803C2677.39 1797.66 2679.2 1792.01 2683 1788" stroke="#263238" stroke-width="1.71893" stroke-linecap="round" stroke-linejoin="round" stroke-miterlimit="10" fill="none" fill-rule="evenodd"/><path d="M2684.39 1699.14C2684.74 1699.69 2685 1700.3 2685.17 1700.93 2690.36 1719.16 2692.81 1727.79 2699.27 1750.48L2719.01 1819.87C2721.92 1830.11 2717.96 1837.5 2713.09 1841 2712.29 1838.11 2674.13 1699.91 2673 1698.27L2675.84 1696.64C2678.89 1695.22 2682.58 1696.22 2684.39 1699.14Z" fill="#FFFFFF" fill-rule="evenodd" fill-opacity="0.701961"/><path d="M2682.59 1547 2689.17 1580.04C2689.17 1580.04 2706.04 1645.57 2682.39 1678.48 2659.79 1709.93 2626.46 1715.53 2626.46 1715.53L2633.31 1778.73 2626.46 1783C2626.46 1783 2582.85 1783 2493.58 1778.92 2408.78 1775.06 2335.89 1771 2320.84 1744.68 2305.8 1718.36 2302.32 1705.57 2326.93 1674.17 2349.16 1645.79 2518.46 1603.98 2524.35 1602.29L2521.99 1587.87 2519.24 1577.66 2682.59 1547Z" fill="#263238" fill-rule="evenodd"/><path d="M2682.59 1547 2689.17 1580.04C2689.17 1580.04 2706.04 1645.57 2682.39 1678.48 2659.79 1709.93 2626.46 1715.53 2626.46 1715.53L2633.31 1778.73 2626.46 1783C2626.46 1783 2582.85 1783 2493.58 1778.92 2408.78 1775.06 2335.89 1771 2320.84 1744.68 2305.8 1718.36 2302.32 1705.57 2326.93 1674.17 2349.16 1645.79 2518.46 1603.98 2524.35 1602.29L2521.99 1587.87 2519.24 1577.66 2682.59 1547Z" fill="#404040" fill-rule="evenodd" fill-opacity="0.301961"/><path d="M2626 1715.8C2620.8 1717.23 2437 1711 2437 1711 2437 1711 2491.33 1720.78 2531.5 1724.35 2571.67 1727.9 2626 1715.8 2626 1715.8Z" fill="#000000" fill-rule="evenodd" fill-opacity="0.4"/><path d="M2524 1603 2630 1584.02C2630 1584.02 2553.59 1582.74 2524 1603Z" fill="#000000" fill-rule="evenodd" fill-opacity="0.4"/><path d="M2253.66 1527.84C2253.66 1527.84 2244.84 1514.25 2231.7 1511.62 2218.57 1508.99 2208.79 1503.39 2198.89 1502.11 2188.99 1500.83 2197.97 1510.88 2203.83 1515.25 2209.69 1519.63 2216.28 1524.65 2212.28 1528.52 2208.29 1532.39 2161.91 1544.15 2156.98 1550.15 2152.05 1556.15 2160.14 1556.59 2160.14 1556.59 2160.14 1556.59 2148.96 1559.75 2149 1564.53 2149.01 1565.77 2151.05 1568.63 2156.37 1567.99 2168.35 1566.55 2193.33 1562.22 2193.33 1562.22 2191.89 1562.44 2161.44 1569.98 2157.03 1571.71 2151.26 1573.96 2149.69 1577.97 2151.1 1581.27 2153.12 1585.97 2191.2 1577.91 2193.04 1578.69 2193.04 1578.69 2170.96 1582.6 2168.85 1588.85 2166.74 1595.11 2180.77 1593.4 2192.86 1589.55 2203.94 1586.02 2226.6 1582 2237.51 1577.32 2250.96 1571.55 2258.69 1564.66 2258.99 1550.93 2259.28 1537.21 2253.66 1527.84 2253.66 1527.84Z" fill="#E9B376" fill-rule="evenodd"/><path d="M2240 1527.6 2273.45 1514 2285 1550.78 2245.78 1565Z" fill="#E9B376" fill-rule="evenodd"/><path d="M2486 1273.23C2486 1273.23 2476.65 1252.49 2478.64 1211.43 2478.62 1211.39 2476.35 1210.97 2476.34 1210.94 2476.59 1205.2 2477.04 1199.84 2477.56 1195.17 2477.57 1195.04 2477.56 1195 2477.56 1195L2432 1240.03C2436.25 1252.01 2437.54 1276.79 2437.3 1287.44 2437.3 1287.44 2434.97 1307.17 2459.74 1302.19 2477.83 1298.55 2486 1273.23 2486 1273.23Z" fill="#E9B376" fill-rule="evenodd"/><path d="M2436 1257.98 2464 1244C2463.52 1254.01 2457.98 1267.09 2437.6 1273 2437.6 1273 2437.19 1262.03 2436 1257.98Z" fill="#000000" fill-rule="evenodd" fill-opacity="0.2"/><path d="M2471.22 1169.16C2475.63 1203.46 2478.81 1222.71 2465.07 1243.26 2444.39 1274.17 2400.82 1266.9 2386.27 1234.53 2373.18 1205.38 2368.16 1154.18 2398.67 1134.61 2428.74 1115.32 2466.8 1134.85 2471.22 1169.16Z" fill="#E9B376" fill-rule="evenodd"/><path d="M2458.64 1121.39C2442.79 1102.86 2413.28 1119.08 2402.07 1131.11 2400.39 1132.9 2430.74 1141.46 2428.94 1141.18L2438.53 1149.11C2439.77 1148.58 2442.32 1160.32 2444.49 1170.5 2446.48 1179.85 2450.94 1188.45 2457.47 1195.44 2462.94 1201.3 2470.26 1208.31 2478.49 1214 2489.19 1205.98 2485.92 1185.32 2487.29 1172.38 2489.33 1153.1 2488.88 1117.01 2458.64 1121.39Z" fill="#263238" fill-rule="evenodd"/><path d="M2489.89 1194.79C2488.9 1204.11 2483.84 1212.04 2477.95 1216.71 2469.1 1223.74 2463.39 1213.33 2462.33 1202.38 2461.37 1192.53 2461.9 1180.19 2472.48 1177.47 2482.91 1174.78 2491.03 1184.14 2489.89 1194.79Z" fill="#E9B376" fill-rule="evenodd"/><path d="M2424.84 1188.73C2425.46 1192.29 2424.24 1195.53 2422.13 1195.95 2420.01 1196.38 2417.79 1193.84 2417.16 1190.27 2416.54 1186.7 2417.75 1183.47 2419.87 1183.05 2421.99 1182.62 2424.21 1185.16 2424.84 1188.73Z" fill="#263238" fill-rule="evenodd"/><path d="M2390.84 1195.73C2391.46 1199.3 2390.25 1202.53 2388.13 1202.95 2386.01 1203.38 2383.78 1200.83 2383.16 1197.27 2382.54 1193.71 2383.75 1190.47 2385.87 1190.05 2387.99 1189.62 2390.21 1192.16 2390.84 1195.73Z" fill="#263238" fill-rule="evenodd"/><path d="M2402.12 1192C2402.12 1192 2394.23 1210.99 2392 1218.55 2397.84 1221.92 2406 1218.37 2406 1218.37L2402.12 1192Z" fill="#D58745" fill-rule="evenodd"/><path d="M2430.26 1170.74C2429.77 1171.04 2429.13 1171.1 2428.57 1170.82 2421.93 1167.51 2416.56 1170.39 2416.5 1170.42 2415.7 1170.86 2414.68 1170.59 2414.22 1169.82 2413.76 1169.04 2414.04 1168.06 2414.84 1167.62 2415.12 1167.46 2421.85 1163.85 2430.09 1167.96 2430.91 1168.37 2431.24 1169.34 2430.82 1170.13 2430.69 1170.38 2430.49 1170.59 2430.26 1170.74Z" fill="#263238" fill-rule="evenodd"/><path d="M2419.5 1227.5C2425.13 1226.54 2428.95 1223.16 2432.5 1218.5" stroke="#263238" stroke-width="2.57822" stroke-linecap="round" stroke-linejoin="round" stroke-miterlimit="10" fill="none" fill-rule="evenodd"/><path d="M2481 1187.49C2479.19 1185.81 2476.17 1185.61 2473.84 1186.6 2471.51 1187.59 2469.82 1189.57 2468.72 1191.71 2467.39 1194.27 2466.81 1197.17 2467.05 1200" stroke="#000000" stroke-width="1.71893" stroke-linecap="round" stroke-linejoin="round" stroke-miterlimit="10" stroke-opacity="0.2" fill="none" fill-rule="evenodd"/><path d="M2373.63 1184C2373.31 1183.99 2373 1183.9 2372.72 1183.7 2371.97 1183.17 2371.77 1182.13 2372.29 1181.38 2377.45 1173.82 2385.05 1174.04 2385.39 1174 2386.3 1174.03 2387.02 1174.8 2387 1175.72 2386.98 1176.63 2386.23 1177.35 2385.32 1177.33 2385.01 1177.31 2379.16 1177.22 2375.01 1183.29 2374.69 1183.76 2374.16 1184.01 2373.63 1184Z" fill="#263238" fill-rule="evenodd"/><path d="M2458 1121.2C2458 1121.2 2437.07 1095.14 2400.88 1103.74 2371.77 1110.65 2356.59 1132.12 2356.02 1152.65 2355.78 1161.47 2357.72 1168.04 2360.02 1172.66 2361.75 1176.14 2366.73 1175.62 2367.84 1171.88 2368.16 1170.82 2368.54 1169.78 2368.98 1168.76 2369.1 1168.99 2369.22 1169.22 2369.35 1169.44 2371.47 1173.02 2377.12 1171.7 2377.2 1167.53 2377.23 1166.22 2377.38 1164.9 2377.65 1163.6 2377.67 1163.63 2377.69 1163.66 2377.71 1163.69 2379.65 1166.83 2384.51 1165.88 2385.29 1162.26 2388.71 1146.31 2408.01 1134.32 2425.45 1141.45L2438.03 1148.98C2452.46 1140.49 2458 1121.2 2458 1121.2Z" fill="#263238" fill-rule="evenodd"/><path d="M2512.67 1579.36 2510.68 1592.67 2452 1610.33 2465.52 1619 2523.61 1602.86 2526 1577Z" fill="#000000" fill-rule="evenodd" fill-opacity="0.4"/><path d="M2557.49 1277.85C2530.88 1260.83 2484 1268.92 2484 1268.92L2398 1321.31 2456.8 1459.28C2456.8 1459.28 2481.35 1517.96 2494.58 1557.04 2497.86 1566.73 2504.14 1580.23 2514.29 1578.91L2677.64 1549.43C2685.62 1547.99 2690.66 1540.04 2688.5 1532.24 2672.73 1475.38 2581.32 1293.11 2557.49 1277.85Z" fill="#215F9A" fill-rule="evenodd"/><path d="M2573 1355C2573 1355 2546.85 1404.05 2500.93 1446.82 2482.39 1464.1 2469.51 1489 2469.51 1489L2458 1459.7 2573 1355Z" fill="#000000" fill-rule="evenodd" fill-opacity="0.4"/><path d="M2491.43 1317.07 2380.38 1455.71 2250 1514.97 2263 1569C2263 1569 2368.71 1540.44 2411.19 1513.93 2453.68 1487.43 2523.73 1413.3 2523.73 1413.3 2523.73 1413.3 2584.81 1364.22 2581.9 1324.51 2578.99 1284.8 2520.84 1275.53 2491.43 1317.07Z" fill="#BFBFBF" fill-rule="evenodd"/><path d="M2431 1301.13C2431 1301.13 2435.16 1279.8 2437.17 1280.66 2439.19 1281.52 2459.19 1293.54 2459.19 1293.54L2481.57 1260 2495 1268.89 2464.09 1333 2431 1301.13Z" fill="#BFBFBF" fill-rule="evenodd"/><path d="M2431 1301.12C2432.12 1301.53 2450.59 1313.91 2449.58 1314.11 2448.57 1314.32 2457.35 1299.29 2457.35 1299.29L2476.93 1306.7 2493 1268 2477.18 1312.58 2458.64 1303.66 2449.58 1320 2431 1301.12Z" fill="#000000" fill-rule="evenodd" fill-opacity="0.4"/><path d="M1164.87 1037C1165.06 1033.55 1164.66 1030.11 1163.44 1026.84 1159.28 1015.7 1147.4 1009.07 1142.33 998.316 1134.83 982.449 1145.39 962.682 1160.88 954.364 1172.89 947.912 1179.19 946.701 1189.57 947.294 1199.95 946.701 1206.24 947.915 1218.25 954.364 1233.74 962.682 1244.3 982.449 1236.81 998.316 1231.73 1009.07 1219.85 1015.7 1215.69 1026.84 1214.47 1030.11 1214.07 1033.55 1214.26 1037L1372.27 1037 1372.27 878.21C1378.68 875.777 1385.71 875.174 1392.08 877.541 1403.25 881.691 1409.9 893.532 1420.69 898.594 1436.6 906.065 1456.43 895.535 1464.77 880.096 1471.25 868.118 1472.46 861.845 1471.87 851.496 1472.46 841.148 1471.25 834.874 1464.77 822.896 1456.43 807.454 1436.6 796.928 1420.69 804.398 1409.9 809.461 1403.25 821.301 1392.08 825.452 1385.71 827.819 1378.68 827.215 1372.27 824.783L1372.27 683.574 1019 682 1019 1035.42 1164.87 1037Z" fill="#263238" fill-rule="evenodd"/><path d="M1164.87 1037C1165.06 1033.55 1164.66 1030.11 1163.44 1026.84 1159.28 1015.7 1147.4 1009.07 1142.33 998.316 1134.83 982.449 1145.39 962.682 1160.88 954.364 1172.89 947.912 1179.19 946.701 1189.57 947.294 1199.95 946.701 1206.24 947.915 1218.25 954.364 1233.74 962.682 1244.3 982.449 1236.81 998.316 1231.73 1009.07 1219.85 1015.7 1215.69 1026.84 1214.47 1030.11 1214.07 1033.55 1214.26 1037L1372.27 1037 1372.27 878.21C1378.68 875.777 1385.71 875.174 1392.08 877.541 1403.25 881.691 1409.9 893.532 1420.69 898.594 1436.6 906.065 1456.43 895.535 1464.77 880.096 1471.25 868.118 1472.46 861.845 1471.87 851.496 1472.46 841.148 1471.25 834.874 1464.77 822.896 1456.43 807.454 1436.6 796.928 1420.69 804.398 1409.9 809.461 1403.25 821.301 1392.08 825.452 1385.71 827.819 1378.68 827.215 1372.27 824.783L1372.27 683.574 1019 682 1019 1035.42 1164.87 1037Z" fill="#163E64" fill-rule="evenodd"/><path d="M1175.55 1037C1175.74 1033.55 1175.34 1030.11 1174.12 1026.84 1169.97 1015.7 1158.12 1009.07 1153.05 998.316 1145.58 982.449 1156.11 962.682 1171.57 954.364 1183.55 947.912 1189.83 946.701 1200.19 947.294 1210.55 946.701 1216.82 947.915 1228.81 954.364 1244.27 962.682 1254.8 982.449 1247.33 998.316 1242.26 1009.07 1230.41 1015.7 1226.25 1026.84 1225.04 1030.11 1224.64 1033.55 1224.83 1037L1382.49 1037 1382.49 878.21C1388.89 875.777 1395.9 875.174 1402.26 877.541 1413.41 881.691 1420.04 893.532 1430.8 898.594 1446.68 906.065 1466.47 895.535 1474.79 880.096 1481.25 868.118 1482.46 861.845 1481.87 851.496 1482.46 841.148 1481.24 834.874 1474.79 822.896 1466.47 807.454 1446.68 796.928 1430.8 804.398 1420.04 809.461 1413.41 821.301 1402.26 825.452 1395.9 827.819 1388.89 827.215 1382.49 824.783L1382.49 683.574 1030 682 1030 1035.42 1175.55 1037Z" fill="#4E95D9" fill-rule="evenodd"/><path d="M940.852 848C940.852 848 914.981 939.41 931.529 955.322 948.077 971.234 1005.99 960.625 1003.03 959.448 1000.08 958.268 1017.81 848.337 1018.99 852.322 1020.17 856.31 940.852 848 940.852 848Z" fill="#B97964" fill-rule="evenodd"/><path d="M973.08 1672.03 973 1751.14 1010 1754 1023 1679.67C1006.08 1667.54 989.427 1664.64 973.08 1672.03Z" fill="#B97964" fill-rule="evenodd"/><path d="M972.837 1743.51C969.236 1754 969 1796.91 969 1796.91L1046.56 1797C1051.17 1781.48 1044.03 1770.89 1034.99 1769.48 1031.1 1768.89 1026.53 1764.52 1023.2 1760.72 1023.17 1760.22 1018.43 1736.38 1015.5 1735.25 1015.5 1735.25 1013.48 1732.77 1011.76 1735.24 1010.04 1737.71 1008.54 1745.77 1008.54 1745.77 996.442 1729.36 984.576 1731.55 972.837 1743.51Z" fill="#3A3A3A" fill-rule="evenodd"/><path d="M971.525 1755.91C980.235 1752.24 989.58 1753.63 997.171 1759.74 998.5 1760.81 999.761 1758.31 998.442 1757.25 990.354 1750.75 980.129 1749.22 970.856 1753.13 969.347 1753.77 969.999 1756.55 971.525 1755.91L971.525 1755.91Z" fill="#FFFFFF" fill-rule="evenodd"/><path d="M1046.71 1790C1046.71 1790 1046.71 1790 1046.71 1790L969.282 1789.94C968.572 1789.94 968 1789.5 968 1788.97 968 1788.43 968.575 1788 969.286 1788 969.286 1788 969.286 1788 969.286 1788L1046.72 1788.06C1047.43 1788.06 1048 1788.5 1048 1789.03 1048 1789.57 1047.42 1790 1046.71 1790Z" fill="#FFFFFF" fill-rule="evenodd"/><path d="M1132.09 1662.02 1132 1751.09 1166.85 1754 1184 1670.62C1170.01 1659.23 1153.76 1653.65 1132.09 1662.02Z" fill="#B97964" fill-rule="evenodd"/><path d="M1129.87 1743.51C1126.24 1753.99 1126 1796.89 1126 1796.89L1215.8 1797C1220.44 1781.49 1210.74 1772.29 1201.62 1770.88 1197.71 1770.28 1183.98 1764.52 1180.62 1760.71 1180.6 1760.22 1175.82 1736.39 1172.87 1735.25 1172.87 1735.25 1170.83 1732.77 1169.1 1735.24 1167.36 1737.71 1165.86 1745.77 1165.86 1745.77 1153.66 1729.36 1141.7 1731.55 1129.87 1743.51Z" fill="#3A3A3A" fill-rule="evenodd"/><path d="M1129.53 1755.92C1138.23 1752.24 1147.58 1753.64 1155.17 1759.74 1156.5 1760.81 1157.76 1758.31 1156.44 1757.25 1148.35 1750.75 1138.13 1749.22 1128.86 1753.13 1127.35 1753.77 1128 1756.56 1129.53 1755.92L1129.53 1755.92Z" fill="#FFFFFF" fill-rule="evenodd"/><path d="M1215.73 1791C1215.73 1791 1215.73 1791 1215.73 1791L1127.27 1790.89C1126.57 1790.89 1126 1790.24 1126 1789.44 1126 1788.65 1126.57 1788 1127.27 1788 1127.27 1788 1127.27 1788 1127.27 1788L1215.73 1788.11C1216.43 1788.11 1217 1788.76 1217 1789.56 1217 1790.35 1216.43 1791 1215.73 1791Z" fill="#FFFFFF" fill-rule="evenodd"/><path d="M957.865 1711.82 1036.42 1716C1054.04 1658.97 1071.46 1454.48 1073.26 1393.08 1075.41 1319.73 1101.72 1135.62 1078.46 1097.31 1055.2 1059 950 1089.52 950 1089.52 950 1089.52 963.108 1313.69 957.868 1385.18 953.325 1447.14 946.297 1629.28 957.865 1711.82Z" fill="#263238" fill-rule="evenodd"/><path d="M1045 1694.72 1039.86 1721 954.143 1718.23 951 1693Z" fill="#7F7F7F" fill-rule="evenodd"/><path d="M1114.77 1711.82 1192.47 1716C1201.93 1652.85 1239.94 1422.87 1236.82 1378.81 1233.01 1325 1188 1092.08 1171.26 1074.12 1154.53 1056.16 1032 1102.71 1032 1102.71 1032 1102.71 1082.36 1303.01 1122.06 1389.64 1130.31 1407.63 1108.39 1635.02 1114.77 1711.82Z" fill="#263238" fill-rule="evenodd"/><path d="M1201 1696.7 1197.04 1721 1110.73 1715.44 1109 1690Z" fill="#7F7F7F" fill-rule="evenodd"/><path d="M1081 1279.18 1057.93 1203.17 1017 1190 1049 1214.45 1074.73 1353Z" fill="#000000" fill-rule="evenodd" fill-opacity="0.301961"/><path d="M1124 603.825C1124 607.129 1125.5 609.622 1127.66 609.97 1129.83 610.319 1131.81 607.536 1131.99 604.174 1132.17 600.811 1130.55 598.377 1128.38 598.028 1126.22 597.679 1124.42 600.635 1124 603.825Z" fill="#263238" fill-rule="evenodd"/><path d="M1125.61 603C1126.7 613.59 1129.19 623.971 1133 633.84 1128.06 635.749 1122.58 635.285 1118 632.573L1125.61 603Z" fill="#A24E3F" fill-rule="evenodd"/><path d="M1117.86 592.965C1117.42 593.006 1116.97 592.907 1116.59 592.68 1115.81 591.949 1115.8 590.757 1116.57 590.016 1116.58 590.01 1116.59 590.003 1116.59 589.996 1120.62 585.257 1126.83 582.662 1133.24 583.035 1134.3 583.127 1135.09 584.01 1134.99 585.016 1134.99 585.023 1134.99 585.026 1134.99 585.033L1134.99 585.033C1134.81 586.045 1133.84 586.759 1132.76 586.687L1132.76 586.687C1127.68 586.47 1122.8 588.596 1119.67 592.391 1119.21 592.873 1118.53 593.091 1117.86 592.965Z" fill="#263238" fill-rule="evenodd"/><path d="M1125.8 647.32C1125.37 649.07 1124.84 650.795 1124.21 652.482 1120.68 662.127 1114.27 670.506 1105.8 676.516 1103.67 678.046 1101.42 679.412 1099.07 680.593 1080.63 690.266 1057.87 686.716 1043.4 671.916 1024.76 653.478 1025.25 632.179 1023.13 596.127 1022.57 588.378 1023.86 580.612 1026.89 573.438 1037.56 548.261 1067.04 536.329 1092.72 546.793 1092.73 546.796 1092.74 546.799 1092.74 546.799 1128.68 561.205 1133.64 614.826 1125.8 647.32Z" fill="#B97964" fill-rule="evenodd"/><path d="M1105 676.787C1102.87 678.276 1100.63 679.605 1098.28 680.754 1085.81 687.101 1071 687.72 1058 682.442 1059.66 678.226 1061.88 674.226 1064.59 670.54 1078.41 668.885 1092.43 671.056 1105 676.787Z" fill="#000000" fill-rule="evenodd" fill-opacity="0.2"/><path d="M1031 723.733C1049.32 739.874 1094.12 733.931 1094.12 733.931 1094.12 733.931 1122.08 726.468 1116.18 718.005 1099.75 715.359 1091.75 707.895 1088.44 698.303 1086.66 692.38 1086.1 686.17 1086.79 680.035 1087.05 676.611 1087.52 673.208 1088.18 669.836L1032.78 630C1040.02 656.3 1048.91 704.681 1031 723.733Z" fill="#B97964" fill-rule="evenodd"/><path d="M1105.4 614.511 1113.37 617.432 1109.41 601.469C1109.41 601.469 1121.07 584.023 1109.41 568.889 1109.41 568.889 1141.63 559.295 1123.43 542.72 1116.66 536.526 1108.25 542.72 1085.99 533.254 1073.93 528.064 1036.19 527.672 1034.32 542.72 1034.32 542.72 1007.12 542.72 1004.19 588.08 1002.45 614.986 1013 641.255 1032.98 659.785 1032.98 659.785 1065.83 667.372 1081.95 654.465 1098.05 641.551 1105.4 614.511 1105.4 614.511Z" fill="#263238" fill-rule="evenodd"/><path d="M1084.78 617.477C1086.15 624.325 1090.55 630.19 1096.75 633.435 1104.08 636.55 1108.93 626.256 1107.85 615.444 1106.85 605.842 1101.86 592.348 1094.01 594.166 1086.17 595.985 1082.22 607.79 1084.78 617.477Z" fill="#B97964" fill-rule="evenodd"/><path d="M975.313 715C975.313 715 962.58 718.886 956.245 721.216 943.039 726.072 934.325 740.831 929.546 755.32 917.869 790.726 899 874.552 899 874.552L967.472 889 1004 810.025 975.313 715Z" fill="#A6CAEC" fill-rule="evenodd"/><path d="M1142.05 718.977C1121.78 716.797 1059.41 702.716 975.565 714.915L955.947 1024.7C955.947 1024.7 953.427 1072.1 946 1112.77 1031.21 1149.33 1132 1138.87 1189 1108.14 1188.34 1109.43 1186.47 1075.63 1183.55 1026.11 1178.4 938.852 1169.97 802.802 1159.09 724.033 1158.79 722.09 1144.07 719.194 1142.05 718.977Z" fill="#D9D9D9" fill-rule="evenodd"/><path d="M1030 712.183C1032.43 704.988 1035.82 699.927 1040.16 697L1087.03 700.594 1109 715 1030 712.183Z" fill="#A6CAEC" fill-rule="evenodd"/><path d="M1140 816C1147.38 850.857 1157.98 919.186 1178 943L1173.24 873.846 1140 816Z" fill="#000000" fill-rule="evenodd" fill-opacity="0.2"/><path d="M963.173 888 965 799 946 883.768Z" fill="#000000" fill-rule="evenodd" fill-opacity="0.2"/><path d="M1175.1 843.191C1172.48 844.199 1223.08 957.968 1243.68 958.983 1264.28 959.999 1361 916.015 1361 916.015L1339.3 890.131 1266.19 894.32 1228.91 815 1175.1 843.191Z" fill="#B97964" fill-rule="evenodd"/><path d="M1149.98 722.999C1123.76 740.26 1110.76 779.34 1181.07 900L1257 853.796C1241.64 825.558 1225.37 805.029 1207.28 764.13 1170.83 711.837 1149.98 722.999 1149.98 722.999Z" fill="#A6CAEC" fill-rule="evenodd"/><path d="M1395 889.589C1395 882.974 1392.94 875.783 1389.35 875.563 1385.76 875.344 1366.56 875.542 1366.56 875.542L1366.56 875.542C1366.56 870.203 1376.66 864.362 1373.37 860.717 1369.08 855.96 1344.19 876.283 1342.62 880.433 1339.54 888.574 1338 890.608 1338 890.608L1351.15 920.517C1351.15 920.517 1375.49 936.402 1381.14 930.805 1386.79 925.208 1386.27 919.227 1386.27 919.227 1386.27 919.227 1391.92 911.47 1391.41 906.384 1390.89 901.291 1395 896.205 1395 889.589Z" fill="#B97964" fill-rule="evenodd"/></g></svg>