<svg width="1663" height="1543" xmlns="http://www.w3.org/2000/svg" xmlns:xlink="http://www.w3.org/1999/xlink" xml:space="preserve" overflow="hidden"><defs><clipPath id="clip0"><rect x="857" y="534" width="1663" height="1543"/></clipPath><linearGradient x1="2411.95" y1="443.331" x2="965.055" y2="2167.67" gradientUnits="userSpaceOnUse" spreadMethod="reflect" id="fill1"><stop offset="0" stop-color="#71B8FF"/><stop offset="0.56" stop-color="#DE79A1"/><stop offset="1" stop-color="#E59EDD"/></linearGradient></defs><g clip-path="url(#clip0)" transform="translate(-857 -534)"><path d="M1073.54 534 1134.17 534 2303.46 534C2423.05 534 2520 630.947 2520 750.536L2520 1616.66C2520 1736.25 2423.05 1833.19 2303.46 1833.19L1549.92 1833.19 1130.6 2077C1130.87 1995.43 1130.91 1915.23 1131.19 1833.65L1073.54 1833.19C953.949 1833.19 857 1736.25 857 1616.66L857 1291.86 857 750.536C857 630.947 953.949 534 1073.54 534ZM1085.28 569.827C987.264 562.952 891.424 642.978 891.424 756.112L890.736 1287.47 890.736 1598.85C890.736 1711.99 965.952 1798.2 1079.09 1798.2 1108.34 1798.81 1155.47 1800.8 1166.84 1800.04 1167.43 1873.24 1166.19 1941.41 1166.78 2014.62L1531.73 1798.89 2295.08 1799.58C2408.21 1799.58 2489.16 1706.26 2485.49 1599.54L2486.87 775.362C2486.87 662.228 2412.34 570.514 2299.2 570.514L1085.28 569.827Z" fill="url(#fill1)" fill-rule="evenodd"/></g></svg>