<svg width="1446" height="1114" xmlns="http://www.w3.org/2000/svg" xmlns:xlink="http://www.w3.org/1999/xlink" xml:space="preserve" overflow="hidden"><defs><clipPath id="clip0"><rect x="2358" y="840" width="1446" height="1114"/></clipPath></defs><g clip-path="url(#clip0)" transform="translate(-2358 -840)"><path d="M2609.35 1942C2609.35 1942 2271.26 1699.65 2438.41 1526.47 2605.56 1353.29 3005.87 1465.11 3110.27 1401.84 3214.66 1338.56 3447 1105.81 3639.46 1235.87 3815.05 1354.55 3593.03 1545.24 3653.97 1662.91 3720.34 1791.07 3723.19 1844.64 3691.05 1942L2609.35 1942Z" fill="#CAEEFB" fill-rule="evenodd"/><path d="M2565 1943 3321 1943" stroke="#657380" stroke-width="3.54035" stroke-linecap="round" stroke-linejoin="round" stroke-miterlimit="10" fill="none" fill-rule="evenodd"/><path d="M3630 1943 3802 1943" stroke="#657380" stroke-width="3.54035" stroke-linecap="round" stroke-linejoin="round" stroke-miterlimit="10" fill="none" fill-rule="evenodd"/><path d="M2360 1943 2446 1943" stroke="#657380" stroke-width="3.54035" stroke-linecap="round" stroke-linejoin="round" stroke-miterlimit="10" fill="none" fill-rule="evenodd"/><path d="M3318.65 1528.39C3316.78 1537.59 3307.81 1543.53 3298.61 1541.65 3289.41 1539.78 3283.47 1530.81 3285.35 1521.61 3287.22 1512.41 3296.19 1506.47 3305.39 1508.35 3314.59 1510.22 3320.53 1519.19 3318.65 1528.39Z" fill="#EAAB73" fill-rule="evenodd"/><path d="M3327.96 1538.83 3310.7 1535.36C3306.19 1534.45 3303.25 1530.07 3304.17 1525.62L3304.17 1525.62C3305.09 1521.16 3309.53 1518.26 3314.04 1519.17L3331.3 1522.64C3335.81 1523.54 3338.75 1527.93 3337.83 1532.38L3337.83 1532.38C3336.92 1536.84 3332.47 1539.74 3327.96 1538.83Z" fill="#EAAB73" fill-rule="evenodd"/><path d="M3412.8 1560.92C3412.4 1560.88 3411.99 1560.82 3411.58 1560.74L3317 1543.55 3322.65 1512.77 3407.37 1528.18C3425.16 1503.14 3450.34 1476 3450.34 1476L3450.34 1476 3481.89 1478.11C3482.98 1485.69 3476.39 1485.53 3427.21 1554.42 3423.91 1559.03 3418.4 1561.49 3412.8 1560.92Z" fill="#233241" fill-rule="evenodd"/><path d="M3091.5 1942 3091.5 1942C3028.82 1942 2978 1891.18 2978 1828.49L2978 1740 3205 1740 3205 1828.49C3205 1891.18 3154.19 1942 3091.5 1942Z" fill="#5062E5" fill-rule="evenodd"/><path d="M3194.53 1398.42C3206.31 1389.03 3196.87 1372.12 3196.87 1372.12L3196.89 1372.12C3193.78 1365.07 3192.02 1357.28 3192.02 1349.07 3192.02 1317.55 3217.54 1292 3249.01 1292 3280.49 1292 3306.01 1317.55 3306.01 1349.07 3306.01 1357.28 3304.24 1365.07 3301.13 1372.12L3301.15 1372.12C3301.15 1372.12 3291.71 1389.03 3303.49 1398.42L3394 1398.42C3375.45 1492.13 3308.81 1547.1 3257.01 1603.9 3199.7 1666.75 3203.57 1729.86 3204.16 1733.99 3208.6 1764.96 3090 1759.65 3090 1759.65L3090 1398.42 3194.53 1398.42Z" fill="#5062E5" fill-rule="evenodd"/><path d="M3044.08 1140.21C3052.29 1140.21 3060.08 1141.97 3067.14 1145.09L3067.14 1145.06C3067.14 1145.06 3080 1152.24 3089.53 1146.25L3089.53 1038C3100.6 1038 3111.67 1038.93 3122.63 1040.78 3266.31 1065.13 3370.15 1140.91 3394.55 1293.14 3401.02 1333.54 3400.09 1368.34 3393.99 1399L3303.35 1399C3291.55 1389.62 3301 1372.74 3301 1372.74L3300.98 1372.74C3304.1 1365.7 3305.87 1357.93 3305.87 1349.73 3305.87 1318.26 3280.31 1292.75 3248.78 1292.75 3217.25 1292.75 3191.7 1318.26 3191.7 1349.73 3191.7 1357.92 3193.47 1365.7 3196.59 1372.74L3196.56 1372.74C3196.56 1372.74 3206.02 1389.62 3194.22 1399L3089.53 1399 3089.53 1248.13C3080 1242.14 3067.14 1249.31 3067.14 1249.31L3067.14 1249.29C3060.08 1252.4 3052.3 1254.16 3044.08 1254.16 3012.56 1254.16 2987 1228.66 2987 1197.19 2986.99 1165.72 3012.55 1140.21 3044.08 1140.21Z" fill="#77D0FA" fill-rule="evenodd"/><path d="M2786 1398.42 2871.31 1398.42C2883.09 1389.03 2873.66 1372.12 2873.66 1372.12L2873.68 1372.12C2870.56 1365.07 2868.8 1357.28 2868.8 1349.07 2868.8 1317.55 2894.31 1292 2925.79 1292 2957.26 1292 2982.78 1317.55 2982.78 1349.07 2982.78 1357.28 2981.01 1365.07 2977.9 1372.12L2977.92 1372.12C2977.92 1372.12 2968.49 1389.03 2980.26 1398.42L3089.97 1398.42 3089.97 1514.78C3099.11 1518.48 3109.99 1512.41 3109.99 1512.41L3109.99 1512.44C3117.04 1509.32 3124.81 1507.55 3133.01 1507.55 3164.49 1507.55 3190 1533.1 3190 1564.62 3190 1596.14 3164.49 1621.69 3133.01 1621.69 3124.81 1621.69 3117.04 1619.93 3109.99 1616.81L3109.99 1616.83C3109.99 1616.83 3099.11 1610.76 3089.97 1614.46L3089.97 1759.65C3089.97 1759.65 2975.85 1764.96 2975.82 1733.99 2975.81 1729.81 2980.28 1666.75 2922.97 1603.9 2871.18 1547.1 2804.55 1492.13 2786 1398.42Z" fill="#6BADF8" fill-rule="evenodd"/><path d="M3203.06 1778 2971.94 1778C2959.27 1778 2949 1767.7 2949 1755L2949 1755C2949 1742.3 2959.27 1732 2971.94 1732L3203.06 1732C3215.73 1732 3226 1742.3 3226 1755L3226 1755C3226 1767.7 3215.73 1778 3203.06 1778Z" fill="#F1D34D" fill-rule="evenodd"/><path d="M3203.06 1859 2971.94 1859C2959.27 1859 2949 1848.7 2949 1836L2949 1836C2949 1823.3 2959.27 1813 2971.94 1813L3203.06 1813C3215.73 1813 3226 1823.3 3226 1836L3226 1836C3226 1848.7 3215.73 1859 3203.06 1859Z" fill="#F1D34D" fill-rule="evenodd"/><path d="M3452.98 1617 3443 1651.61 3548 1661 3545.99 1617.11Z" fill="#4F65E9" fill-rule="evenodd"/><path d="M3499 1641 3460.93 1746.71 3455.73 1910 3418.22 1909.46 3417 1739.25 3445.59 1641.88Z" fill="#5062E5" fill-rule="evenodd"/><path d="M3548.35 1653.47 3552 1750.78 3576 1912 3537.21 1911.51 3504.96 1753.5 3493 1641Z" fill="#5062E5" fill-rule="evenodd"/><path d="M3423.55 1909 3449 1909.75 3448.37 1947 3376 1944.87 3376 1944.87C3376.72 1939.04 3380.73 1934.57 3386.37 1933.38L3422.51 1925.73 3423.55 1909Z" fill="#2B3C50" fill-rule="evenodd"/><path d="M3376.27 1944.53 3448.82 1946.62 3448.66 1952.27 3376.11 1950.18Z" fill="#C4C9E7" fill-rule="evenodd"/><path d="M3544.89 1915.3 3569.23 1913 3573 1947.02 3504 1948 3504 1948C3504 1942.61 3507.3 1938.06 3512.53 1936.32L3545.86 1930.67 3544.89 1915.3Z" fill="#2B3C50" fill-rule="evenodd"/><path d="M3572.49 1947 3504 1948.1 3504.51 1954 3573 1952.9Z" fill="#C4C9E7" fill-rule="evenodd"/><path d="M3505.3 1468 3508.4 1468.62C3522.01 1471.34 3532.67 1481.88 3535.49 1495.39L3553 1620.33C3505.45 1643.95 3447.32 1616.88 3447.32 1616.88L3440.12 1500.67C3438.98 1487.85 3446.13 1475.72 3457.94 1470.44L3457.94 1470.44 3505.3 1468Z" fill="#2B3C50" fill-rule="evenodd"/><path d="M3462.5 1470.13 3502 1468C3502 1468 3500.92 1486.11 3477.18 1484.95 3457.81 1484 3462.5 1470.13 3462.5 1470.13Z" fill="#FFB87D" fill-rule="evenodd"/><path d="M3380.91 1571.77C3379.93 1581.11 3371.57 1587.89 3362.23 1586.91 3352.89 1585.93 3346.12 1577.57 3347.09 1568.23 3348.07 1558.89 3356.44 1552.12 3365.77 1553.09 3375.11 1554.07 3381.88 1562.44 3380.91 1571.77Z" fill="#FFB87D" fill-rule="evenodd"/><path d="M3390.83 1581.95 3373.44 1580.07C3368.9 1579.58 3365.57 1575.35 3366.05 1570.67L3366.05 1570.67C3366.52 1565.99 3370.63 1562.56 3375.17 1563.05L3392.56 1564.93C3397.1 1565.42 3400.43 1569.65 3399.95 1574.33L3399.95 1574.33C3399.48 1579.01 3395.37 1582.44 3390.83 1581.95Z" fill="#FFB87D" fill-rule="evenodd"/><path d="M3381 1587.42 3382.16 1556.02 3468.86 1559.21 3501.18 1489.69C3505.06 1481.93 3514.51 1478.78 3522.29 1482.66L3522.29 1482.66C3530.07 1486.54 3533.22 1495.97 3529.34 1503.74L3492.49 1582.31C3489.73 1587.82 3484 1591.22 3477.83 1590.99L3381 1587.42Z" fill="#2B3C50" fill-rule="evenodd"/><path d="M3413.6 1909.36 3414.17 1893.02 3461.03 1894.68 3460.46 1911.02Z" fill="#7286F2" fill-rule="evenodd"/><path d="M3530 1898.83 3578.39 1896 3581 1912.17 3532.61 1915Z" fill="#7286F2" fill-rule="evenodd"/><path d="M3446 1589.93 3473.92 1590.97C3481.78 1590.74 3488.89 1586.24 3492.46 1579.23L3526 1510C3512.51 1550.6 3495.2 1591.82 3495.2 1591.82 3493.08 1597.08 3487.81 1600.37 3482.15 1599.97L3446.45 1597.26 3446 1589.93Z" fill="#233241" fill-rule="evenodd"/><path d="M3495.52 1479 3467 1476.58 3471.48 1416 3500 1418.42Z" fill="#FFB87D" fill-rule="evenodd"/><path d="M3468 1464.81C3468 1464.81 3493.87 1470 3497 1426L3468.59 1456.57 3468 1464.81Z" fill="#F3A75B" fill-rule="evenodd"/><path d="M3462.27 1456.92 3462.27 1456.92C3444.31 1455.62 3430.8 1439.88 3432.08 1421.77L3433.95 1395.43C3434.52 1387.46 3441.38 1381.47 3449.28 1382.04L3500 1385.7 3497.11 1426.46C3495.82 1444.58 3480.23 1458.21 3462.27 1456.92Z" fill="#FFB87D" fill-rule="evenodd"/><path d="M3500.21 1422 3488.81 1421.26 3488.85 1404.83C3488.85 1404.83 3488.15 1393.82 3495.65 1393.37L3434.48 1390.27C3434.48 1390.27 3415.98 1387.48 3420.8 1368.72 3423.56 1357.99 3433.18 1353.63 3437.59 1354.02 3440.94 1354.32 3443.1 1359.79 3443.09 1363.16L3443.09 1363.17C3443.09 1363.17 3503.45 1351.57 3505.65 1376.51 3507.41 1396.42 3502 1400.87 3502 1400.87L3500.21 1422Z" fill="#222C38" fill-rule="evenodd"/><path d="M3501.1 1377.01C3501.1 1377.01 3515.67 1376.26 3516.85 1389.04 3518.89 1411.22 3500 1422 3500 1422L3500.27 1385.73 3501.1 1377.01Z" fill="#222C38" fill-rule="evenodd"/><path d="M3513.58 1420.45C3511.95 1426.01 3506.12 1429.2 3500.55 1427.58 3494.99 1425.95 3491.8 1420.12 3493.42 1414.55 3495.05 1408.99 3500.88 1405.8 3506.45 1407.43 3512.01 1409.05 3515.2 1414.88 3513.58 1420.45Z" fill="#FFB87D" fill-rule="evenodd"/><path d="M3440 1366.26C3440 1366.26 3445.41 1355.84 3450.29 1355.03 3455.15 1354.23 3448.1 1368 3448.1 1368L3440 1366.26Z" fill="#222C38" fill-rule="evenodd"/><path d="M3500.94 1383C3500.67 1383 3500.4 1382.87 3500.21 1382.62 3499.88 1382.19 3499.95 1381.56 3500.35 1381.21 3507.3 1375.17 3507.12 1367.13 3507.12 1367.05 3507.1 1366.49 3507.51 1366.02 3508.02 1366 3508.03 1366 3508.05 1366 3508.06 1366 3508.56 1366 3508.98 1366.42 3509 1366.96 3509.01 1367.33 3509.25 1376.08 3501.53 1382.77 3501.36 1382.93 3501.15 1383 3500.94 1383Z" fill="#222C38" fill-rule="evenodd"/><path d="M3503.98 1384C3503.95 1384 3503.9 1383.99 3503.86 1383.99 3503.32 1383.93 3502.94 1383.44 3503.01 1382.91 3503.96 1375.26 3515.43 1374.05 3515.91 1374 3515.95 1374 3515.98 1374 3516.01 1374 3516.51 1374 3516.94 1374.38 3517 1374.88 3517.05 1375.41 3516.65 1375.89 3516.11 1375.94 3516.01 1375.95 3505.73 1377.04 3504.96 1383.15 3504.91 1383.64 3504.48 1384 3503.98 1384Z" fill="#222C38" fill-rule="evenodd"/><path d="M2479 1065C2479 1065 2487.32 1055.42 2492.42 1051.02 2501.61 1043.11 2512.14 1029.13 2545.83 1039.44 2548.45 1040.24 2550.99 1041.3 2553.51 1042.37 2556.48 1043.63 2565.68 1043.66 2575.1 1036.17 2590.07 1024.26 2595.93 1015.28 2616.44 1015 2640.31 1014.68 2644.06 1044.47 2662.61 1052.09 2674.41 1056.95 2705.56 1061.77 2712 1063.92L2479 1065Z" fill="#EDF0F6" fill-rule="evenodd"/><path d="M3243 925C3243 925 3257.04 908.704 3265.64 901.239 3281.13 887.79 3298.9 864.022 3355.72 881.538 3360.14 882.901 3364.42 884.707 3368.67 886.524 3373.68 888.667 3389.2 888.723 3405.09 875.988 3430.34 855.749 3440.22 840.48 3474.81 840.005 3515.07 839.453 3521.4 890.102 3552.69 903.066 3572.6 911.315 3625.13 919.518 3636 923.173L3243 925Z" fill="#EDF0F6" fill-rule="evenodd"/><path d="M2747.26 1258.14C2716.31 1107.1 2786.67 999.631 2912.49 926.259 2922.08 920.666 2932.11 915.898 2942.47 912L2980.71 1013.29C2973.91 1022.25 2959.34 1020.07 2959.34 1020.07L2959.35 1020.09C2951.65 1019.66 2943.74 1020.75 2936.06 1023.64 2906.57 1034.74 2891.67 1067.61 2902.79 1097.06 2913.9 1126.5 2946.82 1141.38 2976.32 1130.28 2984 1127.39 2990.66 1122.99 2996.16 1117.59L2996.17 1117.62C2996.17 1117.62 3005.68 1106.37 3016.7 1108.62L3070 1249.8 2967.21 1288.49C2952.86 1283.87 2955.74 1264.74 2955.74 1264.74L2955.71 1264.75C2956.15 1257.06 2955.05 1249.17 2952.16 1241.5 2941.04 1212.05 2908.12 1197.18 2878.63 1208.28 2849.14 1219.38 2834.24 1252.25 2845.36 1281.7 2848.25 1289.37 2852.65 1296.02 2858.06 1301.51L2858.04 1301.52C2858.04 1301.52 2872.84 1313.98 2865.12 1326.92L2785.18 1357C2768.65 1330.45 2755.48 1298.22 2747.26 1258.14Z" fill="#ECBE2D" fill-rule="evenodd"/><path d="M2486.7 1946C2489.33 1946 2491.68 1944.42 2492.26 1942.1L2672.87 1213C2673.53 1210.33 2671.57 1207.7 2668.5 1207.13 2665.46 1206.51 2662.4 1208.25 2661.74 1210.92L2481.13 1940.01C2480.46 1942.69 2482.43 1945.32 2485.5 1945.89 2485.9 1945.97 2486.31 1946 2486.7 1946Z" fill="#7F7F7F" fill-rule="evenodd"/><path d="M2618.71 1946C2621.34 1946 2623.7 1944.42 2624.28 1942.1L2805.87 1213C2806.54 1210.34 2804.58 1207.7 2801.5 1207.13 2798.42 1206.51 2795.39 1208.25 2794.72 1210.92L2613.13 1940.01C2612.46 1942.68 2614.42 1945.31 2617.5 1945.89 2617.91 1945.97 2618.32 1946 2618.71 1946Z" fill="#7F7F7F" fill-rule="evenodd"/><path d="M2657.68 1256 2790.32 1256C2793.46 1256 2796 1253.76 2796 1251 2796 1248.24 2793.45 1246 2790.32 1246L2657.68 1246C2654.54 1246 2652 1248.24 2652 1251 2652 1253.76 2654.55 1256 2657.68 1256Z" fill="#7F7F7F" fill-rule="evenodd"/><path d="M2642.72 1314 2776.28 1314C2779.44 1314 2782 1311.76 2782 1309 2782 1306.24 2779.44 1304 2776.28 1304L2642.72 1304C2639.56 1304 2637 1306.24 2637 1309 2637 1311.76 2639.56 1314 2642.72 1314Z" fill="#7F7F7F" fill-rule="evenodd"/><path d="M2628.68 1372 2761.32 1372C2764.46 1372 2767 1369.98 2767 1367.5 2767 1365.02 2764.45 1363 2761.32 1363L2628.68 1363C2625.54 1363 2623 1365.02 2623 1367.5 2623 1369.99 2625.54 1372 2628.68 1372Z" fill="#7F7F7F" fill-rule="evenodd"/><path d="M2614.68 1431 2747.32 1431C2750.46 1431 2753 1428.76 2753 1426 2753 1423.24 2750.45 1421 2747.32 1421L2614.68 1421C2611.54 1421 2609 1423.24 2609 1426 2609 1428.76 2611.54 1431 2614.68 1431Z" fill="#7F7F7F" fill-rule="evenodd"/><path d="M2599.68 1489 2732.32 1489C2735.46 1489 2738 1486.76 2738 1484 2738 1481.24 2735.45 1479 2732.32 1479L2599.68 1479C2596.54 1479 2594 1481.24 2594 1484 2594 1486.76 2596.54 1489 2599.68 1489Z" fill="#7F7F7F" fill-rule="evenodd"/><path d="M2585.68 1547 2718.32 1547C2721.46 1547 2724 1544.76 2724 1542 2724 1539.24 2721.45 1537 2718.32 1537L2585.68 1537C2582.54 1537 2580 1539.24 2580 1542 2580 1544.76 2582.55 1547 2585.68 1547Z" fill="#7F7F7F" fill-rule="evenodd"/><path d="M2570.68 1606 2703.32 1606C2706.46 1606 2709 1603.76 2709 1601 2709 1598.24 2706.45 1596 2703.32 1596L2570.68 1596C2567.54 1596 2565 1598.24 2565 1601 2565 1603.76 2567.55 1606 2570.68 1606Z" fill="#7F7F7F" fill-rule="evenodd"/><path d="M2556.68 1664 2689.32 1664C2692.46 1664 2695 1661.76 2695 1659 2695 1656.24 2692.45 1654 2689.32 1654L2556.68 1654C2553.55 1654 2551 1656.24 2551 1659 2551 1661.76 2553.55 1664 2556.68 1664Z" fill="#7F7F7F" fill-rule="evenodd"/><path d="M2541.68 1722 2674.32 1722C2677.46 1722 2680 1719.76 2680 1717 2680 1714.24 2677.45 1712 2674.32 1712L2541.68 1712C2538.54 1712 2536 1714.24 2536 1717 2536 1719.76 2538.54 1722 2541.68 1722Z" fill="#7F7F7F" fill-rule="evenodd"/><path d="M2527.68 1781 2660.32 1781C2663.46 1781 2666 1778.76 2666 1776 2666 1773.24 2663.45 1771 2660.32 1771L2527.68 1771C2524.54 1771 2522 1773.24 2522 1776 2522 1778.76 2524.55 1781 2527.68 1781Z" fill="#7F7F7F" fill-rule="evenodd"/><path d="M2512.68 1839 2645.32 1839C2648.46 1839 2651 1836.76 2651 1834 2651 1831.24 2648.45 1829 2645.32 1829L2512.68 1829C2509.54 1829 2507 1831.24 2507 1834 2507 1836.76 2509.54 1839 2512.68 1839Z" fill="#7F7F7F" fill-rule="evenodd"/><path d="M2615 1305.82 2644.96 1307 2648 1246.18 2618.04 1245Z" fill="#FFB87D" fill-rule="evenodd"/><path d="M2620.03 1258C2620.03 1258 2618.18 1291.84 2645.94 1297L2647 1280.92 2620.03 1258Z" fill="#F3A75B" fill-rule="evenodd"/><path d="M2622 1215C2622 1215 2581.32 1220.37 2616 1249L2622 1215Z" fill="#222C38" fill-rule="evenodd"/><path d="M2652.59 1289.95 2652.59 1289.95C2671.56 1290.97 2687.75 1276.19 2688.75 1256.96L2691 1213.67 2622.3 1210 2620.05 1253.29C2619.05 1272.52 2633.62 1288.94 2652.59 1289.95Z" fill="#FFB87D" fill-rule="evenodd"/><path d="M2683.24 1218.61C2683.24 1218.61 2691.26 1223.68 2690.55 1237 2690.55 1237 2704.82 1220.4 2696.28 1210.58 2694.12 1208.1 2690.81 1206.92 2687.52 1207 2682.55 1207.13 2673.92 1208.73 2663.4 1216.39 2646.62 1228.62 2683.24 1218.61 2683.24 1218.61Z" fill="#222C38" fill-rule="evenodd"/><path d="M2685 1212.15C2685 1212.15 2685.81 1181.17 2644.44 1185.4 2601.74 1189.76 2606.88 1229.61 2621.81 1245L2630.2 1239.37 2685 1212.15Z" fill="#222C38" fill-rule="evenodd"/><path d="M2608.02 1247.42C2607.7 1253.49 2612.35 1258.66 2618.42 1258.98 2624.49 1259.3 2629.66 1254.65 2629.98 1248.58 2630.3 1242.51 2625.65 1237.34 2619.58 1237.02 2613.51 1236.7 2608.34 1241.36 2608.02 1247.42Z" fill="#FFB87D" fill-rule="evenodd"/><path d="M2627.68 1235.89 2628.57 1252.61 2637.54 1253 2638.28 1236.01C2673.39 1239.54 2687 1214.06 2687 1214.06 2682.66 1213.83 2640.5 1201.98 2627.65 1205.74 2614.8 1209.49 2620.07 1237.25 2620.07 1237.25L2627.2 1230.3 2627.68 1235.89Z" fill="#222C38" fill-rule="evenodd"/><path d="M2696 1613.01 2673.85 1609 2664 1645.1 2727.07 1649 2727.96 1644.13C2728.38 1639.09 2725.71 1634.6 2721.05 1632.57L2691.16 1627.28 2696 1613.01Z" fill="#2B3C50" fill-rule="evenodd"/><path d="M2564.48 1677.14 2542.14 1674 2531 1712.67 2594.3 1714 2594.99 1709.02C2595.2 1703.89 2592.35 1699.44 2587.6 1697.58L2559.22 1693.69 2564.48 1677.14Z" fill="#2B3C50" fill-rule="evenodd"/><path d="M2591.37 1454 2572.84 1548.92 2530 1681.65 2570.5 1684 2617.75 1552.66 2646 1454Z" fill="#DDBB3D" fill-rule="evenodd"/><path d="M2589.3 1463 2639 1476.92 2633.3 1497 2588 1469.72Z" fill="#C6C6C6" fill-rule="evenodd" fill-opacity="0.211765"/><path d="M2663.88 1438 2728.07 1457.93C2739.4 1459.81 2746.5 1471.22 2743.18 1482.23L2702.99 1618 2661 1617.68 2699.02 1489.83 2604.54 1469.26C2590.64 1468.01 2580 1456.36 2580 1442.4L2580 1438 2663.88 1438Z" fill="#F1D34D" fill-rule="evenodd"/><path d="M2638.49 1301 2638.49 1301C2656.87 1301.07 2671 1327.2 2671 1347.75L2663.89 1438.08 2572 1442 2586.71 1334.48C2588.89 1314.82 2601.24 1301 2616.03 1301.07L2638.49 1301Z" fill="#4E95D9" fill-rule="evenodd"/><path d="M2805.25 1327.94C2813.15 1335.07 2825.49 1334.61 2832.81 1326.91 2840.13 1319.21 2839.65 1307.19 2831.75 1300.06 2823.85 1292.93 2811.51 1293.39 2804.19 1301.09 2796.87 1308.79 2797.35 1320.81 2805.25 1327.94Z" fill="#FFB87D" fill-rule="evenodd"/><path d="M2720.04 1383C2718.1 1383 2716.17 1382.6 2714.37 1381.81L2625 1342.63 2636.34 1316.65 2721.07 1353.8 2817.32 1303 2825 1323.06 2723.89 1382.47C2722.62 1382.82 2721.33 1383 2720.04 1383Z" fill="#FFB87D" fill-rule="evenodd"/><path d="M2684 1333.25 2665.82 1372 2626.89 1350.11C2616.43 1344.23 2612.86 1330.76 2619.03 1320.39L2619.03 1320.39C2624.21 1311.66 2634.76 1307.83 2644.26 1311.23L2684 1333.25Z" fill="#4E95D9" fill-rule="evenodd"/><path d="M2669 1365.3 2667.28 1387 2623 1348 2665.78 1372.03Z" fill="#C6C6C6" fill-rule="evenodd" fill-opacity="0.658824"/><path d="M2655.05 1254.32C2655.24 1255.99 2656.08 1257.21 2656.87 1256.97 2657.67 1256.73 2658.15 1255.35 2657.96 1253.68 2657.76 1252.02 2656.93 1250.77 2656.12 1251.04 2655.31 1251.3 2654.84 1252.65 2655.05 1254.32Z" fill="#263238" fill-rule="evenodd"/><path d="M2673.05 1251.33C2673.25 1252.99 2674.06 1254.21 2674.87 1253.97 2675.69 1253.73 2676.15 1252.36 2675.96 1250.67 2675.76 1248.98 2674.93 1247.79 2674.12 1248.03 2673.3 1248.26 2672.84 1249.64 2673.05 1251.33Z" fill="#263238" fill-rule="evenodd"/><path d="M2667 1253C2669.76 1257.57 2673.13 1261.77 2677 1265.48 2674.62 1268.45 2669.57 1267.97 2669.57 1267.97L2667 1253Z" fill="#ED847E" fill-rule="evenodd"/><path d="M2664.72 1273.99C2661.13 1274.1 2657.67 1272.6 2655.12 1269.83 2654.96 1269.64 2654.96 1269.34 2655.12 1269.15 2655.3 1268.95 2655.59 1268.95 2655.77 1269.14 2655.77 1269.14 2655.77 1269.15 2655.77 1269.15 2658.59 1272.13 2662.52 1273.5 2666.4 1272.85 2666.64 1272.76 2666.9 1272.9 2666.98 1273.16 2667.06 1273.42 2666.93 1273.7 2666.69 1273.79 2666.63 1273.81 2666.58 1273.82 2666.52 1273.82 2665.93 1273.92 2665.32 1273.98 2664.72 1273.99Z" fill="#263238" fill-rule="evenodd"/><path d="M2647.96 1248.97C2647.81 1249.01 2647.66 1249.01 2647.51 1248.97 2647.06 1248.76 2646.87 1248.23 2647.09 1247.79 2647.1 1247.78 2647.11 1247.77 2647.11 1247.76 2648.44 1245.17 2651.03 1243.39 2654.01 1243 2654.51 1242.96 2654.96 1243.32 2655 1243.81 2655 1243.82 2655 1243.83 2655 1243.84 2655.04 1244.32 2654.66 1244.75 2654.16 1244.79 2654.15 1244.79 2654.14 1244.79 2654.13 1244.79 2651.82 1245.11 2649.81 1246.48 2648.74 1248.48 2648.62 1248.78 2648.3 1248.97 2647.96 1248.97Z" fill="#263238" fill-rule="evenodd"/><path d="M2679.15 1244C2678.86 1244.01 2678.58 1243.88 2678.42 1243.65 2677.14 1241.89 2675.05 1240.77 2672.75 1240.63 2672.26 1240.55 2671.93 1240.13 2672.01 1239.68 2672.07 1239.33 2672.37 1239.06 2672.75 1239L2672.75 1239C2675.62 1239.15 2678.25 1240.53 2679.84 1242.72 2680.12 1243.08 2680.03 1243.58 2679.64 1243.84 2679.63 1243.84 2679.63 1243.84 2679.62 1243.85 2679.49 1243.95 2679.32 1244 2679.15 1244Z" fill="#263238" fill-rule="evenodd"/><path d="M3479.8 1399.87C3479.58 1400.25 3479.15 1400.51 3478.65 1400.55 3474.97 1400.85 3471.68 1402.61 3469.77 1405.31 3469.42 1405.92 3468.54 1406.17 3467.82 1405.87 3467.09 1405.57 3466.8 1404.83 3467.15 1404.21 3469.49 1400.72 3473.67 1398.41 3478.38 1398.01 3479.16 1397.92 3479.88 1398.38 3479.98 1399.05 3479.98 1399.05 3479.99 1399.07 3479.99 1399.08 3480.03 1399.35 3479.96 1399.63 3479.8 1399.87Z" fill="#263238" fill-rule="evenodd"/><path d="M0.254907 4.71363C0.922412 6.89793 2.67737 8.34387 4.20116 7.9293 5.72438 7.51474 6.41336 5.44138 5.74586 3.25761 5.07835 1.07331 3.32339-0.342375 1.79961 0.0721907 0.276384 0.486757-0.412598 2.55959 0.254907 4.71363Z" fill="#263238" fill-rule="evenodd" transform="matrix(-1 0 0 1 3477 1408)"/><path d="M0.254891 4.15012C0.922356 6.03493 2.67721 7.30092 4.2009 6.93761 5.72403 6.57478 6.41297 4.76058 5.74551 2.87577 5.07804 0.99049 3.32319-0.301514 1.7995 0.0613249 0.276368 0.419518-0.412573 2.23836 0.254891 4.15012Z" fill="#263238" fill-rule="evenodd" transform="matrix(-1 0 0 1 3449 1402)"/><path d="M0 0C5.08047 5.43687 11.0559 10.2819 17.767 14.3909 14.4542 18.7233 6.61413 18.9239 6.61413 18.9239L0 0Z" fill="#ED847E" fill-rule="evenodd" transform="matrix(-0.976358 0.216162 0.216162 0.976358 3461.68 1411.9)"/><path d="M5.10998 4.04596C3.56582 3.67089 2.05528 3.17156 0.596405 2.54739 0.115918 2.36784-0.124326 1.85768 0.0642652 1.40166 0.0702713 1.39083 0.0702713 1.38 0.0756768 1.3743 0.31592 0.934823 0.882295 0.744438 1.36278 0.945653 8.78271 4.16509 17.3756 3.87211 24.5265 0.147634 24.9673-0.124263 25.5565-0.0102603 25.8424 0.40243 26.1343 0.81512 26.0082 1.3743 25.5733 1.6462 19.372 5.03379 11.9924 5.89737 5.10998 4.04596Z" fill="#263238" fill-rule="evenodd" transform="matrix(-1 0 0 1 3473 1441)"/><path d="M13.7819 1.63253C13.549 1.96845 13.0827 2.19283 12.5504 2.2303 8.5864 2.49127 5.03483 4.03536 2.98412 6.39244 2.60122 6.93183 1.65652 7.15185 0.879417 6.89044 0.0960391 6.62466-0.220325 5.97331 0.161948 5.43392 2.68533 2.3793 7.18724 0.358573 12.2572 0.0100209 13.0946-0.068839 13.866 0.333738 13.9797 0.914513 13.9797 0.922791 13.9853 0.935426 13.9853 0.947626 14.033 1.18421 13.9614 1.42906 13.7819 1.63253Z" fill="#263238" fill-rule="evenodd" transform="matrix(-1 0 0 1 3460 1395)"/></g></svg>