<svg width="1416" height="1057" xmlns="http://www.w3.org/2000/svg" xmlns:xlink="http://www.w3.org/1999/xlink" xml:space="preserve" overflow="hidden"><defs><clipPath id="clip0"><rect x="2725" y="924" width="1416" height="1057"/></clipPath><linearGradient x1="3425.17" y1="1991.18" x2="3440.83" y2="913.819" gradientUnits="userSpaceOnUse" spreadMethod="reflect" id="fill1"><stop offset="0" stop-color="#FF73F9"/><stop offset="0.5" stop-color="#96A5FC"/><stop offset="1" stop-color="#2ED8FF"/></linearGradient><linearGradient x1="3152" y1="1534.5" x2="3693" y2="1534.5" gradientUnits="userSpaceOnUse" spreadMethod="reflect" id="fill2"><stop offset="0" stop-color="#FF73F9"/><stop offset="0.5" stop-color="#96A5FC"/><stop offset="1" stop-color="#2ED8FF"/></linearGradient><linearGradient x1="3777.13" y1="1361.96" x2="3107.87" y2="1711.04" gradientUnits="userSpaceOnUse" spreadMethod="reflect" id="fill3"><stop offset="0" stop-color="#8900A2"/><stop offset="0.5" stop-color="#4E0068"/><stop offset="1" stop-color="#14002E"/></linearGradient><linearGradient x1="3524.25" y1="1219.28" x2="3360.75" y2="1853.72" gradientUnits="userSpaceOnUse" spreadMethod="reflect" id="fill4"><stop offset="0" stop-color="#E9FEFF"/><stop offset="0.5" stop-color="#F1F2FF"/><stop offset="1" stop-color="#FAE7FF"/></linearGradient><linearGradient x1="3510.5" y1="1147" x2="3372.5" y2="1354" gradientUnits="userSpaceOnUse" spreadMethod="reflect" id="fill5"><stop offset="0" stop-color="#8900A2"/><stop offset="0.5" stop-color="#4E0068"/><stop offset="1" stop-color="#14002E"/></linearGradient><linearGradient x1="3454.23" y1="1469.71" x2="3431.77" y2="1469.29" gradientUnits="userSpaceOnUse" spreadMethod="reflect" id="fill6"><stop offset="0" stop-color="#FFA2D1"/><stop offset="0.5" stop-color="#FF7FDD"/><stop offset="1" stop-color="#FF5CEA"/></linearGradient><linearGradient x1="3477.21" y1="1469.67" x2="3456.79" y2="1469.33" gradientUnits="userSpaceOnUse" spreadMethod="reflect" id="fill7"><stop offset="0" stop-color="#FFA2D1"/><stop offset="0.5" stop-color="#FF7FDD"/><stop offset="1" stop-color="#FF5CEA"/></linearGradient><linearGradient x1="3500.22" y1="1469.69" x2="3478.78" y2="1469.31" gradientUnits="userSpaceOnUse" spreadMethod="reflect" id="fill8"><stop offset="0" stop-color="#FFA2D1"/><stop offset="0.5" stop-color="#FF7FDD"/><stop offset="1" stop-color="#FF5CEA"/></linearGradient><linearGradient x1="3341.03" y1="1451.52" x2="3428.97" y2="1470.48" gradientUnits="userSpaceOnUse" spreadMethod="reflect" id="fill9"><stop offset="0" stop-color="#FF73F9"/><stop offset="0.5" stop-color="#96A5FC"/><stop offset="1" stop-color="#2ED8FF"/></linearGradient><linearGradient x1="3424.55" y1="1405.59" x2="3349.45" y2="1520.41" gradientUnits="userSpaceOnUse" spreadMethod="reflect" id="fill10"><stop offset="0" stop-color="#E9FEFF"/><stop offset="0.5" stop-color="#E4E7F4"/><stop offset="1" stop-color="#E0D1EA"/></linearGradient><linearGradient x1="3406.97" y1="1393.56" x2="3404.03" y2="1410.44" gradientUnits="userSpaceOnUse" spreadMethod="reflect" id="fill11"><stop offset="0" stop-color="#E9FEFF"/><stop offset="0.5" stop-color="#E4E7F4"/><stop offset="1" stop-color="#E0D1EA"/></linearGradient><linearGradient x1="3405.46" y1="1398.11" x2="3404.54" y2="1405.89" gradientUnits="userSpaceOnUse" spreadMethod="reflect" id="fill12"><stop offset="0" stop-color="#E9FEFF"/><stop offset="0.5" stop-color="#E4E7F4"/><stop offset="1" stop-color="#E0D1EA"/></linearGradient><linearGradient x1="3387.16" y1="1399.8" x2="3421.84" y2="1410.2" gradientUnits="userSpaceOnUse" spreadMethod="reflect" id="fill13"><stop offset="0" stop-color="#E9FEFF"/><stop offset="0.5" stop-color="#E4E7F4"/><stop offset="1" stop-color="#E0D1EA"/></linearGradient><linearGradient x1="3351.81" y1="1511.9" x2="3415.19" y2="1432.1" gradientUnits="userSpaceOnUse" spreadMethod="reflect" id="fill14"><stop offset="0" stop-color="#FFA017"/><stop offset="0.5" stop-color="#FFB022"/><stop offset="1" stop-color="#FFC12E"/></linearGradient><linearGradient x1="3326.1" y1="1443.18" x2="3378.9" y2="1445.82" gradientUnits="userSpaceOnUse" spreadMethod="reflect" id="fill15"><stop offset="0" stop-color="#FF73F9"/><stop offset="0.5" stop-color="#96A5FC"/><stop offset="1" stop-color="#2ED8FF"/></linearGradient><linearGradient x1="3371.04" y1="1368.37" x2="3337.96" y2="1523.63" gradientUnits="userSpaceOnUse" spreadMethod="reflect" id="fill16"><stop offset="0" stop-color="#E9FEFF"/><stop offset="0.5" stop-color="#E4E7F4"/><stop offset="1" stop-color="#E0D1EA"/></linearGradient><linearGradient x1="3360.13" y1="1363.35" x2="3359.87" y2="1371.65" gradientUnits="userSpaceOnUse" spreadMethod="reflect" id="fill17"><stop offset="0" stop-color="#E9FEFF"/><stop offset="0.5" stop-color="#E4E7F4"/><stop offset="1" stop-color="#E0D1EA"/></linearGradient><linearGradient x1="3360.02" y1="1365.9" x2="3359.98" y2="1369.1" gradientUnits="userSpaceOnUse" spreadMethod="reflect" id="fill18"><stop offset="0" stop-color="#E9FEFF"/><stop offset="0.5" stop-color="#E4E7F4"/><stop offset="1" stop-color="#E0D1EA"/></linearGradient><linearGradient x1="3340.08" y1="1378.26" x2="3379.92" y2="1365.74" gradientUnits="userSpaceOnUse" spreadMethod="reflect" id="fill19"><stop offset="0" stop-color="#E9FEFF"/><stop offset="0.5" stop-color="#E4E7F4"/><stop offset="1" stop-color="#E0D1EA"/></linearGradient><linearGradient x1="3328.43" y1="1510.3" x2="3377.57" y2="1399.7" gradientUnits="userSpaceOnUse" spreadMethod="reflect" id="fill20"><stop offset="0" stop-color="#2EA9FF"/><stop offset="0.5" stop-color="#39C0FF"/><stop offset="1" stop-color="#45D7FF"/></linearGradient><linearGradient x1="3257" y1="1442.5" x2="3367" y2="1442.5" gradientUnits="userSpaceOnUse" spreadMethod="reflect" id="fill21"><stop offset="0" stop-color="#FF73F9"/><stop offset="0.5" stop-color="#96A5FC"/><stop offset="1" stop-color="#2ED8FF"/></linearGradient><linearGradient x1="3278.31" y1="1354.92" x2="3355.69" y2="1533.08" gradientUnits="userSpaceOnUse" spreadMethod="reflect" id="fill22"><stop offset="0" stop-color="#E9FEFF"/><stop offset="0.5" stop-color="#E4E7F4"/><stop offset="1" stop-color="#E0D1EA"/></linearGradient><linearGradient x1="3305.77" y1="1346.13" x2="3302.23" y2="1361.87" gradientUnits="userSpaceOnUse" spreadMethod="reflect" id="fill23"><stop offset="0" stop-color="#E9FEFF"/><stop offset="0.5" stop-color="#E4E7F4"/><stop offset="1" stop-color="#E0D1EA"/></linearGradient><linearGradient x1="3304.03" y1="1351.87" x2="3303.97" y2="1356.13" gradientUnits="userSpaceOnUse" spreadMethod="reflect" id="fill24"><stop offset="0" stop-color="#E9FEFF"/><stop offset="0.5" stop-color="#E4E7F4"/><stop offset="1" stop-color="#E0D1EA"/></linearGradient><linearGradient x1="3317.26" y1="1345.25" x2="3291.74" y2="1370.75" gradientUnits="userSpaceOnUse" spreadMethod="reflect" id="fill25"><stop offset="0" stop-color="#E9FEFF"/><stop offset="0.5" stop-color="#E4E7F4"/><stop offset="1" stop-color="#E0D1EA"/></linearGradient><linearGradient x1="3304.4" y1="1527.47" x2="3329.6" y2="1449.53" gradientUnits="userSpaceOnUse" spreadMethod="reflect" id="fill26"><stop offset="0" stop-color="#FF5CEA"/><stop offset="0.5" stop-color="#FF7FDD"/><stop offset="1" stop-color="#FFA2D1"/></linearGradient><linearGradient x1="3302.84" y1="1526.13" x2="3322.16" y2="1460.87" gradientUnits="userSpaceOnUse" spreadMethod="reflect" id="fill27"><stop offset="0" stop-color="#FF5CEA"/><stop offset="0.5" stop-color="#FF7FDD"/><stop offset="1" stop-color="#FFA2D1"/></linearGradient><linearGradient x1="3294.48" y1="1923.33" x2="3289.52" y2="1945.67" gradientUnits="userSpaceOnUse" spreadMethod="reflect" id="fill28"><stop offset="0" stop-color="#F0877E"/><stop offset="0.5" stop-color="#F5A298"/><stop offset="1" stop-color="#FABEB2"/></linearGradient><linearGradient x1="3309.21" y1="1934.05" x2="3304.79" y2="1962.95" gradientUnits="userSpaceOnUse" spreadMethod="reflect" id="fill29"><stop offset="0" stop-color="#3A008B"/><stop offset="0.5" stop-color="#1D0868"/><stop offset="1" stop-color="#001145"/></linearGradient><linearGradient x1="3181.94" y1="1499.73" x2="3203.06" y2="1641.27" gradientUnits="userSpaceOnUse" spreadMethod="reflect" id="fill30"><stop offset="0" stop-color="#E9FEFF"/><stop offset="0.5" stop-color="#E4E7F4"/><stop offset="1" stop-color="#E0D1EA"/></linearGradient><linearGradient x1="3521" y1="1528" x2="3338" y2="1528" gradientUnits="userSpaceOnUse" spreadMethod="reflect" id="fill31"><stop offset="0" stop-color="#E9FEFF"/><stop offset="0.5" stop-color="#F1F2FF"/><stop offset="1" stop-color="#FAE7FF"/></linearGradient><linearGradient x1="3254.86" y1="1502.96" x2="3366.14" y2="1527.04" gradientUnits="userSpaceOnUse" spreadMethod="reflect" id="fill32"><stop offset="0" stop-color="#FF73F9"/><stop offset="0.5" stop-color="#96A5FC"/><stop offset="1" stop-color="#2ED8FF"/></linearGradient><linearGradient x1="3359.93" y1="1445.17" x2="3265.07" y2="1589.83" gradientUnits="userSpaceOnUse" spreadMethod="reflect" id="fill33"><stop offset="0" stop-color="#E9FEFF"/><stop offset="0.5" stop-color="#E4E7F4"/><stop offset="1" stop-color="#E0D1EA"/></linearGradient><linearGradient x1="3337.56" y1="1430.1" x2="3334.44" y2="1449.9" gradientUnits="userSpaceOnUse" spreadMethod="reflect" id="fill34"><stop offset="0" stop-color="#E9FEFF"/><stop offset="0.5" stop-color="#E4E7F4"/><stop offset="1" stop-color="#E0D1EA"/></linearGradient><linearGradient x1="3336.65" y1="1434.83" x2="3335.35" y2="1445.17" gradientUnits="userSpaceOnUse" spreadMethod="reflect" id="fill35"><stop offset="0" stop-color="#E9FEFF"/><stop offset="0.5" stop-color="#E4E7F4"/><stop offset="1" stop-color="#E0D1EA"/></linearGradient><linearGradient x1="3313" y1="1437.28" x2="3357" y2="1450.72" gradientUnits="userSpaceOnUse" spreadMethod="reflect" id="fill36"><stop offset="0" stop-color="#E9FEFF"/><stop offset="0.5" stop-color="#E4E7F4"/><stop offset="1" stop-color="#E0D1EA"/></linearGradient><linearGradient x1="3268.28" y1="1578.97" x2="3348.72" y2="1477.04" gradientUnits="userSpaceOnUse" spreadMethod="reflect" id="fill37"><stop offset="0" stop-color="#FFA017"/><stop offset="0.5" stop-color="#FFB022"/><stop offset="1" stop-color="#FFC12E"/></linearGradient><linearGradient x1="3236.15" y1="1492.4" x2="3301.85" y2="1495.6" gradientUnits="userSpaceOnUse" spreadMethod="reflect" id="fill38"><stop offset="0" stop-color="#FF73F9"/><stop offset="0.5" stop-color="#96A5FC"/><stop offset="1" stop-color="#2ED8FF"/></linearGradient><linearGradient x1="3292.8" y1="1397.31" x2="3250.2" y2="1594.69" gradientUnits="userSpaceOnUse" spreadMethod="reflect" id="fill39"><stop offset="0" stop-color="#E9FEFF"/><stop offset="0.5" stop-color="#E4E7F4"/><stop offset="1" stop-color="#E0D1EA"/></linearGradient><linearGradient x1="3279.18" y1="1391.17" x2="3278.82" y2="1401.83" gradientUnits="userSpaceOnUse" spreadMethod="reflect" id="fill40"><stop offset="0" stop-color="#E9FEFF"/><stop offset="0.5" stop-color="#E4E7F4"/><stop offset="1" stop-color="#E0D1EA"/></linearGradient><linearGradient x1="3278.54" y1="1393.84" x2="3278.47" y2="1399.16" gradientUnits="userSpaceOnUse" spreadMethod="reflect" id="fill41"><stop offset="0" stop-color="#E9FEFF"/><stop offset="0.5" stop-color="#E4E7F4"/><stop offset="1" stop-color="#E0D1EA"/></linearGradient><linearGradient x1="3253.2" y1="1410.61" x2="3303.8" y2="1394.39" gradientUnits="userSpaceOnUse" spreadMethod="reflect" id="fill42"><stop offset="0" stop-color="#E9FEFF"/><stop offset="0.5" stop-color="#E4E7F4"/><stop offset="1" stop-color="#E0D1EA"/></linearGradient><linearGradient x1="3239.19" y1="1577.39" x2="3300.81" y2="1436.61" gradientUnits="userSpaceOnUse" spreadMethod="reflect" id="fill43"><stop offset="0" stop-color="#2EA9FF"/><stop offset="0.5" stop-color="#39C0FF"/><stop offset="1" stop-color="#45D7FF"/></linearGradient><linearGradient x1="3520.85" y1="1593.02" x2="3343.15" y2="1554.98" gradientUnits="userSpaceOnUse" spreadMethod="reflect" id="fill44"><stop offset="0" stop-color="#FFA2D1"/><stop offset="0.5" stop-color="#FF7FDD"/><stop offset="1" stop-color="#FF5CEA"/></linearGradient><linearGradient x1="3206.05" y1="1593.38" x2="3197.95" y2="1511.62" gradientUnits="userSpaceOnUse" spreadMethod="reflect" id="fill45"><stop offset="0" stop-color="#E9FEFF"/><stop offset="0.5" stop-color="#E4E7F4"/><stop offset="1" stop-color="#E0D1EA"/></linearGradient><linearGradient x1="3309.12" y1="1441.74" x2="3307.88" y2="1455.26" gradientUnits="userSpaceOnUse" spreadMethod="reflect" id="fill46"><stop offset="0" stop-color="#F0877E"/><stop offset="0.5" stop-color="#F5A298"/><stop offset="1" stop-color="#FABEB2"/></linearGradient><linearGradient x1="3279.19" y1="1406.76" x2="3282.81" y2="1477.24" gradientUnits="userSpaceOnUse" spreadMethod="reflect" id="fill47"><stop offset="0" stop-color="#F0877E"/><stop offset="0.5" stop-color="#F5A298"/><stop offset="1" stop-color="#FABEB2"/></linearGradient><linearGradient x1="3218.51" y1="1938.36" x2="3217.49" y2="1959.64" gradientUnits="userSpaceOnUse" spreadMethod="reflect" id="fill48"><stop offset="0" stop-color="#3A008B"/><stop offset="0.5" stop-color="#1D0868"/><stop offset="1" stop-color="#001145"/></linearGradient><linearGradient x1="3222.98" y1="1923.49" x2="3219.02" y2="1944.51" gradientUnits="userSpaceOnUse" spreadMethod="reflect" id="fill49"><stop offset="0" stop-color="#F0877E"/><stop offset="0.5" stop-color="#F5A298"/><stop offset="1" stop-color="#FABEB2"/></linearGradient><linearGradient x1="3298.23" y1="1926.06" x2="3192.77" y2="1619.94" gradientUnits="userSpaceOnUse" spreadMethod="reflect" id="fill50"><stop offset="0" stop-color="#3A008B"/><stop offset="0.5" stop-color="#1D0868"/><stop offset="1" stop-color="#001145"/></linearGradient><linearGradient x1="3295.36" y1="1522.13" x2="3302.64" y2="1502.87" gradientUnits="userSpaceOnUse" spreadMethod="reflect" id="fill51"><stop offset="0" stop-color="#E9FEFF"/><stop offset="0.5" stop-color="#E4E7F4"/><stop offset="1" stop-color="#E0D1EA"/></linearGradient><linearGradient x1="3285.95" y1="1562.08" x2="3286.05" y2="1560.92" gradientUnits="userSpaceOnUse" spreadMethod="reflect" id="fill52"><stop offset="0" stop-color="#E9FEFF"/><stop offset="0.5" stop-color="#E4E7F4"/><stop offset="1" stop-color="#E0D1EA"/></linearGradient><linearGradient x1="3274.29" y1="1756.54" x2="3246.71" y2="1675.46" gradientUnits="userSpaceOnUse" spreadMethod="reflect" id="fill53"><stop offset="0" stop-color="#3A008B"/><stop offset="0.5" stop-color="#1D0868"/><stop offset="1" stop-color="#001145"/></linearGradient><linearGradient x1="3340.17" y1="1920.65" x2="3224.83" y2="1634.35" gradientUnits="userSpaceOnUse" spreadMethod="reflect" id="fill54"><stop offset="0" stop-color="#3A008B"/><stop offset="0.5" stop-color="#1D0868"/><stop offset="1" stop-color="#001145"/></linearGradient><linearGradient x1="3360.92" y1="1546.86" x2="3362.08" y2="1546.14" gradientUnits="userSpaceOnUse" spreadMethod="reflect" id="fill55"><stop offset="0" stop-color="#F0877E"/><stop offset="0.5" stop-color="#F5A298"/><stop offset="1" stop-color="#FABEB2"/></linearGradient><linearGradient x1="3401.92" y1="1493.87" x2="3403.08" y2="1493.13" gradientUnits="userSpaceOnUse" spreadMethod="reflect" id="fill56"><stop offset="0" stop-color="#F0877E"/><stop offset="0.5" stop-color="#F5A298"/><stop offset="1" stop-color="#FABEB2"/></linearGradient><linearGradient x1="3361.59" y1="1547.07" x2="3361.4" y2="1545.93" gradientUnits="userSpaceOnUse" spreadMethod="reflect" id="fill57"><stop offset="0" stop-color="#E9FEFF"/><stop offset="0.5" stop-color="#E4E7F4"/><stop offset="1" stop-color="#E0D1EA"/></linearGradient><linearGradient x1="3414.6" y1="1497.07" x2="3414.4" y2="1495.93" gradientUnits="userSpaceOnUse" spreadMethod="reflect" id="fill58"><stop offset="0" stop-color="#F0877E"/><stop offset="0.5" stop-color="#F5A298"/><stop offset="1" stop-color="#FABEB2"/></linearGradient><linearGradient x1="3361.16" y1="1547.09" x2="3361.84" y2="1545.91" gradientUnits="userSpaceOnUse" spreadMethod="reflect" id="fill59"><stop offset="0" stop-color="#F0877E"/><stop offset="0.5" stop-color="#F5A298"/><stop offset="1" stop-color="#FABEB2"/></linearGradient><linearGradient x1="3402.16" y1="1494.09" x2="3402.84" y2="1492.91" gradientUnits="userSpaceOnUse" spreadMethod="reflect" id="fill60"><stop offset="0" stop-color="#F0877E"/><stop offset="0.5" stop-color="#F5A298"/><stop offset="1" stop-color="#FABEB2"/></linearGradient><linearGradient x1="3258.81" y1="1639.46" x2="3256.19" y2="1569.54" gradientUnits="userSpaceOnUse" spreadMethod="reflect" id="fill61"><stop offset="0" stop-color="#E9FEFF"/><stop offset="0.5" stop-color="#E4E7F4"/><stop offset="1" stop-color="#E0D1EA"/></linearGradient><linearGradient x1="3300.7" y1="1594.4" x2="3297.3" y2="1566.6" gradientUnits="userSpaceOnUse" spreadMethod="reflect" id="fill62"><stop offset="0" stop-color="#E9FEFF"/><stop offset="0.5" stop-color="#E4E7F4"/><stop offset="1" stop-color="#E0D1EA"/></linearGradient><linearGradient x1="3212.66" y1="1628.76" x2="3213.34" y2="1619.24" gradientUnits="userSpaceOnUse" spreadMethod="reflect" id="fill63"><stop offset="0" stop-color="#F0877E"/><stop offset="0.5" stop-color="#F5A298"/><stop offset="1" stop-color="#FABEB2"/></linearGradient><linearGradient x1="3272.57" y1="1446.06" x2="3264.43" y2="1493.94" gradientUnits="userSpaceOnUse" spreadMethod="reflect" id="fill64"><stop offset="0" stop-color="#F0877E"/><stop offset="0.5" stop-color="#F5A298"/><stop offset="1" stop-color="#FABEB2"/></linearGradient><linearGradient x1="3294.13" y1="1514.6" x2="3306.87" y2="1503.4" gradientUnits="userSpaceOnUse" spreadMethod="reflect" id="fill65"><stop offset="0" stop-color="#E9FEFF"/><stop offset="0.5" stop-color="#E4E7F4"/><stop offset="1" stop-color="#E0D1EA"/></linearGradient><linearGradient x1="3280.91" y1="1557.13" x2="3281.09" y2="1555.87" gradientUnits="userSpaceOnUse" spreadMethod="reflect" id="fill66"><stop offset="0" stop-color="#E9FEFF"/><stop offset="0.5" stop-color="#E4E7F4"/><stop offset="1" stop-color="#E0D1EA"/></linearGradient><linearGradient x1="3264.06" y1="1369.9" x2="3303.94" y2="1485.1" gradientUnits="userSpaceOnUse" spreadMethod="reflect" id="fill67"><stop offset="0" stop-color="#3A008B"/><stop offset="0.5" stop-color="#1D0868"/><stop offset="1" stop-color="#001145"/></linearGradient><linearGradient x1="3224.93" y1="1569.08" x2="3346.07" y2="1758.92" gradientUnits="userSpaceOnUse" spreadMethod="reflect" id="fill68"><stop offset="0" stop-color="#E9FEFF"/><stop offset="0.5" stop-color="#E4E7F4"/><stop offset="1" stop-color="#E0D1EA"/></linearGradient><linearGradient x1="3307.52" y1="1596.02" x2="3307.48" y2="1594.98" gradientUnits="userSpaceOnUse" spreadMethod="reflect" id="fill69"><stop offset="0" stop-color="#E9FEFF"/><stop offset="0.5" stop-color="#E4E7F4"/><stop offset="1" stop-color="#E0D1EA"/></linearGradient><linearGradient x1="3302.27" y1="1623.52" x2="3298.73" y2="1549.48" gradientUnits="userSpaceOnUse" spreadMethod="reflect" id="fill70"><stop offset="0" stop-color="#E9FEFF"/><stop offset="0.5" stop-color="#E4E7F4"/><stop offset="1" stop-color="#E0D1EA"/></linearGradient><linearGradient x1="3213.32" y1="1475.6" x2="3218.68" y2="1552.4" gradientUnits="userSpaceOnUse" spreadMethod="reflect" id="fill71"><stop offset="0" stop-color="#E9FEFF"/><stop offset="0.5" stop-color="#E4E7F4"/><stop offset="1" stop-color="#E0D1EA"/></linearGradient><linearGradient x1="3229.92" y1="1470.85" x2="3276.08" y2="1780.15" gradientUnits="userSpaceOnUse" spreadMethod="reflect" id="fill72"><stop offset="0" stop-color="#E9FEFF"/><stop offset="0.5" stop-color="#E4E7F4"/><stop offset="1" stop-color="#E0D1EA"/></linearGradient><linearGradient x1="3311.5" y1="1499.01" x2="3323.5" y2="1632.99" gradientUnits="userSpaceOnUse" spreadMethod="reflect" id="fill73"><stop offset="0" stop-color="#E9FEFF"/><stop offset="0.5" stop-color="#E4E7F4"/><stop offset="1" stop-color="#E0D1EA"/></linearGradient><linearGradient x1="3368.05" y1="1632.29" x2="3383.95" y2="1612.71" gradientUnits="userSpaceOnUse" spreadMethod="reflect" id="fill74"><stop offset="0" stop-color="#F0877E"/><stop offset="0.5" stop-color="#F5A298"/><stop offset="1" stop-color="#FABEB2"/></linearGradient></defs><g clip-path="url(#clip0)" transform="translate(-2725 -924)"><path d="M4141 1346.31C4141 1231.56 4048 1138.54 3933.27 1138.54 3908.06 1138.54 3883.91 1143.03 3861.55 1151.25 3768.48 1014.11 3611.31 924 3433.1 924 3254.86 924 3097.67 1014.13 3004.6 1151.31 2982.21 1143.05 2958 1138.54 2932.73 1138.54 2818.01 1138.54 2725 1231.56 2725 1346.31 2725 1399.33 2744.86 1447.7 2777.54 1484.41 2744.39 1533.03 2725 1591.79 2725 1655.08 2725 1798.16 2824.06 1918.09 2957.33 1950.01 2902.19 1953.13 2870.25 1956.83 2870.25 1960.8 2870.25 1971.96 3122.2 1981 3433 1981 3743.79 1981 3995.74 1971.96 3995.74 1960.8 3995.74 1956.83 3963.81 1953.13 3908.67 1950.01 4041.93 1918.09 4141 1798.16 4141 1655.08 4141 1591.79 4121.61 1533.03 4088.46 1484.41 4121.14 1447.7 4141 1399.33 4141 1346.31Z" fill="url(#fill1)" fill-rule="evenodd"/><path d="M3858.79 1808.3C3862.07 1796.32 3864.24 1784.05 3870.56 1773.42 3885.51 1748.25 3910.78 1731.87 3938.53 1723.78 4013.89 1701.81 4020.93 1645.6 4030.97 1673.7 4041.02 1701.81 4019.92 1732.16 4038.01 1754.12 4056.09 1776.08 4041.71 1817.23 4012.73 1826.27 3983.75 1835.3 3879.99 1904.04 3879.99 1959 3879.99 1959 3801.95 1959 3801.89 1959 3797.89 1959 3797.89 1928.94 3798.05 1926.7 3799.5 1906.76 3807.29 1889.22 3819.21 1873.33 3830.5 1858.29 3842.81 1843.73 3851.74 1827.09 3854.95 1821.1 3857.03 1814.74 3858.79 1808.3Z" fill="#62D8F4" fill-rule="evenodd"/><path d="M3915.11 1844C3914.43 1830.73 3916.9 1817.15 3922.39 1804.76 3925.12 1798.57 3928.6 1792.68 3932.65 1787.23L3933.41 1786.2C3933.66 1785.86 3933.91 1785.52 3934.19 1785.19L3935.81 1783.22C3936.86 1781.89 3938.03 1780.65 3939.16 1779.38 3940.28 1778.09 3941.52 1776.93 3942.71 1775.72 3943.9 1774.5 3945.16 1773.35 3946.43 1772.21 3956.64 1763.15 3968.26 1756.4 3978.33 1748L3980.25 1746.4 3982.19 1744.8 3986.09 1741.66C3988.68 1739.58 3991.25 1737.49 3993.71 1735.3 3996.18 1733.12 3998.51 1730.8 4000.63 1728.28 4001.18 1727.67 4001.65 1727 4002.17 1726.36 4002.67 1725.71 4003.1 1725.01 4003.58 1724.33 4004.04 1723.65 4004.44 1722.93 4004.87 1722.22 4005.26 1721.49 4005.62 1720.74 4006 1720 4005.74 1720.79 4005.5 1721.59 4005.2 1722.37 4004.87 1723.13 4004.57 1723.92 4004.2 1724.68 4003.81 1725.42 4003.44 1726.18 4003.01 1726.9 4002.57 1727.61 4002.16 1728.36 4001.68 1729.05 3999.81 1731.87 3997.61 1734.45 3995.32 1736.92 3993.01 1739.38 3990.57 1741.7 3988.12 1743.97L3984.43 1747.34 3980.77 1750.73C3975.8 1755.34 3970.4 1759.4 3965.07 1763.4 3962.41 1765.4 3959.74 1767.37 3957.14 1769.41 3954.53 1771.43 3951.99 1773.49 3949.56 1775.67 3944.71 1780.01 3940.2 1784.76 3936.19 1789.88 3932.18 1794.99 3928.66 1800.49 3925.72 1806.3 3922.77 1812.11 3920.43 1818.23 3918.67 1824.55 3916.88 1830.87 3915.79 1837.39 3915.11 1844Z" fill="#FFFFFF" fill-rule="evenodd"/><path d="M3006.21 1808.3C3002.93 1796.32 3000.76 1784.05 2994.44 1773.42 2979.49 1748.25 2954.22 1731.87 2926.47 1723.78 2851.11 1701.81 2844.08 1645.6 2834.03 1673.7 2823.98 1701.81 2845.08 1732.16 2826.99 1754.12 2808.91 1776.08 2823.29 1817.23 2852.27 1826.27 2881.25 1835.3 2985.01 1904.04 2985.01 1959 2985.01 1959 3063.05 1959 3063.11 1959 3067.11 1959 3067.11 1928.94 3066.95 1926.7 3065.5 1906.76 3057.71 1889.22 3045.79 1873.33 3034.5 1858.29 3022.19 1843.73 3013.26 1827.09 3010.05 1821.1 3007.97 1814.74 3006.21 1808.3Z" fill="#62D8F4" fill-rule="evenodd"/><path d="M2949.89 1844C2950.56 1830.73 2948.12 1817.15 2942.69 1804.76 2939.99 1798.57 2936.55 1792.68 2932.54 1787.23L2931.79 1786.2C2931.55 1785.86 2931.29 1785.52 2931.02 1785.19L2929.42 1783.22C2928.38 1781.89 2927.23 1780.65 2926.1 1779.38 2925 1778.09 2923.77 1776.93 2922.59 1775.72 2921.42 1774.5 2920.17 1773.35 2918.92 1772.21 2908.82 1763.15 2897.32 1756.4 2887.37 1748L2885.47 1746.4 2883.54 1744.8 2879.69 1741.66C2877.12 1739.58 2874.59 1737.49 2872.16 1735.3 2869.71 1733.12 2867.4 1730.8 2865.31 1728.28 2864.77 1727.67 2864.3 1727 2863.79 1726.36 2863.29 1725.71 2862.86 1725.01 2862.39 1724.33 2861.94 1723.65 2861.55 1722.93 2861.12 1722.22 2860.73 1721.49 2860.38 1720.74 2860 1720 2860.26 1720.79 2860.5 1721.59 2860.79 1722.37 2861.12 1723.13 2861.42 1723.92 2861.78 1724.68 2862.17 1725.42 2862.53 1726.18 2862.96 1726.9 2863.4 1727.61 2863.8 1728.36 2864.28 1729.05 2866.12 1731.87 2868.29 1734.45 2870.56 1736.92 2872.84 1739.38 2875.26 1741.7 2877.69 1743.97L2881.33 1747.34 2884.95 1750.73C2889.87 1755.34 2895.21 1759.4 2900.48 1763.4 2903.12 1765.4 2905.75 1767.37 2908.32 1769.41 2910.9 1771.43 2913.42 1773.49 2915.82 1775.67 2920.62 1780.01 2925.08 1784.76 2929.04 1789.88 2933.01 1794.99 2936.49 1800.49 2939.4 1806.3 2942.31 1812.11 2944.64 1818.23 2946.37 1824.55 2948.14 1830.87 2949.22 1837.39 2949.89 1844Z" fill="#FFFFFF" fill-rule="evenodd"/><path d="M4136.44 1857.18C4125.59 1891.22 4096.04 1910.16 4062.39 1917.62 3966.7 1938.83 3921.9 1952.22 3907.02 1957.01 3902.93 1958.33 3898.67 1959 3894.37 1959L3817 1959 3845.16 1872.2C3845.16 1872.2 3882.7 1786.41 3971.21 1803.12 4059.7 1819.84 4093.22 1754.86 4114.68 1736.35 4119.22 1732.42 4136.53 1715.78 4139.24 1729.04 4139.82 1731.87 4139.13 1734.79 4138.55 1737.63 4130.43 1777.49 4149.13 1817.37 4136.44 1857.18Z" fill="#D45FFF" fill-rule="evenodd"/><path d="M4103 1804C4102.62 1805.42 4102.26 1806.85 4101.84 1808.26L4101.16 1810.37C4100.92 1811.07 4100.72 1811.78 4100.44 1812.47L4099.63 1814.54 4099.23 1815.58 4098.77 1816.59C4098.15 1817.94 4097.56 1819.3 4096.84 1820.61 4094.11 1825.91 4090.64 1830.85 4086.62 1835.32 4082.58 1839.78 4077.93 1843.68 4072.97 1847.08 4068 1850.48 4062.7 1853.38 4057.24 1855.86 4055.87 1856.46 4054.51 1857.07 4053.12 1857.66L4048.95 1859.31C4046.14 1860.33 4043.32 1861.32 4040.46 1862.19 4039.75 1862.42 4039.04 1862.65 4038.32 1862.86L4036.18 1863.48C4034.74 1863.89 4033.31 1864.31 4031.86 1864.66L4027.54 1865.75 4023.19 1866.73C4011.57 1869.26 3999.82 1870.93 3988.06 1872.12 3985.11 1872.39 3982.17 1872.69 3979.23 1872.9L3974.81 1873.25C3973.34 1873.35 3971.87 1873.44 3970.4 1873.53 3968.93 1873.62 3967.43 1873.7 3966 1873.8L3961.7 1874.13 3959.54 1874.28C3958.83 1874.34 3958.12 1874.45 3957.4 1874.53L3953.13 1875.03 3952.06 1875.15 3951 1875.33 3946.76 1876.03 3945.7 1876.2C3945.34 1876.26 3944.99 1876.35 3944.64 1876.42L3940.45 1877.32 3939.39 1877.54 3938.36 1877.81 3936.29 1878.36C3933.5 1879.03 3930.81 1879.99 3928.09 1880.84L3924.08 1882.35 3923.08 1882.72 3922.1 1883.15 3920.14 1884.01C3919.49 1884.31 3918.84 1884.58 3918.19 1884.88L3916.28 1885.84 3914.37 1886.81 3913.89 1887.04 3913.43 1887.31 3912.5 1887.84C3910.01 1889.22 3907.62 1890.77 3905.27 1892.4 3900.61 1895.68 3896.29 1899.48 3892.43 1903.73 3891.96 1904.27 3891.45 1904.78 3891 1905.33L3889.63 1906.99 3888.94 1907.83 3888.29 1908.69 3887 1910.42C3885.36 1912.79 3883.79 1915.23 3882.39 1917.77 3881 1920.31 3879.74 1922.93 3878.66 1925.64 3877.57 1928.35 3876.64 1931.13 3876 1934 3876.55 1928.13 3878.34 1922.39 3880.66 1916.92 3881.82 1914.17 3883.25 1911.55 3884.75 1908.95L3885.94 1907.06 3886.54 1906.1 3887.17 1905.18 3888.46 1903.33C3888.9 1902.72 3889.37 1902.14 3889.83 1901.54 3893.52 1896.8 3897.81 1892.5 3902.53 1888.75 3907.25 1884.98 3912.41 1881.77 3917.81 1879.07L3919.84 1878.07 3920.86 1877.58 3921.89 1877.13 3926.06 1875.36C3928.89 1874.35 3931.72 1873.26 3934.61 1872.46L3936.77 1871.81 3937.86 1871.49 3938.95 1871.22 3943.34 1870.16C3943.7 1870.08 3944.07 1869.98 3944.43 1869.91L3945.54 1869.7 3947.75 1869.28 3949.96 1868.86 3951.07 1868.65 3952.18 1868.49 3956.63 1867.88C3957.38 1867.78 3958.12 1867.66 3958.86 1867.59L3961.1 1867.39 3965.56 1867C3967.05 1866.86 3968.48 1866.77 3969.94 1866.66L3974.31 1866.35 3978.66 1865.99C3981.57 1865.77 3984.47 1865.45 3987.36 1865.18 3990.26 1864.89 3993.15 1864.57 3996.04 1864.24 3998.92 1863.87 4001.82 1863.54 4004.69 1863.1 4010.45 1862.34 4016.16 1861.34 4021.85 1860.25L4026.1 1859.39 4030.34 1858.43C4031.75 1858.13 4033.14 1857.74 4034.54 1857.4L4036.64 1856.87C4037.34 1856.69 4038.03 1856.48 4038.73 1856.29 4044.28 1854.75 4049.77 1852.98 4055.09 1850.82 4065.72 1846.54 4075.83 1840.81 4084.18 1832.92 4088.36 1828.99 4092.03 1824.51 4095.18 1819.64 4096.78 1817.22 4098.17 1814.66 4099.48 1812.05 4099.83 1811.41 4100.11 1810.73 4100.42 1810.07L4101.34 1808.08C4101.64 1807.41 4101.89 1806.72 4102.17 1806.04L4103 1804Z" fill="#D45FFF" fill-rule="evenodd"/><path d="M4103 1804C4102.62 1805.42 4102.26 1806.85 4101.84 1808.26L4101.16 1810.37C4100.92 1811.07 4100.72 1811.78 4100.44 1812.47L4099.63 1814.54 4099.23 1815.58 4098.77 1816.59C4098.15 1817.94 4097.56 1819.3 4096.84 1820.61 4094.11 1825.91 4090.64 1830.85 4086.62 1835.32 4082.58 1839.78 4077.93 1843.68 4072.97 1847.08 4068 1850.48 4062.7 1853.38 4057.24 1855.86 4055.87 1856.46 4054.51 1857.07 4053.12 1857.66L4048.95 1859.31C4046.14 1860.33 4043.32 1861.32 4040.46 1862.19 4039.75 1862.42 4039.04 1862.65 4038.32 1862.86L4036.18 1863.48C4034.74 1863.89 4033.31 1864.31 4031.86 1864.66L4027.54 1865.75 4023.19 1866.73C4011.57 1869.26 3999.82 1870.93 3988.06 1872.12 3985.11 1872.39 3982.17 1872.69 3979.23 1872.9L3974.81 1873.25C3973.34 1873.35 3971.87 1873.44 3970.4 1873.53 3968.93 1873.62 3967.43 1873.7 3966 1873.8L3961.7 1874.13 3959.54 1874.28C3958.83 1874.34 3958.12 1874.45 3957.4 1874.53L3953.13 1875.03 3952.06 1875.15 3951 1875.33 3946.76 1876.03 3945.7 1876.2C3945.34 1876.26 3944.99 1876.35 3944.64 1876.42L3940.45 1877.32 3939.39 1877.54 3938.36 1877.81 3936.29 1878.36C3933.5 1879.03 3930.81 1879.99 3928.09 1880.84L3924.08 1882.35 3923.08 1882.72 3922.1 1883.15 3920.14 1884.01C3919.49 1884.31 3918.84 1884.58 3918.19 1884.88L3916.28 1885.84 3914.37 1886.81 3913.89 1887.04 3913.43 1887.31 3912.5 1887.84C3910.01 1889.22 3907.62 1890.77 3905.27 1892.4 3900.61 1895.68 3896.29 1899.48 3892.43 1903.73 3891.96 1904.27 3891.45 1904.78 3891 1905.33L3889.63 1906.99 3888.94 1907.83 3888.29 1908.69 3887 1910.42C3885.36 1912.79 3883.79 1915.23 3882.39 1917.77 3881 1920.31 3879.74 1922.93 3878.66 1925.64 3877.57 1928.35 3876.64 1931.13 3876 1934 3876.55 1928.13 3878.34 1922.39 3880.66 1916.92 3881.82 1914.17 3883.25 1911.55 3884.75 1908.95L3885.94 1907.06 3886.54 1906.1 3887.17 1905.18 3888.46 1903.33C3888.9 1902.72 3889.37 1902.14 3889.83 1901.54 3893.52 1896.8 3897.81 1892.5 3902.53 1888.75 3907.25 1884.98 3912.41 1881.77 3917.81 1879.07L3919.84 1878.07 3920.86 1877.58 3921.89 1877.13 3926.06 1875.36C3928.89 1874.35 3931.72 1873.26 3934.61 1872.46L3936.77 1871.81 3937.86 1871.49 3938.95 1871.22 3943.34 1870.16C3943.7 1870.08 3944.07 1869.98 3944.43 1869.91L3945.54 1869.7 3947.75 1869.28 3949.96 1868.86 3951.07 1868.65 3952.18 1868.49 3956.63 1867.88C3957.38 1867.78 3958.12 1867.66 3958.86 1867.59L3961.1 1867.39 3965.56 1867C3967.05 1866.86 3968.48 1866.77 3969.94 1866.66L3974.31 1866.35 3978.66 1865.99C3981.57 1865.77 3984.47 1865.45 3987.36 1865.18 3990.26 1864.89 3993.15 1864.57 3996.04 1864.24 3998.92 1863.87 4001.82 1863.54 4004.69 1863.1 4010.45 1862.34 4016.16 1861.34 4021.85 1860.25L4026.1 1859.39 4030.34 1858.43C4031.75 1858.13 4033.14 1857.74 4034.54 1857.4L4036.64 1856.87C4037.34 1856.69 4038.03 1856.48 4038.73 1856.29 4044.28 1854.75 4049.77 1852.98 4055.09 1850.82 4065.72 1846.54 4075.83 1840.81 4084.18 1832.92 4088.36 1828.99 4092.03 1824.51 4095.18 1819.64 4096.78 1817.22 4098.17 1814.66 4099.48 1812.05 4099.83 1811.41 4100.11 1810.73 4100.42 1810.07L4101.34 1808.08C4101.64 1807.41 4101.89 1806.72 4102.17 1806.04L4103 1804Z" fill="#FFFFFF" fill-rule="evenodd" fill-opacity="0.8"/><path d="M2729.55 1857.18C2740.36 1891.22 2769.83 1910.16 2803.37 1917.62 2898.76 1938.83 2943.42 1952.22 2958.26 1957.01 2962.34 1958.33 2966.59 1959 2970.87 1959L3048 1959 3019.93 1872.2C3019.93 1872.2 2982.5 1786.41 2894.27 1803.12 2806.05 1819.84 2772.63 1754.86 2751.24 1736.35 2746.71 1732.42 2729.46 1715.78 2726.76 1729.04 2726.18 1731.87 2726.86 1734.79 2727.44 1737.63 2735.54 1777.49 2716.89 1817.37 2729.55 1857.18Z" fill="#D45FFF" fill-rule="evenodd"/><path d="M2762 1804C2762.38 1805.42 2762.74 1806.85 2763.16 1808.26L2763.84 1810.37C2764.08 1811.07 2764.28 1811.78 2764.56 1812.47L2765.37 1814.54 2765.77 1815.58 2766.23 1816.59C2766.85 1817.94 2767.44 1819.3 2768.16 1820.61 2770.89 1825.91 2774.36 1830.85 2778.38 1835.32 2782.42 1839.78 2787.07 1843.68 2792.03 1847.08 2797 1850.48 2802.3 1853.38 2807.76 1855.86 2809.13 1856.46 2810.5 1857.07 2811.88 1857.66L2816.05 1859.31C2818.86 1860.33 2821.68 1861.32 2824.53 1862.19 2825.25 1862.42 2825.96 1862.65 2826.67 1862.86L2828.82 1863.48C2830.25 1863.89 2831.69 1864.31 2833.13 1864.66L2837.46 1865.75 2841.81 1866.73C2853.43 1869.26 2865.18 1870.93 2876.94 1872.12 2879.89 1872.39 2882.83 1872.69 2885.77 1872.9L2890.19 1873.25C2891.66 1873.35 2893.13 1873.44 2894.6 1873.53 2896.07 1873.62 2897.57 1873.7 2899 1873.8L2903.31 1874.13 2905.46 1874.28C2906.17 1874.34 2906.88 1874.45 2907.6 1874.53L2911.88 1875.03 2912.94 1875.15 2914 1875.33 2918.24 1876.03 2919.3 1876.2C2919.66 1876.26 2920.01 1876.35 2920.36 1876.42L2924.55 1877.32 2925.61 1877.54 2926.64 1877.81 2928.71 1878.36C2931.5 1879.03 2934.19 1879.99 2936.92 1880.84L2940.92 1882.35 2941.92 1882.72 2942.9 1883.15 2944.86 1884.01C2945.51 1884.31 2946.17 1884.58 2946.81 1884.88L2948.72 1885.84 2950.63 1886.81 2951.11 1887.04 2951.57 1887.31 2952.5 1887.84C2954.99 1889.22 2957.38 1890.77 2959.73 1892.4 2964.39 1895.68 2968.71 1899.48 2972.57 1903.73 2973.04 1904.27 2973.55 1904.78 2974 1905.33L2975.37 1906.99 2976.06 1907.83 2976.71 1908.69 2978 1910.42C2979.64 1912.79 2981.21 1915.23 2982.61 1917.77 2984 1920.31 2985.26 1922.93 2986.34 1925.64 2987.43 1928.35 2988.36 1931.13 2989 1934 2988.45 1928.13 2986.67 1922.39 2984.34 1916.92 2983.18 1914.17 2981.75 1911.55 2980.25 1908.95L2979.06 1907.06 2978.46 1906.1 2977.83 1905.18 2976.54 1903.33C2976.1 1902.72 2975.63 1902.14 2975.17 1901.54 2971.48 1896.8 2967.19 1892.5 2962.47 1888.75 2957.75 1884.98 2952.59 1881.77 2947.19 1879.07L2945.16 1878.07 2944.14 1877.58 2943.11 1877.13 2938.94 1875.36C2936.11 1874.35 2933.29 1873.26 2930.39 1872.46L2928.23 1871.81 2927.14 1871.49 2926.05 1871.22 2921.66 1870.16C2921.3 1870.08 2920.93 1869.98 2920.57 1869.91L2919.46 1869.7 2917.25 1869.28 2915.04 1868.86 2913.93 1868.65 2912.82 1868.49 2908.37 1867.88C2907.62 1867.78 2906.88 1867.66 2906.14 1867.59L2903.9 1867.39 2899.44 1867C2897.95 1866.86 2896.52 1866.77 2895.06 1866.66L2890.69 1866.35 2886.34 1865.99C2883.43 1865.77 2880.53 1865.45 2877.64 1865.18 2874.74 1864.89 2871.85 1864.57 2868.96 1864.24 2866.08 1863.87 2863.18 1863.54 2860.31 1863.1 2854.55 1862.34 2848.84 1861.34 2843.15 1860.25L2838.9 1859.39 2834.66 1858.43C2833.25 1858.13 2831.86 1857.74 2830.46 1857.4L2828.36 1856.87C2827.66 1856.69 2826.97 1856.48 2826.27 1856.29 2820.72 1854.75 2815.23 1852.98 2809.91 1850.82 2799.28 1846.54 2789.17 1840.81 2780.82 1832.92 2776.64 1828.99 2772.97 1824.51 2769.83 1819.64 2768.23 1817.22 2766.84 1814.66 2765.52 1812.05 2765.17 1811.41 2764.89 1810.73 2764.58 1810.07L2763.66 1808.08C2763.36 1807.41 2763.11 1806.72 2762.83 1806.04L2762 1804Z" fill="#D45FFF" fill-rule="evenodd"/><path d="M2762 1804C2762.38 1805.42 2762.74 1806.85 2763.16 1808.26L2763.84 1810.37C2764.08 1811.07 2764.28 1811.78 2764.56 1812.47L2765.37 1814.54 2765.77 1815.58 2766.23 1816.59C2766.85 1817.94 2767.44 1819.3 2768.16 1820.61 2770.89 1825.91 2774.36 1830.85 2778.38 1835.32 2782.42 1839.78 2787.07 1843.68 2792.03 1847.08 2797 1850.48 2802.3 1853.38 2807.76 1855.86 2809.13 1856.46 2810.5 1857.07 2811.88 1857.66L2816.05 1859.31C2818.86 1860.33 2821.68 1861.32 2824.53 1862.19 2825.25 1862.42 2825.96 1862.65 2826.67 1862.86L2828.82 1863.48C2830.25 1863.89 2831.69 1864.31 2833.13 1864.66L2837.46 1865.75 2841.81 1866.73C2853.43 1869.26 2865.18 1870.93 2876.94 1872.12 2879.89 1872.39 2882.83 1872.69 2885.77 1872.9L2890.19 1873.25C2891.66 1873.35 2893.13 1873.44 2894.6 1873.53 2896.07 1873.62 2897.57 1873.7 2899 1873.8L2903.31 1874.13 2905.46 1874.28C2906.17 1874.34 2906.88 1874.45 2907.6 1874.53L2911.88 1875.03 2912.94 1875.15 2914 1875.33 2918.24 1876.03 2919.3 1876.2C2919.66 1876.26 2920.01 1876.35 2920.36 1876.42L2924.55 1877.32 2925.61 1877.54 2926.64 1877.81 2928.71 1878.36C2931.5 1879.03 2934.19 1879.99 2936.92 1880.84L2940.92 1882.35 2941.92 1882.72 2942.9 1883.15 2944.86 1884.01C2945.51 1884.31 2946.17 1884.58 2946.81 1884.88L2948.72 1885.84 2950.63 1886.81 2951.11 1887.04 2951.57 1887.31 2952.5 1887.84C2954.99 1889.22 2957.38 1890.77 2959.73 1892.4 2964.39 1895.68 2968.71 1899.48 2972.57 1903.73 2973.04 1904.27 2973.55 1904.78 2974 1905.33L2975.37 1906.99 2976.06 1907.83 2976.71 1908.69 2978 1910.42C2979.64 1912.79 2981.21 1915.23 2982.61 1917.77 2984 1920.31 2985.26 1922.93 2986.34 1925.64 2987.43 1928.35 2988.36 1931.13 2989 1934 2988.45 1928.13 2986.67 1922.39 2984.34 1916.92 2983.18 1914.17 2981.75 1911.55 2980.25 1908.95L2979.06 1907.06 2978.46 1906.1 2977.83 1905.18 2976.54 1903.33C2976.1 1902.72 2975.63 1902.14 2975.17 1901.54 2971.48 1896.8 2967.19 1892.5 2962.47 1888.75 2957.75 1884.98 2952.59 1881.77 2947.19 1879.07L2945.16 1878.07 2944.14 1877.58 2943.11 1877.13 2938.94 1875.36C2936.11 1874.35 2933.29 1873.26 2930.39 1872.46L2928.23 1871.81 2927.14 1871.49 2926.05 1871.22 2921.66 1870.16C2921.3 1870.08 2920.93 1869.98 2920.57 1869.91L2919.46 1869.7 2917.25 1869.28 2915.04 1868.86 2913.93 1868.65 2912.82 1868.49 2908.37 1867.88C2907.62 1867.78 2906.88 1867.66 2906.14 1867.59L2903.9 1867.39 2899.44 1867C2897.95 1866.86 2896.52 1866.77 2895.06 1866.66L2890.69 1866.35 2886.34 1865.99C2883.43 1865.77 2880.53 1865.45 2877.64 1865.18 2874.74 1864.89 2871.85 1864.57 2868.96 1864.24 2866.08 1863.87 2863.18 1863.54 2860.31 1863.1 2854.55 1862.34 2848.84 1861.34 2843.15 1860.25L2838.9 1859.39 2834.66 1858.43C2833.25 1858.13 2831.86 1857.74 2830.46 1857.4L2828.36 1856.87C2827.66 1856.69 2826.97 1856.48 2826.27 1856.29 2820.72 1854.75 2815.23 1852.98 2809.91 1850.82 2799.28 1846.54 2789.17 1840.81 2780.82 1832.92 2776.64 1828.99 2772.97 1824.51 2769.83 1819.64 2768.23 1817.22 2766.84 1814.66 2765.52 1812.05 2765.17 1811.41 2764.89 1810.73 2764.58 1810.07L2763.66 1808.08C2763.36 1807.41 2763.11 1806.72 2762.83 1806.04L2762 1804Z" fill="#FFFFFF" fill-rule="evenodd" fill-opacity="0.8"/><path d="M3960.84 1678 3680.16 1678C3657.43 1678 3639 1659.64 3639 1637L3639 1637C3639 1614.36 3657.43 1596 3680.16 1596L3960.84 1596C3983.57 1596 4002 1614.36 4002 1637L4002 1637C4002 1659.64 3983.57 1678 3960.84 1678Z" fill="#E7D2FC" fill-rule="evenodd"/><path d="M3939.44 1648 3702.56 1648C3696.73 1648 3692 1643.07 3692 1637L3692 1637C3692 1630.92 3696.73 1626 3702.56 1626L3939.44 1626C3945.27 1626 3950 1630.93 3950 1637L3950 1637C3950 1643.08 3945.27 1648 3939.44 1648Z" fill="#FFFFFF" fill-rule="evenodd" fill-opacity="0.8"/><path d="M3169.76 1494 2902.24 1494C2880.57 1494 2863 1476.54 2863 1455L2863 1455C2863 1433.46 2880.57 1416 2902.24 1416L3169.76 1416C3191.43 1416 3209 1433.46 3209 1455L3209 1455C3209 1476.54 3191.43 1494 3169.76 1494Z" fill="#E7D2FC" fill-rule="evenodd"/><path d="M3149.89 1465 2923.11 1465C2917.53 1465 2913 1460.52 2913 1455L2913 1455C2913 1449.48 2917.53 1445 2923.11 1445L3149.89 1445C3155.47 1445 3160 1449.48 3160 1455L3160 1455C3160 1460.52 3155.47 1465 3149.89 1465Z" fill="#FFFFFF" fill-rule="evenodd" fill-opacity="0.8"/><path d="M3648.29 1144 3520.71 1144C3510.38 1144 3502 1135.72 3502 1125.5L3502 1125.5C3502 1115.28 3510.38 1107 3520.71 1107L3648.29 1107C3658.62 1107 3667 1115.28 3667 1125.5L3667 1125.5C3667 1135.72 3658.62 1144 3648.29 1144Z" fill="#E7D2FC" fill-rule="evenodd"/><path d="M3639.17 1130 3530.83 1130C3528.16 1130 3526 1127.99 3526 1125.5L3526 1125.5C3526 1123.02 3528.16 1121 3530.83 1121L3639.17 1121C3641.84 1121 3644 1123.01 3644 1125.5L3644 1125.5C3644 1127.99 3641.84 1130 3639.17 1130Z" fill="#FFFFFF" fill-rule="evenodd" fill-opacity="0.8"/><path d="M3658.09 1258.27 3565.62 1258.27 3565.62 1227.76C3565.62 1220.71 3559.91 1215 3552.86 1215L3292.14 1215C3285.09 1215 3279.38 1220.71 3279.38 1227.76L3279.38 1258.27 3186.91 1258.27C3167.63 1258.27 3152 1273.89 3152 1293.17L3152 1819.11C3152 1838.38 3167.63 1854 3186.91 1854L3658.09 1854C3677.37 1854 3693 1838.38 3693 1819.11L3693 1293.17C3693 1273.89 3677.37 1258.27 3658.09 1258.27Z" fill="url(#fill2)" fill-rule="evenodd"/><path d="M3676.67 1239 3206.73 1240.27C3187.49 1240.32 3171.95 1255.93 3172 1275.14L3173.42 1799.32C3173.47 1818.53 3189.1 1834.05 3208.33 1834L3678.27 1832.73C3697.51 1832.68 3713.05 1817.07 3713 1797.86L3711.58 1273.68C3711.53 1254.47 3695.9 1238.95 3676.67 1239ZM3689.92 1792.45C3689.94 1802.06 3682.17 1809.87 3672.56 1809.89L3213.93 1811.13C3204.31 1811.16 3196.5 1803.39 3196.47 1793.78L3195.08 1280.55C3195.06 1270.95 3202.83 1263.14 3212.44 1263.12L3671.07 1261.88C3680.69 1261.85 3688.5 1269.62 3688.53 1279.22L3689.92 1792.45Z" fill="url(#fill3)" fill-rule="evenodd"/><path d="M3688.61 1279.34C3688.59 1269.74 3680.77 1261.97 3671.15 1262L3212.37 1263.24C3202.75 1263.26 3194.97 1271.07 3195 1280.67L3195.41 1431.87 3195.98 1642.47 3196.39 1793.66C3196.42 1803.26 3204.23 1811.03 3213.85 1811L3672.63 1809.76C3682.25 1809.74 3690.03 1801.93 3690 1792.33L3689.59 1641.14 3689.02 1430.54 3688.61 1279.34Z" fill="url(#fill4)" fill-rule="evenodd"/><path d="M3571.04 1196 3311.67 1196.7C3304.65 1196.72 3298.98 1202.4 3299 1209.4L3299.22 1292.37C3299.24 1299.36 3304.95 1305.02 3311.96 1305L3571.33 1304.3C3578.35 1304.28 3584.02 1298.59 3584 1291.6L3583.78 1208.63C3583.76 1201.64 3578.06 1195.98 3571.04 1196Z" fill="url(#fill5)" fill-rule="evenodd"/><path d="M3442.44 1475.36 3438.75 1475.36 3438.75 1482 3432 1482 3432 1457 3442.92 1457C3445.08 1457 3446.95 1457.37 3448.54 1458.12 3450.14 1458.87 3451.36 1459.95 3452.23 1461.34 3453.09 1462.73 3453.52 1464.37 3453.52 1466.25 3453.52 1468.06 3453.12 1469.64 3452.31 1470.98 3451.5 1472.33 3450.35 1473.38 3448.85 1474.14L3454 1482 3446.77 1482 3442.44 1475.36ZM3445.64 1463.54C3444.94 1462.89 3443.89 1462.57 3442.51 1462.57L3438.75 1462.57 3438.75 1469.89 3442.51 1469.89C3443.89 1469.89 3444.94 1469.58 3445.64 1468.95 3446.35 1468.31 3446.7 1467.42 3446.7 1466.25 3446.7 1465.08 3446.35 1464.18 3445.64 1463.54Z" fill="url(#fill6)" fill-rule="evenodd"/><path d="M3477 1476.54 3477 1482 3457 1482 3457 1457 3476.54 1457 3476.54 1462.46 3463.97 1462.46 3463.97 1466.68 3475.04 1466.68 3475.04 1471.96 3463.97 1471.96 3463.97 1476.53 3477 1476.53Z" fill="url(#fill7)" fill-rule="evenodd"/><path d="M3483.51 1481.28C3481.66 1480.8 3480.16 1480.16 3479 1479.36L3481.26 1474.34C3482.34 1475.05 3483.61 1475.62 3485.04 1476.06 3486.48 1476.49 3487.89 1476.71 3489.27 1476.71 3491.91 1476.71 3493.23 1476.06 3493.23 1474.75 3493.23 1474.07 3492.86 1473.56 3492.1 1473.23 3491.35 1472.89 3490.14 1472.54 3488.48 1472.18 3486.65 1471.79 3485.12 1471.37 3483.89 1470.93 3482.67 1470.48 3481.62 1469.76 3480.74 1468.78 3479.86 1467.8 3479.42 1466.47 3479.42 1464.8 3479.42 1463.33 3479.82 1462.01 3480.63 1460.83 3481.44 1459.65 3482.65 1458.72 3484.26 1458.03 3485.87 1457.34 3487.84 1457 3490.18 1457 3491.77 1457 3493.35 1457.18 3494.9 1457.53 3496.45 1457.89 3497.81 1458.41 3498.99 1459.1L3496.88 1464.14C3494.56 1462.91 3492.32 1462.29 3490.14 1462.29 3488.78 1462.29 3487.78 1462.49 3487.16 1462.89 3486.53 1463.29 3486.22 1463.81 3486.22 1464.45 3486.22 1465.09 3486.59 1465.58 3487.33 1465.89 3488.07 1466.21 3489.26 1466.55 3490.91 1466.89 3492.76 1467.28 3494.29 1467.7 3495.51 1468.14 3496.72 1468.59 3497.77 1469.3 3498.66 1470.27 3499.55 1471.25 3500 1472.57 3500 1474.24 3500 1475.68 3499.6 1476.99 3498.78 1478.15 3497.97 1479.32 3496.76 1480.26 3495.14 1480.95 3493.52 1481.65 3491.55 1482 3489.24 1482 3487.27 1482 3485.36 1481.76 3483.51 1481.28Z" fill="url(#fill8)" fill-rule="evenodd"/><path d="M3410.04 1412.9 3410.04 1412.9C3412.98 1413.29 3414.91 1413.15 3415.16 1412.4L3416.97 1406.84C3416.95 1406.89 3416.9 1406.92 3416.87 1406.97 3416.9 1406.92 3416.96 1406.88 3416.97 1406.83 3417.48 1405.29 3410.83 1401.79 3402.12 1398.99 3393.41 1396.2 3385.95 1395.18 3385.45 1396.72 3385.38 1396.92 3385.44 1397.15 3385.6 1397.41 3385.67 1397.51 3385.75 1397.62 3385.85 1397.73 3385.75 1397.62 3385.67 1397.51 3385.6 1397.41 3385.44 1397.15 3385.38 1396.92 3385.45 1396.72L3383.63 1402.28C3383.39 1403.03 3384.84 1404.25 3387.41 1405.62L3387.41 1405.62 3354.05 1505.13C3351 1514.22 3355.3 1521.35 3357.84 1524.54 3358.8 1525.74 3360.39 1526.27 3361.88 1525.87 3365.84 1524.82 3373.59 1521.65 3376.63 1512.57L3410.04 1412.9ZM3394.49 1402.47C3394.31 1402.39 3394.13 1402.32 3393.95 1402.25 3394.13 1402.32 3394.31 1402.39 3394.49 1402.47ZM3393.14 1401.91C3392.99 1401.84 3392.83 1401.78 3392.69 1401.72 3392.83 1401.78 3392.99 1401.84 3393.14 1401.91ZM3398.79 1404.05C3398.6 1403.99 3398.42 1403.93 3398.24 1403.86 3398.42 1403.93 3398.6 1403.99 3398.79 1404.05ZM3397.3 1403.53C3397.1 1403.46 3396.91 1403.39 3396.72 1403.32 3396.91 1403.39 3397.1 1403.46 3397.3 1403.53ZM3395.87 1403.01C3395.67 1402.93 3395.48 1402.86 3395.29 1402.78 3395.48 1402.86 3395.68 1402.93 3395.87 1403.01ZM3400.3 1404.56C3400.36 1404.57 3400.42 1404.59 3400.48 1404.61 3400.42 1404.59 3400.36 1404.57 3400.3 1404.56 3400.23 1404.53 3400.16 1404.51 3400.09 1404.48 3400.16 1404.51 3400.23 1404.53 3400.3 1404.56ZM3406.7 1406.35C3406.6 1406.33 3406.49 1406.3 3406.39 1406.27 3406.49 1406.3 3406.6 1406.33 3406.7 1406.35ZM3405.31 1406C3405.15 1405.96 3405 1405.92 3404.84 1405.88 3405 1405.92 3405.15 1405.96 3405.31 1406ZM3403.85 1405.61C3403.68 1405.57 3403.51 1405.52 3403.34 1405.47 3403.51 1405.52 3403.68 1405.57 3403.85 1405.61ZM3402.32 1405.18C3402.15 1405.13 3401.99 1405.08 3401.82 1405.03 3401.99 1405.08 3402.15 1405.13 3402.32 1405.18ZM3416.26 1407.37C3416.26 1407.37 3416.26 1407.37 3416.26 1407.36 3416.26 1407.36 3416.26 1407.36 3416.26 1407.36 3416.26 1407.37 3416.26 1407.37 3416.26 1407.37ZM3413.23 1407.48C3413.3 1407.49 3413.36 1407.49 3413.43 1407.5 3413.36 1407.49 3413.3 1407.49 3413.23 1407.48ZM3414.4 1407.54C3414.45 1407.54 3414.5 1407.55 3414.55 1407.55 3414.5 1407.55 3414.45 1407.54 3414.4 1407.54ZM3415.41 1407.51C3415.47 1407.5 3415.53 1407.5 3415.59 1407.49 3415.53 1407.5 3415.47 1407.5 3415.41 1407.51ZM3416.73 1407.14C3416.62 1407.23 3416.47 1407.29 3416.29 1407.35 3416.47 1407.29 3416.62 1407.23 3416.73 1407.14ZM3411.99 1407.35C3411.96 1407.35 3411.94 1407.34 3411.91 1407.34 3411.84 1407.33 3411.77 1407.32 3411.7 1407.31 3411.8 1407.33 3411.9 1407.34 3411.99 1407.35ZM3409.34 1406.92C3409.45 1406.94 3409.55 1406.96 3409.66 1406.98 3409.55 1406.96 3409.45 1406.94 3409.34 1406.92ZM3410.55 1407.14C3410.67 1407.16 3410.78 1407.17 3410.9 1407.19 3410.78 1407.17 3410.67 1407.16 3410.55 1407.14ZM3385.95 1397.83C3386.02 1397.91 3386.1 1397.99 3386.19 1398.07 3386.1 1397.99 3386.02 1397.91 3385.95 1397.83ZM3387.33 1398.94C3387.73 1399.21 3388.19 1399.48 3388.69 1399.77 3388.19 1399.48 3387.73 1399.21 3387.33 1398.94ZM3386.33 1398.19C3386.43 1398.27 3386.53 1398.36 3386.64 1398.44 3386.53 1398.36 3386.42 1398.27 3386.33 1398.19ZM3386.79 1398.56C3386.92 1398.66 3387.06 1398.75 3387.21 1398.85 3387.06 1398.75 3386.92 1398.66 3386.79 1398.56ZM3388.89 1399.88C3389.07 1399.97 3389.25 1400.07 3389.43 1400.17 3389.38 1400.14 3389.32 1400.11 3389.26 1400.08 3389.13 1400.01 3389.01 1399.94 3388.89 1399.88ZM3391.53 1401.2C3391.43 1401.16 3391.34 1401.11 3391.24 1401.06 3391.34 1401.11 3391.43 1401.16 3391.53 1401.2ZM3390.44 1400.68C3390.3 1400.61 3390.16 1400.54 3390.03 1400.47 3390.17 1400.54 3390.3 1400.61 3390.44 1400.68Z" fill="url(#fill9)" fill-rule="evenodd"/><path d="M3416 1407.26 3381.27 1512.56C3378.27 1521.65 3370.64 1524.82 3366.74 1525.87 3365.27 1526.27 3363.71 1525.74 3362.77 1524.54 3360.27 1521.35 3356.04 1514.21 3359.03 1505.12L3393.7 1400C3396.36 1401.44 3400.2 1403.05 3404.57 1404.48 3408.95 1405.9 3413.01 1406.87 3416 1407.26Z" fill="url(#fill10)" fill-rule="evenodd"/><path d="M3420.97 1407.26C3420.9 1407.5 3420.66 1407.69 3420.27 1407.81 3418.18 1408.48 3411.83 1407.34 3404.61 1404.89 3397.17 1402.37 3391.27 1399.28 3390.18 1397.47 3390.02 1397.19 3389.96 1396.95 3390.03 1396.74 3390.52 1395.15 3397.84 1396.21 3406.39 1399.11 3414.94 1402.01 3421.47 1405.66 3420.97 1407.26Z" fill="url(#fill11)" fill-rule="evenodd"/><path d="M3412.99 1404.63C3412.95 1404.75 3412.82 1404.84 3412.62 1404.91 3411.54 1405.24 3408.27 1404.67 3404.54 1403.45 3400.7 1402.18 3397.65 1400.64 3397.09 1399.73 3397.01 1399.6 3396.98 1399.48 3397.01 1399.37 3397.27 1398.57 3401.05 1399.1 3405.46 1400.56 3409.87 1402.01 3413.24 1403.83 3412.99 1404.63Z" fill="url(#fill12)" fill-rule="evenodd"/><path d="M3419.21 1412.3C3418.96 1413.04 3417.05 1413.17 3414.15 1412.8 3413.01 1412.65 3411.71 1412.42 3410.31 1412.12 3408.02 1411.63 3405.43 1410.94 3402.72 1410.08 3400.01 1409.22 3397.5 1408.3 3395.34 1407.38 3394 1406.81 3392.79 1406.24 3391.76 1405.69 3389.22 1404.35 3387.78 1403.16 3388.03 1402.43L3389.82 1397C3389.76 1397.2 3389.81 1397.42 3389.98 1397.68 3390.43 1398.38 3391.72 1399.29 3393.6 1400.28 3396.26 1401.69 3400.12 1403.26 3404.51 1404.65 3408.91 1406.04 3412.99 1406.98 3415.99 1407.37 3417.96 1407.62 3419.46 1407.64 3420.29 1407.39 3420.68 1407.28 3420.92 1407.11 3421 1406.87L3419.21 1412.3Z" fill="url(#fill13)" fill-rule="evenodd"/><path d="M3404.8 1428.95C3405.03 1429.39 3405.06 1429.9 3404.91 1430.36L3378.35 1510.86C3376.6 1516.19 3372.58 1518.62 3369.7 1519.71 3367.75 1520.46 3365.53 1519.71 3364.4 1517.94 3362.74 1515.33 3360.97 1510.96 3362.73 1505.64L3388.94 1426.16C3389.33 1424.96 3390.78 1424.52 3391.76 1425.3 3391.78 1425.31 3391.79 1425.32 3391.81 1425.33 3393.32 1426.56 3396.61 1422 3397.94 1425.1 3399.27 1428.19 3400.21 1428.5 3402.43 1427.92 3403.76 1427.58 3404.45 1428.31 3404.8 1428.95Z" fill="url(#fill14)" fill-rule="evenodd"/><path d="M3368.7 1379.19 3368.7 1379.19C3372.21 1378.82 3374.4 1378.12 3374.47 1377.18L3375 1370.24C3374.99 1370.3 3374.94 1370.36 3374.91 1370.42 3374.94 1370.36 3374.99 1370.3 3375 1370.23 3375.14 1368.31 3366.45 1366.1 3355.58 1365.29 3344.71 1364.49 3335.78 1365.39 3335.64 1367.31 3335.62 1367.56 3335.75 1367.82 3336.02 1368.07 3336.12 1368.17 3336.25 1368.27 3336.39 1368.37 3336.25 1368.27 3336.12 1368.17 3336.02 1368.07 3335.75 1367.82 3335.62 1367.56 3335.64 1367.31L3335.12 1374.26C3335.05 1375.2 3337.08 1376.2 3340.44 1377.08L3340.44 1377.08 3330.09 1501.61C3329.14 1512.98 3336.14 1520.04 3339.98 1523.03 3341.43 1524.15 3343.42 1524.32 3345.04 1523.44 3349.32 1521.12 3357.39 1515.29 3358.33 1503.92L3368.7 1379.19ZM3347.74 1371.45C3347.51 1371.42 3347.28 1371.38 3347.05 1371.35 3347.28 1371.38 3347.51 1371.42 3347.74 1371.45ZM3346.01 1371.18C3345.82 1371.15 3345.63 1371.12 3345.44 1371.08 3345.62 1371.12 3345.82 1371.15 3346.01 1371.18ZM3353.16 1372.09C3352.93 1372.07 3352.7 1372.04 3352.47 1372.02 3352.7 1372.04 3352.93 1372.07 3353.16 1372.09ZM3351.29 1371.9C3351.05 1371.87 3350.8 1371.85 3350.56 1371.82 3350.8 1371.85 3351.05 1371.87 3351.29 1371.9ZM3349.49 1371.69C3349.24 1371.66 3349 1371.63 3348.76 1371.59 3349 1371.63 3349.24 1371.66 3349.49 1371.69ZM3355.06 1372.25C3355.13 1372.25 3355.21 1372.26 3355.28 1372.26 3355.21 1372.26 3355.13 1372.25 3355.06 1372.25 3354.96 1372.24 3354.87 1372.23 3354.78 1372.22 3354.88 1372.23 3354.96 1372.24 3355.06 1372.25ZM3362.97 1372.54C3362.84 1372.54 3362.72 1372.54 3362.59 1372.54 3362.72 1372.54 3362.85 1372.54 3362.97 1372.54ZM3361.26 1372.53C3361.07 1372.52 3360.88 1372.52 3360.69 1372.52 3360.88 1372.52 3361.07 1372.52 3361.26 1372.53ZM3359.46 1372.48C3359.25 1372.47 3359.04 1372.47 3358.83 1372.46 3359.04 1372.47 3359.25 1372.47 3359.46 1372.48ZM3357.57 1372.4C3357.36 1372.39 3357.16 1372.38 3356.95 1372.37 3357.16 1372.38 3357.36 1372.39 3357.57 1372.4ZM3374.32 1371.05C3374.32 1371.05 3374.32 1371.05 3374.32 1371.05 3374.32 1371.05 3374.32 1371.05 3374.32 1371.05 3374.32 1371.05 3374.32 1371.05 3374.32 1371.05ZM3370.85 1372.03C3370.93 1372.02 3371.01 1372 3371.09 1371.99 3371.01 1372 3370.93 1372.02 3370.85 1372.03ZM3372.21 1371.77C3372.27 1371.76 3372.34 1371.75 3372.4 1371.73 3372.34 1371.75 3372.27 1371.76 3372.21 1371.77ZM3373.38 1371.45C3373.45 1371.43 3373.52 1371.4 3373.58 1371.38 3373.51 1371.4 3373.45 1371.43 3373.38 1371.45ZM3374.81 1370.66C3374.7 1370.79 3374.54 1370.91 3374.35 1371.02 3374.54 1370.91 3374.7 1370.79 3374.81 1370.66ZM3369.38 1372.22C3369.34 1372.23 3369.31 1372.23 3369.28 1372.24 3369.2 1372.24 3369.11 1372.25 3369.03 1372.26 3369.15 1372.25 3369.26 1372.24 3369.38 1372.22ZM3366.19 1372.46C3366.32 1372.46 3366.44 1372.45 3366.57 1372.44 3366.44 1372.45 3366.32 1372.46 3366.19 1372.46ZM3367.65 1372.38C3367.79 1372.37 3367.93 1372.36 3368.07 1372.34 3367.93 1372.36 3367.79 1372.37 3367.65 1372.38ZM3336.53 1368.46C3336.64 1368.53 3336.76 1368.6 3336.89 1368.67 3336.76 1368.6 3336.64 1368.53 3336.53 1368.46ZM3338.46 1369.36C3338.99 1369.56 3339.59 1369.75 3340.26 1369.94 3339.59 1369.75 3338.99 1369.56 3338.46 1369.36ZM3337.08 1368.77C3337.21 1368.84 3337.36 1368.91 3337.51 1368.98 3337.35 1368.91 3337.21 1368.84 3337.08 1368.77ZM3337.72 1369.07C3337.9 1369.15 3338.09 1369.22 3338.29 1369.3 3338.09 1369.22 3337.9 1369.15 3337.72 1369.07ZM3340.52 1370.01C3340.75 1370.07 3340.99 1370.14 3341.23 1370.2 3341.16 1370.18 3341.08 1370.16 3341.01 1370.15 3340.84 1370.1 3340.68 1370.06 3340.52 1370.01ZM3343.96 1370.81C3343.83 1370.79 3343.71 1370.76 3343.58 1370.73 3343.71 1370.76 3343.83 1370.79 3343.96 1370.81ZM3342.54 1370.51C3342.36 1370.47 3342.18 1370.43 3342.01 1370.39 3342.19 1370.43 3342.36 1370.47 3342.54 1370.51Z" fill="url(#fill15)" fill-rule="evenodd"/><path d="M3374 1371.09 3363.13 1502.9C3362.2 1514.28 3354.18 1520.12 3349.93 1522.44 3348.32 1523.32 3346.35 1523.15 3344.91 1522.03 3341.1 1519.04 3334.15 1511.97 3335.09 1500.59L3345.93 1369C3349.44 1369.92 3354.38 1370.69 3359.88 1371.1 3365.39 1371.52 3370.4 1371.48 3374 1371.09Z" fill="url(#fill16)" fill-rule="evenodd"/><path d="M3380 1368.85C3379.98 1369.13 3379.74 1369.38 3379.31 1369.61 3376.99 1370.86 3369.07 1371.36 3359.73 1370.73 3350.13 1370.08 3342.19 1368.44 3340.39 1366.85 3340.12 1366.62 3339.98 1366.38 3340 1366.15 3340.15 1364.36 3349.22 1363.53 3360.27 1364.27 3371.31 1365.02 3380.14 1367.07 3380 1368.85Z" fill="url(#fill17)" fill-rule="evenodd"/><path d="M3370 1368.08C3369.99 1368.2 3369.87 1368.31 3369.66 1368.41 3368.5 1368.94 3364.53 1369.15 3359.87 1368.88 3355.06 1368.6 3351.1 1367.9 3350.19 1367.22 3350.06 1367.12 3349.99 1367.02 3350 1366.92 3350.07 1366.16 3354.61 1365.8 3360.13 1366.12 3365.66 1366.44 3370.07 1367.32 3370 1368.08Z" fill="url(#fill18)" fill-rule="evenodd"/><path d="M3379.48 1375.72C3379.41 1376.65 3377.2 1377.34 3373.68 1377.71 3372.3 1377.85 3370.72 1377.94 3368.98 1377.98 3366.15 1378.04 3362.91 1377.96 3359.48 1377.71 3356.05 1377.46 3352.83 1377.07 3350.03 1376.6 3348.28 1376.31 3346.7 1375.98 3345.34 1375.63 3341.97 1374.76 3339.93 1373.77 3340 1372.85L3340.53 1366C3340.51 1366.25 3340.64 1366.5 3340.91 1366.75 3341.64 1367.45 3343.42 1368.15 3345.92 1368.79 3349.45 1369.69 3354.44 1370.46 3360 1370.86 3365.57 1371.27 3370.63 1371.23 3374.26 1370.85 3376.65 1370.6 3378.42 1370.2 3379.32 1369.68 3379.74 1369.44 3379.98 1369.17 3380 1368.88L3379.48 1375.72Z" fill="url(#fill19)" fill-rule="evenodd"/><path d="M3366.47 1398.46C3366.86 1398.9 3367.04 1399.49 3366.99 1400.07L3358.71 1501.31C3358.16 1508.01 3354.17 1511.98 3351.13 1514.07 3349.06 1515.49 3346.27 1515.26 3344.46 1513.52 3341.8 1510.96 3338.51 1506.37 3339.06 1499.68L3347.24 1399.73C3347.36 1398.23 3348.92 1397.3 3350.28 1397.92 3350.3 1397.93 3350.32 1397.94 3350.34 1397.95 3352.44 1398.95 3355 1392.71 3357.41 1395.93 3359.83 1399.15 3361 1399.25 3363.43 1397.94 3364.88 1397.16 3365.89 1397.81 3366.47 1398.46Z" fill="url(#fill20)" fill-rule="evenodd"/><path d="M3315.76 1429.91 3308.99 1366.72C3314.78 1365.51 3318.62 1363.96 3318.48 1362.68L3317.76 1355.91C3317.56 1354.04 3308.95 1353.44 3298.52 1354.57 3288.1 1355.71 3279.81 1358.14 3280.01 1360.01L3280.74 1366.78C3280.87 1368.06 3284.96 1368.75 3290.87 1368.69L3297.64 1431.88C3272.14 1438.66 3254.6 1461.47 3257.27 1486.37 3260.24 1514.11 3287.15 1533.93 3317.38 1530.64 3347.6 1527.36 3369.7 1502.21 3366.73 1474.48 3364.07 1449.58 3342.1 1431.05 3315.76 1429.91Z" fill="url(#fill21)" fill-rule="evenodd"/><path d="M3371.73 1469.58C3374.7 1497.26 3352.6 1522.37 3322.38 1525.64 3292.15 1528.92 3265.24 1509.14 3262.27 1481.45 3259.6 1456.59 3277.14 1433.81 3302.64 1427.05L3295.87 1363.96C3298.59 1363.94 3301.69 1363.75 3304.97 1363.4 3308.25 1363.04 3311.33 1362.55 3313.99 1362L3320.75 1425.08C3347.1 1426.23 3369.07 1444.72 3371.73 1469.58Z" fill="url(#fill22)" fill-rule="evenodd"/><path d="M3323 1351.93C3323.03 1352.22 3322.85 1352.53 3322.5 1352.84 3320.56 1354.55 3313.23 1356.45 3304.36 1357.42 3295.24 1358.42 3287.49 1358.09 3285.5 1356.74 3285.2 1356.54 3285.03 1356.32 3285 1356.07 3284.8 1354.18 3293.14 1351.72 3303.64 1350.58 3314.13 1349.43 3322.8 1350.04 3323 1351.93Z" fill="url(#fill23)" fill-rule="evenodd"/><path d="M3314 1352.96C3314.01 1353.11 3313.92 1353.26 3313.74 1353.42 3312.72 1354.28 3308.86 1355.23 3304.19 1355.71 3299.39 1356.21 3295.31 1356.04 3294.26 1355.37 3294.1 1355.27 3294.02 1355.16 3294 1355.04 3293.9 1354.09 3298.29 1352.86 3303.81 1352.29 3309.33 1351.72 3313.89 1352.02 3314 1352.96Z" fill="url(#fill24)" fill-rule="evenodd"/><path d="M3323.26 1352 3324 1358.36C3324.14 1359.56 3320.24 1361.01 3314.37 1362.15 3311.67 1362.67 3308.56 1363.13 3305.23 1363.46 3301.91 1363.8 3298.76 1363.97 3296.01 1364 3290.01 1364.05 3285.87 1363.41 3285.73 1362.21L3285 1355.85C3285.03 1356.08 3285.2 1356.29 3285.5 1356.47 3287.51 1357.73 3295.31 1358.03 3304.5 1357.1 3313.43 1356.2 3320.81 1354.43 3322.76 1352.85 3323.12 1352.56 3323.29 1352.27 3323.26 1352Z" fill="url(#fill25)" fill-rule="evenodd"/><path d="M3361.78 1471.08C3364.21 1493.61 3346.13 1514.04 3321.39 1516.71 3296.65 1519.38 3274.62 1503.27 3272.19 1480.74 3272.1 1479.88 3272.03 1479.02 3272 1478.16 3272 1478.16 3272 1478.16 3272 1478.16 3272 1478.16 3272 1478.15 3272 1478.15 3272.02 1477.79 3272.59 1470.75 3278.57 1469.88 3283.96 1469.09 3285.5 1462.9 3290.03 1460.68 3291.07 1460.17 3292.26 1459.87 3293.4 1460.05 3298.38 1460.84 3300.68 1467.94 3303.11 1471.26 3304.35 1472.95 3306.16 1474.48 3308.39 1474.69 3313 1475.12 3316.53 1470.3 3321.04 1469.75 3328.19 1468.88 3332.55 1477.27 3339.44 1476.69 3341.69 1476.5 3343.45 1474.77 3344.62 1472.98 3346.07 1470.79 3347.36 1468.72 3349.18 1466.75 3351.74 1464 3354.07 1463.22 3355.96 1463.29 3358.59 1463.37 3360.74 1465.17 3361.23 1467.53 3361.47 1468.69 3361.65 1469.87 3361.78 1471.08Z" fill="url(#fill26)" fill-rule="evenodd"/><path d="M3353 1500.74C3345.62 1509.32 3334.6 1515.34 3321.83 1516.71 3296.87 1519.38 3274.64 1503.25 3272.19 1480.67 3272.1 1479.81 3272.03 1478.95 3272 1478.09 3272 1478.09 3272 1478.09 3272 1478.09L3272 1478.08C3272.02 1477.74 3272.54 1471.44 3277.65 1470 3277.03 1471.63 3276.92 1473.05 3276.91 1473.21L3276.91 1473.22C3276.91 1473.22 3276.91 1473.22 3276.91 1473.22 3276.94 1474.08 3277 1474.94 3277.1 1475.8 3279.55 1498.38 3301.78 1514.51 3326.74 1511.84 3336.93 1510.75 3346 1506.69 3353 1500.74Z" fill="url(#fill27)" fill-rule="evenodd"/><path d="M3335 1566 3628 1566 3628 1582 3335 1582Z" fill="#FFB0F8" fill-rule="evenodd"/><path d="M3257 1595 3628 1595 3628 1610 3257 1610Z" fill="#FFB0F8" fill-rule="evenodd"/><path d="M3257 1623 3628 1623 3628 1639 3257 1639Z" fill="#FFB0F8" fill-rule="evenodd"/><path d="M3257 1652 3628 1652 3628 1667 3257 1667Z" fill="#FFB0F8" fill-rule="evenodd"/><path d="M3257 1680 3628 1680 3628 1696 3257 1696Z" fill="#FFB0F8" fill-rule="evenodd"/><path d="M3257 1709 3628 1709 3628 1724 3257 1724Z" fill="#FFB0F8" fill-rule="evenodd"/><path d="M3257 1737 3559 1737 3559 1753 3257 1753Z" fill="#FFB0F8" fill-rule="evenodd"/><path d="M3489.64 1394 3464.36 1394C3460.3 1394 3457 1390.64 3457 1386.5L3457 1386.5C3457 1382.36 3460.3 1379 3464.36 1379L3489.64 1379C3493.7 1379 3497 1382.36 3497 1386.5L3497 1386.5C3497 1390.64 3493.7 1394 3489.64 1394Z" fill="#FFB0F8" fill-rule="evenodd"/><path d="M3555.64 1394 3530.36 1394C3526.3 1394 3523 1390.64 3523 1386.5L3523 1386.5C3523 1382.36 3526.3 1379 3530.36 1379L3555.64 1379C3559.7 1379 3563 1382.36 3563 1386.5L3563 1386.5C3563 1390.64 3559.7 1394 3555.64 1394Z" fill="#45D7FF" fill-rule="evenodd"/><path d="M3620.64 1394 3595.36 1394C3591.3 1394 3588 1390.64 3588 1386.5L3588 1386.5C3588 1382.36 3591.3 1379 3595.36 1379L3620.64 1379C3624.7 1379 3628 1382.36 3628 1386.5L3628 1386.5C3628 1390.64 3624.7 1394 3620.64 1394Z" fill="#FFC12E" fill-rule="evenodd"/><path d="M3301.96 1929.29C3301.96 1929.29 3301.87 1936.37 3302 1939.92 3302.06 1941.48 3285.52 1949.08 3282 1938.42L3284.24 1929.9 3297.98 1925 3301.96 1929.29Z" fill="url(#fill28)" fill-rule="evenodd"/><path d="M3334.9 1958.38C3296.79 1960.33 3279.13 1957.06 3279.13 1957.06 3278.2 1946.12 3282.63 1938.39 3282.63 1938.39 3282.43 1938.75 3284.5 1940.37 3284.77 1940.56 3285.71 1941.2 3286.76 1941.65 3287.84 1941.96 3291.79 1943.1 3295.18 1941.77 3298.97 1940.7 3306.85 1938.47 3315.76 1936.48 3323.66 1939.65 3328.55 1941.62 3332.09 1945.72 3333.74 1950.86 3333.88 1951.27 3335.4 1958.35 3334.9 1958.38Z" fill="url(#fill29)" fill-rule="evenodd"/><path d="M3225 1628.85C3225 1628.85 3221.45 1630.06 3217.92 1638 3210.62 1632.18 3197.27 1622.99 3190.32 1616.74 3178.31 1605.94 3170.81 1601.15 3161.87 1587.3 3157.27 1580.18 3162.04 1571.56 3166.64 1565.88 3178.21 1551.57 3188.93 1536.58 3200.57 1522.31 3203.47 1518.76 3206.43 1515.23 3209.48 1511.79 3210.65 1510.47 3217.78 1504.2 3217.62 1503 3217.62 1503 3218.51 1509.87 3219.2 1517.9 3219.81 1524.87 3220.26 1532.72 3219.87 1537.69 3219.26 1545.51 3211.36 1553.91 3206.86 1559.77 3201.59 1566.63 3194.77 1572.88 3189.97 1579.99 3189.15 1581.21 3188.78 1582.29 3188.74 1583.28 3188.61 1586.51 3191.98 1588.82 3194.66 1592.06 3198.44 1596.63 3202.21 1601.21 3205.98 1605.79 3212.32 1613.47 3218.64 1621.18 3225 1628.85Z" fill="url(#fill30)" fill-rule="evenodd"/><path d="M3521 1528C3521 1578.81 3480.03 1620 3429.5 1620 3378.97 1620 3338 1578.81 3338 1528 3338 1477.19 3378.97 1436 3429.5 1436 3480.03 1436 3521 1477.19 3521 1528Z" fill="url(#fill31)" fill-rule="evenodd"/><path d="M3342.19 1454.32 3342.19 1454.32C3345.91 1454.81 3348.35 1454.64 3348.66 1453.68L3350.96 1446.67C3350.94 1446.73 3350.87 1446.78 3350.83 1446.84 3350.87 1446.78 3350.94 1446.73 3350.97 1446.66 3351.6 1444.72 3343.19 1440.3 3332.17 1436.77 3321.15 1433.25 3311.7 1431.96 3311.06 1433.9 3310.98 1434.16 3311.05 1434.45 3311.26 1434.78 3311.34 1434.91 3311.45 1435.04 3311.57 1435.18 3311.45 1435.04 3311.34 1434.91 3311.26 1434.78 3311.05 1434.45 3310.98 1434.16 3311.06 1433.9L3308.77 1440.92C3308.46 1441.87 3310.3 1443.4 3313.54 1445.14L3313.54 1445.14 3271.33 1570.67C3267.47 1582.14 3272.91 1591.14 3276.13 1595.16 3277.34 1596.68 3279.35 1597.33 3281.24 1596.84 3286.25 1595.51 3296.06 1591.51 3299.91 1580.05L3342.19 1454.32ZM3322.51 1441.16C3322.28 1441.07 3322.05 1440.97 3321.82 1440.88 3322.05 1440.97 3322.28 1441.07 3322.51 1441.16ZM3320.79 1440.45C3320.6 1440.37 3320.41 1440.29 3320.23 1440.21 3320.41 1440.29 3320.61 1440.37 3320.79 1440.45ZM3327.95 1443.16C3327.71 1443.08 3327.48 1443 3327.25 1442.92 3327.48 1443 3327.71 1443.08 3327.95 1443.16ZM3326.07 1442.5C3325.82 1442.42 3325.57 1442.32 3325.33 1442.24 3325.57 1442.32 3325.82 1442.42 3326.07 1442.5ZM3324.25 1441.84C3324.01 1441.74 3323.76 1441.65 3323.52 1441.56 3323.76 1441.65 3324.01 1441.74 3324.25 1441.84ZM3329.86 1443.79C3329.94 1443.82 3330.02 1443.84 3330.09 1443.86 3330.02 1443.84 3329.94 1443.82 3329.86 1443.79 3329.77 1443.76 3329.68 1443.73 3329.59 1443.7 3329.68 1443.73 3329.77 1443.76 3329.86 1443.79ZM3337.96 1446.05C3337.83 1446.02 3337.7 1445.99 3337.57 1445.96 3337.7 1445.99 3337.83 1446.02 3337.96 1446.05ZM3336.2 1445.62C3336 1445.57 3335.81 1445.52 3335.61 1445.46 3335.81 1445.52 3336 1445.57 3336.2 1445.62ZM3334.36 1445.13C3334.14 1445.07 3333.93 1445.01 3333.71 1444.95 3333.93 1445.01 3334.14 1445.07 3334.36 1445.13ZM3332.42 1444.57C3332.21 1444.51 3332 1444.45 3331.78 1444.39 3332 1444.45 3332.21 1444.51 3332.42 1444.57ZM3350.05 1447.34C3350.06 1447.34 3350.06 1447.34 3350.06 1447.33 3350.06 1447.33 3350.06 1447.33 3350.06 1447.33 3350.06 1447.34 3350.06 1447.34 3350.05 1447.34ZM3346.23 1447.48C3346.32 1447.49 3346.4 1447.49 3346.48 1447.5 3346.4 1447.49 3346.31 1447.49 3346.23 1447.48ZM3347.7 1447.56C3347.77 1447.56 3347.83 1447.56 3347.9 1447.56 3347.83 1447.56 3347.77 1447.56 3347.7 1447.56ZM3348.99 1447.52C3349.06 1447.51 3349.14 1447.5 3349.21 1447.49 3349.14 1447.5 3349.06 1447.51 3348.99 1447.52ZM3350.66 1447.06C3350.52 1447.16 3350.32 1447.25 3350.1 1447.32 3350.32 1447.25 3350.52 1447.16 3350.66 1447.06ZM3344.66 1447.32C3344.62 1447.31 3344.59 1447.31 3344.55 1447.31 3344.47 1447.3 3344.38 1447.28 3344.29 1447.27 3344.41 1447.28 3344.54 1447.3 3344.66 1447.32ZM3341.3 1446.77C3341.44 1446.8 3341.57 1446.82 3341.7 1446.85 3341.57 1446.82 3341.44 1446.8 3341.3 1446.77ZM3342.84 1447.05C3342.98 1447.07 3343.13 1447.1 3343.27 1447.12 3343.13 1447.1 3342.98 1447.07 3342.84 1447.05ZM3311.69 1435.3C3311.79 1435.4 3311.89 1435.5 3312.01 1435.61 3311.89 1435.5 3311.79 1435.4 3311.69 1435.3ZM3313.45 1436.71C3313.96 1437.04 3314.53 1437.39 3315.17 1437.75 3314.53 1437.39 3313.96 1437.04 3313.45 1436.71ZM3312.18 1435.76C3312.3 1435.86 3312.43 1435.97 3312.57 1436.08 3312.43 1435.97 3312.3 1435.86 3312.18 1435.76ZM3312.77 1436.23C3312.93 1436.35 3313.11 1436.47 3313.29 1436.6 3313.11 1436.47 3312.93 1436.35 3312.77 1436.23ZM3315.42 1437.89C3315.64 1438.01 3315.87 1438.13 3316.11 1438.26 3316.04 1438.22 3315.96 1438.18 3315.89 1438.15 3315.73 1438.06 3315.58 1437.97 3315.42 1437.89ZM3318.77 1439.56C3318.64 1439.5 3318.52 1439.45 3318.4 1439.39 3318.52 1439.45 3318.64 1439.5 3318.77 1439.56ZM3317.38 1438.9C3317.2 1438.82 3317.03 1438.73 3316.86 1438.64 3317.03 1438.73 3317.2 1438.82 3317.38 1438.9Z" fill="url(#fill32)" fill-rule="evenodd"/><path d="M3349 1447.17 3305.29 1580.04C3301.51 1591.51 3291.91 1595.51 3287 1596.84 3285.15 1597.34 3283.19 1596.68 3282 1595.16 3278.85 1591.13 3273.53 1582.12 3277.3 1570.65L3320.94 1438C3324.28 1439.82 3329.12 1441.85 3334.62 1443.65 3340.13 1445.45 3345.24 1446.66 3349 1447.17Z" fill="url(#fill33)" fill-rule="evenodd"/><path d="M3355.97 1446.13C3355.87 1446.42 3355.56 1446.63 3355.06 1446.78 3352.36 1447.56 3344.17 1446.23 3334.85 1443.37 3325.26 1440.43 3317.64 1436.83 3316.23 1434.71 3316.02 1434.39 3315.95 1434.11 3316.03 1433.87 3316.67 1432 3326.12 1433.24 3337.15 1436.63 3348.18 1440.01 3356.6 1444.27 3355.97 1446.13Z" fill="url(#fill34)" fill-rule="evenodd"/><path d="M3345.98 1443.5C3345.93 1443.67 3345.78 1443.79 3345.53 1443.87 3344.18 1444.32 3340.08 1443.56 3335.43 1441.93 3330.63 1440.24 3326.82 1438.19 3326.12 1436.98 3326.01 1436.8 3325.98 1436.64 3326.02 1436.5 3326.33 1435.43 3331.06 1436.14 3336.58 1438.07 3342.09 1440.01 3346.3 1442.44 3345.98 1443.5Z" fill="url(#fill35)" fill-rule="evenodd"/><path d="M3353.71 1453.13C3353.4 1454.05 3350.97 1454.22 3347.28 1453.74 3345.83 1453.56 3344.18 1453.27 3342.39 1452.9 3339.48 1452.28 3336.18 1451.42 3332.73 1450.35 3329.28 1449.28 3326.08 1448.12 3323.35 1446.97 3321.63 1446.26 3320.09 1445.55 3318.79 1444.87 3315.56 1443.19 3313.73 1441.7 3314.03 1440.79L3316.32 1434C3316.24 1434.24 3316.31 1434.53 3316.52 1434.85 3317.1 1435.73 3318.73 1436.87 3321.12 1438.11 3324.52 1439.86 3329.43 1441.83 3335.02 1443.56 3340.61 1445.3 3345.8 1446.48 3349.62 1446.96 3352.13 1447.28 3354.04 1447.3 3355.1 1446.99 3355.59 1446.85 3355.9 1446.63 3356 1446.34L3353.71 1453.13Z" fill="url(#fill36)" fill-rule="evenodd"/><path d="M3335.74 1473.29C3336.03 1473.84 3336.08 1474.49 3335.88 1475.08L3301.92 1577.39C3299.67 1584.16 3294.53 1587.25 3290.85 1588.64 3288.35 1589.58 3285.51 1588.64 3284.07 1586.38 3281.95 1583.07 3279.68 1577.51 3281.93 1570.74L3315.46 1469.74C3315.96 1468.22 3317.82 1467.66 3319.07 1468.65 3319.09 1468.66 3319.11 1468.68 3319.13 1468.7 3321.06 1470.25 3325.27 1464.46 3326.97 1468.4 3328.67 1472.33 3329.87 1472.72 3332.71 1471.99 3334.42 1471.55 3335.3 1472.48 3335.74 1473.29Z" fill="url(#fill37)" fill-rule="evenodd"/><path d="M3289.16 1411.03 3289.16 1411.03C3293.52 1410.56 3296.26 1409.67 3296.35 1408.47L3297 1399.65C3296.99 1399.73 3296.92 1399.81 3296.89 1399.88 3296.92 1399.8 3296.99 1399.73 3297 1399.64 3297.18 1397.2 3286.36 1394.4 3272.83 1393.37 3259.31 1392.35 3248.2 1393.5 3248.02 1395.94 3248 1396.26 3248.16 1396.58 3248.49 1396.9 3248.62 1397.03 3248.78 1397.16 3248.96 1397.28 3248.78 1397.16 3248.62 1397.03 3248.49 1396.9 3248.16 1396.58 3247.99 1396.26 3248.02 1395.94L3247.37 1404.77C3247.28 1405.96 3249.81 1407.23 3253.99 1408.35L3253.99 1408.35 3241.11 1566.56C3239.93 1581 3248.64 1589.97 3253.42 1593.76 3255.23 1595.19 3257.7 1595.4 3259.71 1594.29 3265.04 1591.34 3275.08 1583.93 3276.26 1569.49L3289.16 1411.03ZM3263.07 1401.19C3262.79 1401.15 3262.5 1401.11 3262.22 1401.06 3262.5 1401.11 3262.79 1401.15 3263.07 1401.19ZM3260.93 1400.85C3260.69 1400.81 3260.45 1400.77 3260.21 1400.73 3260.45 1400.77 3260.69 1400.81 3260.93 1400.85ZM3269.82 1402.01C3269.53 1401.98 3269.25 1401.95 3268.96 1401.92 3269.25 1401.95 3269.53 1401.98 3269.82 1402.01ZM3267.5 1401.77C3267.19 1401.73 3266.89 1401.7 3266.59 1401.66 3266.89 1401.7 3267.19 1401.73 3267.5 1401.77ZM3265.25 1401.5C3264.94 1401.46 3264.64 1401.42 3264.34 1401.38 3264.64 1401.42 3264.95 1401.46 3265.25 1401.5ZM3272.18 1402.21C3272.28 1402.21 3272.37 1402.22 3272.46 1402.22 3272.37 1402.22 3272.28 1402.21 3272.18 1402.21 3272.07 1402.2 3271.96 1402.19 3271.84 1402.18 3271.96 1402.19 3272.07 1402.2 3272.18 1402.21ZM3282.03 1402.58C3281.88 1402.58 3281.72 1402.57 3281.56 1402.57 3281.72 1402.57 3281.88 1402.58 3282.03 1402.58ZM3279.9 1402.56C3279.67 1402.56 3279.43 1402.55 3279.19 1402.55 3279.43 1402.55 3279.67 1402.56 3279.9 1402.56ZM3277.67 1402.5C3277.41 1402.5 3277.14 1402.49 3276.88 1402.47 3277.14 1402.49 3277.41 1402.5 3277.67 1402.5ZM3275.31 1402.4C3275.05 1402.39 3274.79 1402.38 3274.53 1402.36 3274.8 1402.38 3275.05 1402.39 3275.31 1402.4ZM3296.15 1400.68C3296.15 1400.68 3296.16 1400.68 3296.16 1400.68 3296.16 1400.68 3296.16 1400.68 3296.16 1400.68 3296.16 1400.68 3296.15 1400.68 3296.15 1400.68ZM3291.84 1401.93C3291.94 1401.91 3292.03 1401.9 3292.13 1401.88 3292.03 1401.9 3291.94 1401.91 3291.84 1401.93ZM3293.53 1401.6C3293.61 1401.59 3293.69 1401.57 3293.76 1401.55 3293.69 1401.57 3293.61 1401.59 3293.53 1401.6ZM3294.99 1401.19C3295.07 1401.17 3295.15 1401.14 3295.23 1401.1 3295.15 1401.14 3295.07 1401.16 3294.99 1401.19ZM3296.76 1400.19C3296.63 1400.35 3296.43 1400.5 3296.19 1400.65 3296.43 1400.5 3296.63 1400.35 3296.76 1400.19ZM3290 1402.17C3289.96 1402.18 3289.92 1402.19 3289.88 1402.19 3289.78 1402.2 3289.67 1402.21 3289.57 1402.22 3289.72 1402.2 3289.86 1402.19 3290 1402.17ZM3286.03 1402.48C3286.2 1402.47 3286.35 1402.46 3286.51 1402.45 3286.35 1402.46 3286.2 1402.47 3286.03 1402.48ZM3287.85 1402.37C3288.03 1402.36 3288.2 1402.34 3288.37 1402.33 3288.2 1402.34 3288.03 1402.36 3287.85 1402.37ZM3249.13 1397.4C3249.27 1397.49 3249.41 1397.57 3249.57 1397.66 3249.41 1397.57 3249.27 1397.48 3249.13 1397.4ZM3251.53 1398.54C3252.19 1398.79 3252.94 1399.04 3253.77 1399.27 3252.94 1399.04 3252.19 1398.79 3251.53 1398.54ZM3249.81 1397.79C3249.98 1397.88 3250.15 1397.97 3250.34 1398.05 3250.15 1397.97 3249.98 1397.88 3249.81 1397.79ZM3250.61 1398.17C3250.83 1398.27 3251.07 1398.36 3251.31 1398.46 3251.07 1398.36 3250.83 1398.27 3250.61 1398.17ZM3254.1 1399.36C3254.38 1399.45 3254.68 1399.52 3254.98 1399.6 3254.89 1399.58 3254.79 1399.56 3254.71 1399.53 3254.49 1399.48 3254.3 1399.42 3254.1 1399.36ZM3258.37 1400.38C3258.21 1400.35 3258.06 1400.31 3257.9 1400.28 3258.06 1400.31 3258.21 1400.35 3258.37 1400.38ZM3256.61 1400C3256.38 1399.95 3256.17 1399.89 3255.95 1399.84 3256.17 1399.89 3256.38 1399.95 3256.61 1400Z" fill="url(#fill38)" fill-rule="evenodd"/><path d="M3296 1400.66 3282.35 1568.42C3281.17 1582.9 3271.1 1590.33 3265.76 1593.29 3263.74 1594.4 3261.26 1594.2 3259.45 1592.76 3254.66 1588.96 3245.93 1579.96 3247.11 1565.48L3260.74 1398C3265.14 1399.17 3271.34 1400.15 3278.26 1400.68 3285.18 1401.2 3291.48 1401.15 3296 1400.66Z" fill="url(#fill39)" fill-rule="evenodd"/><path d="M3304 1398.24C3303.97 1398.6 3303.67 1398.92 3303.14 1399.22 3300.24 1400.82 3290.33 1401.46 3278.67 1400.65 3266.66 1399.81 3256.74 1397.71 3254.48 1395.67 3254.15 1395.36 3253.98 1395.06 3254 1394.76 3254.19 1392.47 3265.53 1391.39 3279.33 1392.35 3293.14 1393.31 3304.18 1395.95 3304 1398.24Z" fill="url(#fill40)" fill-rule="evenodd"/><path d="M3291 1397.47C3290.99 1397.67 3290.84 1397.85 3290.57 1398.01 3289.12 1398.9 3284.17 1399.26 3278.33 1398.8 3272.33 1398.34 3267.37 1397.17 3266.24 1396.04 3266.07 1395.87 3265.99 1395.7 3266 1395.53 3266.09 1394.26 3271.76 1393.66 3278.67 1394.19 3285.57 1394.73 3291.09 1396.2 3291 1397.47Z" fill="url(#fill41)" fill-rule="evenodd"/><path d="M3303.33 1407.15C3303.24 1408.32 3300.43 1409.18 3295.95 1409.63 3294.19 1409.81 3292.17 1409.93 3289.95 1409.97 3286.34 1410.05 3282.21 1409.95 3277.83 1409.64 3273.46 1409.33 3269.35 1408.84 3265.79 1408.25 3263.56 1407.88 3261.55 1407.47 3259.8 1407.03 3255.51 1405.95 3252.91 1404.72 3253 1403.56L3253.67 1395C3253.65 1395.31 3253.81 1395.62 3254.16 1395.94 3255.1 1396.81 3257.36 1397.69 3260.54 1398.49 3265.05 1399.62 3271.41 1400.57 3278.5 1401.08 3285.6 1401.58 3292.05 1401.54 3296.69 1401.06 3299.72 1400.75 3301.98 1400.25 3303.14 1399.6 3303.67 1399.3 3303.97 1398.96 3304 1398.6L3303.33 1407.15Z" fill="url(#fill42)" fill-rule="evenodd"/><path d="M3287.32 1435.39C3287.82 1435.94 3288.05 1436.68 3287.99 1437.42L3277.34 1565.66C3276.64 1574.14 3271.51 1579.18 3267.6 1581.82 3264.94 1583.62 3261.35 1583.33 3259.02 1581.12 3255.6 1577.88 3251.37 1572.07 3252.08 1563.59L3262.59 1436.99C3262.75 1435.09 3264.76 1433.91 3266.5 1434.7 3266.53 1434.72 3266.56 1434.73 3266.58 1434.74 3269.28 1436 3272.57 1428.1 3275.67 1432.18 3278.78 1436.26 3280.29 1436.38 3283.41 1434.73 3285.27 1433.73 3286.57 1434.56 3287.32 1435.39Z" fill="url(#fill43)" fill-rule="evenodd"/><path d="M3341 1565 3523 1565 3523 1583 3341 1583Z" fill="url(#fill44)" fill-rule="evenodd"/><path d="M3525.8 1430 3494.2 1430C3489.12 1430 3485 1425.75 3485 1420.5L3485 1420.5C3485 1415.25 3489.12 1411 3494.2 1411L3525.8 1411C3530.88 1411 3535 1415.25 3535 1420.5L3535 1420.5C3535 1425.75 3530.88 1430 3525.8 1430Z" fill="#45D7FF" fill-rule="evenodd"/><path d="M3443.61 1430 3411.39 1430C3406.2 1430 3402 1425.75 3402 1420.5L3402 1420.5C3402 1415.25 3406.2 1411 3411.39 1411L3443.61 1411C3448.8 1411 3453 1415.25 3453 1420.5L3453 1420.5C3453 1425.75 3448.8 1430 3443.61 1430Z" fill="#FFB0F8" fill-rule="evenodd"/><path d="M3608.61 1430 3576.39 1430C3571.2 1430 3567 1425.75 3567 1420.5L3567 1420.5C3567 1415.25 3571.2 1411 3576.39 1411L3608.61 1411C3613.8 1411 3618 1415.25 3618 1420.5L3618 1420.5C3618 1425.75 3613.8 1430 3608.61 1430Z" fill="#FFC12E" fill-rule="evenodd"/><path d="M3219.85 1537.98C3219.24 1545.74 3211.31 1554.09 3206.78 1559.92 3201.49 1566.73 3194.65 1572.94 3189.83 1580 3189.01 1581.21 3188.64 1582.29 3188.59 1583.27 3188.46 1586.48 3191.85 1588.78 3194.54 1592 3177.47 1585.73 3182.49 1574.22 3199.89 1553.63 3217.28 1533.04 3214.9 1513 3214.9 1513L3219.18 1518.32C3219.79 1525.24 3220.25 1533.04 3219.85 1537.98Z" fill="url(#fill45)" fill-rule="evenodd"/><path d="M3306.43 1442C3306.43 1442 3309.32 1448.92 3312 1450.68 3312 1450.68 3306.02 1455 3305.19 1455 3304.37 1455 3306.43 1442 3306.43 1442Z" fill="url(#fill46)" fill-rule="evenodd"/><path d="M3303.11 1413.36C3303.11 1413.36 3305.6 1433.13 3306.84 1444.82 3308.09 1456.51 3301.89 1468.35 3288.84 1476 3288.84 1476 3266.68 1474.12 3262.03 1456.14 3262.03 1456.14 3259.78 1443.65 3259.23 1438.7 3258.69 1433.75 3252.57 1430.79 3256.08 1423.06 3259.6 1415.32 3262.37 1420.74 3262.37 1420.74 3262.37 1420.74 3263.66 1414.64 3265.11 1409.57 3266.56 1404.49 3303.11 1413.36 3303.11 1413.36Z" fill="url(#fill47)" fill-rule="evenodd"/><path d="M3211.14 1939C3211.14 1939 3201.31 1946.42 3204.72 1952.96 3208.12 1959.5 3215.73 1959.17 3219.59 1958.88 3223.45 1958.58 3228.99 1957.97 3231.36 1954.06 3233.74 1950.14 3228.71 1942.37 3228.71 1942.37L3211.14 1939Z" fill="url(#fill48)" fill-rule="evenodd"/><path d="M3211.06 1938.33C3211.06 1938.33 3218.3 1945.94 3228.27 1941.73 3228.75 1937.86 3229.7 1932.97 3231 1927.3 3227.32 1928.6 3220.91 1929.41 3212.36 1925 3211.36 1933.05 3210.81 1938.28 3211.06 1938.33Z" fill="url(#fill49)" fill-rule="evenodd"/><path d="M3279.46 1636.98C3276.24 1650.13 3273.22 1668.66 3270.36 1689.45 3267.42 1710.95 3264.65 1734.88 3262.04 1757.81 3257.87 1794.47 3254.07 1828.54 3250.52 1845.91 3242.62 1884.61 3231.72 1927.7 3231.72 1927.7 3231.72 1927.7 3216.59 1938.77 3212.4 1925.38 3214.45 1907.62 3217.25 1814.74 3210.99 1739.96 3204.72 1665.17 3230.34 1631.88 3230.34 1631.88 3230.34 1631.88 3291.36 1588.44 3279.46 1636.98Z" fill="url(#fill50)" fill-rule="evenodd"/><path d="M3295 1503C3295.13 1503.31 3299.29 1513.5 3303 1522 3300.48 1514.16 3297.52 1506.27 3295 1503Z" fill="url(#fill51)" fill-rule="evenodd"/><path d="M3287 1561C3286.8 1561.1 3286.12 1561.46 3285 1562 3285.82 1561.71 3286.5 1561.38 3287 1561Z" fill="url(#fill52)" fill-rule="evenodd"/><path d="M3270 1689.46C3267.02 1711.02 3264.23 1735.02 3261.59 1758 3243.64 1729.26 3253.94 1674 3253.94 1674L3270 1689.46Z" fill="url(#fill53)" fill-rule="evenodd"/><path d="M3276.24 1794.41C3276.84 1796.89 3276.87 1799.47 3276.34 1801.96 3266.75 1847.24 3284.11 1929.73 3284.11 1929.73 3295.21 1935.19 3302.2 1929.1 3302.2 1929.1 3301.68 1878.52 3309.77 1869.86 3311.79 1769.29 3313.24 1697.83 3306.78 1658.03 3302.93 1640.99 3301.36 1634.05 3300.23 1630.88 3300.23 1630.88L3273.12 1623C3273.12 1623 3272.07 1624.22 3270.45 1626.43 3266.13 1632.35 3257.72 1645.37 3254.4 1661.11 3253.44 1665.68 3252.9 1670.48 3253.02 1675.4 3253.61 1700.17 3271.82 1776.27 3276.24 1794.41Z" fill="url(#fill54)" fill-rule="evenodd"/><path d="M3361.65 1546C3361.78 1546.18 3361.89 1546.35 3362 1546.53 3361.41 1546.81 3361.06 1546.97 3361 1547 3361.02 1546.96 3361.08 1546.87 3361.16 1546.74 3361.28 1546.57 3361.44 1546.31 3361.65 1546Z" fill="url(#fill55)" fill-rule="evenodd"/><path d="M3402 1493C3402.29 1493.34 3402.63 1493.67 3403 1494 3402.63 1493.67 3402.29 1493.34 3402 1493Z" fill="url(#fill56)" fill-rule="evenodd"/><path d="M3362 1546.53C3361.41 1546.81 3361.06 1546.97 3361 1547 3361.02 1546.96 3361.08 1546.87 3361.16 1546.74 3361.28 1546.57 3361.44 1546.31 3361.65 1546 3361.78 1546.17 3361.89 1546.35 3362 1546.53Z" fill="url(#fill57)" fill-rule="evenodd"/><path d="M3414 1497C3414.35 1496.74 3414.69 1496.4 3415 1496 3414.68 1496.4 3414.35 1496.72 3414 1497Z" fill="url(#fill58)" fill-rule="evenodd"/><path d="M3361.65 1546C3361.78 1546.18 3361.89 1546.35 3362 1546.53 3361.41 1546.81 3361.06 1546.97 3361 1547 3361.02 1546.96 3361.08 1546.87 3361.16 1546.74 3361.28 1546.57 3361.44 1546.31 3361.65 1546Z" fill="url(#fill59)" fill-rule="evenodd"/><path d="M3402 1493C3402.29 1493.34 3402.63 1493.67 3403 1494 3402.63 1493.67 3402.29 1493.34 3402 1493Z" fill="url(#fill60)" fill-rule="evenodd"/><path d="M3298 1631.49C3291.97 1634.26 3271.33 1642.05 3241.75 1635.35 3237.88 1634.47 3233.84 1633.34 3229.67 1631.92 3229.67 1631.92 3229.67 1631.91 3229.66 1631.9 3229.52 1631.4 3227.4 1623.51 3224.73 1611.66 3222.24 1600.62 3219.27 1586.16 3217 1571 3217.51 1573.69 3228.78 1631.05 3264.32 1632.25 3286.63 1633.01 3294.92 1632.22 3298 1631.49Z" fill="url(#fill61)" fill-rule="evenodd"/><path d="M3304 1567C3302.97 1570.6 3302.21 1574.27 3301.79 1578.01 3301.76 1578.2 3301.74 1578.42 3301.71 1578.62 3301.66 1579.11 3301.61 1579.61 3301.56 1580.11 3294.66 1584.36 3293.47 1600.41 3294.18 1591.19 3294.96 1581.12 3303.73 1567.42 3304 1567Z" fill="url(#fill62)" fill-rule="evenodd"/><path d="M3217.31 1620C3217.31 1620 3219.54 1622.19 3222.92 1624.03 3226.29 1625.87 3220.9 1625.83 3218.75 1625.21 3216.61 1624.6 3206.05 1630.11 3202 1627.09L3217.31 1620Z" fill="url(#fill63)" fill-rule="evenodd"/><path d="M3280.39 1452.67C3280.39 1452.67 3271.08 1483.34 3284 1487.34 3284 1487.34 3265.56 1502.89 3253 1477.17 3253 1477.17 3258.03 1461.19 3256.47 1448L3280.39 1452.67Z" fill="url(#fill64)" fill-rule="evenodd"/><path d="M3298 1499C3298.08 1499.33 3300.64 1510.04 3303 1519 3301.65 1510.83 3299.92 1502.57 3298 1499Z" fill="url(#fill65)" fill-rule="evenodd"/><path d="M3282 1556C3281.8 1556.1 3281.11 1556.48 3280 1557 3280.82 1556.81 3281.49 1556.49 3282 1556Z" fill="url(#fill66)" fill-rule="evenodd"/><path d="M3244.3 1456.52C3252.25 1470.22 3263.76 1478.37 3279.55 1471.54 3288.91 1467.48 3297.84 1460.02 3301.33 1450.14 3303.31 1444.53 3304.69 1438.13 3312.16 1438.84 3319.27 1439.51 3327.21 1438.46 3336 1434.43 3332.71 1435.93 3327.22 1432.53 3324.77 1430.51 3319.88 1426.48 3316.89 1420.91 3315.5 1415.32 3315.09 1413.66 3314.53 1412.05 3313.85 1410.5 3313.16 1408.96 3312.35 1407.47 3311.43 1406.06 3311.43 1406.06 3294.5 1371.92 3262.86 1383.33 3251.77 1386.74 3247.96 1395.39 3247.94 1395.43 3247.96 1395.39 3245.05 1395.41 3244.87 1395.44 3242.24 1395.84 3239.91 1397.26 3238.08 1399.16 3229.17 1408.4 3231.84 1422.81 3234.91 1433.98 3236.54 1439.92 3239.73 1448.66 3244.3 1456.52Z" fill="url(#fill67)" fill-rule="evenodd"/><path d="M3310.4 1749.99C3304.34 1754.73 3276.16 1763.14 3247 1764.76 3247.19 1765.62 3247.38 1766.48 3247.58 1767.35 3248.34 1770.66 3251.27 1773.01 3254.66 1773 3267.8 1772.96 3300.45 1771.55 3320.49 1759.35 3323.09 1757.76 3324.45 1754.73 3323.87 1751.73 3320.56 1734.54 3317.54 1717.29 3314.75 1700 3310.66 1674.55 3307.02 1648.99 3304.73 1623.3 3303.68 1611.67 3302.9 1600 3302.85 1588.31 3302.81 1577.06 3303.34 1566.09 3304.86 1555.02L3304.86 1555.01C3304.86 1555.01 3299.07 1553.92 3298.71 1577.2 3298.35 1600.48 3321.78 1741.09 3310.4 1749.99Z" fill="url(#fill68)" fill-rule="evenodd"/><path d="M3307 1596C3307.1 1595.65 3307.19 1595.35 3307.19 1595 3308.2 1595 3308.4 1595.24 3307 1596Z" fill="url(#fill69)" fill-rule="evenodd"/><path d="M3334 1622C3329.21 1620.88 3325.76 1620.55 3320.96 1619.94 3309.38 1618.46 3293.76 1620.58 3286.21 1610.12 3279.56 1600.88 3278.49 1591.64 3274.13 1581.08 3270.86 1573.15 3268.42 1562.61 3267 1553.46 3269.44 1553.28 3272.6 1547.32 3274.03 1554.62 3277.12 1570.33 3275.88 1597.82 3291.53 1608.17 3306.93 1618.35 3318.39 1616.69 3334 1622Z" fill="url(#fill70)" fill-rule="evenodd"/><path d="M3253 1478 3218.57 1511.5 3211.24 1518.64 3179 1550C3179 1549.99 3179.01 1549.99 3179.01 1549.98 3179.66 1548.97 3200.63 1516.24 3213.67 1501.54L3213.68 1501.53C3226.92 1486.6 3253 1478 3253 1478Z" fill="url(#fill71)" fill-rule="evenodd"/><text fill="#FF6E6E" font-family="Avenir Next LT Pro,Avenir Next LT Pro_MSFontService,sans-serif" font-weight="700" font-size="83" transform="matrix(1 0 0 1 3355.09 1550)">Info</text><path d="M3466.87 1425.5C3410.2 1405.07 3347.43 1434.42 3326.94 1490.94 3317.58 1516.76 3318.65 1543.85 3327.97 1567.61L3186.99 1633.54C3182.66 1635.56 3180.79 1640.71 3182.82 1645.03 3183.84 1647.19 3185.63 1648.73 3187.72 1649.48 3189.8 1650.24 3192.18 1650.19 3194.34 1649.18L3335.53 1583.15C3347.99 1604.35 3367.64 1621.49 3392.56 1630.48 3449.23 1650.91 3512 1621.56 3532.48 1565.04 3552.97 1508.53 3523.54 1445.93 3466.87 1425.5ZM3398.45 1614.23C3350.77 1597.04 3326 1544.36 3343.24 1496.81 3360.48 1449.26 3413.29 1424.55 3460.98 1441.75 3508.66 1458.94 3533.43 1511.61 3516.19 1559.17 3498.95 1606.72 3446.13 1631.42 3398.45 1614.23Z" fill="#333333" fill-rule="evenodd"/><path d="M3320.49 1759.39C3300.43 1771.55 3267.75 1772.96 3254.6 1773 3251.21 1773.01 3248.28 1770.67 3247.52 1767.37 3247.32 1766.5 3247.13 1765.65 3246.94 1764.79 3245.9 1760.1 3244.97 1755.4 3244.13 1750.7 3241.62 1736.7 3239.94 1722.8 3238.86 1709.61 3238.86 1709.61 3236.19 1731.03 3234.15 1749.42 3233.52 1755.15 3232.94 1760.6 3232.52 1765 3232.52 1765.08 3232.51 1765.14 3232.51 1765.21 3232.12 1769.32 3228.39 1772.27 3224.3 1771.71 3214.24 1770.34 3196.37 1765.96 3183.85 1752.09 3182.43 1750.52 3181.78 1748.39 3182.06 1746.29 3182.61 1742.25 3183.7 1734.63 3185.36 1724.82 3185.4 1724.63 3185.42 1724.45 3185.46 1724.27 3189.65 1699.78 3197.44 1662.03 3209.51 1632.07 3211.07 1628.2 3212.7 1624.46 3214.41 1620.89 3214.66 1619.65 3214.86 1618.4 3215.03 1617.15 3215.16 1616.23 3215.27 1615.3 3215.36 1614.37 3215.84 1609.41 3215.87 1604.4 3215.87 1599.41 3215.87 1596.57 3215.82 1593.6 3215.74 1590.59 3215.61 1585.74 3215.36 1580.7 3215.04 1575.66 3215.04 1575.66 3215.04 1575.65 3215.04 1575.64 3214.85 1572.7 3214.66 1569.76 3214.43 1566.84 3214.41 1566.61 3214.38 1566.38 3214.38 1566.16 3214.22 1564.17 3213.96 1562.19 3213.63 1560.25 3213.23 1557.87 3212.91 1555.52 3212.65 1553.2 3212.04 1547.55 3211.84 1542.12 3211.9 1537.07 3211.33 1530.11 3211.21 1524.04 3211.42 1518.76 3211.55 1515.49 3211.82 1512.53 3212.19 1509.84 3212.61 1506.76 3213.18 1504.02 3213.84 1501.61L3213.84 1501.6C3226.99 1486.62 3252.86 1478 3252.86 1478 3252.86 1478 3253.85 1479.13 3256.71 1480.54 3259.44 1481.87 3263.86 1483.47 3270.77 1484.56 3279.15 1485.56 3277.8 1481.89 3277.56 1481.02 3278.45 1483.84 3282.33 1486.86 3284.44 1488.6 3285.57 1489.53 3286.76 1490.39 3287.99 1491.19 3288 1491.21 3288.02 1491.21 3288.03 1491.22 3288.23 1491.35 3288.43 1491.47 3288.63 1491.59 3288.64 1491.59 3288.65 1491.61 3288.65 1491.61 3291.57 1493.53 3296.22 1496.56 3297.74 1499.78 3298.07 1500.48 3298.25 1501.24 3298.44 1502 3299.76 1507.4 3301.25 1512.85 3302.47 1518.33 3303.28 1521.96 3304.44 1525.5 3305.85 1528.95 3307.11 1532.04 3307.85 1535.45 3307.93 1539.04 3307.96 1540.44 3307.9 1541.88 3307.73 1543.32 3307.36 1546.34 3306.56 1549.19 3305.42 1551.79 3305.21 1553.1 3305.02 1554.4 3304.84 1555.71L3304.84 1555.71C3303.32 1566.75 3302.79 1577.69 3302.83 1588.91 3302.88 1600.55 3303.66 1612.19 3304.71 1623.79 3307.01 1649.39 3310.65 1674.87 3314.74 1700.23 3317.53 1717.47 3320.55 1734.67 3323.87 1751.8 3324.45 1754.79 3323.09 1757.81 3320.49 1759.39Z" fill="url(#fill72)" fill-rule="evenodd"/><path d="M3366.94 1627.55C3366.97 1627.95 3367.27 1628.65 3367.03 1629 3363.48 1628.13 3351.14 1626.44 3349.15 1625.95 3341.79 1624.16 3339.34 1624.03 3333.43 1622.31 3333.17 1622.26 3332.91 1622.22 3332.65 1622.17L3332.64 1622.17C3331.74 1622.02 3330.87 1621.88 3330.02 1621.74 3328.03 1621.42 3326.12 1621.14 3324.06 1620.86 3322.99 1620.72 3321.87 1620.57 3320.69 1620.42 3319.62 1620.29 3318.51 1620.18 3317.38 1620.1 3316.23 1620.01 3315.05 1619.94 3313.84 1619.87 3313.12 1619.84 3312.4 1619.8 3311.66 1619.76 3311.18 1619.73 3310.7 1619.7 3310.21 1619.68 3308.3 1619.57 3306.38 1619.44 3304.48 1619.22 3303.05 1619.06 3301.64 1618.86 3300.26 1618.59 3299.92 1618.53 3299.58 1618.45 3299.24 1618.38 3298.38 1618.19 3297.54 1617.97 3296.72 1617.72L3296.34 1617.6C3293.27 1616.61 3290.48 1615.13 3288.18 1612.84 3288.05 1612.71 3287.92 1612.57 3287.78 1612.43 3287.26 1611.87 3286.76 1611.27 3286.3 1610.61 3286.09 1610.33 3285.89 1610.04 3285.69 1609.75 3285.18 1608.99 3284.71 1608.23 3284.26 1607.47 3283 1605.34 3281.99 1603.2 3281.1 1601.04 3280.98 1600.75 3280.87 1600.45 3280.75 1600.16 3280.17 1598.69 3279.65 1597.2 3279.15 1595.7 3278.68 1594.3 3278.24 1592.88 3277.78 1591.45 3277.26 1589.81 3276.72 1588.14 3276.15 1586.44 3275.82 1585.48 3275.47 1584.52 3275.11 1583.54 3274.86 1582.89 3274.61 1582.24 3274.34 1581.58 3273.38 1579.19 3272.47 1576.56 3271.63 1573.79 3269.98 1568.38 3268.63 1562.47 3267.76 1556.97 3267.6 1555.99 3267.46 1555.02 3267.33 1554.06 3267.32 1554.03 3267.32 1553.99 3267.32 1553.96 3266.85 1550.3 3266.79 1546.54 3267.9 1542.91 3272.33 1528.48 3281.43 1515.31 3290.02 1503 3295.63 1520.93 3304.84 1553.64 3306.84 1577.78 3307.4 1584.32 3307.41 1590.23 3306.68 1595.05 3306.5 1595.05 3305.98 1595.21 3306.08 1595.14 3306.22 1595.03 3305.8 1595.11 3305.93 1595.13 3306.06 1595.15 3306.41 1595.43 3306.57 1595.51 3306.75 1595.31 3306.46 1595.35 3306.67 1595.17 3307.61 1594.37 3309.52 1594.24 3311.85 1594.5 3318.44 1595.21 3328.49 1599.02 3330.41 1599.75 3338.73 1602.94 3343.68 1605.38 3350.84 1608.3 3353.62 1609.43 3355.93 1610.37 3358.5 1611.2 3361.52 1613.79 3364.68 1616.22 3368 1618.47 3367.15 1621.33 3366.74 1624.45 3366.94 1627.55Z" fill="url(#fill73)" fill-rule="evenodd"/><path d="M3385.84 1626.58C3387.19 1626.82 3388.92 1625.53 3387.42 1625.29 3387.07 1625.22 3386.38 1625.05 3385.52 1624.81 3383.35 1624.2 3380.1 1623.19 3378.49 1622.67 3378.06 1622.53 3377.75 1622.43 3377.6 1622.38 3377.08 1622.19 3375.68 1621.19 3374.93 1620.24 3374.35 1619.53 3374.15 1618.85 3374.96 1618.58 3376.85 1617.93 3377.17 1616.72 3377.01 1616.15 3376.85 1615.59 3374.65 1616.8 3373.62 1616.72 3372.6 1616.64 3368.69 1618.27 3368.69 1618.27L3365.93 1620.64 3366.01 1620.98 3364 1623.02 3367.73 1628.87C3367.73 1628.87 3370.82 1629.16 3373.15 1628.87 3375.48 1628.57 3379.77 1627.71 3382.14 1628.26 3383.6 1628.59 3384.77 1628.71 3385.55 1628.63 3385.55 1628.63 3385.55 1628.63 3385.55 1628.63 3386.03 1628.58 3386.35 1628.45 3386.5 1628.26L3386.51 1628.26C3386.83 1627.82 3383.67 1626.76 3382.71 1626.45 3382.61 1626.42 3382.54 1626.39 3382.49 1626.38 3382.48 1626.37 3382.47 1626.37 3382.46 1626.36 3382.64 1626.36 3384.57 1626.35 3385.84 1626.58Z" fill="url(#fill74)" fill-rule="evenodd"/></g></svg>