<svg width="3521" height="1982" xmlns="http://www.w3.org/2000/svg" xmlns:xlink="http://www.w3.org/1999/xlink" xml:space="preserve" overflow="hidden"><defs><clipPath id="clip0"><rect x="459" y="230" width="3521" height="1982"/></clipPath></defs><g clip-path="url(#clip0)" transform="translate(-459 -230)"><path d="M653.706 2208C653.706 2208 155.313 1029.93 1227.29 810.915 1896.16 674.258 1878.68 199.148 2825.14 231.583 3794.35 264.797 3412.67 1180.37 3538.42 1389.81 3664.18 1599.23 3986.9 1683.25 3869.87 2208L653.706 2208Z" fill="#EBF3FA" fill-rule="evenodd"/><path d="M2936.09 485.942C2901.73 408.393 2769.17 454.74 2769.17 454.74 2769.17 454.74 2698.32 610.66 2671.9 618.192 2645.46 625.723 2706.45 473.048 2706.45 473.048 2653.44 476.048 2530.22 560.653 2530.22 560.653 2530.22 560.653 2564.11 724.58 2536.63 725.367 2509.15 726.155 2514.04 578.686 2514.04 578.686 2465.83 601.658 2427.76 667.947 2427.76 667.947 2383.59 773.147 2520.85 824.462 2520.85 824.462 2520.85 824.462 2531.37 881.525 2506.12 952.738L2506.12 952.74C2506.12 952.74 2500 966.112 2495.07 988L2508.84 985.874C2509.4 982.002 2510.09 978.237 2510.93 974.594 2510.93 974.568 2510.94 974.548 2510.96 974.527 2510.97 974.474 2510.98 974.422 2510.99 974.369 2511.61 972.092 2512.5 968.851 2513.62 964.896 2513.62 964.891 2513.62 964.886 2513.63 964.881 2513.62 964.872 2513.63 964.871 2513.63 964.862 2516.57 955.965 2518.48 949.435 2519.59 944.758 2519.6 944.743 2519.6 944.729 2519.6 944.714 2528.23 916.88 2541.21 880.346 2552.22 871.401 2552.22 871.401 2550.37 869.49 2548.3 865.531 2549.55 867.402 2550.86 869.354 2552.22 871.401 2583.61 918.342 2702.82 908.575 2766.45 884.948 2830.07 861.323 2798.58 847.196 2758.56 822.555 2718.55 797.913 2645.65 817.286 2621.93 808.863 2598.22 800.439 2628.4 783.699 2672.72 780.313 2717.04 776.927 2745.7 817.383 2817.49 813.208 2889.29 809.035 2922.68 667.522 2922.68 667.522 2876.15 690.236 2784.39 676.776 2778.43 660.437 2772.46 644.096 2902.44 625.766 2921.87 617.588 2941.31 609.414 2970.46 563.49 2936.09 485.942Z" fill="#DFEBFD" fill-rule="evenodd"/><path d="M3321.01 1828.09C3444.32 1754.37 3339.33 1540.7 3339.33 1540.7 3339.33 1540.7 3062.77 1453.33 3044.71 1410.37 3026.65 1367.41 3295.73 1438.86 3295.73 1438.86 3279.85 1350.25 3112.46 1160.12 3112.46 1160.12 3112.46 1160.12 2843.86 1250.66 2836.92 1204.58 2829.98 1158.49 3078.83 1136.55 3078.83 1136.55 3030.38 1060.1 2911.17 1009.55 2911.17 1009.55 2725.32 956.727 2667.13 1198.28 2667.13 1198.28 2667.13 1198.28 2573.38 1227.65 2448.52 1199.7L2448.52 1199.7C2448.52 1199.7 2424.8 1192.14 2387 1188.31L2393.38 1211.07C2400.01 1211.21 2406.48 1211.6 2412.77 1212.28 2412.81 1212.27 2412.85 1212.27 2412.89 1212.29 2412.98 1212.3 2413.07 1212.32 2413.16 1212.33 2417.12 1212.9 2422.74 1213.73 2429.62 1214.81 2429.63 1214.81 2429.63 1214.81 2429.64 1214.82 2429.66 1214.81 2429.67 1214.83 2429.68 1214.82 2445.23 1217.95 2456.59 1219.82 2464.7 1220.75 2464.72 1220.76 2464.74 1220.76 2464.77 1220.76 2513.31 1229.59 2577.37 1243.96 2594.66 1260.7 2594.66 1260.7 2597.49 1257.17 2603.72 1252.89 2600.83 1255.38 2597.82 1257.98 2594.66 1260.7 2522.18 1323.11 2562.97 1521.81 2615.68 1624.09 2668.41 1726.36 2685.71 1670.45 2718.94 1598.06 2752.17 1525.66 2704.71 1406.89 2714.02 1365.24 2723.33 1323.59 2757.64 1371 2772.4 1444.91 2787.14 1518.83 2725 1575.33 2746.69 1695.34 2768.39 1815.34 3013.07 1842.62 3013.07 1842.62 2965.38 1768.95 2969.24 1611.73 2995.49 1598.35 3021.73 1584.97 3079.12 1800.03 3096.83 1831.07 3114.55 1862.13 3197.69 1901.8 3321.01 1828.09Z" fill="#DFEBFD" fill-rule="evenodd"/><path d="M1492.14 963.076C1561.18 863.334 1734.92 964.058 1734.92 964.058 1734.92 964.058 1792.62 1202.18 1827.73 1219.86 1862.83 1237.54 1818.09 1006.63 1818.09 1006.63 1891.73 1025.08 2042.1 1177.05 2042.1 1177.05 2042.1 1177.05 1950.59 1398.3 1988.97 1406.79 2027.34 1415.27 2060 1206.74 2060 1206.74 2121.54 1251.97 2157.26 1355.34 2157.26 1355.34 2191.08 1515.02 1984.57 1550.27 1984.57 1550.27 1984.57 1550.27 1954.51 1627.63 1970.9 1734.48L1970.9 1734.49C1970.9 1734.49 1975.89 1754.92 1976.97 1787L1958.19 1780.31C1958.44 1774.72 1958.48 1769.25 1958.27 1763.9 1958.28 1763.86 1958.28 1763.84 1958.26 1763.8 1958.26 1763.72 1958.26 1763.65 1958.25 1763.58 1958 1760.21 1957.62 1755.42 1957.1 1749.56 1957.1 1749.55 1957.1 1749.53 1957.1 1749.53 1957.11 1749.52 1957.1 1749.51 1957.1 1749.51 1955.35 1736.21 1954.43 1726.53 1954.1 1719.66 1954.1 1719.63 1954.1 1719.61 1954.1 1719.6 1949.46 1678.16 1941.02 1623.35 1927.93 1607.81 1927.93 1607.81 1931.05 1605.62 1935.01 1600.61 1932.75 1602.9 1930.4 1605.29 1927.93 1607.81 1871.29 1665.34 1706.47 1619.61 1623.46 1569.31 1540.43 1519.03 1588.46 1507.64 1651.25 1483.76 1714.05 1459.88 1811.24 1506.68 1846.8 1501.22 1882.37 1495.74 1844.46 1464.11 1783.12 1447.46 1721.79 1430.79 1670.71 1479.95 1571.01 1454.8 1471.29 1429.65 1462.33 1221.84 1462.33 1221.84 1521.57 1266.25 1654.03 1271.98 1666.79 1250.62 1679.55 1229.26 1501.93 1168.6 1476.82 1151.89 1451.71 1135.17 1423.09 1062.82 1492.14 963.076Z" fill="#CDE0FB" fill-rule="evenodd"/><path d="M2750.48 1111.65C2750.24 1111.11 2749.97 1110.53 2749.64 1109.93 2748.55 1105.7 2739.02 1083.29 2737.95 1080.83 2734.96 1073.85 2730.05 1077.56 2730.05 1082.78 2730.05 1084.39 2730.74 1095.89 2730.35 1097.56 2722.23 1091.63 2717.25 1085.46 2696.36 1079.59 2696.36 1079.59 2680.43 1074.38 2688.08 1090.35 2693.21 1101.02 2699.31 1102.36 2706.78 1117.29 2714.23 1132.22 2728.02 1142.48 2740.36 1141.54L2753.61 1146 2767 1126.31 2758.39 1121.02C2754.81 1118.82 2752.12 1115.5 2750.48 1111.65Z" fill="#FFB27D" fill-rule="evenodd"/><path d="M1945 658 2730 658 2730 1788 1945 1788Z" fill="#FFFFFF" fill-rule="evenodd"/><path d="M2146 760 2504 760 2504 778 2146 778Z" fill="#F99746" fill-rule="evenodd"/><path d="M2100 803 2279 803 2279 822 2100 822Z" fill="#F99746" fill-rule="evenodd"/><path d="M2300 803 2563 803 2563 822 2300 822Z" fill="#F99746" fill-rule="evenodd"/><path d="M2119 1221 2505 1221 2505 1236 2119 1236Z" fill="#AEC3FF" fill-rule="evenodd"/><path d="M2323 1184 2596 1184 2596 1198 2323 1198Z" fill="#AEC3FF" fill-rule="evenodd"/><path d="M2028 1184 2295 1184 2295 1198 2028 1198Z" fill="#AEC3FF" fill-rule="evenodd"/><path d="M2334 1146 2569 1146 2569 1160 2334 1160Z" fill="#AEC3FF" fill-rule="evenodd"/><path d="M2055 1146 2290 1146 2290 1160 2055 1160Z" fill="#AEC3FF" fill-rule="evenodd"/><path d="M2375.59 1361 2261.42 1361C2256.24 1361 2252 1356.73 2252 1351.51L2252 1351.51C2252 1346.28 2256.24 1342 2261.42 1342L2375.59 1342C2380.77 1342 2385 1346.28 2385 1351.51L2385 1351.51C2385.01 1356.73 2380.77 1361 2375.59 1361Z" fill="#A8C3F7" fill-rule="evenodd"/><path d="M2533.65 1361 2420.35 1361C2415.21 1361 2411 1356.73 2411 1351.51L2411 1351.51C2411 1346.28 2415.21 1342 2420.35 1342L2533.65 1342C2538.79 1342 2543 1346.28 2543 1351.51L2543 1351.51C2543 1356.73 2538.79 1361 2533.65 1361Z" fill="#A8C3F7" fill-rule="evenodd"/><path d="M2395 1610C2338.75 1610 2293 1564.02 2293 1507.51 2293 1450.98 2338.75 1405 2395 1405 2451.23 1405 2497 1450.98 2497 1507.51 2497 1564.02 2451.23 1610 2395 1610ZM2395 1410.17C2341.59 1410.17 2298.15 1453.83 2298.15 1507.51 2298.15 1561.18 2341.59 1604.84 2395 1604.84 2448.41 1604.84 2491.85 1561.18 2491.85 1507.51 2491.85 1453.83 2448.41 1410.17 2395 1410.17Z" fill="#A8C3F7" fill-rule="evenodd"/><path d="M2395.01 1590C2349.79 1590 2313 1552.99 2313 1507.51 2313 1462.01 2349.79 1425 2395.01 1425 2440.21 1425 2477 1462.01 2477 1507.51 2477 1552.99 2440.21 1590 2395.01 1590ZM2395.01 1430.17C2352.62 1430.17 2318.14 1464.86 2318.14 1507.51 2318.14 1550.14 2352.62 1584.85 2395.01 1584.85 2437.39 1584.85 2471.88 1550.14 2471.88 1507.51 2471.88 1464.86 2437.39 1430.17 2395.01 1430.17Z" fill="#A8C3F7" fill-rule="evenodd"/><path d="M2396.19 1539.28C2385.49 1542.73 2375.05 1544.54 2366.84 1543.86 2354.33 1542.82 2347.28 1536.27 2347.01 1525.43 2346.79 1516.82 2350.36 1509.28 2357.38 1503.17 2357.3 1502.59 2357.25 1501.99 2357.2 1501.4 2356.74 1495.33 2358.04 1491.31 2361.06 1489.43 2365.95 1486.38 2373.21 1490.54 2373.5 1490.73L2371.88 1493.49C2370.26 1492.54 2365.43 1490.47 2362.76 1492.15 2360.45 1493.59 2360.18 1497.56 2360.38 1500.78 2366.08 1496.66 2373.54 1493.3 2382.62 1490.84 2389.34 1489.02 2396.82 1487.81 2403.57 1487.27 2403.61 1486.51 2403.67 1485.84 2403.76 1485.28 2403.98 1483.8 2404.5 1482.05 2405.96 1481.7 2406.52 1481.57 2407.59 1481.6 2408.56 1483.06 2409.16 1483.99 2409.49 1485.34 2409.53 1486.95 2411.87 1486.9 2414.04 1486.95 2415.95 1487.08 2415.97 1487.05 2415.98 1487 2416 1486.96 2415.53 1483.15 2415.87 1478.68 2416.5 1475.78 2417.31 1472.07 2418.64 1470.2 2420.52 1470.01 2421.63 1469.91 2422.61 1470.5 2423.07 1471.58 2424.11 1474.1 2422.15 1480.91 2419.31 1487.43 2419.31 1487.44 2419.31 1487.45 2419.31 1487.47 2421.98 1487.92 2423.78 1488.65 2424.35 1489.69 2424.79 1490.46 2424.84 1491.65 2423.71 1492.69 2421.56 1494.68 2419.84 1494.17 2419.01 1493.7 2418.3 1493.3 2417.74 1492.62 2417.29 1491.73 2415.14 1495.98 2412.79 1499.61 2410.96 1501.15 2409.26 1502.57 2407.77 1502.01 2407.21 1501.7 2406.93 1501.52 2406.65 1501.31 2406.41 1501.04 2405.66 1502.83 2404.85 1504.55 2403.96 1506.09 2400.59 1512 2396.81 1515.03 2393.01 1514.84 2391.45 1514.77 2390.07 1514.15 2388.9 1513.02 2386.8 1517.58 2384.17 1521.91 2381.53 1525.13 2378.86 1528.43 2375.46 1529.64 2371.93 1528.53 2365.7 1526.59 2360.07 1517.58 2357.96 1506.91 2352.63 1512.11 2350.04 1518.27 2350.21 1525.34 2350.46 1534.59 2356.14 1539.74 2367.11 1540.66 2394.78 1542.96 2443.31 1517.26 2447 1498.35L2447 1498.35C2444.01 1513.73 2420.98 1531.25 2396.19 1539.28ZM2360.78 1504.45C2362.47 1515.71 2368.11 1523.98 2372.9 1525.48 2375.14 1526.17 2377.22 1525.38 2379.05 1523.12 2382.16 1519.28 2384.85 1514.53 2386.78 1509.91 2386.22 1508.71 2385.77 1507.32 2385.44 1505.72 2384.66 1502.01 2384.54 1496.92 2385.45 1493.42 2380.28 1494.7 2375.1 1496.43 2370.3 1498.69 2366.63 1500.42 2363.45 1502.35 2360.78 1504.45ZM2390.33 1509.71C2391.02 1510.76 2391.93 1511.58 2393.16 1511.64 2395.58 1511.74 2398.51 1509.16 2401.16 1504.51 2402.55 1502.09 2403.65 1499.51 2404.48 1497.04 2403.94 1495.03 2403.67 1492.67 2403.57 1490.5 2400.01 1490.79 2396.14 1491.27 2392.13 1492 2394.22 1496.05 2393.01 1502.9 2390.33 1509.71ZM2407.83 1497.09C2408.34 1498.6 2408.78 1498.89 2408.78 1498.89 2410.59 1497.36 2412.63 1494.01 2414.5 1490.22 2412.97 1490.16 2411.25 1490.15 2409.39 1490.2 2409.13 1492.35 2408.58 1494.7 2407.83 1497.09ZM2388.98 1492.96C2388.16 1494.67 2387.57 1500.12 2388.56 1504.97 2390.18 1499.65 2390.51 1495.05 2388.98 1492.96ZM2420.61 1490.92C2420.62 1490.92 2420.62 1490.92 2420.63 1490.92 2420.62 1490.92 2420.62 1490.92 2420.61 1490.92ZM2420.14 1474.46C2419.85 1475.27 2419.58 1476.45 2419.37 1477.82 2419.75 1476.5 2420.01 1475.35 2420.14 1474.46Z" fill="#A8C3F7" fill-rule="evenodd"/><path d="M2097 1050 2528 1050 2528 1064 2097 1064Z" fill="#AEC3FF" fill-rule="evenodd"/><path d="M2324 1012 2629 1012 2629 1026 2324 1026Z" fill="#AEC3FF" fill-rule="evenodd"/><path d="M1995 1012 2293 1012 2293 1026 1995 1026Z" fill="#AEC3FF" fill-rule="evenodd"/><path d="M2337 974 2599 974 2599 988 2337 988Z" fill="#AEC3FF" fill-rule="evenodd"/><path d="M2025 974 2288 974 2288 988 2025 988Z" fill="#AEC3FF" fill-rule="evenodd"/><path d="M3070.63 1076.36C3070.63 1076.36 3136.52 1329.34 2936.19 1287.28 2882.1 1275.93 2738 1132.02 2738 1132.02 2738 1132.02 2751.88 1110.09 2768.94 1112.42 2768.94 1112.42 2908.16 1157.79 2930.42 1174.21 2942.75 1183.3 2956.83 1039.98 2999.47 1042.02 3042.11 1044.06 3070.63 1076.36 3070.63 1076.36Z" fill="#91CECF" fill-rule="evenodd"/><path d="M3161 2145.24C3161 2145.24 3157.31 2205.03 3145.81 2205.89 3144.29 2206 3087.51 2206 3087.51 2206L3015 2205.58C3015 2205.58 3015.48 2188.01 3036.67 2184.29 3057.86 2180.58 3093.33 2165.6 3106.17 2137.41 3119.66 2107.77 3161 2145.24 3161 2145.24Z" fill="#163560" fill-rule="evenodd"/><path d="M3166 2149.62C3166 2149.62 3143.86 2157 3126.58 2157 3107.31 2157 3089.79 2151.77 3089.79 2151.77 3089.79 2151.77 3085.63 2111.65 3062.7 2023.25 3050.67 1976.93 3033.51 1917.36 3009.08 1843.33 2941.55 1638.76 2921.01 1519.09 2919.14 1507.75 2919.04 1507.15 2919 1506.86 2919 1506.86L2919.21 1506.76 3126.85 1416C3126.85 1416 3101.18 1697.95 3133.91 1806.18 3138.5 1821.31 3142.43 1838.93 3145.8 1858.02 3166.47 1975.58 3166 2149.62 3166 2149.62Z" fill="#2B478B" fill-rule="evenodd"/><path d="M3145 1857.84 3062.51 2023C3050.57 1976.69 3033.53 1917.15 3009.29 1843.15 2942.24 1638.67 2921.86 1519.05 2920 1507.71 2920.03 1507.38 2920.04 1507.05 2920.07 1506.72L3126.18 1416C3126.18 1416 3100.71 1697.83 3133.2 1806.02 3137.75 1821.14 3141.66 1838.75 3145 1857.84Z" fill="#233862" fill-rule="evenodd"/><path d="M3000 2145.24C3000 2145.24 2996.31 2205.03 2984.82 2205.89 2983.29 2206 2926.5 2206 2926.5 2206L2854 2205.58C2854 2205.58 2854.47 2188.01 2875.66 2184.29 2896.86 2180.58 2932.33 2165.6 2945.17 2137.41 2958.67 2107.77 3000 2145.24 3000 2145.24Z" fill="#163560" fill-rule="evenodd"/><path d="M2882.06 1422C2882.06 1422 2879.37 1604.79 2911.01 1829.23 2942.64 2053.67 2931.92 2148.94 2931.92 2148.94 2931.92 2148.94 2953.65 2155.98 2962.43 2156.7 2984.78 2158.52 3007.69 2151.45 3007.69 2151.45 3007.69 2151.45 3052.98 1926.94 3039.99 1814.6 3027.01 1702.27 3102 1429.11 3102 1429.11L2882.06 1422Z" fill="#2B478B" fill-rule="evenodd"/><path d="M3033 987.156 2996.94 1019 2938 1016.39C2938.14 1011.61 2939.22 991.749 2940.21 973.757 2940.28 972.696 2940.34 971.634 2940.4 970.597 2941.26 955.283 2942.02 942.128 2942.02 942.128L2992.32 910.712 3011.06 899C3011.06 899.32 3011.84 915.748 3011.96 918.145 3014.12 960.711 3033 987.156 3033 987.156Z" fill="#FFB27D" fill-rule="evenodd"/><path d="M2870.08 1430.38C2870.91 1526.94 2877.35 1752.84 2882.08 1757.43 2932.41 1805.97 3153.72 1744.12 3165.46 1690.64 3177.18 1637.15 3120.86 1004.85 3034.92 979.598 3017.09 974.368 2921.74 1005.18 2921.74 1005.18 2921.74 1005.18 2906.8 1044.27 2896.99 1094.09 2893.36 1112.55 2881.49 1244.25 2874.56 1332.26 2872.73 1355.71 2871.23 1376.07 2870.35 1390.34 2869.99 1396.23 2869.92 1410.61 2870.08 1430.38Z" fill="#ABDDDA" fill-rule="evenodd"/><path d="M3008.05 919.461C2999.07 941.295 2957.47 964.983 2940 974 2940.06 972.934 2940.12 971.867 2940.19 970.826 2941.05 955.444 2941.81 942.231 2941.81 942.231L2992.28 910.677C3004.15 908.822 3011.77 910.473 3008.05 919.461Z" fill="#FCA56B" fill-rule="evenodd"/><path d="M2923.22 944.551C2923.22 944.551 3014.63 953.062 3019.04 895.976 3023.47 838.891 3038.23 801.543 2980.06 793.695 2921.89 785.848 2908.85 806.75 2902.75 825.445 2896.65 844.14 2899.56 940.865 2923.22 944.551Z" fill="#FFB27D" fill-rule="evenodd"/><path d="M2905.07 819.397C2905.07 819.397 2923.76 880.802 2936.05 875.332 2948.32 869.861 2959.57 865.35 2961.67 884.616 2963.79 903.881 2950.55 929.48 2990.9 924.33 3031.25 919.18 3066.48 804.133 3051.47 786.992 3008.16 737.533 2845.17 760.577 2905.07 819.397Z" fill="#163560" fill-rule="evenodd"/><path d="M2945.33 980.886C2946.47 980.411 3010.63 951.678 3018.14 954.151 3025.64 956.624 3035 979.502 3035 979.502L2922 1005C2922 1005 2930.89 986.953 2945.33 980.886Z" fill="#91CECF" fill-rule="evenodd"/><path d="M2870.1 1499C3042.59 1374.83 3056 1178 3056 1178 2973.93 1224.09 2896 1300.29 2870.71 1384.03 2868.89 1407.44 2871.26 1444.82 2870.38 1459.05 2870.02 1464.94 2869.94 1479.27 2870.1 1499Z" fill="#91CECF" fill-rule="evenodd"/><path d="M2762.33 1435.72C2762.33 1435.72 2760.16 1433.99 2755.34 1433.61 2751.18 1432.21 2739.57 1427.1 2737.59 1425.29 2731.28 1419.56 2729.07 1425.65 2733.47 1431.73 2734.43 1433.04 2737.83 1435.28 2739.02 1436.54 2729.59 1440.11 2717.01 1447.46 2700.66 1461.81 2700.66 1461.81 2687.58 1472.37 2705.25 1474.67 2717.07 1476.2 2721.53 1471.8 2738.22 1473.7 2754.91 1475.61 2771.1 1469.63 2777.02 1458.74L2788 1450.04 2778.65 1427.97 2762.33 1435.72Z" fill="#FFB27D" fill-rule="evenodd"/><path d="M2982.94 1010.03C2982.94 1010.03 3164.43 1001.32 3000.29 1306.26 2974.05 1355.03 2786.47 1461 2786.47 1461 2786.47 1461 2768.84 1441.94 2775.5 1426 2775.5 1426 2897.65 1287.19 2914.02 1281.55 2928.54 1276.54 2925.54 1107.53 2938.53 1066.77 2951.52 1026.01 2982.94 1010.03 2982.94 1010.03Z" fill="#ABDDDA" fill-rule="evenodd"/><path d="M2768.81 2203 2637.47 2202.96 2568 2202.94C2541.04 2202.93 2518.99 2180.84 2519 2153.84L2519.15 1668.05C2519.15 1641.06 2541.21 1618.99 2568.18 1619L2629.79 1619.01 2768.99 1619.05C2795.95 1619.05 2818 1641.15 2818 1668.15L2817.85 2153.94C2817.84 2180.92 2795.79 2203 2768.81 2203Z" fill="#C0D8FB" fill-rule="evenodd" fill-opacity="0.501961"/><path d="M2795.95 2065.1 2792.46 2039.6 2792.46 2039.6 2788.99 2014.09C2788.1 2007.59 2784.61 2002.03 2779.74 1998.32 2774.86 1994.62 2768.58 1992.75 2762.07 1993.64 2761.34 1993.74 2760.63 1993.89 2759.94 1994.04 2762.33 1990.59 2763.69 1986.7 2764.06 1982.75 2768.48 1993.37 2780.12 1999.57 2791.66 1996.82 2804.45 1993.75 2812.41 1980.8 2809.34 1968.01L2803.35 1942.98 2803.35 1942.98 2797.35 1917.94C2795.82 1911.57 2791.82 1906.38 2786.59 1903.18 2781.37 1899.97 2774.93 1898.74 2768.54 1900.28 2755.75 1903.33 2747.8 1916.3 2750.86 1929.07L2759.89 1966.79C2758.52 1964.82 2756.84 1963.03 2754.84 1961.5 2750.72 1958.35 2745.88 1956.77 2741.03 1956.63 2743.4 1953.58 2744.96 1950.01 2745.65 1946.29 2746.54 1941.41 2745.93 1936.29 2743.69 1931.63 2746.4 1922.68 2743.69 1912.54 2736.06 1906.24L2696.36 1873.44C2686.23 1865.08 2671.09 1866.51 2662.71 1876.64 2654.96 1886.02 2655.62 1899.66 2663.78 1908.28 2661.68 1908.27 2659.54 1908.51 2657.42 1909.1L2632.57 1915.89 2632.57 1915.89 2607.73 1922.68C2599.09 1925.04 2592.85 1931.92 2590.83 1940.09L2588.23 1933.84 2588.23 1933.84 2578.31 1910.1C2573.23 1897.97 2559.17 1892.2 2547.03 1897.26 2534.91 1902.33 2529.12 1916.38 2534.19 1928.52L2544.11 1952.26 2544.11 1952.26 2550.48 1967.48C2542.05 1970.84 2535.86 1978.86 2535.38 1988.47L2534.08 2014.16 2534.08 2014.16 2532.77 2039.88C2532.45 2046.43 2534.83 2052.54 2538.94 2057.08 2543.04 2061.62 2548.87 2064.61 2555.44 2064.95 2558.24 2065.08 2560.96 2064.71 2563.51 2063.93 2561.04 2068.9 2560.34 2074.63 2561.62 2080.08 2557.2 2082.62 2553.56 2086.55 2551.47 2091.59L2541.64 2115.37 2541.64 2115.37 2531.8 2139.17C2529.29 2145.23 2529.49 2151.79 2531.84 2157.44 2534.19 2163.1 2538.69 2167.86 2544.77 2170.37 2554.25 2174.29 2564.85 2171.58 2571.47 2164.44 2573.02 2168.12 2575.51 2171.47 2578.9 2174.05 2589.34 2182.05 2604.41 2180.04 2612.4 2169.61L2628.05 2149.17 2628.05 2149.17 2643.71 2128.73C2645.84 2125.95 2647.23 2122.85 2647.97 2119.62 2653.41 2120.18 2659.06 2118.89 2663.89 2115.56L2668 2112.73 2662.32 2120.15 2662.32 2120.15 2646.66 2140.59C2638.68 2151.03 2640.68 2166.08 2651.13 2174.08 2661.57 2182.07 2676.64 2180.07 2684.63 2169.63L2700.28 2149.2 2700.28 2149.2 2715.94 2128.75C2716.14 2128.48 2716.31 2128.21 2716.5 2127.94 2717.76 2129.98 2719.31 2131.78 2721.08 2133.32L2715.51 2140.6C2707.51 2151.04 2709.51 2166.11 2719.96 2174.1 2730.4 2182.09 2745.48 2180.09 2753.46 2169.64L2784.77 2128.77C2788.76 2123.55 2790.26 2117.18 2789.46 2111.1 2788.65 2105.03 2785.55 2099.26 2780.32 2095.27 2778.54 2093.9 2776.61 2092.85 2774.61 2092.06 2774.91 2092.04 2775.19 2092.04 2775.49 2091.99 2788.52 2090.22 2797.73 2078.13 2795.95 2065.1ZM2580.53 2042.3 2580.97 2033.53C2582.48 2036.08 2584.47 2038.39 2586.95 2040.29 2587.89 2041.01 2588.87 2041.61 2589.87 2042.17L2578.92 2049.72C2579.82 2047.39 2580.39 2044.91 2580.53 2042.3ZM2741.61 2020.55 2746.28 2054.84C2744.26 2050.72 2741.12 2047.33 2737.32 2045.01 2732.7 2042.17 2727.13 2040.89 2721.48 2041.7 2723.91 2040.2 2726.15 2038.28 2727.98 2035.88L2741.43 2018.32C2741.45 2019.07 2741.51 2019.81 2741.61 2020.55ZM2687.24 1927.91 2693.26 1932.89 2687.07 1937.16C2687.71 1934.17 2687.81 1931.05 2687.24 1927.91ZM2692.43 2003.67C2691.83 1999.96 2690.36 1996.5 2688.2 1993.53 2689.98 1992.86 2691.72 1992 2693.35 1990.88L2712.18 1977.89 2692.43 2003.67ZM2708.07 2048.38C2703.02 2044.17 2696.47 2042.24 2690.05 2042.95L2690.55 2036.51C2691.69 2037.91 2692.99 2039.19 2694.47 2040.33 2699.76 2044.38 2706.24 2045.85 2712.39 2044.97 2710.81 2045.93 2709.36 2047.1 2708.07 2048.38ZM2659.91 1957.95C2654.66 1965.86 2654.39 1976.51 2660.1 1984.77 2660.2 1984.92 2660.32 1985.06 2660.42 1985.21 2658.69 1985.87 2657.03 1986.71 2655.51 1987.75 2656.6 1984.35 2656.92 1980.77 2656.45 1977.3 2655.65 1971.23 2652.55 1965.46 2647.32 1961.47 2647.29 1961.45 2647.27 1961.44 2647.24 1961.43L2659.91 1957.95ZM2636.12 2015.41 2645.34 2003.36C2645.21 2004.11 2645.11 2004.86 2645.04 2005.63L2643.29 2027.74C2639.84 2024.61 2635.61 2022.62 2631.15 2021.9L2636.12 2015.41 2636.12 2015.41ZM2592.96 2116.39 2595.65 2109.85C2597.63 2105.07 2597.92 2100.01 2596.8 2095.31 2597.35 2095 2597.9 2094.68 2598.42 2094.31L2640.83 2065.08C2641.1 2064.9 2641.35 2064.69 2641.61 2064.49 2642.19 2066.81 2643.1 2069.01 2644.3 2071.03L2636.76 2076.23C2631.68 2079.73 2628.41 2084.89 2627.1 2090.48 2619.14 2089.72 2610.94 2092.9 2605.75 2099.68L2592.96 2116.39ZM2705.43 2086.94 2706.76 2092.47C2704.62 2091.51 2702.39 2090.89 2700.13 2090.59L2705.43 2086.94ZM2755.92 2092.52 2754.08 2084.82 2754.08 2084.82 2753.74 2083.35C2756.32 2086.53 2759.68 2089.01 2763.5 2090.53 2760.89 2090.78 2758.33 2091.43 2755.92 2092.52ZM2611.13 1969.43 2598.15 1986.37 2598.15 1986.37 2582.5 2006.8C2582.43 2006.89 2582.38 2007 2582.31 2007.08L2583.12 1990.89C2583.15 1990.47 2583.12 1990.06 2583.12 1989.65 2583.86 1989.42 2584.59 1989.16 2585.31 1988.86 2595.05 1984.8 2600.67 1974.94 2599.92 1964.95 2603.19 1967.34 2607.05 1968.91 2611.13 1969.43Z" fill="#AFCDFB" fill-rule="evenodd"/><path d="M2636.64 2203 2567.66 2202.98C2540.88 2202.96 2518.99 2180.88 2519 2153.87L2519.15 1668.05C2519.15 1641.06 2541.06 1618.98 2567.83 1619L2629.01 1619.01C2634.06 1627.75 2637.01 1638.19 2637 1649.36L2636.84 2198.1C2636.84 2199.75 2636.78 2201.39 2636.64 2203Z" fill="#AFCDFB" fill-rule="evenodd" fill-opacity="0.501961"/><path d="M2814.43 1642 2627.6 1641.95 2521.54 1641.91C2516.29 1641.91 2512 1637.61 2512 1632.35L2512.01 1586.55C2512.01 1581.29 2516.31 1576.99 2521.57 1577L2627.46 1577.03C2627.47 1577.03 2627.47 1577.03 2627.49 1577.03L2814.46 1577.09C2819.71 1577.09 2824.01 1581.38 2824 1586.64L2823.99 1632.45C2823.99 1637.71 2819.7 1642.01 2814.43 1642Z" fill="#F99746" fill-rule="evenodd"/><path d="M2627.59 1642 2521.54 1641.96C2516.29 1641.96 2512 1637.66 2512 1632.39L2512.01 1586.56C2512.01 1581.29 2516.31 1576.99 2521.57 1577L2627.46 1577.03C2627.47 1577.03 2627.47 1577.03 2627.48 1577.03 2632.71 1577.04 2637 1581.34 2637 1586.59L2636.99 1632.43C2636.98 1637.66 2632.77 1641.93 2627.59 1642Z" fill="#EF7E29" fill-rule="evenodd"/><path d="M3501 2174C3501 2182.79 3497.39 2190.79 3491.56 2196.59 3485.73 2202.39 3477.7 2206 3468.87 2206L3317.13 2206C3299.46 2206 3285 2191.59 3285 2174 3285 2165.19 3288.62 2157.2 3294.44 2151.4 3300.26 2145.61 3308.29 2142 3317.13 2142L3468.87 2142C3486.54 2142 3501 2156.4 3501 2174Z" fill="#EF7E29" fill-rule="evenodd"/><path d="M3423 2174C3423 2182.79 3419.38 2190.79 3413.56 2196.59 3407.71 2202.39 3399.66 2206 3390.81 2206L3317.2 2206C3299.49 2206 3285 2191.59 3285 2174 3285 2165.19 3288.63 2157.2 3294.46 2151.4 3300.29 2145.61 3308.34 2142 3317.2 2142L3390.81 2142C3408.52 2142 3423 2156.4 3423 2174Z" fill="#F99746" fill-rule="evenodd"/><path d="M3471.47 2159 3327.54 2159C3325.04 2159 3323 2156.98 3323 2154.51L3323 2153.5C3323 2151.02 3325.04 2149 3327.54 2149L3471.47 2149C3473.96 2149 3476 2151.02 3476 2153.5L3476 2154.51C3476 2156.98 3473.96 2159 3471.47 2159Z" fill="#FFE2CC" fill-rule="evenodd" fill-opacity="0.501961"/><path d="M2116 1330.53 2116 1783.46C2116 1811.24 2093.29 1834 2065.5 1834L1796.49 1834C1789.3 1834 1782.45 1832.48 1776.22 1829.72 1758.47 1821.87 1746 1804.05 1746 1783.46L1746 1330.53C1746 1302.73 1768.73 1280 1796.49 1280L2065.5 1280C2093.29 1280 2116 1302.73 2116 1330.53Z" fill="#FCECDB" fill-rule="evenodd"/><path d="M1996.67 1450.48C1968.23 1439.8 1953.85 1408.1 1964.53 1379.67 1975.2 1351.25 2006.89 1336.85 2035.33 1347.53 2063.75 1358.2 2078.15 1389.91 2067.48 1418.33 2056.8 1446.76 2025.09 1461.15 1996.67 1450.48Z" fill="#F7E0CB" fill-rule="evenodd"/><path d="M2067.5 1418 1965 1379.51C1975.62 1351.21 2007.17 1336.88 2035.49 1347.5 2063.79 1358.14 2078.12 1389.7 2067.5 1418Z" fill="#EFCBAB" fill-rule="evenodd"/><path d="M1811.23 1441.61C1787.68 1422.39 1784.19 1387.75 1803.39 1364.22 1822.6 1340.7 1857.24 1337.18 1880.78 1356.39 1904.31 1375.61 1907.81 1410.26 1888.6 1433.79 1869.4 1457.31 1834.74 1460.81 1811.23 1441.61Z" fill="#F7E0CB" fill-rule="evenodd"/><path d="M1888.55 1434 1803 1364.27C1822.29 1340.69 1857.06 1337.17 1880.7 1356.42 1904.32 1375.68 1907.84 1410.41 1888.55 1434Z" fill="#EFCBAB" fill-rule="evenodd"/><path d="M1996.67 1785.47C1968.23 1774.79 1953.85 1743.1 1964.53 1714.68 1975.2 1686.25 2006.89 1671.85 2035.33 1682.53 2063.75 1693.2 2078.15 1724.91 2067.48 1753.34 2056.8 1781.76 2025.09 1796.15 1996.67 1785.47Z" fill="#F7E0CB" fill-rule="evenodd"/><path d="M2067.5 1757 1965 1718.51C1975.62 1690.22 2007.17 1675.88 2035.49 1686.51 2063.79 1697.14 2078.12 1728.7 2067.5 1757Z" fill="#EFCBAB" fill-rule="evenodd"/><path d="M1811.23 1776.61C1787.68 1757.39 1784.19 1722.75 1803.39 1699.22 1822.6 1675.69 1857.24 1672.19 1880.78 1691.4 1904.31 1710.61 1907.81 1745.26 1888.6 1768.79 1869.4 1792.31 1834.74 1795.81 1811.23 1776.61Z" fill="#F7E0CB" fill-rule="evenodd"/><path d="M1888.55 1773 1803 1703.27C1822.29 1679.68 1857.06 1676.17 1880.7 1695.43 1904.32 1714.68 1907.84 1749.42 1888.55 1773Z" fill="#EFCBAB" fill-rule="evenodd"/><path d="M2039.55 1622.69C2012.1 1635.7 1979.32 1623.98 1966.31 1596.54 1953.31 1569.11 1965 1536.32 1992.45 1523.3 2019.9 1510.31 2052.7 1522.02 2065.69 1549.45 2078.7 1576.89 2066.99 1609.69 2039.55 1622.69Z" fill="#F7E0CB" fill-rule="evenodd"/><path d="M2066 1549.24 1966.33 1596C1953.28 1568.75 1965.01 1536.2 1992.54 1523.27 2020.07 1510.36 2052.97 1521.99 2066 1549.24Z" fill="#EFCBAB" fill-rule="evenodd"/><path d="M1794.95 1552.57C1806.23 1524.36 1838.24 1510.67 1866.43 1521.95 1894.62 1533.24 1908.33 1565.23 1897.05 1593.43 1885.77 1621.62 1853.76 1635.33 1825.56 1624.05 1797.37 1612.77 1783.67 1580.76 1794.95 1552.57Z" fill="#F7E0CB" fill-rule="evenodd"/><path d="M1825 1624.05 1866.17 1522C1894.57 1533.28 1908.39 1565.26 1897.02 1593.45 1885.66 1621.63 1853.4 1635.33 1825 1624.05Z" fill="#EFCBAB" fill-rule="evenodd"/><path d="M2116 1393 2116 1786.7C2116 1812.7 2095.21 1834 2069.78 1834L1823.55 1834C1816.97 1834 1810.69 1832.57 1805 1829.99L1805 1447.49C1805 1431.85 1811.53 1417.7 1821.94 1407.73 1825.78 1404.06 1830.16 1400.94 1834.95 1398.53 1842 1394.99 1849.91 1393 1858.26 1393L2116 1393Z" fill="#EFCBAB" fill-rule="evenodd" fill-opacity="0.501961"/><path d="M1814 1898.47 1814 1445.54C1814 1417.74 1836.73 1395 1864.5 1395L2133.5 1395C2161.27 1395 2184 1417.74 2184 1445.54L2184 1898.47C2184 1926.27 2161.27 1949 2133.5 1949L1864.5 1949C1836.73 1949 1814 1926.27 1814 1898.47Z" fill="#FCECDB" fill-rule="evenodd"/><path d="M2064.67 1565.47C2036.23 1554.79 2021.85 1523.1 2032.53 1494.68 2043.2 1466.25 2074.89 1451.85 2103.33 1462.53 2131.75 1473.2 2146.15 1504.91 2135.48 1533.34 2124.8 1561.76 2093.09 1576.15 2064.67 1565.47Z" fill="#F7E0CB" fill-rule="evenodd"/><path d="M2135.5 1533 2033 1494.51C2043.62 1466.22 2075.17 1451.88 2103.49 1462.51 2131.79 1473.14 2146.12 1504.7 2135.5 1533Z" fill="#EFCBAB" fill-rule="evenodd"/><path d="M1879.22 1556.61C1855.68 1537.39 1852.19 1502.75 1871.39 1479.22 1890.6 1455.69 1925.24 1452.19 1948.78 1471.4 1972.3 1490.6 1975.82 1525.26 1956.61 1548.79 1937.4 1572.31 1902.75 1575.81 1879.22 1556.61Z" fill="#F7E0CB" fill-rule="evenodd"/><path d="M1956.56 1549 1871 1479.27C1890.29 1455.69 1925.06 1452.17 1948.7 1471.42 1972.32 1490.67 1975.85 1525.41 1956.56 1549Z" fill="#EFCBAB" fill-rule="evenodd"/><path d="M2064.67 1900.47C2036.23 1889.8 2021.85 1858.1 2032.53 1829.68 2043.2 1801.25 2074.89 1786.85 2103.33 1797.53 2131.75 1808.2 2146.15 1839.91 2135.48 1868.34 2124.8 1896.75 2093.09 1911.15 2064.67 1900.47Z" fill="#F7E0CB" fill-rule="evenodd"/><path d="M2135.5 1872 2033 1833.52C2043.62 1805.22 2075.17 1790.88 2103.49 1801.51 2131.79 1812.13 2146.12 1843.69 2135.5 1872Z" fill="#EFCBAB" fill-rule="evenodd"/><path d="M1936.2 1799.17C1963.91 1811.59 1976.31 1844.12 1963.89 1871.83 1951.47 1899.54 1918.94 1911.93 1891.23 1899.51 1863.52 1887.09 1851.12 1854.56 1863.54 1826.85 1875.96 1799.14 1908.49 1786.75 1936.2 1799.17Z" fill="#F7E0CB" fill-rule="evenodd"/><path d="M1956.56 1888 1871 1818.28C1890.29 1794.69 1925.06 1791.16 1948.7 1810.43 1972.32 1829.68 1975.85 1864.42 1956.56 1888Z" fill="#EFCBAB" fill-rule="evenodd"/><path d="M2107.55 1737.68C2080.1 1750.7 2047.32 1738.98 2034.31 1711.55 2021.31 1684.11 2033 1651.33 2060.45 1638.31 2087.89 1625.31 2120.68 1637.01 2133.69 1664.44 2146.7 1691.88 2134.99 1724.68 2107.55 1737.68Z" fill="#F7E0CB" fill-rule="evenodd"/><path d="M2134 1664.22 2034.33 1711C2021.28 1683.75 2033.01 1651.2 2060.54 1638.27 2088.06 1625.36 2120.95 1636.98 2134 1664.22Z" fill="#EFCBAB" fill-rule="evenodd"/><path d="M1862.95 1667.57C1874.24 1639.36 1906.24 1625.67 1934.43 1636.95 1962.62 1648.24 1976.33 1680.23 1965.05 1708.43 1953.76 1736.62 1921.76 1750.33 1893.57 1739.05 1865.38 1727.77 1851.67 1695.76 1862.95 1667.57Z" fill="#F7E0CB" fill-rule="evenodd"/><path d="M1893 1739.05 1934.17 1637C1962.57 1648.28 1976.39 1680.26 1965.02 1708.45 1953.65 1736.63 1921.4 1750.33 1893 1739.05Z" fill="#EFCBAB" fill-rule="evenodd"/><path d="M1720 1576 2142 1576 2142 2206 1720 2206Z" fill="#EF7E29" fill-rule="evenodd"/><path d="M1779 1576 2201 1576 2201 2206 1779 2206Z" fill="#F99746" fill-rule="evenodd"/><path d="M1779 1612.55 1758.7 1644 1720 1644 1720 1576 1779 1576Z" fill="#D8661A" fill-rule="evenodd"/><path d="M1742.89 1625 1684 1625 1720.11 1576 1779 1576Z" fill="#F99746" fill-rule="evenodd"/><path d="M1997 2208 1779 2208 1779 1604 1997 1624.94Z" fill="#EFCBAB" fill-rule="evenodd" fill-opacity="0.501961"/><path d="M2201 1625.61 2166.76 1644 1799.34 1644 1779 1612.55 1779 1576Z" fill="#EF7E29" fill-rule="evenodd"/><path d="M2231 1625 1808.82 1625 1779 1576 2201.18 1576Z" fill="#F99746" fill-rule="evenodd"/><path d="M1303.36 1413.22C1292.18 1377.27 1243.53 1370.52 1223.95 1402.69 1220.43 1408.47 1218.21 1415.12 1218.01 1422.73 1216.93 1464.89 1300 1628.09 1311.02 1642.52 1331.1 1668.8 1452.26 1732 1452.26 1732L1478 1728.25C1478 1728.25 1463.44 1719.09 1448.38 1704.04 1417.25 1672.93 1371.86 1622.34 1363.55 1615.34 1349.28 1603.31 1324.6 1481.49 1303.36 1413.22Z" fill="#ED985F" fill-rule="evenodd"/><path d="M2023.8 2205 1471.2 2205C1436.99 2205 1409 2177.01 1409 2142.79L1409 1808.21C1409 1774 1436.99 1746 1471.2 1746L2023.8 1746C2058.01 1746 2086 1773.99 2086 1808.21L2086 2142.79C2086 2177.01 2058.01 2205 2023.8 2205Z" fill="#FCECDB" fill-rule="evenodd"/><path d="M1616.71 1893.9C1603.7 1929.06 1565.09 1946.83 1530.46 1933.65 1495.83 1920.45 1478.29 1881.27 1491.29 1846.1 1504.3 1810.96 1542.92 1793.16 1577.55 1806.35 1612.17 1819.55 1629.71 1858.75 1616.71 1893.9Z" fill="#F7E0CB" fill-rule="evenodd"/><path d="M1577 1806.36 1530.19 1934C1495.78 1920.77 1478.34 1881.48 1491.27 1846.22 1504.19 1810.99 1542.58 1793.14 1577 1806.36Z" fill="#EFCBAB" fill-rule="evenodd"/><path d="M1605.91 2124.01C1582.49 2153.1 1540.29 2157.42 1511.63 2133.67 1482.97 2109.93 1478.7 2067.1 1502.1 2038 1525.49 2008.91 1567.72 2004.58 1596.37 2028.33 1625.03 2052.07 1629.3 2094.91 1605.91 2124.01Z" fill="#F7E0CB" fill-rule="evenodd"/><path d="M1596 2028.37 1511.55 2134C1482.99 2110.19 1478.72 2067.25 1502.05 2038.07 1525.36 2008.9 1567.44 2004.55 1596 2028.37Z" fill="#EFCBAB" fill-rule="evenodd"/><path d="M2026.71 1893.9C2013.69 1929.06 1975.08 1946.83 1940.46 1933.65 1905.83 1920.45 1888.29 1881.27 1901.29 1846.1 1914.3 1810.96 1952.93 1793.16 1987.54 1806.35 2022.17 1819.55 2039.71 1858.75 2026.71 1893.9Z" fill="#F7E0CB" fill-rule="evenodd"/><path d="M1988 1806.36 1940.68 1934C1905.87 1920.77 1888.24 1881.48 1901.31 1846.22 1914.39 1810.99 1953.21 1793.14 1988 1806.36Z" fill="#EFCBAB" fill-rule="evenodd"/><path d="M2015.9 2124C1993.3 2152.11 1953.17 2157.1 1924.63 2136 1923.61 2135.28 1922.62 2134.49 1921.63 2133.68 1892.97 2109.93 1888.7 2067.11 1912.11 2037.99 1935.49 2008.91 1977.71 2004.58 2006.37 2028.33 2007.34 2029.14 2008.29 2029.96 2009.22 2030.82 2035.3 2054.97 2038.49 2095.9 2015.9 2124Z" fill="#F7E0CB" fill-rule="evenodd"/><path d="M2009 2030.82 1924.58 2136C1923.56 2135.28 1922.57 2134.49 1921.58 2133.68 1892.97 2109.94 1888.72 2067.1 1912.08 2037.99 1935.41 2008.91 1977.55 2004.58 2006.16 2028.33 2007.13 2029.15 2008.08 2029.96 2009 2030.82Z" fill="#EFCBAB" fill-rule="evenodd"/><path d="M1827.48 1840.88C1843.45 1874.83 1829.07 1915.36 1795.4 1931.43 1761.73 1947.51 1721.48 1933.06 1705.51 1899.12 1689.56 1865.2 1703.92 1824.65 1737.59 1808.57 1771.27 1792.48 1811.52 1806.95 1827.48 1840.88Z" fill="#F7E0CB" fill-rule="evenodd"/><path d="M1737.43 1808 1795 1931.4C1761.47 1947.55 1721.39 1933.04 1705.48 1898.95 1689.6 1864.88 1703.9 1824.15 1737.43 1808Z" fill="#EFCBAB" fill-rule="evenodd"/><path d="M1741.42 2144.11C1706.81 2130.15 1690 2090.59 1703.85 2055.74 1717.7 2020.89 1756.96 2003.93 1791.58 2017.88 1826.17 2031.84 1843 2071.41 1829.15 2106.26 1815.3 2141.12 1776.03 2158.07 1741.42 2144.11Z" fill="#F7E0CB" fill-rule="evenodd"/><path d="M1829.16 2106 1704 2055.62C1717.83 2020.87 1757.05 2003.96 1791.63 2017.87 1826.18 2031.78 1842.99 2071.25 1829.16 2106Z" fill="#EFCBAB" fill-rule="evenodd"/><path d="M1338.42 1207.72C1339.09 1205.02 1279.52 1234.62 1276.5 1237.97 1248.56 1268.92 1256.53 1309.33 1272.51 1309.71 1282.77 1309.96 1280.78 1327 1280.78 1327L1395 1278.72C1395 1278.72 1381.25 1198.61 1338.42 1207.72Z" fill="#B5453C" fill-rule="evenodd"/><path d="M1351.92 1213.46C1351.92 1213.46 1355.99 1169 1306.41 1169 1306.41 1169 1321.43 1173.08 1329.2 1181.25 1329.2 1181.25 1297.58 1162.65 1263.16 1191.23 1228.74 1219.82 1250.13 1291.51 1239.66 1305.12 1229.2 1318.73 1188.44 1321.45 1193.42 1365.47 1198.4 1409.47 1322.77 1464.6 1314.79 1501 1314.79 1501 1363.52 1429.22 1328.67 1396.46 1328.67 1396.46 1345.66 1412.49 1347.39 1431.55 1347.39 1431.55 1352 1394.35 1328.37 1382.45 1307.46 1371.91 1290.33 1333.4 1292.14 1326.52 1293.95 1319.63 1351.92 1213.46 1351.92 1213.46Z" fill="#B5453C" fill-rule="evenodd"/><path d="M1213 2174 1188.33 2170.37C1188.33 2170.37 1105.37 2104.4 1093.02 1981.33 1091.76 1968.81 1091.5 1956.08 1092.43 1943.28 1092.54 1941.79 1092.38 1940.31 1091.57 1939.08 1091.57 1939.06 1091.56 1939.05 1091.54 1939.04 1088.89 1934.96 1082.28 1924.77 1073.33 1910.25 1064.51 1895.95 1049.42 1868.94 1032.82 1838.6 1002.91 1783.98 968.082 1718.67 956.134 1697.86 918.074 1631.56 936.42 1586.97 936.42 1586.97 936.42 1586.97 1042.6 1576.47 1071.69 1551L1082.17 1567.17C1082.17 1567.17 1105.17 1669.07 1104.09 1669.54 1105.22 1673.01 1106.37 1676.53 1107.54 1680.12 1125.7 1736.19 1146.58 1806.27 1157.96 1863.35 1164.36 1895.46 1167.75 1923.44 1165.93 1942.51 1165.3 1949.04 1166.07 1959.09 1167.81 1971.5 1178.09 2044.63 1213 2174 1213 2174Z" fill="#2B478B" fill-rule="evenodd"/><path d="M1265 2205 1161.57 2205C1161.57 2205 1159.09 2189.39 1164.49 2177.55 1169.67 2166.17 1177.05 2165.82 1165.43 2148 1172.01 2154.7 1193.14 2157.48 1208.09 2155.48 1209.92 2158.42 1219.9 2178.16 1226.02 2182.51 1232.78 2187.33 1262.92 2185.62 1265 2205Z" fill="#233862" fill-rule="evenodd"/><path d="M1108 1680.3C1098.98 1730 1077.69 1812.69 1033.08 1839 1003.09 1784.31 968.176 1718.91 956.198 1698.06 918.038 1631.67 936.431 1587.02 936.431 1587.02 936.431 1587.02 1042.89 1576.51 1072.06 1551L1082.56 1567.19C1082.56 1567.19 1105.63 1669.23 1104.54 1669.71 1105.67 1673.17 1106.83 1676.7 1108 1680.3Z" fill="#233862" fill-rule="evenodd"/><path d="M1035.65 1595.07 1036 1575.82C997.601 1580.66 903.6 1530 903.6 1530 903.6 1530 863.428 1556.68 857.928 1632.88 855.245 1670.07 838.262 1827.36 836.385 1874.33 835.699 1891.35 835.472 1903.5 835.394 1908.36 835.403 1908.38 835.4 1908.39 835.399 1908.41 835.376 1909.88 834.68 1911.19 833.767 1912.37 825.822 1922.44 818.928 1933.14 812.96 1944.21 754.366 2053.08 785.008 2201 785.008 2201L798.614 2197.55C798.614 2197.55 848.159 2044.19 880.539 1977.87 886.035 1966.61 891.027 1957.86 895.203 1952.8 907.378 1938.04 920.216 1912.96 932.871 1882.77 956.791 1825.71 980.014 1750.42 996.575 1692.13 997.744 1692.34 1035.65 1595.07 1035.65 1595.07Z" fill="#2B478B" fill-rule="evenodd"/><path d="M1259.75 1466.83C1197.41 1452.44 1237.23 1364.29 1240.85 1365.84 1249.48 1364.07 1268.45 1348.81 1285.42 1319L1287.71 1321.01 1326 1354.78C1326 1354.78 1317.15 1367.92 1309.7 1380.79 1303.89 1390.86 1298.94 1400.78 1299.73 1404.2 1302.81 1406.64 1276.37 1470.67 1259.75 1466.83Z" fill="#FFB27D" fill-rule="evenodd"/><path d="M1299.49 1401C1299.49 1401 1310.51 1422.75 1316.4 1441.58 1322.28 1460.42 1337 1520.31 1337 1520.31 1337 1520.31 1306.64 1554.93 1264.41 1552.92 1264.41 1552.92 1241.71 1517.39 1249.71 1485.32 1257.71 1453.25 1299.49 1401 1299.49 1401Z" fill="#91CECF" fill-rule="evenodd"/><path d="M1326 1354.91C1326 1354.91 1317.15 1368.07 1309.7 1381 1285.9 1366.18 1285.87 1336.43 1287.71 1321L1326 1354.91Z" fill="#ED985F" fill-rule="evenodd"/><path d="M1327.62 1371.32C1327.62 1371.32 1269.86 1339.02 1290.43 1303.19 1311 1267.35 1317.4 1239.04 1355.14 1258.15 1392.89 1277.26 1392.15 1295.05 1388.18 1308.69 1384.21 1322.33 1343.18 1378.8 1327.62 1371.32Z" fill="#FFB27D" fill-rule="evenodd"/><path d="M1398.61 1287.55C1395.93 1271.67 1387.78 1270.15 1382.09 1271.21 1360.47 1235.85 1325.15 1249.65 1325.15 1249.65 1306.28 1273.07 1279 1277.07 1279 1277.07 1279 1277.07 1285.8 1289.57 1313.79 1297.3 1322.34 1299.67 1332.04 1298.24 1341.4 1295.12 1321.98 1305.83 1301.67 1309.93 1301.67 1309.93 1338.56 1313.27 1373.66 1279.91 1377.3 1276.35 1379 1281.52 1381.99 1292.34 1380.2 1300.25 1377.77 1311 1368.12 1330.48 1374.01 1333 1374.01 1333 1402.64 1311.35 1398.61 1287.55Z" fill="#B5453C" fill-rule="evenodd"/><path d="M867 2205 763.568 2205C763.568 2205 761.089 2189.32 766.491 2177.42 771.668 2166 779.777 2160.81 777.835 2147 784.407 2153.73 795.119 2161.27 810.072 2159.28 811.905 2162.22 821.899 2178.04 828.019 2182.42 834.779 2187.25 864.919 2185.53 867 2205Z" fill="#233862" fill-rule="evenodd"/><path d="M1267.12 1536.47C1253.88 1541.08 1235.29 1543.62 1216.27 1545.68 1189.2 1548.64 1161.24 1550.64 1146.6 1556.49 1143.74 1557.62 1135.42 1561.1 1127.07 1567.13L1127.07 1567.16C1127.07 1567.16 1126.87 1567.28 1126.5 1567.59 1123.73 1569.6 1120.97 1571.93 1118.43 1574.54 1114.54 1578.54 1111.15 1583.2 1108.98 1588.55 1103.61 1601.8 1110.72 1638.54 1115.28 1658.63 1117.12 1666.71 1113.3 1675.06 1105.93 1678.87 1095.64 1684.19 1085.52 1689.1 1075.58 1693.59 1075.05 1693.82 1074.54 1694.05 1074.01 1694.29 1074.11 1692.25 1074.14 1690.22 1074.14 1688.25 1074.16 1674.38 1072.4 1662.86 1072.4 1662.86 1069.95 1676.84 1060.73 1691.94 1052.13 1703.57 913.969 1758.96 817.437 1734.88 819.019 1707.28 824.469 1611.5 889.133 1530.02 889.133 1530.02 1009.73 1389.91 1253.69 1353.03 1253.69 1353.03 1253.69 1353.03 1265.37 1351.62 1279.46 1368.55 1299.75 1392.93 1300.75 1399.28 1300.75 1399.28 1300.75 1399.28 1306.11 1522.88 1267.12 1536.47Z" fill="#ABDDDA" fill-rule="evenodd"/><path d="M1216 1545.24C1189.02 1548.17 1161.17 1550.19 1146.58 1556 1140.62 1466.97 1182.66 1400 1182.66 1400 1182.66 1400 1210.09 1511.53 1216 1545.24Z" fill="#91CECF" fill-rule="evenodd"/><path d="M1244.59 1383C1244.59 1383 1176.74 1389.69 1171.3 1433.69 1165.86 1477.71 1236.35 1656.93 1246.45 1673.16 1264.83 1702.72 1373.05 1804 1373.05 1804L1393 1791.94C1393 1791.94 1316.23 1662.22 1304.35 1650.09 1285.69 1631.03 1267.57 1398.24 1244.59 1383Z" fill="#FFB27D" fill-rule="evenodd"/><path d="M1279.36 1466.35C1279.36 1466.35 1286.32 1352.84 1199.41 1380.28 1112.51 1407.73 1212.9 1603 1212.9 1603 1212.9 1603 1263.91 1600.48 1282 1555.98L1279.36 1466.35Z" fill="#ABDDDA" fill-rule="evenodd"/><path d="M1114.86 1658.76C1116.69 1666.9 1112.89 1675.32 1105.56 1679.16 1095.31 1684.52 1085.24 1689.47 1075.34 1694 1074.82 1692.29 1074.34 1690.51 1073.91 1688.61 1072.35 1681.55 1071.64 1673.13 1072.18 1663.02 1074.47 1620.28 1103.25 1587.9 1118 1574 1114.13 1578.03 1110.76 1582.73 1108.6 1588.12 1103.25 1601.47 1110.33 1638.51 1114.86 1658.76Z" fill="#91CECF" fill-rule="evenodd"/><path d="M1254 1352.93C1254 1352.93 1264.61 1339.58 1271.78 1340.01 1271.78 1340.01 1300.77 1380.45 1301 1399 1301 1399 1264.84 1351.06 1254 1352.93Z" fill="#91CECF" fill-rule="evenodd"/><path d="M1531.97 1745.92C1531.97 1745.92 1516.46 1746.19 1513.12 1745.73 1509.83 1745.26 1505.44 1743.84 1501.03 1743.68 1496.69 1743.52 1492.7 1744.93 1488.62 1745.75 1488.01 1745.87 1487.4 1745.92 1486.78 1745.92L1461.06 1745.92C1461.06 1745.92 1458.49 1744.7 1455.66 1740.21 1454.44 1738.27 1454.28 1733.64 1451.5 1732.1 1435.93 1723.51 1477.36 1728.37 1477.36 1728.37 1477.36 1728.37 1503.38 1727.9 1505.79 1729.67 1510.06 1732.86 1532.94 1744.7 1531.97 1745.92Z" fill="#ED985F" fill-rule="evenodd"/><path d="M1461.41 1745.71C1461.41 1745.71 1477.3 1750.24 1481.62 1753.15L1486.17 1756C1486.17 1756 1488.81 1753.09 1484.66 1749.86 1482.47 1748.15 1476.41 1743.17 1476.22 1737.43 1476.02 1731.72 1458.09 1736.72 1461.41 1745.71Z" fill="#ED985F" fill-rule="evenodd"/><path d="M1393.1 1791.74C1393.1 1791.74 1404.38 1801.77 1412.95 1803.89 1421.53 1806 1431.27 1830.59 1432.83 1834.1 1434.39 1837.61 1424.65 1832.53 1420.75 1826.56 1416.85 1820.57 1414.19 1818.23 1413.05 1819.53 1411.91 1820.83 1413.73 1837.22 1420.23 1846.33 1426.73 1855.42 1430.62 1863.49 1425.95 1862.98 1421.27 1862.45 1393.46 1855.69 1387.75 1838.78 1382.03 1821.87 1386.22 1821.28 1373.08 1803.89 1359.94 1786.49 1393.1 1791.74 1393.1 1791.74Z" fill="#FFB27D" fill-rule="evenodd"/><path d="M2631 2168.49C2631 2178.26 2627.02 2187.12 2620.59 2193.56 2614.17 2200 2605.32 2204 2595.6 2204L2428.39 2204C2408.93 2204 2393 2188.02 2393 2168.49 2393 2158.73 2396.98 2149.85 2403.39 2143.41 2409.82 2137 2418.66 2133 2428.39 2133L2595.6 2133C2615.06 2133 2631 2148.97 2631 2168.49Z" fill="#2B478B" fill-rule="evenodd"/><path d="M2545 2168.49C2545 2178.26 2541.01 2187.12 2534.59 2193.56 2528.16 2200 2519.29 2204 2509.54 2204L2428.45 2204C2408.95 2204 2393 2188.02 2393 2168.49 2393 2158.73 2396.99 2149.85 2403.41 2143.41 2409.84 2137 2418.71 2133 2428.45 2133L2509.54 2133C2529.05 2133 2545 2148.97 2545 2168.49Z" fill="#699FF0" fill-rule="evenodd"/><path d="M2598.96 2152 2439.03 2152C2436.27 2152 2434 2149.78 2434 2147.06L2434 2145.94C2434 2143.22 2436.26 2141 2439.03 2141L2598.96 2141C2601.73 2141 2604 2143.22 2604 2145.94L2604 2147.06C2604 2149.78 2601.73 2152 2598.96 2152Z" fill="#E9F3FE" fill-rule="evenodd" fill-opacity="0.4"/><path d="M2489.04 2068.63C2493.68 2077.82 2494.1 2088.07 2491.06 2097.18 2488.01 2106.3 2481.51 2114.26 2472.26 2118.86L2313.44 2198.06C2294.95 2207.28 2272.23 2199.76 2262.97 2181.35 2258.33 2172.16 2257.91 2161.9 2260.93 2152.8 2263.98 2143.7 2270.49 2135.74 2279.73 2131.14L2438.56 2051.94C2457.05 2042.72 2479.77 2050.23 2489.04 2068.63Z" fill="#EF7E29" fill-rule="evenodd"/><path d="M2407.04 2109.61C2411.67 2118.79 2412.1 2129.03 2409.06 2138.13 2406.03 2147.22 2399.52 2155.17 2390.28 2159.77L2313.42 2198.07C2294.93 2207.27 2272.22 2199.77 2262.96 2181.38 2258.33 2172.2 2257.91 2161.96 2260.93 2152.86 2263.98 2143.78 2270.49 2135.83 2279.72 2131.24L2356.59 2092.94C2375.07 2083.73 2397.77 2091.22 2407.04 2109.61Z" fill="#F99746" fill-rule="evenodd"/><path d="M2450.07 2068.22 2299.22 2144.43C2296.62 2145.75 2293.41 2144.68 2292.1 2142.06L2291.57 2140.97C2290.24 2138.35 2291.32 2135.11 2293.93 2133.79L2444.78 2057.56C2447.39 2056.24 2450.6 2057.33 2451.91 2059.95L2452.44 2061.04C2453.75 2063.66 2452.69 2066.9 2450.07 2068.22Z" fill="#FFE2CC" fill-rule="evenodd" fill-opacity="0.501961"/><path d="M3976.13 2212 462.878 2212C460.745 2212 459 2210.42 459 2208.49L459 2207.51C459 2205.58 460.745 2204 462.878 2204L3976.13 2204C3978.26 2204 3980 2205.58 3980 2207.51L3980 2208.49C3980 2210.42 3978.26 2212 3976.13 2212Z" fill="#2E3552" fill-rule="evenodd"/></g></svg>