<svg width="2339" height="1559" xmlns="http://www.w3.org/2000/svg" xmlns:xlink="http://www.w3.org/1999/xlink" xml:space="preserve" overflow="hidden"><defs><clipPath id="clip0"><rect x="384" y="366" width="2339" height="1559"/></clipPath><linearGradient x1="598.101" y1="1601.88" x2="920.9" y2="1740.12" gradientUnits="userSpaceOnUse" spreadMethod="reflect" id="fill1"><stop offset="0" stop-color="#09345D"/><stop offset="0.5" stop-color="#124E88"/><stop offset="1" stop-color="#185FA3"/></linearGradient><linearGradient x1="492.032" y1="1616.68" x2="800.968" y2="1729.32" gradientUnits="userSpaceOnUse" spreadMethod="reflect" id="fill2"><stop offset="0" stop-color="#09345D"/><stop offset="0.5" stop-color="#124E88"/><stop offset="1" stop-color="#185FA3"/></linearGradient><linearGradient x1="1761" y1="1656" x2="2122" y2="1656" gradientUnits="userSpaceOnUse" spreadMethod="reflect" id="fill3"><stop offset="0" stop-color="#6D8691"/><stop offset="0.5" stop-color="#9FC1D1"/><stop offset="1" stop-color="#BDE6F9"/></linearGradient><linearGradient x1="2406.85" y1="1550.12" x2="2751.15" y2="1719.88" gradientUnits="userSpaceOnUse" spreadMethod="reflect" id="fill4"><stop offset="0" stop-color="#09345D"/><stop offset="0.5" stop-color="#124E88"/><stop offset="1" stop-color="#185FA3"/></linearGradient><linearGradient x1="2403.2" y1="1630.77" x2="2616.8" y2="1686.23" gradientUnits="userSpaceOnUse" spreadMethod="reflect" id="fill5"><stop offset="0" stop-color="#09345D"/><stop offset="0.5" stop-color="#124E88"/><stop offset="1" stop-color="#185FA3"/></linearGradient><linearGradient x1="2288.22" y1="1192.77" x2="2340.78" y2="1043.24" gradientUnits="userSpaceOnUse" spreadMethod="reflect" id="fill6"><stop offset="0" stop-color="#99551D"/><stop offset="0.5" stop-color="#DD7D2E"/><stop offset="1" stop-color="#FF9639"/></linearGradient><linearGradient x1="1896" y1="1308" x2="1896" y2="1229" gradientUnits="userSpaceOnUse" spreadMethod="reflect" id="fill7"><stop offset="0" stop-color="#0D1B39"/><stop offset="0.5" stop-color="#182C55"/><stop offset="1" stop-color="#1E3667"/></linearGradient><linearGradient x1="1652.5" y1="1224" x2="1652.5" y2="1201" gradientUnits="userSpaceOnUse" spreadMethod="reflect" id="fill8"><stop offset="0" stop-color="#0D1B39"/><stop offset="0.5" stop-color="#182C55"/><stop offset="1" stop-color="#1E3667"/></linearGradient><linearGradient x1="1876" y1="1176" x2="1876" y2="896" gradientUnits="userSpaceOnUse" spreadMethod="reflect" id="fill9"><stop offset="0" stop-color="#09345D"/><stop offset="0.5" stop-color="#124E88"/><stop offset="1" stop-color="#185FA3"/></linearGradient><linearGradient x1="1861.5" y1="1200" x2="1861.5" y2="1025" gradientUnits="userSpaceOnUse" spreadMethod="reflect" id="fill10"><stop offset="0" stop-color="#09345D"/><stop offset="0.5" stop-color="#124E88"/><stop offset="1" stop-color="#185FA3"/></linearGradient><linearGradient x1="1938" y1="1908" x2="1938" y2="1799" gradientUnits="userSpaceOnUse" spreadMethod="reflect" id="fill11"><stop offset="0" stop-color="#6E6E6E"/><stop offset="0.5" stop-color="#A0A0A0"/><stop offset="1" stop-color="#BFBFBF"/></linearGradient><linearGradient x1="1704" y1="1891" x2="1704" y2="1859" gradientUnits="userSpaceOnUse" spreadMethod="reflect" id="fill12"><stop offset="0" stop-color="#6E6E6E"/><stop offset="0.5" stop-color="#A0A0A0"/><stop offset="1" stop-color="#BFBFBF"/></linearGradient><linearGradient x1="2208.5" y1="1877" x2="2208.5" y2="1780" gradientUnits="userSpaceOnUse" spreadMethod="reflect" id="fill13"><stop offset="0" stop-color="#1E1E1E"/><stop offset="0.5" stop-color="#2F2F2F"/><stop offset="1" stop-color="#3A3A3A"/></linearGradient><linearGradient x1="2207" y1="1780" x2="2207" y2="1848" gradientUnits="userSpaceOnUse" spreadMethod="reflect" id="fill14"><stop offset="0" stop-color="#212121"/><stop offset="0.5" stop-color="#343434"/><stop offset="1" stop-color="#404040"/></linearGradient><linearGradient x1="2101" y1="1834" x2="2152" y2="1834" gradientUnits="userSpaceOnUse" spreadMethod="reflect" id="fill15"><stop offset="0" stop-color="#646464"/><stop offset="0.5" stop-color="#929292"/><stop offset="1" stop-color="#AEAEAE"/></linearGradient></defs><g clip-path="url(#clip0)" transform="translate(-384 -366)"><path d="M469.183 1917C469.69 1905.04 270.928 1518.6 478.908 1142.5 686.888 766.409 930.087 969.074 979.978 704.44 1042.35 373.61 1352.56 280.532 1505.79 446.385 1708.7 666.009 2020.51 374.147 2304.07 520.344 2769.6 760.358 2439.68 1232.46 2544.76 1301 2649.84 1369.53 2777.57 1515.82 2639.89 1912.94L469.183 1917Z" fill="#F2F2F2" fill-rule="evenodd"/><path d="M1785.74 1551.53C1826.81 1504.38 1759.38 1425.68 1759.38 1425.68 1759.38 1425.68 1637.61 1422.79 1625.28 1406.58 1612.96 1390.38 1729.85 1387.36 1729.85 1387.36 1713.04 1351.25 1623.22 1290.5 1623.22 1290.5 1623.22 1290.5 1525.54 1363.1 1517.33 1344.16 1509.12 1325.21 1606.9 1284.58 1606.9 1284.58 1578.38 1257.79 1524.38 1251 1524.38 1251 1443.24 1251.59 1448.13 1362.73 1448.13 1362.73 1448.13 1362.73 1413.77 1387.11 1360.15 1390.75L1360.15 1390.75C1360.15 1390.75 1349.69 1390.48 1334 1393.57L1339.25 1402.55C1341.94 1401.78 1344.59 1401.14 1347.21 1400.64 1347.23 1400.63 1347.24 1400.63 1347.26 1400.63 1347.29 1400.63 1347.33 1400.62 1347.37 1400.61 1349.03 1400.36 1351.4 1400.02 1354.3 1399.62 1354.3 1399.62 1354.31 1399.62 1354.31 1399.62 1354.31 1399.61 1354.32 1399.62 1354.32 1399.62 1360.96 1399.01 1365.77 1398.39 1369.14 1397.78 1369.15 1397.78 1369.16 1397.77 1369.17 1397.77 1389.78 1395.48 1417.3 1393.63 1426.23 1398.65 1426.23 1398.65 1426.96 1396.79 1428.97 1394.16 1428.1 1395.59 1427.19 1397.09 1426.23 1398.65 1404.34 1434.58 1444.11 1514.89 1477.38 1552.25 1510.64 1589.61 1511.06 1563.41 1515.96 1528.11 1520.86 1492.82 1487.78 1447.71 1486.64 1428.64 1485.5 1409.56 1504.9 1425.64 1519.53 1455.57 1534.16 1485.5 1515.73 1517.59 1538.57 1566.46 1561.41 1615.33 1663.27 1596.39 1663.27 1596.39 1635.39 1570.69 1618.49 1502.62 1627.5 1493.57 1636.52 1484.53 1684.9 1569.79 1695.69 1580.92 1706.48 1592.05 1744.67 1598.68 1785.74 1551.53Z" fill="#DCEAF7" fill-rule="evenodd"/><path d="M1716.61 800.069C1673.71 733.124 1563.23 798.864 1563.23 798.864 1563.23 798.864 1525.06 956.985 1502.76 968.49 1480.45 979.995 1510.39 826.573 1510.39 826.573 1463.74 838.295 1367.65 938.342 1367.65 938.342 1367.65 938.342 1423.85 1086.37 1399.55 1091.73 1375.25 1097.08 1356.13 957.974 1356.13 957.974 1316.93 987.618 1293.62 1056.18 1293.62 1056.18 1271.1 1162.25 1401.29 1187.31 1401.29 1187.31 1401.29 1187.31 1419.71 1239.05 1408.6 1310.08L1408.6 1310.08C1408.6 1310.08 1405.29 1323.64 1404.38 1345L1416.29 1340.69C1416.17 1336.97 1416.19 1333.32 1416.36 1329.76 1416.35 1329.74 1416.35 1329.72 1416.36 1329.7 1416.36 1329.64 1416.37 1329.59 1416.37 1329.54 1416.56 1327.3 1416.83 1324.11 1417.2 1320.22 1417.2 1320.21 1417.2 1320.21 1417.2 1320.2 1417.2 1320.19 1417.21 1320.19 1417.2 1320.18 1418.4 1311.35 1419.05 1304.9 1419.31 1300.33 1419.31 1300.31 1419.31 1300.3 1419.31 1300.29 1422.55 1272.74 1428.27 1236.29 1436.65 1226.05 1436.65 1226.05 1434.7 1224.57 1432.23 1221.21 1433.64 1222.75 1435.11 1224.36 1436.65 1226.05 1472.02 1264.8 1576.46 1235.6 1629.26 1202.75 1682.07 1169.9 1651.82 1161.95 1612.33 1145.57 1572.83 1129.19 1511.1 1159.6 1488.67 1155.69 1466.24 1151.78 1490.42 1131.01 1529.29 1120.38 1568.15 1109.76 1600.06 1142.88 1663.23 1126.9 1726.39 1110.92 1733.56 972.603 1733.56 972.603 1695.82 1001.72 1612.1 1004.52 1604.2 990.2 1596.29 975.88 1708.93 936.845 1724.91 925.91 1740.89 914.977 1759.5 867.014 1716.61 800.069Z" fill="#DCEAF7" fill-rule="evenodd"/><path d="M968.806 968.873C993.35 919.7 1073.79 955.728 1073.79 955.728 1073.79 955.728 1111.38 1060.67 1127.49 1066.73 1143.6 1072.8 1112 970.409 1112 970.409 1144.81 974.668 1217.87 1035.28 1217.87 1035.28 1217.87 1035.28 1190.07 1140.91 1207.11 1142.62 1224.14 1144.32 1227.19 1047.77 1227.19 1047.77 1256.18 1064.87 1277.11 1109.82 1277.11 1109.82 1300.21 1180.47 1212.83 1208.04 1212.83 1208.04 1212.83 1208.04 1203.95 1244.87 1216.7 1292.48L1216.7 1292.49C1216.7 1292.49 1219.95 1301.49 1222.12 1316L1213.64 1314.01C1213.46 1311.46 1213.18 1308.97 1212.81 1306.55 1212.81 1306.54 1212.81 1306.52 1212.8 1306.51 1212.8 1306.47 1212.79 1306.44 1212.78 1306.4 1212.5 1304.89 1212.08 1302.73 1211.54 1300.1 1211.54 1300.1 1211.54 1300.1 1211.54 1300.09 1211.54 1300.09 1211.54 1300.09 1211.54 1300.08 1210.08 1294.14 1209.16 1289.79 1208.66 1286.69 1208.66 1286.68 1208.66 1286.67 1208.66 1286.66 1204.44 1268.1 1197.89 1243.67 1191.41 1237.35 1191.41 1237.35 1192.64 1236.18 1194.08 1233.68 1193.23 1234.85 1192.34 1236.07 1191.41 1237.35 1169.98 1266.65 1096.32 1255.1 1057.76 1236.91 1019.21 1218.71 1039.36 1210.85 1065.23 1196.49 1091.11 1182.12 1135.6 1197.94 1150.68 1193.47 1165.76 1188.99 1147.7 1176.75 1120.3 1172.61 1092.91 1168.48 1073.44 1193.67 1029.01 1187.82 984.582 1181.98 969.667 1088.08 969.667 1088.08 997.63 1104.94 1055.19 1100.13 1059.57 1089.71 1063.95 1079.29 983.955 1061.68 972.216 1055.5 960.477 1049.31 944.262 1018.05 968.806 968.873Z" fill="#DCEAF7" fill-rule="evenodd"/><path d="M1478 1075.35 1478 1508.65C1478 1535.24 1457.37 1557 1432.14 1557L1187.86 1557C1181.33 1557 1175.1 1555.54 1169.45 1552.9 1153.33 1545.4 1142 1528.35 1142 1508.65L1142 1075.35C1142 1048.75 1162.64 1027 1187.86 1027L1432.14 1027C1457.37 1027 1478 1048.75 1478 1075.35Z" fill="#FCECDB" fill-rule="evenodd"/><path d="M1370.1 1189.64C1344.51 1179.44 1331.57 1149.19 1341.17 1122.05 1350.78 1094.92 1379.3 1081.17 1404.9 1091.36 1430.48 1101.55 1443.44 1131.82 1433.83 1158.95 1424.22 1186.08 1395.69 1199.83 1370.1 1189.64Z" fill="#F7E0CB" fill-rule="evenodd"/><path d="M1433.82 1159 1341 1122.07C1350.62 1094.92 1379.2 1081.17 1404.84 1091.37 1430.47 1101.56 1443.45 1131.85 1433.82 1159Z" fill="#EFCBAB" fill-rule="evenodd"/><path d="M1201.38 1181.17C1179.98 1162.83 1176.81 1129.76 1194.27 1107.3 1211.73 1084.85 1243.22 1081.49 1264.62 1099.83 1286.01 1118.17 1289.19 1151.24 1271.73 1173.7 1254.27 1196.16 1222.77 1199.5 1201.38 1181.17Z" fill="#F7E0CB" fill-rule="evenodd"/><path d="M1271.7 1174 1194 1107.37C1211.51 1084.83 1243.1 1081.47 1264.56 1099.87 1286.02 1118.27 1289.21 1151.47 1271.7 1174Z" fill="#EFCBAB" fill-rule="evenodd"/><path d="M1370.1 1510.64C1344.51 1500.44 1331.57 1470.18 1341.17 1443.05 1350.78 1415.92 1379.3 1402.17 1404.9 1412.37 1430.48 1422.55 1443.44 1452.82 1433.83 1479.95 1424.22 1507.08 1395.69 1520.83 1370.1 1510.64Z" fill="#F7E0CB" fill-rule="evenodd"/><path d="M1433.82 1484 1341 1447.07C1350.62 1419.92 1379.2 1406.17 1404.84 1416.37 1430.47 1426.56 1443.45 1456.85 1433.82 1484Z" fill="#EFCBAB" fill-rule="evenodd"/><path d="M1201.38 1502.17C1179.98 1483.83 1176.81 1450.76 1194.27 1428.3 1211.73 1405.85 1243.22 1402.49 1264.62 1420.83 1286.01 1439.17 1289.19 1472.24 1271.73 1494.7 1254.27 1517.16 1222.77 1520.5 1201.38 1502.17Z" fill="#F7E0CB" fill-rule="evenodd"/><path d="M1271.7 1499 1194 1432.37C1211.51 1409.83 1243.1 1406.47 1264.56 1424.87 1286.02 1443.27 1289.21 1476.47 1271.7 1499Z" fill="#EFCBAB" fill-rule="evenodd"/><path d="M1408.7 1354.93C1383.99 1367.35 1354.48 1356.17 1342.78 1329.98 1331.08 1303.79 1341.6 1272.49 1366.31 1260.07 1391 1247.66 1420.52 1258.83 1432.22 1285.02 1443.93 1311.21 1433.39 1342.52 1408.7 1354.93Z" fill="#F7E0CB" fill-rule="evenodd"/><path d="M1433 1285.03 1342.82 1330C1331.02 1303.8 1341.63 1272.49 1366.54 1260.07 1391.44 1247.65 1421.2 1258.83 1433 1285.03Z" fill="#EFCBAB" fill-rule="evenodd"/><path d="M1186.59 1288C1196.85 1261.07 1225.95 1248 1251.57 1258.77 1277.2 1269.54 1289.67 1300.08 1279.41 1327 1269.15 1353.91 1240.05 1367 1214.42 1356.23 1188.8 1345.46 1176.33 1314.91 1186.59 1288Z" fill="#F7E0CB" fill-rule="evenodd"/><path d="M1214 1356.2 1251.38 1258C1277.16 1268.85 1289.71 1299.62 1279.38 1326.75 1269.06 1353.87 1239.79 1367.05 1214 1356.2Z" fill="#EFCBAB" fill-rule="evenodd"/><path d="M1478 1135 1478 1511.74C1478 1536.63 1459.15 1557 1436.09 1557L1212.82 1557C1206.85 1557 1201.16 1555.63 1196 1553.17L1196 1187.15C1196 1172.19 1201.92 1158.64 1211.36 1149.11 1214.84 1145.58 1218.82 1142.6 1223.16 1140.3 1229.55 1136.91 1236.72 1135 1244.3 1135L1478 1135Z" fill="#EFCBAB" fill-rule="evenodd" fill-opacity="0.501961"/><path d="M1204 1618.65 1204 1185.35C1204 1158.76 1224.64 1137 1249.86 1137L1494.14 1137C1519.36 1137 1540 1158.76 1540 1185.35L1540 1618.65C1540 1645.24 1519.36 1667 1494.14 1667L1249.86 1667C1224.64 1667 1204 1645.24 1204 1618.65Z" fill="#FCECDB" fill-rule="evenodd"/><path d="M1431.43 1299.64C1405.57 1289.44 1392.5 1259.18 1402.2 1232.05 1411.91 1204.92 1440.72 1191.17 1466.57 1201.36 1492.41 1211.55 1505.5 1241.82 1495.8 1268.95 1486.09 1296.08 1457.27 1309.83 1431.43 1299.64Z" fill="#F7E0CB" fill-rule="evenodd"/><path d="M1495.79 1269 1402 1232.07C1411.72 1204.92 1440.59 1191.17 1466.5 1201.37 1492.4 1211.56 1505.51 1241.85 1495.79 1269Z" fill="#EFCBAB" fill-rule="evenodd"/><path d="M1263.2 1291.17C1242.01 1272.83 1238.87 1239.76 1256.16 1217.3 1273.44 1194.85 1304.62 1191.49 1325.8 1209.83 1346.98 1228.17 1350.13 1261.25 1332.85 1283.7 1315.56 1306.16 1284.37 1309.5 1263.2 1291.17Z" fill="#F7E0CB" fill-rule="evenodd"/><path d="M1332.83 1284 1256 1217.37C1273.32 1194.83 1304.55 1191.47 1325.77 1209.87 1346.98 1228.27 1350.14 1261.47 1332.83 1284Z" fill="#EFCBAB" fill-rule="evenodd"/><path d="M1431.43 1620.64C1405.57 1610.44 1392.5 1580.19 1402.2 1553.05 1411.91 1525.92 1440.72 1512.17 1466.57 1522.37 1492.41 1532.55 1505.5 1562.82 1495.8 1589.95 1486.09 1617.08 1457.27 1630.82 1431.43 1620.64Z" fill="#F7E0CB" fill-rule="evenodd"/><path d="M1495.79 1594 1402 1557.07C1411.72 1529.92 1440.59 1516.17 1466.5 1526.37 1492.4 1536.56 1505.51 1566.85 1495.79 1594Z" fill="#EFCBAB" fill-rule="evenodd"/><path d="M1263.2 1612.17C1242.01 1593.83 1238.87 1560.76 1256.16 1538.3 1273.44 1515.85 1304.62 1512.49 1325.8 1530.83 1346.98 1549.17 1350.13 1582.24 1332.85 1604.7 1315.56 1627.16 1284.37 1630.5 1263.2 1612.17Z" fill="#F7E0CB" fill-rule="evenodd"/><path d="M1332.83 1609 1256 1542.37C1273.32 1519.83 1304.55 1516.47 1325.77 1534.88 1346.98 1553.27 1350.14 1586.47 1332.83 1609Z" fill="#EFCBAB" fill-rule="evenodd"/><path d="M1470.41 1464.93C1445.45 1477.35 1415.65 1466.17 1403.83 1439.98 1392.01 1413.79 1402.64 1382.49 1427.59 1370.07 1452.54 1357.66 1482.35 1368.83 1494.17 1395.02 1506 1421.21 1495.35 1452.52 1470.41 1464.93Z" fill="#F7E0CB" fill-rule="evenodd"/><path d="M1494 1395.03 1403.82 1440C1392.02 1413.8 1402.63 1382.49 1427.54 1370.07 1452.44 1357.65 1482.2 1368.83 1494 1395.03Z" fill="#EFCBAB" fill-rule="evenodd"/><path d="M1248.56 1398C1258.71 1371.07 1287.52 1358 1312.89 1368.77 1338.26 1379.54 1350.6 1410.08 1340.44 1437 1330.29 1463.91 1301.48 1477 1276.11 1466.23 1250.74 1455.46 1238.4 1424.91 1248.56 1398Z" fill="#F7E0CB" fill-rule="evenodd"/><path d="M1276 1466.2 1312.84 1368C1338.25 1378.85 1350.61 1409.62 1340.44 1436.75 1330.27 1463.87 1301.41 1477.05 1276 1466.2Z" fill="#EFCBAB" fill-rule="evenodd"/><path d="M1119 1310 1502 1310 1502 1914 1119 1914Z" fill="#EF7E29" fill-rule="evenodd"/><path d="M1172 1310 1555 1310 1555 1914 1172 1914Z" fill="#F99746" fill-rule="evenodd"/><path d="M1172 1344.93 1153.77 1375 1119 1375 1119 1310 1172 1310Z" fill="#D8661A" fill-rule="evenodd"/><path d="M1139.31 1358 1086 1358 1118.69 1310 1172 1310Z" fill="#F99746" fill-rule="evenodd"/><path d="M1370 1916 1172 1916 1172 1337 1370 1357.08Z" fill="#EFCBAB" fill-rule="evenodd" fill-opacity="0.501961"/><path d="M1555 1357.43 1523.92 1375 1190.46 1375 1172 1344.94 1172 1310Z" fill="#EF7E29" fill-rule="evenodd"/><path d="M1582 1358 1199.05 1358 1172 1310 1554.95 1310Z" fill="#F99746" fill-rule="evenodd"/><path d="M915.782 1349.39C908.21 1323.6 875.279 1318.77 862.029 1341.84 859.646 1345.98 858.138 1350.75 858.007 1356.21 857.277 1386.45 913.505 1503.48 920.969 1513.83 934.557 1532.68 1016.57 1578 1016.57 1578L1034 1575.31C1034 1575.31 1024.15 1568.74 1013.94 1557.94 992.871 1535.63 962.152 1499.36 956.524 1494.33 946.866 1485.71 930.16 1398.35 915.782 1349.39Z" fill="#F3BC97" fill-rule="evenodd"/><path d="M1405.03 1912 1028.96 1912C1005.88 1912 987 1892.1 987 1867.78L987 1632.22C987 1607.9 1005.88 1588 1028.96 1588L1405.04 1588C1428.12 1588 1447 1607.9 1447 1632.22L1447 1867.78C1447 1892.1 1428.12 1912 1405.03 1912Z" fill="#FCECDB" fill-rule="evenodd"/><path d="M1129.05 1691.87C1120.12 1716.69 1093.61 1729.24 1069.84 1719.92 1046.06 1710.61 1034.02 1682.95 1042.95 1658.13 1051.88 1633.32 1078.39 1620.76 1102.17 1630.07 1125.94 1639.39 1137.98 1667.06 1129.05 1691.87Z" fill="#F7E0CB" fill-rule="evenodd"/><path d="M1102 1630.08 1069.76 1720C1046.05 1710.68 1034.03 1683 1042.94 1658.16 1051.84 1633.33 1078.29 1620.75 1102 1630.08Z" fill="#EFCBAB" fill-rule="evenodd"/><path d="M1121.63 1854.35C1105.56 1874.9 1076.59 1877.94 1056.91 1861.18 1037.24 1844.42 1034.3 1814.19 1050.37 1793.64 1066.43 1773.11 1095.42 1770.05 1115.09 1786.82 1134.77 1803.58 1137.7 1833.82 1121.63 1854.35Z" fill="#F7E0CB" fill-rule="evenodd"/><path d="M1115 1786.92 1056.89 1862C1037.24 1845.08 1034.3 1814.56 1050.36 1793.81 1066.4 1773.08 1095.35 1770 1115 1786.92Z" fill="#EFCBAB" fill-rule="evenodd"/><path d="M1407.09 1691.87C1398.25 1716.69 1372.03 1729.24 1348.51 1719.92 1325 1710.61 1313.08 1682.95 1321.92 1658.13 1330.75 1633.32 1356.98 1620.76 1380.49 1630.07 1404.01 1639.39 1415.92 1667.06 1407.09 1691.87Z" fill="#F7E0CB" fill-rule="evenodd"/><path d="M1380 1630.08 1348.28 1720C1324.95 1710.68 1313.13 1683 1321.89 1658.16 1330.65 1633.33 1356.67 1620.75 1380 1630.08Z" fill="#EFCBAB" fill-rule="evenodd"/><path d="M1399.74 1854.35C1384.4 1874.19 1357.15 1877.72 1337.77 1862.82 1337.07 1862.31 1336.4 1861.76 1335.73 1861.18 1316.26 1844.43 1313.36 1814.19 1329.26 1793.65 1345.14 1773.11 1373.81 1770.05 1393.27 1786.82 1393.93 1787.4 1394.58 1787.97 1395.21 1788.58 1412.92 1805.63 1415.09 1834.52 1399.74 1854.35Z" fill="#F7E0CB" fill-rule="evenodd"/><path d="M1395 1788.61 1337.71 1863C1337.02 1862.49 1336.35 1861.93 1335.68 1861.36 1316.27 1844.57 1313.38 1814.27 1329.23 1793.68 1345.07 1773.11 1373.66 1770.04 1393.07 1786.84 1393.73 1787.42 1394.37 1788 1395 1788.61Z" fill="#EFCBAB" fill-rule="evenodd"/><path d="M1271.61 1654.45C1282.37 1678.4 1272.68 1707.01 1249.98 1718.36 1227.28 1729.71 1200.16 1719.51 1189.39 1695.55 1178.63 1671.6 1188.32 1642.98 1211.02 1631.63 1233.72 1620.28 1260.85 1630.5 1271.61 1654.45Z" fill="#F7E0CB" fill-rule="evenodd"/><path d="M1211.03 1632 1250 1718.38C1227.29 1729.69 1200.16 1719.52 1189.39 1695.66 1178.63 1671.81 1188.32 1643.3 1211.03 1632Z" fill="#EFCBAB" fill-rule="evenodd"/><path d="M1213.6 1868.55C1190.27 1858.7 1178.94 1830.77 1188.27 1806.17 1197.6 1781.57 1224.07 1769.6 1247.4 1779.45 1270.72 1789.3 1282.07 1817.23 1272.73 1841.83 1263.4 1866.43 1236.92 1878.4 1213.6 1868.55Z" fill="#F7E0CB" fill-rule="evenodd"/><path d="M1272.72 1842 1188 1806.25C1197.36 1781.58 1223.91 1769.58 1247.32 1779.46 1270.71 1789.33 1282.08 1817.34 1272.72 1842Z" fill="#EFCBAB" fill-rule="evenodd"/><path d="M939.59 1201.52C940.047 1199.58 899.609 1220.79 897.557 1223.19 878.591 1245.38 884 1274.34 894.852 1274.62 901.811 1274.8 900.463 1287 900.463 1287L978 1252.4C978 1252.41 968.664 1194.99 939.59 1201.52Z" fill="#3A3A3A" fill-rule="evenodd"/><path d="M948.945 1206.74C948.945 1206.74 951.71 1175 918.03 1175 918.03 1175 928.236 1177.92 933.515 1183.75 933.515 1183.75 912.033 1170.47 888.656 1190.87 865.278 1211.28 879.804 1262.45 872.695 1272.17 865.586 1281.88 837.902 1283.83 841.285 1315.24 844.669 1346.66 929.146 1386.01 923.721 1412 923.721 1412 956.826 1360.76 933.154 1337.37 933.154 1337.37 944.692 1348.82 945.868 1362.42 945.868 1362.42 948.999 1335.86 932.949 1327.37 918.745 1319.85 907.111 1292.36 908.341 1287.44 909.572 1282.53 948.945 1206.74 948.945 1206.74Z" fill="#3A3A3A" fill-rule="evenodd"/><path d="M855 1894 838.23 1891.4C838.23 1891.4 781.845 1844.18 773.447 1756.07 772.591 1747.1 766.147 1715.57 760.066 1705.18 754.071 1694.95 743.813 1675.6 732.526 1653.89 712.195 1614.79 688.524 1568.03 680.404 1553.14 654.534 1505.67 667.005 1473.75 667.005 1473.75 667.005 1473.75 739.174 1466.23 758.951 1448L766.073 1459.57C766.073 1459.57 781.71 1532.52 780.97 1532.86 781.74 1535.34 782.523 1537.87 783.317 1540.44 795.657 1580.57 809.852 1630.74 817.591 1671.6 821.94 1694.59 823.099 1740.15 824.282 1749.03 831.268 1801.39 855 1894 855 1894Z" fill="url(#fill1)" fill-rule="evenodd"/><path d="M890 1916 819.388 1916C819.388 1916 817.695 1904.77 821.383 1896.25 824.918 1888.07 829.955 1887.81 822.027 1875 826.515 1879.82 840.938 1881.82 851.146 1880.38 852.397 1882.5 859.21 1896.69 863.388 1899.83 868.002 1903.29 888.579 1902.05 890 1916Z" fill="#172B53" fill-rule="evenodd"/><path d="M731.906 1654C711.759 1615 688.302 1568.36 680.256 1553.5 654.62 1506.16 666.977 1474.32 666.977 1474.32 666.977 1474.32 701.643 1462.18 721.241 1444 721.241 1444 737.256 1592.03 731.906 1654Z" fill="#1B4F7F" fill-rule="evenodd"/><path d="M733.764 1479.55 734 1465.78C708.055 1469.24 644.54 1433 644.54 1433 644.54 1433 617.396 1452.09 613.681 1506.59 611.867 1533.2 600.393 1645.71 599.124 1679.31 598.661 1691.49 587.33 1721.38 583.297 1729.3 543.707 1807.18 564.411 1913 564.411 1913L573.604 1910.53C573.604 1910.53 607.08 1800.83 628.959 1753.38 632.671 1745.33 655.769 1706.95 664.318 1685.36 680.479 1644.54 696.171 1590.68 707.362 1548.98 708.152 1549.13 733.764 1479.55 733.764 1479.55Z" fill="url(#fill2)" fill-rule="evenodd"/><path d="M886.738 1387.88C844.152 1377.57 871.359 1314.43 873.826 1315.55 879.726 1314.28 892.686 1303.35 904.278 1282L905.844 1283.43 932 1307.63C932 1307.63 925.954 1317.04 920.867 1326.25 916.893 1333.47 913.515 1340.58 914.052 1343.02 916.156 1344.76 898.096 1390.63 886.738 1387.88Z" fill="#FFCDAB" fill-rule="evenodd"/><path d="M913.291 1341C913.291 1341 920.848 1356.45 924.88 1369.83 928.912 1383.21 939 1425.78 939 1425.78 939 1425.78 918.194 1450.37 889.25 1448.94 889.25 1448.94 873.687 1423.7 879.171 1400.91 884.656 1378.12 913.291 1341 913.291 1341Z" fill="#8ABAE6" fill-rule="evenodd"/><path d="M931 1307.3C931 1307.3 925.098 1316.73 920.136 1326 904.266 1315.38 904.249 1294.05 905.471 1283L931 1307.3Z" fill="#F3BC97" fill-rule="evenodd"/><path d="M932.414 1319.51C932.414 1319.51 892.981 1296.37 907.023 1270.68 921.066 1245 925.434 1224.72 951.205 1238.41 976.976 1252.1 976.465 1264.85 973.755 1274.63 971.044 1284.4 943.033 1324.87 932.414 1319.51Z" fill="#FFCDAB" fill-rule="evenodd"/><path d="M980.739 1259.23C978.929 1247.79 973.426 1246.69 969.589 1247.46 954.994 1221.96 931.149 1231.91 931.149 1231.91 918.413 1248.79 900 1251.68 900 1251.68 900 1251.68 904.587 1260.69 923.482 1266.27 929.254 1267.97 935.805 1266.94 942.122 1264.69 929.013 1272.42 915.302 1275.37 915.302 1275.37 940.204 1277.78 963.895 1253.73 966.352 1251.16 967.501 1254.89 969.515 1262.69 968.31 1268.39 966.671 1276.15 960.157 1290.18 964.133 1292 964.133 1292 983.453 1276.39 980.739 1259.23Z" fill="#3A3A3A" fill-rule="evenodd"/><path d="M620 1916 549.388 1916C549.388 1916 547.695 1904.91 551.383 1896.5 554.917 1888.43 560.452 1884.77 559.127 1875 563.614 1879.76 570.927 1885.09 581.136 1883.67 582.386 1885.76 589.21 1896.94 593.388 1900.03 598.003 1903.45 618.579 1902.23 620 1916Z" fill="#172B53" fill-rule="evenodd"/><path d="M891.019 1437.39C882.03 1440.69 869.42 1442.51 856.518 1443.99 838.15 1446.1 819.186 1447.54 809.254 1451.73 807.313 1452.54 801.665 1455.03 796.004 1459.35L796.004 1459.37C796.004 1459.37 795.864 1459.46 795.614 1459.67 793.739 1461.11 791.863 1462.78 790.139 1464.66 787.504 1467.52 785.206 1470.86 783.732 1474.69 780.089 1484.18 784.914 1510.49 788.003 1524.87 789.25 1530.66 786.659 1536.64 781.661 1539.37 774.678 1543.18 767.815 1546.7 761.07 1549.91 760.712 1550.08 760.366 1550.25 760.008 1550.42 760.073 1548.95 760.095 1547.5 760.095 1546.08 760.106 1536.16 758.913 1527.9 758.913 1527.9 757.254 1537.92 750.998 1548.74 745.164 1557.06 651.429 1596.73 585.939 1579.48 587.013 1559.72 590.711 1491.12 634.58 1432.77 634.58 1432.77 716.399 1332.43 881.901 1306.02 881.901 1306.02 881.901 1306.02 889.827 1305.01 899.39 1317.13 913.149 1334.59 913.832 1339.14 913.832 1339.14 913.832 1339.14 917.464 1427.66 891.019 1437.39Z" fill="#A6CAEC" fill-rule="evenodd"/><path d="M857 1444.27C838.502 1446.38 819.402 1447.83 809.397 1452 805.308 1388.08 834.14 1340 834.14 1340 834.14 1340 852.949 1420.08 857 1444.27Z" fill="#8ABAE6" fill-rule="evenodd"/><path d="M876.056 1327C876.056 1327 829.903 1331.8 826.203 1363.37 822.503 1394.93 870.452 1523.51 877.318 1535.15 889.819 1556.35 963.433 1629 963.433 1629L977 1620.34C977 1620.34 924.785 1527.3 916.701 1518.59 904.009 1504.92 891.684 1337.93 876.056 1327Z" fill="#FFCDAB" fill-rule="evenodd"/><path d="M899.211 1387.88C899.211 1387.88 903.931 1306.36 845.01 1326.07 786.089 1345.79 854.155 1486 854.155 1486 854.155 1486 888.736 1484.19 901 1452.24L899.211 1387.88Z" fill="#A6CAEC" fill-rule="evenodd"/><path d="M787.889 1525.03C789.121 1530.8 786.559 1536.76 781.616 1539.49 774.711 1543.28 767.924 1546.8 761.254 1550 760.9 1548.79 760.579 1547.53 760.289 1546.18 759.239 1541.19 758.756 1535.21 759.12 1528.05 760.664 1497.78 780.061 1474.85 790 1465 787.395 1467.85 785.122 1471.18 783.664 1475 780.061 1484.46 784.833 1510.69 787.889 1525.03Z" fill="#8ABAE6" fill-rule="evenodd"/><path d="M882 1306.21C882 1306.21 889.221 1296.7 894.103 1297.01 894.103 1297.01 913.842 1325.79 914 1339 914 1339 889.381 1304.87 882 1306.21Z" fill="#8ABAE6" fill-rule="evenodd"/><path d="M1070.98 1587.94C1070.98 1587.94 1060.46 1588.14 1058.19 1587.79 1055.96 1587.45 1052.98 1586.41 1049.98 1586.29 1047.04 1586.18 1044.33 1587.2 1041.57 1587.81 1041.15 1587.9 1040.73 1587.94 1040.31 1587.94L1022.86 1587.94C1022.86 1587.94 1021.11 1587.04 1019.2 1583.73 1018.37 1582.3 1018.26 1578.89 1016.37 1577.76 1005.81 1571.42 1033.93 1575.01 1033.93 1575.01 1033.93 1575.01 1051.58 1574.67 1053.21 1575.97 1056.11 1578.32 1071.64 1587.04 1070.98 1587.94Z" fill="#F3BC97" fill-rule="evenodd"/><path d="M1023.27 1587.65C1023.27 1587.65 1033.66 1590.89 1036.48 1592.97L1039.46 1595C1039.46 1595 1041.18 1592.92 1038.47 1590.61 1037.04 1589.39 1033.08 1585.83 1032.95 1581.74 1032.82 1577.65 1021.09 1581.22 1023.27 1587.65Z" fill="#ED985F" fill-rule="evenodd"/><path d="M976.768 1620.53C976.768 1620.53 984.464 1627.63 990.317 1629.13 996.17 1630.63 1002.82 1648.04 1003.89 1650.53 1004.95 1653.02 998.299 1649.42 995.638 1645.19 992.978 1640.95 991.16 1639.29 990.384 1640.21 989.608 1641.13 990.85 1652.74 995.284 1659.19 999.717 1665.64 1002.38 1671.35 999.185 1670.98 995.993 1670.61 977.014 1665.82 973.111 1653.85 969.209 1641.87 972.072 1641.45 963.102 1629.13 954.133 1616.81 976.768 1620.53 976.768 1620.53Z" fill="#FFCDAB" fill-rule="evenodd"/><path d="M1191 1886C1191 1893.69 1188.04 1900.69 1183.26 1905.77 1178.49 1910.85 1171.91 1914 1164.67 1914L1040.32 1914C1025.84 1914 1014 1901.39 1014 1886 1014 1878.3 1016.96 1871.3 1021.73 1866.22 1026.51 1861.15 1033.08 1858 1040.32 1858L1164.67 1858C1179.15 1858 1191 1870.6 1191 1886Z" fill="#215F9A" fill-rule="evenodd"/><path d="M1127 1886C1127 1893.69 1124.03 1900.69 1119.26 1905.77 1114.48 1910.85 1107.89 1914 1100.64 1914L1040.36 1914C1025.86 1914 1014 1901.39 1014 1886 1014 1878.3 1016.97 1871.3 1021.74 1866.22 1026.52 1861.15 1033.11 1858 1040.36 1858L1100.64 1858C1115.14 1858 1127 1870.6 1127 1886Z" fill="#4E95D9" fill-rule="evenodd"/><path d="M1166.27 1873 1047.73 1873C1045.68 1873 1044 1871.18 1044 1868.96L1044 1868.05C1044 1865.82 1045.68 1864 1047.73 1864L1166.27 1864C1168.32 1864 1170 1865.82 1170 1868.05L1170 1868.96C1170 1871.18 1168.32 1873 1166.27 1873Z" fill="#E9F3FE" fill-rule="evenodd" fill-opacity="0.4"/><path d="M1085.07 1807.21C1088.5 1814.44 1088.81 1822.49 1086.56 1829.65 1084.31 1836.81 1079.5 1843.06 1072.67 1846.68L955.248 1908.9C941.575 1916.15 924.78 1910.24 917.929 1895.78 914.503 1888.55 914.189 1880.5 916.431 1873.35 918.684 1866.2 923.495 1859.94 930.33 1856.32L1047.75 1794.1C1061.42 1786.85 1078.22 1792.75 1085.07 1807.21Z" fill="#EF7E29" fill-rule="evenodd"/><path d="M1024.08 1839.23C1027.49 1846.47 1027.81 1854.53 1025.58 1861.69 1023.33 1868.85 1018.54 1875.11 1011.73 1878.74L955.094 1908.9C941.474 1916.15 924.743 1910.24 917.918 1895.76 914.505 1888.53 914.192 1880.47 916.425 1873.3 918.67 1866.15 923.462 1859.89 930.272 1856.26L986.91 1826.1C1000.53 1818.85 1017.26 1824.76 1024.08 1839.23Z" fill="#F99746" fill-rule="evenodd"/><path d="M1055.83 1807.66 944.089 1866.56C942.155 1867.58 939.781 1866.75 938.812 1864.72L938.415 1863.89C937.446 1861.85 938.234 1859.35 940.168 1858.33L1051.91 1799.44C1053.84 1798.42 1056.22 1799.25 1057.19 1801.28L1057.59 1802.11C1058.55 1804.15 1057.76 1806.64 1055.83 1807.66Z" fill="#FFE2CC" fill-rule="evenodd" fill-opacity="0.501961"/><path d="M2068.5 1902 1898.95 1901.94 1809.26 1901.92C1774.46 1901.9 1746 1871.57 1746 1834.49L1746.2 1167.37C1746.2 1130.31 1774.68 1099.98 1809.5 1100L1889.03 1100.03 2068.73 1100.08C2103.54 1100.08 2132 1130.42 2132 1167.5L2131.82 1834.62C2131.8 1871.68 2103.32 1902 2068.5 1902Z" fill="#CAEEFB" fill-rule="evenodd" fill-opacity="0.501961"/><path d="M2103.88 1713.25 2099.39 1678.15 2099.39 1678.15 2094.9 1643.05C2093.76 1634.1 2089.28 1626.45 2082.99 1621.35 2076.7 1616.25 2068.6 1613.69 2060.2 1614.91 2059.27 1615.05 2058.36 1615.24 2057.46 1615.46 2060.54 1610.72 2062.29 1605.36 2062.76 1599.92 2068.47 1614.53 2083.48 1623.07 2098.35 1619.27 2114.84 1615.06 2125.1 1597.24 2121.16 1579.64L2113.43 1545.2 2113.43 1545.2 2105.7 1510.74C2103.73 1501.96 2098.56 1494.82 2091.83 1490.41 2085.1 1486 2076.8 1484.31 2068.55 1486.41 2052.06 1490.62 2041.81 1508.46 2045.75 1526.04L2057.39 1577.95C2055.63 1575.24 2053.46 1572.78 2050.88 1570.67 2045.57 1566.34 2039.33 1564.17 2033.08 1563.98 2036.14 1559.77 2038.16 1554.87 2039.04 1549.74 2040.19 1543.04 2039.39 1535.97 2036.5 1529.57 2039.99 1517.26 2036.51 1503.31 2026.68 1494.64L1975.49 1449.5C1962.42 1437.98 1942.9 1439.95 1932.1 1453.9 1922.11 1466.8 1922.96 1485.56 1933.49 1497.43 1930.77 1497.42 1928.01 1497.76 1925.28 1498.56L1893.24 1507.91 1893.24 1507.91 1861.22 1517.25C1850.07 1520.51 1842.03 1529.98 1839.44 1541.21L1836.07 1532.62 1836.07 1532.62 1823.28 1499.94C1816.74 1483.25 1798.61 1475.3 1782.96 1482.27 1767.31 1489.25 1759.86 1508.59 1766.4 1525.29L1779.2 1557.97 1779.2 1557.97 1787.4 1578.91C1776.53 1583.53 1768.55 1594.56 1767.93 1607.79L1766.25 1643.16 1766.25 1643.16 1764.57 1678.55C1764.15 1687.57 1767.22 1695.97 1772.52 1702.22 1777.82 1708.48 1785.33 1712.59 1793.8 1713.05 1797.42 1713.24 1800.91 1712.72 1804.2 1711.66 1801.01 1718.49 1800.12 1726.38 1801.75 1733.88 1796.07 1737.38 1791.37 1742.78 1788.69 1749.71L1776.01 1782.45 1776.01 1782.45 1763.32 1815.19C1760.09 1823.54 1760.35 1832.56 1763.38 1840.34 1766.41 1848.12 1772.2 1854.68 1780.03 1858.14 1792.26 1863.53 1805.94 1859.8 1814.45 1849.98 1816.46 1855.04 1819.67 1859.64 1824.03 1863.2 1837.5 1874.2 1856.93 1871.45 1867.24 1857.08L1887.42 1828.96 1887.42 1828.96 1907.6 1800.82C1910.34 1797 1912.14 1792.72 1913.1 1788.3 1920.12 1789.05 1927.41 1787.28 1933.64 1782.7L1938.92 1778.81 1931.6 1789.01 1931.6 1789.01 1911.42 1817.14C1901.11 1831.5 1903.7 1852.24 1917.16 1863.23 1930.63 1874.23 1950.06 1871.48 1960.37 1857.11L1980.55 1828.98 1980.55 1828.98 2000.73 1800.85C2000.99 1800.49 2001.21 1800.11 2001.45 1799.74 2003.08 1802.54 2005.08 1805.02 2007.36 1807.15L2000.18 1817.17C1989.87 1831.53 1992.45 1852.27 2005.92 1863.26 2019.38 1874.26 2038.82 1871.5 2049.12 1857.14L2089.49 1800.88C2094.64 1793.71 2096.56 1784.92 2095.52 1776.57 2094.49 1768.21 2090.48 1760.28 2083.75 1754.78 2081.45 1752.9 2078.96 1751.46 2076.39 1750.37 2076.76 1750.33 2077.13 1750.32 2077.51 1750.27 2094.31 1747.83 2106.17 1731.17 2103.88 1713.25ZM1826.13 1681.87 1826.71 1669.8C1828.65 1673.31 1831.22 1676.49 1834.43 1679.11 1835.63 1680.09 1836.89 1680.93 1838.18 1681.69L1824.06 1692.08C1825.23 1688.89 1825.96 1685.46 1826.13 1681.87ZM2033.82 1651.94 2039.86 1699.13C2037.25 1693.46 2033.2 1688.8 2028.31 1685.6 2022.34 1681.7 2015.16 1679.94 2007.86 1681.04 2011.02 1678.99 2013.88 1676.33 2016.25 1673.03L2033.58 1648.88C2033.62 1649.9 2033.7 1650.91 2033.82 1651.94ZM1963.72 1524.44 1971.49 1531.29 1963.5 1537.17C1964.34 1533.07 1964.45 1528.76 1963.72 1524.44ZM1970.42 1628.72C1969.63 1623.6 1967.74 1618.84 1964.96 1614.76 1967.26 1613.84 1969.49 1612.65 1971.6 1611.1L1995.89 1593.23 1970.42 1628.72ZM1990.58 1690.24C1984.07 1684.44 1975.63 1681.8 1967.35 1682.77L1968 1673.91C1969.47 1675.82 1971.14 1677.59 1973.05 1679.15 1979.87 1684.73 1988.23 1686.75 1996.16 1685.54 1994.11 1686.88 1992.26 1688.47 1990.58 1690.24ZM1928.49 1565.8C1921.72 1576.68 1921.38 1591.33 1928.72 1602.7 1928.86 1602.91 1929.01 1603.09 1929.15 1603.3 1926.91 1604.21 1924.78 1605.38 1922.82 1606.8 1924.22 1602.12 1924.63 1597.2 1924.04 1592.42 1922.99 1584.06 1918.99 1576.13 1912.26 1570.63 1912.23 1570.61 1912.2 1570.59 1912.17 1570.56L1928.49 1565.8ZM1897.81 1644.86 1909.7 1628.29C1909.53 1629.31 1909.4 1630.35 1909.32 1631.41L1907.07 1661.83C1902.61 1657.53 1897.15 1654.8 1891.41 1653.78L1897.81 1644.86 1897.81 1644.86ZM1842.16 1783.84 1845.65 1774.83C1848.2 1768.26 1848.55 1761.3 1847.13 1754.83 1847.83 1754.4 1848.54 1753.96 1849.22 1753.46L1903.89 1713.23C1904.24 1712.97 1904.55 1712.68 1904.89 1712.41 1905.63 1715.61 1906.81 1718.63 1908.37 1721.41L1898.64 1728.57C1892.09 1733.39 1887.86 1740.48 1886.19 1748.18 1875.91 1747.12 1865.35 1751.52 1858.65 1760.85L1842.16 1783.84ZM1987.18 1743.3 1988.89 1750.91C1986.14 1749.59 1983.26 1748.74 1980.35 1748.33L1987.18 1743.3ZM2052.28 1750.98 2049.91 1740.39 2049.91 1740.39 2049.46 1738.37C2052.8 1742.74 2057.13 1746.16 2062.05 1748.24 2058.69 1748.59 2055.38 1749.49 2052.28 1750.98ZM1865.59 1581.58 1848.87 1604.89 1848.87 1604.89 1828.69 1633.01C1828.59 1633.14 1828.52 1633.28 1828.43 1633.41L1829.49 1611.11C1829.51 1610.54 1829.49 1609.98 1829.49 1609.41 1830.44 1609.1 1831.38 1608.74 1832.31 1608.33 1844.86 1602.74 1852.12 1589.17 1851.13 1575.42 1855.36 1578.72 1860.33 1580.87 1865.59 1581.58Z" fill="url(#fill3)" fill-rule="evenodd"/><path d="M1898.54 1902 1809.09 1901.98C1774.38 1901.96 1746 1871.62 1746 1834.54L1746.2 1167.37C1746.2 1130.31 1774.6 1099.98 1809.32 1100L1888.65 1100.03C1895.19 1112.02 1899.01 1126.35 1899 1141.7L1898.79 1895.27C1898.79 1897.54 1898.71 1899.78 1898.54 1902Z" fill="#96DCF8" fill-rule="evenodd" fill-opacity="0.501961"/><path d="M2127.67 1132 1886.93 1131.92 1750.3 1131.87C1743.52 1131.88 1737.99 1125.98 1738 1118.78L1738.02 1056.07C1738.02 1048.89 1743.55 1043 1750.32 1043L1886.77 1043.04C1886.78 1043.04 1886.78 1043.04 1886.8 1043.05L2127.7 1043.12C2134.46 1043.12 2140 1049 2140 1056.2L2139.98 1118.91C2139.98 1126.11 2134.45 1132 2127.67 1132Z" fill="#F99746" fill-rule="evenodd"/><path d="M1886.87 1132 1750.29 1131.95C1743.52 1131.96 1737.99 1126.06 1738 1118.85L1738.02 1056.08C1738.02 1048.89 1743.55 1043 1750.32 1043L1886.71 1043.04C1886.72 1043.04 1886.72 1043.04 1886.74 1043.05 1893.48 1043.06 1899 1048.95 1899 1056.14L1898.98 1118.9C1898.97 1126.05 1893.55 1131.9 1886.87 1132Z" fill="#EF7E29" fill-rule="evenodd"/><path d="M2282.01 1283.62C2282.01 1283.62 2281.84 1281.93 2280 1279.66 2278.85 1277.24 2277.64 1274.31 2277.59 1272.66 2277.49 1269.51 2274.12 1268.28 2272.74 1270.9 2272.28 1271.77 2272.05 1272.76 2272.02 1273.82 2266.63 1271.26 2258.35 1268.95 2245.6 1268.05 2245.6 1268.05 2235.78 1266.92 2242.15 1275.61 2246.4 1281.42 2250.08 1281.46 2256.2 1289.55 2262.32 1297.65 2271.52 1302.11 2278.51 1299.98L2286.69 1301 2292 1287.38 2282.01 1283.62Z" fill="#D9D9D9" fill-rule="evenodd"/><path d="M2545 1191.92C2545 1191.92 2536.96 1286.09 2422.5 1325.85 2391.59 1336.59 2276 1303.62 2276 1303.62 2276 1303.62 2276.66 1287.42 2286.04 1283.35 2286.04 1283.35 2394.33 1276.27 2403.45 1281.03 2411.53 1285.25 2480.68 1209.47 2503.02 1197.26 2525.36 1185.06 2545 1191.92 2545 1191.92Z" fill="#D9D9D9" fill-rule="evenodd"/><path d="M2686.63 1840.37C2686.63 1840.37 2700.33 1853.81 2697.65 1863.36 2694.98 1872.91 2682.62 1879.28 2680.95 1890.96 2679.28 1902.63 2672.6 1909 2666.58 1909 2660.57 1909 2637.91 1909 2637.91 1909 2637.91 1909 2633.48 1900.78 2644.17 1898.31 2654.86 1895.83 2658.9 1882.11 2658.23 1869.38 2657.56 1856.64 2659.23 1839.66 2659.23 1839.66L2681.95 1834 2686.63 1840.37Z" fill="#172B53" fill-rule="evenodd"/><path d="M2686 1832.51C2683.5 1840.42 2655.99 1852 2655.99 1852 2655.99 1852 2641 1826.72 2593 1736.12 2588.87 1728.32 2584.55 1719.75 2580.1 1710.63 2532.97 1613.75 2472 1452.76 2472 1452.76L2588.5 1418C2588.5 1418 2594 1468.03 2595 1493.32 2595.61 1508.76 2603.82 1541.78 2614.26 1570.61 2620.9 1588.96 2628.44 1605.61 2635.5 1614.98 2667.64 1657.62 2686 1832.51 2686 1832.51Z" fill="url(#fill4)" fill-rule="evenodd"/><path d="M2614 1570.8C2606.69 1610.59 2593.27 1677.21 2579.91 1711 2532.86 1614 2472 1452.8 2472 1452.8L2588.29 1418C2588.29 1418 2593.78 1468.09 2594.78 1493.41 2595.39 1508.88 2603.58 1541.93 2614 1570.8Z" fill="#1B4F7F" fill-rule="evenodd"/><path d="M2518.5 1874.94C2518.5 1874.94 2520.96 1905.79 2514.95 1909L2438 1908.83C2438 1908.83 2438 1899.2 2450.36 1897.06 2462.72 1894.92 2484.43 1887.07 2488.1 1869.59 2491.78 1852.11 2518.5 1874.94 2518.5 1874.94Z" fill="#172B53" fill-rule="evenodd"/><path d="M2453 1446.38C2453 1446.38 2457.08 1499.62 2461.88 1563.62 2468.39 1650.55 2476.23 1757.34 2477.01 1777.57 2478.35 1812.7 2483.73 1868.89 2483.73 1868.89 2483.73 1868.89 2496.48 1882.24 2522.01 1876.62 2522.01 1876.62 2544.76 1796.4 2551.25 1711.53 2551.36 1710.14 2551.46 1708.74 2551.56 1707.34 2557.6 1620.94 2567 1439 2567 1439L2453 1446.38Z" fill="url(#fill5)" fill-rule="evenodd"/><path d="M2559 1159.06C2559 1159.06 2487.72 1182.23 2496.1 1170.86 2495 1164.08 2491.83 1145.87 2491.34 1140.88 2490 1129.35 2490 1122.82 2490 1122.82L2511.21 1105.03 2531.33 1088C2529.74 1135.88 2559 1159.06 2559 1159.06Z" fill="#FFCDAB" fill-rule="evenodd"/><path d="M2623.86 1547.72C2565.74 1589.58 2448.29 1577.62 2447.41 1576.81 2445.45 1550.18 2444.34 1506.24 2443.73 1465.58 2442.97 1415.07 2442.96 1369.63 2443.02 1368.67 2443.02 1368.67 2443.06 1367.14 2443.12 1364.55 2443.31 1356.34 2443.78 1337.53 2444.28 1323.51 2444.37 1320.88 2444.47 1318.44 2444.56 1316.26 2444.57 1316.13 2444.57 1316.02 2444.58 1315.9 2444.95 1309.61 2448.55 1292.77 2453.64 1273.16 2461.08 1244.41 2471.67 1209.71 2479.8 1193.58 2483.97 1185.3 2497.99 1161.34 2497.99 1161.34 2507.88 1163.42 2515.01 1160.31 2525.46 1154.87 2536.89 1148.99 2549.2 1142.64 2551.18 1144.25 2566.13 1155.91 2576.24 1182.11 2581.63 1215.59 2584.7 1234.87 2626.73 1545.64 2623.86 1547.72Z" fill="#A6CAEC" fill-rule="evenodd"/><path d="M2532 1106.29C2532 1106.29 2518 1133.41 2491.35 1141 2490 1129.43 2490 1122.87 2490 1122.87L2511.37 1105 2532 1106.29Z" fill="#F3BC97" fill-rule="evenodd"/><path d="M2480.24 1121.9C2480.24 1121.9 2532.71 1131.03 2537.64 1096.72 2542.56 1062.42 2552.65 1040.49 2519.36 1033.22 2486.06 1025.94 2477.66 1038 2473.36 1049.03 2469.05 1060.06 2466.72 1118.64 2480.24 1121.9Z" fill="#FFCDAB" fill-rule="evenodd"/><path d="M2556.97 1028.99C2557.45 1028.41 2558.55 1027.94 2561 1027.79 2561 1027.79 2559.04 1026.49 2556.42 1026.42 2555.91 1022.8 2554.09 1016.39 2548.22 1014.83 2548.22 1014.83 2551.38 1016.61 2551.79 1020.47 2544.99 1013.05 2530.43 1007.65 2490.1 1011.03 2436.94 1015.49 2454.46 1051.65 2461.34 1055.96 2468.22 1060.27 2485.55 1048.46 2498.37 1049.54 2511.19 1050.62 2513.63 1070.3 2517.97 1073.01 2522.32 1075.71 2520.61 1070.93 2526.5 1068.1 2532.38 1065.28 2532.94 1075.64 2531.24 1082.38 2529.54 1089.11 2537.63 1098 2537.63 1098 2537.63 1098 2537.63 1098 2545.8 1088.65 2553.97 1079.3 2561.67 1039.69 2557.96 1031.25 2557.63 1030.5 2557.3 1029.75 2556.97 1028.99Z" fill="#404040" fill-rule="evenodd"/><path d="M2443.73 1465C2442.97 1414.64 2442.96 1369.33 2443.02 1368.37 2443.02 1368.37 2443.06 1366.85 2443.12 1364.27 2488.77 1304.29 2547.59 1242 2547.59 1242 2547.59 1242 2560.33 1417.94 2443.73 1465Z" fill="#8ABAE6" fill-rule="evenodd"/><path d="M2506 1232C2505.38 1233.08 2491.01 1323.97 2454.15 1324.98 2450.56 1325.09 2447.54 1324.69 2445 1323.87 2445.09 1321.25 2445.18 1318.81 2445.28 1316.62 2445.29 1316.5 2445.29 1316.39 2445.3 1316.26 2445.66 1309.97 2449.25 1293.14 2454.31 1273.52 2469.38 1270.2 2487.03 1255.38 2506 1232Z" fill="#8ABAE6" fill-rule="evenodd"/><path d="M2552 1144.96C2552 1144.96 2547.57 1131.52 2543.96 1130 2543.96 1130 2493.75 1142.09 2477 1200 2477 1200 2496.54 1164.46 2552 1144.96Z" fill="#8ABAE6" fill-rule="evenodd"/><path d="M2451.93 1583.18 2353.24 1597.85 2301.04 1605.62C2280.78 1608.63 2261.9 1593.37 2259.07 1571.69L2208.36 1181.7C2205.53 1160.04 2219.8 1139.84 2240.07 1136.83L2286.36 1129.94 2390.96 1114.38C2411.22 1111.36 2430.1 1126.63 2432.92 1148.3L2483.65 1538.29C2486.46 1559.96 2472.2 1580.16 2451.93 1583.18Z" fill="#DCEAF7" fill-rule="evenodd"/><path d="M2458.85 1469.23 2453.53 1449.06 2453.53 1449.06 2448.21 1428.88C2446.85 1423.74 2443.64 1419.64 2439.56 1417.2 2435.48 1414.76 2430.53 1413.97 2425.7 1415.42 2425.17 1415.58 2424.65 1415.77 2424.14 1415.98 2425.58 1412.93 2426.2 1409.64 2426.06 1406.41 2430.53 1414.47 2439.98 1418.17 2448.41 1414.65 2457.76 1410.75 2462.41 1399.41 2458.75 1389.44L2451.58 1369.93 2451.58 1369.93 2444.4 1350.41C2442.58 1345.44 2439 1341.7 2434.71 1339.71 2430.43 1337.71 2425.43 1337.44 2420.76 1339.39 2411.41 1343.3 2406.76 1354.65 2410.42 1364.6L2421.23 1394.01C2419.98 1392.57 2418.52 1391.32 2416.85 1390.31 2413.4 1388.23 2409.57 1387.51 2405.9 1387.94 2407.37 1385.21 2408.17 1382.16 2408.3 1379.07 2408.46 1375.05 2407.45 1370.98 2405.27 1367.48 2406.37 1359.96 2403.26 1352.09 2396.83 1347.86L2363.35 1325.88C2354.8 1320.26 2343.5 1323.12 2338.24 1332.23 2333.36 1340.66 2335.31 1351.59 2342.39 1357.62 2340.79 1357.85 2339.2 1358.29 2337.66 1359L2319.59 1367.27 2319.59 1367.27 2301.52 1375.53C2295.24 1378.41 2291.24 1384.67 2290.58 1391.47L2287.95 1386.73 2287.95 1386.73 2277.95 1368.7C2272.83 1359.48 2261.59 1356.41 2252.95 1361.86 2244.3 1367.31 2241.42 1379.29 2246.53 1388.51L2256.54 1406.54 2256.54 1406.54 2262.95 1418.1C2256.93 1421.75 2253.1 1428.91 2253.75 1436.72L2255.47 1457.59 2255.47 1457.59 2257.2 1478.47C2257.64 1483.79 2260.09 1488.45 2263.68 1491.65 2267.26 1494.85 2271.98 1496.61 2276.99 1496.14 2279.12 1495.94 2281.13 1495.33 2282.98 1494.42 2281.63 1498.7 2281.72 1503.4 2283.25 1507.65 2280.18 1510.2 2277.84 1513.77 2276.8 1518.07L2271.87 1538.35 2271.87 1538.35 2266.94 1558.65C2265.68 1563.82 2266.53 1569.08 2268.9 1573.38 2271.27 1577.67 2275.17 1581.01 2280.03 1582.36 2287.61 1584.45 2295.35 1581.07 2299.59 1574.57 2301.16 1577.37 2303.39 1579.78 2306.23 1581.49 2314.96 1586.76 2326.15 1583.45 2331.1 1574.14L2340.78 1555.9 2340.78 1555.9 2350.46 1537.65C2351.77 1535.18 2352.5 1532.51 2352.72 1529.84 2356.9 1529.67 2361.03 1528 2364.34 1524.77L2367.14 1522.03 2363.63 1528.65 2363.63 1528.65 2353.95 1546.88C2349 1556.2 2352.11 1568.12 2360.85 1573.39 2369.59 1578.66 2380.77 1575.36 2385.72 1566.04L2395.4 1547.8 2395.4 1547.8 2405.08 1529.56C2405.2 1529.32 2405.3 1529.08 2405.42 1528.84 2406.58 1530.34 2407.95 1531.62 2409.45 1532.67L2406 1539.17C2401.06 1548.48 2404.16 1560.41 2412.9 1565.68 2421.64 1570.95 2432.83 1567.64 2437.77 1558.32L2457.13 1521.84C2459.6 1517.19 2460.06 1511.87 2458.81 1507.07 2457.56 1502.26 2454.61 1497.96 2450.24 1495.33 2448.74 1494.43 2447.17 1493.8 2445.58 1493.38 2445.8 1493.33 2446.01 1493.29 2446.23 1493.23 2455.89 1490.33 2461.57 1479.54 2458.85 1469.23ZM2293.56 1475.05 2292.97 1467.93C2294.38 1469.81 2296.13 1471.45 2298.21 1472.71 2299 1473.18 2299.8 1473.56 2300.61 1473.89L2293.13 1481.21C2293.57 1479.24 2293.74 1477.17 2293.56 1475.05ZM2413.07 1439.41 2420.23 1466.54C2418.26 1463.45 2415.53 1461.07 2412.42 1459.62 2408.62 1457.85 2404.27 1457.44 2400.08 1458.73 2401.77 1457.25 2403.25 1455.44 2404.39 1453.3L2412.7 1437.64C2412.8 1438.23 2412.92 1438.82 2413.07 1439.41ZM2362.19 1370.81 2367.27 1374.15 2363.03 1378.29C2363.21 1375.82 2362.95 1373.28 2362.19 1370.81ZM2374.11 1431.33C2373.25 1428.4 2371.78 1425.78 2369.84 1423.63 2371.11 1422.89 2372.33 1421.99 2373.45 1420.9L2386.32 1408.32 2374.11 1431.33ZM2390.65 1465.63C2386.39 1462.79 2381.23 1461.98 2376.45 1463.27L2376.16 1458.02C2377.16 1459.01 2378.27 1459.91 2379.51 1460.66 2383.94 1463.33 2389 1463.78 2393.55 1462.39 2392.46 1463.35 2391.49 1464.44 2390.65 1465.63ZM2344.7 1398.11C2341.56 1405.08 2342.48 1413.7 2347.66 1419.72 2347.76 1419.83 2347.86 1419.92 2347.96 1420.03 2346.71 1420.76 2345.56 1421.63 2344.51 1422.64 2344.97 1419.77 2344.84 1416.85 2344.12 1414.1 2342.87 1409.3 2339.92 1405 2335.55 1402.36 2335.53 1402.35 2335.51 1402.34 2335.49 1402.33L2344.7 1398.11ZM2332.76 1447.12 2338.46 1436.37C2338.44 1436.99 2338.44 1437.61 2338.48 1438.23L2339.49 1456.25C2336.55 1454.12 2333.14 1453 2329.69 1452.9L2332.76 1447.12 2332.76 1447.12ZM2310.78 1533.4 2312.13 1527.82C2313.12 1523.75 2312.8 1519.64 2311.47 1515.97 2311.85 1515.66 2312.23 1515.34 2312.59 1514.98L2341.57 1486.65C2341.75 1486.47 2341.91 1486.27 2342.09 1486.08 2342.77 1487.89 2343.69 1489.56 2344.82 1491.05L2339.66 1496.09C2336.19 1499.49 2334.26 1504.01 2333.86 1508.67 2327.76 1508.95 2321.9 1512.44 2318.69 1518.5L2310.78 1533.4ZM2392.72 1497.01 2394.3 1501.32C2392.59 1500.79 2390.84 1500.54 2389.1 1500.55L2392.72 1497.01ZM2431.49 1495.84 2429.28 1489.84 2429.28 1489.84 2428.86 1488.7C2431.16 1490.97 2433.96 1492.59 2437 1493.38 2435.06 1493.88 2433.19 1494.7 2431.49 1495.84ZM2309.02 1412.84 2300.99 1427.96 2300.99 1427.96 2291.32 1446.2C2291.27 1446.28 2291.24 1446.37 2291.19 1446.45L2290.11 1433.29C2290.08 1432.96 2290.02 1432.63 2289.98 1432.3 2290.51 1432.03 2291.03 1431.74 2291.55 1431.42 2298.48 1427.05 2301.7 1418.47 2300.07 1410.49 2302.8 1412.06 2305.88 1412.89 2309.02 1412.84Z" fill="#C4DCF2" fill-rule="evenodd"/><path d="M2427.76 1127.59 2287.57 1148.22 2208.01 1159.93C2204.06 1160.51 2200.4 1157.57 2199.85 1153.4L2195.07 1117.05C2194.52 1112.89 2197.29 1109 2201.24 1108.42L2280.69 1096.72C2280.7 1096.72 2280.7 1096.72 2280.71 1096.72L2420.99 1076.07C2424.93 1075.49 2428.61 1078.43 2429.15 1082.6L2433.93 1118.95C2434.48 1123.12 2431.71 1127.01 2427.76 1127.59Z" fill="url(#fill6)" fill-rule="evenodd"/><path d="M2333.5 1355.78C2333.5 1355.78 2332.89 1354.19 2330.54 1352.52 2328.82 1350.49 2326.89 1347.99 2326.41 1346.4 2325.5 1343.36 2321.96 1343.15 2321.33 1346.1 2321.12 1347.08 2321.16 1348.12 2321.41 1349.16 2315.6 1348.23 2307.1 1348.4 2294.71 1351.23 2294.71 1351.23 2285.05 1352.99 2293.39 1359.61 2298.97 1364.03 2302.49 1362.99 2310.44 1369.09 2318.39 1375.19 2328.32 1376.85 2334.44 1372.74L2342.49 1371.35 2344 1356.53 2333.5 1355.78Z" fill="#FFCDAB" fill-rule="evenodd"/><path d="M2562.96 1190.01C2562.96 1190.01 2579.63 1282.77 2479.67 1354.46 2452.69 1373.81 2332.8 1376 2332.8 1376 2332.8 1376 2329.23 1360.25 2337.21 1353.6 2337.21 1353.6 2439.69 1315.1 2449.7 1317 2458.58 1318.68 2505.55 1225.68 2523.9 1207.42 2542.26 1189.16 2562.96 1190.01 2562.96 1190.01Z" fill="#A6CAEC" fill-rule="evenodd"/><path d="M1927.95 1236.24C1930.19 1238.98 1930.48 1242.05 1929.37 1245.32 1929.37 1245.34 1929.36 1245.35 1929.35 1245.37 1927.29 1251.43 1920.49 1258.19 1912.59 1264.95 1911.58 1265.81 1910.68 1266.6 1909.9 1267.33 1909.7 1267.53 1909.49 1267.72 1909.3 1267.91 1909.14 1268.06 1908.99 1268.21 1908.84 1268.36 1901.47 1275.59 1904.24 1277.24 1891.01 1291.92 1875.93 1308.64 1865.54 1308.94 1862.58 1307.42 1860.08 1306.12 1865.16 1297.25 1870.79 1287.28 1871.06 1286.8 1871.33 1286.31 1871.61 1285.83 1872.36 1284.5 1873.11 1283.16 1873.85 1281.83 1880.44 1269.83 1878.75 1264.2 1877.19 1246.35 1875.92 1231.84 1856 1165.31 1856 1165.31L1884.91 1160C1884.91 1160 1893.62 1212.98 1903.21 1221.14 1908.34 1225.49 1914.08 1225.55 1919.01 1228.77 1919.36 1229 1919.7 1229.23 1920.03 1229.46 1922.84 1231.44 1925.69 1233.48 1927.95 1236.24Z" fill="#FFCDAB" fill-rule="evenodd"/><path d="M1927.95 1236.44C1930.19 1239.18 1930.48 1242.23 1929.37 1245.5 1929.37 1245.51 1929.36 1245.53 1929.35 1245.55 1926.83 1251.58 1920.21 1258.29 1912.58 1265.01 1911.59 1265.89 1910.71 1266.69 1909.93 1267.45 1909.72 1267.64 1909.51 1267.83 1909.32 1268.02 1909.16 1268.17 1909.01 1268.33 1908.86 1268.47 1901.5 1275.68 1904.27 1277.33 1891.05 1291.96 1875.98 1308.64 1865.61 1308.94 1862.65 1307.42 1860.16 1306.12 1865.23 1297.28 1870.85 1287.34 1873.79 1286.2 1887.41 1280.31 1897.71 1266.3 1906.79 1253.98 1912.84 1238.16 1919.02 1229 1919.37 1229.22 1919.71 1229.45 1920.05 1229.69 1922.85 1231.66 1925.7 1233.7 1927.95 1236.44Z" fill="url(#fill7)" fill-rule="evenodd"/><path d="M1695.86 1216.93C1694.07 1226.38 1681.34 1224.8 1667.11 1221.13 1652.88 1217.45 1656.27 1221.82 1636.02 1219.45 1615.77 1217.08 1609.64 1209.1 1609.02 1205.92 1608.47 1203.1 1618.47 1202.1 1629.2 1200.79 1630.55 1200.63 1631.91 1200.46 1633.26 1200.28 1645.38 1198.67 1654.25 1190.41 1665.26 1183.62 1675.68 1177.19 1691.23 1151 1691.23 1151L1719 1153.33C1719 1153.33 1704.43 1176.72 1698.79 1186.89 1695.48 1192.87 1695.66 1200.78 1696.07 1206.89 1696.29 1210.21 1696.49 1213.61 1695.86 1216.93Z" fill="#FFCDAB" fill-rule="evenodd"/><path d="M1666.92 1221.15C1652.74 1217.51 1656.11 1221.84 1635.93 1219.49 1615.75 1217.14 1609.64 1209.23 1609.02 1206.08 1608.47 1203.28 1618.44 1202.29 1629.14 1201L1629.24 1201.22C1629.24 1201.22 1641.34 1210.24 1658.14 1210.66 1671.83 1211.01 1686.33 1206.88 1695.79 1207.05 1696 1210.34 1696.21 1213.7 1695.58 1217 1693.8 1226.36 1681.1 1224.8 1666.92 1221.15Z" fill="url(#fill8)" fill-rule="evenodd"/><path d="M1801 1029.17 1826.89 1103.19 1860.68 1199.84C1860.68 1199.84 1869.85 1200.78 1878.64 1198.1 1886.72 1195.61 1896 1189.12 1896 1189.12 1896 1189.12 1886.62 1085.34 1869.11 1025.77 1864.62 1010.48 1859.6 998.111 1854.05 991.15 1826.91 957.068 1801 1029.17 1801 1029.17Z" fill="#1B4F7F" fill-rule="evenodd"/><path d="M1827.52 910.804C1844.42 904.984 1892.61 912.457 1941.03 922.578L1951.16 904.722 2055.73 896C2055.73 896 2090.24 977.727 2071.35 1029.8 2068.57 1037.45 2063.05 1042.36 2053.65 1042.53 2053.64 1042.53 2052.13 1042.52 2052.12 1042.53 2052.12 1042.53 1989.88 1042.49 1969.67 1042.49 1917.67 1042.49 1859.62 1004.31 1852.11 1002.7 1839.81 1000.08 1834.9 1026.33 1822.6 1053.9 1810.31 1081.47 1707.05 1176 1707.05 1176 1707.05 1176 1691.19 1176.17 1684.63 1173.54 1677.58 1170.72 1675 1167.05 1675 1167.05 1675 1167.05 1789.41 923.932 1827.52 910.804Z" fill="url(#fill9)" fill-rule="evenodd"/><path d="M1922.01 749.682C1955.07 778.243 2034.71 827.741 2035.14 827.528 2035.14 827.528 2060.66 843.769 2078.06 835.8 2107.07 822.519 2129.35 776.024 2089.22 724.582 2069.21 698.927 2052.61 690.475 2056.51 656.367 2060.73 619.411 2045.03 572.949 2004.99 570.999 2001.65 570.835 1981.38 567.959 1966.91 572.785 1930.04 585.081 1868.38 730.757 1922.01 749.682Z" fill="#0D0D0D" fill-rule="evenodd"/><path d="M2063.43 908.775C2061.28 915.113 2004.79 920.763 1972.65 918.486 1962.44 917.779 1954.67 916.244 1951.9 913.702 1940.44 903.072 1941.58 926.449 1940.01 814.601 1939.25 760.045 1983.38 711.457 1983.38 711.457 1983.38 711.457 1986.91 734.761 2030.68 707.025 2032.23 706.054 2049.47 733.297 2066.06 766.843 2084.34 803.901 2065.63 902.259 2063.43 908.775Z" fill="#A6CAEC" fill-rule="evenodd"/><path d="M1827 1102.76 1860.74 1199.84C1860.74 1199.84 1869.9 1200.79 1878.66 1198.09 1886.74 1195.59 1896 1189.07 1896 1189.07 1896 1189.07 1886.63 1084.83 1869.16 1025L1827 1102.76Z" fill="url(#fill10)" fill-rule="evenodd"/><path d="M1983 711C1983 711 1943 721.503 1932.63 739.951 1920 762.421 1857 863.73 1857 863.73 1857 863.73 1919.11 887.244 1929.69 875.914 1940.28 864.584 1966.53 770.795 1966.53 770.795L1983 711Z" fill="#A6CAEC" fill-rule="evenodd"/><path d="M2030 706.526C2030.17 706.55 2013.96 722.561 2002.08 727.188 1997.43 729.008 1989.7 731 1989.7 731 1989.7 731 1983.5 724.272 1983.41 724.18 1977.9 718.662 1983.44 717.069 1982.61 706.633 1982.56 706.139 1982.53 705.634 1982.47 705.128 1981.36 693.451 1978.21 680.666 1978.01 679.834 1978 679.809 1978 679.797 1978 679.797L2016.47 668 2015.23 670.279C2017.6 691.693 2024.77 705.898 2030 706.526Z" fill="#FFCDAB" fill-rule="evenodd"/><path d="M2017 668C2013.22 680.161 2002.9 696.48 1981.86 700 1979.83 686.949 1978.22 680.845 1978.01 680.002 1978 679.978 1978 679.965 1978 679.965L2017 668Z" fill="#F3BC97" fill-rule="evenodd"/><path d="M1971.43 692C1971.43 692 2023.56 688.332 2020.9 654.023 2018.24 619.713 2023.18 596.133 1989.78 597.024 1956.38 597.916 1950.94 611.568 1949.19 623.248 1947.45 634.928 1957.8 692.069 1971.43 692Z" fill="#FFCDAB" fill-rule="evenodd"/><path d="M1962 596.366C1962 596.366 1974.95 636.358 2005.68 641.007 2028.1 644.398 2037 638.016 2037 638.016 2037 638.016 2024.49 625.495 2017.7 606.235 2015.71 600.558 2010.98 596.425 2005.3 595.503 1989.34 592.908 1968.74 581.784 1962 596.366Z" fill="#0D0D0D" fill-rule="evenodd"/><path d="M1973 603.402C1973 603.402 1963.63 607.369 1957.09 622.035 1953.52 630.049 1950.93 649.134 1953.14 657 1953.14 657 1938.04 620.403 1948.97 603.908 1960.56 586.416 1973 603.402 1973 603.402Z" fill="#0D0D0D" fill-rule="evenodd"/><path d="M1982.74 707C1982.74 707 1985.98 727.225 1990 731 1990 731 1979.83 727.118 1975 713.54 1975 713.54 1978.56 707.462 1982.74 707Z" fill="#8ABAE6" fill-rule="evenodd"/><path d="M1945.68 777.079C1945.68 777.079 1916.74 814.148 1920.3 827.574 1923.87 841 1943.9 841 1943.9 841 1943.9 841 1940.16 812.397 1943.9 797.513 1947.64 782.627 1949.99 776.201 1945.68 777.079Z" fill="#8ABAE6" fill-rule="evenodd"/><path d="M2030 873.787C2030 873.787 2052.94 856.84 2052.38 841.061 2051.82 825.283 2052.4 796.33 2056.42 800.385 2060.43 804.441 2073.14 836.966 2071.92 846.174 2070.69 855.383 2060.81 882.747 2055.57 883.916 2050.32 885.084 2030 873.787 2030 873.787Z" fill="#8ABAE6" fill-rule="evenodd"/><path d="M1948 934.719C1948 934.719 1979.63 1040.43 2059.88 1053 2059.88 1053 2088.36 1023.15 2085.84 955.587 2083.32 888.027 1948 934.719 1948 934.719Z" fill="#A6CAEC" fill-rule="evenodd"/><path d="M2220.73 965.224 2205.4 1010.21C2201.44 1021.86 2189.35 1027.88 2178.42 1023.65L1774.34 867.447C1755.71 860.248 1737.78 851.19 1720.76 840.395L1666.13 805.733 1595.34 760.818C1583.07 753.033 1570.14 746.506 1556.72 741.319L1466.26 706.348C1462.9 705.052 1461.17 701.108 1462.39 697.534 1463 695.747 1464.23 694.394 1465.73 693.649 1467.22 692.905 1468.99 692.765 1470.67 693.414L1544.57 721.981C1569 731.426 1594.23 738.391 1619.89 742.779L1683.85 753.71 1750.24 765.049C1767.4 767.98 1784.27 772.641 1800.61 778.956L2208.12 936.484C2219.05 940.709 2224.7 953.579 2220.73 965.224Z" fill="#A6CAEC" fill-rule="evenodd"/><path d="M2220.73 965.289 2205.4 1010.23C2201.43 1021.86 2189.35 1027.87 2178.41 1023.65L1774.27 867.616C1755.64 860.425 1737.7 851.378 1720.68 840.594L1666.04 805.969C1665.74 796.304 1667.04 786.981 1670.06 778.111 1673.09 769.247 1677.71 761.206 1683.77 754L1750.17 765.327C1767.33 768.254 1784.2 772.91 1800.54 779.219L2208.12 936.577C2219.05 940.799 2224.7 953.655 2220.73 965.289Z" fill="#DCEAF7" fill-rule="evenodd"/><path d="M2220.72 965.468 2205.28 1010.27C2201.28 1021.87 2189.1 1027.86 2178.09 1023.65L2134 1006.81 2163.93 920 2208.01 936.843C2219.03 941.052 2224.72 953.87 2220.72 965.468Z" fill="#4E95D9" fill-rule="evenodd"/><path d="M1851.38 831.298 1962.39 871.582 1951.04 902.854 1840.03 862.571Z" fill="#A6CAEC" fill-rule="evenodd"/><path d="M1514 710.173 1509.63 723 1466.22 706.236C1462.9 704.95 1461.18 701.04 1462.39 697.496 1462.99 695.724 1464.21 694.382 1465.7 693.644 1467.18 692.906 1468.93 692.767 1470.6 693.41L1514 710.173Z" fill="#215F9A" fill-rule="evenodd"/><path d="M1760.08 864.212C1760.08 864.212 1758.91 845.276 1765.43 846.021 1773.42 846.937 1781.92 867.766 1778.02 871.791 1774.12 875.818 1760.16 868.881 1760.08 864.212Z" fill="#F3BC97" fill-rule="evenodd"/><path d="M2030 707C2030 707 2071.61 709.89 2082.01 727.112 2092.41 744.335 2125.82 842.44 2120.41 872.469 2115 902.498 2039.33 953 2039.33 953L2031.28 934.62C2031.28 934.62 2075.55 857.209 2071.37 846.488 2055.94 806.884 2030 707 2030 707Z" fill="#A6CAEC" fill-rule="evenodd"/><path d="M2041 940.477 2031.14 934.252C2031.14 934.252 2025.03 931.677 2021.43 932.221 2017.83 932.764 2009.28 931.17 2009.01 932.644 2008.74 934.118 2017.83 940.419 2017.83 940.419L2018.16 940.347C2013.05 948.604 1993.63 950.47 1992.23 953.58 1990.52 957.35 1998.87 960.889 2003.41 962.938 2007.94 964.987 2019.53 966.86 2026.22 961.5 2031.1 957.582 2039.15 952.423 2039.15 952.423L2041 940.477Z" fill="#FFCDAB" fill-rule="evenodd"/><path d="M2022.44 697C2022.44 697 1999.49 727.734 1990 731 1990 731 2016.96 731 2036 707.031 2036 707.031 2029.64 697.099 2022.44 697Z" fill="#8ABAE6" fill-rule="evenodd"/><path d="M1815 1561.82 1815 1858.57C1815 1888.08 1792.59 1912 1764.92 1912L1631.09 1912C1603.42 1912 1581 1888.08 1581 1858.57L1581 1561.82C1581 1547.05 1586.62 1533.69 1595.67 1524.02 1604.73 1514.35 1617.25 1508.37 1631.09 1508.37 1636.86 1508.37 1641.75 1504.31 1643.42 1498.75 1643.81 1497.44 1644.01 1496.05 1644.01 1494.6L1644.01 1466.61C1644.01 1465.3 1644.22 1464.06 1644.64 1462.92 1646.04 1458.88 1649.67 1456 1653.94 1456L1743.35 1456C1745.05 1456 1746.64 1456.53 1747.98 1457.43 1750.41 1459.08 1752.01 1461.96 1752.01 1465.23L1752.01 1494.59C1752.01 1502.2 1757.78 1508.37 1764.92 1508.37 1792.59 1508.37 1815 1532.29 1815 1561.82Z" fill="#A9DBF1" fill-rule="evenodd"/><path d="M1815 1561.82 1815 1858.57C1815 1888.08 1792.64 1912 1765.03 1912L1675.98 1912C1648.38 1912 1626 1888.08 1626 1858.57L1626 1561.82C1626 1547.05 1631.6 1533.69 1640.64 1524.02 1649.68 1514.35 1662.17 1508.37 1675.98 1508.37 1681.74 1508.37 1686.62 1504.31 1688.29 1498.75 1688.67 1497.44 1688.88 1496.05 1688.88 1494.6L1688.88 1466.61C1688.88 1465.3 1689.1 1464.06 1689.5 1462.92 1690.9 1458.88 1694.53 1456 1698.79 1456L1743.5 1456C1745.2 1456 1746.79 1456.53 1748.12 1457.43 1750.54 1459.08 1752.14 1461.96 1752.14 1465.23L1752.14 1494.59C1752.14 1502.2 1757.9 1508.37 1765.03 1508.37 1792.64 1508.37 1815 1532.29 1815 1561.82Z" fill="#DCEAF7" fill-rule="evenodd"/><path d="M1758 1493 1635 1493 1635 1467.69C1635 1456.82 1643.17 1448 1653.25 1448L1739.74 1448C1749.83 1448 1758 1456.82 1758 1467.69L1758 1493Z" fill="#F99746" fill-rule="evenodd"/><path d="M1581 1608 1815 1608 1815 1718 1581 1718Z" fill="#83CBEB" fill-rule="evenodd"/><path d="M2164 1836.08C2164 1855.13 2150.39 1871.33 2132.37 1872.98L1749.47 1907.87C1735.16 1909.16 1722.17 1900.94 1715.94 1888.11L1715.93 1888.11C1714.6 1885.39 1713.57 1882.46 1712.91 1879.37 1712.53 1877.65 1712.27 1875.89 1712.13 1874.09 1711.76 1869.56 1712.19 1865.14 1713.27 1861 1713.39 1860.51 1713.52 1860.03 1713.68 1859.57 1714.37 1857.2 1715.3 1854.94 1716.42 1852.8 1721.85 1842.47 1731.78 1835.11 1743.62 1834.03L2126.53 1799.14C2144.09 1797.53 2159.69 1810.32 2163.23 1828.34 2163.53 1829.82 2163.75 1831.36 2163.87 1832.91 2163.95 1833.97 2164 1835.03 2164 1836.08Z" fill="url(#fill11)" fill-rule="evenodd"/><path d="M1735 1873.4C1735 1878.3 1732.68 1882.72 1729.11 1885.32 1727.28 1886.66 1725.12 1887.51 1722.78 1887.72L1715.7 1888.37 1715.69 1888.37 1687.48 1890.95C1681.91 1891.45 1676.85 1888.21 1674.45 1883.15 1673.69 1881.55 1673.19 1879.76 1673.05 1877.84 1672.42 1869.93 1677.88 1862.96 1685.23 1862.28L1712.79 1859.76 1713.44 1859.7 1720.52 1859.06C1720.92 1859.01 1721.31 1859 1721.7 1859 1728.56 1859.03 1734.36 1864.69 1734.95 1872.17 1734.99 1872.59 1735 1873 1735 1873.4Z" fill="url(#fill12)" fill-rule="evenodd"/><path d="M2163 1828.23C2159.25 1842.66 2147.44 1853.74 2132.68 1855.09L1749.94 1889.87C1742.45 1890.55 1735.31 1888.61 1729.31 1884.76 1725.48 1882.33 1722.11 1879.09 1719.41 1875.26 1716.45 1871.06 1714.3 1866.15 1713.25 1860.77 1713.16 1860.32 1713.06 1859.86 1713 1859.4L1713.65 1859.35C1714.34 1856.98 1715.28 1854.73 1716.4 1852.6 1721.82 1842.31 1731.75 1834.98 1743.58 1833.89L2126.31 1799.14C2143.86 1797.54 2159.46 1810.28 2163 1828.23Z" fill="#D9D9D9" fill-rule="evenodd"/><path d="M1723 1865.54C1723 1869.45 1721.51 1873.06 1719.06 1875.66 1717.31 1877.52 1715.08 1878.88 1712.55 1879.47 1711.98 1879.59 1711.4 1879.69 1710.82 1879.74L1675.63 1882.94C1675.23 1882.99 1674.84 1883 1674.45 1883 1673.68 1881.41 1673.19 1879.63 1673.05 1877.73 1672.43 1869.88 1677.86 1862.97 1685.19 1862.3L1712.66 1859.8 1713.31 1859.75C1714 1857.38 1714.93 1855.13 1716.05 1853 1718.38 1854.36 1720.31 1856.46 1721.55 1859.05 1722.31 1860.64 1722.81 1862.42 1722.95 1864.32 1722.99 1864.74 1723 1865.14 1723 1865.54Z" fill="#D9D9D9" fill-rule="evenodd"/><path d="M2291 1822.11C2291.33 1844.36 2275.34 1863.57 2254.26 1865.49L2127.34 1877 2126 1791.17 2126.44 1791.13 2247.46 1780.15C2265.94 1778.48 2282.66 1790.6 2288.64 1808.44 2289.8 1811.84 2290.55 1815.44 2290.85 1819.2 2290.93 1820.17 2290.97 1821.14 2291 1822.11Z" fill="url(#fill13)" fill-rule="evenodd"/><path d="M2288 1808.31C2282.88 1823.56 2269.75 1835.07 2253.66 1836.54L2126.9 1848 2126 1791.08 2246.87 1780.15C2265.33 1778.48 2282.03 1790.55 2288 1808.31Z" fill="url(#fill14)" fill-rule="evenodd"/><path d="M2719.79 1925 443.206 1925C441.443 1925 440 1923.14 440 1920.86L440 1917.14C440 1914.86 441.443 1913 443.206 1913L2719.79 1913C2721.56 1913 2723 1914.86 2723 1917.14L2723 1920.86C2723 1923.14 2721.56 1925 2719.79 1925Z" fill="#2E3552" fill-rule="evenodd"/><path d="M2143.18 1800.41 2251.16 1790.96C2253.03 1790.8 2260.54 1795.29 2262.6 1799.45L2252.63 1807.77 2144.65 1817.22C2142.78 1817.38 2140.95 1814.12 2140.59 1809.96L2140.44 1808.26C2140.08 1804.1 2141.31 1800.57 2143.18 1800.41Z" fill="#E9F3FE" fill-rule="evenodd" fill-opacity="0.4"/><path d="M2109.43 1887.72 2101.07 1784.08C2100.14 1772.49 2108.3 1762.3 2119.31 1761.31L2121.94 1761.08C2132.95 1760.09 2142.63 1768.69 2143.57 1780.28L2151.93 1883.92C2152.86 1895.51 2144.7 1905.7 2133.69 1906.69L2131.06 1906.92C2120.05 1907.91 2110.37 1899.31 2109.43 1887.72Z" fill="url(#fill15)" fill-rule="evenodd"/></g></svg>