<svg width="2332" height="1430" xmlns="http://www.w3.org/2000/svg" xmlns:xlink="http://www.w3.org/1999/xlink" xml:space="preserve" overflow="hidden"><g transform="translate(-212 -1009)"><path d="M338.454 2438.91C338.454 2438.91 8.41931 1587.82 718.281 1429.59 1161.21 1330.86 1149.63 987.621 1776.38 1011.05 2418.18 1035.05 2165.44 1696.5 2248.71 1847.81 2331.99 1999.11 2545.69 2059.81 2468.19 2438.91L338.454 2438.91Z" fill="#DCEAF7" fill-rule="evenodd"/><path d="M1852.3 1191.36C1829.54 1135.36 1741.75 1168.83 1741.75 1168.83 1741.75 1168.83 1694.82 1281.42 1677.33 1286.86 1659.82 1292.3 1700.21 1182.05 1700.21 1182.05 1665.1 1184.22 1583.49 1245.31 1583.49 1245.31 1583.49 1245.31 1605.94 1363.69 1587.74 1364.26 1569.54 1364.83 1572.78 1258.34 1572.78 1258.34 1540.85 1274.92 1515.64 1322.79 1515.64 1322.79 1486.38 1398.76 1577.29 1435.82 1577.29 1435.82 1577.29 1435.82 1584.26 1477.02 1567.53 1528.45L1567.53 1528.45C1567.53 1528.45 1563.48 1538.1 1560.21 1553.91L1569.33 1552.37C1569.7 1549.58 1570.16 1546.86 1570.72 1544.23 1570.72 1544.21 1570.72 1544.2 1570.74 1544.18 1570.74 1544.14 1570.75 1544.1 1570.76 1544.07 1571.17 1542.42 1571.76 1540.08 1572.5 1537.23 1572.5 1537.22 1572.5 1537.22 1572.51 1537.21 1572.5 1537.21 1572.51 1537.21 1572.51 1537.2 1574.45 1530.78 1575.72 1526.06 1576.45 1522.68 1576.46 1522.67 1576.46 1522.66 1576.46 1522.65 1582.18 1502.55 1590.77 1476.17 1598.06 1469.71 1598.06 1469.71 1596.84 1468.33 1595.47 1465.47 1596.3 1466.82 1597.16 1468.23 1598.06 1469.71 1618.85 1503.61 1697.81 1496.56 1739.95 1479.49 1782.08 1462.43 1761.23 1452.23 1734.72 1434.44 1708.22 1416.64 1659.94 1430.63 1644.23 1424.55 1628.53 1418.47 1648.52 1406.38 1677.87 1403.93 1707.22 1401.49 1726.2 1430.7 1773.75 1427.69 1821.3 1424.68 1843.42 1322.49 1843.42 1322.49 1812.6 1338.89 1751.83 1329.17 1747.88 1317.37 1743.93 1305.57 1830.01 1292.33 1842.88 1286.43 1855.76 1280.52 1875.06 1247.36 1852.3 1191.36Z" fill="#C1E5F5" fill-rule="evenodd"/><path d="M2107.12 2160.63C2188.75 2107.38 2119.25 1953.04 2119.25 1953.04 2119.25 1953.04 1936.17 1889.93 1924.22 1858.9 1912.26 1827.86 2090.39 1879.48 2090.39 1879.48 2079.87 1815.47 1969.07 1678.13 1969.07 1678.13 1969.07 1678.13 1791.26 1743.53 1786.67 1710.24 1782.07 1676.95 1946.8 1661.1 1946.8 1661.1 1914.73 1605.88 1835.82 1569.37 1835.82 1569.37 1712.79 1531.21 1674.27 1705.69 1674.27 1705.69 1674.27 1705.69 1612.21 1726.91 1529.56 1706.72L1529.56 1706.72C1529.56 1706.72 1513.86 1701.26 1488.83 1698.49L1493.06 1714.93C1497.45 1715.03 1501.73 1715.32 1505.89 1715.81 1505.92 1715.8 1505.95 1715.8 1505.97 1715.81 1506.03 1715.82 1506.09 1715.84 1506.15 1715.84 1508.77 1716.25 1512.49 1716.85 1517.05 1717.63 1517.05 1717.63 1517.05 1717.63 1517.06 1717.64 1517.07 1717.63 1517.08 1717.65 1517.09 1717.64 1527.38 1719.9 1534.9 1721.25 1540.27 1721.93 1540.28 1721.93 1540.3 1721.93 1540.32 1721.93 1572.45 1728.31 1614.85 1738.69 1626.3 1750.78 1626.3 1750.78 1628.17 1748.23 1632.3 1745.14 1630.38 1746.94 1628.39 1748.82 1626.3 1750.78 1578.32 1795.86 1605.32 1939.39 1640.21 2013.28 1675.12 2087.15 1686.57 2046.76 1708.57 1994.47 1730.57 1942.18 1699.15 1856.38 1705.31 1826.3 1711.47 1796.21 1734.19 1830.46 1743.96 1883.85 1753.71 1937.24 1712.58 1978.05 1726.94 2064.74 1741.3 2151.42 1903.27 2171.13 1903.27 2171.13 1871.7 2117.92 1874.26 2004.35 1891.64 1994.68 1909.01 1985.02 1947 2140.37 1958.72 2162.79 1970.45 2185.22 2025.49 2213.88 2107.12 2160.63Z" fill="#C1E5F5" fill-rule="evenodd"/><path d="M896.373 1535.75C942.044 1463.7 1056.98 1536.46 1056.98 1536.46 1056.98 1536.46 1095.14 1708.46 1118.37 1721.24 1141.59 1734.01 1111.99 1567.21 1111.99 1567.21 1160.71 1580.54 1260.18 1690.31 1260.18 1690.31 1260.18 1690.31 1199.64 1850.13 1225.03 1856.26 1250.42 1862.39 1272.02 1711.76 1272.02 1711.76 1312.73 1744.43 1336.36 1819.1 1336.36 1819.1 1358.73 1934.44 1222.12 1959.91 1222.12 1959.91 1222.12 1959.91 1202.24 2015.79 1213.08 2092.97L1213.08 2092.98C1213.08 2092.98 1216.38 2107.74 1217.09 2130.91L1204.67 2126.08C1204.84 2122.04 1204.86 2118.09 1204.72 2114.22 1204.73 2114.19 1204.73 2114.18 1204.72 2114.15 1204.72 2114.09 1204.72 2114.04 1204.71 2113.99 1204.55 2111.56 1204.29 2108.1 1203.95 2103.86 1203.95 2103.86 1203.95 2103.84 1203.95 2103.84 1203.96 2103.84 1203.95 2103.83 1203.95 2103.83 1202.79 2094.22 1202.18 2087.23 1201.97 2082.27 1201.97 2082.24 1201.97 2082.23 1201.97 2082.22 1198.9 2052.29 1193.31 2012.7 1184.65 2001.47 1184.65 2001.47 1186.72 1999.89 1189.34 1996.27 1187.84 1997.92 1186.29 1999.65 1184.65 2001.47 1147.19 2043.03 1038.16 2010 983.243 1973.66 928.318 1937.34 960.09 1929.11 1001.63 1911.86 1043.17 1894.61 1107.46 1928.42 1130.99 1924.48 1154.52 1920.52 1129.44 1897.67 1088.86 1885.64 1048.29 1873.6 1014.5 1909.11 948.547 1890.94 882.581 1872.78 876.653 1722.67 876.653 1722.67 915.842 1754.75 1003.47 1758.88 1011.91 1743.46 1020.35 1728.03 902.849 1684.21 886.239 1672.14 869.628 1660.06 850.696 1607.8 896.373 1535.75Z" fill="#C1E5F5" fill-rule="evenodd"/><path d="M1729.82 1643.02C1729.66 1642.63 1729.48 1642.21 1729.26 1641.77 1728.53 1638.71 1722.18 1622.47 1721.47 1620.69 1719.47 1615.63 1716.2 1618.32 1716.2 1622.1 1716.2 1623.27 1716.66 1631.6 1716.4 1632.81 1710.99 1628.51 1707.67 1624.04 1693.74 1619.79 1693.74 1619.79 1683.12 1616.01 1688.22 1627.59 1691.64 1635.32 1695.71 1636.29 1700.69 1647.11 1705.65 1657.92 1714.85 1665.36 1723.07 1664.68L1731.91 1667.91 1740.83 1653.64 1735.09 1649.81C1732.71 1648.21 1730.91 1645.81 1729.82 1643.02Z" fill="#F6C6AD" fill-rule="evenodd"/><path d="M1195.83 1314.91 1715.83 1314.91 1715.83 2131.91 1195.83 2131.91Z" fill="#FFFFFF" fill-rule="evenodd"/><path d="M1329.83 1388.91 1566.83 1388.91 1566.83 1401.91 1329.83 1401.91Z" fill="#F99746" fill-rule="evenodd"/><path d="M1298.83 1419.91 1417.83 1419.91 1417.83 1433.91 1298.83 1433.91Z" fill="#F99746" fill-rule="evenodd"/><path d="M1430.83 1419.91 1605.83 1419.91 1605.83 1433.91 1430.83 1433.91Z" fill="#F99746" fill-rule="evenodd"/><path d="M1311.83 1721.91 1566.83 1721.91 1566.83 1732.91 1311.83 1732.91Z" fill="#83CBEB" fill-rule="evenodd"/><path d="M1446.83 1694.9 1626.84 1694.9 1626.84 1705.9 1446.83 1705.9Z" fill="#83CBEB" fill-rule="evenodd"/><path d="M1250.83 1694.9 1427.83 1694.9 1427.83 1705.9 1250.83 1705.9Z" fill="#83CBEB" fill-rule="evenodd"/><path d="M1453.83 1667.91 1609.83 1667.91 1609.83 1677.91 1453.83 1677.91Z" fill="#83CBEB" fill-rule="evenodd"/><path d="M1268.83 1667.91 1424.83 1667.91 1424.83 1677.91 1268.83 1677.91Z" fill="#83CBEB" fill-rule="evenodd"/><path d="M1481.61 1822.91 1406.07 1822.91C1402.64 1822.91 1399.83 1819.99 1399.83 1816.42L1399.83 1816.42C1399.83 1812.84 1402.64 1809.91 1406.07 1809.91L1481.61 1809.91C1485.04 1809.91 1487.83 1812.84 1487.83 1816.42L1487.83 1816.42C1487.84 1819.99 1485.04 1822.91 1481.61 1822.91Z" fill="#83CBEB" fill-rule="evenodd"/><path d="M1585.67 1822.91 1511 1822.91C1507.61 1822.91 1504.83 1819.99 1504.83 1816.42L1504.83 1816.42C1504.83 1812.84 1507.61 1809.91 1511 1809.91L1585.67 1809.91C1589.06 1809.91 1591.83 1812.84 1591.83 1816.42L1591.83 1816.42C1591.83 1819.99 1589.06 1822.91 1585.67 1822.91Z" fill="#83CBEB" fill-rule="evenodd"/><path d="M1494.33 2002.91C1457.11 2002.91 1426.83 1969.71 1426.83 1928.92 1426.83 1888.1 1457.11 1854.91 1494.33 1854.91 1531.55 1854.91 1561.83 1888.1 1561.83 1928.92 1561.83 1969.71 1531.55 2002.91 1494.33 2002.91ZM1494.33 1858.64C1458.99 1858.64 1430.24 1890.16 1430.24 1928.92 1430.24 1967.66 1458.99 1999.18 1494.33 1999.18 1529.68 1999.18 1558.43 1967.66 1558.43 1928.92 1558.43 1890.16 1529.68 1858.64 1494.33 1858.64Z" fill="#46B1E1" fill-rule="evenodd"/><path d="M1494.34 1988.91C1464.29 1988.91 1439.83 1962.22 1439.83 1929.42 1439.83 1896.6 1464.29 1869.91 1494.34 1869.91 1524.38 1869.91 1548.83 1896.6 1548.83 1929.42 1548.83 1962.22 1524.38 1988.91 1494.34 1988.91ZM1494.34 1873.64C1466.17 1873.64 1443.25 1898.66 1443.25 1929.42 1443.25 1960.16 1466.17 1985.2 1494.34 1985.2 1522.51 1985.2 1545.43 1960.16 1545.43 1929.42 1545.43 1898.66 1522.51 1873.64 1494.34 1873.64Z" fill="#46B1E1" fill-rule="evenodd"/><path d="M1495.3 1952.46C1488.24 1954.98 1481.35 1956.3 1475.93 1955.81 1467.67 1955.05 1463.02 1950.27 1462.84 1942.36 1462.7 1936.07 1465.05 1930.57 1469.69 1926.11 1469.63 1925.69 1469.6 1925.25 1469.57 1924.82 1469.26 1920.39 1470.12 1917.46 1472.11 1916.09 1475.34 1913.86 1480.13 1916.9 1480.32 1917.04L1479.26 1919.05C1478.19 1918.36 1475 1916.85 1473.24 1918.07 1471.71 1919.12 1471.53 1922.02 1471.67 1924.37 1475.43 1921.36 1480.35 1918.91 1486.34 1917.12 1490.78 1915.79 1495.72 1914.91 1500.17 1914.51 1500.2 1913.96 1500.24 1913.47 1500.3 1913.06 1500.44 1911.98 1500.78 1910.7 1501.75 1910.45 1502.12 1910.35 1502.82 1910.37 1503.46 1911.44 1503.86 1912.12 1504.08 1913.1 1504.1 1914.28 1505.65 1914.24 1507.08 1914.28 1508.34 1914.37 1508.35 1914.35 1508.36 1914.31 1508.37 1914.29 1508.06 1911.51 1508.29 1908.24 1508.7 1906.13 1509.24 1903.42 1510.12 1902.06 1511.36 1901.92 1512.09 1901.84 1512.74 1902.27 1513.04 1903.06 1513.73 1904.9 1512.43 1909.87 1510.56 1914.63 1510.56 1914.64 1510.56 1914.64 1510.56 1914.66 1512.32 1914.99 1513.51 1915.52 1513.89 1916.28 1514.18 1916.84 1514.21 1917.71 1513.46 1918.47 1512.04 1919.92 1510.91 1919.55 1510.36 1919.2 1509.89 1918.91 1509.52 1918.42 1509.23 1917.77 1507.81 1920.87 1506.26 1923.52 1505.05 1924.64 1503.93 1925.68 1502.94 1925.27 1502.57 1925.04 1502.39 1924.91 1502.2 1924.76 1502.05 1924.56 1501.55 1925.87 1501.02 1927.12 1500.43 1928.24 1498.2 1932.56 1495.71 1934.77 1493.2 1934.63 1492.17 1934.58 1491.26 1934.13 1490.49 1933.3 1489.1 1936.63 1487.37 1939.79 1485.62 1942.14 1483.86 1944.55 1481.62 1945.43 1479.29 1944.62 1475.18 1943.2 1471.46 1936.63 1470.07 1928.84 1466.55 1932.64 1464.84 1937.13 1464.95 1942.29 1465.12 1949.04 1468.87 1952.8 1476.11 1953.47 1494.37 1955.15 1526.4 1936.4 1528.83 1922.6L1528.83 1922.6C1526.86 1933.82 1511.66 1946.6 1495.3 1952.46ZM1471.93 1927.05C1473.04 1935.26 1476.77 1941.3 1479.93 1942.39 1481.41 1942.9 1482.78 1942.32 1483.99 1940.67 1486.04 1937.87 1487.82 1934.4 1489.09 1931.03 1488.72 1930.16 1488.42 1929.14 1488.21 1927.97 1487.69 1925.27 1487.61 1921.55 1488.21 1919 1484.8 1919.93 1481.38 1921.2 1478.21 1922.84 1475.79 1924.11 1473.69 1925.52 1471.93 1927.05ZM1491.43 1930.89C1491.89 1931.65 1492.49 1932.25 1493.3 1932.29 1494.9 1932.37 1496.83 1930.48 1498.58 1927.09 1499.5 1925.33 1500.22 1923.44 1500.77 1921.64 1500.42 1920.17 1500.24 1918.45 1500.17 1916.87 1497.82 1917.08 1495.27 1917.43 1492.62 1917.96 1494 1920.92 1493.2 1925.92 1491.43 1930.89ZM1502.98 1921.68C1503.32 1922.78 1503.61 1922.99 1503.61 1922.99 1504.8 1921.87 1506.15 1919.43 1507.39 1916.66 1506.38 1916.62 1505.24 1916.61 1504.01 1916.65 1503.84 1918.22 1503.48 1919.93 1502.98 1921.68ZM1490.54 1918.66C1490 1919.91 1489.61 1923.89 1490.26 1927.43 1491.33 1923.55 1491.55 1920.19 1490.54 1918.66ZM1511.42 1917.17C1511.42 1917.17 1511.42 1917.17 1511.43 1917.17 1511.42 1917.17 1511.42 1917.17 1511.42 1917.17ZM1511.11 1905.16C1510.92 1905.75 1510.74 1906.62 1510.6 1907.62 1510.85 1906.65 1511.02 1905.81 1511.11 1905.16Z" fill="#46B1E1" fill-rule="evenodd"/><path d="M1296.83 1598.91 1581.83 1598.91 1581.83 1608.91 1296.83 1608.91Z" fill="#83CBEB" fill-rule="evenodd"/><path d="M1446.83 1570.91 1648.83 1570.91 1648.83 1580.91 1446.83 1580.91Z" fill="#83CBEB" fill-rule="evenodd"/><path d="M1229.83 1570.91 1426.83 1570.91 1426.83 1580.91 1229.83 1580.91Z" fill="#83CBEB" fill-rule="evenodd"/><path d="M1455.83 1543.91 1628.84 1543.91 1628.84 1553.91 1455.83 1553.91Z" fill="#83CBEB" fill-rule="evenodd"/><path d="M1248.83 1543.91 1423.83 1543.91 1423.83 1553.91 1248.83 1553.91Z" fill="#83CBEB" fill-rule="evenodd"/><path d="M1941.94 1617.79C1941.94 1617.79 1985.74 1800.94 1852.57 1770.49 1816.62 1762.28 1720.83 1658.09 1720.83 1658.09 1720.83 1658.09 1730.06 1642.21 1741.4 1643.89 1741.4 1643.89 1833.94 1676.74 1848.74 1688.63 1856.93 1695.21 1866.29 1591.45 1894.64 1592.92 1922.98 1594.4 1941.94 1617.79 1941.94 1617.79Z" fill="#4AB6AE" fill-rule="evenodd"/><path d="M2000.84 2389.86C2000.84 2389.86 1998.41 2433.21 1990.85 2433.83 1989.85 2433.91 1952.51 2433.91 1952.51 2433.91L1904.84 2433.6C1904.84 2433.6 1905.15 2420.87 1919.08 2418.17 1933.02 2415.48 1956.34 2404.62 1964.78 2384.18 1973.65 2362.69 2000.84 2389.86 2000.84 2389.86Z" fill="#163560" fill-rule="evenodd"/><path d="M2004.83 2392.58C2004.83 2392.58 1990.13 2397.91 1978.66 2397.91 1965.87 2397.91 1954.23 2394.13 1954.23 2394.13 1954.23 2394.13 1951.47 2365.17 1936.25 2301.34 1928.26 2267.9 1916.86 2224.89 1900.64 2171.44 1855.81 2023.74 1842.17 1937.34 1840.93 1929.15 1840.86 1928.72 1840.83 1928.51 1840.83 1928.51L1840.97 1928.44 1978.84 1862.91C1978.84 1862.91 1961.8 2066.48 1983.53 2144.62 1986.57 2155.54 1989.18 2168.26 1991.42 2182.05 2005.15 2266.92 2004.83 2392.58 2004.83 2392.58Z" fill="#2B478B" fill-rule="evenodd"/><path d="M1990.83 2182.46 1936.21 2301.91C1928.3 2268.42 1917.02 2225.36 1900.96 2171.84 1856.56 2023.95 1843.07 1937.44 1841.83 1929.24 1841.85 1929 1841.86 1928.76 1841.88 1928.52L1978.37 1862.91C1978.37 1862.91 1961.5 2066.74 1983.02 2144.98 1986.03 2155.92 1988.62 2168.65 1990.83 2182.46Z" fill="#233862" fill-rule="evenodd"/><path d="M1894.83 2389.86C1894.83 2389.86 1892.38 2433.21 1884.75 2433.83 1883.73 2433.91 1846 2433.91 1846 2433.91L1797.83 2433.6C1797.83 2433.6 1798.15 2420.87 1812.22 2418.17 1826.31 2415.48 1849.88 2404.62 1858.41 2384.18 1867.37 2362.69 1894.83 2389.86 1894.83 2389.86Z" fill="#163560" fill-rule="evenodd"/><path d="M1816.87 1866.91C1816.87 1866.91 1815.1 1998.97 1835.95 2161.11 1856.8 2323.26 1849.74 2392.09 1849.74 2392.09 1849.74 2392.09 1864.06 2397.17 1869.84 2397.69 1884.58 2399.01 1899.68 2393.9 1899.68 2393.9 1899.68 2393.9 1929.53 2231.7 1920.96 2150.54 1912.41 2069.39 1961.84 1872.05 1961.84 1872.05L1816.87 1866.91Z" fill="#2B478B" fill-rule="evenodd"/><path d="M1916.83 1553.09 1892.92 1575.91 1853.83 1574.04C1853.93 1570.61 1854.64 1556.38 1855.3 1543.49 1855.35 1542.73 1855.39 1541.96 1855.43 1541.22 1856 1530.25 1856.5 1520.82 1856.5 1520.82L1889.86 1498.3 1902.28 1489.91C1902.28 1490.14 1902.8 1501.91 1902.88 1503.63 1904.31 1534.14 1916.83 1553.09 1916.83 1553.09Z" fill="#F6C6AD" fill-rule="evenodd"/><path d="M1808.89 1872.97C1809.44 1942.72 1813.69 2105.9 1816.81 2109.22 1850.02 2144.28 1996.07 2099.6 2003.82 2060.97 2011.55 2022.33 1974.39 1565.58 1917.67 1547.34 1905.91 1543.56 1842.98 1565.82 1842.98 1565.82 1842.98 1565.82 1833.12 1594.06 1826.65 1630.05 1824.25 1643.38 1816.42 1738.52 1811.85 1802.09 1810.64 1819.03 1809.65 1833.74 1809.07 1844.05 1808.83 1848.3 1808.78 1858.69 1808.89 1872.97Z" fill="#76C8C2" fill-rule="evenodd"/><path d="M1900.2 1504.71C1894.21 1520.4 1866.48 1537.43 1854.83 1543.91 1854.87 1543.14 1854.91 1542.38 1854.96 1541.63 1855.53 1530.57 1856.04 1521.08 1856.04 1521.08L1889.69 1498.4C1897.6 1497.06 1902.68 1498.25 1900.2 1504.71Z" fill="#FCA56B" fill-rule="evenodd"/><path d="M1844.19 1522.58C1844.19 1522.58 1904.64 1528.76 1907.56 1487.34 1910.48 1445.93 1920.25 1418.83 1881.78 1413.14 1843.31 1407.45 1834.69 1422.61 1830.65 1436.17 1826.62 1449.74 1828.54 1519.91 1844.19 1522.58Z" fill="#F6C6AD" fill-rule="evenodd"/><path d="M1831.49 1431.75C1831.49 1431.75 1843.88 1476.03 1852.02 1472.09 1860.15 1468.14 1867.6 1464.89 1868.99 1478.78 1870.4 1492.68 1861.63 1511.14 1888.36 1507.43 1915.1 1503.71 1938.44 1420.74 1928.49 1408.38 1899.8 1372.71 1791.8 1389.33 1831.49 1431.75Z" fill="#404040" fill-rule="evenodd"/><path d="M1858.32 1548.41C1859.07 1548.07 1901.66 1527.22 1906.64 1529.02 1911.62 1530.81 1917.83 1547.41 1917.83 1547.41L1842.83 1565.91C1842.83 1565.91 1848.73 1552.82 1858.32 1548.41Z" fill="#4AB6AE" fill-rule="evenodd"/><path d="M1808.9 1922.91C1922.97 1833.17 1931.83 1690.91 1931.83 1690.91 1877.56 1724.22 1826.03 1779.29 1809.3 1839.82 1808.1 1856.74 1809.67 1883.75 1809.08 1894.04 1808.85 1898.29 1808.79 1908.65 1808.9 1922.91Z" fill="#4AB6AE" fill-rule="evenodd"/><path d="M1737.81 1877.21C1737.81 1877.21 1736.37 1875.94 1733.18 1875.66 1730.42 1874.64 1722.72 1870.91 1721.41 1869.58 1717.23 1865.4 1715.76 1869.85 1718.68 1874.29 1719.31 1875.25 1721.57 1876.88 1722.36 1877.8 1716.11 1880.41 1707.76 1885.78 1696.92 1896.27 1696.92 1896.27 1688.25 1903.99 1699.97 1905.67 1707.8 1906.79 1710.76 1903.57 1721.83 1904.96 1732.89 1906.35 1743.63 1901.98 1747.55 1894.03L1754.83 1887.67 1748.63 1871.54 1737.81 1877.21Z" fill="#F6C6AD" fill-rule="evenodd"/><path d="M1883.66 1569.93C1883.66 1569.93 2004.24 1563.63 1895.18 1784.06 1877.75 1819.31 1753.12 1895.91 1753.12 1895.91 1753.12 1895.91 1741.41 1882.13 1745.83 1870.61 1745.83 1870.61 1826.99 1770.27 1837.87 1766.19 1847.51 1762.57 1845.52 1640.41 1854.15 1610.94 1862.78 1581.48 1883.66 1569.93 1883.66 1569.93Z" fill="#76C8C2" fill-rule="evenodd"/><path d="M1741.26 2431.91 1654.29 2431.88 1608.28 2431.87C1590.43 2431.86 1575.83 2415.9 1575.83 2396.39L1575.93 2045.35C1575.93 2025.85 1590.54 2009.9 1608.4 2009.91L1649.2 2009.92 1741.38 2009.95C1759.23 2009.95 1773.83 2025.91 1773.83 2045.43L1773.74 2396.46C1773.73 2415.95 1759.13 2431.91 1741.26 2431.91Z" fill="#C0D8FB" fill-rule="evenodd" fill-opacity="0.501961"/><path d="M1759.55 2343.51 1757.25 2325.06 1757.25 2325.06 1754.95 2306.6C1754.37 2301.9 1752.06 2297.88 1748.84 2295.19 1745.62 2292.52 1741.47 2291.16 1737.17 2291.81 1736.69 2291.88 1736.22 2291.99 1735.76 2292.1 1737.34 2289.6 1738.24 2286.79 1738.48 2283.93 1741.4 2291.61 1749.09 2296.1 1756.72 2294.11 1765.17 2291.89 1770.43 2282.52 1768.4 2273.27L1764.44 2255.16 1764.44 2255.16 1760.48 2237.04C1759.47 2232.43 1756.82 2228.68 1753.37 2226.36 1749.92 2224.04 1745.66 2223.15 1741.44 2224.26 1732.99 2226.47 1727.74 2235.85 1729.76 2245.09L1735.73 2272.38C1734.82 2270.96 1733.71 2269.66 1732.39 2268.56 1729.67 2266.28 1726.47 2265.13 1723.27 2265.03 1724.83 2262.83 1725.86 2260.24 1726.32 2257.55 1726.91 2254.02 1726.5 2250.32 1725.02 2246.95 1726.81 2240.47 1725.02 2233.13 1719.98 2228.58L1693.75 2204.85C1687.06 2198.8 1677.06 2199.83 1671.52 2207.16 1666.4 2213.95 1666.84 2223.82 1672.23 2230.05 1670.84 2230.05 1669.43 2230.22 1668.02 2230.65L1651.61 2235.56 1651.61 2235.56 1635.19 2240.47C1629.49 2242.18 1625.36 2247.16 1624.03 2253.07L1622.31 2248.54 1622.31 2248.54 1615.76 2231.37C1612.4 2222.59 1603.11 2218.42 1595.09 2222.08 1587.08 2225.75 1583.26 2235.91 1586.61 2244.7L1593.16 2261.87 1593.16 2261.87 1597.37 2272.88C1591.8 2275.31 1587.71 2281.12 1587.39 2288.07L1586.53 2306.65 1586.53 2306.65 1585.67 2325.26C1585.46 2330 1587.03 2334.42 1589.74 2337.71 1592.45 2340.99 1596.3 2343.15 1600.65 2343.4 1602.5 2343.49 1604.29 2343.23 1605.98 2342.66 1604.35 2346.26 1603.88 2350.4 1604.73 2354.35 1601.81 2356.18 1599.4 2359.03 1598.02 2362.67L1591.53 2379.88 1591.53 2379.88 1585.03 2397.1C1583.37 2401.48 1583.5 2406.23 1585.05 2410.31 1586.61 2414.41 1589.58 2417.85 1593.6 2419.67 1599.86 2422.5 1606.86 2420.54 1611.24 2415.38 1612.26 2418.04 1613.91 2420.46 1616.15 2422.33 1623.04 2428.12 1633 2426.66 1638.28 2419.12L1648.62 2404.33 1648.62 2404.33 1658.97 2389.54C1660.37 2387.53 1661.29 2385.29 1661.78 2382.95 1665.38 2383.36 1669.11 2382.42 1672.3 2380.02L1675.01 2377.97 1671.26 2383.34 1671.26 2383.34 1660.92 2398.12C1655.64 2405.68 1656.96 2416.56 1663.87 2422.35 1670.77 2428.13 1680.72 2426.69 1686 2419.13L1696.34 2404.35 1696.34 2404.35 1706.69 2389.56C1706.82 2389.36 1706.93 2389.17 1707.06 2388.97 1707.89 2390.45 1708.92 2391.75 1710.09 2392.86L1706.41 2398.13C1701.12 2405.68 1702.44 2416.59 1709.35 2422.37 1716.24 2428.15 1726.21 2426.7 1731.48 2419.14L1752.17 2389.57C1754.8 2385.8 1755.79 2381.19 1755.26 2376.79 1754.73 2372.4 1752.68 2368.22 1749.23 2365.34 1748.05 2364.34 1746.77 2363.58 1745.45 2363.01 1745.65 2363 1745.84 2363 1746.03 2362.96 1754.64 2361.68 1760.73 2352.94 1759.55 2343.51ZM1617.22 2327.01 1617.51 2320.67C1618.51 2322.51 1619.83 2324.18 1621.46 2325.56 1622.09 2326.08 1622.73 2326.51 1623.39 2326.92L1616.16 2332.38C1616.75 2330.7 1617.13 2328.9 1617.22 2327.01ZM1723.65 2311.28 1726.74 2336.09C1725.4 2333.1 1723.33 2330.65 1720.82 2328.97 1717.76 2326.92 1714.08 2325.99 1710.35 2326.58 1711.95 2325.49 1713.44 2324.1 1714.64 2322.37L1723.53 2309.66C1723.54 2310.21 1723.58 2310.74 1723.65 2311.28ZM1687.73 2244.25 1691.7 2247.86 1687.61 2250.95C1688.04 2248.78 1688.1 2246.53 1687.73 2244.25ZM1691.16 2299.06C1690.76 2296.38 1689.79 2293.88 1688.36 2291.73 1689.54 2291.24 1690.69 2290.62 1691.76 2289.81L1704.21 2280.41 1691.16 2299.06ZM1701.49 2331.41C1698.15 2328.37 1693.83 2326.97 1689.58 2327.48L1689.91 2322.82C1690.67 2323.84 1691.53 2324.76 1692.5 2325.59 1696 2328.52 1700.28 2329.58 1704.34 2328.94 1703.3 2329.64 1702.34 2330.49 1701.49 2331.41ZM1669.67 2265.99C1666.2 2271.71 1666.02 2279.42 1669.8 2285.39 1669.86 2285.5 1669.94 2285.6 1670.01 2285.71 1668.86 2286.19 1667.77 2286.79 1666.76 2287.55 1667.48 2285.09 1667.69 2282.5 1667.38 2279.99 1666.86 2275.6 1664.81 2271.42 1661.35 2268.53 1661.33 2268.52 1661.32 2268.51 1661.3 2268.51L1669.67 2265.99ZM1653.95 2307.56 1660.04 2298.84C1659.96 2299.38 1659.89 2299.93 1659.85 2300.48L1658.69 2316.48C1656.41 2314.21 1653.61 2312.77 1650.67 2312.25L1653.95 2307.56 1653.95 2307.56ZM1625.44 2380.62 1627.21 2375.88C1628.52 2372.43 1628.71 2368.76 1627.97 2365.36 1628.34 2365.14 1628.7 2364.91 1629.04 2364.64L1657.06 2343.49C1657.24 2343.36 1657.41 2343.21 1657.58 2343.07 1657.96 2344.75 1658.56 2346.34 1659.36 2347.8L1654.37 2351.56C1651.02 2354.09 1648.86 2357.83 1647.99 2361.87 1642.73 2361.32 1637.31 2363.62 1633.89 2368.53L1625.44 2380.62ZM1699.75 2359.31 1700.62 2363.31C1699.21 2362.62 1697.74 2362.17 1696.24 2361.95L1699.75 2359.31ZM1733.1 2363.35 1731.89 2357.78 1731.89 2357.78 1731.66 2356.71C1733.37 2359.01 1735.59 2360.81 1738.11 2361.91 1736.39 2362.09 1734.7 2362.56 1733.1 2363.35ZM1637.44 2274.29 1628.86 2286.55 1628.86 2286.55 1618.52 2301.33C1618.48 2301.39 1618.44 2301.47 1618.4 2301.53L1618.93 2289.82C1618.95 2289.52 1618.93 2289.22 1618.93 2288.92 1619.42 2288.76 1619.91 2288.57 1620.38 2288.35 1626.82 2285.41 1630.53 2278.28 1630.03 2271.05 1632.19 2272.78 1634.74 2273.92 1637.44 2274.29Z" fill="#83CBEB" fill-rule="evenodd"/><path d="M1654.59 2431.91 1608.41 2431.9C1590.48 2431.88 1575.83 2415.93 1575.83 2396.41L1575.93 2045.35C1575.93 2025.85 1590.6 2009.89 1608.52 2009.91L1649.48 2009.92C1652.86 2016.23 1654.84 2023.78 1654.83 2031.85L1654.73 2428.37C1654.73 2429.56 1654.69 2430.75 1654.59 2431.91Z" fill="#AFCDFB" fill-rule="evenodd" fill-opacity="0.501961"/><path d="M1771.52 2025.91 1648.16 2025.87 1578.13 2025.84C1574.67 2025.84 1571.83 2022.74 1571.83 2018.93L1571.84 1985.81C1571.84 1982.01 1574.68 1978.9 1578.15 1978.91L1648.07 1978.93C1648.07 1978.93 1648.07 1978.93 1648.09 1978.93L1771.54 1978.97C1775 1978.97 1777.84 1982.08 1777.83 1985.88L1777.83 2019C1777.83 2022.81 1775 2025.92 1771.52 2025.91Z" fill="#F99746" fill-rule="evenodd"/><path d="M1648.59 2025.91 1578.17 2025.88C1574.68 2025.88 1571.83 2022.77 1571.83 2018.96L1571.84 1985.82C1571.84 1982.01 1574.7 1978.9 1578.19 1978.91L1648.5 1978.93C1648.51 1978.93 1648.51 1978.93 1648.51 1978.93 1651.99 1978.94 1654.83 1982.05 1654.83 1985.84L1654.83 2018.99C1654.82 2022.77 1652.03 2025.86 1648.59 2025.91Z" fill="#EF7E29" fill-rule="evenodd"/><path d="M2226.83 2410.91C2226.83 2417.23 2224.44 2422.98 2220.59 2427.15 2216.73 2431.32 2211.41 2433.91 2205.56 2433.91L2105.11 2433.91C2093.41 2433.91 2083.83 2423.55 2083.83 2410.91 2083.83 2404.58 2086.23 2398.83 2090.08 2394.67 2093.94 2390.5 2099.25 2387.91 2105.11 2387.91L2205.56 2387.91C2217.26 2387.91 2226.83 2398.26 2226.83 2410.91Z" fill="#EF7E29" fill-rule="evenodd"/><path d="M2174.84 2410.91C2174.84 2417.23 2172.45 2422.98 2168.61 2427.15 2164.75 2431.32 2159.44 2433.91 2153.61 2433.91L2105.07 2433.91C2093.39 2433.91 2083.84 2423.55 2083.84 2410.91 2083.84 2404.58 2086.23 2398.83 2090.07 2394.67 2093.92 2390.5 2099.23 2387.91 2105.07 2387.91L2153.61 2387.91C2165.29 2387.91 2174.84 2398.26 2174.84 2410.91Z" fill="#F99746" fill-rule="evenodd"/><path d="M2206.84 2399.91 2111.83 2399.91C2110.18 2399.91 2108.83 2398.5 2108.83 2396.77L2108.83 2396.06C2108.83 2394.33 2110.18 2392.91 2111.83 2392.91L2206.84 2392.91C2208.49 2392.91 2209.83 2394.33 2209.83 2396.06L2209.83 2396.77C2209.83 2398.5 2208.49 2399.91 2206.84 2399.91Z" fill="#FFE2CC" fill-rule="evenodd" fill-opacity="0.501961"/><path d="M1309.83 1801.39 1309.83 2128.42C1309.83 2148.48 1294.8 2164.91 1276.4 2164.91L1098.27 2164.91C1093.51 2164.91 1088.97 2163.81 1084.84 2161.82 1073.09 2156.15 1064.83 2143.29 1064.83 2128.42L1064.83 1801.39C1064.83 1781.32 1079.89 1764.91 1098.27 1764.91L1276.4 1764.91C1294.8 1764.91 1309.83 1781.32 1309.83 1801.39Z" fill="#FCECDB" fill-rule="evenodd"/><path d="M1230.51 1888.35C1211.63 1880.58 1202.09 1857.53 1209.18 1836.85 1216.26 1816.18 1237.29 1805.71 1256.16 1813.47 1275.02 1821.23 1284.58 1844.3 1277.5 1864.97 1270.41 1885.64 1249.37 1896.11 1230.51 1888.35Z" fill="#F3D1B3" fill-rule="evenodd"/><path d="M1277.52 1864.91 1209.83 1836.82C1216.85 1816.17 1237.68 1805.72 1256.38 1813.47 1275.07 1821.23 1284.53 1844.26 1277.52 1864.91Z" fill="#E9BA8F" fill-rule="evenodd"/><path d="M1107.26 1881.9C1091.63 1867.92 1089.32 1842.73 1102.06 1825.61 1114.81 1808.51 1137.79 1805.95 1153.42 1819.92 1169.03 1833.9 1171.36 1859.1 1158.61 1876.21 1145.86 1893.32 1122.86 1895.86 1107.26 1881.9Z" fill="#F3D1B3" fill-rule="evenodd"/><path d="M1158.58 1875.91 1101.83 1825.55C1114.63 1808.52 1137.69 1805.98 1153.37 1819.88 1169.04 1833.79 1171.37 1858.87 1158.58 1875.91Z" fill="#E9BA8F" fill-rule="evenodd"/><path d="M1230.51 2130.34C1211.63 2122.58 1202.09 2099.53 1209.18 2078.86 1216.26 2058.18 1237.29 2047.71 1256.16 2055.47 1275.02 2063.23 1284.58 2086.3 1277.5 2106.97 1270.41 2127.65 1249.37 2138.11 1230.51 2130.34Z" fill="#F7E0CB" fill-rule="evenodd"/><path d="M1277.52 2108.91 1209.83 2081.34C1216.85 2061.08 1237.68 2050.81 1256.38 2058.42 1275.07 2066.04 1284.53 2088.64 1277.52 2108.91Z" fill="#EFCBAB" fill-rule="evenodd"/><path d="M1107.26 2123.9C1091.63 2109.92 1089.32 2084.73 1102.06 2067.61 1114.81 2050.5 1137.79 2047.95 1153.42 2061.93 1169.03 2075.9 1171.36 2101.1 1158.61 2118.21 1145.86 2135.32 1122.86 2137.86 1107.26 2123.9Z" fill="#F7E0CB" fill-rule="evenodd"/><path d="M1158.58 2120.91 1101.83 2070.55C1114.63 2053.51 1137.69 2050.98 1153.37 2064.89 1169.04 2078.79 1171.37 2103.88 1158.58 2120.91Z" fill="#EFCBAB" fill-rule="evenodd"/><path d="M1258.96 2012.1C1240.74 2021.44 1218.99 2013.02 1210.36 1993.32 1201.73 1973.62 1209.49 1950.07 1227.7 1940.72 1245.92 1931.39 1267.69 1939.8 1276.31 1959.5 1284.94 1979.2 1277.17 2002.76 1258.96 2012.1Z" fill="#F7E0CB" fill-rule="evenodd"/><path d="M1276.83 1959.34 1210.39 1992.91C1201.69 1973.35 1209.51 1949.98 1227.86 1940.69 1246.21 1931.42 1268.15 1939.77 1276.83 1959.34Z" fill="#EFCBAB" fill-rule="evenodd"/><path d="M1096.46 1961.74C1103.94 1941.48 1125.18 1931.65 1143.89 1939.75 1162.6 1947.86 1171.7 1970.83 1164.21 1991.08 1156.73 2011.33 1135.48 2021.18 1116.77 2013.07 1098.06 2004.97 1088.97 1981.98 1096.46 1961.74Z" fill="#F3D1B3" fill-rule="evenodd"/><path d="M1116.84 2013.08 1143.92 1939.91C1162.6 1948 1171.7 1970.93 1164.22 1991.14 1156.74 2011.34 1135.52 2021.17 1116.84 2013.08Z" fill="#EFCBAB" fill-rule="evenodd"/><path d="M1309.83 1845.91 1309.83 2130.69C1309.83 2149.5 1296.06 2164.91 1279.22 2164.91L1116.12 2164.91C1111.76 2164.91 1107.6 2163.88 1103.83 2162.01L1103.83 1885.32C1103.83 1874.01 1108.16 1863.78 1115.06 1856.56 1117.6 1853.91 1120.5 1851.65 1123.67 1849.91 1128.34 1847.35 1133.58 1845.91 1139.11 1845.91L1309.83 1845.91Z" fill="#EFCBAB" fill-rule="evenodd" fill-opacity="0.501961"/><path d="M1109.83 2211.43 1109.83 1884.4C1109.83 1864.33 1124.89 1847.91 1143.27 1847.91L1321.4 1847.91C1339.78 1847.91 1354.83 1864.33 1354.83 1884.4L1354.83 2211.43C1354.83 2231.5 1339.78 2247.91 1321.4 2247.91L1143.27 2247.91C1124.89 2247.91 1109.83 2231.5 1109.83 2211.43Z" fill="#FCECDB" fill-rule="evenodd"/><path d="M1275.51 1971.34C1256.63 1963.58 1247.09 1940.53 1254.18 1919.86 1261.26 1899.18 1282.29 1888.71 1301.16 1896.47 1320.02 1904.23 1329.58 1927.3 1322.5 1947.97 1315.41 1968.65 1294.37 1979.11 1275.51 1971.34Z" fill="#F3D1B3" fill-rule="evenodd"/><path d="M1322.52 1947.91 1254.83 1919.82C1261.85 1899.18 1282.68 1888.71 1301.38 1896.47 1320.07 1904.23 1329.53 1927.26 1322.52 1947.91Z" fill="#E9BA8F" fill-rule="evenodd"/><path d="M1152.25 1964.9C1136.63 1950.92 1134.32 1925.73 1147.06 1908.61 1159.81 1891.5 1182.79 1888.95 1198.42 1902.93 1214.02 1916.89 1216.36 1942.1 1203.61 1959.21 1190.86 1976.32 1167.87 1978.86 1152.25 1964.9Z" fill="#F3D1B3" fill-rule="evenodd"/><path d="M1203.58 1958.91 1146.83 1908.55C1159.63 1891.52 1182.69 1888.98 1198.37 1902.88 1214.03 1916.78 1216.37 1941.87 1203.58 1958.91Z" fill="#E9BA8F" fill-rule="evenodd"/><path d="M1275.51 2213.34C1256.63 2205.58 1247.09 2182.53 1254.18 2161.86 1261.26 2141.18 1282.29 2130.71 1301.16 2138.47 1320.02 2146.23 1329.58 2169.3 1322.5 2189.98 1315.41 2210.64 1294.37 2221.11 1275.51 2213.34Z" fill="#F7E0CB" fill-rule="evenodd"/><path d="M1322.52 2192.91 1254.83 2164.83C1261.85 2144.18 1282.68 2133.71 1301.38 2141.47 1320.07 2149.22 1329.53 2172.25 1322.52 2192.91Z" fill="#EFCBAB" fill-rule="evenodd"/><path d="M1190.26 2139.42C1208.65 2148.45 1216.88 2172.11 1208.63 2192.27 1200.39 2212.42 1178.8 2221.43 1160.41 2212.4 1142.02 2203.37 1133.79 2179.71 1142.03 2159.55 1150.28 2139.4 1171.87 2130.38 1190.26 2139.42Z" fill="#F7E0CB" fill-rule="evenodd"/><path d="M1203.58 2203.91 1146.83 2153.56C1159.63 2136.52 1182.69 2133.97 1198.37 2147.89 1214.03 2161.79 1216.37 2186.88 1203.58 2203.91Z" fill="#EFCBAB" fill-rule="evenodd"/><path d="M1303.96 2095.09C1285.75 2104.44 1263.99 2096.03 1255.36 2076.32 1246.73 2056.62 1254.49 2033.07 1272.7 2023.72 1290.91 2014.39 1312.68 2022.79 1321.31 2042.49 1329.94 2062.2 1322.17 2085.75 1303.96 2095.09Z" fill="#F7E0CB" fill-rule="evenodd"/><path d="M1321.83 2042.32 1255.39 2075.91C1246.69 2056.35 1254.51 2032.98 1272.86 2023.69 1291.21 2014.43 1313.13 2022.77 1321.83 2042.32Z" fill="#EFCBAB" fill-rule="evenodd"/><path d="M1141.45 2044.74C1148.95 2024.48 1170.18 2014.65 1188.89 2022.75 1207.6 2030.86 1216.7 2053.83 1209.21 2074.08 1201.72 2094.33 1180.48 2104.18 1161.78 2096.07 1143.07 2087.97 1133.97 2064.98 1141.45 2044.74Z" fill="#F7E0CB" fill-rule="evenodd"/><path d="M1161.84 2096.08 1188.92 2022.91C1207.6 2031 1216.7 2053.93 1209.22 2074.14 1201.74 2094.34 1180.52 2104.17 1161.84 2096.08Z" fill="#EFCBAB" fill-rule="evenodd"/><path d="M1046.83 1978.91 1326.83 1978.91 1326.83 2433.91 1046.83 2433.91Z" fill="#EF7E29" fill-rule="evenodd"/><path d="M1086.83 1978.91 1365.83 1978.91 1365.83 2433.91 1086.83 2433.91Z" fill="#F99746" fill-rule="evenodd"/><path d="M1086.83 2005.25 1073.07 2027.91 1046.83 2027.91 1046.83 1978.91 1086.83 1978.91Z" fill="#D8661A" fill-rule="evenodd"/><path d="M1062.89 2013.91 1023.83 2013.91 1047.78 1978.91 1086.83 1978.91Z" fill="#F99746" fill-rule="evenodd"/><path d="M1230.83 2434.91 1086.83 2434.91 1086.83 1998.91 1230.83 2014.03Z" fill="#EFCBAB" fill-rule="evenodd" fill-opacity="0.501961"/><path d="M1365.83 2014.66 1343.2 2027.91 1100.28 2027.91 1086.83 2005.25 1086.83 1978.91Z" fill="#EF7E29" fill-rule="evenodd"/><path d="M1385.83 2013.91 1106.56 2013.91 1086.83 1978.91 1366.11 1978.91Z" fill="#F99746" fill-rule="evenodd"/><path d="M771.304 1861.39C763.908 1835.5 731.724 1830.64 718.771 1853.81 716.442 1857.97 714.974 1862.76 714.841 1868.23 714.127 1898.59 769.081 2016.09 776.371 2026.48 789.655 2045.41 869.807 2090.91 869.807 2090.91L886.835 2088.21C886.835 2088.21 877.203 2081.61 867.24 2070.78 846.646 2048.38 816.619 2011.95 811.122 2006.91 801.681 1998.25 785.355 1910.54 771.304 1861.39Z" fill="#F2AA84" fill-rule="evenodd"/><path d="M1248.67 2432.91 882.995 2432.91C860.356 2432.91 841.834 2412.73 841.834 2388.05L841.834 2146.77C841.834 2122.1 860.356 2101.91 882.995 2101.91L1248.67 2101.91C1271.31 2101.91 1289.83 2122.09 1289.83 2146.77L1289.83 2388.05C1289.83 2412.73 1271.31 2432.91 1248.67 2432.91Z" fill="#FCECDB" fill-rule="evenodd"/><path d="M978.985 2208.13C970.344 2233.47 944.7 2246.27 921.699 2236.77 898.699 2227.26 887.049 2199.03 895.683 2173.69 904.324 2148.37 929.975 2135.54 952.975 2145.05 975.969 2154.56 987.619 2182.8 978.985 2208.13Z" fill="#F3D1B3" fill-rule="evenodd"/><path d="M952.833 2145.05 921.626 2236.91C898.685 2227.39 887.058 2199.11 895.679 2173.74 904.292 2148.38 929.886 2135.53 952.833 2145.05Z" fill="#E9BA8F" fill-rule="evenodd"/><path d="M971.811 2374.72C956.256 2395.89 928.227 2399.04 909.192 2381.75 890.157 2364.47 887.321 2333.29 902.863 2312.1 918.398 2290.93 946.446 2287.78 965.475 2305.07 984.51 2322.35 987.346 2353.53 971.811 2374.72Z" fill="#F3D1B3" fill-rule="evenodd"/><path d="M964.835 2305.09 909.052 2381.91C890.186 2364.59 887.366 2333.36 902.776 2312.14 918.173 2290.93 945.97 2287.76 964.835 2305.09Z" fill="#E9BA8F" fill-rule="evenodd"/><path d="M1250.02 2208.13C1241.47 2233.47 1216.11 2246.27 1193.38 2236.77 1170.63 2227.26 1159.12 2199.03 1167.65 2173.69 1176.2 2148.37 1201.57 2135.54 1224.3 2145.05 1247.04 2154.56 1258.56 2182.8 1250.02 2208.13Z" fill="#F3D1B3" fill-rule="evenodd"/><path d="M1224.84 2145.05 1193.64 2236.91C1170.69 2227.39 1159.06 2199.11 1167.68 2173.74 1176.3 2148.38 1201.9 2135.53 1224.84 2145.05Z" fill="#E9BA8F" fill-rule="evenodd"/><path d="M1242.92 2374.71C1228.08 2395.17 1201.72 2398.8 1182.98 2383.44 1182.31 2382.92 1181.66 2382.34 1181.01 2381.76 1162.19 2364.47 1159.38 2333.3 1174.76 2312.1 1190.11 2290.93 1217.84 2287.78 1236.66 2305.07 1237.3 2305.66 1237.92 2306.25 1238.53 2306.88 1255.66 2324.46 1257.76 2354.25 1242.92 2374.71Z" fill="#F3D1B3" fill-rule="evenodd"/><path d="M1238.83 2306.8 1183.06 2382.91C1182.38 2382.39 1181.73 2381.82 1181.07 2381.23 1162.17 2364.05 1159.36 2333.05 1174.8 2311.99 1190.21 2290.95 1218.06 2287.81 1236.96 2305 1237.6 2305.59 1238.23 2306.18 1238.83 2306.8Z" fill="#E9BA8F" fill-rule="evenodd"/><path d="M1118.54 2169.93C1129.06 2194.39 1119.58 2223.6 1097.39 2235.18 1075.19 2246.76 1048.66 2236.35 1038.13 2211.89 1027.61 2187.45 1037.08 2158.23 1059.28 2146.65 1081.48 2135.05 1108.02 2145.48 1118.54 2169.93Z" fill="#F3D1B3" fill-rule="evenodd"/><path d="M1059.06 2145.91 1096.84 2235.14C1074.83 2246.82 1048.53 2236.32 1038.09 2211.67 1027.67 2187.04 1037.05 2157.59 1059.06 2145.91Z" fill="#E9BA8F" fill-rule="evenodd"/><path d="M1061.8 2389.35C1038.99 2379.19 1027.9 2350.39 1037.03 2325.02 1046.16 2299.65 1072.05 2287.31 1094.87 2297.46 1117.67 2307.62 1128.77 2336.43 1119.64 2361.8 1110.51 2387.17 1084.62 2399.51 1061.8 2389.35Z" fill="#F3D1B3" fill-rule="evenodd"/><path d="M1119.63 2361.91 1036.83 2325.07C1045.98 2299.66 1071.93 2287.3 1094.8 2297.47 1117.66 2307.64 1128.78 2336.5 1119.63 2361.91Z" fill="#E9BA8F" fill-rule="evenodd"/><path d="M794.666 1712.43C795.106 1710.47 755.972 1731.93 753.988 1734.36 735.633 1756.8 740.869 1786.1 751.367 1786.37 758.107 1786.56 756.8 1798.91 756.8 1798.91L831.836 1763.91C831.836 1763.91 822.803 1705.83 794.666 1712.43Z" fill="#B5453C" fill-rule="evenodd"/><path d="M803.781 1717.05C803.781 1717.05 806.469 1684.91 773.728 1684.91 773.728 1684.91 783.647 1687.86 788.778 1693.77 788.778 1693.77 767.897 1680.32 745.167 1700.98 722.436 1721.65 736.562 1773.47 729.648 1783.31 722.74 1793.15 695.823 1795.11 699.112 1826.94 702.401 1858.74 784.531 1898.6 779.262 1924.91 779.262 1924.91 811.442 1873.02 788.428 1849.34 788.428 1849.34 799.648 1860.93 800.79 1874.7 800.79 1874.7 803.834 1847.81 788.23 1839.21 774.421 1831.59 763.109 1803.75 764.304 1798.78 765.499 1793.8 803.781 1717.05 803.781 1717.05Z" fill="#B5453C" fill-rule="evenodd"/><path d="M711.835 2410.91 695.505 2408.29C695.505 2408.29 640.592 2360.64 632.417 2271.74 631.583 2262.7 631.411 2253.5 632.027 2244.26 632.1 2243.18 631.993 2242.11 631.457 2241.22 631.457 2241.21 631.451 2241.2 631.437 2241.2 629.684 2238.25 625.308 2230.89 619.384 2220.4 613.546 2210.07 603.557 2190.56 592.57 2168.65 572.771 2129.19 549.718 2082.02 541.809 2066.99 516.617 2019.1 528.76 1986.89 528.76 1986.89 528.76 1986.89 599.043 1979.31 618.298 1960.91L625.235 1972.59C625.235 1972.59 640.46 2046.19 639.745 2046.53 640.492 2049.04 641.254 2051.58 642.028 2054.17 654.049 2094.67 667.87 2145.29 675.402 2186.52 679.639 2209.72 681.883 2229.93 680.678 2243.7 680.261 2248.42 680.771 2255.68 681.922 2264.64 688.727 2317.46 711.835 2410.91 711.835 2410.91Z" fill="#2B478B" fill-rule="evenodd"/><path d="M745.834 2432.91 677.211 2432.91C677.211 2432.91 675.565 2421.68 679.148 2413.17 682.585 2404.98 687.482 2404.73 679.772 2391.91 684.138 2396.73 698.157 2398.73 708.076 2397.29 709.29 2399.4 715.911 2413.6 719.972 2416.73 724.457 2420.2 744.454 2418.97 745.834 2432.91Z" fill="#233862" fill-rule="evenodd"/><path d="M641.835 2054.29C635.89 2090.19 621.858 2149.91 592.456 2168.91 572.69 2129.41 549.679 2082.18 541.784 2067.12 516.633 2019.17 528.756 1986.92 528.756 1986.92 528.756 1986.92 598.922 1979.33 618.148 1960.91L625.068 1972.6C625.068 1972.6 640.273 2046.3 639.555 2046.64 640.3 2049.14 641.064 2051.69 641.835 2054.29Z" fill="#233862" fill-rule="evenodd"/><path d="M594.602 1991.94 594.834 1978.03C569.333 1981.53 506.908 1944.91 506.908 1944.91 506.908 1944.91 480.23 1964.19 476.578 2019.27 474.796 2046.15 463.518 2159.84 462.271 2193.79 461.816 2206.09 461.665 2214.88 461.613 2218.39 461.619 2218.4 461.617 2218.41 461.616 2218.42 461.601 2219.49 461.139 2220.43 460.533 2221.29 455.257 2228.57 450.678 2236.3 446.715 2244.3 407.803 2322.99 428.152 2429.91 428.152 2429.91L437.188 2427.42C437.188 2427.42 470.09 2316.57 491.594 2268.63 495.243 2260.49 498.559 2254.17 501.332 2250.51 509.417 2239.84 517.943 2221.71 526.347 2199.89 542.232 2158.65 557.654 2104.23 568.652 2062.1 569.429 2062.25 594.602 1991.94 594.602 1991.94Z" fill="#2B478B" fill-rule="evenodd"/><path d="M742.887 1899.79C701.533 1889.39 727.948 1825.65 730.349 1826.77 736.074 1825.49 748.658 1814.46 759.915 1792.91L761.434 1794.36 786.834 1818.78C786.834 1818.78 780.963 1828.28 776.021 1837.58 772.167 1844.86 768.884 1852.04 769.408 1854.51 771.451 1856.27 753.912 1902.57 742.887 1899.79Z" fill="#F6C6AD" fill-rule="evenodd"/><path d="M768.967 1851.91C768.967 1851.91 776.273 1867.65 780.178 1881.28 784.076 1894.91 793.835 1938.25 793.835 1938.25 793.835 1938.25 773.708 1963.3 745.712 1961.85 745.712 1961.85 730.663 1936.14 735.966 1912.93 741.27 1889.72 768.967 1851.91 768.967 1851.91Z" fill="#4AB6AE" fill-rule="evenodd"/><path d="M786.833 1818.78C786.833 1818.78 780.933 1828.43 775.966 1837.91 760.1 1827.04 760.08 1805.22 761.306 1793.91L786.833 1818.78Z" fill="#ED985F" fill-rule="evenodd"/><path d="M787.446 1830.42C787.446 1830.42 749.125 1807.28 762.772 1781.6 776.419 1755.91 780.666 1735.62 805.705 1749.32 830.75 1763.01 830.259 1775.76 827.625 1785.54 824.991 1795.31 797.77 1835.78 787.446 1830.42Z" fill="#F6C6AD" fill-rule="evenodd"/><path d="M834.574 1770.14C832.787 1758.7 827.354 1757.6 823.561 1758.36 809.147 1732.87 785.6 1742.82 785.6 1742.82 773.02 1759.71 754.833 1762.59 754.833 1762.59 754.833 1762.59 759.367 1771.6 778.027 1777.17 783.727 1778.88 790.194 1777.85 796.434 1775.6 783.487 1783.32 769.946 1786.28 769.946 1786.28 794.54 1788.69 817.941 1764.64 820.367 1762.07 821.5 1765.8 823.494 1773.6 822.3 1779.3 820.681 1787.05 814.247 1801.09 818.174 1802.91 818.174 1802.91 837.261 1787.3 834.574 1770.14Z" fill="#B5453C" fill-rule="evenodd"/><path d="M482.834 2432.91 414.211 2432.91C414.211 2432.91 412.566 2421.56 416.15 2412.94 419.585 2404.67 424.965 2400.91 423.676 2390.91 428.037 2395.78 435.144 2401.24 445.065 2399.8 446.28 2401.93 452.911 2413.39 456.972 2416.56 461.457 2420.06 481.454 2418.81 482.834 2432.91Z" fill="#233862" fill-rule="evenodd"/><path d="M747.412 1950.26C738.65 1953.58 726.346 1955.41 713.759 1956.9 695.843 1959.04 677.338 1960.48 667.649 1964.7 665.756 1965.51 660.25 1968.02 654.723 1972.37L654.723 1972.4C654.723 1972.4 654.591 1972.48 654.346 1972.71 652.513 1974.16 650.686 1975.84 649.005 1977.72 646.431 1980.6 644.187 1983.97 642.751 1987.83 639.197 1997.38 643.903 2023.89 646.92 2038.38 648.138 2044.21 645.61 2050.23 640.733 2052.98 633.922 2056.82 627.224 2060.36 620.646 2063.6 620.295 2063.76 619.958 2063.93 619.607 2064.1 619.673 2062.63 619.693 2061.17 619.693 2059.74 619.706 2049.74 618.541 2041.43 618.541 2041.43 616.92 2051.51 610.818 2062.41 605.126 2070.8 513.688 2110.75 449.8 2093.38 450.847 2073.47 454.454 2004.38 497.25 1945.6 497.25 1945.6 577.065 1844.53 738.524 1817.93 738.524 1817.93 738.524 1817.93 746.254 1816.91 755.579 1829.13 769.008 1846.71 769.67 1851.29 769.67 1851.29 769.67 1851.29 773.217 1940.45 747.412 1950.26Z" fill="#76C8C2" fill-rule="evenodd"/><path d="M713.832 1956.18C695.716 1958.29 677.017 1959.74 667.221 1963.91 663.219 1899.99 691.446 1851.91 691.446 1851.91 691.446 1851.91 709.864 1931.98 713.832 1956.18Z" fill="#4AB6AE" fill-rule="evenodd"/><path d="M732.562 1838.91C732.562 1838.91 687.634 1843.74 684.032 1875.51 680.43 1907.3 727.106 2036.71 733.794 2048.43 745.965 2069.78 817.624 2142.91 817.624 2142.91L830.834 2134.2C830.834 2134.2 780 2040.53 772.133 2031.77 759.777 2018.01 747.779 1849.91 732.562 1838.91Z" fill="#F6C6AD" fill-rule="evenodd"/><path d="M755.09 1899.18C755.09 1899.18 759.69 1817.18 702.242 1837 644.799 1856.83 711.158 1997.91 711.158 1997.91 711.158 1997.91 744.877 1996.09 756.835 1963.94L755.09 1899.18Z" fill="#76C8C2" fill-rule="evenodd"/><path d="M646.715 2038.36C647.949 2044.26 645.388 2050.37 640.448 2053.15 633.54 2057.04 626.753 2060.62 620.082 2063.91 619.731 2062.67 619.408 2061.38 619.118 2060 618.067 2054.88 617.588 2048.78 617.952 2041.45 619.496 2010.46 638.891 1986.99 648.831 1976.91 646.223 1979.83 643.952 1983.24 642.497 1987.15 638.891 1996.82 643.662 2023.68 646.715 2038.36Z" fill="#4AB6AE" fill-rule="evenodd"/><path d="M738.835 1817.33C738.835 1817.33 745.833 1807.6 750.562 1807.92 750.562 1807.92 769.683 1837.39 769.835 1850.91 769.835 1850.91 745.985 1815.97 738.835 1817.33Z" fill="#4AB6AE" fill-rule="evenodd"/><path d="M922.814 2101.85C922.814 2101.85 912.474 2102.05 910.247 2101.71 908.053 2101.36 905.126 2100.32 902.187 2100.2 899.293 2100.08 896.633 2101.12 893.913 2101.72 893.507 2101.81 893.1 2101.85 892.687 2101.85L875.54 2101.85C875.54 2101.85 873.826 2100.95 871.94 2097.64 871.126 2096.21 871.02 2092.8 869.166 2091.67 858.786 2085.34 886.406 2088.92 886.406 2088.92 886.406 2088.92 903.753 2088.57 905.36 2089.87 908.207 2092.23 923.46 2100.95 922.814 2101.85Z" fill="#F2AA84" fill-rule="evenodd"/><path d="M876.104 2101.56C876.104 2101.56 886.495 2104.8 889.32 2106.88L892.296 2108.91C892.296 2108.91 894.022 2106.83 891.308 2104.52 889.876 2103.3 885.913 2099.75 885.789 2095.65 885.658 2091.57 873.933 2095.14 876.104 2101.56Z" fill="#F2AA84" fill-rule="evenodd"/><path d="M830.871 2134.45C830.871 2134.45 838.212 2141.69 843.79 2143.22 849.374 2144.74 855.713 2162.5 856.728 2165.04 857.744 2167.57 851.405 2163.9 848.866 2159.59 846.328 2155.27 844.597 2153.58 843.855 2154.52 843.113 2155.45 844.298 2167.29 848.528 2173.87 852.758 2180.43 855.29 2186.26 852.25 2185.89 849.205 2185.51 831.105 2180.63 827.389 2168.42 823.667 2156.21 826.393 2155.78 817.842 2143.22 809.29 2130.66 830.871 2134.45 830.871 2134.45Z" fill="#F6C6AD" fill-rule="evenodd"/><path d="M1650.83 2406.4C1650.83 2413.42 1648.19 2419.79 1643.92 2424.41 1639.66 2429.04 1633.79 2431.91 1627.33 2431.91L1516.33 2431.91C1503.41 2431.91 1492.83 2420.43 1492.83 2406.4 1492.83 2399.39 1495.48 2393.01 1499.73 2388.39 1504 2383.78 1509.87 2380.91 1516.33 2380.91L1627.33 2380.91C1640.25 2380.91 1650.83 2392.38 1650.83 2406.4Z" fill="#104862" fill-rule="evenodd"/><path d="M1593.83 2406.4C1593.83 2413.42 1591.18 2419.79 1586.92 2424.41 1582.64 2429.04 1576.75 2431.91 1570.27 2431.91L1516.39 2431.91C1503.43 2431.91 1492.83 2420.43 1492.83 2406.4 1492.83 2399.39 1495.48 2393.01 1499.75 2388.39 1504.02 2383.78 1509.92 2380.91 1516.39 2380.91L1570.27 2380.91C1583.24 2380.91 1593.83 2392.38 1593.83 2406.4Z" fill="#46B1E1" fill-rule="evenodd"/><path d="M1629.48 2394.91 1523.18 2394.91C1521.34 2394.91 1519.83 2393.29 1519.83 2391.32L1519.83 2390.5C1519.83 2388.52 1521.34 2386.91 1523.18 2386.91L1629.48 2386.91C1631.33 2386.91 1632.83 2388.52 1632.83 2390.5L1632.83 2391.32C1632.83 2393.29 1631.33 2394.91 1629.48 2394.91Z" fill="#E9F3FE" fill-rule="evenodd" fill-opacity="0.4"/><path d="M1556.21 2334.78C1559.28 2341.41 1559.56 2348.79 1557.55 2355.36 1555.53 2361.93 1551.22 2367.67 1545.09 2370.99L1439.89 2428.07C1427.65 2434.71 1412.6 2429.29 1406.46 2416.03 1403.39 2409.4 1403.11 2402.01 1405.11 2395.45 1407.13 2388.89 1411.44 2383.15 1417.56 2379.84L1522.77 2322.75C1535.02 2316.11 1550.07 2321.52 1556.21 2334.78Z" fill="#EF7E29" fill-rule="evenodd"/><path d="M1502.2 2363.86C1505.28 2370.53 1505.56 2377.96 1503.54 2384.56 1501.53 2391.16 1497.21 2396.93 1491.07 2400.26L1439.99 2428.06C1427.71 2434.73 1412.62 2429.29 1406.46 2415.94 1403.39 2409.28 1403.11 2401.85 1405.11 2395.25 1407.14 2388.66 1411.47 2382.89 1417.6 2379.56L1468.68 2351.77C1480.96 2345.09 1496.04 2350.52 1502.2 2363.86Z" fill="#F99746" fill-rule="evenodd"/><path d="M1530.9 2334.07 1431.26 2389.5C1429.55 2390.46 1427.43 2389.68 1426.56 2387.77L1426.21 2386.98C1425.33 2385.08 1426.05 2382.72 1427.77 2381.76L1527.4 2326.32C1529.13 2325.36 1531.25 2326.15 1532.11 2328.06L1532.46 2328.85C1533.33 2330.75 1532.63 2333.11 1530.9 2334.07Z" fill="#FFE2CC" fill-rule="evenodd" fill-opacity="0.501961"/><path d="M2541.27 2437.91 215.402 2437.91C213.99 2437.91 212.835 2436.72 212.835 2435.27L212.835 2434.54C212.835 2433.09 213.99 2431.91 215.402 2431.91L2541.27 2431.91C2542.68 2431.91 2543.83 2433.09 2543.83 2434.54L2543.83 2435.27C2543.83 2436.72 2542.68 2437.91 2541.27 2437.91Z" fill="#2E3552" fill-rule="evenodd"/></g></svg>