<?xml version="1.0" encoding="utf-8"?>
<!-- Generator: Adobe Illustrator 27.5.0, SVG Export Plug-In . SVG Version: 6.00 Build 0)  -->
<svg version="1.1" id="Слой_1" xmlns="http://www.w3.org/2000/svg" xmlns:xlink="http://www.w3.org/1999/xlink" x="0px" y="0px"
	 viewBox="0 0 3200 2000" style="enable-background:new 0 0 3200 2000;" xml:space="preserve">
<rect style="fill:#FFFFFF;" width="3200" height="2000"/>
<g>
	<path style="fill:#EBF3FA;" d="M426.166,1810.521c0,0-332.81-410.528-170.159-833.164
		c106.02-275.482,503.717-426.433,728.159-275.482c95.593,64.292,402.277,2.168,566.029-264.007
		c318.209-517.242,1551.383-213.839,1226.588,591.032c-148.402,367.755,297.772,398.278,96.191,782.435L426.166,1810.521z"/>
	<g>
		<polygon style="fill:#CFE7FF;" points="1460.875,1081.235 1167.624,1398.211 745.051,1007.25 745.046,1007.241 566.996,842.515 
			860.242,525.553 1192.697,833.125 		"/>
		<g>
			<path style="fill:#C0D8FB;" d="M1393.748,1084.907l-227.667,246.079L626.222,831.519L853.889,585.44L1393.748,1084.907z
				 M1186.515,1293.857l171.695-185.58c11.655-12.598,10.891-32.257-1.707-43.911L877.669,621.357
				c-12.824-11.864-32.837-11.086-44.701,1.737L661.959,807.933c-11.765,12.717-10.994,32.563,1.723,44.329l479.144,443.293
				C1155.359,1307.15,1174.919,1306.391,1186.515,1293.857z"/>
		</g>
		<path style="fill:#C0D8FB;" d="M948.727,1024.425c-36.564-33.829-38.782-90.894-4.954-127.458
			c33.829-36.564,90.894-38.782,127.458-4.954s38.783,90.894,4.954,127.458C1042.357,1056.035,985.292,1058.253,948.727,1024.425z"
			/>
	</g>
	<g>
		<polygon style="fill:#DCEAFF;" points="1575.916,1022.143 1154.724,1117.365 1027.789,555.844 1027.79,555.833 974.303,319.241 
			1395.483,224.028 1495.355,665.789 		"/>
		<g>
			<path style="fill:#C0D8FB;" d="M1518.506,987.16l-326.991,73.92l-162.17-717.367l326.991-73.92L1518.506,987.16z
				 M1229.382,1042.048l246.6-55.747c16.739-3.784,27.241-20.421,23.457-37.161L1355.6,312.862
				c-3.852-17.04-20.788-27.731-37.828-23.879l-245.614,55.524c-16.898,3.82-27.5,20.615-23.68,37.513l143.931,636.688
				C1196.175,1035.363,1212.728,1045.813,1229.382,1042.048z"/>
		</g>
		
			<ellipse transform="matrix(0.7071 -0.7071 0.7071 0.7071 -97.4136 1095.6992)" style="fill:#C0D8FB;" cx="1273.919" cy="665.438" rx="90.195" ry="90.195"/>
	</g>
	<g>
		<polygon style="fill:#DCEAFF;" points="2414.299,1487.086 1965.17,1329.567 2175.181,730.808 2175.188,730.799 2263.67,478.515 
			2712.783,636.035 2547.571,1107.097 		"/>
		<g>
			<path style="fill:#C0D8FB;" d="M2381.146,1420.817l-348.677-122.293l268.293-764.943l348.677,122.294L2381.146,1420.817z
				 M2078.976,1302.904l262.954,92.228c17.85,6.261,37.394-3.134,43.654-20.983l237.966-678.476
				c6.372-18.17-3.19-38.066-21.36-44.439l-261.903-91.858c-18.019-6.32-37.749,3.164-44.069,21.183l-238.119,678.913
				C2051.869,1277.229,2061.217,1296.676,2078.976,1302.904z"/>
		</g>
		<path style="fill:#C0D8FB;" d="M2247.138,944.295c18.171-51.81,74.902-79.079,126.712-60.907
			c51.809,18.171,79.078,74.902,60.906,126.712c-18.171,51.809-74.902,79.078-126.711,60.906
			C2256.235,1052.835,2228.967,996.104,2247.138,944.295z"/>
	</g>
	<g>
		<path style="fill:#ED7D2B;" d="M1130.117,1140.503v128.203c0,24.547-20.092,44.628-44.627,44.628h-91.868
			c-24.536,0-44.628-20.081-44.628-44.628v-128.203c0-24.547,20.092-44.627,44.628-44.627h91.868
			C1110.025,1095.876,1130.117,1115.956,1130.117,1140.503z"/>
		<path style="fill:#F99746;" d="M1130.117,1140.503v71.424c0,24.536-20.092,44.628-44.627,44.628h-91.868
			c-24.536,0-44.628-20.092-44.628-44.628v-71.424c0-24.547,20.092-44.627,44.628-44.627h91.868
			C1110.025,1095.876,1130.117,1115.956,1130.117,1140.503z"/>
		<path style="fill:#ED7D2B;" d="M2148.006,1204.602c0,65.604-13.417,128.223-37.648,185.247
			c-72.686,171.091-242.646,291.856-439.447,291.856h-136.402c-174.126,0-327.252-94.545-410.565-234.832
			c-42.231-71.121-66.53-153.992-66.53-242.271c0-65.604,13.417-128.214,37.648-185.247
			c72.678-171.083,242.646-291.849,439.448-291.849h136.402c178.964,0,335.737,99.867,417.333,246.625
			C2126.299,1042.557,2148.006,1121.169,2148.006,1204.602z"/>
		<path style="fill:#F99746;" d="M2088.243,974.131c11.32,55.026,2.415,133.68-12.063,175.324
			c-96.283,276.926-322.602,326.92-553.944,347.976c-164.497,14.972-398.293-50.558-398.293-50.558
			c-42.231-71.121-66.53-153.992-66.53-242.271c0-65.604,13.417-128.214,37.648-185.247
			c72.678-171.083,242.646-291.849,439.448-291.849h136.402C1849.874,727.506,2006.647,827.373,2088.243,974.131z"/>
		<path style="fill:#F99746;" d="M1478.258,847.031h-187.651c-18.923,0-34.262-11.49-34.262-25.664V565.154
			c0-4.369,1.378-8.351,3.75-11.804c9.174-13.315,33.291-18.808,51.244-8.64c71.247,40.383,187.971,128.156,201.104,274.913
			C1513.777,834.451,1498.085,847.031,1478.258,847.031z"/>
		<path style="fill:#ED7D2B;" d="M1298.238,847.031h-7.631c-18.922,0-34.262-11.49-34.262-25.664V565.154
			c0-4.369,1.378-8.351,3.75-11.804c0.805,0.694,1.588,1.446,2.315,2.264c40.763,45.377,99.515,134.53,82.962,259.412
			C1342.966,833.184,1322.598,847.031,1298.238,847.031z"/>
		<path style="fill:#2B478B;" d="M1199.333,1018.31c0-15.441,12.518-27.958,27.959-27.958c15.441,0,27.958,12.517,27.958,27.958
			c0,15.441-12.518,27.958-27.958,27.958C1211.851,1046.268,1199.333,1033.751,1199.333,1018.31z"/>
		<path style="fill:#ED7D2B;" d="M1751.643,1479.154l-44.505,288.969c-5.909,22.385,10.972,44.301,34.123,44.301h116.953
			c25.07,0,48.039-14.005,59.521-36.291l181.769-362.567L1751.643,1479.154z"/>
		<path style="fill:#ED7D2B;" d="M1485.347,1484.116l35.701,284.007c5.909,22.385-10.972,44.301-34.123,44.301h-116.954
			c-25.07,0-48.039-14.005-59.521-36.291l-186.507-329.26L1485.347,1484.116z"/>
		<g>
			<path style="fill:#ED7D2B;" d="M2261.659,1334.284c-2.694,0-5.382-0.345-8.05-1.048c-20.735-5.456-32.603-30.217-30.971-64.617
				c1.6-33.723,15.715-69.328,38.727-97.687c10.186-12.553,21.94-23.532,35.064-32.825c-6.188-10.208-14.546-20.002-25.791-28.435
				c-19.113-14.337-38.863-18.466-60.367-12.628c-57.818,15.697-106.822,98.34-110.793,107.63
				c-1.801,4.966-7.242,7.617-12.283,5.938c-5.123-1.707-7.891-7.244-6.184-12.367c1.717-5.151,16.041-29.823,36.014-54.254
				c34.816-42.585,65.148-58.717,84.463-64.75c28.653-8.952,55.867-3.976,80.885,14.787c12.414,9.311,22.675,20.617,30.635,33.641
				c19.838-11.053,42.189-18.727,66.504-22.713c5.337-0.874,10.356,2.739,11.23,8.067s-2.738,10.356-8.066,11.23
				c-22.308,3.657-42.747,10.713-60.798,20.88c5.545,13.369,9.064,28.115,10.443,44.02c2.84,32.743-3.733,68.486-18.036,98.063
				C2299.716,1317.345,2280.526,1334.283,2261.659,1334.284z M2305.099,1155.988c-10.631,7.854-20.194,16.969-28.55,27.266
				c-20.439,25.191-32.97,56.644-34.377,86.291c-1.116,23.529,5.633,41.943,16.415,44.781c10.897,2.86,26.564-11.78,38.093-35.623
				c12.626-26.109,18.666-58.954,16.159-87.859C2311.938,1180.459,2309.758,1168.313,2305.099,1155.988z M2099.563,1204.429
				c-0.019,0.058-0.039,0.115-0.06,0.173C2099.528,1204.536,2099.547,1204.479,2099.563,1204.429z"/>
		</g>
	</g>
	<g>
		<g>
			<path style="fill:#FFB93E;" d="M1470.309,1777.373v18.614c0,1.478-0.54,2.856-1.466,4.003c-0.971,1.202-2.371,2.15-4.003,2.68
				c-0.507,0.176-1.025,0.298-1.566,0.375c-0.497,0.077-0.993,0.11-1.511,0.11h-352.995c-4.268,0-7.83-2.658-8.458-6.099
				c-0.033-0.231-0.066-0.463-0.077-0.705c0-0.122-0.011-0.243-0.011-0.364v-18.614c0-0.121,0.011-0.242,0.011-0.364
				c0.011-0.242,0.044-0.474,0.077-0.705c0.628-3.44,4.19-6.099,8.458-6.099h352.995c0.518,0,1.014,0.033,1.511,0.11
				c0.541,0.077,1.059,0.21,1.566,0.375c1.632,0.529,3.032,1.478,4.003,2.68C1469.769,1774.518,1470.309,1775.896,1470.309,1777.373
				z"/>
			<path style="fill:#FFA412;" d="M1296.971,1803.155h-189.118c-3.504,0-6.457-2.265-7.337-5.309
				c-0.084-0.259-0.157-0.521-0.206-0.79c-0.033-0.231-0.066-0.463-0.077-0.705c0-0.122-0.011-0.243-0.011-0.364v-18.614
				c0-0.121,0.011-0.242,0.011-0.364c0.011-0.242,0.044-0.474,0.077-0.705c0.049-0.27,0.122-0.531,0.206-0.79
				c0.88-3.044,3.833-5.309,7.337-5.309h165.894C1276.395,1779.909,1282.569,1793.318,1296.971,1803.155z"/>
			<g>
				<rect x="1423.342" y="1770.204" style="fill:#FFA412;" width="4.012" height="32.955"/>
				<rect x="1409.761" y="1770.204" style="fill:#FFA412;" width="4.012" height="32.955"/>
				<rect x="1393.476" y="1770.204" style="fill:#FFA412;" width="4.012" height="32.955"/>
				<rect x="1368.513" y="1770.204" style="fill:#FFA412;" width="4.012" height="32.955"/>
				<rect x="1342.116" y="1770.204" style="fill:#FFA412;" width="4.012" height="32.955"/>
				<rect x="1301.648" y="1770.204" style="fill:#FFA412;" width="4.012" height="32.955"/>
				<rect x="1263.758" y="1770.204" style="fill:#FFA412;" width="4.012" height="32.955"/>
				<rect x="1229.925" y="1770.204" style="fill:#FFA412;" width="4.012" height="32.955"/>
				<rect x="1436.269" y="1770.204" style="fill:#FFA412;" width="4.012" height="32.955"/>
				<rect x="1444.809" y="1770.204" style="fill:#FFA412;" width="4.012" height="32.955"/>
				<rect x="1453.056" y="1770.204" style="fill:#FFA412;" width="4.012" height="32.955"/>
				<path style="fill:#FFA412;" d="M1463.272,1770.318v32.725c-0.491,0.075-0.991,0.115-1.506,0.115h-2.507v-32.955h2.507
					C1462.281,1770.203,1462.781,1770.243,1463.272,1770.318z"/>
				<path style="fill:#FFA412;" d="M1468.844,1773.371v26.619c-0.973,1.205-2.37,2.152-4.009,2.684v-31.986
					C1466.474,1771.219,1467.871,1772.166,1468.844,1773.371z"/>
			</g>
		</g>
		<g>
			<path style="fill:#FFB93E;" d="M1432.563,1744.424v18.603c0,1.489-0.54,2.867-1.456,4.015c-0.243,0.297-0.518,0.584-0.805,0.849
				c-0.882,0.794-1.974,1.434-3.209,1.831c-0.496,0.165-1.025,0.286-1.566,0.363c-0.485,0.077-0.992,0.121-1.5,0.121h-353.006
				c-4.256,0-7.818-2.668-8.447-6.108c-0.033-0.231-0.066-0.464-0.077-0.695c-0.011-0.121-0.011-0.242-0.011-0.375v-18.603
				c0-0.121,0-0.254,0.011-0.375c0.011-0.231,0.044-0.463,0.077-0.695c0.628-3.44,4.19-6.108,8.447-6.108h353.006
				c0.22,0,0.452,0.011,0.672,0.032c0.088,0,0.166,0.012,0.243,0.022c0.011-0.011,0.033-0.011,0.044,0
				c0.099,0,0.209,0.011,0.319,0.033c0.077,0.011,0.144,0.022,0.221,0.033c0.541,0.077,1.07,0.198,1.566,0.364
				c0.298,0.099,0.584,0.209,0.86,0.33h0.011c0.188,0.089,0.375,0.177,0.551,0.265c0.1,0.056,0.209,0.122,0.309,0.177
				c0.099,0.056,0.198,0.11,0.287,0.177c0.375,0.221,0.717,0.474,1.037,0.761c0.11,0.088,0.198,0.188,0.297,0.275
				c0.066,0.055,0.122,0.11,0.177,0.166c0.033,0.032,0.066,0.065,0.088,0.099l0.077,0.077c0.11,0.11,0.221,0.231,0.32,0.364
				C1432.022,1741.567,1432.563,1742.936,1432.563,1744.424z"/>
			<path style="fill:#FFA412;" d="M1259.225,1770.205h-189.118c-3.505,0-6.45-2.275-7.327-5.322
				c-0.083-0.258-0.156-0.519-0.205-0.786c-0.033-0.231-0.066-0.464-0.077-0.695c-0.011-0.121-0.011-0.242-0.011-0.375v-18.603
				c0-0.121,0-0.254,0.011-0.375c0.011-0.231,0.044-0.463,0.077-0.695c0.049-0.268,0.122-0.528,0.205-0.786
				c0.877-3.047,3.821-5.322,7.327-5.322h165.895c0.066,0.275,0.143,0.54,0.231,0.815
				C1239,1747.688,1245.22,1760.645,1259.225,1770.205z"/>
			<g>
				<rect x="1385.599" y="1737.249" style="fill:#FFA412;" width="4.012" height="32.954"/>
				<rect x="1372.019" y="1737.249" style="fill:#FFA412;" width="4.012" height="32.954"/>
				<rect x="1355.733" y="1737.249" style="fill:#FFA412;" width="4.012" height="32.954"/>
				<rect x="1330.771" y="1737.249" style="fill:#FFA412;" width="4.012" height="32.954"/>
				<rect x="1304.374" y="1737.249" style="fill:#FFA412;" width="4.012" height="32.954"/>
				<rect x="1263.906" y="1737.249" style="fill:#FFA412;" width="4.012" height="32.954"/>
				<rect x="1226.016" y="1737.249" style="fill:#FFA412;" width="4.012" height="32.954"/>
				<rect x="1192.182" y="1737.249" style="fill:#FFA412;" width="4.012" height="32.954"/>
				<rect x="1398.526" y="1737.249" style="fill:#FFA412;" width="4.012" height="32.954"/>
				<rect x="1407.066" y="1737.249" style="fill:#FFA412;" width="4.012" height="32.954"/>
				<rect x="1415.313" y="1737.249" style="fill:#FFA412;" width="4.012" height="32.954"/>
				<path style="fill:#FFA412;" d="M1425.53,1737.363v32.725c-0.491,0.075-0.992,0.114-1.506,0.114h-2.507v-32.954h2.507
					C1424.539,1737.248,1425.039,1737.287,1425.53,1737.363z"/>
				<path style="fill:#FFA412;" d="M1431.102,1740.416v26.619c-0.973,1.205-2.37,2.152-4.009,2.684v-31.987
					C1428.731,1738.263,1430.129,1739.211,1431.102,1740.416z"/>
			</g>
		</g>
		<g>
			<path style="fill:#FFB93E;" d="M1450.802,1712.279v18.613c0,1.479-0.541,2.856-1.467,4.004c-0.97,1.201-2.359,2.149-4.002,2.679
				c-0.497,0.166-1.026,0.287-1.566,0.375c-0.485,0.066-0.993,0.11-1.5,0.11h-353.005c-1.412,0-2.757-0.298-3.937-0.815
				c-2.337-1.025-4.058-2.944-4.499-5.205c-0.033-0.154-0.044-0.309-0.066-0.463c-0.011-0.1-0.022-0.21-0.022-0.32
				c-0.011-0.121-0.011-0.242-0.011-0.364v-18.613c0-0.121,0-0.243,0.011-0.364c0.011-0.231,0.033-0.474,0.077-0.694
				c0.628-3.452,4.19-6.109,8.447-6.109h353.005c0.507,0,1.015,0.033,1.5,0.11c0.54,0.077,1.069,0.198,1.566,0.364
				c1.643,0.54,3.033,1.488,4.002,2.69C1450.262,1709.423,1450.802,1710.802,1450.802,1712.279z"/>
			<path style="fill:#FFA412;" d="M1277.464,1738.061h-189.118c-1.269,0-2.459-0.298-3.507-0.815
				c-2.095-1.025-3.628-2.944-4.014-5.205c-0.033-0.154-0.044-0.309-0.066-0.463c-0.011-0.1-0.022-0.21-0.022-0.32
				c-0.011-0.121-0.011-0.242-0.011-0.364v-18.613c0-0.121,0-0.243,0.011-0.364c0.011-0.231,0.033-0.474,0.077-0.694
				c0.047-0.262,0.117-0.517,0.198-0.769c0.862-3.064,3.821-5.341,7.334-5.341h165.894c2.581,9.429,8.491,22.386,22.066,32.134
				C1276.681,1737.521,1277.067,1737.796,1277.464,1738.061z"/>
			<g>
				<rect x="1403.838" y="1705.107" style="fill:#FFA412;" width="4.012" height="32.954"/>
				<rect x="1390.258" y="1705.107" style="fill:#FFA412;" width="4.012" height="32.954"/>
				<rect x="1373.972" y="1705.107" style="fill:#FFA412;" width="4.012" height="32.954"/>
				<rect x="1349.01" y="1705.107" style="fill:#FFA412;" width="4.012" height="32.954"/>
				<rect x="1322.613" y="1705.107" style="fill:#FFA412;" width="4.012" height="32.954"/>
				<rect x="1282.145" y="1705.107" style="fill:#FFA412;" width="4.012" height="32.954"/>
				<rect x="1244.255" y="1705.107" style="fill:#FFA412;" width="4.012" height="32.954"/>
				<rect x="1210.421" y="1705.107" style="fill:#FFA412;" width="4.012" height="32.954"/>
				<rect x="1416.766" y="1705.107" style="fill:#FFA412;" width="4.012" height="32.954"/>
				<rect x="1425.306" y="1705.107" style="fill:#FFA412;" width="4.012" height="32.954"/>
				<rect x="1433.552" y="1705.107" style="fill:#FFA412;" width="4.012" height="32.954"/>
				<path style="fill:#FFA412;" d="M1443.77,1705.222v32.725c-0.491,0.075-0.992,0.114-1.506,0.114h-2.507v-32.954h2.507
					C1442.778,1705.106,1443.278,1705.146,1443.77,1705.222z"/>
				<path style="fill:#FFA412;" d="M1449.34,1708.274v26.618c-0.972,1.206-2.37,2.153-4.008,2.685v-31.987
					C1446.971,1706.121,1448.368,1707.068,1449.34,1708.274z"/>
			</g>
		</g>
		<g>
			<path style="fill:#FFB93E;" d="M1459.26,1679.329v18.604c0,1.488-0.54,2.856-1.467,4.003c-0.121,0.154-0.253,0.298-0.386,0.441
				c-0.673,0.716-1.5,1.323-2.437,1.775c-0.375,0.176-0.772,0.342-1.18,0.474c-0.507,0.165-1.025,0.287-1.565,0.364
				c-0.243,0.033-0.485,0.066-0.739,0.088c-0.254,0.022-0.519,0.033-0.772,0.033h-352.995c-4.268,0-7.83-2.669-8.458-6.109
				c-0.033-0.231-0.066-0.463-0.077-0.694v-19.353c0.221-3.496,3.44-6.341,7.521-6.749c0.331-0.033,0.673-0.056,1.015-0.056h352.995
				c0.253,0,0.518,0.012,0.772,0.033c0.253,0.022,0.496,0.044,0.739,0.089c0.54,0.077,1.059,0.198,1.565,0.363
				c1.632,0.529,3.033,1.478,4.003,2.68C1458.72,1676.463,1459.26,1677.841,1459.26,1679.329z"/>
			<path style="fill:#FFA412;" d="M1285.922,1705.111h-189.118c-3.504,0-6.457-2.273-7.336-5.319
				c-0.084-0.259-0.157-0.521-0.206-0.79c-0.033-0.231-0.066-0.463-0.077-0.694v-19.353c0.198-3.485,3.077-6.341,6.715-6.749
				c0.298-0.033,0.596-0.056,0.904-0.056h165.895c0,0.022,0.011,0.033,0.011,0.056
				C1265.367,1681.898,1271.542,1695.286,1285.922,1705.111z"/>
			<g>
				<rect x="1412.294" y="1672.152" style="fill:#FFA412;" width="4.012" height="32.954"/>
				<rect x="1398.713" y="1672.152" style="fill:#FFA412;" width="4.012" height="32.954"/>
				<rect x="1382.428" y="1672.152" style="fill:#FFA412;" width="4.012" height="32.954"/>
				<rect x="1357.465" y="1672.152" style="fill:#FFA412;" width="4.012" height="32.954"/>
				<rect x="1331.068" y="1672.152" style="fill:#FFA412;" width="4.012" height="32.954"/>
				<rect x="1290.6" y="1672.152" style="fill:#FFA412;" width="4.012" height="32.954"/>
				<rect x="1252.71" y="1672.152" style="fill:#FFA412;" width="4.012" height="32.954"/>
				<rect x="1218.877" y="1672.152" style="fill:#FFA412;" width="4.012" height="32.954"/>
				<rect x="1425.221" y="1672.152" style="fill:#FFA412;" width="4.012" height="32.954"/>
				<rect x="1433.761" y="1672.152" style="fill:#FFA412;" width="4.012" height="32.954"/>
				<rect x="1442.008" y="1672.152" style="fill:#FFA412;" width="4.012" height="32.954"/>
				<path style="fill:#FFA412;" d="M1452.225,1672.266v32.725c-0.491,0.075-0.991,0.115-1.506,0.115h-2.507v-32.955h2.507
					C1451.233,1672.15,1451.734,1672.19,1452.225,1672.266z"/>
				<path style="fill:#FFA412;" d="M1457.796,1675.318v26.619c-0.973,1.205-2.37,2.153-4.008,2.685v-31.987
					C1455.426,1673.166,1456.823,1674.113,1457.796,1675.318z"/>
			</g>
		</g>
		<g>
			<path style="fill:#FFB93E;" d="M1433.302,1646.424v18.604c0,1.488-0.529,2.855-1.456,4.003c-0.971,1.213-2.371,2.161-4.014,2.69
				c-0.496,0.165-1.025,0.287-1.555,0.364c-0.166,0.033-0.331,0.055-0.496,0.065h-0.066c-0.088,0.012-0.177,0.022-0.265,0.022
				c-0.077,0.011-0.144,0.011-0.231,0.022c-0.154,0-0.298,0.011-0.452,0.011h-352.995c-4.554,0-8.304-3.032-8.535-6.804
				c-0.011-0.121-0.011-0.243-0.011-0.375v-18.604c0-0.121,0-0.253,0.011-0.375c0-0.099,0.011-0.198,0.022-0.298
				c0.342-3.032,2.966-5.546,6.407-6.274c0.077-0.021,0.165-0.044,0.253-0.055c0.595-0.11,1.213-0.177,1.853-0.177h352.995
				c0.265,0,0.507,0.011,0.761,0.033c0.11,0.011,0.221,0.022,0.32,0.033c0.011,0,0.011,0,0.022,0h0.011
				c0.133,0.011,0.265,0.033,0.397,0.055c0.529,0.077,1.059,0.199,1.555,0.364c1.643,0.529,3.043,1.478,4.014,2.69
				C1432.772,1643.568,1433.302,1644.936,1433.302,1646.424z"/>
			<path style="fill:#FFA412;" d="M1259.964,1672.206h-189.107c-4.069,0-7.41-3.032-7.62-6.804
				c-0.011-0.121-0.011-0.243-0.011-0.375v-18.604c0-0.121,0-0.253,0.011-0.375c0-0.099,0.011-0.198,0.022-0.298
				c0.309-3.109,2.746-5.646,5.922-6.318c0.099-0.033,0.209-0.055,0.32-0.066c0.441-0.077,0.893-0.121,1.356-0.121h165.884
				c0.022,0.089,0.044,0.154,0.066,0.243c2.68,9.659,8.855,22.914,23.081,32.662
				C1259.908,1672.173,1259.941,1672.184,1259.964,1672.206z"/>
			<g>
				<rect x="1386.341" y="1639.249" style="fill:#FFA412;" width="4.012" height="32.954"/>
				<rect x="1372.761" y="1639.249" style="fill:#FFA412;" width="4.012" height="32.954"/>
				<rect x="1356.475" y="1639.249" style="fill:#FFA412;" width="4.012" height="32.954"/>
				<rect x="1331.512" y="1639.249" style="fill:#FFA412;" width="4.012" height="32.954"/>
				<rect x="1305.116" y="1639.249" style="fill:#FFA412;" width="4.012" height="32.954"/>
				<rect x="1264.648" y="1639.249" style="fill:#FFA412;" width="4.012" height="32.954"/>
				<rect x="1226.758" y="1639.249" style="fill:#FFA412;" width="4.012" height="32.954"/>
				<rect x="1192.924" y="1639.249" style="fill:#FFA412;" width="4.012" height="32.954"/>
				<rect x="1399.269" y="1639.249" style="fill:#FFA412;" width="4.012" height="32.954"/>
				<rect x="1407.809" y="1639.249" style="fill:#FFA412;" width="4.012" height="32.954"/>
				<rect x="1416.055" y="1639.249" style="fill:#FFA412;" width="4.012" height="32.954"/>
				<path style="fill:#FFA412;" d="M1426.272,1639.363v32.725c-0.491,0.075-0.992,0.115-1.506,0.115h-2.507v-32.955h2.507
					C1425.281,1639.248,1425.781,1639.288,1426.272,1639.363z"/>
				<path style="fill:#FFA412;" d="M1431.843,1642.416v26.619c-0.973,1.205-2.37,2.152-4.008,2.684v-31.986
					C1429.473,1640.264,1430.871,1641.211,1431.843,1642.416z"/>
			</g>
		</g>
		<g>
			<path style="fill:#FFB93E;" d="M1432.563,1613.706v18.603c0,1.489-0.54,2.856-1.456,4.004c-0.243,0.297-0.518,0.584-0.805,0.859
				c-0.882,0.794-1.974,1.434-3.209,1.831c-0.397,0.132-0.805,0.231-1.213,0.309h-0.011c-0.011,0-0.011,0-0.022,0
				c-0.11,0.022-0.209,0.044-0.32,0.055c-0.485,0.077-0.992,0.122-1.5,0.122h-353.006c-0.364,0-0.739-0.022-1.103-0.066
				c-0.144-0.012-0.287-0.033-0.419-0.056c-3.595-0.551-6.429-3.01-6.937-6.064c-0.033-0.21-0.055-0.408-0.066-0.617
				c-0.011-0.133-0.011-0.254-0.011-0.376v-18.603c0-0.132,0-0.254,0.011-0.375c0.011-0.231,0.044-0.463,0.077-0.694
				c0.628-3.44,4.19-6.109,8.447-6.109h353.006c0.22,0,0.452,0.011,0.672,0.022c0.033,0,0.066,0.011,0.088,0.011
				c0.066,0.011,0.132,0.011,0.199,0.011c0.099,0.011,0.209,0.022,0.319,0.044c0.077,0,0.144,0.012,0.221,0.033
				c0.541,0.077,1.07,0.199,1.566,0.364c0.298,0.099,0.584,0.209,0.86,0.331h0.011c1.103,0.484,2.062,1.169,2.823,1.984
				c0.11,0.121,0.221,0.243,0.32,0.364C1432.022,1610.839,1432.563,1612.218,1432.563,1613.706z"/>
			<path style="fill:#FFA412;" d="M1259.225,1639.488h-189.118c-0.144,0-0.298-0.012-0.441-0.012
				c-0.166-0.011-0.331-0.033-0.485-0.044c-3.418-0.408-6.153-2.944-6.617-6.131c-0.033-0.21-0.055-0.408-0.066-0.617
				c-0.011-0.133-0.011-0.254-0.011-0.376v-18.603c0-0.132,0-0.254,0.011-0.375c0.011-0.231,0.044-0.463,0.077-0.694
				c0.049-0.268,0.122-0.529,0.205-0.786c0.877-3.048,3.821-5.323,7.327-5.323h165.895c0.066,0.275,0.143,0.54,0.231,0.816
				c2.746,9.549,8.888,22.363,22.65,31.901C1258.993,1639.334,1259.114,1639.399,1259.225,1639.488z"/>
			<g>
				<rect x="1385.599" y="1606.53" style="fill:#FFA412;" width="4.012" height="32.954"/>
				<rect x="1372.019" y="1606.53" style="fill:#FFA412;" width="4.012" height="32.954"/>
				<rect x="1355.733" y="1606.53" style="fill:#FFA412;" width="4.012" height="32.954"/>
				<rect x="1330.771" y="1606.53" style="fill:#FFA412;" width="4.012" height="32.954"/>
				<rect x="1304.374" y="1606.53" style="fill:#FFA412;" width="4.012" height="32.954"/>
				<rect x="1263.906" y="1606.53" style="fill:#FFA412;" width="4.012" height="32.954"/>
				<rect x="1226.016" y="1606.53" style="fill:#FFA412;" width="4.012" height="32.954"/>
				<rect x="1192.182" y="1606.53" style="fill:#FFA412;" width="4.012" height="32.954"/>
				<rect x="1398.526" y="1606.53" style="fill:#FFA412;" width="4.012" height="32.954"/>
				<rect x="1407.066" y="1606.53" style="fill:#FFA412;" width="4.012" height="32.954"/>
				<rect x="1415.313" y="1606.53" style="fill:#FFA412;" width="4.012" height="32.954"/>
				<path style="fill:#FFA412;" d="M1425.53,1606.645v32.725c-0.491,0.075-0.992,0.114-1.506,0.114h-2.507v-32.954h2.507
					C1424.539,1606.529,1425.039,1606.568,1425.53,1606.645z"/>
				<path style="fill:#FFA412;" d="M1431.102,1609.697v26.619c-0.973,1.205-2.37,2.152-4.009,2.684v-31.987
					C1428.731,1607.544,1430.129,1608.492,1431.102,1609.697z"/>
			</g>
		</g>
		<g>
			<path style="fill:#FFB93E;" d="M1450.802,1581.562v18.604c0,1.488-0.541,2.866-1.467,4.014c-0.97,1.202-2.359,2.15-4.002,2.68
				c-0.497,0.165-1.026,0.286-1.566,0.363c-0.485,0.077-0.993,0.122-1.5,0.122h-353.005c-1.412,0-2.757-0.298-3.937-0.816
				c-2.337-1.025-4.058-2.944-4.499-5.205c-0.033-0.154-0.044-0.309-0.066-0.463c-0.011-0.11-0.022-0.21-0.022-0.32
				c-0.011-0.121-0.011-0.242-0.011-0.374v-18.604c0-0.121,0-0.254,0.011-0.375c0.011-0.231,0.033-0.463,0.077-0.694
				c0.628-3.44,4.19-6.109,8.447-6.109h353.005c0.507,0,1.015,0.044,1.5,0.121c0.54,0.077,1.069,0.199,1.566,0.364
				c1.643,0.529,3.033,1.478,4.002,2.69C1450.262,1578.705,1450.802,1580.073,1450.802,1581.562z"/>
			<path style="fill:#FFA412;" d="M1277.464,1607.344h-189.118c-1.269,0-2.459-0.298-3.507-0.816
				c-2.095-1.025-3.628-2.944-4.014-5.205c-0.033-0.154-0.044-0.309-0.066-0.463c-0.011-0.11-0.022-0.21-0.022-0.32
				c-0.011-0.121-0.011-0.242-0.011-0.374v-18.604c0-0.121,0-0.254,0.011-0.375c0.011-0.231,0.033-0.463,0.077-0.694
				c0.047-0.261,0.117-0.515,0.197-0.766c0.862-3.058,3.821-5.344,7.334-5.344h165.894c2.581,9.439,8.491,22.396,22.066,32.145
				C1276.681,1606.803,1277.067,1607.067,1277.464,1607.344z"/>
			<g>
				<rect x="1403.838" y="1574.389" style="fill:#FFA412;" width="4.012" height="32.954"/>
				<rect x="1390.258" y="1574.389" style="fill:#FFA412;" width="4.012" height="32.954"/>
				<rect x="1373.972" y="1574.389" style="fill:#FFA412;" width="4.012" height="32.954"/>
				<rect x="1349.01" y="1574.389" style="fill:#FFA412;" width="4.012" height="32.954"/>
				<rect x="1322.613" y="1574.389" style="fill:#FFA412;" width="4.012" height="32.954"/>
				<rect x="1282.145" y="1574.389" style="fill:#FFA412;" width="4.012" height="32.954"/>
				<rect x="1244.255" y="1574.389" style="fill:#FFA412;" width="4.012" height="32.954"/>
				<rect x="1210.421" y="1574.389" style="fill:#FFA412;" width="4.012" height="32.954"/>
				<rect x="1416.766" y="1574.389" style="fill:#FFA412;" width="4.012" height="32.954"/>
				<rect x="1425.306" y="1574.389" style="fill:#FFA412;" width="4.012" height="32.954"/>
				<rect x="1433.552" y="1574.389" style="fill:#FFA412;" width="4.012" height="32.954"/>
				<path style="fill:#FFA412;" d="M1443.77,1574.503v32.725c-0.491,0.075-0.992,0.114-1.506,0.114h-2.507v-32.954h2.507
					C1442.778,1574.388,1443.278,1574.428,1443.77,1574.503z"/>
				<path style="fill:#FFA412;" d="M1449.34,1577.556v26.619c-0.972,1.205-2.37,2.152-4.008,2.684v-31.987
					C1446.971,1575.402,1448.368,1576.351,1449.34,1577.556z"/>
			</g>
		</g>
		<g>
			<path style="fill:#FFB93E;" d="M1479.649,1548.602v18.613c0,1.478-0.541,2.846-1.456,3.992l-0.011,0.011
				c-0.121,0.154-0.253,0.298-0.386,0.441c-0.541,0.573-1.169,1.069-1.886,1.478c-0.353,0.198-0.728,0.386-1.125,0.54
				c-0.011,0-0.011,0.012-0.011,0.012c-0.188,0.077-0.386,0.154-0.596,0.22c-0.496,0.166-1.025,0.287-1.565,0.364
				c-0.485,0.077-0.993,0.11-1.5,0.11h-353.005c-4.257,0-7.819-2.657-8.447-6.099c-0.044-0.231-0.066-0.463-0.077-0.705
				c-0.011-0.121-0.011-0.243-0.011-0.364v-18.613c0-0.122,0-0.243,0.011-0.364c0.209-3.484,3.43-6.341,7.521-6.749
				c0.331-0.044,0.662-0.055,1.004-0.055h353.005c0.507,0,1.015,0.044,1.5,0.109c0.54,0.089,1.069,0.21,1.565,0.375
				c1.434,0.464,2.669,1.246,3.617,2.239c0.132,0.144,0.265,0.286,0.386,0.44l0.011,0.012
				C1479.109,1545.756,1479.649,1547.123,1479.649,1548.602z"/>
			<path style="fill:#FFA412;" d="M1306.312,1574.383h-189.118c-3.513,0-6.472-2.276-7.334-5.332
				c-0.08-0.251-0.15-0.506-0.198-0.767c-0.044-0.231-0.066-0.463-0.077-0.705c-0.011-0.121-0.011-0.243-0.011-0.364v-18.613
				c0-0.122,0-0.243,0.011-0.364c0.188-3.484,3.065-6.341,6.705-6.749c0.298-0.044,0.595-0.055,0.904-0.055h165.895
				c0,0.011,0.011,0.033,0.011,0.055C1285.756,1551.182,1291.932,1564.568,1306.312,1574.383z"/>
			<g>
				<rect x="1432.687" y="1541.434" style="fill:#FFA412;" width="4.012" height="32.954"/>
				<rect x="1419.106" y="1541.434" style="fill:#FFA412;" width="4.012" height="32.954"/>
				<rect x="1402.82" y="1541.434" style="fill:#FFA412;" width="4.012" height="32.954"/>
				<rect x="1377.857" y="1541.434" style="fill:#FFA412;" width="4.012" height="32.954"/>
				<rect x="1351.461" y="1541.434" style="fill:#FFA412;" width="4.012" height="32.954"/>
				<rect x="1310.993" y="1541.434" style="fill:#FFA412;" width="4.012" height="32.954"/>
				<rect x="1273.103" y="1541.434" style="fill:#FFA412;" width="4.012" height="32.954"/>
				<rect x="1239.27" y="1541.434" style="fill:#FFA412;" width="4.012" height="32.954"/>
				<rect x="1445.614" y="1541.434" style="fill:#FFA412;" width="4.012" height="32.954"/>
				<rect x="1454.154" y="1541.434" style="fill:#FFA412;" width="4.012" height="32.954"/>
				<rect x="1462.4" y="1541.434" style="fill:#FFA412;" width="4.012" height="32.954"/>
				<path style="fill:#FFA412;" d="M1472.618,1541.547v32.725c-0.491,0.075-0.992,0.115-1.506,0.115h-2.507v-32.954h2.507
					C1471.626,1541.433,1472.126,1541.472,1472.618,1541.547z"/>
				<path style="fill:#FFA412;" d="M1478.188,1544.6v26.619c-0.973,1.205-2.37,2.153-4.008,2.685v-31.987
					C1475.818,1542.447,1477.216,1543.395,1478.188,1544.6z"/>
			</g>
		</g>
		<g>
			<path style="fill:#FFB93E;" d="M1433.302,1515.707v18.603c0,1.489-0.529,2.856-1.456,4.003c-0.971,1.213-2.371,2.161-4.014,2.69
				c-0.496,0.166-1.025,0.287-1.555,0.364c-0.166,0.021-0.331,0.044-0.496,0.066h-0.066c-0.11,0.021-0.221,0.021-0.331,0.033
				c-0.066,0-0.132,0.011-0.198,0.011c-0.144,0-0.275,0.011-0.419,0.011h-352.995c-3.065,0-5.767-1.367-7.267-3.418
				c-0.739-0.993-1.191-2.15-1.268-3.386c-0.011-0.132-0.011-0.254-0.011-0.375v-18.603c0-0.133,0-0.254,0.011-0.375
				c0.188-3.055,2.691-5.624,6.054-6.484c0.783-0.209,1.621-0.32,2.481-0.32h352.995c0.154,0,0.298,0.012,0.452,0.012
				c0.077,0,0.154,0.011,0.221,0.021c0.286,0.012,0.562,0.045,0.838,0.089c0.529,0.077,1.059,0.198,1.555,0.363
				c0.254,0.077,0.496,0.166,0.728,0.276h0.011c0.938,0.386,1.775,0.915,2.47,1.555c0.011,0.011,0.022,0.021,0.033,0.044
				c0.033,0.033,0.066,0.055,0.099,0.088c0.243,0.221,0.463,0.464,0.673,0.717
				C1432.772,1512.84,1433.302,1514.218,1433.302,1515.707z"/>
			<path style="fill:#FFA412;" d="M1259.964,1541.488h-189.107c-2.657,0-5.017-1.301-6.374-3.253
				c-0.728-1.036-1.18-2.249-1.246-3.551c-0.011-0.132-0.011-0.254-0.011-0.375v-18.603c0-0.133,0-0.254,0.011-0.375
				c0.188-3.287,2.735-5.999,6.076-6.649c0.496-0.1,1.014-0.155,1.543-0.155h165.884c0.066,0.254,0.144,0.508,0.221,0.762
				c2.746,9.615,8.954,22.562,22.926,32.145C1259.908,1541.444,1259.941,1541.467,1259.964,1541.488z"/>
			<g>
				<rect x="1386.341" y="1508.53" style="fill:#FFA412;" width="4.012" height="32.954"/>
				<rect x="1372.761" y="1508.53" style="fill:#FFA412;" width="4.012" height="32.954"/>
				<rect x="1356.475" y="1508.53" style="fill:#FFA412;" width="4.012" height="32.954"/>
				<rect x="1331.512" y="1508.53" style="fill:#FFA412;" width="4.012" height="32.954"/>
				<rect x="1305.116" y="1508.53" style="fill:#FFA412;" width="4.012" height="32.954"/>
				<rect x="1264.648" y="1508.53" style="fill:#FFA412;" width="4.012" height="32.954"/>
				<rect x="1226.758" y="1508.53" style="fill:#FFA412;" width="4.012" height="32.954"/>
				<rect x="1192.924" y="1508.53" style="fill:#FFA412;" width="4.012" height="32.954"/>
				<rect x="1399.269" y="1508.53" style="fill:#FFA412;" width="4.012" height="32.954"/>
				<rect x="1407.809" y="1508.53" style="fill:#FFA412;" width="4.012" height="32.954"/>
				<rect x="1416.055" y="1508.53" style="fill:#FFA412;" width="4.012" height="32.954"/>
				<path style="fill:#FFA412;" d="M1426.272,1508.645v32.725c-0.491,0.075-0.992,0.115-1.506,0.115h-2.507v-32.955h2.507
					C1425.281,1508.529,1425.781,1508.569,1426.272,1508.645z"/>
				<path style="fill:#FFA412;" d="M1431.843,1511.697v26.619c-0.973,1.205-2.37,2.152-4.008,2.684v-31.986
					C1429.473,1509.545,1430.871,1510.492,1431.843,1511.697z"/>
			</g>
		</g>
		<g>
			<path style="fill:#FFB93E;" d="M1459.259,1483.508v18.611c0,1.482-0.538,2.857-1.463,4.004c-0.973,1.205-2.37,2.152-4.008,2.684
				c-0.5,0.167-1.024,0.29-1.563,0.369c-0.491,0.075-0.991,0.115-1.506,0.115H1097.72c-1.369,0-2.667-0.273-3.815-0.762
				c-2.573-1.082-4.414-3.235-4.693-5.749c-0.009-0.095-0.019-0.194-0.024-0.293c-0.004-0.123-0.009-0.246-0.009-0.368v-18.611
				c0-0.122,0.005-0.245,0.009-0.368c0.213-3.493,3.438-6.344,7.521-6.752c0.33-0.036,0.666-0.052,1.01-0.052h352.999
				c0.515,0,1.015,0.04,1.506,0.115c0.539,0.079,1.063,0.202,1.563,0.369c1.638,0.531,3.036,1.479,4.008,2.684
				C1458.721,1480.649,1459.259,1482.025,1459.259,1483.508z"/>
			<path style="fill:#FFA412;" d="M1285.919,1509.291h-189.115c-1.223,0-2.379-0.273-3.404-0.762
				c-2.299-1.082-3.938-3.235-4.188-5.749c-0.009-0.095-0.019-0.194-0.024-0.293c-0.004-0.123-0.009-0.246-0.009-0.368v-18.611
				c0-0.122,0.005-0.245,0.009-0.368c0.189-3.489,3.069-6.344,6.714-6.752c0.293-0.036,0.595-0.052,0.902-0.052h165.891
				c0.004,0.016,0.009,0.036,0.014,0.052c2.587,9.448,8.521,22.4,22.124,32.142
				C1285.187,1508.787,1285.55,1509.041,1285.919,1509.291z"/>
			<g>
				<rect x="1412.294" y="1476.336" style="fill:#FFA412;" width="4.012" height="32.955"/>
				<rect x="1398.713" y="1476.336" style="fill:#FFA412;" width="4.012" height="32.955"/>
				<rect x="1382.428" y="1476.336" style="fill:#FFA412;" width="4.012" height="32.955"/>
				<rect x="1357.465" y="1476.336" style="fill:#FFA412;" width="4.012" height="32.955"/>
				<rect x="1331.068" y="1476.336" style="fill:#FFA412;" width="4.012" height="32.955"/>
				<rect x="1290.6" y="1476.336" style="fill:#FFA412;" width="4.012" height="32.955"/>
				<rect x="1252.71" y="1476.336" style="fill:#FFA412;" width="4.012" height="32.955"/>
				<rect x="1218.877" y="1476.336" style="fill:#FFA412;" width="4.012" height="32.955"/>
				<rect x="1425.221" y="1476.336" style="fill:#FFA412;" width="4.012" height="32.955"/>
				<rect x="1433.761" y="1476.336" style="fill:#FFA412;" width="4.012" height="32.955"/>
				<rect x="1442.008" y="1476.336" style="fill:#FFA412;" width="4.012" height="32.955"/>
				<path style="fill:#FFA412;" d="M1452.225,1476.45v32.725c-0.491,0.075-0.991,0.115-1.506,0.115h-2.507v-32.955h2.507
					C1451.233,1476.335,1451.734,1476.375,1452.225,1476.45z"/>
				<path style="fill:#FFA412;" d="M1457.796,1479.503v26.619c-0.973,1.205-2.37,2.152-4.008,2.684v-31.987
					C1455.426,1477.35,1456.823,1478.298,1457.796,1479.503z"/>
			</g>
		</g>
		<g>
			<path style="fill:#FFB93E;" d="M1470.307,1450.605v18.61c0,1.482-0.538,2.858-1.463,4.004c-0.973,1.205-2.37,2.153-4.009,2.685
				c-0.5,0.166-1.024,0.289-1.563,0.368c-0.165,0.024-0.331,0.048-0.496,0.063c-0.09,0.008-0.184,0.016-0.279,0.024
				c-0.09,0.008-0.184,0.012-0.278,0.016c-0.151,0.008-0.302,0.012-0.453,0.012h-352.999c-4.551,0-8.3-3.029-8.531-6.804
				c-0.005-0.123-0.009-0.245-0.009-0.368v-18.61c0-0.123,0.004-0.246,0.009-0.369c0.231-3.774,3.98-6.803,8.531-6.803h352.999
				c0.515,0,1.015,0.039,1.506,0.114c0.538,0.079,1.063,0.202,1.563,0.369c1.639,0.531,3.036,1.479,4.009,2.685
				C1469.769,1447.747,1470.307,1449.123,1470.307,1450.605z"/>
			<path style="fill:#FFA412;" d="M1296.966,1476.388h-189.114c-4.061,0-7.408-3.029-7.616-6.804
				c-0.005-0.123-0.009-0.245-0.009-0.368v-18.61c0-0.123,0.004-0.246,0.009-0.369c0.208-3.774,3.555-6.803,7.616-6.803h165.89
				c2.645,9.686,8.801,23.07,23.148,32.902C1296.915,1476.352,1296.943,1476.372,1296.966,1476.388z"/>
			<g>
				<rect x="1423.342" y="1443.434" style="fill:#FFA412;" width="4.012" height="32.954"/>
				<rect x="1409.761" y="1443.434" style="fill:#FFA412;" width="4.012" height="32.954"/>
				<rect x="1393.476" y="1443.434" style="fill:#FFA412;" width="4.012" height="32.954"/>
				<rect x="1368.513" y="1443.434" style="fill:#FFA412;" width="4.012" height="32.954"/>
				<rect x="1342.116" y="1443.434" style="fill:#FFA412;" width="4.012" height="32.954"/>
				<rect x="1301.648" y="1443.434" style="fill:#FFA412;" width="4.012" height="32.954"/>
				<rect x="1263.758" y="1443.434" style="fill:#FFA412;" width="4.012" height="32.954"/>
				<rect x="1229.925" y="1443.434" style="fill:#FFA412;" width="4.013" height="32.954"/>
				<rect x="1436.269" y="1443.434" style="fill:#FFA412;" width="4.012" height="32.954"/>
				<rect x="1444.809" y="1443.434" style="fill:#FFA412;" width="4.012" height="32.954"/>
				<rect x="1453.056" y="1443.434" style="fill:#FFA412;" width="4.012" height="32.954"/>
				<path style="fill:#FFA412;" d="M1463.272,1443.547v32.726c-0.491,0.075-0.991,0.114-1.506,0.114h-2.507v-32.954h2.507
					C1462.281,1443.433,1462.782,1443.472,1463.272,1443.547z"/>
				<path style="fill:#FFA412;" d="M1468.844,1446.601v26.618c-0.973,1.206-2.37,2.153-4.008,2.685v-31.987
					C1466.474,1444.447,1467.871,1445.395,1468.844,1446.601z"/>
			</g>
		</g>
	</g>
	<g>
		<path style="fill:#FFEDDC;" d="M1358.414,1255.635c0,0-18.541,26.103-35.539,26.466c-16.998,0.362-42.858-12.099-42.858-12.099
			s-15.607-34.783-5.021-48.394c0,0,10.616-4.658,21.716,3.569c1.906,1.421,3.841,3.206,5.747,5.505
			c2.692,3.236,5.716,5.081,8.922,6.049c12.128,3.69,26.526-4.99,31.91,3.388c3.146,4.869,6.563,8.529,9.376,11.101
			C1355.994,1254.184,1358.414,1255.635,1358.414,1255.635z"/>
		<path style="fill:#FFEDDC;" d="M1116.698,1443.916c0,0,65.533-158.791,183.492-161.815c0,0,108.885,12.099,114.935,161.815
			H1116.698z"/>
		<path style="fill:#DB6A1D;" d="M1267.875,1286.949c0,0,47.281,10.514,61.87,4.335c0,0,2.204-19.77-17.708-16.997
			c-13.627,1.897-22.504-4.652-27.725-7.31C1276.923,1263.217,1265.912,1278.679,1267.875,1286.949z"/>
		<path style="fill:#E5C1A1;" d="M1309.022,1257.147c-3.025,2.269-12.311-31.97-12.311-31.97c1.906,1.421,3.841,3.206,5.747,5.505
			c2.692,3.236,5.716,5.081,8.922,6.049C1311.412,1237.729,1311.956,1254.939,1309.022,1257.147z"/>
		<path style="fill:#E5C1A1;" d="M1352.667,1251.22c-0.665,0.393-22.533,13.489-25.497,13.489c-3.025,0,16.121-24.59,16.121-24.59
			C1346.437,1244.988,1349.854,1248.648,1352.667,1251.22z"/>
		<path style="fill:#F9DDBF;" d="M1180.719,1399.556c-1.212-1.036,46.377-70.07,59.484-70.574s42.554,15.123,63.874,17.14
			s41.987-4.033,46.02,8.569s15.123,57.282,8.318,64.433C1351.608,1426.272,1206.887,1421.91,1180.719,1399.556z"/>
	</g>
	<g>
		<path style="fill:#FFB93E;" d="M1641.651,819.94c-3.011,2.327-6.187,4.51-9.506,6.528c-1.29,0.794-2.591,1.544-3.926,2.283
			c-3.374,1.864-6.814,3.518-10.299,4.973c-1.015-0.176-2.029-0.352-3.033-0.518c-6.341-1.059-12.604-2.029-18.757-2.911
			c-3.055-0.441-6.076-0.86-9.076-1.257c-12.604-1.676-24.734-3.01-36.247-4.058c-3.099-0.297-6.153-0.562-9.164-0.805
			c-2.393-0.199-4.741-0.375-7.068-0.551c-5.69-0.419-11.192-0.772-16.486-1.07c-7.443-5.271-14.258-11.568-20.213-18.846
			c-3.948-4.819-7.521-10.079-10.641-15.736c-27.668-50.196-9.417-113.328,40.779-140.995c1.323-0.728,2.658-1.434,4.002-2.084
			c49.502-24.602,110.053-5.999,136.992,42.874C1694.053,733.188,1681.471,789.196,1641.651,819.94z"/>
		<g>
			<path style="fill:#FFA412;" d="M1660.155,694.052c-24.757-44.914-81.426-61.301-126.329-36.556
				c-30.711,16.927-48.09,48.785-48.09,81.591c0,15.173,3.716,30.545,11.545,44.749c4.235,7.675,9.396,14.512,15.262,20.467
				c8.447,8.535,18.36,15.228,29.101,19.871c3.011,0.243,6.065,0.507,9.164,0.805c-12.726-4.135-24.558-11.049-34.472-20.477
				c-6.55-6.231-12.273-13.552-16.86-21.878c-24.095-43.69-8.138-98.838,35.552-122.921c43.701-24.095,98.838-8.138,122.921,35.552
				c23.643,42.885,8.723,96.775-33.126,121.532c-0.805,0.474-1.609,0.937-2.426,1.389c-11.259,6.208-23.29,9.759-35.342,10.862
				c3,0.397,6.021,0.816,9.076,1.257c9.395-1.787,18.658-5.061,27.479-9.913c1.688-0.926,3.331-1.908,4.94-2.922
				C1669.683,791.379,1683.975,737.268,1660.155,694.052z"/>
		</g>
		<g>
			<path style="fill:#FFA412;" d="M1624.448,747.976c-1.786-4.4-4.102-7.896-6.936-10.487c-2.845-2.591-6.153-4.532-9.914-5.833
				c-3.76-1.29-7.961-2.084-12.593-2.36c-4.631-0.287-9.671-0.353-15.118-0.198c-3.364,0.099-6.242,0.044-8.635-0.177
				c-2.393-0.21-4.411-0.662-6.076-1.323c-1.666-0.673-3.022-1.588-4.058-2.757c-1.037-1.158-1.896-2.569-2.581-4.246
				c-0.684-1.676-1.07-3.341-1.169-4.995c-0.099-1.643,0.144-3.209,0.739-4.687c0.584-1.478,1.555-2.845,2.889-4.103
				c1.334-1.257,3.099-2.327,5.293-3.22c4.047-1.643,7.829-1.61,11.336,0.11c3.506,1.709,6.362,5.282,8.579,10.718l21.14-8.579
				c-1.842-4.532-4.146-8.359-6.926-11.479c-2.768-3.121-5.888-5.536-9.373-7.234c-3.474-1.709-7.256-2.702-11.347-2.988
				c-4.091-0.287-8.347,0.144-12.769,1.301l-5.988-14.744l-11.7,4.753l5.899,14.534c-4.223,2.195-7.796,4.742-10.741,7.653
				c-2.933,2.911-5.194,6.054-6.771,9.439c-1.577,3.386-2.415,6.937-2.492,10.664s0.673,7.521,2.228,11.369
				c1.809,4.433,4.135,7.951,6.969,10.542c2.845,2.591,6.142,4.532,9.903,5.8c3.749,1.269,7.95,2.04,12.593,2.283
				c4.653,0.253,9.704,0.243,15.163-0.022c3.165-0.176,5.911-0.154,8.249,0.055c2.327,0.22,4.345,0.673,6.043,1.345
				c1.698,0.684,3.109,1.643,4.234,2.878c1.125,1.235,2.073,2.801,2.845,4.697c0.684,1.676,1.015,3.353,1.015,5.018
				c-0.011,1.665-0.386,3.253-1.136,4.764c-0.75,1.522-1.863,2.934-3.353,4.224c-1.5,1.29-3.385,2.404-5.679,3.33
				c-2.007,0.816-4.069,1.345-6.208,1.61c-2.139,0.265-4.224,0.056-6.263-0.628c-2.029-0.672-3.937-1.908-5.712-3.694
				c-1.775-1.775-3.319-4.279-4.621-7.499l-21.15,8.58c2.217,5.437,4.984,9.748,8.326,12.935c3.331,3.187,6.98,5.458,10.95,6.826
				c3.97,1.378,8.116,1.974,12.45,1.797c4.323-0.176,8.602-0.882,12.814-2.117l5.458,13.454l11.634-4.72l-5.491-13.519
				c4.223-2.194,7.84-4.72,10.861-7.576c3.011-2.867,5.315-5.966,6.914-9.307c1.599-3.331,2.448-6.87,2.548-10.608
				C1626.83,755.816,1626.069,751.956,1624.448,747.976z"/>
		</g>
	</g>
	<path style="opacity:0.5;fill:#E2810E;" d="M1217.14,1682.059c-18.781,54.456-65.822,95.262-116.918,109.805v-14.49
		c0-0.121,0.011-0.242,0.011-0.364c0.011-0.242,0.044-0.474,0.077-0.705c0.049-0.27,0.122-0.531,0.206-0.79
		c0.88-3.044,3.833-5.309,7.337-5.309h-37.747c-3.505,0-6.45-2.275-7.327-5.322c-0.083-0.258-0.156-0.519-0.205-0.786
		c-0.033-0.231-0.066-0.464-0.077-0.695c-0.011-0.121-0.011-0.242-0.011-0.375v-18.603c0-0.121,0-0.254,0.011-0.375
		c0.011-0.231,0.044-0.463,0.077-0.695c0.049-0.268,0.122-0.528,0.205-0.786c0.877-3.047,3.821-5.322,7.327-5.322h14.732
		c-2.095-1.025-3.628-2.944-4.014-5.205c-0.033-0.154-0.044-0.309-0.066-0.463c-0.011-0.1-0.022-0.21-0.022-0.32
		c-0.011-0.121-0.011-0.242-0.011-0.364v-18.613c0-0.121,0-0.243,0.011-0.364c0.011-0.231,0.033-0.474,0.077-0.694
		c0.047-0.262,0.117-0.517,0.198-0.769c0.862-3.064,3.821-5.341,7.334-5.341h8.458c-3.504,0-6.457-2.273-7.336-5.319
		c-0.084-0.259-0.157-0.521-0.206-0.79c-0.033-0.231-0.066-0.463-0.077-0.694v-19.353c0.198-3.485,3.077-6.341,6.715-6.749h-25.043
		c-4.069,0-7.41-3.032-7.62-6.804c-0.011-0.121-0.011-0.243-0.011-0.375v-18.604c0-0.121,0-0.253,0.011-0.375
		c0-0.099,0.011-0.198,0.022-0.298c0.309-3.109,2.746-5.646,5.922-6.318c-3.418-0.408-6.153-2.944-6.617-6.131
		c-0.033-0.21-0.055-0.408-0.066-0.617c-0.011-0.133-0.011-0.254-0.011-0.376v-18.603c0-0.132,0-0.254,0.011-0.375
		c0.011-0.231,0.044-0.463,0.077-0.694c0.049-0.268,0.122-0.529,0.205-0.786c0.877-3.048,3.821-5.323,7.327-5.323h14.732
		c-2.095-1.025-3.628-2.944-4.014-5.205c-0.033-0.154-0.044-0.309-0.066-0.463c-0.011-0.11-0.022-0.21-0.022-0.32
		c-0.011-0.121-0.011-0.242-0.011-0.374v-18.604c0-0.121,0-0.254,0.011-0.375c0.011-0.231,0.033-0.463,0.077-0.694
		c0.047-0.261,0.117-0.515,0.197-0.766c0.862-3.058,3.821-5.344,7.334-5.344h28.847c-3.513,0-6.472-2.276-7.334-5.332
		c-0.08-0.251-0.15-0.506-0.198-0.767c-0.044-0.231-0.066-0.463-0.077-0.705c-0.011-0.121-0.011-0.243-0.011-0.364v-18.613
		c0-0.122,0-0.243,0.011-0.364c0.188-3.484,3.065-6.341,6.705-6.749h-45.433c-2.657,0-5.017-1.301-6.374-3.253l0.022-0.165
		l4.786-29.223l0.022-0.165l6.815-41.694c79.485,10.643,139.069,70.947,148.374,143.729
		C1227.535,1634.442,1225.143,1658.855,1217.14,1682.059z"/>
	
		<ellipse transform="matrix(0.7071 -0.7071 0.7071 0.7071 -850.4065 1191.4146)" style="fill:#E2810E;" cx="1012.961" cy="1622.239" rx="173.631" ry="173.631"/>
	<path style="fill:#FFB93E;" d="M1090.042,1777.824c-2.139,1.305-4.314,2.566-6.524,3.786c-0.749,0.413-1.498,0.82-2.246,1.212
		c-1.711,0.913-3.422,1.79-5.148,2.646c-82.685,40.608-183.538,9.44-228.488-72.096c-42.875-77.771-19.83-174.104,50.519-224.687
		c5.612-4.036,11.516-7.78,17.719-11.195c2.225-1.227,4.471-2.403,6.724-3.516c2.189-1.091,4.399-2.132,6.617-3.115
		c6.795-3.031,13.705-5.584,20.678-7.673c10.368-3.123,20.893-5.227,31.438-6.339c32.708-3.465,65.615,2.51,94.792,16.785
		c30.96,15.138,57.728,39.624,75.632,72.096C1196.827,1627.5,1169.054,1729.766,1090.042,1777.824z"/>
	<g>
		<path style="fill:#FFA412;" d="M1000.908,1786.996c-14.519,0-29.121-2.053-43.454-6.2c-39.919-11.547-72.953-37.95-93.014-74.342
			c-20.061-36.394-24.75-78.42-13.202-118.339c11.548-39.919,37.95-72.953,74.343-93.013
			c75.126-41.416,169.939-13.987,211.353,61.139c41.413,75.127,13.985,169.94-61.141,211.353
			C1052.467,1780.451,1026.824,1786.995,1000.908,1786.996z M1000.433,1479.992c-24.693,0-49.714,6.045-72.826,18.784
			c-35.41,19.521-61.101,51.662-72.337,90.505c-11.237,38.842-6.674,79.735,12.846,115.146
			c19.52,35.412,51.662,61.103,90.504,72.339c38.842,11.236,79.735,6.675,115.147-12.846c73.1-40.298,99.788-132.552,59.491-205.652
			C1105.702,1508.279,1053.843,1479.992,1000.433,1479.992z"/>
	</g>
	<g>
		<path style="fill:#FFA412;" d="M1077.199,1646.46c-0.342-0.855-0.706-1.683-1.076-2.495c-2.816-6.189-6.325-11.209-10.532-15.046
			c-4.756-4.335-10.282-7.587-16.578-9.754c-6.296-2.168-13.32-3.487-21.063-3.958c-7.751-0.478-16.186-0.584-25.299-0.327
			c-5.633,0.171-10.446,0.071-14.446-0.293c-3.993-0.363-7.387-1.104-10.168-2.225c-2.788-1.119-5.048-2.652-6.788-4.599
			c-1.74-1.939-3.173-4.314-4.314-7.116c-1.141-2.803-1.79-5.583-1.961-8.343c-0.171-2.752,0.242-5.369,1.233-7.851
			c0.991-2.475,2.603-4.764,4.842-6.859c2.232-2.104,5.184-3.9,8.856-5.391c6.774-2.753,13.099-2.688,18.967,0.178
			c5.869,2.874,10.646,8.856,14.339,17.947l35.374-14.36c-3.08-7.572-6.938-13.976-11.58-19.202
			c-4.635-5.22-9.862-9.256-15.68-12.107c-5.811-2.846-12.144-4.514-18.996-4.999c-6.845-0.484-13.969,0.243-21.349,2.183
			l-10.018-24.672l-19.581,7.95l9.876,24.329c-7.066,3.665-13.056,7.93-17.976,12.792c-4.913,4.87-8.692,10.133-11.33,15.794
			c-2.646,5.669-4.029,11.616-4.164,17.848c-0.128,6.232,1.112,12.571,3.729,19.01c3.016,7.43,6.902,13.313,11.658,17.647
			c4.756,4.336,10.275,7.573,16.557,9.698c6.282,2.132,13.305,3.408,21.078,3.821c7.772,0.421,16.229,0.414,25.363-0.028
			c5.298-0.3,9.897-0.271,13.797,0.093c3.9,0.356,7.266,1.105,10.111,2.246c2.838,1.148,5.198,2.745,7.081,4.806
			s3.473,4.685,4.763,7.865c1.141,2.81,1.704,5.597,1.69,8.386c-0.007,2.787-0.635,5.447-1.89,7.985
			c-1.248,2.539-3.123,4.892-5.619,7.052c-2.496,2.161-5.662,4.015-9.498,5.576c-3.344,1.355-6.802,2.254-10.382,2.695
			c-3.579,0.436-7.066,0.086-10.475-1.048c-3.408-1.134-6.596-3.194-9.562-6.183c-2.973-2.98-5.554-7.165-7.736-12.549
			l-35.367,14.36c3.686,9.092,8.328,16.308,13.911,21.627c5.583,5.326,11.694,9.142,18.325,11.43
			c6.639,2.296,13.577,3.302,20.821,3.002c7.245-0.292,14.397-1.469,21.449-3.544l9.134,22.511l19.459-7.9l-9.184-22.617
			c7.066-3.665,13.12-7.894,18.162-12.679c4.67-4.428,8.321-9.19,10.959-14.311c0.214-0.413,0.42-0.827,0.62-1.248
			c2.667-5.583,4.093-11.501,4.264-17.754C1081.178,1659.587,1079.909,1653.127,1077.199,1646.46z"/>
	</g>
	<g>
		<path style="fill:#2C3A64;" d="M870.685,1018.276c0.529-2.128-46.248,21.142-48.62,23.772
			c-21.938,24.334-15.683,56.09-3.13,56.396c8.051,0.195,6.491,13.58,6.491,13.58l89.688-37.941
			C915.114,1074.083,904.315,1011.112,870.685,1018.276z"/>
		<path style="fill:#2C3A64;" d="M881.728,1023.188c0,0,3.205-34.938-35.832-34.938c0,0,11.829,3.208,17.948,9.626
			c0,0-24.898-14.618-51.994,7.844c-27.096,22.46-10.26,78.791-18.5,89.486c-8.239,10.696-40.327,12.835-36.405,47.418
			c3.922,34.582,101.835,77.896,95.548,106.509c0,0,38.371-56.405,10.934-82.146c0,0,13.374,12.597,14.736,27.57
			c0,0,3.629-29.234-14.974-38.585c-16.463-8.275-29.948-38.538-28.522-43.947C836.094,1106.615,881.728,1023.188,881.728,1023.188z
			"/>
		<path style="fill:#ED985F;" d="M846.282,1187.563c-6.019-28.988-43.605-37.977-61.388-14.306
			c-3.198,4.257-5.449,9.288-6.183,15.229c-4.06,32.903,48.55,166.925,56.084,179.061c13.716,22.094,94.485,97.824,94.485,97.824
			l14.886-9.022c0,0-57.29-96.986-66.16-106.063C867.749,1339.792,857.71,1242.602,846.282,1187.563z"/>
		<path style="fill:#ED985F;" d="M923.619,1456.392c0,0,21.726-14.265,29.95-13.346c8.224,0.919,32.028,7.769,32.318,11.268
			c0.29,3.499-26.523,5.682-28.323,7.596c-1.8,1.913-20.007,14.066-26.607,10.255
			C924.357,1468.354,923.619,1456.392,923.619,1456.392z"/>
		<path style="fill:#2B478B;" d="M772.077,1778.658l-19.409-2.852c0,0-65.258-51.86-74.977-148.627
			c-0.991-9.848-1.198-19.844-0.463-29.92c0.086-1.162-0.043-2.324-0.677-3.301c0-0.008-0.007-0.015-0.021-0.029
			c-2.089-3.201-7.287-11.223-14.325-22.632c-6.938-11.237-18.81-32.485-31.873-56.33c-23.53-42.939-50.925-94.293-60.323-110.65
			c-29.941-52.13-15.509-87.184-15.509-87.184s83.526-8.257,106.415-28.279l8.243,12.706c0,0,18.097,80.118,17.242,80.489
			c0.891,2.724,1.797,5.497,2.717,8.321c14.282,44.08,30.71,99.177,39.667,144.049c5.034,25.248,7.701,47.246,6.268,62.234
			c-0.492,5.141,0.107,13.041,1.476,22.796C744.61,1676.95,772.077,1778.658,772.077,1778.658z"/>
		<path style="fill:#233862;" d="M812.789,1803.215h-80.973c0,0-1.941-12.342,2.289-21.704c4.053-8.984,9.829-9.27,0.738-23.353
			c5.145,5.298,21.685,7.489,33.392,5.914c1.434,2.326,9.247,17.927,14.038,21.369
			C787.563,1789.244,811.159,1787.889,812.789,1803.215z"/>
		<path style="fill:#233862;" d="M689.114,1390.371c-7.074,39.01-23.78,103.933-58.784,124.597
			c-23.53-42.939-50.925-94.293-60.323-110.65c-29.941-52.13-15.509-87.184-15.509-87.184s83.526-8.257,106.415-28.279l8.243,12.706
			c0,0,18.097,80.118,17.242,80.489C687.289,1384.773,688.194,1387.547,689.114,1390.371z"/>
		<path style="fill:#ED7D2B;" d="M837.619,1169.579c0,0,11.449,11.905,16.678,26.166c0,0-18.264,52.446-60.947,59.023
			C793.351,1254.769,827.121,1169.559,837.619,1169.579z"/>
		<path style="fill:#2B478B;" d="M632.324,1323.158l0.274-15.145c-30.173,3.805-104.039-36.058-104.039-36.058
			s-31.567,20.996-35.888,80.956c-2.109,29.266-15.453,153.033-16.929,189.992c-0.538,13.395-0.716,22.954-0.778,26.773
			c0.007,0.02,0.005,0.029,0.004,0.038c-0.019,1.165-0.565,2.194-1.283,3.117c-6.243,7.935-11.66,16.342-16.35,25.062
			c-46.043,85.664-21.965,202.065-21.965,202.065l10.692-2.718c0,0,38.932-120.668,64.375-172.864
			c4.319-8.853,8.242-15.737,11.524-19.726c9.567-11.619,19.655-31.353,29.599-55.101c18.796-44.899,37.044-104.146,50.059-150.02
			C602.538,1399.699,632.324,1323.158,632.324,1323.158z"/>
		<path style="fill:#FFB27D;" d="M808.899,1222.082c-49.327-11.321-17.813-80.635-14.955-79.416
			c6.834-1.393,21.845-13.393,35.273-36.83l1.814,1.574l30.296,26.562c0,0-7.004,10.331-12.895,20.449
			c-4.603,7.922-8.517,15.728-7.895,18.406C842.976,1174.745,822.056,1225.105,808.899,1222.082z"/>
		<path style="fill:#ED985F;" d="M861.326,1133.979c0,0-7.005,10.318-12.894,20.449c-18.836-11.611-18.857-34.931-17.405-47.011
			L861.326,1133.979z"/>
		<path style="fill:#FFB27D;" d="M862.166,1147.282c0,0-45.735-25.449-29.449-53.687c16.287-28.238,21.352-50.54,51.242-35.485
			c29.889,15.055,29.298,29.073,26.154,39.82C906.97,1108.679,874.482,1153.175,862.166,1147.282z"/>
		<path style="fill:#2C3A64;" d="M917.84,1081.461c-2.095-12.537-8.464-13.734-12.904-12.897
			c-16.891-27.932-44.485-17.03-44.485-17.03c-14.739,18.495-36.047,21.651-36.047,21.651s5.308,9.875,27.175,15.987
			c6.679,1.867,14.261,0.737,21.572-1.724c-15.171,8.458-31.037,11.699-31.037,11.699c28.816,2.637,56.234-23.708,59.078-26.526
			c1.33,4.083,3.662,12.63,2.266,18.879c-1.897,8.492-9.435,23.873-4.832,25.863C898.624,1117.363,920.981,1100.264,917.84,1081.461
			z"/>
		<path style="fill:#233862;" d="M499.763,1803.215h-80.974c0,0-1.941-12.342,2.289-21.704c4.052-8.984,10.4-13.067,8.88-23.938
			c5.145,5.298,13.531,11.23,25.237,9.655c1.434,2.326,9.259,14.771,14.05,18.213
			C474.537,1789.244,498.133,1787.889,499.763,1803.215z"/>
		<path style="fill:#F99746;" d="M814.702,1277.032c-10.417,3.637-25.042,5.626-40.001,7.252
			c-21.292,2.324-43.275,3.914-54.791,8.507c-4.2,1.676-7.009,3.743-7.886,6.389c-4.991,15.01-26.989,38.169-26.989,38.169
			c-140.997-6.417-156.477-65.394-156.477-65.394c94.863-110.308,255.483-142.237,255.483-142.237s11.473-4.863,40.365,18.097
			c19.281,15.33,16.743,21.213,16.743,21.213S845.363,1266.337,814.702,1277.032z"/>
		<path style="fill:#ED7D2B;" d="M774.701,1284.284c-21.292,2.324-43.275,3.914-54.791,8.507
			c-4.706-70.32,28.479-123.215,28.479-123.215S770.037,1257.673,774.701,1284.284z"/>
		<path style="fill:#FFB27D;" d="M796.615,1155.972c0,0-53.363,5.272-57.641,39.945c-4.278,34.674,51.161,175.903,59.101,188.691
			c14.454,23.281,99.566,103.085,99.566,103.085l15.687-9.507c0,0-60.371-102.203-69.718-111.768
			C828.934,1351.403,814.684,1167.982,796.615,1155.972z"/>
		<path style="fill:#F99746;" d="M740.514,1216.778c0.14,0.788,49.248,16.041,80.852,0c0,0,6.764-72.918-30.967-68.961
			c-37.731,3.957-60.073,15.841-61.023,33.905C728.424,1199.786,740.514,1216.778,740.514,1216.778z"/>
		<path style="fill:#FFB27D;" d="M892.79,1477.558c0,0,19.143-17.579,27.407-17.998s32.861,2.505,33.712,5.911
			c0.851,3.407-25.26,9.883-26.728,12.062c-1.468,2.179-17.479,17.107-24.606,14.409
			C895.447,1489.244,892.79,1477.558,892.79,1477.558z"/>
	</g>
	<g>
		<path style="fill:#233862;" d="M2001.751,1807.738L2001.751,1807.738c-4.838,0.028-9.917-3.501-11.343-7.883l-291.474-895.48
			c-1.427-4.382,1.34-7.957,6.178-7.985l0,0c4.838-0.028,9.917,3.502,11.343,7.883l291.474,895.48
			C2009.355,1804.135,2006.589,1807.71,2001.751,1807.738z"/>
		<path style="fill:#233862;" d="M2236.661,1806.366L2236.661,1806.366c-4.839,0.028-9.917-3.501-11.343-7.883l-291.474-895.48
			c-1.427-4.382,1.339-7.957,6.178-7.985l0,0c4.838-0.028,9.916,3.501,11.343,7.883l291.474,895.48
			C2244.266,1802.763,2241.499,1806.338,2236.661,1806.366z"/>
		<path style="fill:#233862;" d="M1983.728,1027.779l-235.892,1.378c-4.549,0.026-9.367-3.322-10.708-7.441l0,0
			c-1.341-4.119,1.283-7.512,5.832-7.538l235.892-1.378c4.548-0.026,9.366,3.322,10.707,7.441l0,0
			C1990.899,1024.361,1988.275,1027.753,1983.728,1027.779z"/>
		<path style="fill:#233862;" d="M2034.617,1184.128l-235.891,1.378c-4.549,0.026-9.367-3.322-10.708-7.441l0,0
			c-1.341-4.119,1.283-7.512,5.832-7.538l235.892-1.378c4.548-0.026,9.366,3.322,10.707,7.441l0,0
			C2041.79,1180.709,2039.166,1184.102,2034.617,1184.128z"/>
		<path style="fill:#233862;" d="M2083.631,1334.709l-235.892,1.378c-4.548,0.026-9.366-3.322-10.707-7.441l0,0
			c-1.341-4.119,1.283-7.512,5.831-7.538l235.892-1.378c4.549-0.026,9.367,3.322,10.708,7.441l0,0
			C2090.804,1331.291,2088.18,1334.683,2083.631,1334.709z"/>
		<path style="fill:#233862;" d="M2138.81,1504.231l-235.892,1.378c-4.549,0.026-9.366-3.322-10.708-7.441l0,0
			c-1.341-4.119,1.284-7.512,5.832-7.538l235.892-1.378c4.549-0.026,9.367,3.322,10.708,7.441l0,0
			C2145.982,1500.813,2143.357,1504.205,2138.81,1504.231z"/>
		<path style="fill:#233862;" d="M2196.563,1681.665l-235.892,1.377c-4.549,0.026-9.367-3.321-10.708-7.441l0,0
			c-1.341-4.119,1.283-7.511,5.832-7.538l235.892-1.377c4.548-0.026,9.367,3.322,10.707,7.441l0,0
			C2203.735,1678.246,2201.111,1681.639,2196.563,1681.665z"/>
	</g>
	<g>
		<path style="fill:#FFB27D;" d="M1702.141,739.294c-4.342-3.066-14.187-9.81-14.698-8.308c-0.369,1.081,0.156,2.918,1.338,4.829
			c-5.956-2.224-12.003-3.685-26.303-0.938c-2.863,0.55-5.459,2.177-7.034,4.631c-1.458,2.27-2.003,5.108,1.646,7.377
			c7.297,4.538,5.182,1.819,15.323,8.426c10.142,6.607,22.559,8.294,29.977,3.657l9.955-1.66l1.235-16.375
			C1713.579,740.934,1707.905,740.257,1702.141,739.294z"/>
		<path style="fill:#FFB27D;" d="M1963.024,601.947c0,0-23.47,27.845-53.359,16.196c0,0-6.43-15.551-6.521-27.015
			c-0.011-1.411-0.028-2.778-0.05-4.078c-0.16-12.909-0.595-20.152-0.595-20.152s0.008-0.003,0.03-0.006
			c1.359-0.567,45.69-18.768,45.653-17.256C1947.424,584.549,1963.024,601.947,1963.024,601.947z"/>
		<path style="fill:#ED975D;" d="M1943.732,557.961c-4.275,7.924-18.942,23.426-40.638,29.089
			c-0.16-12.909-0.595-20.152-0.595-20.152s0.008-0.003,0.03-0.006C1903.757,566.562,1945.005,555.625,1943.732,557.961z"/>
		<path style="fill:#FFB27D;" d="M1893.215,565.557c0,0,49.855,11.721,56.676-19.438c6.822-31.159,17.85-50.632-13.692-59.433
			c-31.542-8.801-40.351,1.73-45.157,11.577C1886.235,508.109,1880.423,561.705,1893.215,565.557z"/>
		<path style="fill:#233862;" d="M1948.186,554.607c0.681,0.436,11.408,3.732,31.724-36.739c3.188-6.353,5.361-20.097-2.072-32.24
			c-7.434-12.143-33.793-21.692-55.692-25.847c-21.9-4.155-27.158,8.168-32.315,20.553c-5.414,13-21.049,23.704-21.049,23.704
			c18.886,10.549,41.631-4.539,49.511-2.058c7.881,2.481,10.664,14.9,11.255,18.881s1.5,7.289,11.409,3.734
			c9.908-3.555,4.48,14.042,2.894,17.407C1943.849,542.002,1942.502,550.966,1948.186,554.607z"/>
		<g>
			<path style="fill:#2C3A64;" d="M2001.965,1329.08h30.188c6.328,0,13.36-6.336,15.12-17.937
				c1.761-11.608,14.769-17.937,17.585-27.433c2.816-9.497-11.608-22.866-11.608-22.866l-2.412-3.098l-2.508-3.229l-23.913,5.623
				c0,0-0.59,5.695-0.959,12.947c-0.255,5.236-0.396,11.291-0.097,16.599c0.704,12.665-3.547,26.298-14.795,28.763
				C1997.31,1320.913,2001.965,1329.08,2001.965,1329.08z"/>
			<path style="fill:#2C3A64;" d="M1866.459,1331.653h80.021c0.766-0.149,1.347-0.316,1.698-0.493
				c5.343-2.675,3.67-23.129,3.027-29.448c-0.123-1.171-0.211-1.856-0.211-1.856s-28.137-22.505-32.01-5.272
				c-0.123,0.537-0.264,1.065-0.413,1.584v0.009c-4.885,16.124-26.721,23.446-39.333,25.488
				C1869.602,1323.23,1867.102,1328.846,1866.459,1331.653z"/>
			<path style="fill:#2B478B;" d="M1882.588,870.205c0,0,4.273,53.316,9.296,117.405c6.826,87.059,15.035,193.997,15.848,214.256
				c1.403,35.178,7.038,91.448,7.038,91.448s13.357,13.368,40.095,7.733c0,0,23.825-80.327,30.631-165.318
				c0.105-1.393,0.211-2.796,0.316-4.199c6.331-86.521,16.175-268.711,16.175-268.711L1882.588,870.205z"/>
			<path style="fill:#233862;" d="M1882.588,870.205c0,0,4.273,53.316,9.296,117.405l93.611,148.119
				c0.105-1.393,0.211-2.796,0.316-4.199c6.331-86.521,16.175-268.711,16.175-268.711L1882.588,870.205z"/>
			<path style="fill:#2B478B;" d="M1909.213,858.832c0,0,43.257,178.365,76.282,276.897
				c33.024,98.531,34.416,146.232,34.416,146.232s37.429-7.313,41.482-14.603c0,0,12.824-168.751-12.627-216.982
				c-14.381-27.253-11.952-90.404-11.952-119.175c0-53.298-16.636-106.229-16.636-106.229L1909.213,858.832z"/>
		</g>
		<g>
			<path style="fill:#FFB27D;" d="M2077.76,841.454l0.814,12.419c0,0-8.189,22.06,14.757,33.377c0,0,9.823,3.962,10.222-3.685
				c0.398-7.647-0.858-4.771-0.061-15.539c0.798-10.769-3.436-20.944-10.558-24.372l-5.845-6.743L2077.76,841.454z"/>
			<path style="fill:#1E3D70;" d="M2086.723,850.495c-8.525,2.737-9.892,2.119-9.892,2.119s-41.495-75.548-45.698-82.464
				c-4.203-6.916-88.103-84.718-88.103-84.718l21.561-80.401c0,0,95.426,123.571,105.73,141.303
				c17.028,29.301,27.006,97.352,27.006,97.352S2093.419,848.345,2086.723,850.495z"/>
		</g>
		<path style="fill:#2A4E96;" d="M1866.327,716.999c0.3,16.511,1.259,35.072,2.553,53.924c0.079,1.118,0.158,2.235,0.237,3.353
			c0.827,11.68,1.726,23.385,2.755,34.8c0.413,4.577,0.854,9.101,1.312,13.545l0.07,0.598c0.035,1.664,0.237,3.468,0.423,5.114
			c4.206,42.756,8.616,76.535,9.435,77.054c0.977,0.651,2.076,0.977,3.283,0.836c11.212-1.408,44.665,1.135,72.055-4.823
			c23.111-4.876,43.011-14.117,64.099-26.579c2.799-1.655,9.18-6.038,8.66-9.312c-0.511-3.6-1.452-8.801-2.649-15.34
			c-4.154-22.742-11.327-61.863-13.773-107.647c-0.476-8.528-1.17-16.951-2.068-25.233c-2.35-21.571-6.117-42.061-11.169-60.261
			c-9.391-33.814-23.19-59.707-40.503-69.837c-2.262-1.267-14.434,6.478-25.611,13.651c-10.323,6.618-21.193,8.449-31.763,7.525
			l-9.303,10.289c-11.266,13.096-23.262,30.531-26.536,55.315c-0.246,1.831-0.457,3.776-0.634,5.844
			C1866.292,689.909,1866.072,702.688,1866.327,716.999z"/>
		<path style="fill:#1E3D70;" d="M1866.327,716.999c0.3,16.511,1.259,35.072,2.553,53.924c0.079,1.118,0.158,2.235,0.237,3.353
			c64.046-40.089,73.912-113.447,73.912-113.447c-31.508,1.382-56.539,8.625-75.831,18.984
			C1866.292,689.909,1866.072,702.688,1866.327,716.999z"/>
		<path style="fill:#2A4E96;" d="M1704.505,748.577c-0.66-9.499,4.258-11.08,4.258-11.08s96.566-17.499,104.775-20.082
			c8.209-2.583,78.402-75.602,78.402-75.602s26.905-30.343,48.936-23.643c19.145,5.822,26.628,20.755,29.175,34.982
			c3.036,16.953-4.777,34.011-19.459,43.016c-32.953,20.212-98.928,60.038-114.466,64.592
			c-34.582,10.139-127.495,0.813-127.495,0.813S1705.023,756.038,1704.505,748.577z"/>
	</g>
	<g>
		<path style="fill:#2B478B;" d="M1755.551,855.221c-1.396,4.49-6.177,7.36-11.182,5.866
			c-45.063-14.056-92.787-23.352-139.877-28.771c-51.675-5.94-104.43-7.095-129.266-5.358c-4.918,0.309-9.153-3.44-9.461-8.37
			c-0.298-4.918,3.44-9.152,8.359-9.45c38.614-2.302,92.91,0.735,133.912,5.563c47.014,5.536,95.668,14.998,141.649,29.338
			C1754.393,845.506,1757.018,850.512,1755.551,855.221z"/>
	</g>
	<g>
		<path style="fill:#FFA412;" d="M2642.168,1659.238c-0.791-1.688-1.768-3.226-2.912-4.622l0.002-0.001l-0.014-0.013
			c-0.85-1.035-1.795-1.99-2.829-2.868l-4.272-4.33l-1.123,0.829c-21.864-10.704-67.019,0.642-112.694,30.462
			c-55.203,36.04-90.642,85.665-80.421,112.039l-1.559,1.15l6.141,6.118c0.293,0.31,0.596,0.61,0.907,0.904l0.174,0.173l0.054,0.038
			c1.555,1.424,3.33,2.654,5.31,3.694l0.031,0.021l0.004-0.003c21.585,11.311,67.222,0.05,113.397-30.097
			C2618.599,1736.021,2654.328,1685.206,2642.168,1659.238z"/>
		<path style="fill:#FFB93E;" d="M2511.758,1672.128c56.236-36.714,111.682-45.425,123.843-19.457s-23.569,76.782-79.805,113.497
			c-56.235,36.714-111.682,45.426-123.842,19.457C2419.793,1759.656,2455.522,1708.842,2511.758,1672.128z"/>
		<g>
			<path style="fill:#FFA412;" d="M2471.382,1789.512c-4.563,0.001-8.718-0.513-12.378-1.566
				c-7.012-2.021-11.878-5.902-14.462-11.537c-5.071-11.056-0.374-27.472,13.226-46.225c13.287-18.322,33.568-36.901,57.108-52.316
				l0,0c36.152-23.673,72.921-35.106,93.673-29.129c7.013,2.021,11.88,5.902,14.464,11.536c5.071,11.057,0.374,27.473-13.227,46.226
				c-13.286,18.321-33.568,36.901-57.107,52.316C2522.9,1778.315,2492.701,1789.511,2471.382,1789.512z M2596.305,1651.312
				c-20.392,0-50.342,11.13-79.17,30.008c-23.13,15.146-43.027,33.36-56.027,51.286c-12.504,17.24-17.175,32.58-12.816,42.084
				c2.062,4.492,6.05,7.619,11.855,9.292c3.251,0.936,6.983,1.391,11.103,1.391c20.392,0.002,50.342-11.13,79.171-30.008
				c23.129-15.146,43.027-33.36,56.027-51.286c12.504-17.241,17.175-32.58,12.816-42.084c-2.062-4.493-6.051-7.619-11.856-9.292
				C2604.156,1651.766,2600.424,1651.312,2596.305,1651.312z"/>
		</g>
		<g>
			<path style="fill:#FFA412;" d="M2511.121,1732.531c1.735-0.762,3.279-1.598,4.635-2.506c1.354-0.908,2.604-1.971,3.751-3.187
				c1.146-1.217,2.231-2.612,3.255-4.188c1.022-1.575,2.051-3.401,3.083-5.479c1.812-3.589,3.671-6.941,5.575-10.058
				c1.904-3.117,4.034-6.004,6.389-8.663c2.355-2.659,5.045-5.102,8.07-7.328s6.563-4.229,10.613-6.009
				c3.513-1.543,6.676-2.534,9.489-2.972c2.811-0.438,5.217-0.354,7.217,0.249c1.999,0.604,3.565,1.689,4.7,3.257
				c1.134,1.568,1.758,3.61,1.869,6.126l13.268-5.828l-0.692,7.144l-13.452,5.909c-0.744,2.777-1.982,5.544-3.713,8.299
				s-3.887,5.398-6.466,7.928c-2.581,2.53-5.572,4.92-8.976,7.17c-3.404,2.251-7.173,4.284-11.305,6.099l1.25-12.902
				c4.959-2.179,8.74-4.545,11.343-7.099c2.601-2.553,4.022-5.065,4.262-7.536c0.13-1.34-0.038-2.37-0.503-3.092
				c-0.463-0.723-1.151-1.183-2.061-1.382c-0.912-0.197-2.014-0.155-3.308,0.128s-2.706,0.762-4.235,1.434
				c-1.529,0.671-2.928,1.428-4.195,2.271c-1.27,0.842-2.466,1.858-3.592,3.052c-1.123,1.191-2.209,2.595-3.256,4.209
				s-2.152,3.532-3.317,5.754c-1.892,3.595-3.8,6.948-5.723,10.059c-1.925,3.11-4.074,6-6.449,8.668
				c-2.376,2.668-5.077,5.115-8.101,7.342c-3.027,2.227-6.544,4.221-10.553,5.981c-3.637,1.598-6.861,2.608-9.671,3.03
				c-2.812,0.423-5.196,0.323-7.153-0.299c-1.959-0.621-3.473-1.744-4.542-3.369s-1.659-3.695-1.772-6.21l-12.336,5.419l0.688-7.099
				l12.275-5.393c0.61-2.634,1.648-5.377,3.11-8.228c1.464-2.852,3.449-5.683,5.958-8.495c2.508-2.811,5.591-5.533,9.25-8.166
				c3.657-2.633,7.967-5.039,12.926-7.218l-1.25,12.902c-2.935,1.289-5.41,2.641-7.426,4.054c-2.017,1.412-3.659,2.839-4.926,4.279
				c-1.268,1.44-2.196,2.853-2.785,4.237c-0.59,1.385-0.942,2.686-1.061,3.907c-0.135,1.398,0.014,2.509,0.449,3.329
				c0.435,0.82,1.092,1.379,1.975,1.676c0.881,0.297,1.955,0.338,3.223,0.123S2509.591,1733.204,2511.121,1732.531z"/>
		</g>
	</g>
	<g>
		<path style="fill:#FFA412;" d="M1536.015,371.967c0.501-1.071,1.121-2.046,1.847-2.933l0,0l0.008-0.008
			c0.54-0.657,1.139-1.263,1.795-1.82l2.711-2.748l0.713,0.526c13.874-6.792,42.525,0.407,71.508,19.329
			c35.028,22.869,57.516,54.358,51.029,71.093l0.989,0.73l-3.896,3.882c-0.187,0.196-0.379,0.387-0.576,0.573l-0.11,0.11
			l-0.034,0.023c-0.986,0.904-2.113,1.685-3.369,2.345l-0.02,0.014l-0.003-0.002c-13.696,7.177-42.654,0.032-71.955-19.097
			C1550.97,420.689,1528.299,388.445,1536.015,371.967z"/>
		<path style="fill:#FFB93E;" d="M1618.765,380.147c-35.684-23.296-70.866-28.824-78.583-12.346
			c-7.716,16.478,14.955,48.721,50.639,72.018c35.683,23.296,70.866,28.824,78.583,12.346
			C1677.12,435.686,1654.448,403.443,1618.765,380.147z"/>
		<g>
			<path style="fill:#FFA412;" d="M1592.799,435.153c-14.937-9.781-27.806-21.571-36.237-33.196
				c-8.629-11.899-11.61-22.316-8.392-29.332c1.639-3.575,4.728-6.038,9.178-7.32c13.168-3.792,36.499,3.462,59.438,18.484l0,0
				c14.938,9.781,27.807,21.57,36.237,33.196c8.63,11.899,11.61,22.316,8.392,29.332c-1.64,3.575-4.727,6.039-9.177,7.32
				c-2.321,0.669-4.958,0.995-7.854,0.994C1630.857,454.63,1611.694,447.526,1592.799,435.153z M1558.072,367.82
				c-3.684,1.061-6.215,3.045-7.523,5.896c-2.766,6.031,0.198,15.764,8.132,26.704c8.249,11.374,20.875,22.932,35.552,32.543
				c18.293,11.978,37.298,19.042,50.236,19.041c2.614,0,4.982-0.289,7.045-0.883c3.685-1.062,6.215-3.045,7.523-5.896
				c2.766-6.031-0.198-15.764-8.133-26.704c-8.249-11.375-20.875-22.932-35.552-32.543c-18.292-11.978-37.296-19.041-50.236-19.041
				C1562.503,366.938,1560.134,367.226,1558.072,367.82z"/>
		</g>
		<g>
			<path style="fill:#FFA412;" d="M1621.83,419.318c0.805,0.137,1.486,0.111,2.046-0.078c0.56-0.188,0.978-0.543,1.253-1.064
				c0.276-0.521,0.371-1.225,0.285-2.113c-0.075-0.775-0.299-1.601-0.674-2.479c-0.373-0.878-0.963-1.775-1.767-2.688
				c-0.804-0.914-1.846-1.819-3.126-2.716c-1.278-0.897-2.85-1.754-4.712-2.572l-0.793-8.188c3.146,1.382,5.881,2.909,8.202,4.58
				c2.322,1.671,4.278,3.398,5.869,5.182c1.592,1.784,2.852,3.58,3.78,5.39c0.929,1.809,1.587,3.549,1.975,5.221l7.788,3.422
				l0.438,4.504l-7.828-3.439c-0.072,1.596-0.446,2.91-1.125,3.94c-0.679,1.031-1.64,1.744-2.882,2.138
				c-1.242,0.395-2.755,0.458-4.539,0.19c-1.782-0.268-3.829-0.909-6.137-1.923c-2.544-1.118-4.775-2.383-6.695-3.796
				c-1.919-1.413-3.634-2.966-5.141-4.659c-1.507-1.693-2.871-3.526-4.093-5.5c-1.22-1.974-2.431-4.102-3.631-6.382
				c-0.739-1.41-1.44-2.627-2.105-3.651c-0.664-1.024-1.353-1.914-2.066-2.67c-0.714-0.757-1.473-1.402-2.278-1.937
				c-0.805-0.534-1.692-1.015-2.663-1.441c-0.971-0.426-1.866-0.729-2.688-0.909c-0.821-0.18-1.52-0.207-2.099-0.081
				c-0.577,0.126-1.014,0.418-1.308,0.876c-0.295,0.458-0.401,1.112-0.319,1.962c0.152,1.568,1.055,3.162,2.705,4.782
				c1.651,1.621,4.05,3.122,7.197,4.504l0.793,8.187c-2.622-1.151-5.013-2.442-7.173-3.87c-2.159-1.428-4.057-2.945-5.695-4.55
				c-1.636-1.605-3.004-3.282-4.103-5.03c-1.098-1.748-1.883-3.504-2.355-5.266l-8.537-3.75l-0.439-4.533l8.418,3.698
				c0.071-1.596,0.467-2.892,1.186-3.887c0.72-0.995,1.714-1.684,2.983-2.067c1.269-0.383,2.795-0.436,4.579-0.158
				c1.785,0.278,3.792,0.907,6.021,1.886c2.57,1.129,4.815,2.4,6.735,3.813c1.919,1.413,3.626,2.963,5.121,4.65
				c1.494,1.688,2.846,3.519,4.055,5.497c1.208,1.977,2.388,4.104,3.537,6.382c0.655,1.318,1.308,2.477,1.956,3.477
				c0.649,1,1.338,1.885,2.065,2.657c0.728,0.771,1.521,1.446,2.381,2.022c0.859,0.576,1.839,1.106,2.94,1.59
				C1620.14,418.901,1621.026,419.183,1621.83,419.318z"/>
		</g>
	</g>
	<path style="fill:#2E3552;" d="M2979.109,1813.526H215.173c-2.167,0-3.941-1.773-3.941-3.94v-3.695c0-2.167,1.773-3.94,3.941-3.94
		h2763.937c2.167,0,3.94,1.773,3.94,3.94v3.695C2983.05,1811.753,2981.276,1813.526,2979.109,1813.526z"/>
</g>
</svg>
