<svg width="1977" height="1299" xmlns="http://www.w3.org/2000/svg" xmlns:xlink="http://www.w3.org/1999/xlink" xml:space="preserve" overflow="hidden"><defs><clipPath id="clip0"><rect x="1346" y="379" width="1977" height="1299"/></clipPath><linearGradient x1="437.811" y1="-61.9004" x2="525.02" y2="554.914" gradientUnits="userSpaceOnUse" spreadMethod="reflect" id="fill1"><stop offset="0" stop-color="#FFC444"/><stop offset="0.9964" stop-color="#F36F56"/><stop offset="1" stop-color="#F36F56"/></linearGradient><linearGradient x1="998.342" y1="147.876" x2="-30.0928" y2="357.162" gradientUnits="userSpaceOnUse" spreadMethod="reflect" id="fill2"><stop offset="0" stop-color="#FFC444"/><stop offset="0.9964" stop-color="#F36F56"/><stop offset="1" stop-color="#F36F56"/></linearGradient><linearGradient x1="402.339" y1="-94.7549" x2="565.912" y2="599.794" gradientUnits="userSpaceOnUse" spreadMethod="reflect" id="fill3"><stop offset="0" stop-color="#FFC444"/><stop offset="0.9964" stop-color="#F36F56"/><stop offset="1" stop-color="#F36F56"/></linearGradient><linearGradient x1="471.612" y1="292.068" x2="475.732" y2="-6.50666" gradientUnits="userSpaceOnUse" spreadMethod="reflect" id="fill4"><stop offset="0" stop-color="#FFC444"/><stop offset="0.9964" stop-color="#F36F56"/><stop offset="1" stop-color="#F36F56"/></linearGradient><linearGradient x1="404.176" y1="-94.0536" x2="564.074" y2="593.077" gradientUnits="userSpaceOnUse" spreadMethod="reflect" id="fill5"><stop offset="0" stop-color="#FFC444"/><stop offset="0.9964" stop-color="#F36F56"/><stop offset="1" stop-color="#F36F56"/></linearGradient><linearGradient x1="476.925" y1="-10.0156" x2="470.419" y2="295.577" gradientUnits="userSpaceOnUse" spreadMethod="reflect" id="fill6"><stop offset="0" stop-color="#FFFFFF"/><stop offset="0.5" stop-color="#EBEEF3"/><stop offset="1" stop-color="#D8DEE8"/></linearGradient><linearGradient x1="418.6" y1="-87.7586" x2="549.65" y2="537.337" gradientUnits="userSpaceOnUse" spreadMethod="reflect" id="fill7"><stop offset="0" stop-color="#FFC444"/><stop offset="0.9964" stop-color="#F36F56"/><stop offset="1" stop-color="#F36F56"/></linearGradient><linearGradient x1="-0.267093" y1="4.54598" x2="1.26736" y2="4.45396" gradientUnits="userSpaceOnUse" spreadMethod="reflect" id="fill8"><stop offset="0" stop-color="#FF7DB3"/><stop offset="0.5" stop-color="#FFBED9" stop-opacity="0.498039"/><stop offset="1" stop-color="#FFFFFF" stop-opacity="0"/></linearGradient><radialGradient cx="684414" cy="687185" r="969869" fx="684414" fy="687185" gradientUnits="userSpaceOnUse" spreadMethod="pad" id="fill9" gradientTransform="scale(0.000360892 0.000360892)"><stop offset="0" stop-color="#FF7DB3"/><stop offset="0.13" stop-color="#FF7DB3"/><stop offset="0.78" stop-color="#FFBED9" stop-opacity="0.498039"/><stop offset="1" stop-color="#FFFFFF" stop-opacity="0"/></radialGradient><linearGradient x1="197.5" y1="168" x2="197.5" y2="0" gradientUnits="userSpaceOnUse" spreadMethod="reflect" id="fill10"><stop offset="0" stop-color="#FABA25"/><stop offset="0.19" stop-color="#FABA25"/><stop offset="0.5" stop-color="#FCDC92"/><stop offset="1" stop-color="#FFFFFF"/></linearGradient><linearGradient x1="275.5" y1="0" x2="275.5" y2="554" gradientUnits="userSpaceOnUse" spreadMethod="reflect" id="fill11"><stop offset="0" stop-color="#9393D9"/><stop offset="0.5" stop-color="#C9C9EC" stop-opacity="0.498039"/><stop offset="1" stop-color="#FFFFFF" stop-opacity="0"/></linearGradient><linearGradient x1="2508.62" y1="1020.18" x2="2343.38" y2="1125.82" gradientUnits="userSpaceOnUse" spreadMethod="reflect" id="fill12"><stop offset="0" stop-color="#8AB7F2"/><stop offset="0.94" stop-color="#166FE5"/><stop offset="1" stop-color="#166FE5"/></linearGradient><linearGradient x1="2504.69" y1="1062.03" x2="2395.31" y2="1131.97" gradientUnits="userSpaceOnUse" spreadMethod="reflect" id="fill13"><stop offset="0" stop-color="#8AB7F2"/><stop offset="0.94" stop-color="#166FE5"/><stop offset="1" stop-color="#166FE5"/></linearGradient><linearGradient x1="2501.26" y1="1098.66" x2="2440.74" y2="1137.34" gradientUnits="userSpaceOnUse" spreadMethod="reflect" id="fill14"><stop offset="0" stop-color="#8AB7F2"/><stop offset="0.94" stop-color="#166FE5"/><stop offset="1" stop-color="#166FE5"/></linearGradient><linearGradient x1="14.0522" y1="81.0277" x2="59.2746" y2="-7.20247" gradientUnits="userSpaceOnUse" spreadMethod="reflect" id="fill15"><stop offset="0" stop-color="#FF7DB3"/><stop offset="0.5" stop-color="#FFBED9" stop-opacity="0.498039"/><stop offset="1" stop-color="#FFFFFF" stop-opacity="0"/></linearGradient><linearGradient x1="31.9068" y1="-4.52316" x2="11.0935" y2="46.5234" gradientUnits="userSpaceOnUse" spreadMethod="reflect" id="fill16"><stop offset="0" stop-color="#FABA25"/><stop offset="0.5" stop-color="#FC973A"/><stop offset="1" stop-color="#FF7450"/></linearGradient><linearGradient x1="17.2884" y1="99.6902" x2="72.9271" y2="-8.86126" gradientUnits="userSpaceOnUse" spreadMethod="reflect" id="fill17"><stop offset="0" stop-color="#FF7DB3"/><stop offset="0.5" stop-color="#FFBED9" stop-opacity="0.498039"/><stop offset="1" stop-color="#FFFFFF" stop-opacity="0"/></linearGradient><linearGradient x1="39.3324" y1="-5.78234" x2="14.6676" y2="56.7828" gradientUnits="userSpaceOnUse" spreadMethod="reflect" id="fill18"><stop offset="0" stop-color="#FABA25"/><stop offset="0.5" stop-color="#FC973A"/><stop offset="1" stop-color="#FF7450"/></linearGradient><linearGradient x1="129" y1="130.5" x2="-3.66001e-05" y2="130.5" gradientUnits="userSpaceOnUse" spreadMethod="reflect" id="fill19"><stop offset="0" stop-color="#5AC987"/><stop offset="1" stop-color="#ACE4C3" stop-opacity="0.498039"/></linearGradient><linearGradient x1="-2.52682" y1="161.88" x2="131.527" y2="2.12031" gradientUnits="userSpaceOnUse" spreadMethod="reflect" id="fill20"><stop offset="0" stop-color="#ACE4C3" stop-opacity="0.498039"/><stop offset="0.37" stop-color="#5AC987"/><stop offset="1" stop-color="#FFFFFF" stop-opacity="0"/></linearGradient><linearGradient x1="585.728" y1="212.791" x2="-18.7275" y2="106.209" gradientUnits="userSpaceOnUse" spreadMethod="reflect" id="fill21"><stop offset="0" stop-color="#8AB7F2"/><stop offset="1" stop-color="#FFFFFF"/></linearGradient><linearGradient x1="460.205" y1="169.273" x2="106.795" y2="-127.273" gradientUnits="userSpaceOnUse" spreadMethod="reflect" id="fill22"><stop offset="0" stop-color="#8AB7F2"/><stop offset="0.93" stop-color="#FFFFFF"/><stop offset="1" stop-color="#FFFFFF"/></linearGradient><linearGradient x1="86.4063" y1="-31.4493" x2="231.594" y2="367.45" gradientUnits="userSpaceOnUse" spreadMethod="reflect" id="fill23"><stop offset="0" stop-color="#FFFFFF" stop-opacity="0"/><stop offset="0.56" stop-color="#FFBED9" stop-opacity="0.498039"/><stop offset="1" stop-color="#FF7DB3"/></linearGradient><linearGradient x1="84.3898" y1="12.9393" x2="-4.3901" y2="43.0609" gradientUnits="userSpaceOnUse" spreadMethod="reflect" id="fill24"><stop offset="0" stop-color="#F49786"/><stop offset="0.5" stop-color="#F9CBC2"/><stop offset="1" stop-color="#FFFFFF"/></linearGradient><linearGradient x1="91.4258" y1="394.88" x2="400.574" y2="-61.8797" gradientUnits="userSpaceOnUse" spreadMethod="reflect" id="fill25"><stop offset="0" stop-color="#09345D"/><stop offset="0.5" stop-color="#124E88"/><stop offset="1" stop-color="#185FA3"/></linearGradient><linearGradient x1="-28.9012" y1="184.181" x2="160.901" y2="146.819" gradientUnits="userSpaceOnUse" spreadMethod="reflect" id="fill26"><stop offset="0" stop-color="#F49786"/><stop offset="0.83" stop-color="#F9CBC2"/><stop offset="1" stop-color="#FFFFFF"/></linearGradient><linearGradient x1="147.441" y1="121.204" x2="-1.44051" y2="1.79621" gradientUnits="userSpaceOnUse" spreadMethod="reflect" id="fill27"><stop offset="0" stop-color="#F49786"/><stop offset="0.99" stop-color="#F9CBC2"/><stop offset="1" stop-color="#FFFFFF"/></linearGradient><linearGradient x1="334.029" y1="62.0801" x2="336.972" y2="-13.08" gradientUnits="userSpaceOnUse" spreadMethod="reflect" id="fill28"><stop offset="0" stop-color="#5C3799"/><stop offset="0.5" stop-color="#6C5299"/><stop offset="1" stop-color="#7D6E99"/></linearGradient><linearGradient x1="90.3486" y1="435.812" x2="519.651" y2="-75.8115" gradientUnits="userSpaceOnUse" spreadMethod="reflect" id="fill29"><stop offset="0" stop-color="#470A40"/><stop offset="0.04" stop-color="#470A40"/><stop offset="1" stop-color="#DD2F88"/></linearGradient><linearGradient x1="-6.19234" y1="44.771" x2="61.1926" y2="13.2291" gradientUnits="userSpaceOnUse" spreadMethod="reflect" id="fill30"><stop offset="0" stop-color="#F49786"/><stop offset="0.5" stop-color="#F9CBC2"/><stop offset="1" stop-color="#FFFFFF"/></linearGradient><linearGradient x1="56" y1="23.0002" x2="0" y2="23.0002" gradientUnits="userSpaceOnUse" spreadMethod="reflect" id="fill31"><stop offset="0" stop-color="#F59E8E"/><stop offset="0.0196078" stop-color="#F59F8F"/><stop offset="0.0392157" stop-color="#F5A191"/><stop offset="0.0588235" stop-color="#F5A293"/><stop offset="0.0784314" stop-color="#F5A495"/><stop offset="0.0980392" stop-color="#F5A597"/><stop offset="0.117647" stop-color="#F5A798"/><stop offset="0.137255" stop-color="#F5A89A"/><stop offset="0.156863" stop-color="#F6AA9C"/><stop offset="0.176471" stop-color="#F6AB9D"/><stop offset="0.196078" stop-color="#F6AD9F"/><stop offset="0.215686" stop-color="#F6AEA1"/><stop offset="0.235294" stop-color="#F6AFA2"/><stop offset="0.254902" stop-color="#F6B1A4"/><stop offset="0.27451" stop-color="#F6B2A5"/><stop offset="0.294118" stop-color="#F6B3A6"/><stop offset="0.313726" stop-color="#F7B4A8"/><stop offset="0.333333" stop-color="#F7B5A9"/><stop offset="0.352941" stop-color="#F7B7AB"/><stop offset="0.372549" stop-color="#F7B8AC"/><stop offset="0.392157" stop-color="#F7B9AD"/><stop offset="0.411765" stop-color="#F7BAAE"/><stop offset="0.431373" stop-color="#F7BBAF"/><stop offset="0.45098" stop-color="#F7BCB1"/><stop offset="0.470588" stop-color="#F7BDB2"/><stop offset="0.490196" stop-color="#F7BEB3"/><stop offset="0.509804" stop-color="#F7BFB4"/><stop offset="0.529412" stop-color="#F8C0B5"/><stop offset="0.54902" stop-color="#F8C0B6"/><stop offset="0.568627" stop-color="#F8C1B7"/><stop offset="0.588235" stop-color="#F8C2B8"/><stop offset="0.607843" stop-color="#F8C3B9"/><stop offset="0.627451" stop-color="#F8C3B9"/><stop offset="0.647059" stop-color="#F8C4BA"/><stop offset="0.666667" stop-color="#F8C5BB"/><stop offset="0.686275" stop-color="#F8C5BC"/><stop offset="0.705882" stop-color="#F8C6BC"/><stop offset="0.72549" stop-color="#F8C7BD"/><stop offset="0.745098" stop-color="#F8C7BD"/><stop offset="0.764706" stop-color="#F8C8BE"/><stop offset="0.784314" stop-color="#F8C8BF"/><stop offset="0.803922" stop-color="#F8C8BF"/><stop offset="0.823529" stop-color="#F8C9BF"/><stop offset="0.843137" stop-color="#F8C9C0"/><stop offset="0.862745" stop-color="#F8C9C0"/><stop offset="0.882353" stop-color="#F8CAC1"/><stop offset="0.901961" stop-color="#F8CAC1"/><stop offset="0.921569" stop-color="#F8CAC1"/><stop offset="0.941176" stop-color="#F8CAC1"/><stop offset="0.960784" stop-color="#F8CAC1"/><stop offset="0.980392" stop-color="#F8CAC1"/><stop offset="1" stop-color="#F9CBC2"/></linearGradient><linearGradient x1="65.455" y1="48.6488" x2="-15.4545" y2="74.3516" gradientUnits="userSpaceOnUse" spreadMethod="reflect" id="fill32"><stop offset="0" stop-color="#D51B7E"/><stop offset="0.5" stop-color="#EA4C98"/><stop offset="1" stop-color="#FF7DB3"/></linearGradient><linearGradient x1="-12.3104" y1="130.799" x2="186.31" y2="108.201" gradientUnits="userSpaceOnUse" spreadMethod="reflect" id="fill33"><stop offset="0" stop-color="#5C3799"/><stop offset="0.5" stop-color="#6C5299"/><stop offset="1" stop-color="#7D6E99"/></linearGradient><linearGradient x1="30.7477" y1="97.7813" x2="33.2521" y2="-0.781265" gradientUnits="userSpaceOnUse" spreadMethod="reflect" id="fill34"><stop offset="0" stop-color="#D51B7E"/><stop offset="0.5" stop-color="#EA4C98"/><stop offset="1" stop-color="#FF7DB3"/></linearGradient><linearGradient x1="-8.43927" y1="48.9725" x2="49.4394" y2="35.0277" gradientUnits="userSpaceOnUse" spreadMethod="reflect" id="fill35"><stop offset="0" stop-color="#F9CBC2"/><stop offset="0.5" stop-color="#F9CBC2"/><stop offset="1" stop-color="#F49786"/></linearGradient><linearGradient x1="10.5515" y1="17.5244" x2="11.4488" y2="-0.524561" gradientUnits="userSpaceOnUse" spreadMethod="reflect" id="fill36"><stop offset="0" stop-color="#F9CBC2"/><stop offset="0.5" stop-color="#F9CBC2"/><stop offset="1" stop-color="#F49786"/></linearGradient><linearGradient x1="10.6026" y1="16.4963" x2="11.3977" y2="-0.496105" gradientUnits="userSpaceOnUse" spreadMethod="reflect" id="fill37"><stop offset="0" stop-color="#F9CBC2"/><stop offset="0.5" stop-color="#F9CBC2"/><stop offset="1" stop-color="#F49786"/></linearGradient><linearGradient x1="10.5515" y1="17.5244" x2="11.4488" y2="-0.524597" gradientUnits="userSpaceOnUse" spreadMethod="reflect" id="fill38"><stop offset="0" stop-color="#F9CBC2"/><stop offset="0.5" stop-color="#F9CBC2"/><stop offset="1" stop-color="#F49786"/></linearGradient><linearGradient x1="10.6026" y1="16.4963" x2="11.3977" y2="-0.496105" gradientUnits="userSpaceOnUse" spreadMethod="reflect" id="fill39"><stop offset="0" stop-color="#F9CBC2"/><stop offset="0.5" stop-color="#F9CBC2"/><stop offset="1" stop-color="#F49786"/></linearGradient><linearGradient x1="-2.21118" y1="45.5477" x2="57.2115" y2="42.4526" gradientUnits="userSpaceOnUse" spreadMethod="reflect" id="fill40"><stop offset="0" stop-color="#F9CBC2"/><stop offset="0.5" stop-color="#F9CBC2"/><stop offset="1" stop-color="#F49786"/></linearGradient><linearGradient x1="10.827" y1="-2.70511" x2="21.1733" y2="38.7051" gradientUnits="userSpaceOnUse" spreadMethod="reflect" id="fill41"><stop offset="0" stop-color="#F9CBC2"/><stop offset="0.5" stop-color="#F9CBC2"/><stop offset="1" stop-color="#F49786"/></linearGradient><linearGradient x1="-4.152" y1="49.6344" x2="141.152" y2="28.3656" gradientUnits="userSpaceOnUse" spreadMethod="reflect" id="fill42"><stop offset="0" stop-color="#F9CBC2"/><stop offset="0.5" stop-color="#F9CBC2"/><stop offset="0.99" stop-color="#F49786"/><stop offset="1" stop-color="#FFFFFF"/></linearGradient><linearGradient x1="94.2247" y1="-13.278" x2="22.7758" y2="109.278" gradientUnits="userSpaceOnUse" spreadMethod="reflect" id="fill43"><stop offset="0" stop-color="#D51B7E"/><stop offset="0.5" stop-color="#7545B1"/><stop offset="1" stop-color="#166FE5"/></linearGradient><linearGradient x1="38.8863" y1="81.5808" x2="40.1138" y2="-0.580983" gradientUnits="userSpaceOnUse" spreadMethod="reflect" id="fill44"><stop offset="0" stop-color="#F9CBC2"/><stop offset="0.5" stop-color="#F9CBC2"/><stop offset="1" stop-color="#F49786"/></linearGradient><linearGradient x1="58.5514" y1="-10.4774" x2="21.449" y2="65.4777" gradientUnits="userSpaceOnUse" spreadMethod="reflect" id="fill45"><stop offset="0" stop-color="#D51B7E"/><stop offset="0.5" stop-color="#7545B1"/><stop offset="1" stop-color="#166FE5"/></linearGradient><linearGradient x1="0" y1="524.5" x2="664" y2="524.5" gradientUnits="userSpaceOnUse" spreadMethod="reflect" id="fill46"><stop offset="0" stop-color="#FF7DB3"/><stop offset="0.49" stop-color="#FFBED9" stop-opacity="0.498039"/><stop offset="1" stop-color="#FFFFFF" stop-opacity="0"/></linearGradient><linearGradient x1="2.99393" y1="116.431" x2="111.484" y2="-2.72592" gradientUnits="userSpaceOnUse" spreadMethod="reflect" id="fill47"><stop offset="0" stop-color="#166FE5"/><stop offset="0.5" stop-color="#8AB7F2"/><stop offset="1" stop-color="#FFFFFF"/></linearGradient><linearGradient x1="67" y1="32.5" x2="0" y2="32.5" gradientUnits="userSpaceOnUse" spreadMethod="reflect" id="fill48"><stop offset="0" stop-color="#FABA25"/><stop offset="0.51" stop-color="#FC973A"/><stop offset="1" stop-color="#FF7450"/></linearGradient><linearGradient x1="141.747" y1="-17.3865" x2="34.2533" y2="194.387" gradientUnits="userSpaceOnUse" spreadMethod="reflect" id="fill49"><stop offset="0" stop-color="#FABA25"/><stop offset="0.5" stop-color="#FC973A"/><stop offset="1" stop-color="#FF7450"/></linearGradient><linearGradient x1="-2.33423" y1="38.9316" x2="30.3344" y2="2.06869" gradientUnits="userSpaceOnUse" spreadMethod="reflect" id="fill50"><stop offset="0" stop-color="#5C3799"/><stop offset="0.5" stop-color="#6C5299"/><stop offset="1" stop-color="#7D6E99"/></linearGradient><linearGradient x1="-0.0357331" y1="20.5239" x2="27.0355" y2="20.4766" gradientUnits="userSpaceOnUse" spreadMethod="reflect" id="fill51"><stop offset="0" stop-color="#5C3799"/><stop offset="0.5" stop-color="#6C5299"/><stop offset="1" stop-color="#7D6E99"/></linearGradient><linearGradient x1="-0.044488" y1="25.5638" x2="73.0445" y2="25.4363" gradientUnits="userSpaceOnUse" spreadMethod="reflect" id="fill52"><stop offset="0" stop-color="#D51B7E"/><stop offset="0.5" stop-color="#7545B1"/><stop offset="1" stop-color="#166FE5"/></linearGradient><linearGradient x1="87.8179" y1="-12.4294" x2="33.1823" y2="133.43" gradientUnits="userSpaceOnUse" spreadMethod="reflect" id="fill53"><stop offset="0" stop-color="#FABA25"/><stop offset="0.5" stop-color="#FC973A"/><stop offset="1" stop-color="#FF7450"/></linearGradient><linearGradient x1="-3.14552" y1="27.8456" x2="28.146" y2="4.1547" gradientUnits="userSpaceOnUse" spreadMethod="reflect" id="fill54"><stop offset="0" stop-color="#D51B7E"/><stop offset="0.5" stop-color="#7545B1"/><stop offset="1" stop-color="#166FE5"/></linearGradient><linearGradient x1="8.53008" y1="20.8561" x2="16.4698" y2="-2.85619" gradientUnits="userSpaceOnUse" spreadMethod="reflect" id="fill55"><stop offset="0" stop-color="#5C3799"/><stop offset="0.5" stop-color="#6C5299"/><stop offset="1" stop-color="#7D6E99"/></linearGradient><linearGradient x1="8.53191" y1="20.856" x2="16.4683" y2="-2.85577" gradientUnits="userSpaceOnUse" spreadMethod="reflect" id="fill56"><stop offset="0" stop-color="#5C3799"/><stop offset="0.5" stop-color="#6C5299"/><stop offset="1" stop-color="#7D6E99"/></linearGradient><linearGradient x1="73.9659" y1="-6.34382" x2="89.0341" y2="169.344" gradientUnits="userSpaceOnUse" spreadMethod="reflect" id="fill57"><stop offset="0" stop-color="#FABA25"/><stop offset="0.5" stop-color="#FC973A"/><stop offset="1" stop-color="#FF7450"/></linearGradient><linearGradient x1="-0.0365489" y1="21.0602" x2="69.0366" y2="20.9397" gradientUnits="userSpaceOnUse" spreadMethod="reflect" id="fill58"><stop offset="0" stop-color="#D51B7E"/><stop offset="0.5" stop-color="#7545B1"/><stop offset="1" stop-color="#166FE5"/></linearGradient><linearGradient x1="13.6566" y1="31.1335" x2="13.3436" y2="-0.133593" gradientUnits="userSpaceOnUse" spreadMethod="reflect" id="fill59"><stop offset="0" stop-color="#5C3799"/><stop offset="0.5" stop-color="#6C5299"/><stop offset="1" stop-color="#7D6E99"/></linearGradient><linearGradient x1="21.4597" y1="32.5175" x2="5.54069" y2="-2.51741" gradientUnits="userSpaceOnUse" spreadMethod="reflect" id="fill60"><stop offset="0" stop-color="#5C3799"/><stop offset="0.5" stop-color="#6C5299"/><stop offset="1" stop-color="#7D6E99"/></linearGradient><linearGradient x1="-2.5011" y1="192.391" x2="195.501" y2="2.60944" gradientUnits="userSpaceOnUse" spreadMethod="reflect" id="fill61"><stop offset="0" stop-color="#D51B7E"/><stop offset="0.5" stop-color="#EA4C98"/><stop offset="1" stop-color="#FF7DB3"/></linearGradient><linearGradient x1="10.9696" y1="109.506" x2="91.0304" y2="-7.50554" gradientUnits="userSpaceOnUse" spreadMethod="reflect" id="fill62"><stop offset="0" stop-color="#166FE5"/><stop offset="0.5" stop-color="#67A0EA"/><stop offset="1" stop-color="#B9D1EF"/></linearGradient><linearGradient x1="1962.78" y1="720.149" x2="2135.22" y2="700.851" gradientUnits="userSpaceOnUse" spreadMethod="reflect" id="fill63"><stop offset="0" stop-color="#FF7450"/><stop offset="0.5" stop-color="#FC973A"/><stop offset="1" stop-color="#FABA25"/></linearGradient><linearGradient x1="2113.05" y1="743.689" x2="2105.95" y2="705.312" gradientUnits="userSpaceOnUse" spreadMethod="reflect" id="fill64"><stop offset="0" stop-color="#FABA25"/><stop offset="0.5" stop-color="#FC973A"/><stop offset="1" stop-color="#FF7450"/></linearGradient><linearGradient x1="1969.87" y1="680.218" x2="2089.13" y2="765.783" gradientUnits="userSpaceOnUse" spreadMethod="reflect" id="fill65"><stop offset="0" stop-color="#FABA25"/><stop offset="1" stop-color="#FCDC92"/></linearGradient><linearGradient x1="2065" y1="649" x2="2065" y2="687" gradientUnits="userSpaceOnUse" spreadMethod="reflect" id="fill66"><stop offset="0" stop-color="#FABA25"/><stop offset="1" stop-color="#FCDC92"/></linearGradient><linearGradient x1="85.4246" y1="-4.41528" x2="5.57546" y2="96.4154" gradientUnits="userSpaceOnUse" spreadMethod="reflect" id="fill67"><stop offset="0" stop-color="#FABA25"/><stop offset="0.5" stop-color="#FC973A"/><stop offset="1" stop-color="#FF7450"/></linearGradient><linearGradient x1="217.193" y1="-47.6695" x2="81.8069" y2="184.67" gradientUnits="userSpaceOnUse" spreadMethod="reflect" id="fill68"><stop offset="0" stop-color="#FFFFFF"/><stop offset="0.5" stop-color="#FFBED9"/><stop offset="1" stop-color="#FF7DB3"/></linearGradient><linearGradient x1="119.385" y1="-1.77102" x2="119.616" y2="13.771" gradientUnits="userSpaceOnUse" spreadMethod="reflect" id="fill69"><stop offset="0" stop-color="#D51B7E"/><stop offset="0.5" stop-color="#EA4C98"/><stop offset="1" stop-color="#FF7DB3"/></linearGradient><linearGradient x1="82.3597" y1="-1.62221" x2="82.6403" y2="12.6222" gradientUnits="userSpaceOnUse" spreadMethod="reflect" id="fill70"><stop offset="0" stop-color="#D51B7E"/><stop offset="0.5" stop-color="#EA4C98"/><stop offset="1" stop-color="#FF7DB3"/></linearGradient><linearGradient x1="-2.97989" y1="140.773" x2="145.98" y2="3.22717" gradientUnits="userSpaceOnUse" spreadMethod="reflect" id="fill71"><stop offset="0" stop-color="#D51B7E"/><stop offset="0.0105263" stop-color="#D41B7F"/><stop offset="0.0210526" stop-color="#D41C7F"/><stop offset="0.0315789" stop-color="#D41D80"/><stop offset="0.0421053" stop-color="#D41E81"/><stop offset="0.0526316" stop-color="#D41F82"/><stop offset="0.0631579" stop-color="#D41F83"/><stop offset="0.0736842" stop-color="#D42084"/><stop offset="0.0842105" stop-color="#D42185"/><stop offset="0.0947368" stop-color="#D32286"/><stop offset="0.105263" stop-color="#D32287"/><stop offset="0.115789" stop-color="#D32388"/><stop offset="0.126316" stop-color="#D32489"/><stop offset="0.136842" stop-color="#D2258A"/><stop offset="0.147368" stop-color="#D2258B"/><stop offset="0.157895" stop-color="#D1268C"/><stop offset="0.168421" stop-color="#D1278C"/><stop offset="0.178947" stop-color="#D1278D"/><stop offset="0.189474" stop-color="#D0288E"/><stop offset="0.2" stop-color="#D0298F"/><stop offset="0.210526" stop-color="#CF2A90"/><stop offset="0.221053" stop-color="#CF2A91"/><stop offset="0.231579" stop-color="#CE2B91"/><stop offset="0.242105" stop-color="#CE2C92"/><stop offset="0.252632" stop-color="#CD2C93"/><stop offset="0.263158" stop-color="#CD2D94"/><stop offset="0.273684" stop-color="#CC2D94"/><stop offset="0.284211" stop-color="#CB2E95"/><stop offset="0.294737" stop-color="#CB2F96"/><stop offset="0.305263" stop-color="#CA2F97"/><stop offset="0.315789" stop-color="#C93097"/><stop offset="0.326316" stop-color="#C93098"/><stop offset="0.336842" stop-color="#C83199"/><stop offset="0.347368" stop-color="#C7329A"/><stop offset="0.357895" stop-color="#C7329A"/><stop offset="0.368421" stop-color="#C6339B"/><stop offset="0.378947" stop-color="#C5339C"/><stop offset="0.389474" stop-color="#C4349C"/><stop offset="0.4" stop-color="#C3349D"/><stop offset="0.410526" stop-color="#C2359E"/><stop offset="0.421053" stop-color="#C2359E"/><stop offset="0.431579" stop-color="#C1369F"/><stop offset="0.442105" stop-color="#C0369F"/><stop offset="0.452632" stop-color="#BF37A0"/><stop offset="0.463158" stop-color="#BE37A1"/><stop offset="0.473684" stop-color="#BD38A1"/><stop offset="0.484211" stop-color="#BC38A2"/><stop offset="0.494737" stop-color="#BB39A2"/><stop offset="0.505263" stop-color="#BA39A3"/><stop offset="0.515789" stop-color="#B93AA3"/><stop offset="0.526316" stop-color="#B83AA4"/><stop offset="0.536842" stop-color="#B73BA4"/><stop offset="0.547368" stop-color="#B53BA5"/><stop offset="0.557895" stop-color="#B43BA5"/><stop offset="0.568421" stop-color="#B33CA6"/><stop offset="0.578947" stop-color="#B23CA6"/><stop offset="0.589474" stop-color="#B13DA7"/><stop offset="0.6" stop-color="#B03DA7"/><stop offset="0.610526" stop-color="#AE3DA8"/><stop offset="0.621053" stop-color="#AD3EA8"/><stop offset="0.631579" stop-color="#AC3EA9"/><stop offset="0.642105" stop-color="#AB3EA9"/><stop offset="0.652632" stop-color="#A93FA9"/><stop offset="0.663158" stop-color="#A83FAA"/><stop offset="0.673684" stop-color="#A73FAA"/><stop offset="0.684211" stop-color="#A540AB"/><stop offset="0.694737" stop-color="#A440AB"/><stop offset="0.705263" stop-color="#A340AB"/><stop offset="0.715789" stop-color="#A141AC"/><stop offset="0.726316" stop-color="#A041AC"/><stop offset="0.736842" stop-color="#9E41AC"/><stop offset="0.747368" stop-color="#9D41AD"/><stop offset="0.757895" stop-color="#9B42AD"/><stop offset="0.768421" stop-color="#9A42AD"/><stop offset="0.778947" stop-color="#9842AD"/><stop offset="0.789474" stop-color="#9742AE"/><stop offset="0.8" stop-color="#9542AE"/><stop offset="0.810526" stop-color="#9443AE"/><stop offset="0.821053" stop-color="#9243AE"/><stop offset="0.831579" stop-color="#9143AF"/><stop offset="0.842105" stop-color="#8F43AF"/><stop offset="0.852632" stop-color="#8D43AF"/><stop offset="0.863158" stop-color="#8C43AF"/><stop offset="0.873684" stop-color="#8A44AF"/><stop offset="0.884211" stop-color="#8844B0"/><stop offset="0.894737" stop-color="#8744B0"/><stop offset="0.905263" stop-color="#8544B0"/><stop offset="0.915789" stop-color="#8344B0"/><stop offset="0.926316" stop-color="#8144B0"/><stop offset="0.936842" stop-color="#8044B0"/><stop offset="0.947368" stop-color="#7E44B0"/><stop offset="0.957895" stop-color="#7C44B0"/><stop offset="0.968421" stop-color="#7A44B0"/><stop offset="0.978947" stop-color="#7844B0"/><stop offset="0.989474" stop-color="#7644B0"/><stop offset="1" stop-color="#7545B1"/></linearGradient><linearGradient x1="0" y1="44.0001" x2="71.0002" y2="44.0001" gradientUnits="userSpaceOnUse" spreadMethod="reflect" id="fill72"><stop offset="0" stop-color="#F9CBC2"/><stop offset="0.5" stop-color="#F9CBC2"/><stop offset="1" stop-color="#F49786"/></linearGradient><linearGradient x1="26.2664" y1="21.9494" x2="-7.26648" y2="33.0506" gradientUnits="userSpaceOnUse" spreadMethod="reflect" id="fill73"><stop offset="0" stop-color="#A9CCB4"/><stop offset="1" stop-color="#5AC987"/></linearGradient><linearGradient x1="1884.29" y1="944.497" x2="1843.71" y2="833.003" gradientUnits="userSpaceOnUse" spreadMethod="reflect" id="fill74"><stop offset="0" stop-color="#E64393"/><stop offset="0.00534759" stop-color="#E64494"/><stop offset="0.0106952" stop-color="#E64695"/><stop offset="0.0160428" stop-color="#E64896"/><stop offset="0.0213904" stop-color="#E64A97"/><stop offset="0.026738" stop-color="#E74C98"/><stop offset="0.0320856" stop-color="#E74E99"/><stop offset="0.0374332" stop-color="#E74F9A"/><stop offset="0.0427807" stop-color="#E7519B"/><stop offset="0.0481283" stop-color="#E8539C"/><stop offset="0.0534759" stop-color="#E8559D"/><stop offset="0.0588235" stop-color="#E8579E"/><stop offset="0.0641711" stop-color="#E8589F"/><stop offset="0.0695187" stop-color="#E95AA0"/><stop offset="0.0748663" stop-color="#E95CA1"/><stop offset="0.0802139" stop-color="#E95EA2"/><stop offset="0.0855615" stop-color="#E960A3"/><stop offset="0.0909091" stop-color="#EA61A4"/><stop offset="0.0962567" stop-color="#EA63A5"/><stop offset="0.101604" stop-color="#EA65A6"/><stop offset="0.106952" stop-color="#EA66A7"/><stop offset="0.112299" stop-color="#EB68A8"/><stop offset="0.117647" stop-color="#EB6AA9"/><stop offset="0.122995" stop-color="#EB6CAA"/><stop offset="0.128342" stop-color="#EB6DAB"/><stop offset="0.13369" stop-color="#EB6FAC"/><stop offset="0.139037" stop-color="#EC71AD"/><stop offset="0.144385" stop-color="#EC72AE"/><stop offset="0.149733" stop-color="#EC74AF"/><stop offset="0.15508" stop-color="#EC75B0"/><stop offset="0.160428" stop-color="#EC77B1"/><stop offset="0.165775" stop-color="#ED79B2"/><stop offset="0.171123" stop-color="#ED7AB3"/><stop offset="0.176471" stop-color="#ED7CB3"/><stop offset="0.181818" stop-color="#ED7DB4"/><stop offset="0.187166" stop-color="#EE7FB5"/><stop offset="0.192513" stop-color="#EE81B6"/><stop offset="0.197861" stop-color="#EE82B7"/><stop offset="0.203209" stop-color="#EE84B8"/><stop offset="0.208556" stop-color="#EE85B9"/><stop offset="0.213904" stop-color="#EF87BA"/><stop offset="0.219251" stop-color="#EF88BB"/><stop offset="0.224599" stop-color="#EF8ABB"/><stop offset="0.229947" stop-color="#EF8BBC"/><stop offset="0.235294" stop-color="#EF8DBD"/><stop offset="0.240642" stop-color="#F08EBE"/><stop offset="0.245989" stop-color="#F090BF"/><stop offset="0.251337" stop-color="#F091C0"/><stop offset="0.256684" stop-color="#F093C1"/><stop offset="0.262032" stop-color="#F094C1"/><stop offset="0.26738" stop-color="#F196C2"/><stop offset="0.272727" stop-color="#F197C3"/><stop offset="0.278075" stop-color="#F198C4"/><stop offset="0.283422" stop-color="#F19AC5"/><stop offset="0.28877" stop-color="#F19BC5"/><stop offset="0.294118" stop-color="#F19DC6"/><stop offset="0.299465" stop-color="#F29EC7"/><stop offset="0.304813" stop-color="#F29FC8"/><stop offset="0.31016" stop-color="#F2A1C9"/><stop offset="0.315508" stop-color="#F2A2C9"/><stop offset="0.320856" stop-color="#F2A3CA"/><stop offset="0.326203" stop-color="#F3A5CB"/><stop offset="0.331551" stop-color="#F3A6CC"/><stop offset="0.336898" stop-color="#F3A7CD"/><stop offset="0.342246" stop-color="#F3A9CD"/><stop offset="0.347594" stop-color="#F3AACE"/><stop offset="0.352941" stop-color="#F3ABCF"/><stop offset="0.358289" stop-color="#F4ADCF"/><stop offset="0.363636" stop-color="#F4AED0"/><stop offset="0.368984" stop-color="#F4AFD1"/><stop offset="0.374332" stop-color="#F4B0D2"/><stop offset="0.379679" stop-color="#F4B2D2"/><stop offset="0.385027" stop-color="#F4B3D3"/><stop offset="0.390374" stop-color="#F5B4D4"/><stop offset="0.395722" stop-color="#F5B5D5"/><stop offset="0.40107" stop-color="#F5B7D5"/><stop offset="0.406417" stop-color="#F5B8D6"/><stop offset="0.411765" stop-color="#F5B9D7"/><stop offset="0.417112" stop-color="#F5BAD7"/><stop offset="0.42246" stop-color="#F6BBD8"/><stop offset="0.427807" stop-color="#F6BCD9"/><stop offset="0.433155" stop-color="#F6BED9"/><stop offset="0.438503" stop-color="#F6BFDA"/><stop offset="0.44385" stop-color="#F6C0DB"/><stop offset="0.449198" stop-color="#F6C1DB"/><stop offset="0.454545" stop-color="#F6C2DC"/><stop offset="0.459893" stop-color="#F7C3DC"/><stop offset="0.465241" stop-color="#F7C4DD"/><stop offset="0.470588" stop-color="#F7C5DE"/><stop offset="0.475936" stop-color="#F7C7DE"/><stop offset="0.481283" stop-color="#F7C8DF"/><stop offset="0.486631" stop-color="#F7C9E0"/><stop offset="0.491979" stop-color="#F7CAE0"/><stop offset="0.497326" stop-color="#F8CBE1"/><stop offset="0.502674" stop-color="#F8CCE1"/><stop offset="0.508021" stop-color="#F8CDE2"/><stop offset="0.513369" stop-color="#F8CEE3"/><stop offset="0.518717" stop-color="#F8CFE3"/><stop offset="0.524064" stop-color="#F8D0E4"/><stop offset="0.529412" stop-color="#F8D1E4"/><stop offset="0.534759" stop-color="#F9D2E5"/><stop offset="0.540107" stop-color="#F9D3E5"/><stop offset="0.545455" stop-color="#F9D4E6"/><stop offset="0.550802" stop-color="#F9D5E6"/><stop offset="0.55615" stop-color="#F9D6E7"/><stop offset="0.561497" stop-color="#F9D6E7"/><stop offset="0.566845" stop-color="#F9D7E8"/><stop offset="0.572192" stop-color="#F9D8E9"/><stop offset="0.57754" stop-color="#FAD9E9"/><stop offset="0.582888" stop-color="#FADAEA"/><stop offset="0.588235" stop-color="#FADBEA"/><stop offset="0.593583" stop-color="#FADCEB"/><stop offset="0.59893" stop-color="#FADDEB"/><stop offset="0.604278" stop-color="#FADDEC"/><stop offset="0.609626" stop-color="#FADEEC"/><stop offset="0.614973" stop-color="#FADFEC"/><stop offset="0.620321" stop-color="#FAE0ED"/><stop offset="0.625668" stop-color="#FBE1ED"/><stop offset="0.631016" stop-color="#FBE2EE"/><stop offset="0.636364" stop-color="#FBE2EE"/><stop offset="0.641711" stop-color="#FBE3EF"/><stop offset="0.647059" stop-color="#FBE4EF"/><stop offset="0.652406" stop-color="#FBE5F0"/><stop offset="0.657754" stop-color="#FBE5F0"/><stop offset="0.663102" stop-color="#FBE6F0"/><stop offset="0.668449" stop-color="#FBE7F1"/><stop offset="0.673797" stop-color="#FBE7F1"/><stop offset="0.679144" stop-color="#FCE8F2"/><stop offset="0.684492" stop-color="#FCE9F2"/><stop offset="0.68984" stop-color="#FCEAF2"/><stop offset="0.695187" stop-color="#FCEAF3"/><stop offset="0.700535" stop-color="#FCEBF3"/><stop offset="0.705882" stop-color="#FCECF4"/><stop offset="0.71123" stop-color="#FCECF4"/><stop offset="0.716578" stop-color="#FCEDF4"/><stop offset="0.721925" stop-color="#FCEDF5"/><stop offset="0.727273" stop-color="#FCEEF5"/><stop offset="0.73262" stop-color="#FCEFF5"/><stop offset="0.737968" stop-color="#FCEFF6"/><stop offset="0.743316" stop-color="#FDF0F6"/><stop offset="0.748663" stop-color="#FDF0F6"/><stop offset="0.754011" stop-color="#FDF1F7"/><stop offset="0.759358" stop-color="#FDF1F7"/><stop offset="0.764706" stop-color="#FDF2F7"/><stop offset="0.770053" stop-color="#FDF3F8"/><stop offset="0.775401" stop-color="#FDF3F8"/><stop offset="0.780749" stop-color="#FDF4F8"/><stop offset="0.786096" stop-color="#FDF4F9"/><stop offset="0.791444" stop-color="#FDF5F9"/><stop offset="0.796791" stop-color="#FDF5F9"/><stop offset="0.802139" stop-color="#FDF5F9"/><stop offset="0.807487" stop-color="#FDF6FA"/><stop offset="0.812834" stop-color="#FDF6FA"/><stop offset="0.818182" stop-color="#FDF7FA"/><stop offset="0.823529" stop-color="#FEF7FA"/><stop offset="0.828877" stop-color="#FEF8FB"/><stop offset="0.834225" stop-color="#FEF8FB"/><stop offset="0.839572" stop-color="#FEF8FB"/><stop offset="0.84492" stop-color="#FEF9FB"/><stop offset="0.850267" stop-color="#FEF9FB"/><stop offset="0.855615" stop-color="#FEFAFC"/><stop offset="0.860963" stop-color="#FEFAFC"/><stop offset="0.86631" stop-color="#FEFAFC"/><stop offset="0.871658" stop-color="#FEFAFC"/><stop offset="0.877005" stop-color="#FEFBFC"/><stop offset="0.882353" stop-color="#FEFBFD"/><stop offset="0.887701" stop-color="#FEFBFD"/><stop offset="0.893048" stop-color="#FEFCFD"/><stop offset="0.898396" stop-color="#FEFCFD"/><stop offset="0.903743" stop-color="#FEFCFD"/><stop offset="0.909091" stop-color="#FEFCFD"/><stop offset="0.914438" stop-color="#FEFDFD"/><stop offset="0.919786" stop-color="#FEFDFE"/><stop offset="0.925134" stop-color="#FEFDFE"/><stop offset="0.930481" stop-color="#FEFDFE"/><stop offset="0.935829" stop-color="#FEFDFE"/><stop offset="0.941176" stop-color="#FEFEFE"/><stop offset="0.946524" stop-color="#FEFEFE"/><stop offset="0.951872" stop-color="#FEFEFE"/><stop offset="0.957219" stop-color="#FEFEFE"/><stop offset="0.962567" stop-color="#FEFEFE"/><stop offset="0.967914" stop-color="#FEFEFE"/><stop offset="0.973262" stop-color="#FEFEFE"/><stop offset="0.97861" stop-color="#FEFEFE"/><stop offset="0.983957" stop-color="#FEFEFE"/><stop offset="0.989305" stop-color="#FEFEFE"/><stop offset="0.994652" stop-color="#FEFEFE"/><stop offset="1" stop-color="#FFFFFF"/></linearGradient><linearGradient x1="-3.35293" y1="29.6358" x2="49.353" y2="21.3642" gradientUnits="userSpaceOnUse" spreadMethod="reflect" id="fill75"><stop offset="0" stop-color="#5C3799"/><stop offset="0.5" stop-color="#6C5299"/><stop offset="1" stop-color="#7D6E99"/></linearGradient><linearGradient x1="-1.52956" y1="127.369" x2="59.5299" y2="126.631" gradientUnits="userSpaceOnUse" spreadMethod="reflect" id="fill76"><stop offset="0" stop-color="#D51B7E"/><stop offset="0.5" stop-color="#EA4C98"/><stop offset="1" stop-color="#FF7DB3"/></linearGradient></defs><g clip-path="url(#clip0)" transform="translate(-1346 -379)"><path d="M0 304.468 507.563 9.96236C534.172-5.47715 571.46-2.69594 593.829 16.397L962.831 331.353 545.911 493.013 0 304.468Z" fill="url(#fill1)" fill-rule="evenodd" transform="matrix(-0.909259 -0.416231 -0.416231 0.909259 3444.48 766.778)"/><path d="M0 304.468 507.563 9.96236C534.172-5.47715 571.46-2.69594 593.829 16.397L962.831 331.353 545.912 493.013 0 304.468Z" fill="#D8DEE8" fill-rule="evenodd" transform="matrix(-0.909259 -0.416231 -0.416231 0.909259 3435.73 771.533)"/><path d="M935.765 24.2406 34.8049 0.0158664C15.7802-0.495681 0 11.3869 0 26.2243L0 478.814C0 494.07 16.6435 506.105 36.1617 504.964L937.122 452.279C954.678 451.253 968.25 439.851 968.25 426.129L968.25 50.4486C968.25 36.3174 953.885 24.7278 935.765 24.2406Z" fill="url(#fill2)" fill-rule="evenodd" transform="matrix(-0.909259 -0.416231 -0.416231 0.909259 3331.36 1043.23)"/><path d="M935.765 24.2406 34.8049 0.0158664C15.7802-0.495681 0 11.3869 0 26.2243L0 478.814C0 494.07 16.6435 506.105 36.1622 504.964L937.123 452.279C954.678 451.253 968.25 439.851 968.25 426.129L968.25 50.4486C968.25 36.3174 953.885 24.7278 935.765 24.2406Z" fill="url(#fill3)" fill-rule="evenodd" transform="matrix(-0.909259 -0.416231 -0.416231 0.909259 3317.28 1036.79)"/><path d="M569.825 275.919 947.344 32.9011C941.44 27.8017 933.019 24.4952 923.548 24.2408L22.5876 0.0158664C14.0153-0.214483 6.10817 2.07696 0 6.01603L504.687 278.084C524.575 288.805 551.18 287.921 569.825 275.919Z" fill="url(#fill4)" fill-rule="evenodd" transform="matrix(-0.909259 -0.416231 -0.416231 0.909259 3306.17 1031.7)"/><path d="M582.042 269.903C563.398 281.905 536.792 282.79 516.904 272.068L12.2173 0C4.76979 4.80216 0 12.0562 0 20.2078L0 472.798C0 488.054 16.6435 500.089 36.1622 498.948L937.122 446.263C954.678 445.236 968.25 433.835 968.25 420.113L968.25 44.4327C968.25 37.6886 964.952 31.5406 959.561 26.8851L582.042 269.903Z" fill="url(#fill5)" fill-rule="evenodd" transform="matrix(-0.909259 -0.416231 -0.416231 0.909259 3314.78 1042.26)"/><path d="M569.825 275.919 947.344 32.9012C941.44 27.8017 933.019 24.4952 923.548 24.2408L22.5876 0.0158664C14.0153-0.214483 6.10817 2.07697 0 6.01604L504.687 278.084C524.575 288.806 551.181 287.921 569.825 275.919Z" fill="url(#fill6)" fill-rule="evenodd" transform="matrix(-0.909259 -0.416231 -0.416231 0.909259 3306.17 1031.7)"/><path d="M959.561 26.8851 582.042 269.903C563.398 281.905 536.792 282.79 516.904 272.068L12.2173 0C4.76979 4.80216 0 12.0561 0 20.2078L0 86.9559C18.234 80.9831 33.6637 79.8371 46.2053 80.6537 80.878 82.9114 89.1569 99.7821 155.549 124.136 217.625 146.907 224.138 137.202 251.503 153.704 304.223 185.496 281.168 222.189 327.374 256.322 375.49 291.865 417.005 264.275 485.811 298.065 558.517 333.77 535.242 375.913 595.154 400.683 679.092 435.386 764.806 369.216 836.156 404.161 857.729 414.727 871.522 431.378 880.414 449.578L937.122 446.263C954.678 445.236 968.25 433.834 968.25 420.112L968.25 44.4327C968.25 37.6886 964.952 31.5402 959.561 26.8851Z" fill="url(#fill7)" fill-rule="evenodd" transform="matrix(-0.909259 -0.416231 -0.416231 0.909259 3314.78 1042.26)"/><path d="M0 8.99993 1.00026 7.8506 0 0Z" fill="url(#fill8)" fill-rule="evenodd" transform="matrix(-1 0 0 1 2043 995)"/><path d="M247 124C247 192.483 191.707 248 123.5 248 55.2928 248 0 192.483 0 124 0 55.5167 55.2928 0 123.5 0 191.707 0 247 55.5167 247 124Z" fill="url(#fill9)" fill-rule="evenodd" transform="matrix(-1 0 0 1 2066 1421)"/><path d="M26.015 168 368.985 168C383.353 168 395 160.613 395 151.502L395 16.498C395 7.38709 383.353 0 368.985 0L26.015 0C11.647 0 0 7.38709 0 16.498L0 151.502C0 160.613 11.647 168 26.015 168Z" fill="url(#fill10)" fill-rule="evenodd" transform="matrix(-1 0 0 1 2665 1510)"/><path d="M551 277C551 429.983 427.655 554 275.5 554 123.346 554 0 429.983 0 277 0 124.017 123.346 0 275.5 0 427.655 0 551 124.017 551 277Z" fill="url(#fill11)" fill-rule="evenodd" transform="matrix(-1 0 0 1 2682 890)"/><path d="M259.346 521.995 402.553 521.995C403.216 521.645 403.879 521.296 404.539 520.94L390.174 520.94 390.174 478.123 432.737 478.123 432.737 503.481C433.085 503.234 433.438 502.998 433.785 502.752L433.785 478.123 463.654 478.123C464.026 477.771 464.409 477.426 464.778 477.069L433.785 477.069 433.785 434.251 476.346 434.251 476.346 465.26C476.696 464.883 477.046 464.509 477.394 464.13L477.394 434.251 501.172 434.251C501.414 433.901 501.657 433.549 501.896 433.197L477.391 433.197 477.391 390.379 519.952 390.379 519.952 402.773C520.31 402.074 520.647 401.361 521 400.659L521 258.763 521 257.708 521 152.494C520.65 151.789 520.31 151.079 519.952 150.38L519.952 169.967 477.391 169.967 477.391 127.147 506.662 127.147C506.436 126.792 506.201 126.447 505.972 126.093L477.391 126.093 477.391 89.0233C477.044 88.644 476.693 88.2698 476.343 87.893L476.343 126.095 433.783 126.095 433.783 83.2774 471.971 83.2774C471.631 82.9251 471.292 82.5728 470.947 82.2231L433.78 82.2231 433.78 50.4038C433.433 50.1574 433.08 49.9186 432.732 49.6748L432.732 82.2231 390.169 82.2231 390.169 39.4054 417.101 39.4054C416.514 39.0477 415.919 38.706 415.331 38.3512L390.169 38.3512 390.169 25.0135C389.819 24.851 389.474 24.6829 389.121 24.5204L389.121 38.3483 346.563 38.3483 346.563 9.09303C346.213 8.99828 345.865 8.90068 345.515 8.80848L345.515 38.3483 302.954 38.3483 302.954 0.994781C302.607 0.959497 302.256 0.935026 301.906 0.899742L301.906 38.3457 259.343 38.3457 259.343 0C258.993 0.0190647 258.645 0.0460969 258.295 0.0677225L258.295 38.3483 215.737 38.3483 215.737 5.96556C215.387 6.04125 215.039 6.11722 214.689 6.19576L214.689 38.3512 172.128 38.3512 172.128 19.4682C171.778 19.6091 171.43 19.7556 171.08 19.8993L171.08 38.3512 134.204 38.3512C133.614 38.7034 133.019 39.0477 132.434 39.4054L171.083 39.4054 171.083 82.2231 128.52 82.2231 128.52 41.8474C128.172 42.0668 127.819 42.2839 127.472 42.5061L127.472 82.2231 84.9111 82.2231 84.9111 75.946C84.5581 76.2849 84.2162 76.6289 83.8632 76.9706L83.8632 82.2231 78.5882 82.2231C78.246 82.5728 77.9066 82.9251 77.5643 83.2774L83.8632 83.2774 83.8632 126.095 43.5681 126.095C43.3418 126.447 43.1048 126.795 42.8785 127.149L83.8657 127.149 83.8657 169.97 41.3026 169.97 41.3026 129.684C40.9524 130.245 40.602 130.806 40.2546 131.372L40.2546 169.972 20.5611 169.972C20.4154 170.322 20.2782 170.674 20.1326 171.027L40.2518 171.027 40.2518 213.845 6.51409 213.845C6.43348 214.194 6.36079 214.547 6.28244 214.899L40.2572 214.899 40.2572 257.717 0.0673159 257.717C0.0429917 258.066 0.0243242 258.419 0 258.771L40.2546 258.771 40.2546 301.591 0.549558 301.591C0.581802 301.944 0.608955 302.293 0.643744 302.646L40.26 302.646 40.26 345.463 8.00409 345.463C8.0929 345.816 8.18709 346.165 8.27873 346.518L40.2572 346.518 40.2572 389.335 23.1985 389.335C23.3521 389.685 23.5003 390.04 23.6565 390.39L40.2572 390.39 40.2572 421.8C40.602 422.364 40.955 422.924 41.3051 423.486L41.3051 390.379 83.8657 390.379 83.8657 433.199 47.6444 433.199C47.884 433.552 48.1292 433.901 48.369 434.254L83.8657 434.254 83.8657 476.188C84.5366 476.838 85.2129 477.483 85.8892 478.126L127.474 478.126 127.474 510.652C127.822 510.874 128.172 511.089 128.522 511.311L128.522 478.128 171.083 478.128 171.083 520.946 145.002 520.946C145.662 521.301 146.325 521.651 146.987 522L258.3 522 259.346 522ZM477.389 171.019 519.949 171.019 519.949 213.836 477.389 213.836 477.389 171.019ZM477.389 214.891 519.949 214.891 519.949 257.708 477.389 257.708 477.389 214.891ZM477.389 258.763 519.949 258.763 519.949 301.583 477.389 301.583 477.389 258.763ZM477.389 302.635 519.949 302.635 519.949 345.452 477.389 345.452 477.389 302.635ZM477.389 346.507 519.949 346.507 519.949 389.325 477.389 389.325 477.389 346.507ZM433.78 127.147 476.34 127.147 476.34 169.967 433.78 169.967 433.78 127.147ZM433.78 171.019 476.34 171.019 476.34 213.836 433.78 213.836 433.78 171.019ZM433.78 214.891 476.34 214.891 476.34 257.708 433.78 257.708 433.78 214.891ZM433.78 258.763 476.34 258.763 476.34 301.583 433.78 301.583 433.78 258.763ZM433.78 302.635 476.34 302.635 476.34 345.452 433.78 345.452 433.78 302.635ZM433.78 346.507 476.34 346.507 476.34 389.325 433.78 389.325 433.78 346.507ZM433.78 390.379 476.34 390.379 476.34 433.199 433.78 433.199 433.78 390.379ZM390.171 83.2748 432.735 83.2748 432.735 126.093 390.171 126.093 390.171 83.2748ZM390.171 127.147 432.735 127.147 432.735 169.967 390.171 169.967 390.171 127.147ZM390.171 171.019 432.735 171.019 432.735 213.836 390.171 213.836 390.171 171.019ZM390.171 214.891 432.735 214.891 432.735 257.708 390.171 257.708 390.171 214.891ZM390.171 258.763 432.735 258.763 432.735 301.583 390.171 301.583 390.171 258.763ZM390.171 302.635 432.735 302.635 432.735 345.452 390.171 345.452 390.171 302.635ZM390.171 346.507 432.735 346.507 432.735 389.325 390.171 389.325 390.171 346.507ZM390.171 390.379 432.735 390.379 432.735 433.199 390.171 433.199 390.171 390.379ZM390.171 434.251 432.735 434.251 432.735 477.069 390.171 477.069 390.171 434.251ZM346.563 39.4026 389.123 39.4026 389.123 82.2203 346.563 82.2203 346.563 39.4026ZM346.563 83.2748 389.123 83.2748 389.123 126.093 346.563 126.093 346.563 83.2748ZM346.563 127.147 389.123 127.147 389.123 169.967 346.563 169.967 346.563 127.147ZM346.563 171.019 389.123 171.019 389.123 213.836 346.563 213.836 346.563 171.019ZM346.563 214.891 389.123 214.891 389.123 257.708 346.563 257.708 346.563 214.891ZM346.563 258.763 389.123 258.763 389.123 301.583 346.563 301.583 346.563 258.763ZM346.563 302.635 389.123 302.635 389.123 345.452 346.563 345.452 346.563 302.635ZM346.563 346.507 389.123 346.507 389.123 389.325 346.563 389.325 346.563 346.507ZM346.563 390.379 389.123 390.379 389.123 433.199 346.563 433.199 346.563 390.379ZM346.563 434.251 389.123 434.251 389.123 477.069 346.563 477.069 346.563 434.251ZM346.563 478.123 389.123 478.123 389.123 520.94 346.563 520.94 346.563 478.123ZM302.954 39.4026 345.515 39.4026 345.515 82.2203 302.954 82.2203 302.954 39.4026ZM302.954 83.2748 345.515 83.2748 345.515 126.093 302.954 126.093 302.954 83.2748ZM302.954 127.147 345.515 127.147 345.515 169.967 302.954 169.967 302.954 127.147ZM302.954 171.019 345.515 171.019 345.515 213.836 302.954 213.836 302.954 171.019ZM302.954 214.891 345.515 214.891 345.515 257.708 302.954 257.708 302.954 214.891ZM302.954 258.763 345.515 258.763 345.515 301.583 302.954 301.583 302.954 258.763ZM302.954 302.635 345.515 302.635 345.515 345.452 302.954 345.452 302.954 302.635ZM302.954 346.507 345.515 346.507 345.515 389.325 302.954 389.325 302.954 346.507ZM302.954 390.379 345.515 390.379 345.515 433.199 302.954 433.199 302.954 390.379ZM302.954 434.251 345.515 434.251 345.515 477.069 302.954 477.069 302.954 434.251ZM302.954 478.123 345.515 478.123 345.515 520.94 302.954 520.94 302.954 478.123ZM259.346 39.4026 301.909 39.4026 301.909 82.2203 259.346 82.2203 259.346 39.4026ZM259.346 83.2748 301.909 83.2748 301.909 126.093 259.346 126.093 259.346 83.2748ZM259.346 127.147 301.909 127.147 301.909 169.967 259.346 169.967 259.346 127.147ZM259.346 171.019 301.909 171.019 301.909 213.836 259.346 213.836 259.346 171.019ZM259.346 214.891 301.909 214.891 301.909 257.708 259.346 257.708 259.346 214.891ZM259.346 258.763 301.909 258.763 301.909 301.583 259.346 301.583 259.346 258.763ZM259.346 302.635 301.909 302.635 301.909 345.452 259.346 345.452 259.346 302.635ZM259.346 346.507 301.909 346.507 301.909 389.325 259.346 389.325 259.346 346.507ZM259.346 390.379 301.909 390.379 301.909 433.199 259.346 433.199 259.346 390.379ZM259.346 434.251 301.909 434.251 301.909 477.069 259.346 477.069 259.346 434.251ZM259.346 478.123 301.909 478.123 301.909 520.94 259.346 520.94 259.346 478.123ZM83.8657 389.325 41.3026 389.325 41.3026 346.507 83.8657 346.507 83.8657 389.325ZM83.8657 345.452 41.3026 345.452 41.3026 302.635 83.8657 302.635 83.8657 345.452ZM83.8657 301.583 41.3026 301.583 41.3026 258.763 83.8657 258.763 83.8657 301.583ZM83.8657 257.708 41.3026 257.708 41.3026 214.891 83.8657 214.891 83.8657 257.708ZM83.8657 213.839 41.3026 213.839 41.3026 171.021 83.8657 171.021 83.8657 213.839ZM127.474 477.069 84.9111 477.069 84.9111 434.251 127.472 434.251 127.472 477.069ZM127.474 433.197 84.9111 433.197 84.9111 390.379 127.472 390.379 127.472 433.197ZM127.474 389.325 84.9111 389.325 84.9111 346.507 127.472 346.507 127.472 389.325ZM127.474 345.452 84.9111 345.452 84.9111 302.635 127.472 302.635 127.472 345.452ZM127.474 301.583 84.9111 301.583 84.9111 258.763 127.472 258.763 127.472 301.583ZM127.474 257.708 84.9111 257.708 84.9111 214.891 127.472 214.891 127.472 257.708ZM127.474 213.839 84.9111 213.839 84.9111 171.021 127.472 171.021 127.472 213.839ZM127.474 169.967 84.9111 169.967 84.9111 127.147 127.472 127.147 127.472 169.967ZM127.474 126.093 84.9111 126.093 84.9111 83.2748 127.472 83.2748 127.472 126.093ZM171.083 477.069 128.52 477.069 128.52 434.251 171.08 434.251 171.08 477.069ZM171.083 433.197 128.52 433.197 128.52 390.379 171.08 390.379 171.08 433.197ZM171.083 389.325 128.52 389.325 128.52 346.507 171.08 346.507 171.08 389.325ZM171.083 345.452 128.52 345.452 128.52 302.635 171.08 302.635 171.08 345.452ZM171.083 301.583 128.52 301.583 128.52 258.763 171.08 258.763 171.08 301.583ZM171.083 257.708 128.52 257.708 128.52 214.891 171.08 214.891 171.08 257.708ZM171.083 213.839 128.52 213.839 128.52 171.021 171.08 171.021 171.08 213.839ZM171.083 169.967 128.52 169.967 128.52 127.147 171.08 127.147 171.08 169.967ZM171.083 126.093 128.52 126.093 128.52 83.2748 171.08 83.2748 171.08 126.093ZM214.692 520.94 172.128 520.94 172.128 478.123 214.689 478.123 214.689 520.94ZM214.692 477.069 172.128 477.069 172.128 434.251 214.689 434.251 214.689 477.069ZM214.692 433.197 172.128 433.197 172.128 390.379 214.689 390.379 214.689 433.197ZM214.692 389.325 172.128 389.325 172.128 346.507 214.689 346.507 214.689 389.325ZM214.692 345.452 172.128 345.452 172.128 302.635 214.689 302.635 214.689 345.452ZM214.692 301.583 172.128 301.583 172.128 258.763 214.689 258.763 214.689 301.583ZM214.692 257.708 172.128 257.708 172.128 214.891 214.689 214.891 214.689 257.708ZM214.692 213.839 172.128 213.839 172.128 171.021 214.689 171.021 214.689 213.839ZM214.692 169.967 172.128 169.967 172.128 127.147 214.689 127.147 214.689 169.967ZM214.692 126.093 172.128 126.093 172.128 83.2748 214.689 83.2748 214.689 126.093ZM214.692 82.2231 172.128 82.2231 172.128 39.4054 214.689 39.4054 214.689 82.2231ZM215.737 39.4026 258.297 39.4026 258.297 82.2203 215.737 82.2203 215.737 39.4026ZM215.737 83.2748 258.297 83.2748 258.297 126.093 215.737 126.093 215.737 83.2748ZM215.737 127.147 258.297 127.147 258.297 169.967 215.737 169.967 215.737 127.147ZM215.737 171.019 258.297 171.019 258.297 213.836 215.737 213.836 215.737 171.019ZM215.737 214.891 258.297 214.891 258.297 257.708 215.737 257.708 215.737 214.891ZM215.737 258.763 258.297 258.763 258.297 301.583 215.737 301.583 215.737 258.763ZM215.737 302.635 258.297 302.635 258.297 345.452 215.737 345.452 215.737 302.635ZM215.737 346.507 258.297 346.507 258.297 389.325 215.737 389.325 215.737 346.507ZM215.737 390.379 258.297 390.379 258.297 433.199 215.737 433.199 215.737 390.379ZM215.737 434.251 258.297 434.251 258.297 477.069 215.737 477.069 215.737 434.251ZM215.737 478.123 258.297 478.123 258.297 520.94 215.737 520.94 215.737 478.123Z" fill="#FFFFFF" fill-rule="evenodd" transform="matrix(-1 0 0 1 2681 890)"/><path d="M2374.18 1144 2355 1144C2355 1065.7 2418.7 1002 2497 1002L2497 1021.18C2429.28 1021.18 2374.18 1076.28 2374.18 1144Z" fill="url(#fill12)" fill-rule="evenodd"/><path d="M2422.1 1144 2403 1144C2403 1092.17 2445.17 1050 2497 1050L2497 1069.1C2455.7 1069.1 2422.1 1102.7 2422.1 1144Z" fill="url(#fill13)" fill-rule="evenodd"/><path d="M2464.19 1144 2445 1144C2445 1115.33 2468.33 1092 2497 1092L2497 1111.19C2478.91 1111.19 2464.19 1125.91 2464.19 1144Z" fill="url(#fill14)" fill-rule="evenodd"/><path d="M73.3268 36.9125C73.3268 57.299 56.9122 73.8252 36.6636 73.8252 16.4147 73.8252 0 57.299 0 36.9125 0 16.5262 16.4147 0 36.6636 0 56.9122 0 73.3268 16.5262 73.3268 36.9125Z" fill="url(#fill15)" fill-rule="evenodd" transform="matrix(-0.801003 -0.59866 -0.59866 0.801003 2115.98 849.614)"/><path d="M21.5001 0 28.1447 13.8255 43.0002 16.0421 32.2514 26.806 34.7893 42.0002 21.5001 34.8269 8.21092 42.0002 10.7488 26.806 0 16.0421 14.8555 13.8255Z" fill="url(#fill16)" fill-rule="evenodd" transform="matrix(-1 0 0 1 2080 836)"/><path d="M90.2154 45.4146C90.2154 70.4962 70.02 90.829 45.1079 90.829 20.1954 90.829 0 70.4962 0 45.4146 0 20.3327 20.1954 0 45.1079 0 70.02 0 90.2154 20.3327 90.2154 45.4146Z" fill="url(#fill17)" fill-rule="evenodd" transform="matrix(-0.978894 -0.204368 -0.204368 0.978894 1653.14 1459.11)"/><path d="M27.0001 0 35.3451 16.7868 54 19.4799 40.5015 32.5482 43.6877 51.0005 27.0001 42.2883 10.3123 51.0005 13.5013 32.5482 0 19.4799 18.6575 16.7868Z" fill="url(#fill18)" fill-rule="evenodd" transform="matrix(-1 0 0 1 1621 1460)"/><path d="M109.455 0C-32.1321 63.6882 4.17145 261.001 4.17145 261.001L46.1439 261.001C182.51 163.611 109.455 0 109.455 0Z" fill="url(#fill19)" fill-rule="evenodd" transform="matrix(-1 0 0 1 2007 1304)"/><path d="M0.485015 0C110.127 12.0405 129.001 154.689 129.001 154.689L100.651 164C-12.8749 127.808 0.485015 0 0.485015 0Z" fill="url(#fill20)" fill-rule="evenodd" transform="matrix(-1 0 0 1 2678 1399)"/><path d="M20.0769 0 546.923 0C558.014 0 567.003 9.06199 567 20.2401L567 298.76C567 309.938 558.011 319 546.923 319L20.0769 319C8.98889 319 0 309.938 0 298.76L0 20.2401C0 9.06199 8.98889 0 20.0769 0Z" fill="url(#fill21)" fill-rule="evenodd" transform="matrix(-1 0 0 1 2566 1206)"/><path d="M546.921 0 20.0768 0C8.98885 0 0 8.87302 0 19.818L0 42.0003 567 42.0003 567 19.818C567 8.87302 558.012 0 546.921 0Z" fill="url(#fill22)" fill-rule="evenodd" transform="matrix(-1 0 0 1 2566 1206)"/><path d="M318 10.6807C316.024 4.29459 312.42 0 308.286 0L11.3168 0C5.0668 0 0 9.78268 0 21.8498L0 322.52C0 327.61 0.909104 332.285 2.42125 336L318 10.6807Z" fill="url(#fill23)" fill-rule="evenodd" transform="matrix(-1 0 0 1 2566 1206)"/><path d="M75.3195 3.89932C75.3195 3.89932 86.2941 27.9958 74.6326 56.0002L0 0 75.3195 3.89932Z" fill="url(#fill24)" fill-rule="evenodd" transform="matrix(-1 0 0 1 2118 1472)"/><path d="M129.759 332.997 129.759 259.64 129.759 241.301 0 221.883C49.7412 11.5184 184.455 0 184.455 0L220.545 8.28139 321.331 0.899912C321.331 0.899912 468.212 56.8264 492 235.907L388.145 235.907 388.145 333 129.759 333Z" fill="url(#fill25)" fill-rule="evenodd" transform="matrix(-1 0 0 1 2530 1246)"/><path d="M131.965 259.516C132.908 295.047 114.768 334.572 67.6914 330.742-4.56939 324.862-1.33329 229.822 0.822981 130.864 2.97953 31.9061 6.21535 0 6.21535 0 6.21535 0 46.4546 3.24726 46.4599 3.24726 49.0326 3.45473 55.9988 19.4905 57.0138 21.3447 66.3916 38.4518 74.7407 56.0321 82.3513 73.8441 106.87 131.228 129.073 195.828 131.896 257.625 131.925 258.257 131.949 258.886 131.965 259.516Z" fill="url(#fill26)" fill-rule="evenodd" transform="matrix(-1 0 0 1 2176 1259)"/><path d="M58.8793 122.99C58.8793 122.99-2.16 124.729 0.0591859 83.4111 2.27808 42.0933 17.3252 0 17.3252 0L146 15.1271 146 29.9141 146 110.743 58.8793 122.99Z" fill="url(#fill27)" fill-rule="evenodd" transform="matrix(-1 0 0 1 2546 1469)"/><path d="M0 0 0 6.81709C0 30.1153 18.5214 49.0001 41.3656 49.0001L629.635 49.0001C652.482 49.0001 671 30.1127 671 6.81709L671 0 0 0Z" fill="url(#fill28)" fill-rule="evenodd" transform="matrix(-1 0 0 1 2618 1545)"/><path d="M30.8115 0 579.189 0C596.205 0 610 13.8738 610 30.9914L610 360 0 360 0 30.9914C0 13.8767 13.7949 0 30.8115 0ZM41.2201 20.632C30.1172 20.632 21.1162 29.6864 21.1162 40.8551L21.1162 319.142C21.1162 330.311 30.1172 339.365 41.2201 339.365L568.778 339.365C579.88 339.365 588.881 330.311 588.881 319.142L588.881 40.8551C588.884 29.6864 579.883 20.632 568.778 20.632L41.2201 20.632Z" fill="url(#fill29)" fill-rule="evenodd" transform="matrix(-1 0 0 1 2587 1185)"/><path d="M0 38.0985 0 58.0001 42.8668 58.0001C49.5663 58.0001 55.0003 52.4909 55.0003 45.6931L55.0003 38.0985 55.0003 0 0 38.0985Z" fill="url(#fill30)" fill-rule="evenodd" transform="matrix(-1 0 0 1 2162 1229)"/><path d="M0 0 56 0 56 46.0003 0 46.0003Z" fill="url(#fill31)" fill-rule="evenodd" transform="matrix(-1 0 0 1 2174 1287)"/><path d="M0 5.27271 16.7015 113.923C17.6024 119.78 23.0022 123.786 28.7627 122.87L41.0724 120.913C46.8329 119.997 50.7731 114.507 49.8722 108.65L33.1707 0 0 5.27271Z" fill="url(#fill32)" fill-rule="evenodd" transform="matrix(-1 0 0 1 2157 1164)"/><path d="M5.78308 95.1132 0 144.094 20.2773 188.954C20.2773 188.954 139.696 184.342 174 239L155.544 119.5 137.088 0C120.896 62.6405 5.78308 95.1132 5.78308 95.1132Z" fill="url(#fill33)" fill-rule="evenodd" transform="matrix(-1 0 0 1 2190 997)"/><path d="M25.429 3.78883C9.02283 6.36613-2.19985 21.8196 0.364991 38.3055L5.51932 71.4455C8.08416 87.9342 23.463 99.2085 39.8692 96.6337L63.9999 92.8449 49.56 0 25.429 3.78883Z" fill="url(#fill34)" fill-rule="evenodd" transform="matrix(-1 0 0 1 2233 1092)"/><path d="M37.8235 2.40808 37.8235 2.40808C34.8138-0.722195 29.8414-0.811615 26.7179 2.20446L6.65041 21.591C2.40094 25.6974 0 31.3585 0 37.2745L0 84.0002 23.2479 84.0002 22.8338 69.499C28.2742 66.5262 32.1503 58.8606 32.1503 49.8742 32.1503 41.7392 28.9753 34.6921 24.3388 31.223L37.5285 18.4795C42.0405 14.1232 42.1707 6.92692 37.8235 2.40808Z" fill="url(#fill35)" fill-rule="evenodd" transform="matrix(-1 0 0 1 2174 1203)"/><path d="M13.3541 0.258794 9.7131 0.0214454C4.6525-0.306901 0.311315 3.17102 0.0157955 7.78642L0.0157955 7.78642C-0.279437 12.4044 3.58558 16.4127 8.64647 16.741L12.2872 16.9784C17.3481 17.307 21.6893 13.8288 21.9848 9.2137L21.9848 9.2137C22.2774 4.5954 18.4147 0.58743 13.3541 0.258794Z" fill="url(#fill36)" fill-rule="evenodd" transform="matrix(-1 0 0 1 2121 1203)"/><path d="M13.3539 0.243576 9.71297 0.0201843C4.65244-0.288854 0.311311 2.98455 0.0157953 7.32854L0.0157953 7.32854C-0.279433 11.675 3.58554 15.4473 8.64635 15.7566L12.287 15.98C17.3478 16.2893 21.689 13.0156 21.9845 8.67162L21.9845 8.67162C22.2797 4.32517 18.4145 0.552887 13.3539 0.243576Z" fill="url(#fill37)" fill-rule="evenodd" transform="matrix(-1 0 0 1 2122 1220)"/><path d="M13.3539 0.258794 9.71297 0.0214454C4.65244-0.307191 0.311311 3.17102 0.0157953 7.78642L0.0157953 7.78642C-0.279433 12.4044 3.58554 16.4124 8.64635 16.741L12.287 16.9784C17.3478 17.307 21.689 13.8288 21.9845 9.21341L21.9845 9.21341C22.2797 4.59801 18.4173 0.58743 13.3539 0.258794Z" fill="url(#fill38)" fill-rule="evenodd" transform="matrix(-1 0 0 1 2123 1236)"/><path d="M13.3538 0.243576 9.71281 0.0201843C4.65221-0.288854 0.311028 2.98455 0.0155083 7.32854L0.0155083 7.32854C-0.27714 11.675 3.5853 15.4476 8.64618 15.7566L12.2869 15.98C17.3478 16.2893 21.689 13.0156 21.9845 8.67189L21.9845 8.67189C22.2797 4.32517 18.4144 0.550159 13.3538 0.243576Z" fill="url(#fill39)" fill-rule="evenodd" transform="matrix(-1 0 0 1 2124 1253)"/><path d="M0 88.0003 55.0003 88.0003 55.0003 0 0 0Z" fill="url(#fill40)" fill-rule="evenodd" transform="matrix(-1 0 0 1 2299 1171)"/><path d="M6.75039 1.37924 12.8089 0 32.0002 0 32.0002 36 0 18.0013 0 12.5461Z" fill="url(#fill41)" fill-rule="evenodd" transform="matrix(-1 0 0 1 2276 1171)"/><path d="M78.4149 2.28043 99.1444 0 105.003 2.28043 137 15.9656C137 15.9656 127.536 78 78.4149 78 29.2942 78 5.40885 48.3496 0 15.0518L46.8678 0 78.4149 2.28043Z" fill="url(#fill42)" fill-rule="evenodd" transform="matrix(-1 0 0 1 2345 1231)"/><path d="M91.4308 58.0151 26.329 96.0002C26.329 96.0002-7.63965 53.277 1.58985 29.1736 15.5821-7.36266 58.0496-3.58342 81.3118 8.35121 81.4709 8.43297 90.4389 2.15377 91.4577 1.75898 112.58-6.43415 122.27 23.0797 114.135 38.0205 114.135 38.0205 103.997 50.6822 91.4308 58.0151Z" fill="url(#fill43)" fill-rule="evenodd" transform="matrix(-1 0 0 1 2325 1080)"/><path d="M79.0001 0 79.0001 76.6752C79.0001 76.6752 75.4259 80.7344 67.8311 80.7344 67.8311 80.7344 28.5193 84.3431 10.2042 64.9479L10.2042 49.1613C10.2042 49.1613-2.30313 48.7108 0.376376 34.2783 3.0556 19.8458 21.8195 27.3276 22.2657 40.5009L22.2657 13.0812 79.0001 0Z" fill="url(#fill44)" fill-rule="evenodd" transform="matrix(-1 0 0 1 2309 1113)"/><path d="M37.558 18.5022C37.558 18.5022 72.7871 6.87288 73.1523 32.0647L80.0004 15.4746 67.024 0 27.7865 3.70032 5.19016 4.37308 0 9.75573 9.16022 40.7047C9.16022 40.7047 15.1536 44.1862 14.4097 55.0003L14.4097 55.0003C20.1947 55.0003 24.8871 50.2577 24.8871 44.405L24.8871 31.9582C24.8846 31.9582 25.666 20.9253 37.558 18.5022Z" fill="url(#fill45)" fill-rule="evenodd" transform="matrix(-1 0 0 1 2302 1102)"/><path d="M664 1049 664 0 0 619.228 35.5686 851.319Z" fill="url(#fill46)" fill-rule="evenodd" transform="matrix(-1 0 0 1 2041 379)"/><path d="M114.478 56.8526C114.478 88.2515 88.8512 113.705 57.239 113.705 25.6268 113.705 0 88.2515 0 56.8526 0 25.4538 25.6268 0 57.239 0 88.8512 0 114.478 25.4538 114.478 56.8526Z" fill="url(#fill47)" fill-rule="evenodd" transform="matrix(0.521514 -0.853243 -0.853243 -0.521514 1555 1174.22)"/><path d="M33.5002 0 43.8522 21.3965 67 24.8275 50.2515 41.4814 54.2046 65 33.5002 53.8965 12.7954 65 16.7488 41.4814 0 24.8275 23.1478 21.3965Z" fill="url(#fill48)" fill-rule="evenodd" transform="matrix(-1 0 0 1 1570 1063)"/><path d="M176 88.5C176 137.377 136.601 177 88 177 39.3988 177 0 137.377 0 88.5 0 39.6227 39.3988 0 88 0 136.601 0 176 39.6227 176 88.5Z" fill="url(#fill49)" fill-rule="evenodd" transform="matrix(-1 0 0 1 1616 663)"/><path d="M25.9161 24.9397C21.8595 35.9907 13.237 42.9624 6.65519 40.5087 0.0734134 38.0552-1.97273 27.111 2.08414 16.0597 6.14101 5.00872 14.7632-1.96008 21.345 0.49074 27.9268 2.94156 29.9729 13.8887 25.9161 24.9397Z" fill="url(#fill50)" fill-rule="evenodd" transform="matrix(-1 0 0 1 1566 700)"/><path d="M24.9901 24.9412C21.0785 35.992 12.764 42.9606 6.41741 40.5098 0.0707904 38.0562-1.90225 27.1125 2.00968 16.059 5.92161 5.0085 14.2358-1.96 20.5824 0.490719 26.929 2.94432 28.9021 13.8907 24.9901 24.9412Z" fill="url(#fill51)" fill-rule="evenodd" transform="matrix(-1 0 0 1 1506 722)"/><path d="M2.34929 0C-4.86767 19.61 5.10029 41.3848 24.6082 48.6386 44.1188 55.8926 65.7832 45.8739 73.0002 26.2665L2.34929 0Z" fill="url(#fill52)" fill-rule="evenodd" transform="matrix(-1 0 0 1 1573 759)"/><path d="M121 60.5001C121 93.9133 93.9133 121 60.5001 121 27.0867 121 0 93.9133 0 60.5001 0 27.0867 27.0867 0 60.5001 0 93.9133 0 121 27.0867 121 60.5001Z" fill="url(#fill53)" fill-rule="evenodd" transform="matrix(-1 0 0 1 1783 1137)"/><path d="M24.3871 19.0316C22.2549 27.7063 15.2071 33.3809 8.64166 31.7078 2.07593 30.0343-1.51614 21.6431 0.613545 12.9684 2.7458 4.29395 9.79327-1.38062 16.359 0.292498 22.9222 1.96853 26.5168 10.3572 24.3871 19.0316Z" fill="url(#fill54)" fill-rule="evenodd" transform="matrix(-1 0 0 1 1740 1202)"/><path d="M22.5938 17.9508C21.7209 17.7278 21.1879 16.8304 21.4074 15.9416 22.7732 10.3977 19.8061 4.85134 14.7907 3.57628 9.77527 2.30122 4.58303 5.77589 3.21447 11.3194 2.99491 12.2057 2.11131 12.7469 1.23586 12.524 0.362661 12.3011-0.170085 11.4036 0.0494794 10.5148 1.85154 3.19836 8.81914-1.35556 15.5807 0.362509 22.3422 2.08086 26.3722 9.42981 24.5699 16.7462 24.3531 17.6325 23.4667 18.1708 22.5938 17.9508Z" fill="url(#fill55)" fill-rule="evenodd" transform="matrix(-1 0 0 1 1756 1171)"/><path d="M22.5934 17.9511C21.7205 17.7282 21.1874 16.8308 21.407 15.9419 22.7727 10.3979 19.8057 4.85144 14.7904 3.57635 9.77508 2.30127 4.58294 5.776 3.21441 11.3196 2.99485 12.206 2.11127 12.7472 1.23556 12.5242 0.362654 12.3013-0.170082 11.4039 0.0494784 10.515 1.85151 3.19842 8.81897-1.35587 15.5804 0.362517 22.3415 2.0809 26.3743 9.43 24.5694 16.7465 24.3499 17.6329 23.4663 18.1712 22.5934 17.9511Z" fill="url(#fill56)" fill-rule="evenodd" transform="matrix(-1 0 0 1 1708 1183)"/><path d="M163 81.5001C163 126.511 126.511 163 81.5001 163 36.4889 163 0 126.511 0 81.5001 0 36.4889 36.4889 0 81.5001 0 126.511 0 163 36.4889 163 81.5001Z" fill="url(#fill57)" fill-rule="evenodd" transform="matrix(-1 0 0 1 1528 1197)"/><path d="M0 13.8488C3.80001 32.8359 22.17 45.1274 41.0328 41.3024 59.8959 37.4775 72.1072 18.9868 68.3072 0L0 13.8488Z" fill="url(#fill58)" fill-rule="evenodd" transform="matrix(-1 0 0 1 1477 1291)"/><path d="M8.0245 30.9461C7.13752 31.1343 6.18439 30.8269 5.55174 30.0621 4.61696 28.9289 4.7362 27.2168 5.81914 26.2389L19.6422 13.7434 1.52462 5.18488C0.219312 4.56997-0.357738 2.96287 0.229875 1.59692 0.817766 0.228339 2.35601-0.372904 3.65854 0.239392L25.4747 10.546C26.2825 10.9256 26.8462 11.7125 26.9732 12.6296 27.1005 13.5438 26.7722 14.4665 26.1023 15.0703L9.20806 30.3394C8.85588 30.6552 8.44811 30.8574 8.0245 30.9461Z" fill="url(#fill59)" fill-rule="evenodd" transform="matrix(-1 0 0 1 1498 1251)"/><path d="M24.8707 29.9487C24.4379 30.0342 23.9775 30.0157 23.5282 29.871L1.82705 22.8663C0.969082 22.5876 0.311186 21.8956 0.0838356 21.0296-0.140673 20.1608 0.092077 19.2407 0.70905 18.5839L17.3781 0.834191C18.3742-0.219598 20.0501-0.286604 21.122 0.70018 22.1911 1.68696 22.2534 3.3469 21.2573 4.40885L7.41419 19.1498 25.1714 24.8802C26.5628 25.3281 27.3233 26.8109 26.8686 28.1893 26.5628 29.1226 25.7779 29.769 24.8707 29.9487Z" fill="url(#fill60)" fill-rule="evenodd" transform="matrix(-1 0 0 1 1432 1235)"/><path d="M193 97.5003C193 151.348 149.796 195 96.5002 195 43.2045 195 0 151.348 0 97.5003 0 43.6522 43.2045 0 96.5002 0 149.796 0 193 43.6522 193 97.5003Z" fill="url(#fill61)" fill-rule="evenodd" transform="matrix(-1 0 0 1 1961 787)"/><path d="M102 51.0002C102 79.1667 79.1664 102 51 102 22.8333 102 0 79.1667 0 51.0002 0 22.8334 22.8336 0 51 0 79.1664 0 102 22.8334 102 51.0002Z" fill="url(#fill62)" fill-rule="evenodd" transform="matrix(-1 0 0 1 1910 1046)"/><path d="M1870 1094.94 1864.06 1094.94 1864.06 1122 1853.01 1122 1853.01 1094.94 1849 1094.94 1849 1085.7 1853.01 1085.7 1853.01 1084.66C1853.01 1080.19 1854.28 1076.8 1856.82 1074.48 1859.36 1072.16 1863.09 1071 1868 1071 1868.81 1071 1869.42 1071.02 1869.8 1071.06L1869.8 1080.5C1867.69 1080.37 1866.21 1080.67 1865.34 1081.41 1864.48 1082.15 1864.05 1083.47 1864.05 1085.38L1864.05 1085.7 1870 1085.7 1870 1094.94Z" fill="#FFFFFF" fill-rule="evenodd"/><path d="M2121.82 681 2133 740 2092.18 712.861 1965 687.424Z" fill="url(#fill63)" fill-rule="evenodd"/><path d="M2093.93 709 2133 740 2086 724.759Z" fill="url(#fill64)" fill-rule="evenodd"/><path d="M1965 687 2094 708.587 2068.24 759Z" fill="url(#fill65)" fill-rule="evenodd"/><path d="M2165 649 1965 687 2122.52 681.929Z" fill="url(#fill66)" fill-rule="evenodd"/><path d="M76.9797 0 14.0204 0C6.27635 0 0 6.34532 0 14.1745L0 77.8256C0 85.6548 6.27635 92.0001 14.0204 92.0001L76.9797 92.0001C84.7237 92.0001 91.0001 85.6548 91.0001 77.8256L91.0001 14.1745C91.0001 6.34788 84.7237 0 76.9797 0Z" fill="url(#fill67)" fill-rule="evenodd" transform="matrix(-1 0 0 1 1742 790)"/><path d="M1691.28 866 1666 840.552 1674.17 831.996 1689.64 847.57 1717.45 807 1727 813.899Z" fill="#FFFFFF" fill-rule="evenodd"/><path d="M12.9393 93.2438 35.6841 93.2438 35.6841 137 66.2011 93.2438 286.06 93.2438C293.207 93.2438 299 87.4508 299 80.3042L299 12.9395C299 5.79293 293.207 0 286.06 0L12.9393 0C5.79281 0 0 5.79293 0 12.9395L0 80.3042C0 87.4508 5.79536 93.2438 12.9393 93.2438Z" fill="url(#fill68)" fill-rule="evenodd" transform="matrix(-1 0 0 1 1645 889)"/><path d="M0 0 239.001 0 239.001 12 0 12Z" fill="url(#fill69)" fill-rule="evenodd" transform="matrix(-1 0 0 1 1621 910)"/><path d="M0 0 165 0 165 11 0 11Z" fill="url(#fill70)" fill-rule="evenodd" transform="matrix(-1 0 0 1 1621 942)"/><path d="M120.969 0 22.0312 0C9.86465 0 0 9.93364 0 22.1853L0 121.815C0 134.069 9.86465 144 22.0312 144L120.969 144C133.138 144 143 134.066 143 121.815L143 22.1853C143.003 9.93078 133.138 0 120.969 0Z" fill="url(#fill71)" fill-rule="evenodd" transform="matrix(-1 0 0 1 1599 483)"/><path d="M70.9458 36.6664C70.5083 33.0089 67.2695 30.3634 63.6467 30.3634L47.0135 30.3634C43.5321 30.3634 40.7098 27.493 40.7098 23.9523L40.7098 10.2125C40.7098 4.57187 36.2146 0 30.6682 0 28.1979 0 26.1973 2.03498 26.1973 4.54737L26.1973 14.996C26.1973 18.6914 24.9728 22.2808 22.7213 25.184L15.8196 34.0833C13.7468 36.7558 10.5855 38.3134 7.24028 38.3134L0 38.3134 0 80.7126 14.5926 80.7126C16.8601 80.7126 19.0691 81.4288 20.9179 82.7639 25.6369 86.1715 31.2818 88.0003 37.071 88.0003L49.0197 88.0003 54.5579 88.0003 56.9775 88.0003C60.6003 88.0003 63.8389 85.3549 64.2766 81.6974 64.7007 78.1433 62.5799 75.023 59.5198 73.9702L47.5392 73.9702 47.5392 73.6854 58.33 73.6854C57.9754 73.6284 57.6153 73.5905 57.2444 73.5905L60.232 73.5905C63.8548 73.5905 67.0936 70.9451 67.5311 67.2876 67.9952 63.3968 65.4051 60.0299 61.8755 59.3243L47.5364 59.3243 47.5364 59.0394 61.9075 59.0394C65.1463 58.3746 67.5843 55.4663 67.5843 51.9768 67.5843 48.4877 65.1463 45.5794 61.9103 44.9145L47.3205 44.9145 47.3205 44.6297 65.2927 44.6297C68.8198 43.9241 71.4127 40.5571 70.9458 36.6664Z" fill="url(#fill72)" fill-rule="evenodd" transform="matrix(-1 0 0 1 1555 511)"/><path d="M15.466 0 3.53421 0C1.58429 0 0 1.664 0 3.71744L0 51.2851C0 53.3388 1.58186 55 3.53421 55L15.466 55C17.418 55 18.9999 53.336 18.9999 51.2851L18.9999 3.71488C18.9975 1.664 17.418 0 15.466 0Z" fill="url(#fill73)" fill-rule="evenodd" transform="matrix(-1 0 0 1 1571 543)"/><path d="M1808 858.667C1808 851.671 1813.67 846 1820.67 846L1826.67 846 1826.67 846 1854.67 846 1907.33 846C1914.33 846 1920 851.671 1920 858.667L1920 890.333 1920 890.333 1920 909.333 1920 909.333C1920 916.329 1914.33 922 1907.33 922L1854.67 922 1840.67 931.5 1826.67 922 1820.67 922C1813.67 922 1808 916.329 1808 909.333L1808 909.333 1808 890.333 1808 890.333Z" fill="url(#fill74)" fill-rule="evenodd"/><path d="M45.7212 21.5631C43.7609 7.65005 31.9979-1.8642 19.4491 0.309185 6.90007 2.48286-1.68144 15.524 0.278874 29.4371 2.23945 43.3498 14.0021 52.8644 26.5512 50.6907 39.0977 48.5173 47.6818 35.4758 45.7212 21.5631Z" fill="url(#fill75)" fill-rule="evenodd" transform="matrix(-1 0 0 1 2037 1088)"/><path d="M10.2634 0.120313 8.32058 0.424518C2.95368 1.26643-0.718632 6.32557 0.119157 11.7186L36.4976 245.641C37.3354 251.034 42.3672 254.724 47.7367 253.88L49.6795 253.576C55.0464 252.734 58.7187 247.678 57.8812 242.284L21.5025 8.36235C20.6622 2.96621 15.6303-0.724161 10.2634 0.120313Z" fill="url(#fill76)" fill-rule="evenodd" transform="matrix(-1 0 0 1 2056 989)"/></g></svg>