<svg width="1416" height="1057" xmlns="http://www.w3.org/2000/svg" xmlns:xlink="http://www.w3.org/1999/xlink" xml:space="preserve" overflow="hidden"><defs><clipPath id="clip0"><rect x="2200" y="531" width="1416" height="1057"/></clipPath><linearGradient x1="2900.17" y1="1598.18" x2="2915.83" y2="520.819" gradientUnits="userSpaceOnUse" spreadMethod="reflect" id="fill1"><stop offset="0" stop-color="#FF73F9"/><stop offset="0.5" stop-color="#96A5FC"/><stop offset="1" stop-color="#2ED8FF"/></linearGradient><linearGradient x1="2558" y1="1096.5" x2="3099" y2="1096.5" gradientUnits="userSpaceOnUse" spreadMethod="reflect" id="fill2"><stop offset="0" stop-color="#FF73F9"/><stop offset="0.5" stop-color="#96A5FC"/><stop offset="1" stop-color="#2ED8FF"/></linearGradient><linearGradient x1="3182.13" y1="923.961" x2="2512.87" y2="1273.04" gradientUnits="userSpaceOnUse" spreadMethod="reflect" id="fill3"><stop offset="0" stop-color="#8900A2"/><stop offset="0.5" stop-color="#4E0068"/><stop offset="1" stop-color="#14002E"/></linearGradient><linearGradient x1="2929.9" y1="781.363" x2="2766.1" y2="1415.64" gradientUnits="userSpaceOnUse" spreadMethod="reflect" id="fill4"><stop offset="0" stop-color="#E9FEFF"/><stop offset="0.5" stop-color="#F1F2FF"/><stop offset="1" stop-color="#FAE7FF"/></linearGradient><linearGradient x1="2915.91" y1="708.777" x2="2778.09" y2="916.223" gradientUnits="userSpaceOnUse" spreadMethod="reflect" id="fill5"><stop offset="0" stop-color="#8900A2"/><stop offset="0.5" stop-color="#4E0068"/><stop offset="1" stop-color="#14002E"/></linearGradient><linearGradient x1="2916.26" y1="1558.56" x2="2855.74" y2="1463.44" gradientUnits="userSpaceOnUse" spreadMethod="reflect" id="fill6"><stop offset="0" stop-color="#FF73F9"/><stop offset="0.5" stop-color="#96A5FC"/><stop offset="1" stop-color="#2ED8FF"/></linearGradient><linearGradient x1="2927.56" y1="1472.82" x2="2838.44" y2="1546.18" gradientUnits="userSpaceOnUse" spreadMethod="reflect" id="fill7"><stop offset="0" stop-color="#E9FEFF"/><stop offset="0.5" stop-color="#E4E7F4"/><stop offset="1" stop-color="#E0D1EA"/></linearGradient><linearGradient x1="2938.27" y1="1479.56" x2="2917.73" y2="1488.44" gradientUnits="userSpaceOnUse" spreadMethod="reflect" id="fill8"><stop offset="0" stop-color="#E9FEFF"/><stop offset="0.5" stop-color="#E4E7F4"/><stop offset="1" stop-color="#E0D1EA"/></linearGradient><linearGradient x1="2932.45" y1="1482.35" x2="2922.55" y2="1485.65" gradientUnits="userSpaceOnUse" spreadMethod="reflect" id="fill9"><stop offset="0" stop-color="#E9FEFF"/><stop offset="0.5" stop-color="#E4E7F4"/><stop offset="1" stop-color="#E0D1EA"/></linearGradient><linearGradient x1="2932.79" y1="1499.14" x2="2918.21" y2="1470.86" gradientUnits="userSpaceOnUse" spreadMethod="reflect" id="fill10"><stop offset="0" stop-color="#E9FEFF"/><stop offset="0.5" stop-color="#E4E7F4"/><stop offset="1" stop-color="#E0D1EA"/></linearGradient><linearGradient x1="2843.65" y1="1543.07" x2="2908.35" y2="1484.93" gradientUnits="userSpaceOnUse" spreadMethod="reflect" id="fill11"><stop offset="0" stop-color="#2EA9FF"/><stop offset="0.5" stop-color="#39C0FF"/><stop offset="1" stop-color="#45D7FF"/></linearGradient><linearGradient x1="2915.01" y1="1565.84" x2="2903.99" y2="1494.16" gradientUnits="userSpaceOnUse" spreadMethod="reflect" id="fill12"><stop offset="0" stop-color="#FF73F9"/><stop offset="0.5" stop-color="#96A5FC"/><stop offset="1" stop-color="#2ED8FF"/></linearGradient><linearGradient x1="2971.96" y1="1498.48" x2="2843.04" y2="1558.52" gradientUnits="userSpaceOnUse" spreadMethod="reflect" id="fill13"><stop offset="0" stop-color="#E9FEFF"/><stop offset="0.5" stop-color="#E4E7F4"/><stop offset="1" stop-color="#E0D1EA"/></linearGradient><linearGradient x1="2980.17" y1="1516.64" x2="2969.83" y2="1517.36" gradientUnits="userSpaceOnUse" spreadMethod="reflect" id="fill14"><stop offset="0" stop-color="#E9FEFF"/><stop offset="0.5" stop-color="#E4E7F4"/><stop offset="1" stop-color="#E0D1EA"/></linearGradient><linearGradient x1="2977.34" y1="1516.4" x2="2972.66" y2="1516.6" gradientUnits="userSpaceOnUse" spreadMethod="reflect" id="fill15"><stop offset="0" stop-color="#E9FEFF"/><stop offset="0.5" stop-color="#E4E7F4"/><stop offset="1" stop-color="#E0D1EA"/></linearGradient><linearGradient x1="2972.11" y1="1535.2" x2="2970.89" y2="1499.8" gradientUnits="userSpaceOnUse" spreadMethod="reflect" id="fill16"><stop offset="0" stop-color="#E9FEFF"/><stop offset="0.5" stop-color="#E4E7F4"/><stop offset="1" stop-color="#E0D1EA"/></linearGradient><linearGradient x1="2854.75" y1="1559.87" x2="2943.25" y2="1502.13" gradientUnits="userSpaceOnUse" spreadMethod="reflect" id="fill17"><stop offset="0" stop-color="#FFA017"/><stop offset="0.5" stop-color="#FFB022"/><stop offset="1" stop-color="#FFC12E"/></linearGradient><linearGradient x1="2756.24" y1="1562.45" x2="2827.76" y2="1438.55" gradientUnits="userSpaceOnUse" spreadMethod="reflect" id="fill18"><stop offset="0" stop-color="#FF73F9"/><stop offset="0.5" stop-color="#96A5FC"/><stop offset="1" stop-color="#2ED8FF"/></linearGradient><linearGradient x1="2736.31" y1="1451.45" x2="2853.69" y2="1546.55" gradientUnits="userSpaceOnUse" spreadMethod="reflect" id="fill19"><stop offset="0" stop-color="#E9FEFF"/><stop offset="0.5" stop-color="#E4E7F4"/><stop offset="1" stop-color="#E0D1EA"/></linearGradient><linearGradient x1="2722.92" y1="1462.69" x2="2748.08" y2="1472.31" gradientUnits="userSpaceOnUse" spreadMethod="reflect" id="fill20"><stop offset="0" stop-color="#E9FEFF"/><stop offset="0.5" stop-color="#E4E7F4"/><stop offset="1" stop-color="#E0D1EA"/></linearGradient><linearGradient x1="2729.24" y1="1465.5" x2="2741.76" y2="1469.5" gradientUnits="userSpaceOnUse" spreadMethod="reflect" id="fill21"><stop offset="0" stop-color="#E9FEFF"/><stop offset="0.5" stop-color="#E4E7F4"/><stop offset="1" stop-color="#E0D1EA"/></linearGradient><linearGradient x1="2729.28" y1="1487.16" x2="2747.72" y2="1450.84" gradientUnits="userSpaceOnUse" spreadMethod="reflect" id="fill22"><stop offset="0" stop-color="#E9FEFF"/><stop offset="0.5" stop-color="#E4E7F4"/><stop offset="1" stop-color="#E0D1EA"/></linearGradient><linearGradient x1="2845.85" y1="1541.81" x2="2762.15" y2="1466.19" gradientUnits="userSpaceOnUse" spreadMethod="reflect" id="fill23"><stop offset="0" stop-color="#E70000"/><stop offset="0.5" stop-color="#F35039"/><stop offset="1" stop-color="#FFA173"/></linearGradient><linearGradient x1="2751.09" y1="1576.23" x2="2766.91" y2="1472.77" gradientUnits="userSpaceOnUse" spreadMethod="reflect" id="fill24"><stop offset="0" stop-color="#FF73F9"/><stop offset="0.5" stop-color="#96A5FC"/><stop offset="1" stop-color="#2ED8FF"/></linearGradient><linearGradient x1="2668.91" y1="1477.64" x2="2854.09" y2="1565.36" gradientUnits="userSpaceOnUse" spreadMethod="reflect" id="fill25"><stop offset="0" stop-color="#E9FEFF"/><stop offset="0.5" stop-color="#E4E7F4"/><stop offset="1" stop-color="#E0D1EA"/></linearGradient><linearGradient x1="2656.24" y1="1503.93" x2="2671.76" y2="1505.07" gradientUnits="userSpaceOnUse" spreadMethod="reflect" id="fill26"><stop offset="0" stop-color="#E9FEFF"/><stop offset="0.5" stop-color="#E4E7F4"/><stop offset="1" stop-color="#E0D1EA"/></linearGradient><linearGradient x1="2660.48" y1="1504.35" x2="2667.52" y2="1504.65" gradientUnits="userSpaceOnUse" spreadMethod="reflect" id="fill27"><stop offset="0" stop-color="#E9FEFF"/><stop offset="0.5" stop-color="#E4E7F4"/><stop offset="1" stop-color="#E0D1EA"/></linearGradient><linearGradient x1="2668.12" y1="1531.31" x2="2669.88" y2="1479.69" gradientUnits="userSpaceOnUse" spreadMethod="reflect" id="fill28"><stop offset="0" stop-color="#E9FEFF"/><stop offset="0.5" stop-color="#E4E7F4"/><stop offset="1" stop-color="#E0D1EA"/></linearGradient><linearGradient x1="2837.39" y1="1566.61" x2="2709.61" y2="1482.39" gradientUnits="userSpaceOnUse" spreadMethod="reflect" id="fill29"><stop offset="0" stop-color="#FF5CEA"/><stop offset="0.5" stop-color="#FF7FDD"/><stop offset="1" stop-color="#FFA2D1"/></linearGradient><linearGradient x1="3188.73" y1="1130.74" x2="3298.27" y2="1211.26" gradientUnits="userSpaceOnUse" spreadMethod="reflect" id="fill30"><stop offset="0" stop-color="#E9FEFF"/><stop offset="0.5" stop-color="#E4E7F4"/><stop offset="1" stop-color="#E0D1EA"/></linearGradient><linearGradient x1="3222.64" y1="1533.57" x2="3226.36" y2="1553.43" gradientUnits="userSpaceOnUse" spreadMethod="reflect" id="fill31"><stop offset="0" stop-color="#F0877E"/><stop offset="0.5" stop-color="#F5A298"/><stop offset="1" stop-color="#FABEB2"/></linearGradient><linearGradient x1="3211.77" y1="1553.01" x2="3244.23" y2="1560.99" gradientUnits="userSpaceOnUse" spreadMethod="reflect" id="fill32"><stop offset="0" stop-color="#3A008B"/><stop offset="0.4472" stop-color="#3A008B"/><stop offset="1" stop-color="#001145"/></linearGradient><linearGradient x1="3148.65" y1="1519.33" x2="3153.35" y2="1543.67" gradientUnits="userSpaceOnUse" spreadMethod="reflect" id="fill33"><stop offset="0" stop-color="#F0877E"/><stop offset="0.5" stop-color="#F5A298"/><stop offset="1" stop-color="#FABEB2"/></linearGradient><linearGradient x1="3105.44" y1="1532.01" x2="3163.56" y2="1559.99" gradientUnits="userSpaceOnUse" spreadMethod="reflect" id="fill34"><stop offset="0" stop-color="#3A008B"/><stop offset="0.4472" stop-color="#3A008B"/><stop offset="1" stop-color="#001145"/></linearGradient><linearGradient x1="3162.02" y1="1223.95" x2="3134.98" y2="1227.05" gradientUnits="userSpaceOnUse" spreadMethod="reflect" id="fill35"><stop offset="0" stop-color="#F0877E"/><stop offset="0.5" stop-color="#F5A298"/><stop offset="1" stop-color="#FABEB2"/></linearGradient><linearGradient x1="3121.11" y1="1158.38" x2="3185.89" y2="1162.62" gradientUnits="userSpaceOnUse" spreadMethod="reflect" id="fill36"><stop offset="0" stop-color="#E9FEFF"/><stop offset="0.5" stop-color="#E4E7F4"/><stop offset="1" stop-color="#E0D1EA"/></linearGradient><linearGradient x1="3181.58" y1="1052.03" x2="3178.42" y2="1095.97" gradientUnits="userSpaceOnUse" spreadMethod="reflect" id="fill37"><stop offset="0" stop-color="#F0877E"/><stop offset="0.5" stop-color="#F5A298"/><stop offset="1" stop-color="#FABEB2"/></linearGradient><linearGradient x1="3151.95" y1="1154.92" x2="3152.05" y2="1156.08" gradientUnits="userSpaceOnUse" spreadMethod="reflect" id="fill38"><stop offset="0" stop-color="#E7C400"/><stop offset="0.5" stop-color="#E7A100"/><stop offset="1" stop-color="#E77F00"/></linearGradient><linearGradient x1="3214.6" y1="1165.93" x2="3214.4" y2="1167.07" gradientUnits="userSpaceOnUse" spreadMethod="reflect" id="fill39"><stop offset="0" stop-color="#E7C400"/><stop offset="0.5" stop-color="#E7A100"/><stop offset="1" stop-color="#E77F00"/></linearGradient><linearGradient x1="3179.2" y1="1546.12" x2="3186.8" y2="1225.88" gradientUnits="userSpaceOnUse" spreadMethod="reflect" id="fill40"><stop offset="0" stop-color="#3A008B"/><stop offset="0.4472" stop-color="#3A008B"/><stop offset="1" stop-color="#001145"/></linearGradient><linearGradient x1="3153.17" y1="1003.66" x2="3236.83" y2="1048.34" gradientUnits="userSpaceOnUse" spreadMethod="reflect" id="fill41"><stop offset="0" stop-color="#3A008B"/><stop offset="0.4472" stop-color="#3A008B"/><stop offset="1" stop-color="#001145"/></linearGradient><linearGradient x1="3200.09" y1="1010.49" x2="3173.91" y2="1082.51" gradientUnits="userSpaceOnUse" spreadMethod="reflect" id="fill42"><stop offset="0" stop-color="#F0877E"/><stop offset="0.5" stop-color="#F5A298"/><stop offset="1" stop-color="#FABEB2"/></linearGradient><linearGradient x1="3130.94" y1="996.438" x2="3214.06" y2="1057.56" gradientUnits="userSpaceOnUse" spreadMethod="reflect" id="fill43"><stop offset="0" stop-color="#3A008B"/><stop offset="0.4472" stop-color="#3A008B"/><stop offset="1" stop-color="#001145"/></linearGradient><linearGradient x1="3076.76" y1="1125.66" x2="3291.24" y2="1323.34" gradientUnits="userSpaceOnUse" spreadMethod="reflect" id="fill44"><stop offset="0" stop-color="#E9FEFF"/><stop offset="0.5" stop-color="#E4E7F4"/><stop offset="1" stop-color="#E0D1EA"/></linearGradient><linearGradient x1="3176.42" y1="1103.01" x2="3180.58" y2="1088.99" gradientUnits="userSpaceOnUse" spreadMethod="reflect" id="fill45"><stop offset="0" stop-color="#3A008B"/><stop offset="0.4472" stop-color="#3A008B"/><stop offset="1" stop-color="#001145"/></linearGradient><linearGradient x1="3164.17" y1="1132.17" x2="3185.83" y2="1104.83" gradientUnits="userSpaceOnUse" spreadMethod="reflect" id="fill46"><stop offset="0" stop-color="#3A008B"/><stop offset="0.4472" stop-color="#3A008B"/><stop offset="1" stop-color="#001145"/></linearGradient><linearGradient x1="3169.66" y1="1261.23" x2="3257.34" y2="1266.77" gradientUnits="userSpaceOnUse" spreadMethod="reflect" id="fill47"><stop offset="0" stop-color="#E9FEFF"/><stop offset="0.5" stop-color="#E4E7F4"/><stop offset="1" stop-color="#E0D1EA"/></linearGradient><linearGradient x1="3113.83" y1="1340.02" x2="3169.17" y2="1350.98" gradientUnits="userSpaceOnUse" spreadMethod="reflect" id="fill48"><stop offset="0" stop-color="#E9FEFF"/><stop offset="0.5" stop-color="#E4E7F4"/><stop offset="1" stop-color="#E0D1EA"/></linearGradient><linearGradient x1="3221.06" y1="1179.55" x2="3275.94" y2="1183.45" gradientUnits="userSpaceOnUse" spreadMethod="reflect" id="fill49"><stop offset="0" stop-color="#E9FEFF"/><stop offset="0.5" stop-color="#E4E7F4"/><stop offset="1" stop-color="#E0D1EA"/></linearGradient><linearGradient x1="3228.96" y1="1231.34" x2="3228.04" y2="1239.66" gradientUnits="userSpaceOnUse" spreadMethod="reflect" id="fill50"><stop offset="0" stop-color="#F0877E"/><stop offset="0.5" stop-color="#F5A298"/><stop offset="1" stop-color="#FABEB2"/></linearGradient><linearGradient x1="3227.02" y1="1226.36" x2="3225.98" y2="1237.64" gradientUnits="userSpaceOnUse" spreadMethod="reflect" id="fill51"><stop offset="0" stop-color="#F0877E"/><stop offset="0.5" stop-color="#F5A298"/><stop offset="1" stop-color="#FABEB2"/></linearGradient><linearGradient x1="3224.62" y1="1221.23" x2="3223.38" y2="1234.77" gradientUnits="userSpaceOnUse" spreadMethod="reflect" id="fill52"><stop offset="0" stop-color="#F0877E"/><stop offset="0.5" stop-color="#F5A298"/><stop offset="1" stop-color="#FABEB2"/></linearGradient><linearGradient x1="3230.6" y1="1215.73" x2="3217.4" y2="1230.27" gradientUnits="userSpaceOnUse" spreadMethod="reflect" id="fill53"><stop offset="0" stop-color="#F0877E"/><stop offset="0.5" stop-color="#F5A298"/><stop offset="1" stop-color="#FABEB2"/></linearGradient></defs><g clip-path="url(#clip0)" transform="translate(-2200 -531)"><path d="M3616 953.314C3616 838.562 3522.99 745.537 3408.27 745.537 3383.06 745.537 3358.91 750.031 3336.55 758.255 3243.48 621.109 3086.31 531 2908.1 531 2729.86 531 2572.67 621.134 2479.6 758.315 2457.21 750.054 2433 745.537 2407.73 745.537 2293.01 745.537 2200 838.562 2200 953.314 2200 1006.33 2219.86 1054.7 2252.54 1091.41 2219.39 1140.03 2200 1198.79 2200 1262.08 2200 1405.16 2299.06 1525.09 2432.33 1557.01 2377.19 1560.13 2345.25 1563.83 2345.25 1567.8 2345.25 1578.96 2597.2 1588 2908 1588 3218.79 1588 3470.74 1578.96 3470.74 1567.8 3470.74 1563.83 3438.81 1560.13 3383.67 1557.01 3516.93 1525.09 3616 1405.16 3616 1262.08 3616 1198.79 3596.61 1140.03 3563.46 1091.41 3596.14 1054.7 3616 1006.33 3616 953.314Z" fill="url(#fill1)" fill-rule="evenodd"/><path d="M3334.54 1415.3C3337.81 1403.32 3339.98 1391.05 3346.27 1380.42 3361.16 1355.25 3386.33 1338.87 3413.97 1330.78 3489.02 1308.81 3496.03 1252.6 3506.03 1280.7 3516.04 1308.81 3495.03 1339.16 3513.04 1361.12 3531.05 1383.08 3516.73 1424.23 3487.86 1433.27 3459 1442.3 3355.66 1511.04 3355.66 1566 3355.66 1566 3277.94 1566 3277.87 1566 3273.89 1566 3273.89 1535.94 3274.05 1533.7 3275.5 1513.76 3283.25 1496.22 3295.12 1480.33 3306.37 1465.29 3318.63 1450.73 3327.52 1434.09 3330.72 1428.1 3332.79 1421.74 3334.54 1415.3Z" fill="#62D8F4" fill-rule="evenodd"/><path d="M3391.11 1451C3390.44 1437.73 3392.88 1424.15 3398.31 1411.76 3401.01 1405.57 3404.45 1399.68 3408.46 1394.23L3409.21 1393.2C3409.45 1392.86 3409.71 1392.52 3409.98 1392.19L3411.58 1390.22C3412.62 1388.89 3413.77 1387.65 3414.9 1386.38 3416 1385.09 3417.23 1383.93 3418.41 1382.72 3419.58 1381.5 3420.83 1380.35 3422.08 1379.21 3432.18 1370.15 3443.68 1363.4 3453.63 1355L3455.53 1353.4 3457.45 1351.8 3461.31 1348.66C3463.87 1346.58 3466.41 1344.5 3468.84 1342.3 3471.29 1340.12 3473.6 1337.8 3475.69 1335.29 3476.23 1334.67 3476.7 1334 3477.21 1333.36 3477.71 1332.71 3478.14 1332.01 3478.61 1331.33 3479.06 1330.65 3479.45 1329.93 3479.88 1329.22 3480.27 1328.49 3480.62 1327.74 3481 1327 3480.74 1327.79 3480.5 1328.59 3480.21 1329.37 3479.88 1330.13 3479.58 1330.92 3479.22 1331.68 3478.83 1332.42 3478.47 1333.18 3478.04 1333.9 3477.6 1334.61 3477.2 1335.36 3476.73 1336.05 3474.88 1338.87 3472.71 1341.45 3470.44 1343.92 3468.16 1346.38 3465.74 1348.7 3463.31 1350.97L3459.67 1354.34 3456.05 1357.73C3451.13 1362.34 3445.79 1366.4 3440.52 1370.4 3437.89 1372.4 3435.25 1374.37 3432.68 1376.41 3430.1 1378.42 3427.58 1380.49 3425.18 1382.66 3420.39 1387.01 3415.92 1391.76 3411.96 1396.88 3407.99 1401.99 3404.51 1407.49 3401.6 1413.3 3398.69 1419.11 3396.37 1425.23 3394.63 1431.55 3392.86 1437.87 3391.78 1444.39 3391.11 1451Z" fill="#FFFFFF" fill-rule="evenodd"/><path d="M2481.46 1415.3C2478.19 1403.32 2476.02 1391.05 2469.73 1380.42 2454.84 1355.25 2429.67 1338.87 2402.03 1330.78 2326.98 1308.81 2319.97 1252.6 2309.97 1280.7 2299.96 1308.81 2320.98 1339.16 2302.96 1361.12 2284.95 1383.08 2299.27 1424.23 2328.14 1433.27 2357 1442.3 2460.34 1511.04 2460.34 1566 2460.34 1566 2538.06 1566 2538.13 1566 2542.11 1566 2542.11 1535.94 2541.95 1533.7 2540.5 1513.76 2532.75 1496.22 2520.88 1480.33 2509.63 1465.29 2497.37 1450.73 2488.48 1434.09 2485.28 1428.1 2483.21 1421.74 2481.46 1415.3Z" fill="#62D8F4" fill-rule="evenodd"/><path d="M2424.89 1451C2425.56 1437.73 2423.12 1424.15 2417.69 1411.76 2414.99 1405.57 2411.55 1399.68 2407.54 1394.23L2406.79 1393.2C2406.55 1392.86 2406.29 1392.52 2406.02 1392.19L2404.42 1390.22C2403.38 1388.89 2402.23 1387.65 2401.1 1386.38 2400 1385.09 2398.77 1383.93 2397.59 1382.72 2396.42 1381.5 2395.17 1380.35 2393.92 1379.21 2383.82 1370.15 2372.32 1363.4 2362.37 1355L2360.47 1353.4 2358.54 1351.8 2354.69 1348.66C2352.12 1346.58 2349.59 1344.5 2347.16 1342.3 2344.71 1340.12 2342.4 1337.8 2340.31 1335.29 2339.77 1334.67 2339.3 1334 2338.79 1333.36 2338.29 1332.71 2337.86 1332.01 2337.39 1331.33 2336.94 1330.65 2336.55 1329.93 2336.12 1329.22 2335.73 1328.49 2335.38 1327.74 2335 1327 2335.26 1327.79 2335.5 1328.59 2335.79 1329.37 2336.12 1330.13 2336.42 1330.92 2336.78 1331.68 2337.17 1332.42 2337.53 1333.18 2337.96 1333.9 2338.4 1334.61 2338.8 1335.36 2339.28 1336.05 2341.12 1338.87 2343.29 1341.45 2345.56 1343.92 2347.84 1346.38 2350.26 1348.7 2352.69 1350.97L2356.33 1354.34 2359.95 1357.73C2364.87 1362.34 2370.21 1366.4 2375.48 1370.4 2378.12 1372.4 2380.75 1374.37 2383.32 1376.41 2385.9 1378.42 2388.42 1380.49 2390.82 1382.66 2395.62 1387.01 2400.08 1391.76 2404.04 1396.88 2408.01 1401.99 2411.49 1407.49 2414.4 1413.3 2417.31 1419.11 2419.64 1425.23 2421.37 1431.55 2423.14 1437.87 2424.22 1444.39 2424.89 1451Z" fill="#FFFFFF" fill-rule="evenodd"/><path d="M3611.45 1464.62C3600.64 1498.51 3571.17 1517.37 3537.63 1524.8 3442.24 1545.92 3397.58 1559.25 3382.74 1564.02 3378.67 1565.33 3374.41 1566 3370.13 1566L3293 1566 3321.07 1479.57C3321.07 1479.57 3358.5 1394.14 3446.73 1410.78 3534.95 1427.43 3568.37 1362.73 3589.76 1344.3 3594.29 1340.39 3611.54 1323.82 3614.24 1337.02 3614.82 1339.84 3614.14 1342.75 3613.56 1345.57 3605.46 1385.26 3624.11 1424.97 3611.45 1464.62Z" fill="#D45FFF" fill-rule="evenodd"/><path d="M3579 1411C3578.62 1412.42 3578.26 1413.85 3577.84 1415.26L3577.16 1417.37C3576.92 1418.07 3576.72 1418.78 3576.44 1419.47L3575.63 1421.54 3575.23 1422.58 3574.77 1423.59C3574.15 1424.94 3573.56 1426.31 3572.84 1427.61 3570.11 1432.91 3566.64 1437.85 3562.62 1442.32 3558.58 1446.78 3553.93 1450.68 3548.97 1454.08 3544 1457.49 3538.7 1460.38 3533.24 1462.87 3531.87 1463.46 3530.51 1464.08 3529.12 1464.66L3524.95 1466.31C3522.14 1467.33 3519.32 1468.33 3516.46 1469.2 3515.75 1469.42 3515.04 1469.66 3514.32 1469.87L3512.18 1470.48C3510.74 1470.89 3509.31 1471.31 3507.86 1471.66L3503.54 1472.75 3499.19 1473.73C3487.57 1476.26 3475.82 1477.93 3464.06 1479.13 3461.11 1479.39 3458.17 1479.7 3455.23 1479.9L3450.81 1480.25C3449.34 1480.35 3447.87 1480.44 3446.4 1480.53 3444.93 1480.62 3443.43 1480.7 3442 1480.8L3437.7 1481.13 3435.54 1481.29C3434.83 1481.34 3434.12 1481.45 3433.4 1481.53L3429.13 1482.03 3428.06 1482.16 3427 1482.33 3422.76 1483.03 3421.7 1483.2C3421.34 1483.26 3420.99 1483.35 3420.64 1483.42L3416.45 1484.32 3415.39 1484.54 3414.36 1484.81 3412.29 1485.36C3409.5 1486.03 3406.81 1486.99 3404.08 1487.84L3400.08 1489.35 3399.08 1489.72 3398.1 1490.15 3396.14 1491.01C3395.49 1491.31 3394.84 1491.58 3394.19 1491.88L3392.28 1492.84 3390.37 1493.81 3389.89 1494.04 3389.43 1494.31 3388.5 1494.84C3386.01 1496.22 3383.62 1497.78 3381.27 1499.4 3376.61 1502.68 3372.29 1506.48 3368.43 1510.73 3367.96 1511.27 3367.45 1511.78 3367 1512.33L3365.63 1513.99 3364.94 1514.83 3364.29 1515.69 3363 1517.42C3361.36 1519.79 3359.79 1522.23 3358.39 1524.77 3357 1527.31 3355.74 1529.93 3354.66 1532.64 3353.57 1535.35 3352.64 1538.13 3352 1541 3352.55 1535.13 3354.34 1529.39 3356.66 1523.92 3357.82 1521.17 3359.25 1518.55 3360.75 1515.95L3361.94 1514.05 3362.54 1513.1 3363.17 1512.18 3364.46 1510.33C3364.9 1509.72 3365.37 1509.14 3365.83 1508.54 3369.52 1503.8 3373.81 1499.5 3378.53 1495.75 3383.25 1491.98 3388.41 1488.77 3393.81 1486.07L3395.84 1485.07 3396.86 1484.58 3397.89 1484.14 3402.06 1482.36C3404.89 1481.35 3407.71 1480.26 3410.61 1479.46L3412.77 1478.81 3413.86 1478.49 3414.95 1478.22 3419.34 1477.16C3419.7 1477.08 3420.07 1476.98 3420.43 1476.91L3421.54 1476.7 3423.75 1476.28 3425.96 1475.86 3427.07 1475.65 3428.18 1475.5 3432.63 1474.88C3433.38 1474.78 3434.12 1474.66 3434.86 1474.59L3437.1 1474.39 3441.56 1474C3443.05 1473.87 3444.48 1473.77 3445.94 1473.66L3450.31 1473.35 3454.66 1472.99C3457.57 1472.77 3460.47 1472.45 3463.36 1472.18 3466.26 1471.89 3469.15 1471.57 3472.04 1471.24 3474.92 1470.87 3477.82 1470.54 3480.69 1470.1 3486.45 1469.34 3492.16 1468.34 3497.85 1467.25L3502.1 1466.39 3506.34 1465.43C3507.75 1465.13 3509.14 1464.74 3510.54 1464.4L3512.64 1463.87C3513.34 1463.69 3514.03 1463.48 3514.73 1463.29 3520.28 1461.75 3525.77 1459.98 3531.09 1457.82 3541.72 1453.54 3551.83 1447.81 3560.18 1439.92 3564.36 1435.99 3568.03 1431.51 3571.18 1426.64 3572.78 1424.22 3574.17 1421.66 3575.48 1419.05 3575.83 1418.41 3576.11 1417.73 3576.42 1417.07L3577.34 1415.08C3577.64 1414.4 3577.89 1413.72 3578.17 1413.04L3579 1411Z" fill="#D45FFF" fill-rule="evenodd"/><path d="M3579 1411C3578.62 1412.42 3578.26 1413.85 3577.84 1415.26L3577.16 1417.37C3576.92 1418.07 3576.72 1418.78 3576.44 1419.47L3575.63 1421.54 3575.23 1422.58 3574.77 1423.59C3574.15 1424.94 3573.56 1426.31 3572.84 1427.61 3570.11 1432.91 3566.64 1437.85 3562.62 1442.32 3558.58 1446.78 3553.93 1450.68 3548.97 1454.08 3544 1457.49 3538.7 1460.38 3533.24 1462.87 3531.87 1463.46 3530.51 1464.08 3529.12 1464.66L3524.95 1466.31C3522.14 1467.33 3519.32 1468.33 3516.46 1469.2 3515.75 1469.42 3515.04 1469.66 3514.32 1469.87L3512.18 1470.48C3510.74 1470.89 3509.31 1471.31 3507.86 1471.66L3503.54 1472.75 3499.19 1473.73C3487.57 1476.26 3475.82 1477.93 3464.06 1479.13 3461.11 1479.39 3458.17 1479.7 3455.23 1479.9L3450.81 1480.25C3449.34 1480.35 3447.87 1480.44 3446.4 1480.53 3444.93 1480.62 3443.43 1480.7 3442 1480.8L3437.7 1481.13 3435.54 1481.29C3434.83 1481.34 3434.12 1481.45 3433.4 1481.53L3429.13 1482.03 3428.06 1482.16 3427 1482.33 3422.76 1483.03 3421.7 1483.2C3421.34 1483.26 3420.99 1483.35 3420.64 1483.42L3416.45 1484.32 3415.39 1484.54 3414.36 1484.81 3412.29 1485.36C3409.5 1486.03 3406.81 1486.99 3404.08 1487.84L3400.08 1489.35 3399.08 1489.72 3398.1 1490.15 3396.14 1491.01C3395.49 1491.31 3394.84 1491.58 3394.19 1491.88L3392.28 1492.84 3390.37 1493.81 3389.89 1494.04 3389.43 1494.31 3388.5 1494.84C3386.01 1496.22 3383.62 1497.78 3381.27 1499.4 3376.61 1502.68 3372.29 1506.48 3368.43 1510.73 3367.96 1511.27 3367.45 1511.78 3367 1512.33L3365.63 1513.99 3364.94 1514.83 3364.29 1515.69 3363 1517.42C3361.36 1519.79 3359.79 1522.23 3358.39 1524.77 3357 1527.31 3355.74 1529.93 3354.66 1532.64 3353.57 1535.35 3352.64 1538.13 3352 1541 3352.55 1535.13 3354.34 1529.39 3356.66 1523.92 3357.82 1521.17 3359.25 1518.55 3360.75 1515.95L3361.94 1514.05 3362.54 1513.1 3363.17 1512.18 3364.46 1510.33C3364.9 1509.72 3365.37 1509.14 3365.83 1508.54 3369.52 1503.8 3373.81 1499.5 3378.53 1495.75 3383.25 1491.98 3388.41 1488.77 3393.81 1486.07L3395.84 1485.07 3396.86 1484.58 3397.89 1484.14 3402.06 1482.36C3404.89 1481.35 3407.71 1480.26 3410.61 1479.46L3412.77 1478.81 3413.86 1478.49 3414.95 1478.22 3419.34 1477.16C3419.7 1477.08 3420.07 1476.98 3420.43 1476.91L3421.54 1476.7 3423.75 1476.28 3425.96 1475.86 3427.07 1475.65 3428.18 1475.5 3432.63 1474.88C3433.38 1474.78 3434.12 1474.66 3434.86 1474.59L3437.1 1474.39 3441.56 1474C3443.05 1473.87 3444.48 1473.77 3445.94 1473.66L3450.31 1473.35 3454.66 1472.99C3457.57 1472.77 3460.47 1472.45 3463.36 1472.18 3466.26 1471.89 3469.15 1471.57 3472.04 1471.24 3474.92 1470.87 3477.82 1470.54 3480.69 1470.1 3486.45 1469.34 3492.16 1468.34 3497.85 1467.25L3502.1 1466.39 3506.34 1465.43C3507.75 1465.13 3509.14 1464.74 3510.54 1464.4L3512.64 1463.87C3513.34 1463.69 3514.03 1463.48 3514.73 1463.29 3520.28 1461.75 3525.77 1459.98 3531.09 1457.82 3541.72 1453.54 3551.83 1447.81 3560.18 1439.92 3564.36 1435.99 3568.03 1431.51 3571.18 1426.64 3572.78 1424.22 3574.17 1421.66 3575.48 1419.05 3575.83 1418.41 3576.11 1417.73 3576.42 1417.07L3577.34 1415.08C3577.64 1414.4 3577.89 1413.72 3578.17 1413.04L3579 1411Z" fill="#FFFFFF" fill-rule="evenodd" fill-opacity="0.8"/><path d="M2204.56 1464.62C2215.41 1498.51 2244.96 1517.37 2278.61 1524.8 2374.3 1545.92 2419.1 1559.25 2433.98 1564.02 2438.07 1565.33 2442.33 1566 2446.63 1566L2524 1566 2495.84 1479.57C2495.84 1479.57 2458.29 1394.14 2369.79 1410.78 2281.3 1427.43 2247.78 1362.73 2226.32 1344.3 2221.78 1340.39 2204.47 1323.82 2201.77 1337.02 2201.18 1339.84 2201.87 1342.75 2202.45 1345.57 2210.57 1385.26 2191.87 1424.97 2204.56 1464.62Z" fill="#D45FFF" fill-rule="evenodd"/><path d="M2237 1411C2237.38 1412.42 2237.74 1413.85 2238.16 1415.26L2238.84 1417.37C2239.08 1418.07 2239.28 1418.78 2239.56 1419.47L2240.37 1421.54 2240.77 1422.58 2241.24 1423.59C2241.85 1424.94 2242.44 1426.31 2243.16 1427.61 2245.89 1432.91 2249.36 1437.85 2253.38 1442.32 2257.42 1446.78 2262.07 1450.68 2267.03 1454.08 2272 1457.49 2277.3 1460.38 2282.76 1462.87 2284.13 1463.46 2285.5 1464.08 2286.88 1464.66L2291.05 1466.31C2293.86 1467.33 2296.68 1468.33 2299.53 1469.2 2300.25 1469.42 2300.96 1469.66 2301.67 1469.87L2303.82 1470.48C2305.26 1470.89 2306.69 1471.31 2308.13 1471.66L2312.46 1472.75 2316.81 1473.73C2328.43 1476.26 2340.18 1477.93 2351.94 1479.13 2354.89 1479.39 2357.83 1479.7 2360.77 1479.9L2365.19 1480.25C2366.66 1480.35 2368.13 1480.44 2369.6 1480.53 2371.07 1480.62 2372.57 1480.7 2374 1480.8L2378.31 1481.13 2380.46 1481.29C2381.17 1481.34 2381.88 1481.45 2382.6 1481.53L2386.88 1482.03 2387.94 1482.16 2389 1482.33 2393.24 1483.03 2394.3 1483.2C2394.66 1483.26 2395.01 1483.35 2395.36 1483.42L2399.55 1484.32 2400.61 1484.54 2401.64 1484.81 2403.71 1485.36C2406.5 1486.03 2409.19 1486.99 2411.92 1487.84L2415.92 1489.35 2416.92 1489.72 2417.9 1490.15 2419.86 1491.01C2420.51 1491.31 2421.17 1491.58 2421.81 1491.88L2423.72 1492.84 2425.63 1493.81 2426.11 1494.04 2426.57 1494.31 2427.5 1494.84C2429.99 1496.22 2432.38 1497.78 2434.73 1499.4 2439.39 1502.68 2443.71 1506.48 2447.57 1510.73 2448.04 1511.27 2448.55 1511.78 2449 1512.33L2450.37 1513.99 2451.06 1514.83 2451.71 1515.69 2453 1517.42C2454.64 1519.79 2456.21 1522.23 2457.61 1524.77 2459 1527.31 2460.26 1529.93 2461.34 1532.64 2462.43 1535.35 2463.36 1538.13 2464 1541 2463.45 1535.13 2461.67 1529.39 2459.34 1523.92 2458.18 1521.17 2456.75 1518.55 2455.25 1515.95L2454.06 1514.05 2453.46 1513.1 2452.83 1512.18 2451.54 1510.33C2451.11 1509.72 2450.63 1509.14 2450.17 1508.54 2446.48 1503.8 2442.19 1499.5 2437.47 1495.75 2432.75 1491.98 2427.59 1488.77 2422.19 1486.07L2420.16 1485.07 2419.14 1484.58 2418.11 1484.14 2413.94 1482.36C2411.11 1481.35 2408.29 1480.26 2405.39 1479.46L2403.23 1478.81 2402.14 1478.49 2401.05 1478.22 2396.66 1477.16C2396.3 1477.08 2395.93 1476.98 2395.57 1476.91L2394.46 1476.7 2392.25 1476.28 2390.04 1475.86 2388.93 1475.65 2387.82 1475.5 2383.37 1474.88C2382.62 1474.78 2381.89 1474.66 2381.14 1474.59L2378.91 1474.39 2374.44 1474C2372.95 1473.87 2371.52 1473.77 2370.06 1473.66L2365.69 1473.35 2361.34 1472.99C2358.43 1472.77 2355.53 1472.45 2352.64 1472.18 2349.74 1471.89 2346.85 1471.57 2343.96 1471.24 2341.08 1470.87 2338.18 1470.54 2335.31 1470.1 2329.55 1469.34 2323.84 1468.34 2318.15 1467.25L2313.9 1466.39 2309.66 1465.43C2308.25 1465.13 2306.86 1464.74 2305.46 1464.4L2303.36 1463.87C2302.66 1463.69 2301.97 1463.48 2301.27 1463.29 2295.72 1461.75 2290.23 1459.98 2284.91 1457.82 2274.28 1453.54 2264.17 1447.81 2255.82 1439.92 2251.64 1435.99 2247.97 1431.51 2244.83 1426.64 2243.23 1424.22 2241.84 1421.66 2240.52 1419.05 2240.17 1418.41 2239.89 1417.73 2239.58 1417.07L2238.66 1415.08C2238.36 1414.4 2238.11 1413.72 2237.83 1413.04L2237 1411Z" fill="#D45FFF" fill-rule="evenodd"/><path d="M2237 1411C2237.38 1412.42 2237.74 1413.85 2238.16 1415.26L2238.84 1417.37C2239.08 1418.07 2239.28 1418.78 2239.56 1419.47L2240.37 1421.54 2240.77 1422.58 2241.24 1423.59C2241.85 1424.94 2242.44 1426.31 2243.16 1427.61 2245.89 1432.91 2249.36 1437.85 2253.38 1442.32 2257.42 1446.78 2262.07 1450.68 2267.03 1454.08 2272 1457.49 2277.3 1460.38 2282.76 1462.87 2284.13 1463.46 2285.5 1464.08 2286.88 1464.66L2291.05 1466.31C2293.86 1467.33 2296.68 1468.33 2299.53 1469.2 2300.25 1469.42 2300.96 1469.66 2301.67 1469.87L2303.82 1470.48C2305.26 1470.89 2306.69 1471.31 2308.13 1471.66L2312.46 1472.75 2316.81 1473.73C2328.43 1476.26 2340.18 1477.93 2351.94 1479.13 2354.89 1479.39 2357.83 1479.7 2360.77 1479.9L2365.19 1480.25C2366.66 1480.35 2368.13 1480.44 2369.6 1480.53 2371.07 1480.62 2372.57 1480.7 2374 1480.8L2378.31 1481.13 2380.46 1481.29C2381.17 1481.34 2381.88 1481.45 2382.6 1481.53L2386.88 1482.03 2387.94 1482.16 2389 1482.33 2393.24 1483.03 2394.3 1483.2C2394.66 1483.26 2395.01 1483.35 2395.36 1483.42L2399.55 1484.32 2400.61 1484.54 2401.64 1484.81 2403.71 1485.36C2406.5 1486.03 2409.19 1486.99 2411.92 1487.84L2415.92 1489.35 2416.92 1489.72 2417.9 1490.15 2419.86 1491.01C2420.51 1491.31 2421.17 1491.58 2421.81 1491.88L2423.72 1492.84 2425.63 1493.81 2426.11 1494.04 2426.57 1494.31 2427.5 1494.84C2429.99 1496.22 2432.38 1497.78 2434.73 1499.4 2439.39 1502.68 2443.71 1506.48 2447.57 1510.73 2448.04 1511.27 2448.55 1511.78 2449 1512.33L2450.37 1513.99 2451.06 1514.83 2451.71 1515.69 2453 1517.42C2454.64 1519.79 2456.21 1522.23 2457.61 1524.77 2459 1527.31 2460.26 1529.93 2461.34 1532.64 2462.43 1535.35 2463.36 1538.13 2464 1541 2463.45 1535.13 2461.67 1529.39 2459.34 1523.92 2458.18 1521.17 2456.75 1518.55 2455.25 1515.95L2454.06 1514.05 2453.46 1513.1 2452.83 1512.18 2451.54 1510.33C2451.11 1509.72 2450.63 1509.14 2450.17 1508.54 2446.48 1503.8 2442.19 1499.5 2437.47 1495.75 2432.75 1491.98 2427.59 1488.77 2422.19 1486.07L2420.16 1485.07 2419.14 1484.58 2418.11 1484.14 2413.94 1482.36C2411.11 1481.35 2408.29 1480.26 2405.39 1479.46L2403.23 1478.81 2402.14 1478.49 2401.05 1478.22 2396.66 1477.16C2396.3 1477.08 2395.93 1476.98 2395.57 1476.91L2394.46 1476.7 2392.25 1476.28 2390.04 1475.86 2388.93 1475.65 2387.82 1475.5 2383.37 1474.88C2382.62 1474.78 2381.89 1474.66 2381.14 1474.59L2378.91 1474.39 2374.44 1474C2372.95 1473.87 2371.52 1473.77 2370.06 1473.66L2365.69 1473.35 2361.34 1472.99C2358.43 1472.77 2355.53 1472.45 2352.64 1472.18 2349.74 1471.89 2346.85 1471.57 2343.96 1471.24 2341.08 1470.87 2338.18 1470.54 2335.31 1470.1 2329.55 1469.34 2323.84 1468.34 2318.15 1467.25L2313.9 1466.39 2309.66 1465.43C2308.25 1465.13 2306.86 1464.74 2305.46 1464.4L2303.36 1463.87C2302.66 1463.69 2301.97 1463.48 2301.27 1463.29 2295.72 1461.75 2290.23 1459.98 2284.91 1457.82 2274.28 1453.54 2264.17 1447.81 2255.82 1439.92 2251.64 1435.99 2247.97 1431.51 2244.83 1426.64 2243.23 1424.22 2241.84 1421.66 2240.52 1419.05 2240.17 1418.41 2239.89 1417.73 2239.58 1417.07L2238.66 1415.08C2238.36 1414.4 2238.11 1413.72 2237.83 1413.04L2237 1411Z" fill="#FFFFFF" fill-rule="evenodd" fill-opacity="0.8"/><path d="M3436.84 1280 3156.16 1280C3133.43 1280 3115 1261.64 3115 1239L3115 1239C3115 1216.36 3133.43 1198 3156.16 1198L3436.84 1198C3459.57 1198 3478 1216.36 3478 1239L3478 1239C3478 1261.64 3459.57 1280 3436.84 1280Z" fill="#E7D2FC" fill-rule="evenodd"/><path d="M3415.4 1249 3177.6 1249C3171.75 1249 3167 1244.3 3167 1238.5L3167 1238.5C3167 1232.7 3171.75 1228 3177.6 1228L3415.4 1228C3421.25 1228 3426 1232.7 3426 1238.5L3426 1238.5C3426 1244.3 3421.25 1249 3415.4 1249Z" fill="#FFFFFF" fill-rule="evenodd" fill-opacity="0.8"/><path d="M2645.65 1096 2377.35 1096C2355.62 1096 2338 1078.54 2338 1057L2338 1057C2338 1035.46 2355.62 1018 2377.35 1018L2645.65 1018C2667.38 1018 2685 1035.46 2685 1057L2685 1057C2685 1078.54 2667.38 1096 2645.65 1096Z" fill="#E7D2FC" fill-rule="evenodd"/><path d="M2624.89 1067 2398.11 1067C2392.53 1067 2388 1062.52 2388 1057L2388 1057C2388 1051.48 2392.53 1047 2398.11 1047L2624.89 1047C2630.47 1047 2635 1051.48 2635 1057L2635 1057C2635 1062.52 2630.47 1067 2624.89 1067Z" fill="#FFFFFF" fill-rule="evenodd" fill-opacity="0.8"/><path d="M3124.29 746 2996.71 746C2986.38 746 2978 737.717 2978 727.501L2978 727.501C2978 717.283 2986.38 709 2996.71 709L3124.29 709C3134.62 709 3143 717.283 3143 727.501L3143 727.501C3143 737.718 3134.62 746 3124.29 746Z" fill="#E7D2FC" fill-rule="evenodd"/><path d="M3114.17 732 3005.83 732C3003.16 732 3001 729.986 3001 727.5L3001 727.5C3001 725.016 3003.16 723 3005.83 723L3114.17 723C3116.84 723 3119 725.014 3119 727.5L3119 727.5C3119 729.986 3116.84 732 3114.17 732Z" fill="#FFFFFF" fill-rule="evenodd" fill-opacity="0.8"/><path d="M3064.09 820.273 2971.62 820.273 2971.62 789.761C2971.62 782.712 2965.91 777 2958.86 777L2698.14 777C2691.09 777 2685.38 782.712 2685.38 789.761L2685.38 820.273 2592.91 820.273C2573.63 820.273 2558 835.893 2558 855.166L2558 1381.11C2558 1400.38 2573.63 1416 2592.91 1416L3064.09 1416C3083.37 1416 3099 1400.38 3099 1381.11L3099 855.167C3099 835.895 3083.37 820.273 3064.09 820.273Z" fill="url(#fill2)" fill-rule="evenodd"/><path d="M3081.67 801 2611.73 802.268C2592.49 802.32 2576.95 817.931 2577 837.138L2578.42 1361.32C2578.47 1380.53 2594.1 1396.05 2613.33 1396L3083.27 1394.73C3102.51 1394.68 3118.05 1379.07 3118 1359.86L3116.58 835.681C3116.53 816.474 3100.9 800.949 3081.67 801ZM3094.92 1354.45C3094.95 1364.05 3087.17 1371.87 3077.56 1371.89L2618.93 1373.13C2609.31 1373.16 2601.5 1365.39 2601.47 1355.78L2600.08 842.553C2600.06 832.953 2607.83 825.141 2617.44 825.115L3076.07 823.878C3085.69 823.851 3093.5 831.621 3093.53 841.223L3094.92 1354.45Z" fill="url(#fill3)" fill-rule="evenodd"/><path d="M3093.61 841.338C3093.59 831.74 3085.79 823.974 3076.19 824L2618.33 825.237C2608.73 825.263 2600.97 833.071 2601 842.67L2601.41 993.865 2601.98 1204.47 2602.39 1355.66C2602.41 1365.26 2610.21 1373.03 2619.81 1373L3077.67 1371.76C3087.27 1371.74 3095.03 1363.93 3095 1354.33L3094.59 1203.13 3094.02 992.533 3093.61 841.338Z" fill="url(#fill4)" fill-rule="evenodd"/><path d="M2976.99 758 2716.71 758.699C2709.67 758.718 2703.98 764.404 2704 771.401L2704.23 854.365C2704.25 861.357 2709.97 867.018 2717.01 867L2977.29 866.301C2984.33 866.282 2990.02 860.591 2990 853.599L2989.77 770.634C2989.75 763.637 2984.03 757.982 2976.99 758Z" fill="url(#fill5)" fill-rule="evenodd"/><path d="M2740 1128 3034 1128 3034 1144 2740 1144Z" fill="#FFB0F8" fill-rule="evenodd"/><path d="M2662 1157 3034 1157 3034 1172 2662 1172Z" fill="#FFB0F8" fill-rule="evenodd"/><path d="M2662 1185 3034 1185 3034 1201 2662 1201Z" fill="#FFB0F8" fill-rule="evenodd"/><path d="M2662 1214 3034 1214 3034 1229 2662 1229Z" fill="#FFB0F8" fill-rule="evenodd"/><path d="M2662 1242 3034 1242 3034 1258 2662 1258Z" fill="#FFB0F8" fill-rule="evenodd"/><path d="M2662 1271 3034 1271 3034 1286 2662 1286Z" fill="#FFB0F8" fill-rule="evenodd"/><path d="M2662 1299 2965 1299 2965 1315 2662 1315Z" fill="#FFB0F8" fill-rule="evenodd"/><path d="M2895.64 924 2870.36 924C2866.3 924 2863 920.641 2863 916.499L2863 916.499C2863 912.357 2866.3 909 2870.36 909L2895.64 909C2899.7 909 2903 912.357 2903 916.499L2903 916.499C2903 920.641 2899.7 924 2895.64 924Z" fill="#FFB0F8" fill-rule="evenodd"/><path d="M2960.64 924 2935.36 924C2931.3 924 2928 920.641 2928 916.499L2928 916.499C2928 912.357 2931.3 909 2935.36 909L2960.64 909C2964.7 909 2968 912.357 2968 916.499L2968 916.499C2968 920.641 2964.7 924 2960.64 924Z" fill="#45D7FF" fill-rule="evenodd"/><path d="M3026.45 924 3000.55 924C2996.38 924 2993 920.641 2993 916.499L2993 916.499C2993 912.357 2996.38 909 3000.55 909L3026.45 909C3030.62 909 3034 912.357 3034 916.499L3034 916.499C3034 920.641 3030.62 924 3026.45 924Z" fill="#FFC12E" fill-rule="evenodd"/><path d="M3279.67 1156.98C3279.54 1155.88 3279.37 1154.78 3279.08 1153.71 3276.19 1143.02 3270.05 1133.47 3263.54 1124.57 3263.53 1124.56 3263.53 1124.56 3263.53 1124.56 3263.53 1124.55 3263.53 1124.55 3263.53 1124.55 3262.69 1123.41 3261.84 1122.27 3261 1121.14 3257.31 1116.22 3253.57 1111.3 3249.69 1106.52 3248.89 1105.55 3243.01 1100.06 3239.79 1097.03 3238.96 1095.7 3237.73 1094.65 3236.26 1094.08L3229.47 1091.44 3221.78 1088.44 3216.85 1086.52 3216.83 1086.51C3213.48 1084.83 3210.1 1083.44 3207.1 1082.72L3207.08 1082.71 3207.04 1082.7 3207.04 1082.71C3206.27 1082.53 3205.53 1082.4 3204.81 1082.31L3203.36 1080.52 3202.78 1079.81C3202.78 1079.81 3202.78 1079.81 3202.78 1079.81 3202.78 1079.81 3202.73 1079.85 3202.65 1079.93 3202.38 1078.04 3202.01 1075.08 3201.8 1071.58 3206.07 1069.73 3209.98 1067.17 3212.73 1063.64L3212.74 1063.66C3212.74 1063.66 3235.78 1044.19 3236.89 1027.93 3238 1011.66 3227.63 1010.72 3227.63 1010.72 3227.63 1010.72 3226.71 1002.09 3217.91 996.01 3193.34 977.215 3168.99 1002.16 3168.99 1002.16L3168.99 1002.16C3166.58 1004.11 3164.48 1006.43 3162.84 1009.08 3160.06 1013.55 3155.89 1017.56 3150.47 1019.7 3147.76 1020.77 3142 1022.19 3139.53 1019.95 3149.06 1028.6 3158.77 1031.3 3167.63 1031.42 3167.34 1034.94 3166.7 1038.64 3165.44 1041.92 3161.47 1052.33 3164.12 1066.52 3175.84 1076.42 3175.84 1076.42 3177.02 1076.44 3178.97 1076.35 3178.78 1077.89 3178.52 1079.39 3178.19 1080.81 3178.19 1080.8 3178.18 1080.78 3178.18 1080.78 3178.15 1080.82 3178.13 1080.86 3178.1 1080.91 3178.1 1080.91 3178.1 1080.91 3178.1 1080.91 3178.1 1080.91 3178.1 1080.91 3178.1 1080.91 3178.14 1080.72 3178.16 1080.63 3178.16 1080.63L3178.14 1080.66 3178.01 1080.78 3171.83 1086.66 3170.96 1087.49 3171.06 1088.53C3170.83 1088.68 3170.61 1088.82 3170.4 1088.95 3169.17 1089.74 3167.9 1090.45 3166.59 1091.09 3166.57 1091.11 3166.55 1091.11 3166.54 1091.11 3166.32 1091.23 3166.12 1091.33 3165.91 1091.42 3165.89 1091.42 3165.88 1091.43 3165.87 1091.43 3165.58 1091.57 3165.28 1091.72 3164.96 1091.89 3163.04 1092.85 3160.67 1094.09 3158.74 1095.54 3158.74 1095.54 3157.6 1096.7 3155.99 1099.02L3155.99 1099.02C3155.99 1099.02 3155.95 1099.07 3155.9 1099.14 3155.7 1099.44 3155.5 1099.74 3155.28 1100.07 3152.06 1104.93 3138.67 1125.69 3134.1 1142.4 3134.15 1142.48 3134.21 1142.55 3134.27 1142.63 3133.58 1145.1 3133.11 1147.63 3132.79 1150.17 3131.63 1159.4 3132.53 1169.51 3133.8 1178.12 3136.01 1193.18 3140.24 1206.4 3144.3 1220.71 3144.47 1222.49 3144.74 1225.62 3144.77 1228.09 3144.78 1230.26 3145.84 1232.51 3146.7 1233.99 3146.58 1234.24 3146.94 1234.68 3147.36 1235.07 3136.72 1263.83 3130.47 1300.18 3127.27 1323.64 3127.24 1323.81 3127.22 1323.98 3127.2 1324.16 3125.93 1333.46 3125.15 1340.67 3124.77 1344.49 3124.57 1346.48 3125.25 1348.46 3126.63 1349.9 3130.55 1353.94 3134.94 1357.05 3139.43 1359.45 3139.45 1361.15 3139.48 1362.85 3139.51 1364.59 3140.13 1395.13 3141.51 1425.64 3144.57 1456.04 3147.04 1480.5 3151.48 1506.67 3147.38 1531.12 3147.35 1531.35 3147.61 1531.59 3148.09 1531.83 3148.03 1533.59 3147.96 1535.37 3147.87 1536.72 3140.38 1534.65 3132.27 1533.27 3124.84 1535.88 3119.48 1537.77 3115.54 1541.91 3113.58 1547.2 3113.42 1547.63 3111.56 1554.93 3112.1 1554.97 3145.84 1557.67 3164.82 1556.25 3170.55 1555.66 3171.66 1555.54 3172.52 1554.65 3172.6 1553.54 3173.27 1543.21 3169.24 1535.95 3169.22 1535.92 3169.22 1535.91 3169.23 1535.91 3169.23 1535.91L3167.39 1527.92C3167.16 1520.89 3168.72 1514.48 3169.96 1507.23 3176.01 1471.85 3182.19 1432.49 3174.65 1396.93 3174.2 1394.83 3174.16 1392.67 3174.52 1390.57 3174.58 1390.19 3174.66 1389.82 3174.75 1389.45 3176.44 1382.55 3180.13 1367.18 3184.09 1349.47 3185.04 1353.73 3186.07 1357.99 3187.2 1362.24 3187.77 1364.38 3189.32 1366.06 3191.29 1366.84 3195.05 1400 3198.51 1429.89 3201.76 1445.86 3209.75 1485.09 3220.75 1528.76 3220.75 1528.76 3222.12 1534.53 3223.11 1539.51 3223.61 1543.44 3223.8 1543.52 3223.98 1543.58 3224.16 1543.65 3224.71 1546.37 3225.14 1548.81 3225.41 1550.92 3225.41 1550.92 3222.61 1555.68 3221.31 1560.98 3220.82 1562.96 3222.52 1563.93 3224.16 1564.33 3233.15 1566.48 3241.05 1566.99 3249.65 1563.19 3250.85 1562.66 3251.45 1561.3 3251.04 1560.05 3249.95 1556.74 3247.3 1550.56 3242.06 1547.74 3242.24 1547.7 3241.98 1544.86 3241.42 1540.19 3241.56 1540.06 3241.64 1539.99 3241.64 1539.99 3241.9 1539.93 3241.32 1534.62 3240.28 1526.42 3238.41 1510.18 3235.85 1431.49 3237.87 1360.47 3244.36 1358.43 3250.56 1355.79 3255.79 1352.38 3258.19 1350.81 3259.38 1347.92 3258.74 1345.12 3255.41 1330.62 3244.67 1282.43 3238.32 1238.35 3240.07 1237.59 3241.64 1236.47 3242.13 1234.91 3242.47 1233.84 3242.39 1233.12 3242.13 1232.64 3250.03 1224.24 3258.12 1215.68 3264 1206.17 3272.98 1191.64 3281.83 1174.61 3279.67 1156.98ZM3253.63 1166.49C3254.11 1179.04 3249.49 1191.56 3244.85 1203.03 3242.63 1208.52 3240.05 1213.85 3237.09 1218.97 3236.57 1218.5 3236.1 1217.97 3235.63 1217.44 3233.69 1199.89 3232.87 1184.14 3234.03 1173.02 3234.37 1170.95 3234.7 1168.86 3235.02 1166.77 3235.29 1164.9 3235.57 1163 3235.82 1161.11 3236.1 1159.03 3236.38 1156.93 3236.63 1154.84 3236.64 1154.76 3236.65 1154.69 3236.65 1154.62L3236.65 1154.61C3236.95 1152.16 3237.23 1149.72 3237.46 1147.28 3237.5 1146.83 3237.55 1146.37 3237.59 1145.91 3237.64 1145.36 3237.69 1144.8 3237.74 1144.24 3237.79 1144.29 3237.83 1144.32 3237.86 1144.34 3244.11 1149.93 3253.28 1157.36 3253.63 1166.49ZM3169.07 1536.28C3169.12 1536.16 3169.18 1536.05 3169.22 1535.92 3169.26 1536 3169.19 1536.13 3169.07 1536.28Z" fill="#D45FFF" fill-rule="evenodd" fill-opacity="0.2"/><path d="M3019 1541C3019 1554.81 2932.82 1566 2826.5 1566 2720.19 1566 2634 1554.81 2634 1541 2634 1527.19 2720.19 1516 2826.5 1516 2932.82 1516 3019 1527.19 3019 1541Z" fill="#D45FFF" fill-rule="evenodd" fill-opacity="0.301961"/><path d="M2844.12 1526.97C2837.35 1531.01 2836.15 1537.76 2836 1541.1 2835.95 1542.36 2836.64 1543.54 2837.78 1544.09 2840.78 1545.55 2847.27 1547.72 2854.04 1543.68L2928.19 1499.46 2928.19 1499.46C2929.74 1501.26 2930.97 1502.21 2931.53 1501.88L2935.69 1499.44C2935.54 1499.53 2935.34 1499.53 2935.1 1499.44 2935.01 1499.41 2934.91 1499.36 2934.81 1499.3 2934.91 1499.36 2935.01 1499.41 2935.1 1499.44 2935.34 1499.53 2935.54 1499.53 2935.69 1499.44 2936.84 1498.77 2934.71 1492.99 2930.95 1486.54 2927.18 1480.08 2923.2 1475.39 2922.05 1476.06 2922.01 1476.09 2921.99 1476.14 2921.95 1476.17 2921.98 1476.14 2922.01 1476.09 2922.04 1476.07L2917.89 1478.5C2917.33 1478.83 2917.56 1480.4 2918.38 1482.67L2918.38 1482.67 2844.12 1526.97ZM2929.75 1493.64C2929.67 1493.51 2929.58 1493.38 2929.49 1493.24 2929.58 1493.38 2929.67 1493.51 2929.75 1493.64ZM2930.4 1494.55C2930.33 1494.44 2930.25 1494.33 2930.17 1494.23 2930.25 1494.33 2930.33 1494.45 2930.4 1494.55ZM2927.71 1490.5C2927.62 1490.36 2927.54 1490.23 2927.46 1490.09 2927.54 1490.23 2927.62 1490.36 2927.71 1490.5ZM2928.41 1491.62C2928.32 1491.47 2928.23 1491.33 2928.14 1491.19 2928.23 1491.33 2928.32 1491.47 2928.41 1491.62ZM2929.09 1492.66C2929 1492.52 2928.91 1492.38 2928.81 1492.24 2928.91 1492.38 2929 1492.52 2929.09 1492.66ZM2926.89 1489.13C2926.86 1489.08 2926.82 1489.03 2926.79 1488.97 2926.77 1488.93 2926.74 1488.88 2926.72 1488.84 2926.74 1488.88 2926.77 1488.93 2926.79 1488.97 2926.82 1489.03 2926.85 1489.08 2926.89 1489.13ZM2924.34 1484.42C2924.31 1484.34 2924.27 1484.26 2924.23 1484.18 2924.27 1484.26 2924.31 1484.34 2924.34 1484.42ZM2924.93 1485.58C2924.87 1485.46 2924.81 1485.35 2924.75 1485.23 2924.81 1485.35 2924.87 1485.47 2924.93 1485.58ZM2925.52 1486.71C2925.45 1486.58 2925.39 1486.45 2925.32 1486.33 2925.39 1486.45 2925.45 1486.58 2925.52 1486.71ZM2926.15 1487.84C2926.08 1487.72 2926.01 1487.59 2925.94 1487.47 2926.01 1487.59 2926.08 1487.72 2926.15 1487.84ZM2921.74 1476.73C2921.74 1476.73 2921.74 1476.73 2921.74 1476.73 2921.74 1476.73 2921.74 1476.73 2921.74 1476.73 2921.74 1476.73 2921.74 1476.73 2921.74 1476.73ZM2922.13 1479.01C2922.15 1479.06 2922.16 1479.12 2922.18 1479.17 2922.16 1479.12 2922.15 1479.06 2922.13 1479.01ZM2921.9 1478.13C2921.91 1478.16 2921.92 1478.21 2921.93 1478.25 2921.92 1478.21 2921.91 1478.16 2921.9 1478.13ZM2921.76 1477.29C2921.76 1477.34 2921.77 1477.38 2921.77 1477.43 2921.77 1477.38 2921.76 1477.34 2921.76 1477.29ZM2921.75 1476.7C2921.76 1476.55 2921.79 1476.42 2921.84 1476.31 2921.79 1476.42 2921.76 1476.55 2921.75 1476.7ZM2922.58 1480.36C2922.56 1480.31 2922.54 1480.25 2922.52 1480.2 2922.51 1480.18 2922.51 1480.16 2922.5 1480.14 2922.53 1480.21 2922.56 1480.28 2922.58 1480.36ZM2923.21 1481.93C2923.24 1482.01 2923.28 1482.09 2923.31 1482.17 2923.28 1482.09 2923.24 1482.01 2923.21 1481.93ZM2922.82 1480.98C2922.85 1481.07 2922.89 1481.16 2922.92 1481.25 2922.89 1481.16 2922.85 1481.07 2922.82 1480.98ZM2934.47 1499.09C2934.55 1499.15 2934.63 1499.2 2934.71 1499.24 2934.63 1499.2 2934.55 1499.15 2934.47 1499.09ZM2932.67 1497.4C2932.99 1497.75 2933.29 1498.06 2933.57 1498.33 2933.29 1498.06 2932.99 1497.75 2932.67 1497.4ZM2934.1 1498.8C2934.18 1498.87 2934.27 1498.94 2934.35 1499 2934.27 1498.94 2934.18 1498.87 2934.1 1498.8ZM2933.66 1498.42C2933.77 1498.52 2933.87 1498.61 2933.97 1498.7 2933.87 1498.61 2933.77 1498.52 2933.66 1498.42ZM2932.32 1496.99C2932.28 1496.96 2932.25 1496.91 2932.22 1496.87 2932.33 1497 2932.44 1497.13 2932.55 1497.25 2932.47 1497.17 2932.39 1497.08 2932.32 1496.99ZM2931.18 1495.59C2931.13 1495.52 2931.07 1495.45 2931.02 1495.38 2931.07 1495.45 2931.13 1495.52 2931.18 1495.59ZM2931.87 1496.45C2931.79 1496.35 2931.71 1496.26 2931.63 1496.16 2931.71 1496.26 2931.79 1496.36 2931.87 1496.45Z" fill="url(#fill6)" fill-rule="evenodd"/><path d="M2921.24 1477 2843.09 1523.2C2836.34 1527.19 2835.15 1533.86 2835 1537.16 2834.95 1538.41 2835.64 1539.57 2836.77 1540.11 2839.77 1541.56 2846.23 1543.7 2852.98 1539.71L2931 1493.59C2929.38 1491.72 2927.41 1488.92 2925.49 1485.66 2923.58 1482.41 2922.09 1479.33 2921.24 1477Z" fill="url(#fill7)" fill-rule="evenodd"/><path d="M2921.31 1472.07C2921.13 1472.17 2921.03 1472.4 2921.01 1472.74 2920.87 1474.6 2922.84 1479.67 2925.96 1485.24 2929.18 1490.98 2932.55 1495.34 2934.12 1495.93 2934.35 1496.02 2934.55 1496.02 2934.69 1495.93 2935.82 1495.25 2933.74 1489.35 2930.04 1482.76 2926.34 1476.16 2922.43 1471.38 2921.31 1472.07Z" fill="url(#fill8)" fill-rule="evenodd"/><path d="M2924.15 1478.03C2924.07 1478.09 2924.02 1478.2 2924 1478.37 2923.93 1479.3 2924.92 1481.84 2926.48 1484.62 2928.09 1487.49 2929.78 1489.67 2930.56 1489.97 2930.68 1490.01 2930.77 1490.01 2930.85 1489.97 2931.41 1489.62 2930.37 1486.67 2928.52 1483.38 2926.67 1480.08 2924.72 1477.69 2924.15 1478.03Z" fill="url(#fill9)" fill-rule="evenodd"/><path d="M2916.33 1474.45C2915.73 1474.78 2915.97 1476.35 2916.84 1478.64 2917.18 1479.53 2917.62 1480.54 2918.14 1481.63 2918.99 1483.4 2920.06 1485.37 2921.3 1487.41 2922.55 1489.46 2923.82 1491.32 2925.01 1492.9 2925.75 1493.89 2926.47 1494.77 2927.13 1495.5 2928.76 1497.31 2930.05 1498.27 2930.64 1497.94L2935 1495.49C2934.84 1495.58 2934.64 1495.58 2934.39 1495.49 2933.69 1495.25 2932.67 1494.37 2931.46 1493.03 2929.75 1491.12 2927.68 1488.27 2925.66 1484.97 2923.64 1481.65 2922.08 1478.52 2921.18 1476.15 2920.6 1474.61 2920.31 1473.39 2920.36 1472.67 2920.39 1472.33 2920.5 1472.11 2920.68 1472L2916.33 1474.45Z" fill="url(#fill10)" fill-rule="evenodd"/><path d="M2906.25 1489.05C2905.86 1488.94 2905.45 1489.01 2905.11 1489.22L2845.57 1525.45C2841.63 1527.84 2840.4 1531.58 2840.04 1534.14 2839.79 1535.88 2840.77 1537.57 2842.39 1538.18 2844.76 1539.07 2848.56 1539.75 2852.5 1537.35L2911.27 1501.58C2912.16 1501.04 2912.25 1499.77 2911.46 1499.11 2911.45 1499.1 2911.43 1499.09 2911.42 1499.07 2910.18 1498.06 2913.23 1494.53 2910.53 1493.99 2907.83 1493.46 2907.41 1492.74 2907.48 1490.81 2907.53 1489.66 2906.82 1489.22 2906.25 1489.05Z" fill="url(#fill11)" fill-rule="evenodd"/><path d="M2856.15 1531.18C2846.29 1533.07 2841.94 1540.67 2840.31 1544.62 2839.69 1546.12 2840.02 1547.84 2841.14 1548.99 2844.11 1552.07 2850.94 1557.51 2860.8 1555.61L2968.78 1534.82 2968.78 1534.82C2969.86 1537.67 2970.93 1539.34 2971.75 1539.19L2977.78 1538.08C2977.56 1538.12 2977.32 1538.03 2977.08 1537.82 2976.98 1537.74 2976.88 1537.64 2976.78 1537.52 2976.88 1537.64 2976.98 1537.74 2977.08 1537.82 2977.32 1538.03 2977.56 1538.12 2977.78 1538.08 2979.44 1537.77 2979.4 1529.9 2977.69 1520.49 2975.97 1511.08 2973.23 1503.7 2971.56 1504.01 2971.5 1504.02 2971.46 1504.07 2971.4 1504.1 2971.46 1504.07 2971.5 1504.02 2971.56 1504.01L2965.53 1505.12C2964.71 1505.27 2964.31 1507.26 2964.31 1510.35L2964.31 1510.35 2856.15 1531.18ZM2973.19 1528.5C2973.13 1528.31 2973.08 1528.11 2973.03 1527.91 2973.08 1528.11 2973.13 1528.31 2973.19 1528.5ZM2973.57 1529.88C2973.52 1529.73 2973.48 1529.56 2973.43 1529.39 2973.47 1529.56 2973.52 1529.73 2973.57 1529.88ZM2972.09 1523.84C2972.05 1523.64 2972.01 1523.44 2971.97 1523.24 2972.01 1523.44 2972.05 1523.64 2972.09 1523.84ZM2972.45 1525.49C2972.4 1525.28 2972.35 1525.07 2972.31 1524.85 2972.35 1525.07 2972.4 1525.28 2972.45 1525.49ZM2972.81 1527.04C2972.76 1526.83 2972.71 1526.62 2972.66 1526.41 2972.71 1526.62 2972.76 1526.83 2972.81 1527.04ZM2971.7 1521.84C2971.68 1521.76 2971.67 1521.68 2971.65 1521.6 2971.64 1521.54 2971.63 1521.47 2971.62 1521.41 2971.63 1521.47 2971.64 1521.54 2971.65 1521.6 2971.67 1521.68 2971.68 1521.76 2971.7 1521.84ZM2970.7 1515.05C2970.68 1514.94 2970.67 1514.83 2970.66 1514.72 2970.67 1514.83 2970.69 1514.94 2970.7 1515.05ZM2970.89 1516.71C2970.87 1516.55 2970.85 1516.38 2970.83 1516.22 2970.85 1516.38 2970.87 1516.55 2970.89 1516.71ZM2971.12 1518.33C2971.09 1518.14 2971.06 1517.96 2971.04 1517.78 2971.06 1517.96 2971.09 1518.14 2971.12 1518.33ZM2971.37 1519.97C2971.34 1519.78 2971.31 1519.6 2971.28 1519.42 2971.31 1519.6 2971.34 1519.78 2971.37 1519.97ZM2970.91 1504.68C2970.91 1504.68 2970.91 1504.68 2970.91 1504.68 2970.91 1504.68 2970.91 1504.68 2970.91 1504.68 2970.91 1504.68 2970.91 1504.68 2970.91 1504.68ZM2970.39 1507.59C2970.38 1507.66 2970.38 1507.73 2970.38 1507.8 2970.38 1507.73 2970.38 1507.66 2970.39 1507.59ZM2970.49 1506.42C2970.48 1506.47 2970.48 1506.53 2970.47 1506.58 2970.48 1506.53 2970.48 1506.47 2970.49 1506.42ZM2970.69 1505.36C2970.67 1505.42 2970.66 1505.47 2970.64 1505.53 2970.66 1505.47 2970.67 1505.41 2970.69 1505.36ZM2970.93 1504.65C2971.01 1504.47 2971.1 1504.32 2971.2 1504.22 2971.1 1504.32 2971.01 1504.47 2970.93 1504.65ZM2970.34 1509.41C2970.34 1509.34 2970.34 1509.26 2970.34 1509.19 2970.34 1509.16 2970.34 1509.13 2970.34 1509.1 2970.34 1509.2 2970.34 1509.31 2970.34 1509.41ZM2970.41 1511.57C2970.42 1511.69 2970.42 1511.8 2970.43 1511.91 2970.42 1511.79 2970.42 1511.69 2970.41 1511.57ZM2970.36 1510.26C2970.36 1510.38 2970.36 1510.5 2970.37 1510.62 2970.36 1510.5 2970.36 1510.38 2970.36 1510.26ZM2976.47 1537.12C2976.55 1537.23 2976.62 1537.32 2976.69 1537.41 2976.62 1537.32 2976.55 1537.23 2976.47 1537.12ZM2975.05 1534.3C2975.28 1534.86 2975.5 1535.37 2975.72 1535.82 2975.5 1535.37 2975.28 1534.86 2975.05 1534.3ZM2976.15 1536.61C2976.22 1536.73 2976.29 1536.85 2976.37 1536.96 2976.29 1536.85 2976.22 1536.73 2976.15 1536.61ZM2975.79 1535.96C2975.88 1536.12 2975.96 1536.28 2976.04 1536.43 2975.96 1536.28 2975.88 1536.12 2975.79 1535.96ZM2974.8 1533.66C2974.78 1533.6 2974.75 1533.53 2974.73 1533.47 2974.81 1533.68 2974.88 1533.88 2974.96 1534.07 2974.91 1533.94 2974.85 1533.8 2974.8 1533.66ZM2974.05 1531.47C2974.01 1531.37 2973.98 1531.26 2973.94 1531.15 2973.98 1531.26 2974.01 1531.36 2974.05 1531.47ZM2974.5 1532.81C2974.44 1532.66 2974.39 1532.52 2974.34 1532.36 2974.39 1532.52 2974.44 1532.66 2974.5 1532.81Z" fill="url(#fill12)" fill-rule="evenodd"/><path d="M2970.54 1505 2856.17 1527.07C2846.3 1528.98 2841.94 1536.6 2840.31 1540.58 2839.69 1542.08 2840.02 1543.8 2841.14 1544.97 2844.11 1548.05 2850.95 1553.51 2860.83 1551.61L2975 1529.57C2973.87 1526.57 2972.73 1522.28 2971.85 1517.46 2970.97 1512.64 2970.53 1508.21 2970.54 1505Z" fill="url(#fill13)" fill-rule="evenodd"/><path d="M2972.13 1500.01C2971.89 1500.06 2971.69 1500.29 2971.53 1500.67 2970.64 1502.79 2970.88 1509.63 2972.21 1517.56 2973.59 1525.72 2975.69 1532.35 2977.22 1533.73 2977.45 1533.94 2977.67 1534.03 2977.87 1533.99 2979.41 1533.68 2979.37 1525.83 2977.79 1516.45 2976.2 1507.06 2973.67 1499.7 2972.13 1500.01Z" fill="url(#fill14)" fill-rule="evenodd"/><path d="M2973.56 1508C2973.45 1508.03 2973.35 1508.14 2973.26 1508.34 2972.82 1509.39 2972.94 1512.81 2973.61 1516.78 2974.3 1520.86 2975.34 1524.17 2976.11 1524.87 2976.23 1524.97 2976.33 1525.02 2976.43 1525 2977.2 1524.84 2977.19 1520.92 2976.39 1516.22 2975.6 1511.53 2974.33 1507.85 2973.56 1508Z" fill="url(#fill15)" fill-rule="evenodd"/><path d="M2966.18 1501.11C2965.39 1501.26 2965 1503.23 2965 1506.31 2965 1507.52 2965.06 1508.9 2965.19 1510.4 2965.39 1512.86 2965.75 1515.66 2966.27 1518.6 2966.79 1521.55 2967.41 1524.3 2968.07 1526.67 2968.48 1528.15 2968.9 1529.49 2969.32 1530.64 2970.36 1533.47 2971.39 1535.14 2972.18 1534.99L2978 1533.89C2977.79 1533.92 2977.56 1533.84 2977.32 1533.63 2976.66 1533.05 2975.9 1531.59 2975.13 1529.49 2974.04 1526.51 2972.93 1522.27 2972.09 1517.49 2971.25 1512.72 2970.82 1508.34 2970.82 1505.15 2970.82 1503.07 2971.01 1501.5 2971.37 1500.66 2971.54 1500.28 2971.75 1500.05 2972 1500L2966.18 1501.11Z" fill="url(#fill16)" fill-rule="evenodd"/><path d="M2946.97 1514.34C2946.55 1514.04 2946.03 1513.94 2945.52 1514.03L2857.98 1530.7C2852.18 1531.8 2849.09 1535.66 2847.55 1538.51 2846.51 1540.46 2846.97 1542.87 2848.67 1544.29 2851.15 1546.38 2855.46 1548.83 2861.25 1547.73L2947.68 1531.27C2948.98 1531.03 2949.65 1529.57 2948.97 1528.44 2948.96 1528.43 2948.95 1528.41 2948.94 1528.39 2947.87 1526.65 2953.07 1523.84 2950.04 1522.02 2947 1520.21 2946.8 1519.19 2947.71 1516.95 2948.26 1515.61 2947.6 1514.79 2946.97 1514.34Z" fill="url(#fill17)" fill-rule="evenodd"/><path d="M2748.35 1464.61 2748.35 1464.61C2749.34 1461.59 2749.57 1459.52 2748.83 1459.11L2743.32 1456.08C2743.37 1456.11 2743.4 1456.17 2743.44 1456.22 2743.4 1456.17 2743.37 1456.1 2743.32 1456.07 2741.79 1455.24 2736.78 1461.55 2732.12 1470.19 2727.46 1478.82 2724.92 1486.5 2726.44 1487.34 2726.64 1487.45 2726.9 1487.44 2727.2 1487.31 2727.32 1487.26 2727.45 1487.2 2727.59 1487.11 2727.45 1487.19 2727.32 1487.26 2727.2 1487.31 2726.9 1487.44 2726.64 1487.45 2726.44 1487.34L2731.95 1490.37C2732.69 1490.78 2734.26 1489.49 2736.22 1487.06L2736.22 1487.06 2834.58 1542.27C2843.56 1547.31 2851.93 1544.21 2855.79 1542.17 2857.25 1541.4 2858.11 1539.83 2857.99 1538.17 2857.66 1533.78 2855.85 1524.96 2846.87 1519.91L2748.35 1464.61ZM2734.28 1478.94C2734.17 1479.12 2734.06 1479.3 2733.95 1479.47 2734.06 1479.3 2734.17 1479.12 2734.28 1478.94ZM2733.43 1480.26C2733.33 1480.4 2733.23 1480.55 2733.14 1480.7 2733.23 1480.55 2733.33 1480.4 2733.43 1480.26ZM2736.8 1474.72C2736.7 1474.91 2736.6 1475.08 2736.49 1475.27 2736.6 1475.08 2736.7 1474.91 2736.8 1474.72ZM2735.96 1476.19C2735.85 1476.38 2735.74 1476.57 2735.63 1476.76 2735.74 1476.57 2735.85 1476.38 2735.96 1476.19ZM2735.12 1477.59C2735.01 1477.78 2734.89 1477.97 2734.78 1478.16 2734.89 1477.97 2735.01 1477.78 2735.12 1477.59ZM2737.63 1473.22C2737.66 1473.16 2737.69 1473.1 2737.73 1473.05 2737.69 1473.11 2737.66 1473.16 2737.63 1473.22 2737.59 1473.3 2737.55 1473.37 2737.51 1473.44 2737.55 1473.37 2737.59 1473.3 2737.63 1473.22ZM2740.78 1466.83C2740.74 1466.93 2740.69 1467.04 2740.64 1467.14 2740.69 1467.04 2740.74 1466.93 2740.78 1466.83ZM2740.14 1468.23C2740.07 1468.38 2740 1468.54 2739.92 1468.7 2740 1468.54 2740.07 1468.38 2740.14 1468.23ZM2739.45 1469.69C2739.36 1469.86 2739.28 1470.03 2739.2 1470.2 2739.28 1470.03 2739.36 1469.86 2739.45 1469.69ZM2738.68 1471.22C2738.6 1471.38 2738.52 1471.55 2738.43 1471.72 2738.51 1471.55 2738.6 1471.38 2738.68 1471.22ZM2743.74 1456.94C2743.74 1456.94 2743.74 1456.94 2743.74 1456.94 2743.74 1456.94 2743.74 1456.94 2743.74 1456.94 2743.74 1456.94 2743.74 1456.94 2743.74 1456.94ZM2743.27 1460.16C2743.28 1460.09 2743.3 1460.02 2743.32 1459.95 2743.3 1460.02 2743.28 1460.09 2743.27 1460.16ZM2743.56 1458.94C2743.57 1458.89 2743.58 1458.83 2743.59 1458.78 2743.58 1458.83 2743.57 1458.89 2743.56 1458.94ZM2743.72 1457.86C2743.73 1457.8 2743.73 1457.73 2743.74 1457.67 2743.73 1457.73 2743.73 1457.8 2743.72 1457.86ZM2743.6 1456.39C2743.66 1456.53 2743.7 1456.7 2743.73 1456.9 2743.7 1456.7 2743.66 1456.53 2743.6 1456.39ZM2742.88 1461.44C2742.87 1461.47 2742.86 1461.5 2742.85 1461.53 2742.83 1461.6 2742.8 1461.67 2742.78 1461.74 2742.82 1461.64 2742.85 1461.54 2742.88 1461.44ZM2741.91 1464.15C2741.95 1464.05 2741.99 1463.94 2742.03 1463.83 2741.99 1463.94 2741.95 1464.05 2741.91 1464.15ZM2742.37 1462.92C2742.42 1462.8 2742.46 1462.68 2742.5 1462.57 2742.46 1462.68 2742.42 1462.8 2742.37 1462.92ZM2727.71 1487.03C2727.81 1486.97 2727.91 1486.9 2728.01 1486.82 2727.91 1486.9 2727.81 1486.97 2727.71 1487.03ZM2729.16 1485.79C2729.52 1485.43 2729.9 1485 2730.29 1484.52 2729.9 1485 2729.52 1485.42 2729.16 1485.79ZM2728.17 1486.7C2728.27 1486.62 2728.38 1486.53 2728.49 1486.43 2728.38 1486.53 2728.27 1486.62 2728.17 1486.7ZM2728.65 1486.29C2728.78 1486.17 2728.91 1486.04 2729.04 1485.91 2728.91 1486.04 2728.77 1486.17 2728.65 1486.29ZM2730.45 1484.33C2730.59 1484.17 2730.73 1484 2730.86 1483.82 2730.82 1483.87 2730.78 1483.93 2730.74 1483.98 2730.64 1484.11 2730.55 1484.22 2730.45 1484.33ZM2732.37 1481.81C2732.3 1481.91 2732.23 1482 2732.17 1482.09 2732.23 1482 2732.3 1481.91 2732.37 1481.81ZM2731.6 1482.86C2731.5 1483 2731.4 1483.12 2731.3 1483.26 2731.4 1483.12 2731.5 1483 2731.6 1482.86Z" fill="url(#fill18)" fill-rule="evenodd"/><path d="M2743.18 1458 2847.8 1515.36C2856.83 1520.31 2858.66 1528.98 2858.99 1533.29 2859.11 1534.92 2858.24 1536.46 2856.78 1537.22 2852.9 1539.22 2844.48 1542.27 2835.44 1537.32L2731 1480.06C2733.06 1477.55 2735.54 1473.81 2737.93 1469.49 2740.32 1465.16 2742.16 1461.07 2743.18 1458Z" fill="url(#fill19)" fill-rule="evenodd"/><path d="M2743.58 1452.07C2743.8 1452.2 2743.94 1452.49 2743.98 1452.92 2744.23 1455.27 2741.91 1461.8 2738.14 1469 2734.26 1476.41 2730.12 1482.09 2728.15 1482.9 2727.86 1483.02 2727.61 1483.03 2727.42 1482.93 2725.96 1482.1 2728.4 1474.52 2732.86 1466 2737.32 1457.48 2742.12 1451.25 2743.58 1452.07Z" fill="url(#fill20)" fill-rule="evenodd"/><path d="M2739.78 1460.04C2739.9 1460.1 2739.97 1460.24 2739.99 1460.45 2740.12 1461.58 2738.89 1464.74 2736.9 1468.23 2734.84 1471.81 2732.65 1474.56 2731.61 1474.95 2731.46 1475.01 2731.32 1475.02 2731.22 1474.96 2730.45 1474.56 2731.74 1470.9 2734.1 1466.78 2736.46 1462.65 2739 1459.64 2739.78 1460.04Z" fill="url(#fill21)" fill-rule="evenodd"/><path d="M2749.56 1455C2750.31 1455.41 2750.07 1457.45 2749.08 1460.44 2748.69 1461.62 2748.18 1462.94 2747.57 1464.36 2746.57 1466.68 2745.31 1469.28 2743.83 1471.97 2742.35 1474.65 2740.83 1477.12 2739.41 1479.2 2738.51 1480.51 2737.65 1481.67 2736.85 1482.65 2734.88 1485.05 2733.3 1486.33 2732.55 1485.93L2727 1482.92C2727.2 1483.03 2727.46 1483.02 2727.77 1482.9 2728.63 1482.56 2729.88 1481.39 2731.33 1479.6 2733.4 1477.08 2735.88 1473.32 2738.28 1468.96 2740.67 1464.6 2742.52 1460.49 2743.54 1457.39 2744.21 1455.37 2744.53 1453.78 2744.43 1452.85 2744.38 1452.42 2744.24 1452.13 2744.01 1452L2749.56 1455Z" fill="url(#fill22)" fill-rule="evenodd"/><path d="M2763.14 1473.09C2763.64 1472.93 2764.18 1472.99 2764.64 1473.25L2844.32 1517.52C2849.59 1520.44 2851.35 1525.2 2851.93 1528.48 2852.32 1530.71 2851.09 1532.92 2848.99 1533.77 2845.91 1535.01 2840.94 1536.03 2835.67 1533.1L2757.01 1489.39C2755.82 1488.74 2755.65 1487.11 2756.67 1486.22 2756.68 1486.2 2756.7 1486.19 2756.71 1486.18 2758.31 1484.82 2754.16 1480.41 2757.69 1479.61 2761.22 1478.81 2761.74 1477.88 2761.58 1475.4 2761.48 1473.91 2762.39 1473.32 2763.14 1473.09Z" fill="url(#fill23)" fill-rule="evenodd"/><path d="M2679.37 1496.16 2679.37 1496.16C2679.38 1491.7 2678.79 1488.84 2677.6 1488.62L2668.84 1487.01C2668.92 1487.03 2668.99 1487.11 2669.06 1487.15 2668.98 1487.11 2668.92 1487.03 2668.83 1487.01 2666.41 1486.57 2662.42 1497.19 2659.92 1510.75 2657.42 1524.3 2657.35 1535.65 2659.77 1536.09 2660.09 1536.15 2660.43 1536.02 2660.79 1535.72 2660.93 1535.6 2661.08 1535.45 2661.22 1535.29 2661.08 1535.45 2660.93 1535.6 2660.79 1535.72 2660.43 1536.02 2660.09 1536.15 2659.78 1536.09L2668.54 1537.7C2669.72 1537.92 2671.27 1535.5 2672.85 1531.4L2672.85 1531.4 2829.77 1561.43C2844.1 1564.17 2854.03 1556.34 2858.34 1551.92 2859.97 1550.25 2860.45 1547.78 2859.56 1545.62 2857.19 1539.92 2850.87 1528.98 2836.55 1526.24L2679.37 1496.16ZM2666.68 1521.45C2666.6 1521.73 2666.53 1522.02 2666.46 1522.3 2666.53 1522.02 2666.6 1521.73 2666.68 1521.45ZM2666.1 1523.58C2666.03 1523.82 2665.97 1524.06 2665.9 1524.29 2665.97 1524.06 2666.03 1523.82 2666.1 1523.58ZM2668.23 1514.72C2668.17 1515.01 2668.11 1515.29 2668.05 1515.58 2668.11 1515.29 2668.17 1515.01 2668.23 1514.72ZM2667.74 1517.04C2667.67 1517.35 2667.6 1517.65 2667.53 1517.95 2667.6 1517.65 2667.67 1517.35 2667.74 1517.04ZM2667.22 1519.28C2667.14 1519.59 2667.07 1519.89 2667 1520.19 2667.07 1519.89 2667.15 1519.59 2667.22 1519.28ZM2668.69 1512.36C2668.7 1512.26 2668.72 1512.17 2668.73 1512.07 2668.72 1512.17 2668.7 1512.26 2668.69 1512.36 2668.66 1512.47 2668.64 1512.58 2668.62 1512.7 2668.64 1512.58 2668.66 1512.47 2668.69 1512.36ZM2670.13 1502.45C2670.12 1502.6 2670.1 1502.77 2670.08 1502.92 2670.1 1502.77 2670.12 1502.6 2670.13 1502.45ZM2669.89 1504.6C2669.86 1504.83 2669.82 1505.07 2669.79 1505.31 2669.83 1505.07 2669.86 1504.83 2669.89 1504.6ZM2669.58 1506.85C2669.55 1507.11 2669.51 1507.37 2669.47 1507.64 2669.51 1507.38 2669.55 1507.11 2669.58 1506.85ZM2669.22 1509.22C2669.18 1509.48 2669.14 1509.74 2669.1 1510 2669.14 1509.74 2669.18 1509.48 2669.22 1509.22ZM2669.78 1487.98C2669.78 1487.98 2669.78 1487.98 2669.78 1487.98 2669.78 1487.98 2669.78 1487.98 2669.78 1487.98 2669.78 1487.98 2669.78 1487.98 2669.78 1487.98ZM2670.56 1492.47C2670.55 1492.37 2670.54 1492.27 2670.54 1492.17 2670.54 1492.27 2670.55 1492.37 2670.56 1492.47ZM2670.42 1490.72C2670.41 1490.65 2670.4 1490.56 2670.39 1490.49 2670.4 1490.56 2670.41 1490.65 2670.42 1490.72ZM2670.17 1489.21C2670.15 1489.12 2670.12 1489.04 2670.1 1488.96 2670.12 1489.04 2670.14 1489.12 2670.17 1489.21ZM2669.35 1487.31C2669.5 1487.46 2669.63 1487.68 2669.75 1487.93 2669.63 1487.68 2669.5 1487.46 2669.35 1487.31ZM2670.6 1494.35C2670.6 1494.4 2670.6 1494.43 2670.6 1494.48 2670.6 1494.58 2670.6 1494.69 2670.6 1494.79 2670.6 1494.64 2670.6 1494.49 2670.6 1494.35ZM2670.47 1498.39C2670.48 1498.23 2670.49 1498.07 2670.5 1497.91 2670.49 1498.07 2670.48 1498.23 2670.47 1498.39ZM2670.56 1496.54C2670.57 1496.37 2670.57 1496.19 2670.58 1496.02 2670.57 1496.19 2670.57 1496.36 2670.56 1496.54ZM2661.35 1535.12C2661.46 1535 2661.56 1534.86 2661.67 1534.71 2661.56 1534.86 2661.46 1535 2661.35 1535.12ZM2662.76 1532.83C2663.09 1532.18 2663.41 1531.45 2663.74 1530.64 2663.41 1531.45 2663.09 1532.18 2662.76 1532.83ZM2661.82 1534.48C2661.93 1534.32 2662.04 1534.15 2662.14 1533.97 2662.04 1534.15 2661.93 1534.32 2661.82 1534.48ZM2662.29 1533.72C2662.41 1533.5 2662.53 1533.27 2662.66 1533.03 2662.53 1533.27 2662.41 1533.5 2662.29 1533.72ZM2663.87 1530.32C2663.98 1530.04 2664.09 1529.75 2664.2 1529.45 2664.17 1529.54 2664.14 1529.64 2664.1 1529.72 2664.03 1529.93 2663.95 1530.12 2663.87 1530.32ZM2665.35 1526.11C2665.3 1526.27 2665.25 1526.42 2665.2 1526.57 2665.25 1526.42 2665.3 1526.27 2665.35 1526.11ZM2664.78 1527.85C2664.7 1528.08 2664.62 1528.29 2664.55 1528.5 2664.62 1528.29 2664.7 1528.08 2664.78 1527.85Z" fill="url(#fill24)" fill-rule="evenodd"/><path d="M2670.47 1488 2835.65 1519.51C2849.91 1522.24 2856.2 1533.09 2858.56 1538.75 2859.45 1540.89 2858.97 1543.34 2857.35 1545 2853.06 1549.39 2843.17 1557.16 2828.91 1554.44L2664 1522.97C2665.64 1518.7 2667.29 1512.6 2668.56 1505.74 2669.83 1498.87 2670.47 1492.58 2670.47 1488Z" fill="url(#fill25)" fill-rule="evenodd"/><path d="M2668.31 1480.01C2668.67 1480.08 2668.97 1480.41 2669.21 1480.97 2670.54 1484.02 2670.18 1493.88 2668.17 1505.3 2666.1 1517.07 2662.96 1526.62 2660.66 1528.61 2660.32 1528.91 2659.99 1529.05 2659.69 1528.99 2657.38 1528.54 2657.45 1517.22 2659.83 1503.7 2662.21 1490.17 2666.01 1479.57 2668.31 1480.01Z" fill="url(#fill26)" fill-rule="evenodd"/><path d="M2666.16 1492.01C2666.34 1492.04 2666.49 1492.21 2666.61 1492.5 2667.27 1494.05 2667.09 1499.08 2666.09 1504.91 2665.05 1510.91 2663.48 1515.79 2662.33 1516.8 2662.16 1516.96 2661.99 1517.02 2661.84 1516.99 2660.69 1516.77 2660.72 1510.99 2661.91 1504.09 2663.11 1497.19 2665 1491.78 2666.16 1492.01Z" fill="url(#fill27)" fill-rule="evenodd"/><path d="M2677.19 1481.61C2678.41 1481.83 2679.01 1484.71 2679 1489.2 2679 1490.96 2678.9 1492.97 2678.71 1495.16 2678.4 1498.74 2677.84 1502.82 2677.04 1507.11 2676.24 1511.4 2675.28 1515.41 2674.27 1518.86 2673.64 1521.03 2672.99 1522.98 2672.34 1524.65 2670.74 1528.78 2669.15 1531.2 2667.95 1530.99L2659 1529.37C2659.32 1529.43 2659.67 1529.3 2660.04 1528.99 2661.06 1528.16 2662.23 1526.02 2663.42 1522.96 2665.1 1518.63 2666.79 1512.44 2668.09 1505.49 2669.4 1498.53 2670.05 1492.15 2670.05 1487.51 2670.05 1484.47 2669.77 1482.18 2669.21 1480.96 2668.95 1480.4 2668.63 1480.07 2668.25 1480L2677.19 1481.61Z" fill="url(#fill28)" fill-rule="evenodd"/><path d="M2703.86 1500.49C2704.46 1500.06 2705.23 1499.91 2705.96 1500.05L2833.07 1524.1C2841.48 1525.69 2845.97 1531.25 2848.2 1535.35 2849.71 1538.15 2849.04 1541.63 2846.58 1543.67 2842.97 1546.67 2836.71 1550.2 2828.3 1548.6L2702.81 1524.86C2700.93 1524.5 2699.96 1522.41 2700.94 1520.78 2700.96 1520.76 2700.98 1520.73 2700.99 1520.71 2702.54 1518.2 2694.99 1514.15 2699.4 1511.54 2703.81 1508.94 2704.1 1507.47 2702.77 1504.25 2701.98 1502.32 2702.95 1501.13 2703.86 1500.49Z" fill="url(#fill29)" fill-rule="evenodd"/><path d="M3215 1238.22C3215.1 1238.3 3215.2 1238.38 3215.3 1238.46 3218.43 1240.98 3221.33 1247.26 3221.55 1246.99 3223.89 1244.1 3226.41 1241.25 3229.01 1238.4 3238.41 1228.09 3248.92 1217.83 3256.11 1206.12 3265.03 1191.59 3273.81 1174.56 3271.67 1156.94 3271.54 1155.84 3271.37 1154.74 3271.08 1153.67 3268.21 1142.99 3262.12 1133.43 3255.65 1124.53 3255.65 1124.53 3255.65 1124.52 3255.65 1124.52 3255.65 1124.52 3255.65 1124.52 3255.65 1124.52 3254.81 1123.37 3253.97 1122.24 3253.13 1121.11 3249.47 1116.19 3245.75 1111.27 3241.9 1106.49 3240.81 1105.14 3229.99 1095.12 3229.99 1095 3229.99 1095 3218.95 1135.64 3218.95 1135.64 3218.85 1136 3229.42 1143.65 3230.15 1144.31 3236.36 1149.89 3245.48 1157.32 3245.82 1166.45 3246.29 1179 3241.7 1191.52 3237.1 1202.99 3232.38 1214.73 3226.07 1225.82 3217.81 1235.41 3216.79 1236.59 3215.86 1237.52 3215 1238.22Z" fill="url(#fill30)" fill-rule="evenodd"/><path d="M3233.94 1547.59C3233.94 1547.59 3227.07 1554.78 3217.59 1550.8 3217.13 1547.15 3216.24 1542.53 3215 1537.17 3218.5 1538.4 3224.59 1539.17 3232.71 1535 3233.66 1542.61 3234.18 1547.54 3233.94 1547.59Z" fill="url(#fill31)" fill-rule="evenodd"/><path d="M3217.2 1551.14C3217.2 1551.14 3214.39 1555.83 3213.09 1561.05 3212.6 1563 3214.29 1563.96 3215.94 1564.35 3224.95 1566.48 3232.86 1566.98 3241.48 1563.23 3242.68 1562.7 3243.28 1561.37 3242.87 1560.14 3241.78 1556.87 3239.12 1550.79 3233.87 1548 3233.87 1548 3228.17 1552.34 3217.2 1551.14Z" fill="url(#fill32)" fill-rule="evenodd"/><path d="M3140.4 1525.55C3140.4 1525.55 3140.27 1533.29 3140 1537.16 3139.88 1538.85 3157.78 1547.7 3162 1536.18L3159.83 1526.8 3144.91 1521 3140.4 1525.55Z" fill="url(#fill33)" fill-rule="evenodd"/><path d="M3104.1 1555.42C3138.02 1558.1 3157.1 1556.69 3162.86 1556.1 3163.98 1555.98 3164.85 1555.09 3164.92 1553.99 3165.6 1543.7 3161.53 1536.46 3161.53 1536.46 3161.74 1536.84 3159.44 1538.44 3159.14 1538.63 3158.1 1539.26 3156.95 1539.69 3155.76 1539.98 3151.43 1541.03 3147.79 1539.54 3143.7 1538.31 3135.21 1535.75 3125.6 1533.4 3116.91 1536.42 3111.53 1538.3 3107.56 1542.42 3105.59 1547.68 3105.43 1548.11 3103.56 1555.38 3104.1 1555.42Z" fill="url(#fill34)" fill-rule="evenodd"/><path d="M3136 1219.54 3148.66 1215C3148.66 1215 3151.52 1217.02 3154.02 1218.56 3156.31 1219.96 3158.84 1221.32 3160.1 1221.36 3162.19 1221.42 3160.28 1224.43 3158.05 1224.63 3157.44 1224.68 3156.81 1224.52 3156.22 1224.03 3156.76 1224.48 3156.85 1225.06 3157.01 1225.69 3157.16 1226.3 3157.42 1226.84 3157.66 1227.44 3157.7 1227.53 3157.75 1227.63 3157.81 1227.76 3157.81 1227.76 3157.58 1229.83 3156.1 1230.18 3154.62 1230.53 3154.01 1229.96 3153.74 1230.27 3153.47 1230.59 3152.8 1232.2 3151.69 1232.42 3150.58 1232.65 3149.5 1232.04 3148.92 1232.58 3148.34 1233.12 3147.79 1234.07 3146.98 1234.38 3146.18 1234.68 3144.73 1234 3144.39 1234.33 3144.31 1234.41 3144.22 1234.54 3144.12 1234.7 3143.85 1235.11 3143.48 1235.7 3142.97 1235.91 3142.8 1235.99 3142.62 1236.02 3142.43 1235.99 3141.4 1235.86 3140.29 1235.67 3140.29 1235.67L3140.06 1235.78C3139.85 1235.59 3139.73 1235.45 3139.73 1235.45 3139.73 1235.45 3139.57 1235.26 3139.34 1234.93 3138.89 1234.54 3138.48 1234.09 3138.61 1233.83 3137.73 1232.39 3136.64 1230.2 3136.63 1228.08 3136.59 1224.52 3136 1219.54 3136 1219.54Z" fill="url(#fill35)" fill-rule="evenodd"/><path d="M3125.53 1149.9C3125.84 1147.38 3126.31 1144.86 3126.99 1142.4 3126.93 1142.32 3126.87 1142.25 3126.82 1142.17 3131.96 1123.22 3148.4 1099 3148.4 1099L3182 1099C3178.92 1115.94 3158.02 1145.2 3149.12 1157.07 3149.48 1162.31 3149.59 1169.77 3148.75 1179.55 3148.12 1186.91 3147.99 1193.58 3148.09 1199.17 3148.65 1205.07 3149.25 1210.99 3149.37 1216.82 3149.19 1217.09 3148.98 1217.33 3148.8 1217.58 3148.54 1217.65 3148.28 1217.71 3148.02 1217.79 3144.66 1218.72 3141.5 1220.01 3138.29 1221.51 3138.06 1221.62 3137.57 1221.87 3137.31 1222 3137.27 1221.81 3137.24 1221.64 3137.21 1221.45 3137.16 1221.15 3137.08 1220.85 3137.01 1220.56 3132.96 1206.15 3128.73 1192.87 3126.52 1177.72 3125.27 1169.15 3124.39 1159.09 3125.53 1149.9Z" fill="url(#fill36)" fill-rule="evenodd"/><path d="M3171.23 1054.76C3171.23 1054.76 3174.53 1085.73 3165 1089.6 3165 1089.6 3179.83 1105.81 3195 1082.05 3195 1082.05 3191.97 1065.76 3195 1053L3171.23 1054.76Z" fill="url(#fill37)" fill-rule="evenodd"/><path d="M3151 1155C3151.2 1155.1 3151.88 1155.46 3153 1156 3152.18 1155.71 3151.5 1155.38 3151 1155Z" fill="url(#fill38)" fill-rule="evenodd"/><path d="M3214 1166C3214.29 1166.34 3214.66 1166.67 3215 1167 3214.49 1166.47 3214.14 1166.13 3214 1166Z" fill="url(#fill39)" fill-rule="evenodd"/><path d="M3141.22 1236.2C3141.51 1235.03 3141.82 1233.87 3142.13 1232.7 3182.83 1238.19 3205.26 1231.46 3214.97 1227 3214.95 1227.07 3214.93 1227.15 3214.91 1227.22 3214.82 1227.6 3214.72 1227.98 3214.72 1228.37 3214.71 1230.25 3216.96 1233.33 3217.78 1235.23 3218.7 1237.36 3219.54 1239.52 3220.31 1241.71 3222.64 1248.26 3224.44 1255 3225.9 1261.8 3230.92 1285.18 3232 1309.35 3231.18 1333.2 3231.13 1334.62 3231.08 1336.04 3231.01 1337.46 3227.61 1413.58 3230.52 1508.61 3232.58 1526.66 3233.62 1534.86 3234.2 1540.19 3233.94 1540.24 3233.94 1540.24 3226.39 1548 3215.98 1543.7 3215.48 1539.76 3214.49 1534.78 3213.13 1529 3213.13 1529 3202.17 1485.26 3194.21 1445.96 3189.92 1424.78 3185.27 1379.11 3180.03 1333.79 3180.02 1333.75 3180.02 1333.74 3180.02 1333.74 3174.95 1357.63 3169.47 1380.57 3167.31 1389.47 3167.22 1389.83 3167.14 1390.21 3167.08 1390.58 3166.72 1392.69 3166.76 1394.85 3167.21 1396.95 3174.72 1432.56 3168.56 1472 3162.54 1507.43 3161.09 1515.96 3159.19 1523.33 3160.26 1531.92 3153.57 1535.44 3139.78 1532.92 3140.04 1531.36 3144.13 1506.87 3139.7 1480.66 3137.24 1456.16 3134.2 1425.71 3132.81 1395.15 3132.2 1364.56 3130.78 1293.7 3137.15 1254.24 3140.95 1237.34 3141.04 1236.96 3141.13 1236.58 3141.22 1236.2Z" fill="url(#fill40)" fill-rule="evenodd"/><path d="M3161 1002.05C3161 1002.05 3185.36 977.32 3209.93 995.948 3218.73 1001.97 3219.65 1010.52 3219.65 1010.52 3219.65 1010.52 3230.03 1011.46 3228.92 1027.58 3227.8 1043.7 3204.76 1063 3204.76 1063L3200.29 1021.98 3161 1002.05Z" fill="url(#fill41)" fill-rule="evenodd"/><path d="M3159.56 1017C3159.56 1017 3161.74 1031.45 3157.74 1041.78 3153.74 1052.11 3156.41 1066.18 3168.2 1076 3168.2 1076 3197.83 1076.47 3206.83 1061.19 3206.83 1061.19 3209.08 1054.21 3210.79 1049.84 3212.5 1045.47 3219.55 1044.13 3217.69 1036.35 3215.83 1028.56 3211.69 1032.86 3211.69 1032.86 3211.69 1032.86 3211.77 1027.04 3211.43 1022.12 3211.1 1017.2 3159.56 1017 3159.56 1017Z" fill="url(#fill42)" fill-rule="evenodd"/><path d="M3210.26 1040.02C3210.26 1040.02 3201.81 1058.27 3199.28 1058.97 3196.75 1059.66 3196.46 1049.89 3197.54 1045.23 3198.61 1040.57 3200.21 1030.05 3192.77 1026.21 3185.34 1022.38 3157.95 1043.43 3132 1019.64 3134.46 1021.88 3140.19 1020.46 3142.88 1019.39 3148.27 1017.23 3152.42 1013.21 3155.18 1008.72 3160.36 1000.29 3170.08 995.143 3179.83 995.003 3201.27 994.695 3220.26 1019.62 3210.26 1040.02Z" fill="url(#fill43)" fill-rule="evenodd"/><path d="M3167 1128.92 3171 1136 3181 1130.53 3180.78 1120.37 3180.36 1101.74 3174.46 1101 3169.26 1120.44C3169.26 1120.44 3169.26 1120.44 3169.26 1120.45L3167 1128.92Z" fill="#F96969" fill-rule="evenodd"/><path d="M3118.89 1349.58C3131.13 1362.24 3148.12 1365.79 3157.65 1366.76 3161.52 1367.15 3164.94 1364.25 3165.17 1360.37 3165.42 1356.17 3165.79 1350.96 3166.21 1345.46L3166.21 1345.45C3167.54 1328.07 3169.37 1307.82 3169.37 1307.82 3170.82 1320.2 3172.84 1333.24 3175.66 1346.34 3176.77 1351.54 3178.01 1356.74 3179.38 1361.92 3180.2 1365.01 3183.05 1367.12 3186.24 1367 3198.63 1366.54 3229.38 1364.16 3247.88 1352.07 3250.29 1350.5 3251.47 1347.61 3250.83 1344.81 3245.57 1321.87 3221.77 1214.62 3226.16 1172.78 3226.5 1170.71 3226.82 1168.63 3227.14 1166.53 3227.42 1164.66 3227.69 1162.77 3227.94 1160.88 3228.23 1158.79 3228.5 1156.7 3228.75 1154.61 3228.76 1154.53 3228.77 1154.46 3228.78 1154.39L3228.78 1154.38C3229.07 1151.93 3229.35 1149.49 3229.58 1147.05 3229.63 1146.6 3229.67 1146.14 3229.71 1145.69 3230.19 1140.55 3230.54 1135.47 3230.7 1130.56 3230.8 1127.49 3230.85 1124.49 3230.8 1121.58 3235.87 1122.72 3240.34 1123.06 3240.34 1120.71L3240.34 1120.71C3240.34 1120.45 3240.32 1120.15 3240.27 1119.82 3240.27 1119.81 3240.27 1119.78 3240.26 1119.76 3239.84 1116.43 3237.52 1109.71 3235.29 1104.19L3235.29 1104.18C3234.11 1101.29 3232.95 1098.73 3232.11 1097.17 3231.3 1095.66 3229.98 1094.49 3228.38 1093.87L3221.6 1091.23 3213.92 1088.24 3208.99 1086.32 3208.97 1086.3C3205.63 1084.63 3202.25 1083.23 3199.26 1082.52L3199.24 1082.51 3199.2 1082.5 3199.2 1082.51C3197.75 1082.17 3196.38 1081.97 3195.14 1082 3195.14 1082 3189.14 1091.44 3174.84 1091.99 3166.65 1091.99 3169.51 1083.35 3170 1082.09 3168.73 1084.74 3164.88 1087.3 3162.61 1088.75 3161.38 1089.53 3160.11 1090.24 3158.8 1090.88 3158.78 1090.91 3158.76 1090.91 3158.75 1090.91 3158.54 1091.02 3158.33 1091.13 3158.12 1091.21 3158.11 1091.22 3158.09 1091.22 3158.09 1091.22 3157.79 1091.37 3157.49 1091.52 3157.18 1091.69 3155.26 1092.65 3152.89 1093.89 3150.96 1095.34 3150.96 1095.34 3134.44 1112.03 3138.44 1146.25 3138.58 1152.95 3139.24 1160.35 3140.81 1168.01 3141.19 1169.84 3141.48 1171.68 3141.7 1173.55 3141.71 1173.76 3141.74 1173.97 3141.76 1174.18 3142.08 1176.93 3142.35 1179.69 3142.63 1182.45 3142.63 1182.46 3142.63 1182.47 3142.63 1182.47 3143.09 1187.21 3143.48 1191.94 3143.77 1196.5 3143.94 1199.34 3144.08 1202.13 3144.17 1204.81 3144.4 1211.57 3144.58 1218.38 3143.49 1225.08 3130.46 1254.89 3123.1 1297.15 3119.53 1323.34 3119.5 1323.51 3119.48 1323.68 3119.46 1323.85 3118.2 1333.15 3117.42 1340.36 3117.04 1344.18 3116.83 1346.17 3117.5 1348.15 3118.89 1349.58Z" fill="url(#fill44)" fill-rule="evenodd"/><path d="M3173 1095.53 3174.11 1101.23 3180.18 1102 3184 1096.19 3178.4 1090.06C3178.39 1090.05 3178.38 1090.03 3178.37 1090.03 3178.36 1090.01 3178.35 1090 3178.35 1090 3178.35 1090 3178.34 1090.01 3178.33 1090.02L3173.04 1095.49C3173.02 1095.5 3173.01 1095.52 3173 1095.53Z" fill="url(#fill45)" fill-rule="evenodd"/><path d="M3171 1136 3181.22 1130.59 3203.08 1118.99 3194.2 1107.49 3205 1091.55 3196.03 1080.71 3195.45 1080C3195.45 1080 3195.37 1080.41 3195.23 1081.16 3194.65 1084.08 3192.83 1092.38 3188.98 1102.76 3186.92 1108.28 3184.3 1114.38 3180.99 1120.53 3178.17 1125.78 3174.86 1131.04 3171 1136Z" fill="#F99BF0" fill-rule="evenodd"/><path d="M3156 1109.51 3166.98 1128.9 3171 1136C3170.17 1130.49 3169.61 1125.27 3169.25 1120.38 3169.25 1120.38 3169.25 1120.38 3169.25 1120.38 3168.75 1113.51 3168.65 1107.31 3168.76 1101.95 3168.91 1094.73 3169.44 1088.99 3169.91 1085.21 3170.23 1082.61 3170.52 1080.9 3170.63 1080.27 3170.67 1080.09 3170.68 1080 3170.68 1080L3170.66 1080.02 3170.54 1080.15 3164.43 1086.05 3163.57 1086.89 3164.69 1099.75 3156 1109.51Z" fill="#F99BF0" fill-rule="evenodd"/><path d="M3180 1101.78 3180.45 1121C3183.99 1114.58 3186.8 1108.21 3189 1102.45 3187.63 1100.25 3185.81 1097.98 3184.06 1096L3180 1101.78Z" fill="#B7E6EA" fill-rule="evenodd"/><path d="M3178 1090.48C3178 1090.48 3178.01 1090.48 3178.02 1090.5 3178.31 1090.76 3180.9 1093.16 3183.64 1096.27 3185.29 1098.14 3187 1100.27 3188.28 1102.34 3188.85 1103.25 3189.32 1104.14 3189.69 1105 3189.69 1105 3196.28 1094.23 3194.78 1080 3194.78 1080 3186.46 1088.28 3178 1090.48Z" fill="#E9FEFF" fill-rule="evenodd"/><path d="M3169 1120.44C3169 1120.44 3169 1120.44 3169 1120.45 3169.37 1125.31 3169.95 1130.51 3170.81 1136 3174.74 1130.99 3178.12 1125.67 3181 1120.37L3180.57 1101.74 3174.42 1101 3169 1120.44Z" fill="url(#fill46)" fill-rule="evenodd"/><path d="M3168.56 1121 3174 1101.5 3172.86 1096C3171.32 1097.79 3169.63 1100 3168.04 1102.59 3167.93 1107.95 3168.03 1114.14 3168.56 1121Z" fill="#B7E6EA" fill-rule="evenodd"/><path d="M3167.33 1104C3167.66 1103.38 3168 1102.78 3168.34 1102.2 3169.83 1099.67 3171.42 1097.52 3172.88 1095.78 3172.88 1095.77 3172.89 1095.75 3172.91 1095.74 3175.57 1092.56 3177.76 1090.76 3177.98 1090.59 3177.99 1090.58 3178 1090.57 3178 1090.57 3172.41 1086.68 3170.25 1081 3170.25 1081 3170.23 1081.04 3170.2 1081.08 3170.18 1081.12 3165.57 1088.6 3167.33 1104 3167.33 1104Z" fill="#E9FEFF" fill-rule="evenodd"/><path d="M3164 1178.62C3163.99 1180.25 3165.09 1181.76 3166.47 1181.97 3167.85 1182.19 3168.99 1181.03 3169 1179.38 3169.01 1177.73 3167.89 1176.23 3166.51 1176.02 3165.14 1175.82 3164.01 1176.98 3164 1178.62Z" fill="#F99BF0" fill-rule="evenodd"/><path d="M3166 1149.72C3165.99 1151.37 3167.09 1152.83 3168.47 1152.99 3169.86 1153.15 3170.99 1151.93 3171 1150.27 3171.01 1148.61 3169.89 1147.16 3168.51 1147.01 3167.13 1146.87 3166.01 1148.08 3166 1149.72Z" fill="#F99BF0" fill-rule="evenodd"/><path d="M3161 1208.51C3160.98 1210.14 3162.3 1211.69 3163.96 1211.96 3165.62 1212.23 3166.99 1211.12 3167 1209.48 3167.01 1207.84 3165.68 1206.3 3164.02 1206.04 3162.37 1205.78 3161.02 1206.89 3161 1208.51Z" fill="#F99BF0" fill-rule="evenodd"/><path d="M3176 1346.35C3177.11 1351.54 3178.34 1356.75 3179.71 1361.92 3180.53 1365.01 3183.36 1367.12 3186.53 1367 3198.87 1366.54 3229.48 1364.16 3247.9 1352.08 3250.29 1350.5 3251.47 1347.62 3250.83 1344.82 3245.6 1321.9 3221.9 1214.71 3226.27 1172.89 3226.61 1170.83 3226.93 1168.74 3227.25 1166.65 3227.53 1164.78 3227.8 1162.88 3228.05 1161 3228.05 1161 3215.33 1203.52 3226.31 1269.98 3237.29 1336.45 3223.26 1354.15 3202.75 1356.67 3182.24 1359.2 3176 1346.35 3176 1346.35Z" fill="url(#fill47)" fill-rule="evenodd"/><path d="M3118.89 1349.77C3131.08 1362.44 3147.99 1365.99 3157.47 1366.96 3161.33 1367.36 3164.74 1364.46 3164.97 1360.57 3165.21 1356.37 3165.58 1351.14 3166 1345.63 3165.96 1345.97 3163.99 1362.26 3148.42 1359.76 3132.87 1357.25 3117.45 1340 3119.45 1324 3118.19 1333.31 3117.42 1340.53 3117.03 1344.36 3116.84 1346.35 3117.51 1348.33 3118.89 1349.77Z" fill="url(#fill48)" fill-rule="evenodd"/><path d="M3225 1239 3228.61 1237.83C3238.09 1227.52 3248.7 1217.26 3255.96 1205.56 3264.96 1191.04 3273.83 1174.01 3271.67 1156.4 3271.54 1155.3 3271.37 1154.2 3271.08 1153.13 3268.18 1142.45 3262.03 1132.9 3255.5 1124 3256.12 1124.94 3291.09 1178.62 3225 1239Z" fill="url(#fill49)" fill-rule="evenodd"/><path d="M3232.9 1232C3232.9 1232 3230.1 1236.1 3224.64 1236.16 3219.17 1236.22 3223.57 1239.04 3225.67 1239 3227.78 1238.96 3233.72 1237.76 3234.77 1234.85 3235.82 1231.95 3232.9 1232 3232.9 1232Z" fill="url(#fill50)" fill-rule="evenodd"/><path d="M3231.36 1227C3231.36 1227 3228.45 1232.76 3222.02 1233.21 3215.6 1233.66 3221.03 1237.19 3223.51 1236.99 3225.98 1236.8 3232.87 1234.76 3233.83 1230.75 3234.79 1226.74 3231.36 1227 3231.36 1227Z" fill="url(#fill51)" fill-rule="evenodd"/><path d="M3229.81 1222C3229.81 1222 3226.35 1228.92 3218.63 1229.42 3210.91 1229.91 3217.46 1234.21 3220.43 1233.99 3223.41 1233.78 3231.67 1231.38 3232.8 1226.55 3233.93 1221.71 3229.81 1222 3229.81 1222Z" fill="url(#fill52)" fill-rule="evenodd"/><path d="M3219.22 1225.26C3223.88 1224.95 3226.81 1222.23 3228.21 1220.51 3228.21 1220.51 3228.06 1217 3228.06 1217 3228.55 1217.54 3229.04 1218.09 3229.59 1218.57 3230.11 1219.04 3230.76 1219.32 3231.28 1219.76 3232.17 1220.51 3232.08 1221.82 3231.82 1222.82 3230.79 1226.79 3223.45 1228.8 3220.81 1228.99 3218.17 1229.19 3212.37 1225.7 3219.22 1225.26Z" fill="url(#fill53)" fill-rule="evenodd"/><path d="M2662 1018.05 2707.05 1018.05 2707.05 973 2733.95 973 2733.95 1018.05 2779 1018.05 2779 1043.95 2733.95 1043.95 2733.95 1089 2707.05 1089 2707.05 1043.95 2662 1043.95Z" fill="#FFC12E" fill-rule="evenodd"/><text fill="#FF6E6E" font-family="Avenir Next LT Pro,Avenir Next LT Pro_MSFontService,sans-serif" font-weight="700" font-size="64" transform="matrix(1 0 0 1 2803.75 1009)">Take</text><text fill="#FF6E6E" font-family="Avenir Next LT Pro,Avenir Next LT Pro_MSFontService,sans-serif" font-weight="700" font-size="64" transform="matrix(1 0 0 1 2803.75 1086)">Action</text></g></svg>