<svg width="1415" height="1406" xmlns="http://www.w3.org/2000/svg" xmlns:xlink="http://www.w3.org/1999/xlink" xml:space="preserve" overflow="hidden"><defs><clipPath id="clip0"><rect x="2256" y="479" width="1415" height="1406"/></clipPath><linearGradient x1="3295.96" y1="1093.37" x2="3291.04" y2="1120.63" gradientUnits="userSpaceOnUse" spreadMethod="reflect" id="fill1"><stop offset="0" stop-color="#DA9C68"/><stop offset="0.5" stop-color="#DA9C68" stop-opacity="0.498039"/><stop offset="1" stop-color="#DA9C68" stop-opacity="0"/></linearGradient><linearGradient x1="2665.95" y1="1104.74" x2="2674.05" y2="1133.26" gradientUnits="userSpaceOnUse" spreadMethod="reflect" id="fill2"><stop offset="0" stop-color="#B88F6C"/><stop offset="0.5" stop-color="#B88F6C" stop-opacity="0.498039"/><stop offset="1" stop-color="#B88F6C" stop-opacity="0"/></linearGradient><linearGradient x1="2711.21" y1="1104.29" x2="2701.79" y2="1130.71" gradientUnits="userSpaceOnUse" spreadMethod="reflect" id="fill3"><stop offset="0" stop-color="#B88F6C"/><stop offset="0.5" stop-color="#B88F6C" stop-opacity="0.498039"/><stop offset="1" stop-color="#B88F6C" stop-opacity="0"/></linearGradient><linearGradient x1="3058.91" y1="1134.15" x2="3030.09" y2="1144.85" gradientUnits="userSpaceOnUse" spreadMethod="reflect" id="fill4"><stop offset="0" stop-color="#D38278"/><stop offset="0.5" stop-color="#E09D92" stop-opacity="0.498039"/><stop offset="1" stop-color="#EEB9AD" stop-opacity="0"/></linearGradient><linearGradient x1="3017.56" y1="1103.56" x2="3018.44" y2="1132.44" gradientUnits="userSpaceOnUse" spreadMethod="reflect" id="fill5"><stop offset="0" stop-color="#DA9C68"/><stop offset="0.5" stop-color="#DA9C68" stop-opacity="0.498039"/><stop offset="1" stop-color="#DA9C68" stop-opacity="0"/></linearGradient><linearGradient x1="3067.44" y1="1103.56" x2="3066.56" y2="1132.44" gradientUnits="userSpaceOnUse" spreadMethod="reflect" id="fill6"><stop offset="0" stop-color="#DA9C68"/><stop offset="0.5" stop-color="#DA9C68" stop-opacity="0.498039"/><stop offset="1" stop-color="#DA9C68" stop-opacity="0"/></linearGradient></defs><g clip-path="url(#clip0)" transform="translate(-2256 -479)"><path d="M3056.85 1737.8C2902.72 1762.76 2776.5 1758.85 2634.22 1726.3 2470.6 1688.88 2295.41 1558.22 2303.25 1364.95 2311.1 1171.68 2412.08 1119.57 2487.34 1113.71 2543.49 1109.35 2598.38 1128.82 2651.96 1146.14 2790.77 1190.98 2888.4 1211.38 3033.69 1198.24 3257.88 1177.97 3381.76 1060.95 3502.14 1122.92 3606.44 1176.61 3659.68 1335.9 3551.66 1481.1 3433.56 1639.84 3263.79 1704.3 3056.85 1737.8Z" fill="#DDEDEE" fill-rule="evenodd"/><path d="M3073.22 1732.12C2920.61 1765.43 2794.31 1768.4 2650.4 1743.66 2484.91 1715.22 2302.77 1594.32 2300.05 1400.96 2297.34 1207.6 2395.38 1150.08 2470.23 1140.13 2526.09 1132.72 2581.98 1149.17 2636.46 1163.53 2777.57 1200.74 2876.22 1215.79 3020.64 1194.76 3243.49 1162.32 3360.85 1038.75 3484.49 1094.05 3591.6 1141.97 3653.48 1298.09 3553.49 1448.92 3444.18 1613.82 3278.11 1687.41 3073.22 1732.12Z" stroke="#DDEDEE" stroke-width="10.3125" stroke-miterlimit="8" fill="none" fill-rule="evenodd"/><path d="M3395 1003 3656 1003C3656 1003 3644.3 958.907 3607.4 981.405 3590.3 921.116 3527.3 934.613 3512.9 971.508 3503.9 945.414 3476.25 961.61 3478.05 976.906 3451.05 949.01 3405.22 969.471 3395 1003Z" fill="#DDEDEE" fill-rule="evenodd"/><path d="M2757 746 2629 746C2629 746 2634.74 724.305 2652.84 735.374 2661.22 705.707 2692.12 712.35 2699.18 730.505 2703.59 717.663 2717.15 725.635 2716.27 733.161 2729.51 719.432 2751.99 729.5 2757 746Z" fill="#DDEDEE" fill-rule="evenodd"/><path d="M2312 931C2312 931 2516.24 931 2558 931 2558 901.956 2508.98 873.82 2465.41 906.494 2463.59 842.964 2371.01 849.314 2364.65 913.755 2321.08 897.418 2312 931 2312 931Z" fill="#DDEDEE" fill-rule="evenodd"/><path d="M3290.84 1036C3277.34 1043.19 3275.82 1066.27 3280.17 1083.48 3284.52 1100.69 3316.18 1162.1 3298.99 1200 3341.38 1199.34 3357.97 1173.52 3357.97 1173.52 3357.97 1173.52 3366.34 1122.25 3355.24 1100.47 3344.15 1078.69 3290.84 1036 3290.84 1036Z" fill="#412308" fill-rule="evenodd"/><path d="M3342 1211.54C3333.43 1210.32 3328.15 1209.22 3311.12 1231.68 3293.5 1254.91 3286.5 1269.2 3271.33 1289.87 3256.21 1310.46 3261.25 1320.48 3273.81 1325.44 3295.16 1333.85 3320.96 1334 3320.96 1334L3306.56 1300.56 3342 1211.54Z" fill="#E5AC2F" fill-rule="evenodd"/><path d="M3511 1852C3511 1864.7 3443.4 1875 3360 1875 3276.61 1875 3209 1864.7 3209 1852 3209 1839.3 3276.61 1829 3360 1829 3443.4 1829 3511 1839.3 3511 1852Z" fill="#76B6BA" fill-rule="evenodd" fill-opacity="0.231373"/><path d="M3338.31 1818 3343 1847 3275 1847C3275 1847 3275 1842.56 3280.73 1840.47 3286.46 1838.38 3315.65 1833.42 3322.42 1829.5 3329.19 1825.58 3328.67 1818.78 3328.67 1818.78L3338.31 1818Z" fill="#0E1920" fill-rule="evenodd"/><path d="M3452.31 1830 3457 1859 3389 1859C3389 1859 3389 1854.56 3394.73 1852.47 3400.46 1850.38 3429.65 1845.42 3436.42 1841.5 3443.19 1837.58 3442.67 1830.78 3442.67 1830.78L3452.31 1830Z" fill="#0E1920" fill-rule="evenodd"/><path d="M3291.47 1411C3288.08 1434.42 3304.05 1579.36 3311.31 1658.91 3318.57 1738.45 3326.79 1823 3326.79 1823L3340.34 1820.56C3340.34 1820.56 3366.47 1642.32 3365.99 1599.86 3365.51 1557.4 3330.18 1419.78 3330.18 1419.78L3291.47 1411Z" fill="#345C68" fill-rule="evenodd"/><path d="M3301 1418.16C3302.47 1434.25 3345.94 1568.86 3378.67 1659.08 3411.4 1749.3 3438.48 1834 3438.48 1834L3459 1834C3459 1834 3429.48 1604.46 3421.66 1554.23 3413.84 1504 3417.75 1448.89 3398.7 1405.48 3376.72 1387.92 3301 1418.16 3301 1418.16Z" fill="#3E6E7D" fill-rule="evenodd"/><path d="M3345.59 1202.23C3339.93 1203.8 3334.18 1212.77 3319.06 1230.91 3307.83 1244.38 3286.5 1263.32 3287.67 1274.08 3288.84 1284.85 3297.71 1294.44 3305.42 1295.85 3302.15 1317.61 3289.31 1385.25 3283 1411.93 3297.87 1435.89 3382.03 1430.04 3403 1403.16 3395.99 1388.19 3389.02 1327.91 3391.13 1299.59 3393.23 1271.27 3390.88 1238.19 3385.36 1220.33 3379.96 1202.8 3358.91 1198.53 3345.59 1202.23Z" fill="#F1CC30" fill-rule="evenodd"/><path d="M3372.97 1218.95C3376.74 1212.85 3382.48 1211.04 3387.66 1212.46 3394.38 1214.3 3400.65 1223.77 3399.95 1248.94 3399.58 1262.29 3387.76 1341.82 3379.34 1349.75 3368.01 1360.41 3344.19 1342.55 3349.86 1329.04 3355.53 1315.54 3360.96 1301.5 3364.23 1282.31 3368.16 1259.25 3368.5 1226.16 3372.97 1218.95Z" fill="#E5AC2F" fill-rule="evenodd"/><path d="M3300 1298.47C3286.76 1296.29 3277.2 1302.18 3282.48 1307 3289.96 1305.95 3300 1298.47 3300 1298.47Z" fill="#EBC280" fill-rule="evenodd"/><path d="M3367.43 1314.55C3358.81 1310.28 3340.69 1304.04 3301.16 1298 3289.99 1298.21 3282 1307.78 3282 1307.78 3282 1307.78 3328.65 1340.15 3345.27 1349.09 3361.89 1358.03 3375.43 1359.25 3381.79 1347.06 3388.15 1334.86 3367.43 1314.55 3367.43 1314.55Z" fill="#EDB96D" fill-rule="evenodd"/><path d="M3316 1301.94C3341.09 1293.75 3377.28 1297.95 3390.42 1318.02 3401.9 1335.57 3389.76 1349.68 3376.39 1337.32 3364.06 1325.92 3359.8 1315.39 3340.67 1309.84 3333.01 1306.33 3316 1301.94 3316 1301.94Z" fill="#EBC280" fill-rule="evenodd"/><path d="M3334.45 1215.51C3329.32 1221.71 3324.44 1230.17 3331.61 1232.66 3338.78 1235.14 3358.49 1223.78 3364.23 1210.28 3369.96 1196.78 3359.93 1157 3359.93 1157L3342.36 1157.36C3342.36 1157.36 3343.3 1187.61 3343.3 1196.95 3343.3 1202.25 3341.04 1207.56 3334.45 1215.51Z" fill="#DAA05E" fill-rule="evenodd"/><path d="M3375.1 1171.41C3375.1 1171.41 3306.97 1198.88 3292.97 1183.12 3290.44 1180.27 3289.07 1177.21 3286.43 1168.87 3285.67 1166.45 3283.05 1156.55 3282.47 1153.95 3277.14 1130.1 3274.35 1098.99 3280.49 1078.51 3290.64 1044.69 3321.36 1018.73 3353.63 1031.17 3385.89 1043.61 3459 1070.19 3375.1 1171.41Z" fill="#EBC280" fill-rule="evenodd"/><path d="M3293.69 1109.45C3293.76 1109.42 3293.78 1109.4 3293.86 1109.37L3292.27 1105C3283.25 1114.86 3272.69 1121.75 3263 1129.14 3282.09 1149.17 3302.48 1132.21 3298.5 1108.4 3296.57 1108.38 3294.72 1109.02 3293.69 1109.45 3292.54 1110.08 3292.71 1109.87 3293.69 1109.45Z" fill="#EBC280" fill-rule="evenodd"/><path d="M3287.27 1095C3280.54 1105.23 3278.23 1115.29 3292.8 1118.63 3307.36 1121.96 3304.83 1101.88 3304.83 1101.88 3304.83 1101.88 3293.91 1096.65 3287.27 1095Z" fill="url(#fill1)" fill-rule="evenodd"/><path d="M3283.02 1110.79C3283.18 1112.16 3284.42 1113.14 3285.79 1112.98 3287.16 1112.82 3288.14 1111.58 3287.98 1110.21 3287.82 1108.84 3286.58 1107.86 3285.21 1108.02 3283.84 1108.18 3282.86 1109.42 3283.02 1110.79Z" fill="#643619" fill-rule="evenodd"/><path d="M3290.99 1095.93C3307.33 1100.86 3307.97 1104.62 3300.1 1102.29 3289.36 1099.12 3279.84 1092.57 3290.99 1095.93Z" fill="#994D1D" fill-rule="evenodd"/><path d="M3300 1159.68C3303.52 1159.24 3306.38 1157.68 3309.02 1155.8 3310.35 1154.87 3311.58 1153.81 3312.79 1152.71 3313.97 1151.59 3315.07 1150.4 3316 1149 3315.81 1150.67 3314.93 1152.21 3313.91 1153.58 3312.9 1154.97 3311.6 1156.16 3310.17 1157.2 3308.73 1158.21 3307.13 1159.08 3305.36 1159.55 3303.62 1160.04 3301.71 1160.2 3300 1159.68Z" fill="#994D1D" fill-rule="evenodd"/><path d="M2786 1866C2786 1876.49 2729.81 1885 2660.5 1885 2591.19 1885 2535 1876.49 2535 1866 2535 1855.51 2591.19 1847 2660.5 1847 2729.81 1847 2786 1855.51 2786 1866Z" fill="#76B6BA" fill-rule="evenodd" fill-opacity="0.231373"/><path d="M2607.54 1846C2607.54 1846 2597.16 1867.46 2602.55 1869.67 2607.94 1871.88 2632.42 1871.86 2629.81 1865.58 2627.19 1859.3 2616.86 1846.57 2616.86 1846.57L2607.54 1846Z" fill="#254148" fill-rule="evenodd"/><path d="M2684.38 1844C2677.56 1853.68 2668.61 1867.91 2678.16 1868.66 2687.71 1869.42 2743.45 1868.66 2749.98 1868.66 2750.38 1863.47 2746.08 1863.65 2705.5 1857.52 2699.82 1856.66 2701.66 1846.12 2701.66 1846.12L2684.38 1844Z" fill="#254148" fill-rule="evenodd"/><path d="M2772.76 1645.56C2767.15 1616.96 2746.77 1511.47 2736.25 1457 2719.51 1491.18 2677.42 1501.63 2653 1512.19 2673.48 1566.16 2701.87 1639.75 2708.42 1659.25 2710.59 1665.71 2711.48 1671.93 2708.42 1682.07 2705.35 1692.22 2675.22 1846.9 2675.22 1846.9L2708.93 1854C2708.93 1854 2766.64 1702.36 2771.74 1686.64 2776.85 1670.91 2774.96 1656.74 2772.76 1645.56Z" fill="#345C68" fill-rule="evenodd"/><path d="M2737.32 1429C2735.37 1429.36 2617.36 1442.35 2598.05 1443.87 2594.25 1443.52 2591.15 1443.13 2589 1442.77L2598.15 1853 2627.12 1849.45C2627.12 1849.45 2655.55 1561.4 2661.12 1509.86 2661.5 1509.69 2727.65 1496.6 2736.16 1457.07 2738.04 1448.33 2738.58 1438.97 2737.32 1429Z" fill="#3E6E7D" fill-rule="evenodd"/><path d="M2832.55 1262.45C2833.55 1260.89 2831 1233.08 2831 1233.08L2839.15 1213.03 2851.46 1198.34 2855.23 1199.13 2846.82 1214.04 2842.51 1225.2 2854.99 1207.58 2870.14 1184 2874.29 1186.32 2859.63 1215.79 2878.76 1189.81 2880.34 1191.59 2866.31 1218.72 2882.52 1201.89 2884 1205.33 2871.31 1223.39 2879.56 1213.84 2880.23 1216.73 2862.36 1239.27 2838.1 1266 2832.55 1262.45Z" fill="#ECC78E" fill-rule="evenodd"/><path d="M2671 1204C2700.62 1208.58 2724.56 1220.05 2738.09 1246.69 2750.06 1270.25 2766.88 1308.36 2769.1 1312.78 2771.31 1317.2 2775.47 1316.37 2779.62 1311.68 2783.78 1306.98 2829.21 1245.69 2829.21 1245.69 2829.21 1245.69 2839.74 1249.01 2845 1258.67 2826.99 1300.36 2799.57 1355.58 2794.58 1362.76 2789.6 1369.94 2776.85 1370.49 2770.21 1366.63 2763.56 1362.76 2717.02 1330.46 2717.02 1330.46 2717.02 1330.46 2674.88 1221.12 2671 1204Z" fill="#91B242" fill-rule="evenodd"/><path d="M2635.53 1203.48C2607.02 1208 2582 1220.79 2582 1262.22 2582 1283.61 2585.26 1454.48 2585.26 1454.48 2585.26 1454.48 2695.11 1470.26 2737 1435 2732.81 1375.61 2719.27 1281.14 2714.12 1255.99 2706.76 1220.05 2685.33 1195.6 2635.53 1203.48Z" fill="#BFCD3C" fill-rule="evenodd"/><path d="M2571.91 1475C2572.13 1477.07 2594.01 1499.78 2594.01 1499.78L2601 1523.08 2600.53 1544.56 2596.65 1546.47 2593.53 1527.51 2589.44 1514.7 2590.89 1538.87 2594.19 1570.14 2588.9 1570.97 2581 1534.86 2582.49 1571 2579.84 1570.53 2573.04 1536.91 2570.65 1562.98 2566.9 1560.97 2565.33 1536.27 2564.8 1550.4 2562.17 1548.31 2562 1516.08 2564.5 1475.72 2571.91 1475Z" fill="#ECC78E" fill-rule="evenodd"/><path d="M2666.56 1198.92C2666.56 1198.92 2666.81 1212.21 2667 1214.78 2667.2 1217.35 2637.53 1222.88 2635.62 1208.49 2634.92 1203.25 2635 1195 2635 1195 2648.18 1199.95 2661.2 1199.48 2666.56 1198.92Z" fill="#DBBDA6" fill-rule="evenodd"/><path d="M2634.46 1195.75 2634 1179.86 2666.4 1179 2667 1199.66C2661.48 1200.23 2648.05 1200.7 2634.46 1195.75Z" fill="#BF9C80" fill-rule="evenodd"/><path d="M2698.16 1178.8C2698.16 1178.8 2730.26 1143.35 2730.99 1094.64 2731.78 1041.8 2699.9 1019.62 2659.86 1019.02 2615.86 1018.36 2595.5 1032.88 2581.67 1061.23 2569.23 1086.72 2573.46 1112.77 2583.47 1136.6 2598.98 1173.52 2633.1 1180.36 2698.16 1178.8Z" fill="#381C14" fill-rule="evenodd"/><path d="M2723.67 1099.04C2723.67 1144.26 2728.1 1159.3 2720.8 1172.43 2713.94 1184.8 2693.56 1201.84 2645.97 1190.01 2611.87 1181.53 2603.3 1155.5 2603.3 1155.5 2603.3 1155.5 2598.77 1158.16 2592.85 1157.38 2587.95 1156.74 2581.44 1151.92 2582.04 1143.35 2582.88 1131.4 2588.43 1127.79 2593.05 1126.52 2601.29 1124.25 2606.85 1132.03 2606.85 1132.03 2606.85 1132.03 2606.86 1114.83 2608.81 1102.18 2610.75 1089.53 2612.9 1076.26 2673.07 1072.6 2687.93 1071.7 2708.05 1071.33 2716.02 1075.11 2723.39 1078.6 2723.67 1086.88 2723.67 1099.04Z" fill="#DBBDA6" fill-rule="evenodd"/><path d="M2687 1133.4C2689.03 1132.23 2691.28 1131.38 2693.65 1131.09 2695.99 1130.82 2698.61 1131.1 2700.65 1132.88 2701.6 1133.78 2702.25 1135.32 2701.9 1136.69 2701.87 1137.39 2701.47 1137.95 2701.26 1138.58 2700.9 1139.1 2700.54 1139.63 2700.13 1140.09 2698.45 1141.93 2696.31 1143.04 2694.19 1144 2696.06 1142.56 2698.01 1141.24 2699.39 1139.42 2700.84 1137.72 2701.44 1135.19 2699.78 1133.84 2698.3 1132.4 2695.91 1132.03 2693.71 1132.1 2691.47 1132.18 2689.24 1132.74 2687 1133.4Z" fill="#926053" fill-rule="evenodd"/><path d="M2658.32 1164C2658.04 1166.73 2659.62 1169.16 2661.34 1170.91 2663.12 1172.68 2665.44 1173.8 2667.9 1174.16 2670.35 1174.61 2672.89 1174.44 2675.42 1174.07 2676.69 1173.89 2677.94 1173.54 2679.21 1173.29 2680.46 1172.95 2681.71 1172.56 2683 1172.26 2681.85 1172.91 2680.65 1173.47 2679.45 1174.08 2678.2 1174.5 2676.95 1175 2675.66 1175.34 2673.07 1176 2670.34 1176.18 2667.63 1175.81 2664.95 1175.29 2662.27 1174.01 2660.45 1171.8 2658.7 1169.7 2657.36 1166.7 2658.32 1164Z" fill="#926053" fill-rule="evenodd"/><path d="M2680.1 1107C2681.48 1112.25 2686.42 1127.53 2671.57 1130.65 2656.72 1133.77 2658.03 1115.17 2658.03 1115.17 2658.03 1115.17 2673.34 1108.55 2680.1 1107Z" fill="url(#fill2)" fill-rule="evenodd"/><path d="M2676.95 1106.29C2659.58 1109.5 2650.83 1117.23 2661.95 1115.83 2673.08 1114.44 2688.4 1104.16 2676.95 1106.29Z" fill="#5E443D" fill-rule="evenodd"/><path d="M2680 1130.6C2677.12 1123.72 2670.13 1124.86 2668 1132" stroke="#452F20" stroke-width="2.1123" stroke-miterlimit="8" fill="none" fill-rule="evenodd"/><path d="M2699.19 1106C2697.79 1110.12 2693.05 1125.06 2704.31 1128.57 2715.58 1132.08 2716 1112.83 2716 1112.83 2716 1112.83 2704.31 1107.71 2699.19 1106Z" fill="url(#fill3)" fill-rule="evenodd"/><path d="M2702.23 1106.15C2715.1 1108.36 2722.98 1116.17 2711.29 1113.42 2699.61 1110.68 2695.52 1105 2702.23 1106.15Z" fill="#5E443D" fill-rule="evenodd"/><path d="M2708 1128C2705.97 1120.94 2697.96 1121.92 2697 1127.43" stroke="#452F20" stroke-width="2.1123" stroke-miterlimit="8" fill="none" fill-rule="evenodd"/><path d="M2608 1077.56C2614.56 1083.95 2620.6 1086.74 2649.91 1087.83 2691.81 1089.4 2719.98 1079.57 2722 1077.56L2712.51 1054.31C2704.92 1051.63 2682.81 1044.91 2656.17 1052.51 2626.94 1060.85 2612.46 1071.36 2608 1077.56Z" fill="#381C14" fill-rule="evenodd"/><path d="M3158 1862C3158 1872.49 3102.04 1881 3033 1881 2963.96 1881 2908 1872.49 2908 1862 2908 1851.51 2963.96 1843 3033 1843 3102.04 1843 3158 1851.51 3158 1862Z" fill="#76B6BA" fill-rule="evenodd" fill-opacity="0.231373"/><path d="M2976.27 1837C2972.1 1844.27 2957.1 1860.52 2973.49 1861.56 2989.87 1862.6 3003.05 1862.46 2997.85 1853.37 2992.65 1844.27 2988.75 1837.26 2988.75 1837.26L2976.27 1837Z" fill="#0E1920" fill-rule="evenodd"/><path d="M3044.69 1827 3040 1856 3108 1856C3108 1856 3108 1851.56 3102.27 1849.47 3096.54 1847.38 3067.36 1842.41 3060.58 1838.49 3053.81 1834.58 3054.33 1827.78 3054.33 1827.78L3044.69 1827Z" fill="#0E1920" fill-rule="evenodd"/><path d="M3101.63 1446C3103.54 1473.26 3097.81 1575.59 3089.22 1643.02 3080.63 1710.45 3057.25 1830 3057.25 1830L3041.98 1827.61C3041.98 1827.61 3036.73 1628.68 3034.34 1584.2 3031.95 1539.73 3042.93 1482.82 3042.93 1482.82L3101.63 1446Z" fill="#1F3649" fill-rule="evenodd"/><path d="M3103 1437C3102.68 1447.64 3099.78 1498.53 3053.29 1506.97 2987.89 1518.84 2961.81 1476.22 2966.54 1444.18 3037.83 1457.17 3103 1437 3103 1437Z" fill="#274658" fill-rule="evenodd"/><path d="M3060 1495.95C3056.39 1510.48 3030.53 1625.48 3016.69 1692.06 3002.86 1758.64 2995.06 1836.54 2995.06 1836.54 2995.06 1836.54 2986.04 1846.58 2968.93 1836.54 2968.46 1794.45 2963.23 1504.82 2967.98 1457 2999.82 1497.17 3060 1495.95 3060 1495.95Z" fill="#274658" fill-rule="evenodd"/><path d="M3056 1217C3075.06 1218.7 3088.43 1228.79 3097.51 1245.03 3108.93 1265.46 3116.45 1287.88 3120.57 1299.57 3127.41 1319.01 3119.69 1353.75 3098.95 1339.77 3091.42 1334.69 3058.48 1232.97 3056 1217Z" fill="#5699B4" fill-rule="evenodd"/><path d="M3019.3 1212.73C2985.82 1217.06 2967.27 1239.07 2961.18 1270.28 2955.08 1301.48 2958.96 1419.52 2962.86 1447.21 3000.02 1459.6 3072.7 1459.6 3105 1442.69 3104.03 1399.94 3098.8 1308.28 3095.39 1274.28 3091.97 1240.27 3066.97 1206.57 3019.3 1212.73Z" fill="#79BDD2" fill-rule="evenodd"/><path d="M2946.51 1337.07C2958.14 1338.94 2962.37 1363.73 2964.84 1376.68L2967 1476 2948.24 1475.09C2948.24 1475.09 2932.88 1398.13 2932.07 1377.53 2931.27 1356.94 2937.13 1335.57 2946.51 1337.07Z" fill="#F1CA8E" fill-rule="evenodd"/><path d="M2944.82 1300C2944.82 1300 2936.43 1343.95 2934.3 1355.93 2932.17 1367.9 2941.69 1379.24 2950.95 1381.66 2960.22 1384.08 2963.1 1383.65 2964.6 1376.73 2966.1 1369.82 2980 1309.68 2980 1309.68L2944.82 1300Z" fill="#F1CA8E" fill-rule="evenodd"/><path d="M2959.83 1459C2959.79 1460.64 2973.38 1485.99 2973.38 1485.99L2979 1510.28 2976.03 1513.54 2965.02 1492.1 2963.99 1510.43 2960.98 1536.87 2956.07 1537 2955.46 1506.27 2952.67 1534.78 2950.32 1534.14 2947.99 1507.09 2949.65 1531.61 2946.48 1529.65 2941.88 1506.18 2943.79 1526.49 2940.51 1524.17 2936 1501.76 2949.02 1459.28 2959.83 1459Z" fill="#F1CA8E" fill-rule="evenodd"/><path d="M2995.69 1230.32C2978.92 1217.69 2954.15 1230.54 2935 1298.73 2959.93 1312.79 2988.57 1313 2988.57 1313 2988.57 1313 3015.58 1245.3 2995.69 1230.32Z" fill="#5699B4" fill-rule="evenodd"/><path d="M3119.59 1347.82C3103.98 1350.25 3095.28 1328.13 3102.67 1309.56 3110.06 1290.98 3117.82 1256.8 3118.89 1227.62 3119.12 1221.05 3132.57 1220.98 3132.34 1230.72 3132.11 1240.46 3132.69 1270 3133.93 1308.04 3134.58 1328.05 3130.74 1346.08 3119.59 1347.82Z" fill="#F1CA8E" fill-rule="evenodd"/><path d="M3050.53 1185.1C3050.27 1205.21 3050.01 1213.2 3050.79 1219.64 3051.93 1229.14 3060.89 1244.65 3052.34 1249.29 3043.79 1253.93 3022.95 1234.73 3017.37 1222.74 3014.57 1216.71 3014.9 1215.43 3014.75 1211.02 3014.47 1202.6 3014 1182 3014 1182L3050.53 1185.1Z" fill="#E5B381" fill-rule="evenodd"/><path d="M2964.62 1111.64C2963.23 1113.49 2963 1141.06 2977.2 1163.39 2991.41 1185.72 3021.29 1189.72 3022.89 1187.44 3024.5 1185.16 3007.85 1053.97 2964.62 1111.64Z" fill="#262626" fill-rule="evenodd"/><path d="M3096.02 1146.01C3092.37 1189.36 3067.12 1209 3038.32 1209 2999.31 1209 2975.15 1159.35 2974.91 1118.8 2974.66 1078.24 2963.45 1049.13 3027.24 1048.04 3097.56 1046.84 3102.22 1072.2 3096.02 1146.01Z" fill="#F1CA8E" fill-rule="evenodd"/><path d="M3080.08 1126.28C3081.06 1136.98 3084.87 1143.68 3092.78 1142.94 3100.7 1142.21 3112.93 1131.79 3111.94 1121.09 3110.95 1110.39 3103.74 1102.31 3095.82 1103.05 3087.9 1103.79 3079.09 1115.58 3080.08 1126.28Z" fill="#F1CA8E" fill-rule="evenodd"/><path d="M3099.22 1124.84C3105.64 1106.52 3103.87 1081.09 3103.49 1066.85 3102.61 1034.1 3082.89 1028.27 3067.88 1024.5 3070.49 1024.43 3068.73 1022.86 3071.33 1022.88 3061.25 1014.19 3032.88 1009.48 3021.98 1016.16 3003.7 1019.34 2992.4 1023.51 2981.27 1032.94 2957.83 1052.82 2957.42 1080.52 2966.49 1125.7 2968.69 1126.54 2978.72 1134.13 2981.12 1134 2975.21 1115.91 2976.18 1078.58 2995.29 1068.68 3004.53 1063.89 3016.06 1066.9 3025.66 1067.92 3033.03 1068.71 3054.71 1068.01 3069.44 1065.75 3077.65 1064.31 3083.74 1065.75 3085.6 1067.87 3094.93 1078.56 3099.7 1092.26 3097.48 1117.7 3097.46 1120.81 3097.84 1123.47 3099.22 1124.84Z" fill="#262626" fill-rule="evenodd"/><path d="M2988.16 1125.31C2992.29 1135.08 2992.31 1142.53 2985.59 1145.19 2978.89 1147.86 2964.24 1143.87 2960.11 1134.11 2955.99 1124.35 2958.09 1114.27 2964.81 1111.59 2971.51 1108.93 2984.03 1115.54 2988.16 1125.31Z" fill="#F1CA8E" fill-rule="evenodd"/><path d="M3036.44 1129.79C3046.45 1127.77 3054.9 1129.43 3056.77 1136.92 3058.65 1144.41 3048.51 1148.98 3040.2 1149.96 3031.89 1150.95 3028.64 1131.36 3036.44 1129.79Z" fill="url(#fill4)" fill-rule="evenodd"/><path d="M3032 1131.48C3035.67 1129.9 3039.66 1128.92 3043.75 1129 3047.76 1129.1 3052.19 1130.05 3055.29 1133.56 3056.78 1135.31 3057.45 1138.07 3056.68 1140.33 3055.98 1142.6 3054.53 1144.35 3052.93 1145.7 3049.7 1148.43 3045.87 1149.93 3042.05 1151 3045.57 1149.11 3049.04 1147.08 3051.79 1144.38 3054.6 1141.79 3056.08 1137.71 3053.62 1135.02 3051.34 1132.31 3047.4 1131.16 3043.66 1130.77 3039.84 1130.4 3035.91 1130.75 3032 1131.48Z" fill="#A56052" fill-rule="evenodd"/><path d="M3052 1171.54C3038.39 1174.12 3029.11 1173.56 3025.05 1170 3023.98 1197.12 3039.28 1198.33 3052 1171.54Z" fill="#643619" fill-rule="evenodd"/><path d="M3032.09 1104C3032.99 1110.7 3036.75 1130.35 3017.87 1131.92 2998.98 1133.49 3003.47 1110.71 3003.47 1110.71 3003.47 1110.71 3023.46 1104.88 3032.09 1104Z" fill="url(#fill5)" fill-rule="evenodd"/><path d="M3025.92 1130.13C3025.57 1131.47 3024.21 1132.26 3022.87 1131.92 3021.53 1131.57 3020.74 1130.21 3021.08 1128.87 3021.43 1127.54 3022.79 1126.73 3024.13 1127.08 3025.46 1127.43 3026.27 1128.79 3025.92 1130.13Z" fill="#643619" fill-rule="evenodd"/><path d="M3028.21 1103.06C3006.94 1104.56 2995.27 1113.11 3008.79 1113 3022.31 1112.89 3042.24 1102.07 3028.21 1103.06Z" fill="#994D1D" fill-rule="evenodd"/><path d="M3052.91 1104C3052.01 1110.7 3048.25 1130.35 3067.13 1131.92 3086.02 1133.49 3081.53 1110.71 3081.53 1110.71 3081.53 1110.71 3061.54 1104.88 3052.91 1104Z" fill="url(#fill6)" fill-rule="evenodd"/><path d="M3060.08 1130.13C3060.43 1131.47 3061.79 1132.26 3063.13 1131.92 3064.46 1131.57 3065.27 1130.21 3064.92 1128.87 3064.57 1127.54 3063.21 1126.73 3061.87 1127.08 3060.53 1127.43 3059.74 1128.79 3060.08 1130.13Z" fill="#643619" fill-rule="evenodd"/><path d="M3057.79 1103.06C3079.06 1104.56 3090.73 1113.11 3077.21 1113 3063.69 1112.89 3043.76 1102.07 3057.79 1103.06Z" fill="#994D1D" fill-rule="evenodd"/><path d="M3007 1136.5C3007 1137.88 3003.19 1139 2998.5 1139 2993.81 1139 2990 1137.88 2990 1136.5 2990 1135.12 2993.81 1134 2998.5 1134 3003.19 1134 3007 1135.12 3007 1136.5Z" fill="#E9A29D" fill-rule="evenodd"/><path d="M3096 1136.5C3096 1137.88 3092.19 1139 3087.5 1139 3082.81 1139 3079 1137.88 3079 1136.5 3079 1135.12 3082.81 1134 3087.5 1134 3092.19 1134 3096 1135.12 3096 1136.5Z" fill="#E9A29D" fill-rule="evenodd"/><path d="M3009 1062.23C3012.11 1068.27 3032.05 1090.04 3056.2 1087.85 3046.87 1086.2 3042.48 1082.54 3042.48 1082.54 3042.48 1082.54 3060.77 1088.21 3080.71 1077.6 3074.12 1078.15 3063.7 1077.23 3063.7 1077.23 3063.7 1077.23 3081.07 1072.47 3084 1063.32 3042.84 1056.55 3009 1062.23 3009 1062.23Z" fill="#262626" fill-rule="evenodd"/><path d="M3121.77 1204.73C3122.74 1194.2 3122.4 1174.09 3122.96 1167.01 3123.51 1159.94 3118.47 1159.02 3115.41 1160.76 3112.36 1162.49 3112.24 1171.42 3112.03 1181.72 3111.85 1190.55 3112.54 1207 3112.54 1207L3121.77 1204.73Z" fill="#EBC086" fill-rule="evenodd"/><path d="M3131.51 1230.97C3135.27 1221.76 3137.7 1209.74 3136.82 1203.18 3135.29 1191.68 3125.07 1189.3 3118.23 1190.16 3111.4 1191.02 3107.37 1204.01 3108.08 1208.87 3110 1221.87 3118.43 1226.04 3118.67 1231.5 3120.15 1234.82 3130.24 1235.03 3131.51 1230.97Z" fill="#F1CA8E" fill-rule="evenodd"/><path d="M3129.86 1188.16C3118.75 1187.04 3117.44 1191.81 3115.27 1199.35 3113.53 1205.41 3120.44 1208.64 3128.63 1209.86 3134.44 1210.72 3137.87 1207.44 3137.87 1207.44 3137.87 1207.44 3139.67 1189.16 3129.86 1188.16Z" fill="#F1CA8E" fill-rule="evenodd"/><path d="M3133 1202.07C3132.83 1203.77 3132.5 1205.52 3131.62 1207.06 3130.72 1208.61 3129.06 1209.62 3127.37 1209.89 3125.66 1210.14 3123.97 1209.93 3122.34 1209.64 3120.71 1209.29 3119.02 1208.85 3117.59 1207.78 3114.55 1205.8 3113.44 1201.63 3114.26 1198.21 3114.59 1196.45 3115.5 1194.85 3116.5 1193.51 3117.5 1192.14 3118.65 1190.8 3120.12 1190 3118.74 1190.95 3117.79 1192.39 3116.92 1193.82 3116 1195.25 3115.25 1196.7 3115.01 1198.37 3114.4 1201.61 3115.39 1205.23 3118.12 1206.94 3119.42 1207.86 3120.96 1208.31 3122.51 1208.67 3124.09 1209 3125.7 1209.22 3127.25 1209.02 3128.8 1208.87 3130.26 1208.11 3131.18 1206.75 3132.11 1205.41 3132.67 1203.75 3133 1202.07Z" fill="#C48D54" fill-rule="evenodd"/><path d="M3117.82 1212.8C3112.14 1217.82 3106.78 1213.44 3104.16 1207.8 3101.55 1202.16 3101.08 1197.85 3104 1195.63 3106.91 1193.42 3121.14 1197.38 3121 1201.85 3120.86 1206.31 3117.01 1206.61 3113.69 1205.1 3119.25 1209.49 3117.82 1212.8 3117.82 1212.8" fill="#EBC086" fill-rule="evenodd"/><path d="M3134.82 1200C3135.18 1200.75 3134.97 1201.49 3134.54 1202.2 3134.26 1202.5 3133.9 1202.88 3133.29 1202.98 3132.64 1203.09 3132.17 1202.71 3132 1202.38 3132.47 1202.45 3132.85 1202.41 3133.01 1202.27 3133.18 1202.13 3133.4 1201.95 3133.54 1201.68 3133.77 1201.46 3133.91 1201.16 3134.12 1200.89 3134.31 1200.6 3134.55 1200.31 3134.82 1200Z" fill="#C48D54" fill-rule="evenodd"/><path d="M3115.62 1214C3116.43 1213.01 3116.61 1211.75 3116.44 1210.61 3116.25 1209.45 3115.7 1208.36 3114.93 1207.43 3113.45 1205.5 3111.21 1204.24 3109 1203 3111.45 1203.72 3113.85 1204.99 3115.5 1207.01 3116.28 1208.04 3116.9 1209.25 3116.99 1210.55 3117.09 1211.83 3116.63 1213.19 3115.62 1214Z" fill="#C48D54" fill-rule="evenodd"/><path d="M3120.17 1201C3120.75 1201.58 3121.07 1202.35 3120.99 1203.14 3120.94 1203.93 3120.39 1204.68 3119.61 1205.2 3118.8 1205.7 3117.8 1205.95 3116.82 1205.99 3115.84 1206.05 3114.89 1205.86 3114 1205.64 3115.86 1205.63 3117.79 1205.59 3119.09 1204.72 3120.46 1203.92 3120.76 1202.38 3120.17 1201Z" fill="#C48D54" fill-rule="evenodd"/><path d="M2970.38 1110.73C2972.33 1127.51 2976.97 1138.87 2982.7 1147.75 2984.2 1148.78 2987.24 1151 2987.24 1151 2987.24 1151 2971.38 1116.38 2988.86 1084.85 2984.7 1094.89 2988.59 1103.49 2988.59 1103.49 2988.59 1103.49 2991.21 1085.97 3000.98 1076.34 3005.51 1083.59 3028 1084.47 3028 1084.47 3028 1084.47 3014.15 1074.54 3011.89 1064.53 2998.93 1055.74 2981.83 1064.56 2976.33 1077.82 2971.79 1088.75 2968.92 1098.1 2970.38 1110.73Z" fill="#262626" fill-rule="evenodd"/><path d="M3079 1062C3089.28 1070.19 3091.26 1088.72 3090.77 1098.21 3092.08 1097.11 3094.25 1089.86 3094.25 1089.86 3094.25 1089.86 3096.94 1133.93 3094.32 1142 3097.07 1139.73 3097.9 1138.2 3097.9 1138.2 3097.9 1138.2 3102.16 1115.89 3100.69 1100.07 3099.22 1084.25 3094.49 1069.85 3090.08 1066.37 3085.67 1062.89 3079 1062 3079 1062Z" fill="#262626" fill-rule="evenodd"/><path d="M2724 1076.14C2723.07 1081.69 2699.96 1096.43 2654 1099 2668.74 1097.51 2694.78 1092.1 2712.98 1078.03 2715.98 1075.23 2724 1076.14 2724 1076.14Z" fill="#381C14" fill-rule="evenodd"/><path d="M2580.19 1126C2576.88 1119.55 2571.74 1102.79 2572.29 1095.97 2567.89 1102.97 2569.54 1121.4 2569.54 1121.4 2569.54 1121.4 2553.38 1083.63 2582.03 1051.02 2576.71 1051.2 2569.91 1058.21 2569.91 1058.21 2569.91 1058.21 2575.05 1043.65 2595.62 1035.55 2595.07 1030.39 2598.74 1018.78 2604.98 1015.1 2601.13 1022.47 2600.02 1033.15 2600.02 1033.15 2600.02 1033.15 2627.57 1003.68 2688.91 1016.02 2673.3 1015.1 2665.03 1016.76 2665.03 1016.76 2665.03 1016.76 2713.88 1018.04 2735 1052.5 2724.72 1047.89 2714.25 1037.57 2714.25 1037.57 2714.25 1037.57 2730.22 1053.97 2728.02 1069.44 2710.76 1054.52 2643 1058.58 2626.47 1063.92 2609.94 1069.26 2585.52 1121.4 2585.52 1121.4L2580.19 1126Z" fill="#381C14" fill-rule="evenodd"/><path d="M2679.76 1079.79C2675.18 1086.55 2651.48 1094.09 2636 1093.32 2652.82 1098.92 2711.3 1089.64 2707.85 1078.44 2704.23 1072.25 2679.76 1079.79 2679.76 1079.79Z" fill="#381C14" fill-rule="evenodd"/><path d="M2608.5 1103C2608.13 1118.59 2609.23 1147.12 2614 1157 2603.61 1152.94 2597 1122.14 2597 1121.76 2597 1121.38 2608.5 1103 2608.5 1103Z" fill="#381C14" fill-rule="evenodd"/><path d="M2608.15 1210.01C2590.86 1209.51 2575.19 1222.31 2565.13 1257.71 2553.21 1299.63 2546.56 1332.27 2547.02 1342.23 2547.48 1352.2 2579.75 1376.18 2591.52 1343.14 2606.15 1302.08 2614.7 1272.08 2619.26 1253.48 2626.88 1222.38 2622.71 1210.44 2608.15 1210.01Z" fill="#91B242" fill-rule="evenodd"/><path d="M2547 1341.93C2550.15 1364.35 2558.34 1479.12 2559.77 1492.35 2568.67 1501.29 2585.4 1491 2585.4 1491 2585.4 1491 2584.66 1419.13 2589.97 1345.98 2591.24 1328.5 2547 1341.93 2547 1341.93Z" fill="#91B242" fill-rule="evenodd"/><path d="M3347.03 1192C3355.08 1148.01 3340.17 1108.48 3340.17 1108.48 3340.17 1108.48 3343.75 1136.72 3339.57 1143.26 3344.04 1115.91 3321.67 1090.65 3321.67 1090.65 3321.67 1090.65 3321.37 1096.89 3328.23 1109.08 3314.81 1096 3298.4 1074.01 3298.4 1074.01 3298.4 1074.01 3308.54 1092.14 3318.39 1101.35 3291.83 1085.6 3276.63 1062.1 3285.57 1038.94 3288.56 1031.21 3293.93 1021.41 3312.12 1018.73 3327.08 1016.53 3377.76 1018.13 3407.89 1040.42 3438.02 1062.71 3448.94 1097.7 3424.78 1135.74 3406.05 1163.56 3399.64 1165.86 3399.64 1165.86 3399.64 1165.86 3403.55 1160.77 3404.85 1156.98 3397.69 1165.03 3373.26 1181.63 3373.26 1181.63 3373.26 1181.63 3375.28 1179.43 3377.67 1174.86 3365.91 1183.83 3347.03 1192 3347.03 1192Z" fill="#412308" fill-rule="evenodd"/><path d="M3041.5 948.5C3093.87 924.624 3164.03 860.852 3188.68 782.264 3197.17 766.27 3191.17 744.183 3177.15 740.634 3169.32 738.02 3162.87 744.921 3156.98 751.182 3147.77 775.405 3144.74 801.59 3158.56 825.607 3167.14 846.758 3206.16 856.851 3224.98 866.845 3246.49 868.702 3269.21 869.833 3293.5 876.019" stroke="#345A6E" stroke-width="5.15643" stroke-miterlimit="8" stroke-dasharray="19.8661 19.8661" fill="none" fill-rule="evenodd"/><path d="M2540.76 1070.23C2501.7 1074.17 2459.87 1049.69 2438.81 1028.23 2404.78 985.174 2375.15 939.163 2388.82 883.362 2391.28 844.299 2445.73 807.834 2490.85 796.898 2534.54 783.67 2572.68 796.215 2624.8 827.713 2659.06 851.617 2686.12 871.872 2712.5 900.211" stroke="#345A6E" stroke-width="5.15643" stroke-miterlimit="8" stroke-dasharray="19.8661 19.8661" fill="none" fill-rule="evenodd"/><path d="M2805 928.036 2805 903.968 2783.98 901.639C2782.57 896.019 2780.34 890.726 2777.44 885.88L2790.66 869.357 2778.79 852.339 2773.65 852.339 2757.1 865.581C2752.27 862.688 2746.98 860.473 2741.37 859.063L2739.04 838 2714.97 838 2712.63 859.063C2707.03 860.473 2701.74 862.688 2696.9 865.581L2685.5 852.339 2680.35 852.339 2663.34 869.357 2676.56 885.88C2673.66 890.723 2671.43 896.019 2670.02 901.639L2649 903.968 2649 928.036 2669.98 930.361C2671.39 935.999 2673.62 941.316 2676.52 946.176L2663.34 962.647 2680.35 979.665 2685.5 979.665 2696.81 966.492C2701.68 969.412 2707 971.644 2712.65 973.065L2714.97 994 2739.04 994 2741.35 973.065C2747 971.648 2752.33 969.412 2757.19 966.492L2773.65 979.665 2778.79 979.665 2790.67 962.647 2777.48 946.176C2780.39 941.316 2782.61 935.999 2784.02 930.361L2805 928.036ZM2727 942.265C2712.53 942.265 2700.8 930.533 2700.8 916.064 2700.8 901.594 2712.53 889.862 2727 889.862 2741.47 889.862 2753.2 901.594 2753.2 916.064 2753.2 930.533 2741.47 942.265 2727 942.265Z" fill="#365E6B" fill-rule="evenodd"/><path d="M2810 928.036 2810 903.968 2788.98 901.639C2787.57 896.019 2785.34 890.726 2782.44 885.88L2795.66 869.357 2778.64 852.339 2762.1 865.581C2757.26 862.688 2751.98 860.473 2746.37 859.063L2744.04 838 2719.96 838 2717.63 859.063C2712.02 860.473 2706.73 862.688 2701.9 865.581L2685.36 852.339 2668.34 869.357 2681.56 885.88C2678.66 890.723 2676.43 896.019 2675.02 901.639L2654 903.968 2654 928.036 2674.99 930.361C2676.4 935.999 2678.62 941.316 2681.52 946.176L2668.34 962.647 2685.36 979.665 2701.81 966.492C2706.68 969.412 2712 971.644 2717.65 973.065L2719.97 994 2744.04 994 2746.36 973.065C2752.01 971.648 2757.33 969.412 2762.19 966.492L2778.65 979.665 2795.67 962.647 2782.48 946.176C2785.39 941.316 2787.61 935.999 2789.02 930.361L2810 928.036ZM2732 942.265C2717.53 942.265 2705.79 930.533 2705.79 916.064 2705.79 901.594 2717.53 889.862 2732 889.862 2746.47 889.862 2758.2 901.594 2758.2 916.064 2758.2 930.533 2746.47 942.265 2732 942.265Z" fill="#5DA1BA" fill-rule="evenodd"/><path d="M3382 889.799 3382 868.198 3363.14 866.108C3361.87 861.064 3359.87 856.312 3357.26 851.964L3369.14 837.134 3358.24 821.861 3353.86 821.861 3339.02 833.747C3334.68 831.153 3329.93 829.163 3324.89 827.9L3322.8 809 3301.2 809 3299.11 827.9C3294.07 829.166 3289.33 831.153 3284.98 833.747L3274.52 821.861 3270.14 821.861 3254.86 837.134 3266.74 851.964C3264.13 856.312 3262.13 861.064 3260.86 866.108L3242 868.198 3242 889.799 3260.83 891.885C3262.1 896.946 3264.09 901.716 3266.7 906.077L3254.86 920.859 3270.14 936.133 3274.52 936.133 3284.9 924.312C3289.27 926.933 3294.05 928.937 3299.12 930.21L3301.2 949 3322.8 949 3324.88 930.21C3329.95 928.937 3334.73 926.933 3339.09 924.312L3353.86 936.133 3358.24 936.133 3369.13 920.859 3357.3 906.077C3359.91 901.716 3361.9 896.946 3363.17 891.885L3382 889.799ZM3312 902.567C3299.01 902.567 3288.48 892.039 3288.48 879.052 3288.48 866.064 3299.01 855.536 3312 855.536 3324.99 855.536 3335.51 866.064 3335.51 879.052 3335.51 892.039 3324.99 902.567 3312 902.567Z" fill="#365E6B" fill-rule="evenodd"/><path d="M3386 889.799 3386 868.198 3367.14 866.108C3365.87 861.064 3363.87 856.312 3361.26 851.964L3373.14 837.134 3357.86 821.861 3343.02 833.747C3338.68 831.153 3333.93 829.163 3328.89 827.9L3326.8 809 3305.2 809 3303.11 827.9C3298.07 829.166 3293.33 831.153 3288.98 833.747L3274.14 821.861 3258.86 837.134 3270.74 851.964C3268.13 856.312 3266.13 861.064 3264.86 866.108L3246 868.198 3246 889.799 3264.83 891.885C3266.1 896.946 3268.09 901.716 3270.7 906.077L3258.86 920.859 3274.14 936.133 3288.9 924.312C3293.27 926.933 3298.05 928.937 3303.12 930.21L3305.2 949 3326.8 949 3328.88 930.21C3333.95 928.937 3338.73 926.933 3343.09 924.312L3357.86 936.133 3373.13 920.859 3361.3 906.077C3363.9 901.716 3365.9 896.946 3367.16 891.885L3386 889.799ZM3316 902.567C3303.01 902.567 3292.49 892.039 3292.49 879.052 3292.49 866.064 3303.01 855.536 3316 855.536 3328.99 855.536 3339.52 866.064 3339.52 879.052 3339.52 892.039 3328.99 902.567 3316 902.567Z" fill="#5DA1BA" fill-rule="evenodd"/><path d="M3293.5 876.5C3296.49 876.051 3301.29 877.12 3304.12 877.513 3341.74 879.983 3407.48 901.324 3440.25 913.107 3490.51 942.771 3501.13 1017.08 3441.06 1054.5" stroke="#345A6E" stroke-width="5.15643" stroke-miterlimit="8" stroke-dasharray="19.8661 19.8661" fill="none" fill-rule="evenodd"/><path d="M3070 957.597 3070 945.407 3059.49 944.228C3058.78 941.382 3057.67 938.702 3056.22 936.247L3062.83 927.878 3054.32 919.259 3052 919.259 3046.05 925.965C3043.63 924.502 3040.99 923.378 3038.19 922.664L3037.02 912 3024.98 912 3023.82 922.664C3021.01 923.378 3018.37 924.498 3015.95 925.965L3007.68 919.259 3005.36 919.259 2999.17 927.878 3005.78 936.247C3004.33 938.702 3003.22 941.382 3002.51 944.228L2992 945.407 2992 957.597 3002.49 958.772C3003.2 961.628 3004.31 964.319 3005.76 966.78L2999.17 975.122 3005.36 983.74 3007.68 983.74 3015.9 977.07C3018.34 978.547 3021 979.681 3023.82 980.398L3024.98 991 3037.02 991 3038.18 980.398C3041 979.681 3043.66 978.55 3046.09 977.07L3052 983.74 3054.32 983.74 3062.83 975.122 3056.23 966.78C3057.69 964.319 3058.8 961.628 3059.5 958.772L3070 957.597ZM3031.01 964.804C3023.77 964.804 3017.91 958.862 3017.91 951.536 3017.91 944.211 3023.77 938.269 3031.01 938.269 3038.24 938.269 3044.1 944.211 3044.1 951.536 3044.1 958.862 3038.24 964.804 3031.01 964.804Z" fill="#365E6B" fill-rule="evenodd"/><path d="M3068 957.597 3068 945.407 3057.49 944.228C3056.78 941.382 3055.67 938.702 3054.22 936.247L3060.83 927.878 3052.32 919.259 3044.05 925.965C3041.63 924.502 3038.99 923.378 3036.18 922.664L3035.02 912 3022.98 912 3021.82 922.664C3019.01 923.378 3016.37 924.498 3013.95 925.965L3005.68 919.259 2997.17 927.878 3003.78 936.247C3002.33 938.702 3001.22 941.382 3000.51 944.228L2990 945.407 2990 957.597 3000.49 958.772C3001.2 961.628 3002.31 964.319 3003.76 966.78L2997.17 975.122 3005.68 983.74 3013.9 977.07C3016.34 978.547 3019 979.681 3021.82 980.398L3022.98 991 3035.01 991 3036.17 980.398C3039 979.681 3041.66 978.55 3044.09 977.07L3052.32 983.74 3060.83 975.122 3054.23 966.78C3055.69 964.319 3056.8 961.628 3057.5 958.772L3068 957.597ZM3029.01 964.804C3021.77 964.804 3015.91 958.862 3015.91 951.536 3015.91 944.211 3021.78 938.269 3029.01 938.269 3036.24 938.269 3042.11 944.211 3042.11 951.536 3042.11 958.862 3036.24 964.804 3029.01 964.804Z" fill="#5DA1BA" fill-rule="evenodd"/><path d="M2712.5 900.5C2724.77 909.922 2732.36 920.831 2745.79 926.661 2823.66 971.18 2932.27 991.551 3002.99 964.535 3017.67 959.437 3028.16 953.153 3041.5 948.694" stroke="#345A6E" stroke-width="5.15643" stroke-miterlimit="8" stroke-dasharray="19.8661 19.8661" fill="none" fill-rule="evenodd"/><path d="M3535 880.5C3535 891.27 3526.27 900 3515.5 900 3504.73 900 3496 891.27 3496 880.5 3496 869.73 3504.73 861 3515.5 861 3526.27 861 3535 869.73 3535 880.5Z" stroke="#4E95D9" stroke-width="3.53169" stroke-miterlimit="8" stroke-dasharray="3.53169 3.53169" fill="none" fill-rule="evenodd"/><path d="M3400 717C3400 721.418 3396.42 725 3392 725 3387.58 725 3384 721.418 3384 717 3384 712.582 3387.58 709 3392 709 3396.42 709 3400 712.579 3400 717Z" stroke="#4E95D9" stroke-width="3.53169" stroke-miterlimit="8" stroke-dasharray="3.53169 3.53169" fill="none" fill-rule="evenodd"/><path d="M3658 1060.5C3658 1065.2 3654.19 1069 3649.5 1069 3644.8 1069 3641 1065.2 3641 1060.5 3641 1055.8 3644.8 1052 3649.5 1052 3654.19 1052 3658 1055.81 3658 1060.5Z" stroke="#4E95D9" stroke-width="3.53169" stroke-miterlimit="8" stroke-dasharray="3.53169 3.53169" fill="none" fill-rule="evenodd"/><path d="M3209 1046.5C3209 1051.75 3204.75 1056 3199.5 1056 3194.25 1056 3190 1051.75 3190 1046.5 3190 1041.25 3194.25 1037 3199.5 1037 3204.75 1037 3209 1041.25 3209 1046.5Z" stroke="#4E95D9" stroke-width="3.53169" stroke-miterlimit="8" stroke-dasharray="3.53169 3.53169" fill="none" fill-rule="evenodd"/><path d="M3574 791C3574 793.21 3572.21 795 3570 795 3567.79 795 3566 793.21 3566 791 3566 788.791 3567.79 787 3570 787 3572.21 787 3574 788.791 3574 791Z" stroke="#4E95D9" stroke-width="3.53169" stroke-miterlimit="8" stroke-dasharray="3.53169 3.53169" fill="none" fill-rule="evenodd"/><path d="M3561 1590C3561 1597.18 3555.4 1603 3548.5 1603 3541.6 1603 3536 1597.18 3536 1590 3536 1582.82 3541.6 1577 3548.5 1577 3555.4 1577 3561 1582.82 3561 1590Z" stroke="#4E95D9" stroke-width="3.53169" stroke-miterlimit="8" stroke-dasharray="3.53169 3.53169" fill="none" fill-rule="evenodd"/><path d="M3487 1284.5C3487 1293.06 3480.06 1300 3471.5 1300 3462.94 1300 3456 1293.06 3456 1284.5 3456 1275.94 3462.94 1269 3471.5 1269 3480.06 1269 3487 1275.94 3487 1284.5Z" stroke="#4E95D9" stroke-width="3.53169" stroke-miterlimit="8" stroke-dasharray="3.53169 3.53169" fill="none" fill-rule="evenodd"/><path d="M3669 1274C3669 1277.31 3666.31 1280 3663 1280 3659.69 1280 3657 1277.31 3657 1274 3657 1270.69 3659.69 1268 3663 1268 3666.31 1268 3669 1270.68 3669 1274Z" stroke="#4E95D9" stroke-width="3.53169" stroke-miterlimit="8" stroke-dasharray="3.53169 3.53169" fill="none" fill-rule="evenodd"/><path d="M2854 1100C2854 1104.42 2850.42 1108 2846 1108 2841.58 1108 2838 1104.42 2838 1100 2838 1095.58 2841.58 1092 2846 1092 2850.42 1092 2854 1095.58 2854 1100Z" stroke="#4E95D9" stroke-width="3.53169" stroke-miterlimit="8" stroke-dasharray="3.53169 3.53169" fill="none" fill-rule="evenodd"/><path d="M2907 852C2907 856.419 2903.42 860 2899 860 2894.58 860 2891 856.419 2891 852 2891 847.581 2894.58 844 2899 844 2903.42 844 2907 847.581 2907 852Z" stroke="#4E95D9" stroke-width="3.53169" stroke-miterlimit="8" stroke-dasharray="3.53169 3.53169" fill="none" fill-rule="evenodd"/><path d="M2639 653.5C2639 662.061 2632.06 669 2623.5 669 2614.94 669 2608 662.061 2608 653.5 2608 644.939 2614.94 638 2623.5 638 2632.06 638 2639 644.939 2639 653.5Z" stroke="#4E95D9" stroke-width="3.53169" stroke-miterlimit="8" stroke-dasharray="3.53169 3.53169" fill="none" fill-rule="evenodd"/><path d="M2553 1003.5C2553 1008.19 2549.42 1012 2545 1012 2540.58 1012 2537 1008.19 2537 1003.5 2537 998.806 2540.58 995 2545 995 2549.42 995 2553 998.806 2553 1003.5Z" stroke="#4E95D9" stroke-width="3.53169" stroke-miterlimit="8" stroke-dasharray="3.53169 3.53169" fill="none" fill-rule="evenodd"/><path d="M2345 1113C2345 1119.08 2340.08 1124 2334 1124 2327.93 1124 2323 1119.08 2323 1113 2323 1106.93 2327.93 1102 2334 1102 2340.08 1102 2345 1106.93 2345 1113Z" stroke="#4E95D9" stroke-width="3.53169" stroke-miterlimit="8" stroke-dasharray="3.53169 3.53169" fill="none" fill-rule="evenodd"/><path d="M2510 1227.5C2510 1231.09 2506.87 1234 2503 1234 2499.13 1234 2496 1231.09 2496 1227.5 2496 1223.91 2499.13 1221 2503 1221 2506.87 1221 2510 1223.91 2510 1227.5Z" stroke="#4E95D9" stroke-width="3.53169" stroke-miterlimit="8" stroke-dasharray="3.53169 3.53169" fill="none" fill-rule="evenodd"/><path d="M2505 1379.5C2505 1383.09 2502.09 1386 2498.5 1386 2494.91 1386 2492 1383.09 2492 1379.5 2492 1375.91 2494.91 1373 2498.5 1373 2502.09 1373 2505 1375.91 2505 1379.5Z" stroke="#4E95D9" stroke-width="3.53169" stroke-miterlimit="8" stroke-dasharray="3.53169 3.53169" fill="none" fill-rule="evenodd"/><path d="M2280 1573C2280 1579.08 2275.08 1584 2269 1584 2262.93 1584 2258 1579.08 2258 1573 2258 1566.93 2262.93 1562 2269 1562 2275.08 1562 2280 1566.93 2280 1573Z" stroke="#4E95D9" stroke-width="3.53169" stroke-miterlimit="8" stroke-dasharray="3.53169 3.53169" fill="none" fill-rule="evenodd"/><path d="M2514 1674.5C2514 1685.27 2505.05 1694 2494 1694 2482.96 1694 2474 1685.27 2474 1674.5 2474 1663.73 2482.95 1655 2494 1655 2505.05 1655 2514 1663.73 2514 1674.5Z" stroke="#4E95D9" stroke-width="3.53169" stroke-miterlimit="8" stroke-dasharray="3.53169 3.53169" fill="none" fill-rule="evenodd"/><path d="M2851 1509C2851 1512.31 2848.31 1515 2845 1515 2841.69 1515 2839 1512.31 2839 1509 2839 1505.69 2841.69 1503 2845 1503 2848.31 1503 2851 1505.69 2851 1509Z" stroke="#4E95D9" stroke-width="3.53169" stroke-miterlimit="8" stroke-dasharray="3.53169 3.53169" fill="none" fill-rule="evenodd"/><path d="M3195 1375C3195 1378.31 3192.31 1381 3189 1381 3185.69 1381 3183 1378.31 3183 1375 3183 1371.69 3185.69 1369 3189 1369 3192.31 1369 3195 1371.69 3195 1375Z" stroke="#4E95D9" stroke-width="3.53169" stroke-miterlimit="8" stroke-dasharray="3.53169 3.53169" fill="none" fill-rule="evenodd"/><path d="M3181 1665C3181 1669.97 3177.19 1674 3172.5 1674 3167.81 1674 3164 1669.97 3164 1665 3164 1660.03 3167.81 1656 3172.5 1656 3177.19 1656 3181 1660.03 3181 1665Z" stroke="#4E95D9" stroke-width="3.53169" stroke-miterlimit="8" stroke-dasharray="3.53169 3.53169" fill="none" fill-rule="evenodd"/><path d="M2435 733.5C2435 736.538 2432.54 739 2429.5 739 2426.46 739 2424 736.538 2424 733.5 2424 730.463 2426.46 728 2429.5 728 2432.54 728 2435 730.463 2435 733.5Z" stroke="#4E95D9" stroke-width="3.53169" stroke-miterlimit="8" stroke-dasharray="3.53169 3.53169" fill="none" fill-rule="evenodd"/><path d="M3096 683.826C3096 634.413 3054.16 594.751 3003.9 598.211 2961.58 601.125 2927.26 635.281 2924.23 677.504 2922.51 701.381 2930.6 723.36 2944.88 739.862 2959.06 756.251 2966.22 777.551 2966.22 799.204L2966.22 803 3052.29 803 3052.29 799.441C3052.29 777.403 3060.81 756.457 3075.22 739.753 3088.17 724.733 3096 705.194 3096 683.826Z" fill="#F1DA3D" fill-rule="evenodd"/><path d="M3010 611.415C3019.64 610.046 3029.74 612.169 3038.78 616.208 3047.91 620.213 3056.15 626.286 3062.94 633.697 3069.71 641.114 3075.05 649.981 3078.06 659.595 3081.15 669.154 3081.92 679.449 3079.83 689 3078.2 679.359 3075.57 670.412 3071.63 662.158 3067.65 653.938 3062.52 646.426 3056.42 639.752 3050.34 633.071 3043.32 627.247 3035.6 622.371 3027.82 617.567 3019.4 613.77 3010 611.415Z" fill="#FFFFFF" fill-rule="evenodd"/><path d="M2995.68 808.5C2995.68 808.5 2995.56 777.216 2995.02 759.857 2994.33 737.714 2994.52 723.939 2989.77 712.733 2985.51 702.711 2979.76 700.445 2975.3 705.848 2970.69 711.435 2975.12 725.491 2986.46 729.394 2996.26 732.763 3010.98 733.677 3023.81 730.678 3032.4 728.672 3038.28 725.521 3043.13 720.827 3049.34 714.815 3048.16 704.845 3044.39 702.561 3039.38 699.527 3033.01 703.016 3029.2 712.839 3027.58 717.01 3023.29 726.669 3022.99 756.299 3022.84 770.926 3022.04 807.538 3022.04 807.538" stroke="#919CA2" stroke-width="2.94452" stroke-linecap="round" stroke-miterlimit="8" fill="none" fill-rule="evenodd"/><path d="M3049 844C3049 856.15 3030.87 866 3008.5 866 2986.13 866 2968 856.15 2968 844 2968 831.85 2986.13 822 3008.5 822 3030.87 822 3049 831.85 3049 844Z" fill="#8F8F8F" fill-rule="evenodd"/><path d="M2965.12 817 3052.88 817C3056.81 817 3060 813.865 3060 810 3060 806.135 3056.81 803 3052.88 803L2965.12 803C2961.19 803 2958 806.135 2958 810 2958 813.865 2961.19 817 2965.12 817Z" fill="#BEBEBE" fill-rule="evenodd"/><path d="M3052.88 831 2965.12 831C2961.19 831 2958 834.135 2958 838 2958 841.865 2961.19 845 2965.12 845L3052.88 845C3056.81 845 3060 841.865 3060 838 3060 834.135 3056.81 831 3052.88 831Z" fill="#BEBEBE" fill-rule="evenodd"/><path d="M3052.88 817 2965.12 817C2961.19 817 2958 820.135 2958 824 2958 827.865 2961.19 831 2965.12 831L3052.88 831C3056.81 831 3060 827.868 3060 824 3060 820.132 3056.81 817 3052.88 817Z" fill="#8F8F8F" fill-rule="evenodd"/><path d="M2995.24 575 2978 479 3005 481.422Z" fill="#F1DA3D" fill-rule="evenodd"/><path d="M3038 576 3058.92 513 3069 523.829Z" fill="#F1DA3D" fill-rule="evenodd"/><path d="M3101 609 3188.93 538 3192 567.632Z" fill="#F1DA3D" fill-rule="evenodd"/><path d="M2928 607 2879.03 542 2862 559.875Z" fill="#F1DA3D" fill-rule="evenodd"/><path d="M2898 674 2790.03 635 2787 670.569Z" fill="#F1DA3D" fill-rule="evenodd"/><path d="M3133 678.286 3194 672 3193.4 684Z" fill="#F1DA3D" fill-rule="evenodd"/><path d="M3288.12 1337.27C3297.39 1336.39 3315.38 1332.22 3350.48 1316.73 3359.35 1310.73 3360.54 1298.48 3360.54 1298.48 3360.54 1298.48 3305.29 1295.42 3287.02 1296.51 3268.76 1297.61 3257.2 1303.64 3258.76 1317.26 3260.32 1330.89 3288.12 1337.27 3288.12 1337.27Z" fill="#F1CA8E" fill-rule="evenodd"/></g></svg>