<svg width="777" height="509" xmlns="http://www.w3.org/2000/svg" xmlns:xlink="http://www.w3.org/1999/xlink" xml:space="preserve" overflow="hidden"><g transform="translate(-2311 -1425)"><path d="M2344 1493.01C2344 1480.3 2354.3 1470 2367.01 1470L3064.99 1470C3077.7 1470 3088 1480.3 3088 1493.01L3088 1906.99C3088 1919.7 3077.7 1930 3064.99 1930L2367.01 1930C2354.3 1930 2344 1919.7 2344 1906.99Z" fill="#CAEEFB" fill-rule="evenodd"/><path d="M2313.34 1518.53 2629.11 1431.19 2743.35 1844.17 2427.57 1931.51Z" stroke="#BFBFBF" stroke-width="3.4375" stroke-miterlimit="8" fill="#FFFFFF" fill-rule="evenodd"/><path d="M2735.53 1830.83 2728.66 1841C2723.56 1848.55 2712.12 1847.32 2708.73 1838.86L2704.18 1827.46C2699.79 1816.46 2698.15 1804.54 2699.42 1792.76L2710.87 1686 2759 1691.19 2747.54 1797.95C2746.28 1809.73 2742.16 1821.02 2735.53 1830.83Z" fill="#A6A6A6" fill-rule="evenodd"/><path d="M2715.82 1687 2704.38 1793.43C2703.21 1804.33 2704.74 1815.47 2708.81 1825.64L2713.36 1837C2714.25 1839.22 2716.2 1840.7 2718.58 1840.96 2720.96 1841.22 2723.18 1840.19 2724.52 1838.2L2731.38 1828.07C2737.52 1818.99 2741.39 1808.44 2742.56 1797.54L2754 1691.1 2715.82 1687Z" fill="#FFFFFF" fill-rule="evenodd"/><path d="M2709.85 1743 2704.38 1793.65C2703.21 1804.5 2704.74 1815.58 2708.81 1825.71L2713.36 1837.02C2714.25 1839.23 2716.2 1840.71 2718.57 1840.96 2720.95 1841.22 2723.17 1840.19 2724.51 1838.22L2731.37 1828.13C2737.5 1819.09 2741.36 1808.58 2742.53 1797.74L2748 1747.09 2709.85 1743Z" fill="#79D3FE" fill-rule="evenodd"/><path d="M2766.92 1654.14 2710.15 1648.05C2705.19 1647.52 2700.73 1651.1 2700.2 1656.05L2698.05 1675.93C2697.52 1680.88 2701.11 1685.33 2706.08 1685.86L2762.85 1691.95C2767.81 1692.48 2772.27 1688.9 2772.8 1683.95L2774.95 1664.07C2775.48 1659.12 2771.89 1654.67 2766.92 1654.14Z" fill="#79D3FE" fill-rule="evenodd"/><path d="M2738.91 1734.99 2720.69 1732.94C2719.65 1732.82 2718.9 1731.85 2719.01 1730.76L2719.01 1730.76C2719.12 1729.68 2720.05 1728.89 2721.09 1729.01L2739.31 1731.06C2740.35 1731.18 2741.1 1732.15 2740.99 1733.24L2740.99 1733.24C2740.88 1734.32 2739.95 1735.1 2738.91 1734.99Z" fill="#78779F" fill-rule="evenodd"/><path d="M2733.93 1742.99 2723.67 1741.85C2722.64 1741.73 2721.9 1740.78 2722.01 1739.72L2722.01 1739.72C2722.12 1738.66 2723.04 1737.9 2724.07 1738.01L2734.33 1739.15C2735.36 1739.27 2736.1 1740.22 2735.99 1741.28L2735.99 1741.28C2735.88 1742.34 2734.96 1743.1 2733.93 1742.99Z" fill="#78779F" fill-rule="evenodd"/><path d="M2736.01 1760.99 2718.61 1758.94C2717.62 1758.82 2716.9 1757.85 2717.01 1756.76L2717.01 1756.76C2717.12 1755.68 2718.01 1754.89 2718.99 1755.01L2736.39 1757.06C2737.38 1757.18 2738.1 1758.15 2737.99 1759.24L2737.99 1759.24C2737.88 1760.32 2736.99 1761.11 2736.01 1760.99Z" fill="#78779F" fill-rule="evenodd"/><path d="M2730.93 1768.99 2720.67 1768.08C2719.64 1767.99 2718.9 1767.23 2719.01 1766.38L2719.01 1766.38C2719.12 1765.53 2720.04 1764.92 2721.07 1765.01L2731.33 1765.92C2732.36 1766.01 2733.1 1766.78 2732.99 1767.62L2732.99 1767.62C2732.88 1768.47 2731.96 1769.08 2730.93 1768.99Z" fill="#78779F" fill-rule="evenodd"/><path d="M2732.93 1751.99 2722.67 1750.85C2721.64 1750.73 2720.9 1749.78 2721.01 1748.72L2721.01 1748.72C2721.12 1747.66 2722.04 1746.9 2723.07 1747.01L2733.33 1748.15C2734.36 1748.27 2735.1 1749.22 2734.99 1750.28L2734.99 1750.28C2734.88 1751.34 2733.96 1752.1 2732.93 1751.99Z" fill="#78779F" fill-rule="evenodd"/><path d="M2733.01 1786.99 2715.61 1785.28C2714.62 1785.18 2713.9 1784.37 2714.01 1783.47L2714.01 1783.47C2714.12 1782.57 2715.01 1781.91 2715.99 1782.01L2733.39 1783.72C2734.38 1783.82 2735.09 1784.63 2734.99 1785.53L2734.99 1785.53C2734.88 1786.43 2734 1787.09 2733.01 1786.99Z" fill="#78779F" fill-rule="evenodd"/><path d="M2730.08 1777.99 2720.55 1776.85C2719.6 1776.73 2718.91 1775.78 2719.01 1774.72L2719.01 1774.72C2719.11 1773.66 2719.97 1772.9 2720.92 1773.01L2730.45 1774.15C2731.4 1774.27 2732.09 1775.22 2731.99 1776.28L2731.99 1776.28C2731.89 1777.34 2731.03 1778.1 2730.08 1777.99Z" fill="#78779F" fill-rule="evenodd"/><path d="M2728.08 1795.99 2718.55 1794.85C2717.6 1794.73 2716.91 1793.78 2717.01 1792.72L2717.01 1792.72C2717.11 1791.66 2717.97 1790.9 2718.92 1791.01L2728.45 1792.15C2729.4 1792.27 2730.09 1793.22 2729.99 1794.28L2729.99 1794.28C2729.89 1795.34 2729.03 1796.1 2728.08 1795.99Z" fill="#78779F" fill-rule="evenodd"/><path d="M2727.93 1804.99 2717.67 1803.85C2716.64 1803.73 2715.9 1802.78 2716.01 1801.72L2716.01 1801.72C2716.12 1800.66 2717.04 1799.9 2718.07 1800.01L2728.33 1801.15C2729.36 1801.27 2730.1 1802.22 2729.99 1803.28L2729.99 1803.28C2729.88 1804.34 2728.96 1805.1 2727.93 1804.99Z" fill="#78779F" fill-rule="evenodd"/><path d="M2711.28 1648.06 2715.54 1648.52 2711.46 1686.44 2707.2 1685.98Z" fill="#0197F8" fill-rule="evenodd"/><path d="M2699 1680.67C2699.81 1682.49 2701.19 1684.02 2702.96 1685L2707 1648C2705.06 1648.59 2703.38 1649.8 2702.19 1651.41L2699 1680.67Z" fill="#0197F8" fill-rule="evenodd"/><path d="M2728.31 1649.9 2732.57 1650.35 2728.49 1688.27 2724.24 1687.82Z" fill="#0197F8" fill-rule="evenodd"/><path d="M2719.81 1648.96 2724.07 1649.42 2719.99 1687.34 2715.73 1686.89Z" fill="#0197F8" fill-rule="evenodd"/><path d="M2745.34 1651.72 2749.6 1652.18 2745.52 1690.1 2741.27 1689.65Z" fill="#0197F8" fill-rule="evenodd"/><path d="M2736.83 1650.81 2741.08 1651.27 2737.01 1689.19 2732.75 1688.73Z" fill="#0197F8" fill-rule="evenodd"/><path d="M2762.39 1653.54 2766.64 1654 2762.57 1691.92 2758.31 1691.46Z" fill="#0197F8" fill-rule="evenodd"/><path d="M2753.86 1652.64 2758.12 1653.1 2754.04 1691.02 2749.78 1690.56Z" fill="#0197F8" fill-rule="evenodd"/><path d="M2767 1692C2768.94 1691.41 2770.62 1690.2 2771.81 1688.6L2775 1659.33C2774.19 1657.51 2772.81 1655.98 2771.04 1655L2767 1692Z" fill="#0197F8" fill-rule="evenodd"/><path d="M2349.55 1541.6 2507.18 1498 2512.19 1516.13 2354.57 1559.73Z" fill="#C1E5F5" fill-rule="evenodd"/><path d="M2363.25 1591.13 2600.21 1525.58 2604.22 1540.05 2367.25 1605.6Z" fill="#C1E5F5" fill-rule="evenodd"/><path d="M2372.62 1625.01 2575.17 1568.98 2579.17 1583.46 2376.63 1639.48Z" fill="#C1E5F5" fill-rule="evenodd"/><path d="M2426.89 1821.18 2497.03 1801.77 2501.04 1816.25 2430.89 1835.65Z" fill="#C1E5F5" fill-rule="evenodd"/><path d="M2434.46 1848.54 2504.6 1829.13 2508.6 1843.6 2438.46 1863.01Z" fill="#C1E5F5" fill-rule="evenodd"/><path d="M2410.43 1761.69 2612.98 1705.67 2616.99 1720.14 2414.44 1776.16Z" fill="#C1E5F5" fill-rule="evenodd"/><path d="M2387.43 1677.06 2647.02 1605.25 2662.6 1661.58 2403.01 1733.39Z" stroke="#7F7F7F" stroke-width="3.27077" stroke-miterlimit="8" fill="none" fill-rule="evenodd"/><path d="M2393.5 1698.5 2653.5 1626.5" stroke="#7F7F7F" stroke-width="3.27077" stroke-miterlimit="8" fill="none" fill-rule="evenodd"/><path d="M2462.5 1656.5 2477.5 1713.5" stroke="#7F7F7F" stroke-width="3.27077" stroke-miterlimit="8" fill="none" fill-rule="evenodd"/><path d="M2425.5 1667.5 2440.5 1723.5" stroke="#7F7F7F" stroke-width="3.27077" stroke-miterlimit="8" fill="none" fill-rule="evenodd"/><path d="M2536.5 1636.5 2551.5 1692.5" stroke="#7F7F7F" stroke-width="3.27077" stroke-miterlimit="8" fill="none" fill-rule="evenodd"/><path d="M2499.5 1646.5 2514.5 1703.5" stroke="#7F7F7F" stroke-width="3.27077" stroke-miterlimit="8" fill="none" fill-rule="evenodd"/><path d="M2610.5 1615.5 2626.5 1672.5" stroke="#7F7F7F" stroke-width="3.27077" stroke-miterlimit="8" fill="none" fill-rule="evenodd"/><path d="M2573.5 1626.5 2589.5 1682.5" stroke="#7F7F7F" stroke-width="3.27077" stroke-miterlimit="8" fill="none" fill-rule="evenodd"/><path d="M2523.41 1471.81 2656.33 1435.04 2681.76 1526.99 2548.84 1563.75Z" fill="#79D3FE" fill-rule="evenodd"/><path d="M2542.02 1482.85 2630.68 1458.33 2633.41 1468.18 2544.74 1492.7Z" fill="#4B4C6B" fill-rule="evenodd"/><path d="M2591.15 1487.93 2649.21 1471.87 2651.57 1480.41 2593.51 1496.47Z" fill="#4B4C6B" fill-rule="evenodd"/><path d="M2594.91 1501.52 2652.96 1485.46 2655.33 1494 2597.27 1510.06Z" fill="#4B4C6B" fill-rule="evenodd"/><path d="M2598.67 1515.12 2656.72 1499.06 2659.09 1507.59 2601.03 1523.65Z" fill="#4B4C6B" fill-rule="evenodd"/><path d="M2546.81 1500.19 2581.1 1490.71 2592.76 1532.87 2558.48 1542.35Z" fill="#FFFFFF" fill-rule="evenodd"/><path d="M2559.75 1451.04 2557.96 1444.59C2556.09 1437.83 2560.06 1430.83 2566.82 1428.96L2566.82 1428.96C2573.59 1427.09 2580.58 1431.06 2582.45 1437.82L2593.22 1476.72C2594.36 1480.83 2591.95 1485.08 2587.84 1486.22L2587.84 1486.22C2583.73 1487.36 2579.48 1484.95 2578.34 1480.84L2567.94 1443.25" stroke="#0197F8" stroke-width="6.5419" stroke-miterlimit="8" fill="none" fill-rule="evenodd"/><text fill="#4B4C6B" font-family="Arial,Arial_MSFontService,sans-serif" font-weight="400" font-size="41" transform="matrix(1 0 0 1 2853.95 1526)">TAKE </text><text fill="#4B4C6B" font-family="Arial,Arial_MSFontService,sans-serif" font-weight="400" font-size="41" transform="matrix(1 0 0 1 2761.14 1576)">APPROPRIATE</text><text fill="#4B4C6B" font-family="Arial,Arial_MSFontService,sans-serif" font-weight="400" font-size="41" transform="matrix(1 0 0 1 2829.89 1625)">ACTION</text></g></svg>