<svg width="748" height="593" xmlns="http://www.w3.org/2000/svg" xmlns:xlink="http://www.w3.org/1999/xlink" xml:space="preserve" overflow="hidden"><defs><clipPath id="clip0"><rect x="2344" y="660" width="748" height="593"/></clipPath></defs><g clip-path="url(#clip0)" transform="translate(-2344 -660)"><path d="M2344 780.874C2344 770.45 2352.45 762 2362.87 762L3069.13 762C3079.55 762 3088 770.45 3088 780.874L3088 1203.13C3088 1213.55 3079.55 1222 3069.13 1222L2362.87 1222C2352.45 1222 2344 1213.55 2344 1203.13Z" fill="#CAEEFB" fill-rule="evenodd"/><path d="M2559.48 1221.95 2548.92 1241.89C2541.08 1256.7 2519.91 1256.7 2512.08 1241.89L2501.52 1221.95C2491.33 1202.7 2486 1181.24 2486 1159.45L2486 962 2575 962 2575 1159.45C2575 1181.24 2569.67 1202.7 2559.48 1221.95Z" fill="#A6A6A6" fill-rule="evenodd"/><path d="M2495 962 2495 1159.58C2495 1179.81 2500.02 1199.95 2509.52 1217.81L2520.12 1237.77C2522.2 1241.67 2526.08 1244 2530.5 1244 2534.92 1244 2538.8 1241.67 2540.88 1237.77L2551.49 1217.81C2560.98 1199.94 2566 1179.81 2566 1159.58L2566 962 2495 962Z" fill="#FFFFFF" fill-rule="evenodd"/><path d="M2495 1098 2495 1159.75C2495 1179.94 2500.02 1200.03 2509.52 1217.86L2520.12 1237.78C2522.2 1241.68 2526.08 1244 2530.5 1244 2534.92 1244 2538.8 1241.68 2540.88 1237.78L2551.49 1217.86C2560.98 1200.03 2566 1179.94 2566 1159.75L2566 1098 2495 1098Z" fill="#79D3FE" fill-rule="evenodd"/><path d="M2495.5 851.5 2533.5 1195.5" stroke="#156082" stroke-width="6.875" stroke-miterlimit="8" fill="none" fill-rule="evenodd"/><path d="M2530.5 1164.5 2533.5 1195.5" stroke="#FFFFFF" stroke-width="21.0137" stroke-linecap="round" stroke-miterlimit="8" fill="none" fill-rule="evenodd"/><path d="M2577.07 932 2482.93 932C2474.69 932 2468 938.716 2468 947L2468 947C2468 955.284 2474.69 962 2482.93 962L2577.07 962C2585.31 962 2592 955.284 2592 947L2592 947C2592 938.716 2585.31 932 2577.07 932Z" fill="#A6A6A6" fill-rule="evenodd"/><path d="M2546.59 1045 2513.41 1045C2511.53 1045 2510 1043.43 2510 1041.5L2510 1041.5C2510 1039.57 2511.53 1038 2513.41 1038L2546.59 1038C2548.47 1038 2550 1039.57 2550 1041.5L2550 1041.5C2550 1043.44 2548.47 1045 2546.59 1045Z" fill="#78779F" fill-rule="evenodd"/><path d="M2539.68 1061 2521.32 1061C2519.49 1061 2518 1059.43 2518 1057.5L2518 1057.5C2518 1055.57 2519.49 1054 2521.32 1054L2539.68 1054C2541.51 1054 2543 1055.57 2543 1057.5L2543 1057.5C2543 1059.44 2541.51 1061 2539.68 1061Z" fill="#78779F" fill-rule="evenodd"/><path d="M2546.59 1093 2513.41 1093C2511.53 1093 2510 1091.66 2510 1090L2510 1090C2510 1088.34 2511.53 1087 2513.41 1087L2546.59 1087C2548.47 1087 2550 1088.34 2550 1090L2550 1090C2550 1091.66 2548.47 1093 2546.59 1093Z" fill="#78779F" fill-rule="evenodd"/><path d="M2539.68 1110 2521.32 1110C2519.49 1110 2518 1108.43 2518 1106.5L2518 1106.5C2518 1104.57 2519.49 1103 2521.32 1103L2539.68 1103C2541.51 1103 2543 1104.57 2543 1106.5L2543 1106.5C2543 1108.44 2541.51 1110 2539.68 1110Z" fill="#78779F" fill-rule="evenodd"/><path d="M2539.68 1077 2521.32 1077C2519.49 1077 2518 1075.43 2518 1073.5L2518 1073.5C2518 1071.57 2519.49 1070 2521.32 1070L2539.68 1070C2541.51 1070 2543 1071.57 2543 1073.5L2543 1073.5C2543 1075.43 2541.51 1077 2539.68 1077Z" fill="#78779F" fill-rule="evenodd"/><path d="M2546.59 1142 2513.41 1142C2511.53 1142 2510 1140.43 2510 1138.5L2510 1138.5C2510 1136.57 2511.53 1135 2513.41 1135L2546.59 1135C2548.47 1135 2550 1136.57 2550 1138.5L2550 1138.5C2550 1140.43 2548.47 1142 2546.59 1142Z" fill="#78779F" fill-rule="evenodd"/><path d="M2539.68 1126 2521.32 1126C2519.49 1126 2518 1124.43 2518 1122.5L2518 1122.5C2518 1120.57 2519.49 1119 2521.32 1119L2539.68 1119C2541.51 1119 2543 1120.57 2543 1122.5L2543 1122.5C2543 1124.44 2541.51 1126 2539.68 1126Z" fill="#78779F" fill-rule="evenodd"/><path d="M2539.68 1158 2521.32 1158C2519.49 1158 2518 1156.66 2518 1155L2518 1155C2518 1153.34 2519.49 1152 2521.32 1152L2539.68 1152C2541.51 1152 2543 1153.34 2543 1155L2543 1155C2543 1156.66 2541.51 1158 2539.68 1158Z" fill="#78779F" fill-rule="evenodd"/><path d="M2539.68 1175 2521.32 1175C2519.49 1175 2518 1173.43 2518 1171.5L2518 1171.5C2518 1169.57 2519.49 1168 2521.32 1168L2539.68 1168C2541.51 1168 2543 1169.57 2543 1171.5L2543 1171.5C2543 1173.43 2541.51 1175 2539.68 1175Z" fill="#78779F" fill-rule="evenodd"/><path d="M2727.48 1221.95 2716.92 1241.89C2709.08 1256.7 2687.91 1256.7 2680.08 1241.89L2669.52 1221.95C2659.33 1202.7 2654 1181.24 2654 1159.45L2654 962 2743 962 2743 1159.45C2743 1181.24 2737.67 1202.7 2727.48 1221.95Z" fill="#A6A6A6" fill-rule="evenodd"/><path d="M2663 962 2663 1159.58C2663 1179.81 2668.02 1199.95 2677.52 1217.81L2688.12 1237.77C2690.2 1241.67 2694.08 1244 2698.5 1244 2702.92 1244 2706.8 1241.67 2708.88 1237.77L2719.48 1217.81C2728.98 1199.94 2734 1179.81 2734 1159.58L2734 962 2663 962Z" fill="#FFFFFF" fill-rule="evenodd"/><path d="M2663 1065 2663 1159.52C2663 1179.76 2668.02 1199.91 2677.52 1217.79L2688.12 1237.77C2690.2 1241.67 2694.08 1244 2698.5 1244 2702.92 1244 2706.8 1241.67 2708.88 1237.76L2719.48 1217.79C2728.98 1199.91 2734 1179.76 2734 1159.52L2734 1065 2663 1065Z" fill="#79D3FE" fill-rule="evenodd"/><path d="M2751.28 892 2645.72 892C2636.48 892 2629 899.43 2629 908.595L2629 945.409C2629 954.574 2636.48 962 2645.72 962L2751.28 962C2760.52 962 2768 954.57 2768 945.409L2768 908.595C2768 899.43 2760.51 892 2751.28 892Z" fill="#79D3FE" fill-rule="evenodd"/><path d="M2714.67 1045 2682.33 1045C2680.49 1045 2679 1043.43 2679 1041.5L2679 1041.5C2679 1039.57 2680.49 1038 2682.33 1038L2714.67 1038C2716.51 1038 2718 1039.57 2718 1041.5L2718 1041.5C2718 1043.44 2716.51 1045 2714.67 1045Z" fill="#78779F" fill-rule="evenodd"/><path d="M2707.68 1061 2689.32 1061C2687.49 1061 2686 1059.43 2686 1057.5L2686 1057.5C2686 1055.57 2687.49 1054 2689.32 1054L2707.68 1054C2709.51 1054 2711 1055.57 2711 1057.5L2711 1057.5C2711 1059.44 2709.51 1061 2707.68 1061Z" fill="#78779F" fill-rule="evenodd"/><path d="M2714.67 1093 2682.33 1093C2680.49 1093 2679 1091.66 2679 1090L2679 1090C2679 1088.34 2680.49 1087 2682.33 1087L2714.67 1087C2716.51 1087 2718 1088.34 2718 1090L2718 1090C2718 1091.66 2716.51 1093 2714.67 1093Z" fill="#78779F" fill-rule="evenodd"/><path d="M2707.68 1110 2689.32 1110C2687.49 1110 2686 1108.43 2686 1106.5L2686 1106.5C2686 1104.57 2687.49 1103 2689.32 1103L2707.68 1103C2709.51 1103 2711 1104.57 2711 1106.5L2711 1106.5C2711 1108.44 2709.51 1110 2707.68 1110Z" fill="#78779F" fill-rule="evenodd"/><path d="M2707.68 1077 2689.32 1077C2687.49 1077 2686 1075.43 2686 1073.5L2686 1073.5C2686 1071.57 2687.49 1070 2689.32 1070L2707.68 1070C2709.51 1070 2711 1071.57 2711 1073.5L2711 1073.5C2711 1075.43 2709.51 1077 2707.68 1077Z" fill="#78779F" fill-rule="evenodd"/><path d="M2714.67 1142 2682.33 1142C2680.49 1142 2679 1140.43 2679 1138.5L2679 1138.5C2679 1136.57 2680.49 1135 2682.33 1135L2714.67 1135C2716.51 1135 2718 1136.57 2718 1138.5L2718 1138.5C2718 1140.43 2716.51 1142 2714.67 1142Z" fill="#78779F" fill-rule="evenodd"/><path d="M2707.68 1126 2689.32 1126C2687.49 1126 2686 1124.43 2686 1122.5L2686 1122.5C2686 1120.57 2687.49 1119 2689.32 1119L2707.68 1119C2709.51 1119 2711 1120.57 2711 1122.5L2711 1122.5C2711 1124.44 2709.51 1126 2707.68 1126Z" fill="#78779F" fill-rule="evenodd"/><path d="M2707.68 1158 2689.32 1158C2687.49 1158 2686 1156.66 2686 1155L2686 1155C2686 1153.34 2687.49 1152 2689.32 1152L2707.68 1152C2709.51 1152 2711 1153.34 2711 1155L2711 1155C2711 1156.66 2709.51 1158 2707.68 1158Z" fill="#78779F" fill-rule="evenodd"/><path d="M2707.68 1175 2689.32 1175C2687.49 1175 2686 1173.43 2686 1171.5L2686 1171.5C2686 1169.57 2687.49 1168 2689.32 1168L2707.68 1168C2709.51 1168 2711 1169.57 2711 1171.5L2711 1171.5C2711 1173.43 2709.51 1175 2707.68 1175Z" fill="#78779F" fill-rule="evenodd"/><path d="M2647 892 2655 892 2655 962 2647 962Z" fill="#0197F8" fill-rule="evenodd"/><path d="M2631 953.889C2632.81 957.041 2635.62 959.556 2639 961L2639 893C2635.61 894.445 2632.81 896.96 2631 900.112L2631 953.889Z" fill="#0197F8" fill-rule="evenodd"/><path d="M2679 892 2687 892 2687 962 2679 962Z" fill="#0197F8" fill-rule="evenodd"/><path d="M2663 892 2671 892 2671 962 2663 962Z" fill="#0197F8" fill-rule="evenodd"/><path d="M2710 892 2718 892 2718 962 2710 962Z" fill="#0197F8" fill-rule="evenodd"/><path d="M2694 892 2702 892 2702 962 2694 962Z" fill="#0197F8" fill-rule="evenodd"/><path d="M2742 892 2750 892 2750 962 2742 962Z" fill="#0197F8" fill-rule="evenodd"/><path d="M2726 892 2734 892 2734 962 2726 962Z" fill="#0197F8" fill-rule="evenodd"/><path d="M2758 961C2760.96 959.556 2763.42 957.041 2765 953.889L2765 900.112C2763.42 896.96 2760.96 894.445 2758 893L2758 961Z" fill="#0197F8" fill-rule="evenodd"/><path d="M2713.17 747.171 2713.17 747.171C2709.4 750.943 2703.28 750.943 2699.51 747.171L2671.83 719.489C2668.06 715.717 2668.06 709.601 2671.83 705.829L2671.83 705.829C2675.6 702.057 2681.72 702.057 2685.49 705.829L2713.17 733.507C2716.94 737.283 2716.94 743.399 2713.17 747.171Z" fill="#4B4C6B" fill-rule="evenodd"/><path d="M2570.05 827.113 2570.05 827.113C2565.91 837.953 2559.56 847.792 2551.41 856.002L2538.57 868.912C2535.14 872.363 2535.14 877.961 2538.57 881.412L2538.57 881.412C2542 884.863 2547.57 884.863 2551 881.412L2563.83 868.501C2571.99 860.295 2581.77 853.903 2592.55 849.745L2592.55 849.745C2600.38 846.722 2607.5 842.073 2613.43 836.103L2701 748.004 2671.18 718 2583.61 806.099C2577.67 812.066 2573.05 819.227 2570.05 827.113Z" fill="#D7D1EB" fill-rule="evenodd"/><path d="M2675.66 722 2697 743.478 2609.27 831.773C2603.89 837.189 2597.55 841.326 2590.45 844.072 2578.79 848.572 2568.4 855.361 2559.58 864.247L2546.72 877.186C2545.64 878.272 2543.88 878.272 2542.81 877.186 2541.73 876.1 2541.73 874.332 2542.81 873.246L2555.66 860.307C2564.49 851.422 2571.24 840.966 2575.71 829.234 2578.44 822.081 2582.55 815.71 2587.93 810.294L2675.66 722Z" fill="#FFFFFF" fill-rule="evenodd"/><path d="M2747.87 671.13C2762.71 685.969 2762.71 710.031 2747.87 724.87 2733.03 739.71 2708.97 739.71 2694.13 724.87 2679.29 710.031 2679.29 685.969 2694.13 671.13 2708.97 656.29 2733.03 656.29 2747.87 671.13Z" fill="#4B4C6B" fill-rule="evenodd"/><path d="M2568.82 843C2565.14 849.192 2560.76 854.926 2555.66 860.115L2542.81 873.194C2541.73 874.292 2541.73 876.079 2542.81 877.177 2543.89 878.275 2545.64 878.275 2546.72 877.177L2559.58 864.097C2568.41 855.115 2578.79 848.255 2590.45 843.703 2590.98 843.497 2591.48 843.224 2592 843.004L2568.82 843.004Z" fill="#0197F8" fill-rule="evenodd"/><path d="M2552.63 905.623 2552.64 905.619 2541.5 888 2530.36 905.619 2530.36 905.623C2528.88 907.819 2528 910.473 2528 913.335 2528 920.881 2534.05 927 2541.5 927 2548.96 927 2555 920.881 2555 913.335 2554.99 910.473 2554.12 907.819 2552.63 905.623Z" fill="#0197F8" fill-rule="evenodd"/><text fill="#4B4C6B" font-family="Arial,Arial_MSFontService,sans-serif" font-weight="400" font-size="41" transform="matrix(1 0 0 1 2846.6 820)">DISEASE</text><text fill="#4B4C6B" font-family="Arial,Arial_MSFontService,sans-serif" font-weight="400" font-size="41" transform="matrix(1 0 0 1 2816.81 870)">DETECTION </text></g></svg>