<svg width="744" height="503" xmlns="http://www.w3.org/2000/svg" xmlns:xlink="http://www.w3.org/1999/xlink" xml:space="preserve" overflow="hidden"><defs><clipPath id="clip0"><rect x="1187" y="756" width="744" height="503"/></clipPath></defs><g clip-path="url(#clip0)" transform="translate(-1187 -756)"><path d="M1187 779.92C1187 766.709 1197.71 756 1210.92 756L1907.08 756C1920.29 756 1931 766.709 1931 779.92L1931 1192.08C1931 1205.29 1920.29 1216 1907.08 1216L1210.92 1216C1197.71 1216 1187 1205.29 1187 1192.08Z" fill="#CAEEFB" fill-rule="evenodd"/><text fill="#4B4C6B" font-family="Arial,Arial_MSFontService,sans-serif" font-weight="400" font-size="41" transform="matrix(1 0 0 1 1728.47 814)">INPUT </text><text fill="#4B4C6B" font-family="Arial,Arial_MSFontService,sans-serif" font-weight="400" font-size="41" transform="matrix(1 0 0 1 1686.07 864)">SYMTOMS</text><path d="M1629.29 1140 1254.71 1140C1243.32 1140 1234 1134.62 1234 1128.05L1234 827.952C1234 821.378 1243.32 816 1254.71 816L1629.29 816C1640.68 816 1650 821.378 1650 827.952L1650 1128.05C1650 1134.62 1640.68 1140 1629.29 1140Z" fill="#595959" fill-rule="evenodd"/><path d="M1632.5 833.5 1632.5 1123.5 1251.5 1123.5 1251.5 833.5Z" stroke="#0F9ED5" stroke-width="3.4375" stroke-miterlimit="8" fill="#FFFFFF" fill-rule="evenodd"/><path d="M1634 838.938 1634 833 1251 833 1251 1123 1259.28 1123 1259.28 838.938Z" fill="#A6A6A6" fill-rule="evenodd"/><path d="M1286 882 1319 882 1319 916 1286 916Z" fill="#D9D9D9" fill-rule="evenodd"/><path d="M1286 925 1319 925 1319 954 1286 954Z" fill="#D9D9D9" fill-rule="evenodd"/><path d="M1305.57 915.5 1283.5 896.869 1285.62 894.068 1305.42 910.781 1346.21 871.5 1348.5 874.15Z" stroke="#0F9ED5" stroke-width="3.4375" stroke-miterlimit="8" fill="#4E95D9" fill-rule="evenodd"/><path d="M1286 958 1319 958 1319 992 1286 992Z" fill="#D9D9D9" fill-rule="evenodd"/><path d="M1333 890 1475 890 1475 911.001 1333 911.001Z" fill="#D4DADD" fill-rule="evenodd"/><path d="M1333 926 1475 926 1475 947.001 1333 947.001Z" fill="#D4DADD" fill-rule="evenodd"/><path d="M1333 966 1475 966 1475 986.001 1333 986.001Z" fill="#D4DADD" fill-rule="evenodd"/><path d="M1284 1024 1515 1024 1515 1044 1284 1044Z" fill="#D4DADD" fill-rule="evenodd"/><path d="M1284 1036 1515 1036 1515 1057 1284 1057Z" fill="#D4DADD" fill-rule="evenodd"/><path d="M1284 1053 1515 1053 1515 1073 1284 1073Z" fill="#D4DADD" fill-rule="evenodd"/><path d="M1284 1065 1515 1065 1515 1086 1284 1086Z" fill="#D4DADD" fill-rule="evenodd"/><path d="M1632 1165.14 1705.84 1259C1705.84 1259 1736.32 1253.18 1756.38 1227.93 1776.44 1202.68 1780 1176.34 1780 1176.34L1682.08 1112 1632 1165.14Z" fill="#F6C6AD" fill-rule="evenodd"/><path d="M1578.82 1013.16C1578.82 1013.16 1541.75 990.065 1537.1 1005.07 1532.45 1020.07 1543.58 1084.94 1550.7 1093.77 1557.82 1102.6 1596.26 1105.93 1605.48 1088.53 1614.71 1071.12 1578.82 1013.16 1578.82 1013.16Z" fill="#0197F8" fill-rule="evenodd"/><path d="M1526.99 1016.01C1526.99 1016.01 1516.54 1015.58 1515.94 1022.34 1515.35 1029.1 1511.88 1049.13 1515.94 1052.59 1520.01 1056.06 1537.84 1068 1545.21 1068 1552.58 1068 1568.43 1064.73 1570.41 1060.68 1572.4 1056.63 1569.25 1047.59 1562.66 1045.28 1556.07 1042.96 1540.59 1039.55 1540.59 1039.55L1526.99 1016.01Z" fill="#34ACF9" fill-rule="evenodd"/><path d="M1522.47 1032.09C1522.47 1032.09 1519.98 1047.95 1526.44 1051.85 1532.91 1055.76 1542.58 1054.03 1547.65 1049.14 1552.72 1044.25 1558 1030 1558 1030L1522.47 1032.09Z" fill="#0197F8" fill-rule="evenodd"/><path d="M1585 999.557C1585 999.557 1568.56 987.244 1563.12 987.016 1557.69 986.789 1531.36 989 1526.69 990.158 1522.02 991.315 1522.02 1002.9 1522.02 1011.01 1522.02 1019.12 1521.64 1041.9 1523.97 1045.38 1526.31 1048.85 1540.31 1052.72 1544.98 1041.9 1549.65 1031.09 1547.7 1010.62 1547.7 1010.62L1585 999.557Z" fill="#34ACF9" fill-rule="evenodd"/><path d="M1569.5 1034.5 1503.5 929.5" stroke="#0D3512" stroke-width="4.98573" stroke-linecap="round" stroke-miterlimit="8" fill="none" fill-rule="evenodd"/><path d="M1501.63 942.711 1496.19 926.595 1503.14 922.141 1515.52 933.804Z" fill="#0D3512" fill-rule="evenodd"/><path d="M1693 1116.99C1693 1116.99 1652.29 1087.77 1648.17 1079.56 1644.04 1071.36 1631.68 1040.59 1625.49 1032.39 1619.31 1024.19 1596.12 1001.11 1592 1000.09 1587.87 999.062 1580.15 1000.09 1580.15 1000.09 1580.15 1000.09 1543.64 995.831 1538.49 997.313 1533.34 998.795 1531.19 1010.86 1539.95 1014.96 1548.71 1019.06 1564.17 1019.57 1564.17 1019.57L1578.11 1027.58C1578.11 1027.58 1576.54 1040.61 1580.66 1058.03 1584.78 1075.46 1587.83 1077.21 1587.83 1077.21 1587.83 1077.21 1565.82 1079.84 1559.84 1093.29 1553.86 1106.73 1570.35 1112.37 1578.6 1114.42 1586.84 1116.47 1599.55 1123.78 1607.92 1128.58 1616.29 1133.39 1637.86 1178 1637.86 1178 1637.86 1178 1684.75 1163.65 1693 1116.99Z" fill="#67C1FB" fill-rule="evenodd"/><path d="M1558.15 1088.09C1555.75 1088.42 1553.6 1088.48 1552.07 1088.16 1548.42 1087.39 1540.92 1083.73 1534.53 1080 1532.15 1084.47 1530.95 1090.1 1533.18 1094.21 1536.33 1100.02 1543.84 1104.29 1553.61 1109.84 1563.38 1115.39 1567.34 1117.3 1571.16 1115.12 1574.98 1112.94 1574.91 1103.12 1571.16 1098.08 1569.69 1096.11 1564.23 1092.16 1558.15 1088.09Z" fill="#34ACF9" fill-rule="evenodd"/><path d="M1566.51 1063.31C1560.91 1065.92 1550.87 1067.74 1545.45 1067.74 1540.31 1067.74 1530.02 1061.75 1523 1057 1523.2 1063.11 1523.68 1070.76 1524.78 1072.77 1526.7 1076.26 1545.84 1087.37 1552.35 1088.78 1558.85 1090.19 1576.51 1084.57 1578.59 1078.67 1580.48 1073.33 1575.73 1065.62 1566.51 1063.31Z" fill="#34ACF9" fill-rule="evenodd"/><path d="M1543.88 1072.45C1552.24 1074.73 1567.46 1069.37 1574 1066.79 1572.01 1065.18 1569.5 1063.83 1566.44 1063.09 1560.85 1065.62 1550.82 1067.37 1545.42 1067.37 1540.29 1067.37 1530.01 1061.58 1523 1057 1523 1057 1533.06 1069.49 1543.88 1072.45Z" fill="#0197F8" fill-rule="evenodd"/><path d="M1557.73 1088.66C1555.4 1088.98 1553.32 1089.04 1551.83 1088.73 1548.7 1088.06 1542.66 1085.18 1537.01 1082L1537 1082C1537 1082 1547.3 1092.75 1553.33 1093.79 1556.52 1094.34 1560.74 1093.73 1564 1093.04 1562.12 1091.66 1559.97 1090.17 1557.73 1088.66Z" fill="#0197F8" fill-rule="evenodd"/><path d="M1305.57 990.5 1283.5 972.292 1285.62 969.553 1305.42 985.888 1346.21 947.5 1348.5 950.092Z" stroke="#0F9ED5" stroke-width="3.4375" stroke-miterlimit="8" fill="#4E95D9" fill-rule="evenodd"/></g></svg>